<?xml version="1.0" encoding="UTF-8"?>
<!DOCTYPE svg  PUBLIC '-//W3C//DTD SVG 1.1//EN'  'http://www.w3.org/Graphics/SVG/1.1/DTD/svg11.dtd'>
<svg width="497pt" height="413pt" version="1.1" viewBox="0 0 497 413" xmlns="http://www.w3.org/2000/svg" xmlns:xlink="http://www.w3.org/1999/xlink">
<defs>
<style type="text/css">*{stroke-linecap:butt;stroke-linejoin:round;}</style>
</defs>
<path d="m0 413.2h497.32v-413.2h-497.32z" fill="#fff"/>
<path d="m40.603 170.63h446.02v-141.83h-446.02z" fill="#fff"/>
<defs>
<path id="af" d="m45.837-235.45v-95.579l0.21517-0.29615 0.21517-0.26607 0.21517-0.24198 0.21517-0.2347 0.21517-0.22382 0.21517-0.18599 0.21517-0.16608 0.21517-0.16329 0.21517-0.16066 0.21517-0.1567 0.21517-0.10462 0.21517-0.10132 0.21517-0.090418 0.21517-0.085978 0.21517-0.084638 0.21517-0.083904 0.21517-0.082607 0.21517-0.080831 0.21517-0.06792 0.21517-0.067415 0.21517-0.066966 0.21517-0.066465 0.21517-0.054138 0.21517-0.052861 0.21517-0.048708 0.21517-0.048428 0.21517-0.042125 0.21517-0.040071 0.21517-0.039917 0.21517-0.027614 0.21517-0.027534 0.21517-0.027483 0.21517-0.027799 0.21517-0.026617 0.21517-0.021578 0.21517-0.020605 0.21517-0.020563 0.21517-0.020522 0.21517-0.020489 0.21517-0.020411 0.21517-0.020331 0.21517-0.020259 0.21517-0.020189 0.21517-0.015051 0.21517-0.014594 0.21517-0.014544 0.21517-0.001668 0.21517-0.001554 0.21517-0.00187 0.21517-0.001651 0.21517-0.001492 0.86068-0.003194 0.21517-8.1e-4 0.21517-8.21e-4 0.43034-0.001673 0.21517-8.01e-4 0.43034-0.001597 0.21517-7.97e-4 0.21517-7.94e-4 0.43034-0.001552 0.21517-7.64e-4 0.21517-8.29e-4 0.21517-8.65e-4 0.21517-8.62e-4 0.21517-8.55e-4 0.21517-8.26e-4 0.21517-7.7e-4 1.291-0.004596 0.21517-7.83e-4 0.21517-7.68e-4 1.5062-0.002868 0.64551-0.001288 0.86068-0.001701 0.21517-2.92e-4 0.21517-6.6e-5 0.21517 2.43e-4 0.21517 2.93e-4 0.21517 3.15e-4 0.21517 3.24e-4 0.21517 3.33e-4 0.21517 3.61e-4 0.43034 7.73e-4 0.64551 0.001164 0.64551 0.001047 0.43034 7.03e-4 0.21517 3.32e-4 0.21517 3.4e-4 0.86068 0.001269 0.21517 3.05e-4 0.21517 2.76e-4 2.3669 0.002328 0.21517 3.17e-4 0.64551 0.001852 0.21517 6.19e-4 0.21517 6.58e-4 0.21517 0.006335 0.21517 0.01063 0.21517 0.010636 0.21517 0.010645 0.21517 0.010656 0.21517 0.010667 0.21517 0.010678 0.21517 0.010689 0.21517 0.010702 0.21517 0.010725 0.64551 0.032264 0.21517 0.01073 0.21517 0.010712 0.21517 0.010722 0.21517 0.010733 0.21517 0.010744 0.21517 0.010754 0.21517 0.010765 0.21517 0.010776 0.21517 0.010786 0.21517 0.010793 0.21517 0.010801 0.21517 0.010811 0.21517 0.010824 0.21517 0.010836 0.21517 0.010862 0.21517 0.010883 0.21517 0.010899 0.21517 0.010927 0.21517 0.010937 0.21517 0.010949 0.21517 0.01096 0.21517 0.010972 0.21517 0.010985 0.21517 0.010996 0.21517 0.011021 0.21517 0.011033 0.21517 0.011044 0.21517 0.011055 0.21517 0.011064 0.21517 0.011074 0.21517 0.010972 0.21517 0.010671 0.21517 0.010679 0.21517 0.010709 0.21517 0.010726 0.21517 0.010702 0.21517 0.004748 0.21517 2.23e-4 0.21517 1.77e-4 0.21517 1.19e-4 0.21517 6.3e-5 0.21517 4e-6 0.21517-4.03e-4 0.21517-4.58e-4 0.43034-0.005593 0.21517-0.002822 0.21517-0.002812 0.21517-0.002803 0.21517-0.002793 0.21517-0.002787 0.21517-0.002782 0.21517-0.002771 0.21517-0.002752 0.21517-0.002736 0.21517-0.002723 1.5062-0.019016 0.21517-0.002737 0.43034-0.005502 0.64551-0.008317 0.21517-0.002762 0.21517-0.002756 0.21517-0.002752 0.21517-0.002746 0.21517-0.00274 0.21517-0.002722 0.21517-0.002715 0.21517-0.00271 0.21517-0.002704 0.21517-0.002696 0.21517-0.002674 0.21517-0.002634 0.21517-0.002523 0.21517-0.002509 0.21517-0.002437 0.43034-0.00486 0.21517-0.002399 0.21517-0.002333 0.21517-0.002231 0.21517-0.002109 0.21517-0.002032 0.21517-0.001511 0.21517-0.001302 0.21517 0.001038 0.21517 0.001068 0.21517 0.001128 0.21517 0.001163 0.21517 0.001177 0.21517 0.001183 0.21517 0.001197 0.21517 0.001236 0.21517 0.001258 0.21517 0.001282 0.43034 0.002611 0.21517 0.001351 0.21517 0.001396 0.21517 0.001403 0.21517 0.001458 0.21517 0.001533 0.21517 0.020373 0.21517 0.028578 0.21517 0.028698 0.21517 0.028826 0.21517 0.028971 0.21517 0.029101 0.21517 0.029186 0.21517 0.029271 0.21517 0.029344 0.21517 0.029425 0.21517 0.029523 0.21517 0.029609 0.21517 0.029694 0.21517 0.029828 0.21517 0.029924 0.21517 0.030012 0.21517 0.030113 0.21517 0.030202 0.21517 0.030348 0.43034 0.060887 0.21517 0.030594 0.21517 0.030636 0.21517 0.030756 0.21517 0.0309 0.21517 0.030994 0.21517 0.031085 0.21517 0.031199 0.21517 0.031751 0.43034 0.063705 0.21517 0.03181 0.21517 0.031896 0.21517 0.032053 0.21517 0.032136 0.21517 0.032268 0.21517 0.032389 0.21517 0.032512 0.21517 0.032616 0.21517 0.032703 0.21517 0.032919 0.21517 0.044581 0.21517 0.053643 0.21517 0.054746 0.21517 0.055015 0.21517 0.055962 0.21517 0.056317 0.21517 0.056601 0.21517 0.056842 0.21517 0.034896 0.21517 0.025388 0.21517 0.025484 0.21517 0.025541 0.21517 0.025577 0.21517 0.026087 0.21517 0.026155 0.21517 0.026227 0.21517 0.026356 0.21517 0.026435 0.21517 0.026516 0.21517 0.026697 0.21517 0.027539 0.21517 0.027736 0.21517 0.033737 0.21517 0.037738 0.21517 0.037894 0.21517 0.045266 0.21517 0.045716 0.21517 0.047463 0.21517 0.047677 0.21517 0.0478 0.21517 0.048212 0.21517 0.049124 0.21517 0.04989 0.21517 0.055359 0.21517 0.056114 0.21517 0.057967 0.21517 0.057933 0.21517 0.058233 0.21517 0.058552 0.21517 0.058911 0.21517 0.05925 0.21517 0.059514 0.21517 0.059856 0.21517 0.060864 0.21517 0.067564 0.21517 0.068816 0.21517 0.069263 0.21517 0.069729 0.21517 0.07006 0.21517 0.056246 0.21517 0.045842 0.21517 0.046647 0.21517 0.048075 0.21517 0.047429 0.21517 0.047586 0.21517 0.047765 0.21517 0.04798 0.21517 0.048219 0.21517 0.04845 0.21517 0.048609 0.21517 0.048808 0.21517 0.049011 0.21517 0.048646 0.21517 0.048901 0.21517 0.049157 0.21517 0.049344 0.21517 0.049596 0.21517 0.049824 0.21517 0.049945 0.21517 0.049203 0.21517 0.049213 0.21517 0.041849 0.21517 0.037559 0.21517 0.037648 0.21517 0.0285 0.21517 0.028144 0.21517 0.026183 0.21517 0.026218 0.21517 0.026269 0.21517 0.026051 0.21517 0.025193 0.21517 0.024501 0.21517 0.017959 0.21517 0.017394 0.21517 0.0154 0.21517 0.015086 0.21517 0.015109 0.21517 0.015161 0.21517 0.015207 0.43034 0.030564 0.21517 0.015267 0.21517 0.014448 0.21517 0.007524 0.21517 0.008068 0.21517 0.00807 0.21517 0.008044 0.21517 0.008009 0.21517 0.007743 0.21517 0.007245 0.21517 0.005408 0.21517 0.004167 0.21517 0.004756 0.21517 0.011588 0.21517 0.011965 0.21517 0.012321 0.21517 0.012325 0.64551 0.036993 0.43034 0.02467 0.43034 0.024639 0.21517 0.016954 0.21517 0.016956 0.21517 0.016965 0.21517 0.017023 0.21517 0.01708 0.21517 0.017139 0.21517 0.017196 0.21517 0.016708 0.21517 0.016798 0.21517 0.016932 0.21517 0.016968 0.21517 0.017009 0.21517 0.017078 0.21517 0.017135 0.21517 0.017169 0.21517 0.017197 0.21517 0.017242 0.21517 0.017284 0.21517 0.017311 0.21517 0.017338 0.21517 0.017366 0.21517 0.017388 0.21517 0.017375 0.21517 0.0173 0.21517 0.017235 0.21517 0.017264 0.21517 0.017247 0.21517 0.017216 0.21517 0.016488 0.21517 0.014867 0.21517 0.014888 0.21517 0.014908 0.21517 0.015942 0.21517 0.015963 0.21517 0.015983 0.21517 0.015949 0.21517 0.015756 0.21517 0.015144 0.21517 0.007798 0.21517 0.007404 0.43034 0.014058 0.43034 0.014028 0.21517 0.007002 0.86068 0.027862 0.64551 0.005916 0.21517 0.001913 0.21517 0.001856 0.21517 0.001797 0.21517 0.001772 0.21517 0.001728 0.21517 0.00167 0.21517 0.001563 0.43034 0.003154 0.21517 0.00153 0.21517 0.001503 0.21517 0.001492 0.21517 0.001494 0.43034 0.00294 0.21517 0.001475 1.291 0.008856 1.0758 0.007157 0.43034 0.002884 1.0758 0.002005 0.21517 4.11e-4 0.21517 4.23e-4 0.21517 4.31e-4 0.21517 4.4e-4 0.21517 4.51e-4 1.7214 0.003639 0.21517 4.79e-4 0.21517 5.11e-4 0.64551 0.001484 0.21517 4.75e-4 0.64551 0.001358 0.21517 4.38e-4 1.0758 0.002213 0.21517 4.28e-4 0.21517 4.14e-4 2.582 0.004637 1.291 0.002143 0.21517 3.59e-4 0.43034 6.84e-4 0.43034 6.54e-4 1.9365 0.002794 0.21517 2.81e-4 0.86068 9.45e-4 0.86068 7.76e-4 0.86068 6.28e-4 0.64551 4.33e-4 0.21517 1.46e-4 0.21517 1.51e-4 0.21517 1.54e-4 0.21517 1.57e-4 0.21517 1.61e-4 0.21517 1.65e-4 0.21517 1.68e-4 0.21517 1.71e-4 0.21517 1.75e-4 0.21517 1.81e-4 2.1517 0.001858 1.291 9.96e-4 0.21517 1.69e-4 0.21517 1.76e-4 0.86068 7.93e-4 0.86068 8.02e-4 0.43034 4.07e-4 0.43034 4.13e-4 0.21517 2.09e-4 0.21517 2.11e-4 0.21517 2.25e-4 0.21517 2.36e-4 0.21517 2.39e-4 0.21517 2.42e-4 0.21517 2.45e-4 1.7214 0.001936 0.43034 4.55e-4 0.21517 2.37e-4 0.21517 2.54e-4 0.43034 5.16e-4 0.21517 2.63e-4 0.21517 2.69e-4 0.21517 2.75e-4 0.21517 2.81e-4 0.21517 2.86e-4 0.21517 3.54e-4 0.21517 3.64e-4 0.21517 3.67e-4 0.21517 3.71e-4 0.21517 3.74e-4 0.86068 0.001502 0.43034 7.16e-4 1.7214 0.002553 1.291 0.001804 0.21517 2.79e-4 1.5062 0.001826 0.21517 2.62e-4 0.21517 2.67e-4 0.21517 2.97e-4 0.21517 3.27e-4 0.21517 3.58e-4 0.21517 3.87e-4 0.21517 4.18e-4 0.21517 4.33e-4 0.21517 0.00176 0.21517 0.014526 0.21517 0.022331 0.21517 0.022378 0.21517 0.022426 0.21517 0.022473 0.21517 0.02252 0.21517 0.022569 0.21517 0.022555 0.21517 0.022601 0.21517 0.02326 0.21517 0.025248 0.21517 0.039382 0.21517 0.045732 0.21517 0.045937 0.21517 0.046145 0.21517 0.046353 0.21517 0.046564 0.21517 0.046777 0.21517 0.046991 0.21517 0.047208 0.21517 0.047427 0.21517 0.047648 0.21517 0.04787 0.21517 0.048096 0.21517 0.048322 0.21517 0.048552 0.21517 0.048783 0.21517 0.049017 0.21517 0.049253 0.21517 0.049494 0.21517 0.049734 0.21517 0.049979 0.21517 0.050224 0.21517 0.050474 0.21517 0.050725 0.21517 0.050978 0.21517 0.051232 0.21517 0.051494 0.21517 0.05176 0.21517 0.052054 0.21517 0.052319 0.21517 0.052583 0.21517 0.05282 0.21517 0.053058 0.21517 0.0533 0.21517 0.053546 0.21517 0.053808 0.21517 0.054074 0.21517 0.052717 0.21517 0.037238 0.21517 0.027776 0.21517 0.029088 0.21517 0.029167 0.21517 0.029247 0.21517 0.029327 0.21517 0.029406 0.21517 0.029486 0.21517 0.029566 0.21517 0.028892 0.21517 0.026576 0.21517 0.009231 0.21517 0.001629 0.21517 0.011176 0.21517 0.02785 0.21517 0.027949 0.21517 0.028049 0.21517 0.028137 0.21517 0.028217 0.21517 0.028298 0.21517 0.028379 0.21517 0.028461 0.21517 0.028543 0.21517 0.028626 0.21517 0.028712 0.21517 0.028801 0.21517 0.028888 0.21517 0.029043 0.21517 0.029205 0.21517 0.029367 0.21517 0.029531 0.21517 0.029696 0.21517 0.029862 0.21517 0.032427 0.21517 0.050708 0.21517 0.060096 0.21517 0.060752 0.21517 0.061411 0.21517 0.062718 0.21517 0.092166 0.21517 0.092999 0.21517 0.093847 0.21517 0.094712 0.21517 0.095591 0.21517 0.096488 0.21517 0.097398 0.21517 0.098308 0.21517 0.099238 0.21517 0.10018 0.21517 0.10115 0.21517 0.10214 0.21517 0.1016 0.21517 0.10262 0.21517 0.10366 0.21517 0.10472 0.21517 0.10583 0.21517 0.10695 0.21517 0.1081 0.21517 0.10927 0.21517 0.11047 0.21517 0.11167 0.21517 0.11289 0.21517 0.10098 0.21517 0.079083 0.21517 0.10138 0.21517 0.10981 0.21517 0.121 0.21517 0.12245 0.21517 0.12394 0.21517 0.12545 0.21517 0.127 0.21517 0.12858 0.21517 0.1302 0.21517 0.13186 0.21517 0.13356 0.21517 0.13531 0.21517 0.137 0.21517 0.13872 0.21517 0.14049 0.21517 0.1423 0.21517 0.14416 0.21517 0.14608 0.21517 0.14403 0.21517 0.11534 0.21517 0.10116 0.21517 0.10164 0.21517 0.10213 0.21517 0.10153 0.21517 0.052677 0.21517 0.052942 0.21517 0.05321 0.21517 0.053481 0.21517 0.053754 0.21517 0.05403 0.21517 0.054309 0.21517 0.054592 0.21517 0.054876 0.21517 0.055164 0.21517 0.055451 0.21517 0.055742 0.21517 0.056036 0.21517 0.056332 0.21517 0.056632 0.21517 0.056921 0.21517 0.057194 0.21517 0.05747 0.21517 0.05775 0.21517 0.058032 0.21517 0.058318 0.21517 0.058605 0.21517 0.058896 0.21517 0.059178 0.21517 0.059091 0.21517 0.026228 0.21517 0.015029 0.21517 6.3e-5 0.21517 4e-5 45.186 0.002736 0.64551 4.7e-5 0.64551 5.2e-5 0.86068 7.8e-5 0.64551 6.5e-5 0.64551 7e-5 0.64551 7.6e-5 0.64551 8.1e-5 0.86068 1.17e-4 0.64551 9.4e-5 0.86068 1.34e-4 0.64551 1.07e-4 0.43034 7.4e-5 0.64551 1.16e-4 13.341 0.002449 33.997 0.003015 1.0758 1.08e-4 0.86068 9.4e-5 1.0758 1.27e-4 1.0758 1.38e-4 0.86068 1.18e-4 0.86068 1.25e-4 0.64551 9.8e-5 0.86068 1.37e-4 0.64551 1.07e-4 0.86068 1.49e-4 66.058 0.011611 0.21517 4.2e-5 0.21517 4.6e-5 0.21517 5.1e-5 0.21517 5.4e-5 0.21517 5.8e-5 0.21517 6.3e-5 0.21517 6.6e-5 0.21517 7.1e-5 0.21517 7.4e-5 0.21517 7.9e-5 0.21517 8.2e-5 0.21517 8.7e-5 0.21517 9.1e-5 0.21517 1.1e-4 0.43034 3.25e-4 0.21517 1.66e-4 0.21517 1.68e-4 0.43034 3.43e-4 0.43034 3.53e-4 0.21517 1.8e-4 0.21517 1.82e-4 0.21517 1.85e-4 0.21517 1.87e-4 0.21517 1.89e-4 0.21517 1.91e-4 0.21517 1.94e-4 0.43034 3.95e-4 0.21517 2.01e-4 0.43034 4.09e-4 0.21517 2.08e-4 0.21517 2.11e-4 0.21517 2.13e-4 0.21517 2.28e-4 0.21517 2.4e-4 0.21517 2.54e-4 0.21517 2.68e-4 0.21517 2.77e-4 0.21517 2.8e-4 0.21517 2.83e-4 0.21517 2.85e-4 0.21517 2.88e-4 3.2276 0.004271 0.21517 2.73e-4 0.21517 2.56e-4 0.21517 2.12e-4 0.21517 2.15e-4 0.21517 2.2e-4 0.21517 2.24e-4 0.21517 2.28e-4 0.21517 2.32e-4 0.21517 2.36e-4 0.21517 2.4e-4 0.21517 2.44e-4 0.21517 3.1e-4 0.21517 4.2e-4 0.21517 5.3e-4 0.21517 6.4e-4 0.21517 7.5e-4 0.21517 8.61e-4 0.21517 9.71e-4 0.21517 0.001082 0.21517 0.001192 0.21517 0.001302 0.21517 0.001412 0.21517 0.001523 0.21517 0.001634 0.21517 0.001743 0.21517 0.001843 0.21517 0.001942 0.21517 0.002042 0.21517 0.002142 0.21517 0.002244 0.21517 0.003067 0.21517 0.003071 0.21517 0.003075 0.21517 0.003081 0.21517 0.003085 0.21517 0.003089 0.21517 0.003095 0.21517 0.003099 0.21517 0.003104 0.21517 0.003109 0.21517 0.003225 0.21517 0.003577 0.21517 0.00435 0.21517 0.005778 0.21517 0.005784 0.21517 0.005789 0.21517 0.005793 0.21517 0.0058 0.21517 0.005804 0.21517 0.005809 0.43034 0.011629 0.21517 0.005816 0.43034 0.011637 0.21517 0.00582 0.21517 0.005852 0.21517 0.005949 0.21517 0.006045 0.21517 0.006142 0.21517 0.006177 0.21517 0.006165 0.21517 0.006154 0.43034 0.012276 0.21517 0.006121 0.21517 0.00611 0.21517 0.006099 0.21517 0.006088 0.21517 0.006077 0.21517 0.008689 0.21517 0.010492 0.21517 0.017014 0.21517 0.017002 0.21517 0.019331 0.21517 0.019778 0.21517 0.019704 0.21517 0.019627 0.21517 0.019552 0.21517 0.018738 0.21517 0.018769 0.21517 0.0188 0.21517 0.018832 0.21517 0.018862 0.21517 0.018894 0.21517 0.018926 0.21517 0.018957 0.21517 0.018988 0.21517 0.019021 0.21517 0.018935 0.21517 0.0186 0.21517 0.01782 0.21517 0.016344 0.21517 0.016546 0.21517 0.016756 0.21517 0.016968 0.21517 0.017181 0.21517 0.019472 0.21517 0.023354 0.21517 0.032174 0.21517 0.032318 0.21517 0.032465 0.21517 0.032612 0.21517 0.03276 0.21517 0.032909 0.21517 0.033026 0.21517 0.033351 0.21517 0.034116 0.21517 0.034889 0.21517 0.035668 0.21517 0.036791 0.21517 0.037159 0.21517 0.037532 0.21517 0.037909 0.21517 0.038289 0.21517 0.038673 0.21517 0.03906 0.21517 0.039452 0.21517 0.039847 0.21517 0.040957 0.21517 0.05301 0.21517 0.046105 0.21517 0.0466 0.21517 0.044419 0.21517 0.044385 0.21517 0.044951 0.21517 0.056847 0.21517 0.058897 0.21517 0.062133 0.21517 0.062576 0.21517 0.063025 0.21517 0.06348 0.21517 0.06394 0.21517 0.064408 0.21517 0.064881 0.21517 0.06536 0.21517 0.065848 0.21517 0.06634 0.21517 0.06684 0.21517 0.067347 0.21517 0.067862 0.21517 0.068382 0.21517 0.068691 0.21517 0.068994 0.21517 0.069299 0.21517 0.069607 0.21517 0.067286 0.21517 0.06291 0.21517 0.060352 0.21517 0.067632 0.21517 0.068069 0.21517 0.068496 0.21517 0.068931 0.21517 0.069382 0.21517 0.069851 0.21517 0.069948 0.21517 0.069467 0.21517 0.068973 0.21517 0.068466 0.21517 0.089778 0.21517 0.090152 0.21517 0.090529 0.21517 0.12774 0.21517 0.12888 0.21517 0.13004 0.21517 0.13123 0.21517 0.13244 0.21517 0.13368 0.21517 0.12969 0.21517 0.11115 0.21517 0.11184 0.21517 0.11254 0.21517 0.11325 0.21517 0.11397 0.21517 0.11472 0.21517 0.098612 0.21517 0.09702 0.21517 0.093769 0.21517 0.094707 0.21517 0.095663 0.21517 0.096636 0.21517 0.13651 0.21517 0.13827 0.21517 0.14007 0.21517 0.14193 0.21517 0.14383 0.21517 0.14578 0.21517 0.14779 0.21517 0.14985 0.21517 0.15197 0.21517 0.15416 0.21517 0.15641 0.21517 0.15874 0.21517 0.16154 0.21517 0.16444 0.21517 0.16744 0.21517 0.17055 0.21517 0.1595 0.21517 0.1502 0.21517 0.15282 0.21517 0.15555 0.21517 0.15838 0.21517 0.16128 0.21517 0.17505 0.21517 0.17809 0.21517 0.18131 0.21517 0.19387 0.21517 0.20858 0.21517 0.20939 0.21517 0.22297 0.21517 0.22836 0.21517 0.1596 0.21517 0.16266 0.21517 0.17327 0.21517 0.18619 0.21517 0.23036 0.21517 0.27211v69.91h-419.8z" stroke="#0766aa" stroke-opacity=".2"/>
</defs>
<g clip-path="url(#j)">
<use y="413.19625" fill="#0766aa" fill-opacity=".2" stroke="#0766aa" stroke-opacity=".2" xlink:href="#af"/>
</g>
<path d="m40.603 170.63v-141.83" clip-path="url(#j)" fill="none" stroke="#b0b0b0" stroke-linecap="square" stroke-width=".8"/>
<defs>
<path id="g" d="m0 0v3.5" stroke="#000" stroke-width=".8"/>
</defs>
<use x="40.603125" y="170.627393" stroke="#000000" stroke-width=".8" xlink:href="#g"/>
<path d="m163 170.63v-141.83" clip-path="url(#j)" fill="none" stroke="#b0b0b0" stroke-linecap="square" stroke-width=".8"/>
<use x="162.996816" y="170.627393" stroke="#000000" stroke-width=".8" xlink:href="#g"/>
<path d="m285.39 170.63v-141.83" clip-path="url(#j)" fill="none" stroke="#b0b0b0" stroke-linecap="square" stroke-width=".8"/>
<use x="285.390506" y="170.627393" stroke="#000000" stroke-width=".8" xlink:href="#g"/>
<path d="m407.78 170.63v-141.83" clip-path="url(#j)" fill="none" stroke="#b0b0b0" stroke-linecap="square" stroke-width=".8"/>
<use x="407.784197" y="170.627393" stroke="#000000" stroke-width=".8" xlink:href="#g"/>
<defs>
<path id="b" d="m0 0h-3.5" stroke="#000" stroke-width=".8"/>
</defs>
<use x="40.603125" y="154.105211" stroke="#000000" stroke-width=".8" xlink:href="#b"/>
<defs>
<path id="f" d="m12.406 8.2969h16.109v55.625l-17.531-3.5156v8.9844l17.438 3.5156h9.8594v-64.609h16.109v-8.2969h-41.984z"/>
<path id="d" d="m31.781 66.406q-7.6094 0-11.453-7.5-3.8281-7.4844-3.8281-22.531 0-14.984 3.8281-22.484 3.8438-7.5 11.453-7.5 7.6719 0 11.5 7.5 3.8438 7.5 3.8438 22.484 0 15.047-3.8438 22.531-3.8281 7.5-11.5 7.5zm0 7.8125q12.266 0 18.734-9.7031 6.4688-9.6875 6.4688-28.141 0-18.406-6.4688-28.109-6.4688-9.6875-18.734-9.6875-12.25 0-18.719 9.6875-6.4688 9.7031-6.4688 28.109 0 18.453 6.4688 28.141 6.4688 9.7031 18.719 9.7031z"/>
</defs>
<g transform="translate(16.003 157.9) scale(.1 -.1)">
<use transform="translate(0 .68438)" xlink:href="#f"/>
<use transform="translate(63.623 .68438)" xlink:href="#d"/>
<use transform="translate(128.2 38.966) scale(.7)" xlink:href="#f"/>
</g>
<use x="40.603125" y="130.467312" stroke="#000000" stroke-width=".8" xlink:href="#b"/>
<defs>
<path id="s" d="m19.188 8.2969h34.422v-8.2969h-46.281v8.2969q5.6094 5.8125 15.297 15.594 9.7031 9.7969 12.188 12.641 4.7344 5.3125 6.6094 9 1.8906 3.6875 1.8906 7.25 0 5.8125-4.0781 9.4688-4.0781 3.6719-10.625 3.6719-4.6406 0-9.7969-1.6094-5.1406-1.6094-11-4.8906v9.9688q5.9531 2.3906 11.125 3.6094 5.1875 1.2188 9.4844 1.2188 11.328 0 18.062-5.6719 6.7344-5.6562 6.7344-15.125 0-4.5-1.6875-8.5312-1.6719-4.0156-6.125-9.4844-1.2188-1.4219-7.7656-8.1875-6.5312-6.7656-18.453-18.922z"/>
</defs>
<g transform="translate(16.003 134.27) scale(.1 -.1)">
<use transform="translate(0 .76562)" xlink:href="#f"/>
<use transform="translate(63.623 .76562)" xlink:href="#d"/>
<use transform="translate(128.2 39.047) scale(.7)" xlink:href="#s"/>
</g>
<use x="40.603125" y="106.829413" stroke="#000000" stroke-width=".8" xlink:href="#b"/>
<defs>
<path id="ad" d="m40.578 39.312q7.0781-1.5156 11.047-6.3125 3.9844-4.7812 3.9844-11.812 0-10.781-7.4219-16.703-7.4219-5.9062-21.094-5.9062-4.5781 0-9.4375 0.90625t-10.031 2.7188v9.5156q4.0938-2.3906 8.9688-3.6094 4.8906-1.2188 10.219-1.2188 9.2656 0 14.125 3.6562t4.8594 10.641q0 6.4531-4.5156 10.078-4.5156 3.6406-12.562 3.6406h-8.5v8.1094h8.8906q7.2656 0 11.125 2.9062t3.8594 8.375q0 5.6094-3.9844 8.6094-3.9688 3.0156-11.391 3.0156-4.0625 0-8.7031-0.89062-4.6406-0.875-10.203-2.7188v8.7812q5.625 1.5625 10.531 2.3438t9.25 0.78125q11.234 0 17.766-5.1094 6.5469-5.0938 6.5469-13.781 0-6.0625-3.4688-10.234t-9.8594-5.7812z"/>
</defs>
<g transform="translate(16.003 110.63) scale(.1 -.1)">
<use transform="translate(0 .76562)" xlink:href="#f"/>
<use transform="translate(63.623 .76562)" xlink:href="#d"/>
<use transform="translate(128.2 39.047) scale(.7)" xlink:href="#ad"/>
</g>
<use x="40.603125" y="83.191514" stroke="#000000" stroke-width=".8" xlink:href="#b"/>
<defs>
<path id="m" d="m37.797 64.312-24.906-38.922h24.906zm-2.5938 8.5938h12.406v-47.516h10.406v-8.2031h-10.406v-17.188h-9.8125v17.188h-32.906v9.5156z"/>
</defs>
<g transform="translate(16.003 86.991) scale(.1 -.1)">
<use transform="translate(0 .68438)" xlink:href="#f"/>
<use transform="translate(63.623 .68438)" xlink:href="#d"/>
<use transform="translate(128.2 38.966) scale(.7)" xlink:href="#m"/>
</g>
<use x="40.603125" y="59.553615" stroke="#000000" stroke-width=".8" xlink:href="#b"/>
<defs>
<path id="ac" d="m10.797 72.906h38.719v-8.3125h-29.688v-17.859q2.1406 0.73438 4.2812 1.0938 2.1562 0.35938 4.3125 0.35938 12.203 0 19.328-6.6875 7.1406-6.6875 7.1406-18.109 0-11.766-7.3281-18.297-7.3281-6.5156-20.656-6.5156-4.5938 0-9.3594 0.78125-4.75 0.78125-9.8281 2.3438v9.9219q4.3906-2.3906 9.0781-3.5625t9.9062-1.1719q8.4531 0 13.375 4.4375 4.9375 4.4375 4.9375 12.062 0 7.6094-4.9375 12.047-4.9219 4.4531-13.375 4.4531-3.9531 0-7.8906-0.875-3.9219-0.875-8.0156-2.7344z"/>
</defs>
<g transform="translate(16.003 63.353) scale(.1 -.1)">
<use transform="translate(0 .68438)" xlink:href="#f"/>
<use transform="translate(63.623 .68438)" xlink:href="#d"/>
<use transform="translate(128.2 38.966) scale(.7)" xlink:href="#ac"/>
</g>
<use x="40.603125" y="35.915717" stroke="#000000" stroke-width=".8" xlink:href="#b"/>
<defs>
<path id="r" d="m33.016 40.375q-6.6406 0-10.531-4.5469-3.875-4.5312-3.875-12.438 0-7.8594 3.875-12.438 3.8906-4.5625 10.531-4.5625t10.516 4.5625q3.875 4.5781 3.875 12.438 0 7.9062-3.875 12.438-3.875 4.5469-10.516 4.5469zm19.578 30.922v-8.9844q-3.7188 1.75-7.5 2.6719-3.7812 0.9375-7.5 0.9375-9.7656 0-14.922-6.5938-5.1406-6.5938-5.875-19.922 2.875 4.25 7.2188 6.5156 4.3594 2.2656 9.5781 2.2656 10.984 0 17.359-6.6719 6.375-6.6562 6.375-18.125 0-11.234-6.6406-18.031-6.6406-6.7812-17.672-6.7812-12.656 0-19.344 9.6875-6.6875 9.7031-6.6875 28.109 0 17.281 8.2031 27.562t22.016 10.281q3.7188 0 7.5-0.73438t7.8906-2.1875z"/>
</defs>
<g transform="translate(16.003 39.715) scale(.1 -.1)">
<use transform="translate(0 .76562)" xlink:href="#f"/>
<use transform="translate(63.623 .76562)" xlink:href="#d"/>
<use transform="translate(128.2 39.047) scale(.7)" xlink:href="#r"/>
</g>
<defs>
<path id="a" d="m0 0h-2" stroke="#000" stroke-width=".6"/>
</defs>
<use x="40.603125" y="170.627393" stroke="#000000" stroke-width=".6" xlink:href="#a"/>
<use x="40.603125" y="166.464966" stroke="#000000" stroke-width=".6" xlink:href="#a"/>
<use x="40.603125" y="163.511677" stroke="#000000" stroke-width=".6" xlink:href="#a"/>
<use x="40.603125" y="161.220927" stroke="#000000" stroke-width=".6" xlink:href="#a"/>
<use x="40.603125" y="159.349249" stroke="#000000" stroke-width=".6" xlink:href="#a"/>
<use x="40.603125" y="157.766768" stroke="#000000" stroke-width=".6" xlink:href="#a"/>
<use x="40.603125" y="156.39596" stroke="#000000" stroke-width=".6" xlink:href="#a"/>
<use x="40.603125" y="155.186822" stroke="#000000" stroke-width=".6" xlink:href="#a"/>
<use x="40.603125" y="146.989494" stroke="#000000" stroke-width=".6" xlink:href="#a"/>
<use x="40.603125" y="142.827067" stroke="#000000" stroke-width=".6" xlink:href="#a"/>
<use x="40.603125" y="139.873778" stroke="#000000" stroke-width=".6" xlink:href="#a"/>
<use x="40.603125" y="137.583029" stroke="#000000" stroke-width=".6" xlink:href="#a"/>
<use x="40.603125" y="135.71135" stroke="#000000" stroke-width=".6" xlink:href="#a"/>
<use x="40.603125" y="134.128869" stroke="#000000" stroke-width=".6" xlink:href="#a"/>
<use x="40.603125" y="132.758061" stroke="#000000" stroke-width=".6" xlink:href="#a"/>
<use x="40.603125" y="131.548923" stroke="#000000" stroke-width=".6" xlink:href="#a"/>
<use x="40.603125" y="123.351595" stroke="#000000" stroke-width=".6" xlink:href="#a"/>
<use x="40.603125" y="119.189168" stroke="#000000" stroke-width=".6" xlink:href="#a"/>
<use x="40.603125" y="116.235879" stroke="#000000" stroke-width=".6" xlink:href="#a"/>
<use x="40.603125" y="113.94513" stroke="#000000" stroke-width=".6" xlink:href="#a"/>
<use x="40.603125" y="112.073451" stroke="#000000" stroke-width=".6" xlink:href="#a"/>
<use x="40.603125" y="110.49097" stroke="#000000" stroke-width=".6" xlink:href="#a"/>
<use x="40.603125" y="109.120162" stroke="#000000" stroke-width=".6" xlink:href="#a"/>
<use x="40.603125" y="107.911024" stroke="#000000" stroke-width=".6" xlink:href="#a"/>
<use x="40.603125" y="99.713697" stroke="#000000" stroke-width=".6" xlink:href="#a"/>
<use x="40.603125" y="95.551269" stroke="#000000" stroke-width=".6" xlink:href="#a"/>
<use x="40.603125" y="92.59798" stroke="#000000" stroke-width=".6" xlink:href="#a"/>
<use x="40.603125" y="90.307231" stroke="#000000" stroke-width=".6" xlink:href="#a"/>
<use x="40.603125" y="88.435553" stroke="#000000" stroke-width=".6" xlink:href="#a"/>
<use x="40.603125" y="86.853071" stroke="#000000" stroke-width=".6" xlink:href="#a"/>
<use x="40.603125" y="85.482263" stroke="#000000" stroke-width=".6" xlink:href="#a"/>
<use x="40.603125" y="84.273125" stroke="#000000" stroke-width=".6" xlink:href="#a"/>
<use x="40.603125" y="76.075798" stroke="#000000" stroke-width=".6" xlink:href="#a"/>
<use x="40.603125" y="71.91337" stroke="#000000" stroke-width=".6" xlink:href="#a"/>
<use x="40.603125" y="68.960081" stroke="#000000" stroke-width=".6" xlink:href="#a"/>
<use x="40.603125" y="66.669332" stroke="#000000" stroke-width=".6" xlink:href="#a"/>
<use x="40.603125" y="64.797654" stroke="#000000" stroke-width=".6" xlink:href="#a"/>
<use x="40.603125" y="63.215172" stroke="#000000" stroke-width=".6" xlink:href="#a"/>
<use x="40.603125" y="61.844365" stroke="#000000" stroke-width=".6" xlink:href="#a"/>
<use x="40.603125" y="60.635226" stroke="#000000" stroke-width=".6" xlink:href="#a"/>
<use x="40.603125" y="52.437899" stroke="#000000" stroke-width=".6" xlink:href="#a"/>
<use x="40.603125" y="48.275471" stroke="#000000" stroke-width=".6" xlink:href="#a"/>
<use x="40.603125" y="45.322182" stroke="#000000" stroke-width=".6" xlink:href="#a"/>
<use x="40.603125" y="43.031433" stroke="#000000" stroke-width=".6" xlink:href="#a"/>
<use x="40.603125" y="41.159755" stroke="#000000" stroke-width=".6" xlink:href="#a"/>
<use x="40.603125" y="39.577273" stroke="#000000" stroke-width=".6" xlink:href="#a"/>
<use x="40.603125" y="38.206466" stroke="#000000" stroke-width=".6" xlink:href="#a"/>
<use x="40.603125" y="36.997328" stroke="#000000" stroke-width=".6" xlink:href="#a"/>
<use x="40.603125" y="28.8" stroke="#000000" stroke-width=".6" xlink:href="#a"/>
<path d="m45.837 121.4 0.64551 1.446 0.43034 0.353 1.0758 0.10672 0.64551-0.33233 0.64551-0.54942 0.64551-0.26609 0.64551 0.011931 0.64551 0.2689 0.64551 0.50037 0.86068 0.709 1.291 0.39719 0.64551 0.030104 0.43034 0.20773 0.64551 0.64464 1.0758 1.4142 1.7214 1.4253 0.64551-0.4849 0.64551-0.21209 0.64551 0.043226 0.64551 0.32541 1.0758 0.95268 0.86068 0.97666 0.64551 0.024162 0.86068-0.24829 2.1517-1.1302 0.64551-0.099805 0.43034-0.2571 2.582-3.8244 0.64551-0.48236 0.64551-0.26817 1.0758-0.15256 0.64551 0.12906 1.9365 0.86918 1.291 0.97081 0.64551 0.8806 1.291 2.1554 0.64551 0.05196 0.64551 0.27142 0.64551 0.50329 0.86068 0.85258 0.43034-0.007197 0.21517-0.10334 0.86068-0.91294 0.64551-0.4031 0.64551-0.12295 1.0758-0.026406 3.6579-0.47189 0.64551 0.12983 1.0758 0.5255 0.43034 0.40758 0.64551 0.96551 0.43034 0.66039 0.43034 0.35941 0.86068 0.062775 0.86068 0.28419 0.64551 0.435 0.64551 0.52612 0.64551 0.24207 0.64551-0.14014 0.64551 0.076912 0.86068 0.35447 1.7214 0.91114 0.64551 0.3021 0.21517-0.032564 0.86068-0.73689 1.291-0.95684 0.64551-0.46159 0.64551-0.22129 0.43034 0.026213 0.43034 0.18015 1.5062 1.0338 0.64551-0.15622 0.64551 0.052081 0.64551 0.31104 0.64551 0.61286 0.64551 0.96513 0.64551 1.4161 0.64551 2.0605 0.64551 2.2591 0.64551 2.5134 0.86068 3.7903 1.291 3.5337 2.582 5.5188 0.64551 0.80457 0.43034 0.2178h4.9489l0.21517-0.99245 0.43034-4.8555 0.64551-4.2095 0.64551-2.6113 0.64551-1.7699 0.64551-1.2322 0.64551-0.84323 0.64551-0.53397 0.64551-0.26729 0.64551-0.019405 0.64551 0.22839 0.64551 0.4948 0.64551 0.80352 0.64551 1.1915 0.64551 1.7273 0.64551 2.5646 0.43034 2.5019 0.64551 5.5343 2.1517-0.093867 0.43034-0.37369 0.64551-0.96939 1.0758-2.2289 1.291-2.6832 0.86068-1.2134 0.86068-0.83444 0.86068-0.51964 0.86068-0.23479 0.86068 0.044809 0.64551 0.22693 0.64551 0.41136 0.64551 0.62545 0.86068 1.2021 0.43034 0.61596 1.7214-8.2222 0.86068-2.3584 0.64551-1.2007 0.64551-0.83892 0.64551-0.54934 0.64551-0.29932 0.64551-0.067836 0.64551 0.16149 1.0758 0.42184 0.64551 0.23797 0.64551 0.53587 0.64551 0.89553 0.64551 1.3709 0.43034 1.282 0.21517 0.10376 0.21517-0.076397 0.43034-0.53022 0.86068-2.2302 0.64551-1.0993 0.64551-0.71997 0.64551-0.41221 0.64551-0.14095 0.64551 0.11746 0.64551 0.38316 0.64551 0.67825 0.64551 1.0336 0.64551 0.94212 0.86068 1.3048 0.86068 1.7812 0.86068 2.3971 1.291 4.5746 0.21517 0.007267 2.3669-1.6644 1.0758-0.34529 1.0758-0.066605 1.0758 0.20507 0.86068 0.3691 0.86068 0.57193 1.9365 1.4411 0.43034 0.05434 0.43034-0.11956 0.64551-0.47474 0.64551-0.7658 1.0758-1.6928 5.1641-8.5493 0.64551-0.49882 0.64551-0.23281 0.64551 0.012581 0.86068 0.26665 0.86068 0.51702 0.86068 0.77323 1.0758 1.2687 1.0758 1.6059 1.5062 2.441 0.21517 0.16259 0.21517 0.020642 0.43034-0.35115 1.9365-2.152 0.86068-0.44914 0.86068-0.1715 0.86068 0.08618 0.86068 0.34405 0.86068 0.6074 0.86068 0.89353 0.86068 1.2288 0.86068 1.6513 1.291 2.9808 0.64551 0.31034 3.2275 1.1357 0.86068 0.02587 0.86068-0.18818 1.0758-0.48144 3.2275-1.7624 2.582-1.4596 0.86068-0.34126 0.64551-4.2e-5 0.64551 0.21772 0.86068 0.58116 0.86068 0.9105 0.86068 1.2592 0.86068 1.6553 0.86068 2.1392 0.86068 2.7313 1.0758 4.26 1.291 6.2567 0.86068 3.7558 0.43034 0.92037 0.43034 0.060419 44.54-0.080877 0.43034-0.29339 0.64551-0.76004 0.86068-1.4018 3.4427-6.0146 1.291-1.6452 1.0758-1.0217 1.0758-0.68347 0.86068-0.28279 1.0758-0.044701 6.2399 0.065289 0.86068 0.2688 1.0758 0.59539 1.0758 0.85118 1.291 1.3125 1.7214 2.104 1.9365 2.3553 0.86068 0.75304 0.64551 0.31992 0.64551 0.0629 30.554-0.10438 9.4675-0.67966 24.96-0.1069 0.86068-0.38277 1.0758-0.75209 2.3669-2.0579 1.7214-1.3658 1.291-0.78815 1.0758-0.4495 1.0758-0.22271 1.9365-0.016072 28.187 0.096855 0.64551 0.3218 0.86068 0.73975 0.86068 1.0959 0.86068 1.4774 0.86068 1.9136 0.86068 2.4457 0.86068 3.1413 0.86068 4.1281 0.64551 4.0702 0.64551 5.4212 0.64551 7.8653 0.43034 8.0359 0.43034 13.973 0.21517 14.154 0.001699 186.26v0" clip-path="url(#j)" fill="none" stroke="#dc143c" stroke-linecap="square" stroke-width="1.5"/>
<path d="m40.603 170.63v-141.83" fill="none" stroke="#000" stroke-linecap="square" stroke-width=".8"/>
<path d="m486.62 170.63v-141.83" fill="none" stroke="#000" stroke-linecap="square" stroke-width=".8"/>
<path d="m40.603 170.63h446.02" fill="none" stroke="#000" stroke-linecap="square" stroke-width=".8"/>
<path d="m40.603 28.8h446.02" fill="none" stroke="#000" stroke-linecap="square" stroke-width=".8"/>
<path d="m324.59 66.156h155.04q2 0 2-2v-28.356q0-2-2-2h-155.04q-2 0-2 2v28.356q0 2 2 2z" fill="#fff" opacity=".8" stroke="#ccc"/>
<path d="m326.59 41.898h20" fill="none" stroke="#dc143c" stroke-linecap="square" stroke-width="1.5"/>
<defs>
<path id="h" d="m41.109 46.297q-1.5156 0.875-3.2969 1.2812-1.7812 0.42188-3.9219 0.42188-7.625 0-11.703-4.9531t-4.0781-14.234v-28.812h-9.0312v54.688h9.0312v-8.5q2.8438 4.9844 7.375 7.3906 4.5469 2.4219 11.047 2.4219 0.92188 0 2.0469-0.125 1.125-0.10938 2.4844-0.35938z"/>
<path id="k" d="m34.281 27.484q-10.891 0-15.094-2.4844t-4.2031-8.5q0-4.7812 3.1562-7.5938 3.1562-2.7969 8.5625-2.7969 7.4844 0 12 5.2969t4.5156 14.078v2zm17.922 3.7188v-31.203h-8.9844v8.2969q-3.0781-4.9688-7.6719-7.3438t-11.234-2.375q-8.3906 0-13.359 4.7188-4.9531 4.7188-4.9531 12.625 0 9.2188 6.1719 13.906 6.1875 4.6875 18.438 4.6875h12.609v0.89062q0 6.2031-4.0781 9.5938t-11.453 3.3906q-4.6875 0-9.1406-1.125-4.4375-1.125-8.5312-3.375v8.3125q4.9219 1.9062 9.5625 2.8438 4.6406 0.95312 9.0312 0.95312 11.875 0 17.734-6.1562 5.8594-6.1406 5.8594-18.641z"/>
<path id="w" d="m18.312 70.219v-15.531h18.5v-6.9844h-18.5v-29.688q0-6.6875 1.8281-8.5938t7.4531-1.9062h9.2188v-7.5156h-9.2188q-10.406 0-14.359 3.875-3.9531 3.8906-3.9531 14.141v29.688h-6.5938v6.9844h6.5938v15.531z"/>
<path id="c" d="m56.203 29.594v-4.3906h-41.312q0.59375-9.2812 5.5938-14.141t13.938-4.8594q5.1719 0 10.031 1.2656t9.6562 3.8125v-8.5q-4.8438-2.0469-9.9219-3.125t-10.297-1.0781q-13.094 0-20.734 7.6094-7.6406 7.625-7.6406 20.625 0 13.422 7.25 21.297 7.25 7.8906 19.562 7.8906 11.031 0 17.453-7.1094 6.4219-7.0938 6.4219-19.297zm-8.9844 2.6406q-0.09375 7.3594-4.125 11.75-4.0312 4.4062-10.672 4.4062-7.5156 0-12.031-4.25t-5.2031-11.969z"/>
<path id="l" d="m30.609 48.391q-7.2188 0-11.422-5.6406t-4.2031-15.453 4.1719-15.453q4.1875-5.6406 11.453-5.6406 7.1875 0 11.375 5.6562 4.2031 5.6719 4.2031 15.438 0 9.7188-4.2031 15.406-4.1875 5.6875-11.375 5.6875zm0 7.6094q11.719 0 18.406-7.625 6.7031-7.6094 6.7031-21.078 0-13.422-6.7031-21.078-6.6875-7.6406-18.406-7.6406-11.766 0-18.438 7.6406-6.6562 7.6562-6.6562 21.078 0 13.469 6.6562 21.078 6.6719 7.625 18.438 7.625z"/>
<path id="y" d="m37.109 75.984v-7.4844h-8.5938q-4.8281 0-6.7188-1.9531-1.875-1.9531-1.875-7.0312v-4.8281h14.797v-6.9844h-14.797v-47.703h-9.0312v47.703h-8.5938v6.9844h8.5938v3.8125q0 9.125 4.25 13.297 4.25 4.1875 13.469 4.1875z"/>
<path id="n" d="m9.4219 54.688h8.9844v-54.688h-8.9844zm0 21.297h8.9844v-11.391h-8.9844z"/>
<path id="q" d="m9.4219 75.984h8.9844v-75.984h-8.9844z"/>
<path id="v" d="m8.5 21.578v33.109h8.9844v-32.766q0-7.7656 3.0156-11.656 3.0312-3.875 9.0938-3.875 7.2656 0 11.484 4.6406 4.2344 4.6406 4.2344 12.656v31h8.9844v-54.688h-8.9844v8.4062q-3.2656-4.9844-7.5938-7.4062-4.3125-2.4219-10.031-2.4219-9.4219 0-14.312 5.8594-4.875 5.8594-4.875 17.141zm22.609 34.422z"/>
<path id="i" d="m44.281 53.078v-8.5q-3.7969 1.9531-7.9062 2.9219-4.0938 0.98438-8.5 0.98438-6.6875 0-10.031-2.0469t-3.3438-6.1562q0-3.125 2.3906-4.9062t9.625-3.3906l3.0781-0.6875q9.5625-2.0469 13.594-5.7812t4.0312-10.422q0-7.625-6.0312-12.078-6.0312-4.4375-16.578-4.4375-4.3906 0-9.1562 0.85938t-10.031 2.5625v9.2812q4.9844-2.5938 9.8125-3.8906 4.8281-1.2812 9.5781-1.2812 6.3438 0 9.75 2.1719 3.4219 2.1719 3.4219 6.125 0 3.6562-2.4688 5.6094-2.4531 1.9531-10.812 3.7656l-3.125 0.73438q-8.3438 1.75-12.062 5.3906-3.7031 3.6406-3.7031 9.9844 0 7.7188 5.4688 11.906 5.4688 4.2031 15.531 4.2031 4.9688 0 9.3594-0.73438 4.4062-0.71875 8.1094-2.1875z"/>
<path id="u" d="m31 75.875q-6.5312-11.219-9.7188-22.219-3.1719-10.984-3.1719-22.266 0-11.266 3.2031-22.328t9.6875-22.25h-7.8125q-7.3125 11.484-10.953 22.562t-3.6406 22.016q0 10.891 3.6094 21.922 3.625 11.047 10.984 22.562z"/>
<path id="o" d="m45.406 46.391v29.594h8.9844v-75.984h-8.9844v8.2031q-2.8281-4.875-7.1562-7.25-4.3125-2.375-10.375-2.375-9.9062 0-16.141 7.9062-6.2188 7.9219-6.2188 20.812t6.2188 20.797q6.2344 7.9062 16.141 7.9062 6.0625 0 10.375-2.375 4.3281-2.3594 7.1562-7.2344zm-30.609-19.094q0-9.9062 4.0781-15.547t11.203-5.6406 11.219 5.6406q4.1094 5.6406 4.1094 15.547t-4.1094 15.547q-4.0938 5.6406-11.219 5.6406t-11.203-5.6406-4.0781-15.547z"/>
<path id="x" d="m9.0781 75.984h9.0312v-44.875l26.812 23.578h11.469l-29-25.578 30.234-29.109h-11.719l-27.797 26.703v-26.703h-9.0312z"/>
<path id="ae" d="m25.391 72.906h8.2969l-25.391-82.188h-8.2969z"/>
<path id="p" d="m32.172-5.0781q-3.7969-9.7656-7.4219-12.734-3.6094-2.9844-9.6562-2.9844h-7.1875v7.5156h5.2812q3.7031 0 5.75 1.7656 2.0625 1.75 4.5469 8.2969l1.6094 4.0938-22.109 53.812h9.5156l17.094-42.766 17.094 42.766h9.5156z"/>
<path id="t" d="m8.0156 75.875h7.8125q7.3125-11.516 10.953-22.562 3.6406-11.031 3.6406-21.922 0-10.938-3.6406-22.016t-10.953-22.562h-7.8125q6.4844 11.188 9.6875 22.25t3.2031 22.328q0 11.281-3.2031 22.266-3.2031 11-9.6875 22.219z"/>
</defs>
<g transform="translate(354.59 45.398) scale(.1 -.1)">
<use xlink:href="#h"/>
<use x="41.113281" xlink:href="#k"/>
<use x="102.392578" xlink:href="#w"/>
<use x="141.601562" xlink:href="#c"/>
<use x="203.125" xlink:href="#DejaVuSans-20"/>
<use x="234.912109" xlink:href="#l"/>
<use x="296.09375" xlink:href="#y"/>
<use x="331.298828" xlink:href="#DejaVuSans-20"/>
<use x="363.085938" xlink:href="#y"/>
<use x="398.291016" xlink:href="#k"/>
<use x="459.570312" xlink:href="#n"/>
<use x="487.353516" xlink:href="#q"/>
<use x="515.136719" xlink:href="#v"/>
<use x="578.515625" xlink:href="#h"/>
<use x="619.597656" xlink:href="#c"/>
<use x="681.121094" xlink:href="#i"/>
<use x="733.220703" xlink:href="#DejaVuSans-20"/>
<use x="765.007812" xlink:href="#u"/>
<use x="804.021484" xlink:href="#o"/>
<use x="867.498047" xlink:href="#n"/>
<use x="895.28125" xlink:href="#i"/>
<use x="947.380859" xlink:href="#x"/>
<use x="1005.291016" xlink:href="#i"/>
<use x="1057.390625" xlink:href="#ae"/>
<use x="1091.082031" xlink:href="#p"/>
<use x="1150.261719" xlink:href="#h"/>
<use x="1191.375" xlink:href="#t"/>
</g>
<path d="m326.59 60.077h20v-7h-20z" fill="#0766aa" fill-opacity=".2" stroke="#0766aa" stroke-opacity=".2"/>
<defs>
<path id="al" d="m48.688 27.297q0 9.9062-4.0781 15.547t-11.203 5.6406q-7.1406 0-11.219-5.6406t-4.0781-15.547 4.0781-15.547 11.219-5.6406q7.125 0 11.203 5.6406t4.0781 15.547zm-30.578 19.094q2.8438 4.875 7.1562 7.2344 4.3281 2.375 10.328 2.375 9.9688 0 16.188-7.9062 6.2344-7.9062 6.2344-20.797t-6.2344-20.812q-6.2188-7.9062-16.188-7.9062-6 0-10.328 2.375-4.3125 2.375-7.1562 7.25v-8.2031h-9.0312v75.984h9.0312z"/>
<path id="ah" d="m2.9844 54.688h9.5156l17.094-45.891 17.094 45.891h9.5156l-20.516-54.688h-12.203z"/>
</defs>
<g transform="translate(354.59 60.077) scale(.1 -.1)">
<use xlink:href="#o"/>
<use x="63.476562" xlink:href="#n"/>
<use x="91.259766" xlink:href="#i"/>
<use x="143.359375" xlink:href="#x"/>
<use x="201.269531" xlink:href="#i"/>
<use x="253.369141" xlink:href="#DejaVuSans-20"/>
<use x="285.15625" xlink:href="#l"/>
<use x="346.337891" xlink:href="#al"/>
<use x="409.814453" xlink:href="#i"/>
<use x="461.914062" xlink:href="#c"/>
<use x="523.4375" xlink:href="#h"/>
<use x="564.550781" xlink:href="#ah"/>
<use x="623.730469" xlink:href="#c"/>
<use x="685.253906" xlink:href="#o"/>
</g>
<path d="m40.603 375.64h446.02v-189.1h-446.02z" fill="#fff"/>
<path d="m40.603 375.64v-189.1" clip-path="url(#e)" fill="none" stroke="#b0b0b0" stroke-linecap="square" stroke-width=".8"/>
<use x="40.603125" y="375.64" stroke="#000000" stroke-width=".8" xlink:href="#g"/>
<g transform="translate(37.422 390.24) scale(.1 -.1)">
<use xlink:href="#d"/>
</g>
<path d="m163 375.64v-189.1" clip-path="url(#e)" fill="none" stroke="#b0b0b0" stroke-linecap="square" stroke-width=".8"/>
<use x="162.996816" y="375.64" stroke="#000000" stroke-width=".8" xlink:href="#g"/>
<g transform="translate(159.82 390.24) scale(.1 -.1)">
<use xlink:href="#f"/>
</g>
<path d="m285.39 375.64v-189.1" clip-path="url(#e)" fill="none" stroke="#b0b0b0" stroke-linecap="square" stroke-width=".8"/>
<use x="285.390506" y="375.64" stroke="#000000" stroke-width=".8" xlink:href="#g"/>
<g transform="translate(282.21 390.24) scale(.1 -.1)">
<use xlink:href="#s"/>
</g>
<path d="m407.78 375.64v-189.1" clip-path="url(#e)" fill="none" stroke="#b0b0b0" stroke-linecap="square" stroke-width=".8"/>
<use x="407.784197" y="375.64" stroke="#000000" stroke-width=".8" xlink:href="#g"/>
<g transform="translate(404.6 390.24) scale(.1 -.1)">
<use xlink:href="#ad"/>
</g>
<defs>
<path id="au" d="m34.188 63.188-13.391-36.281h26.812zm-5.5781 9.7188h11.188l27.781-72.906h-10.25l-6.6406 18.703h-32.859l-6.6406-18.703h-10.406z"/>
<path id="ak" d="m45.406 27.984q0 9.7656-4.0312 15.125-4.0156 5.375-11.297 5.375-7.2188 0-11.25-5.375-4.0312-5.3594-4.0312-15.125 0-9.7188 4.0312-15.094t11.25-5.375q7.2812 0 11.297 5.375 4.0312 5.375 4.0312 15.094zm8.9844-21.203q0-13.953-6.2031-20.766-6.1875-6.8125-18.984-6.8125-4.7344 0-8.9375 0.70312t-8.1562 2.1719v8.7344q3.9531-2.1406 7.8125-3.1562 3.8594-1.0312 7.8594-1.0312 8.8438 0 13.234 4.6094t4.3906 13.938v4.4531q-2.7812-4.8438-7.125-7.2344t-10.406-2.3906q-10.047 0-16.203 7.6562-6.1562 7.6719-6.1562 20.328 0 12.688 6.1562 20.344 6.1562 7.6719 16.203 7.6719 6.0625 0 10.406-2.3906t7.125-7.2188v8.2969h8.9844z"/>
<path id="ai" d="m18.109 8.2031v-29h-9.0312v75.484h9.0312v-8.2969q2.8438 4.875 7.1562 7.2344 4.3281 2.375 10.328 2.375 9.9688 0 16.188-7.9062 6.2344-7.9062 6.2344-20.797t-6.2344-20.812q-6.2188-7.9062-16.188-7.9062-6 0-10.328 2.375-4.3125 2.375-7.1562 7.25zm30.578 19.094q0 9.9062-4.0781 15.547t-11.203 5.6406q-7.1406 0-11.219-5.6406t-4.0781-15.547 4.0781-15.547 11.219-5.6406q7.125 0 11.203 5.6406t4.0781 15.547z"/>
<path id="ag" d="m4.2031 54.688h8.9844l11.234-42.672 11.172 42.672h10.594l11.234-42.672 11.188 42.672h8.9844l-14.312-54.688h-10.594l-11.766 44.828-11.812-44.828h-10.609z"/>
<path id="ax" d="m4.8906 31.391h26.312v-8h-26.312z"/>
<path id="aj" d="m54.891 33.016v-33.016h-8.9844v32.719q0 7.7656-3.0312 11.609-3.0312 3.8594-9.0781 3.8594-7.2812 0-11.484-4.6406-4.2031-4.625-4.2031-12.641v-30.906h-9.0312v54.688h9.0312v-8.5q3.2344 4.9375 7.5938 7.375 4.375 2.4375 10.094 2.4375 9.4219 0 14.25-5.8281 4.8438-5.8281 4.8438-17.156z"/>
</defs>
<g transform="translate(209.62 403.92) scale(.1 -.1)">
<use xlink:href="#au"/>
<use x="68.408203" xlink:href="#ak"/>
<use x="131.884766" xlink:href="#c"/>
<use x="193.408203" xlink:href="#DejaVuSans-20"/>
<use x="225.195312" xlink:href="#u"/>
<use x="264.208984" xlink:href="#ai"/>
<use x="327.685547" xlink:href="#l"/>
<use x="388.867188" xlink:href="#ag"/>
<use x="470.654297" xlink:href="#c"/>
<use x="532.177734" xlink:href="#h"/>
<use x="573.197266" xlink:href="#ax"/>
<use x="609.296875" xlink:href="#l"/>
<use x="670.478516" xlink:href="#aj"/>
<use x="733.857422" xlink:href="#DejaVuSans-20"/>
<use x="765.644531" xlink:href="#p"/>
<use x="824.824219" xlink:href="#c"/>
<use x="886.347656" xlink:href="#k"/>
<use x="947.626953" xlink:href="#h"/>
<use x="988.740234" xlink:href="#i"/>
<use x="1040.839844" xlink:href="#t"/>
</g>
<path d="m40.603 375.64h446.02" clip-path="url(#e)" fill="none" stroke="#b0b0b0" stroke-linecap="square" stroke-width=".8"/>
<use x="40.603125" y="375.64" stroke="#000000" stroke-width=".8" xlink:href="#b"/>
<g transform="translate(27.241 379.44) scale(.1 -.1)">
<use xlink:href="#d"/>
</g>
<path d="m40.603 328.36h446.02" clip-path="url(#e)" fill="none" stroke="#b0b0b0" stroke-linecap="square" stroke-width=".8"/>
<use x="40.603125" y="328.364202" stroke="#000000" stroke-width=".8" xlink:href="#b"/>
<g transform="translate(27.241 332.16) scale(.1 -.1)">
<use xlink:href="#m"/>
</g>
<path d="m40.603 281.09h446.02" clip-path="url(#e)" fill="none" stroke="#b0b0b0" stroke-linecap="square" stroke-width=".8"/>
<use x="40.603125" y="281.088405" stroke="#000000" stroke-width=".8" xlink:href="#b"/>
<defs>
<path id="aw" d="m31.781 34.625q-7.0312 0-11.062-3.7656-4.0156-3.7656-4.0156-10.344 0-6.5938 4.0156-10.359 4.0312-3.7656 11.062-3.7656t11.078 3.7812q4.0625 3.7969 4.0625 10.344 0 6.5781-4.0312 10.344-4.0156 3.7656-11.109 3.7656zm-9.8594 4.1875q-6.3438 1.5625-9.8906 5.9062-3.5312 4.3594-3.5312 10.609 0 8.7344 6.2188 13.812 6.2344 5.0781 17.062 5.0781 10.891 0 17.094-5.0781t6.2031-13.812q0-6.25-3.5469-10.609-3.5312-4.3438-9.8281-5.9062 7.125-1.6562 11.094-6.5 3.9844-4.8281 3.9844-11.797 0-10.609-6.4688-16.281-6.4688-5.6562-18.531-5.6562-12.047 0-18.531 5.6562-6.4688 5.6719-6.4688 16.281 0 6.9688 4 11.797 4.0156 4.8438 11.141 6.5zm-3.6094 15.578q0-5.6562 3.5312-8.8281 3.5469-3.1719 9.9375-3.1719 6.3594 0 9.9375 3.1719 3.5938 3.1719 3.5938 8.8281 0 5.6719-3.5938 8.8438-3.5781 3.1719-9.9375 3.1719-6.3906 0-9.9375-3.1719-3.5312-3.1719-3.5312-8.8438z"/>
</defs>
<g transform="translate(27.241 284.89) scale(.1 -.1)">
<use xlink:href="#aw"/>
</g>
<path d="m40.603 233.81h446.02" clip-path="url(#e)" fill="none" stroke="#b0b0b0" stroke-linecap="square" stroke-width=".8"/>
<use x="40.603125" y="233.812607" stroke="#000000" stroke-width=".8" xlink:href="#b"/>
<g transform="translate(20.878 237.61) scale(.1 -.1)">
<use xlink:href="#f"/>
<use x="63.623047" xlink:href="#s"/>
</g>
<path d="m40.603 186.54h446.02" clip-path="url(#e)" fill="none" stroke="#b0b0b0" stroke-linecap="square" stroke-width=".8"/>
<use x="40.603125" y="186.536809" stroke="#000000" stroke-width=".8" xlink:href="#b"/>
<g transform="translate(20.878 190.34) scale(.1 -.1)">
<use xlink:href="#f"/>
<use x="63.623047" xlink:href="#r"/>
</g>
<defs>
<path id="aq" d="m9.8125 72.906h41.891v-8.3125h-32.031v-21.484h28.906v-8.2969h-28.906v-34.812h-9.8594z"/>
<path id="an" d="m44.391 34.188q3.1719-1.0781 6.1719-4.5938t6.0312-9.6719l10.016-19.922h-10.609l-9.3125 18.703q-3.625 7.3281-7.0156 9.7188t-9.25 2.3906h-10.75v-30.812h-9.8594v72.906h22.266q12.5 0 18.656-5.2344 6.1562-5.2188 6.1562-15.766 0-6.8906-3.2031-11.438-3.2031-4.5312-9.2969-6.2812zm-24.719 30.609v-25.875h12.406q7.125 0 10.766 3.2969t3.6406 9.6875-3.6406 9.6406-10.766 3.25z"/>
<path id="ay" d="m72.703 32.078q-4.25 0-6.6719-3.6094-2.4062-3.6094-2.4062-10.062 0-6.3438 2.4062-9.9844 2.4219-3.6406 6.6719-3.6406 4.1562 0 6.5625 3.6406 2.4219 3.6406 2.4219 9.9844 0 6.4062-2.4219 10.031-2.4062 3.6406-6.5625 3.6406zm0 6.2031q7.7188 0 12.25-5.375 4.5469-5.3594 4.5469-14.5 0-9.125-4.5625-14.484-4.5625-5.3438-12.234-5.3438-7.8125 0-12.359 5.3438-4.5312 5.3594-4.5312 14.484 0 9.1875 4.5625 14.531t12.328 5.3438zm-50.391 29.734q-4.2031 0-6.625-3.6406-2.4062-3.625-2.4062-9.9844 0-6.4375 2.3906-10.062 2.3906-3.6094 6.6406-3.6094t6.6562 3.6094q2.4219 3.625 2.4219 10.062 0 6.2969-2.4375 9.9531-2.4375 3.6719-6.6406 3.6719zm44.094 6.2031h7.8125l-45.609-75.641h-7.8125zm-44.094 0q7.7188 0 12.297-5.3438 4.5938-5.3438 4.5938-14.484 0-9.2188-4.5625-14.547t-12.328-5.3281-12.281 5.3438q-4.5156 5.3594-4.5156 14.531 0 9.0938 4.5312 14.453 4.5469 5.375 12.266 5.375z"/>
</defs>
<g transform="translate(14.798 334.34) rotate(-90) scale(.1 -.1)">
<use xlink:href="#aq"/>
<use x="57.378906" xlink:href="#k"/>
<use x="118.658203" xlink:href="#n"/>
<use x="146.441406" xlink:href="#q"/>
<use x="174.224609" xlink:href="#v"/>
<use x="237.603516" xlink:href="#h"/>
<use x="278.685547" xlink:href="#c"/>
<use x="340.208984" xlink:href="#DejaVuSans-20"/>
<use x="371.996094" xlink:href="#an"/>
<use x="441.447266" xlink:href="#k"/>
<use x="502.726562" xlink:href="#w"/>
<use x="541.935547" xlink:href="#c"/>
<use x="603.458984" xlink:href="#DejaVuSans-20"/>
<use x="635.246094" xlink:href="#u"/>
<use x="674.259766" xlink:href="#ay"/>
<use x="769.279297" xlink:href="#ae"/>
<use x="802.970703" xlink:href="#p"/>
<use x="862.150391" xlink:href="#c"/>
<use x="923.673828" xlink:href="#k"/>
<use x="984.953125" xlink:href="#h"/>
<use x="1026.066406" xlink:href="#t"/>
</g>
<path d="m45.837 349.78 0.43034 3.8004 0.43034 2.2486 0.43034 1.0148 0.64551 1.0584 0.21517 0.22526 0.43034 0.054282 0.43034-0.34075 0.43034-0.2872 0.43034-0.079454 0.43034 0.090007 0.43034 0.30045 0.64551 0.72026 0.86068 1.411 0.64551 0.85378 0.86068 0.50743 0.64551 0.25573 0.43034 0.11214 0.43034 0.33239 0.64551 0.88155 0.86068 1.4397 1.7214 1.5331 0.21517 0.11048 0.64551-0.4629 0.64551-0.20809 0.64551 0.045605 0.64551 0.32213 1.291 1.114 0.64551 0.59166 0.64551 0.020572 0.86068-0.1993 2.3669-0.98787 0.43034-0.078077 0.43034-0.24057 0.43034-0.77843 0.64551-1.0446 0.21517-0.23159 0.86068-1.7183 0.86068-1.0975 0.64551-0.48714 0.86068-0.29556 0.64551-3.66e-4 0.64551 0.28629 2.3669 1.6426 0.64551 0.65806 0.64551 1.013 1.0758 2.0039 0.21517 0.1624 0.64551 0.018472 0.64551 0.22039 0.64551 0.41926 0.86068 0.67706 0.43034-0.023304 0.21517-0.092625 1.0758-0.97329 0.64551-0.32305 0.64551-0.066069 0.64551-0.023947 2.582-0.53437 1.0758-0.014746 0.64551 0.06884 0.86068 0.38296 0.43034 0.20652 0.64551 0.63552 1.0758 1.2639 0.43034 0.12216 1.0758 0.14394 0.86068 0.31898 1.291 0.59602 0.43034-0.010577 0.86068-0.009522 1.0758 0.257 2.1517 0.66734 0.43034 0.012465 1.291-0.59672 0.64551-0.35587 0.86068-0.52537 0.64551-0.21823 0.64551 0.005383 0.64551 0.25494 0.64551 0.27219 0.43034 0.089937 0.86068-0.18955 0.86068 0.071966 0.64551 0.26965 0.86068 0.6542 0.86068 0.99343 1.291 1.6427 1.291 1.3252 1.0758 0.48218 1.9365 0.48262 1.5062 0.18526 2.1517-0.029085 3.4427-0.16813 1.291-1.7471 1.291-1.3681 1.0758-0.78357 0.86068-0.37466 0.86068-0.1433 0.86068 0.098533 0.86068 0.33347 0.86068 0.58425 0.86068 0.82991 1.0758 1.3841 0.64551 0.90793 2.7972-0.12248 1.291-0.39531 3.4427-1.3183 1.5062-0.2217 1.291 0.037693 1.291 0.26392 1.5062 0.54614 0.64551-0.9917 1.9365-3.5139 0.86068-1.1183 0.86068-0.76508 0.64551-0.33848 0.64551-0.13415 0.64551 0.075438 2.1517 0.76099 0.64551 0.51906 0.64551 0.76772 1.0758 1.4839 0.43034-0.16004 0.21517-0.19055 1.291-2.0796 0.86068-0.8726 0.64551-0.37181 0.64551-0.13131 0.64551 0.10762 0.64551 0.34504 0.64551 0.58088 5.1641 5.8788 0.64551-0.084343 2.582-0.45276 1.7214-0.047546 1.7214 0.1693 3.6579 0.52722 1.0758-0.24757 1.0758-0.47404 1.7214-1.0367 1.0758-0.83207 1.291-1.2927 1.0758-1.1605 0.86068-0.55887 0.64551-0.18727 0.64551 0.00943 0.86068 0.21207 1.0758 0.52278 1.291 0.91744 3.0124 2.3459 0.43034 0.057596 0.64551-0.28836 1.9365-1.2251 1.0758-0.38703 1.0758-0.15605 1.0758 0.084426 1.0758 0.32178 1.0758 0.54929 1.0758 0.77303 1.5062 1.2387 1.5062 0.16167 3.0124 0.13422 1.5062-0.1936 1.7214-0.52161 2.1517-0.89872 2.582-1.4141 1.291-0.69942 0.86068-0.19005 0.86068 0.015355 0.86068 0.24001 0.86068 0.53472 1.291 1.2567 3.0124 3.1251 0.86068 0.58539 0.86068 0.32092 1.0758 0.033804 45.186-0.099729 1.9365-0.37343 6.2399-1.4365 1.9365-0.042152 6.6703 0.089414 2.1517 0.35661 5.8096 1.1087 1.9365 0.045681 64.336-0.11015 2.3669-0.20502 7.3158-0.84544 29.909 0.020493 1.5062 0.23008 1.9365 0.53646 4.5186 1.3662 1.5062 0.1988 3.0124 0.011456h46.907v0" clip-path="url(#e)" fill="none" stroke="#d2691e" stroke-linecap="square" stroke-width="1.5"/>
<path d="m40.603 375.64v-189.1" fill="none" stroke="#000" stroke-linecap="square" stroke-width=".8"/>
<path d="m486.62 375.64v-189.1" fill="none" stroke="#000" stroke-linecap="square" stroke-width=".8"/>
<path d="m40.603 375.64h446.02" fill="none" stroke="#000" stroke-linecap="square" stroke-width=".8"/>
<path d="m40.603 186.54h446.02" fill="none" stroke="#000" stroke-linecap="square" stroke-width=".8"/>
<defs>
<path id="aa" d="m9.8125 72.906h14.703l18.594-49.609 18.703 49.609h14.703v-72.906h-9.625v64.016l-18.797-50h-9.9062l-18.797 50v-64.016h-9.5781z"/>
<path id="av" d="m11.719 12.406h10.297v-12.406h-10.297zm0 39.297h10.297v-12.391h-10.297z"/>
<path id="ab" d="m9.8125 72.906h9.8594v-29.891h35.844v29.891h9.8594v-72.906h-9.8594v34.719h-35.844v-34.719h-9.8594z"/>
<path id="ap" d="m59.516 10.406v19.578h-16.109v8.1094h25.875v-31.312q-5.7031-4.0469-12.594-6.125-6.875-2.0781-14.688-2.0781-17.094 0-26.75 9.9844-9.6406 10-9.6406 27.812 0 17.875 9.6406 27.859 9.6562 9.9844 26.75 9.9844 7.125 0 13.547-1.7656 6.4219-1.75 11.844-5.1719v-10.5q-5.4688 4.6406-11.625 6.9844t-12.938 2.3438q-13.391 0-20.109-7.4688-6.7031-7.4688-6.7031-22.266 0-14.75 6.7031-22.219 6.7188-7.4688 20.109-7.4688 5.2188 0 9.3125 0.90625 4.1094 0.90625 7.375 2.8125z"/>
<path id="z" d="m53.516 70.516v-9.625q-5.6094 2.6875-10.594 4-4.9844 1.3281-9.625 1.3281-8.0469 0-12.422-3.125t-4.375-8.8906q0-4.8438 2.9062-7.3125 2.9062-2.4531 11.016-3.9688l5.9531-1.2188q11.031-2.1094 16.281-7.4062t5.25-14.172q0-10.609-7.1094-16.078-7.0938-5.4688-20.812-5.4688-5.1719 0-11.016 1.1719-5.8281 1.1719-12.078 3.4688v10.156q6-3.3594 11.766-5.0781 5.7656-1.7031 11.328-1.7031 8.4375 0 13.031 3.3125 4.5938 3.3281 4.5938 9.4844 0 5.3594-3.2969 8.3906t-10.812 4.5469l-6.0156 1.1719q-11.031 2.1875-15.969 6.875-4.9219 4.6875-4.9219 13.047 0 9.6719 6.8125 15.234t18.766 5.5625q5.1406 0 10.453-0.9375 5.3281-0.92188 10.891-2.7656z"/>
<path id="am" d="m-0.29688 72.906h61.672v-8.3125h-25.875v-64.594h-9.9062v64.594h-25.891z"/>
<path id="as" d="m64.406 67.281v-10.391q-4.9844 4.6406-10.625 6.9219-5.6406 2.2969-11.984 2.2969-12.5 0-19.141-7.6406t-6.6406-22.094q0-14.406 6.6406-22.047t19.141-7.6406q6.3438 0 11.984 2.2969t10.625 6.9375v-10.312q-5.1719-3.5156-10.969-5.2812-5.7812-1.75-12.219-1.75-16.562 0-26.094 10.125-9.5156 10.141-9.5156 27.672 0 17.578 9.5156 27.703 9.5312 10.141 26.094 10.141 6.5312 0 12.312-1.7344 5.7969-1.7344 10.875-5.2031z"/>
<path id="at" d="m19.672 34.812v-26.703h15.828q7.9531 0 11.781 3.2969 3.8438 3.2969 3.8438 10.078 0 6.8438-3.8438 10.078-3.8281 3.25-11.781 3.25zm0 29.984v-21.969h14.609q7.2188 0 10.75 2.7031 3.5469 2.7188 3.5469 8.2812 0 5.5156-3.5469 8.25-3.5312 2.7344-10.75 2.7344zm-9.8594 8.1094h25.203q11.281 0 17.375-4.6875 6.1094-4.6875 6.1094-13.328 0-6.7031-3.125-10.656t-9.1875-4.9219q7.2812-1.5625 11.312-6.5312 4.0312-4.9531 4.0312-12.375 0-9.7656-6.6406-15.094-6.6406-5.3125-18.906-5.3125h-26.172z"/>
<path id="ao" d="m9.8125 72.906h9.8594v-64.609h35.5v-8.2969h-45.359z"/>
<path id="ar" d="m9.8125 72.906h46.094v-8.3125h-36.234v-21.578h34.719v-8.2969h-34.719v-26.422h37.109v-8.2969h-46.969z"/>
</defs>
<g transform="translate(147.98 16.318) scale(.12 -.12)">
<use xlink:href="#aa"/>
<use x="86.279297" xlink:href="#l"/>
<use x="147.460938" xlink:href="#o"/>
<use x="210.9375" xlink:href="#c"/>
<use x="272.460938" xlink:href="#q"/>
<use x="300.244141" xlink:href="#av"/>
<use x="333.935547" xlink:href="#DejaVuSans-20"/>
<use x="365.722656" xlink:href="#ab"/>
<use x="440.917969" xlink:href="#ap"/>
<use x="518.408203" xlink:href="#z"/>
<use x="581.884766" xlink:href="#am"/>
<use x="642.96875" xlink:href="#DejaVuSans-20"/>
<use x="674.755859" xlink:href="#ab"/>
<use x="749.951172" xlink:href="#aa"/>
<use x="836.230469" xlink:href="#z"/>
<use x="899.707031" xlink:href="#ac"/>
<use x="963.330078" xlink:href="#as"/>
<use x="1033.154297" xlink:href="#m"/>
<use x="1096.777344" xlink:href="#d"/>
<use x="1160.400391" xlink:href="#m"/>
<use x="1224.023438" xlink:href="#d"/>
<use x="1287.646484" xlink:href="#at"/>
<use x="1356.25" xlink:href="#ao"/>
<use x="1411.962891" xlink:href="#ar"/>
<use x="1475.146484" xlink:href="#r"/>
<use x="1538.769531" xlink:href="#m"/>
<use x="1602.392578" xlink:href="#d"/>
</g>
<defs>
<clipPath id="j">
<rect x="40.603" y="28.8" width="446.02" height="141.83"/>
</clipPath>
<clipPath id="e">
<rect x="40.603" y="186.54" width="446.02" height="189.1"/>
</clipPath>
</defs>
</svg>
