<?xml version="1.0" encoding="UTF-8"?>
<!DOCTYPE svg  PUBLIC '-//W3C//DTD SVG 1.1//EN'  'http://www.w3.org/Graphics/SVG/1.1/DTD/svg11.dtd'>
<svg width="497pt" height="413pt" version="1.1" viewBox="0 0 497 413" xmlns="http://www.w3.org/2000/svg" xmlns:xlink="http://www.w3.org/1999/xlink">
<defs>
<style type="text/css">*{stroke-linecap:butt;stroke-linejoin:round;}</style>
</defs>
<path d="m0 413.2h497.32v-413.2h-497.32z" fill="#fff"/>
<path d="m40.603 170.63h446.02v-141.83h-446.02z" fill="#fff"/>
<defs>
<path id="ae" d="m45.434-235.45v-39.332l0.21493-0.15205 0.21493-0.033739 0.21493-0.033823 0.21492-0.033906 0.21493-0.033989 0.21493-0.034068 0.21492-0.034149 0.21493-0.034226 0.21493-0.034304 0.21493-0.03438 0.21492-0.03074 0.21493-0.02698 0.21493-0.024005 0.21493-0.019982 0.21492-0.020291 0.21493-0.022106 0.21493-0.027072 0.21492-0.026753 0.21493-0.026438 0.21493-0.026124 0.21493-0.025813 0.21492-0.025503 0.21493-0.025197 0.21493-0.024891 0.21493-0.024589 0.21492-0.024287 0.21493-0.023989 0.21493-0.023509 0.21493-0.0228 0.21492-0.022096 0.21493-0.021398 0.21493-0.020702 0.21492-0.020012 0.21493-0.019231 0.21493-0.018346 0.21493-0.017466 0.21492-0.01659 0.21493-0.015718 0.21493-0.011355 0.21493-0.010567 0.21492-0.009982 0.21493-0.009398 0.21493-0.008816 0.21492-0.008236 0.21493-0.007657 0.21493-0.007457 0.21493-0.007875 0.21492-0.008292 0.21493-0.008708 0.21493-0.009123 0.21493-0.009537 0.21492-0.00995 0.21493-0.010361 0.21493-0.010772 0.21492-0.01118 0.21493-0.011588 0.21493-0.011994 0.21493-0.012399 0.21492-0.012803 0.21493-0.01125 0.21493-0.009279 0.21493-0.007078 0.21492-0.010273 0.21493-0.01294 0.21493-0.013715 0.21492-0.014489 0.21493-0.015259 0.21493-0.016026 0.21493-0.01662 0.21492-0.016902 0.21493-0.017181 0.21493-0.01746 0.21493-0.017737 0.21492-0.018012 0.21493-0.018287 0.21493-0.018558 0.21493-0.01883 0.21492-0.019099 0.21493-0.019367 0.21493-0.019634 0.21492-0.019897 0.21493-0.020161 0.21493-0.020423 0.21493-0.020682 0.21492-0.02094 0.21493-0.021197 0.21493-0.021452 0.21493-0.021704 0.21492-0.021956 0.42985-0.044374 0.42985-0.044406 0.42985-0.044439 0.42985-0.044469 0.64478-0.06676 0.64478-0.066823 0.64478-0.066881 0.21492-0.019814 0.21493-0.016899 0.21493-0.014473 0.21493-0.01378 0.21492-0.01309 0.21493-0.012403 0.21493-0.011718 0.21492-0.01119 0.21493-0.010949 0.21493-0.010708 0.21493-0.010468 0.21492-0.010384 0.21493-0.010652 0.21493-0.010918 0.21493-0.011185 0.21492-0.01145 0.21493-0.011714 0.21493-0.011791 0.21493-0.011289 0.21492-0.010789 0.21493-0.010291 0.21493-0.009793 0.21492-0.009297 0.21493-0.008803 0.21493-0.00831 0.21493-0.007818 0.21492-0.007327 0.21493-0.006837 0.21493-0.006371 0.21493-0.006107 0.21492-0.005844 0.21493-0.005582 0.21493-0.00532 0.21492-0.005059 0.21493-0.004797 0.21493-0.004537 0.21493-0.004276 0.21492-0.004016 0.21493-0.003756 0.21493-0.003497 0.21493-0.003237 0.21492-0.002978 0.21493-0.00272 0.21493-0.002461 0.21492-0.002203 0.21493-0.001944 0.21493-0.001686 0.21493-0.001428 0.21492-0.001171 0.42985-0.001889 0.42985-0.001922 0.42985-0.001956 0.21492-9.9e-4 0.21493-8.47e-4 0.21493-3.61e-4 0.21493 1.25e-4 0.21492 6.13e-4 0.21493 0.001099 0.21493 0.001586 0.21493 0.001889 0.21492 0.001624 0.21493 0.001358 0.21493 0.001093 0.21493 8.26e-4 0.21492 5.6e-4 0.21493 2.94e-4 0.21493 2.8e-5 0.21492-2.39e-4 0.21493-5.04e-4 0.21493-7.71e-4 0.21493-0.001036 0.21492-0.001303 0.21493-0.001568 0.21493-0.002994 0.21493-0.004537 0.21492-0.006079 0.21493-0.007618 0.21493-0.009155 0.21492-0.021515 0.21493-0.021824 0.21493-0.022133 0.21493-0.022437 0.21492-0.022742 0.21493-0.023042 0.21493-0.023342 0.21493-0.023638 0.21492-0.023934 0.21493-0.024226 0.21493-0.024516 0.21492-0.024805 0.21493-0.025091 0.21493-0.025347 0.21493-0.025374 0.21492-0.025398 0.21493-0.025439 0.21493-0.02552 0.21493-0.025599 0.21492-0.025678 0.21493-0.025756 0.21493-0.025833 0.21492-0.02591 0.21493-0.025985 0.21493-0.026061 0.21493-0.026135 0.21492-0.026208 0.21493-0.026281 0.21493-0.026353 0.21493-0.027265 0.21492-0.029722 0.21493-0.030253 0.21493-0.03078 0.21493-0.031302 0.21492-0.031818 0.21493-0.032258 0.21493-0.032564 0.21492-0.032866 0.21493-0.033165 0.21493-0.033461 0.21493-0.032715 0.21492-0.031867 0.21493-0.03415 0.21493-0.033056 0.21493-0.031971 0.21492-0.021295 0.21493-0.021325 0.21493-0.021353 0.21492-0.021382 0.21493-0.021411 0.21493-0.021439 0.21493-0.021467 0.21492-0.021494 0.21493-0.021522 0.21493-0.024082 0.21493-0.031106 0.21492-0.03099 0.21493-0.030876 0.21493-0.030762 0.21492-0.03065 0.21493-0.030536 0.21493-0.030411 0.21493-0.030251 0.21492-0.030091 0.21493-0.029934 0.21493-0.029777 0.21493-0.029621 0.21492-0.029466 0.21493-0.029313 0.21493-0.02916 0.21492-0.029009 0.21493-0.028859 0.21493-0.028709 0.21493-0.028948 0.21492-0.03007 0.21493-0.029813 0.21493-0.033828 0.21493-0.033895 0.21492-0.03396 0.21493-0.034025 0.21493-0.0403 0.21493-0.040751 0.21492-0.041196 0.21493-0.041641 0.21493-0.04209 0.21492-0.04253 0.21493-0.042966 0.21493-0.040666 0.21493-0.041323 0.21492-0.062317 0.21493-0.082456 0.21493-0.14487 0.21493-0.1718 0.21492-0.16966 0.21493-0.16758 0.21493-0.19926 0.21492-0.20005 0.21493-0.20125 0.21493-0.20231 0.21493-0.20054 0.21492-0.21286 0.21493-0.20953 0.21493-0.20631 0.21493-0.2032 0.21492-0.20019 0.21493-0.24644 0.21493-0.39391 0.21492-0.4111 0.21493-0.39633 0.21493-0.39384 0.21493-0.38061 0.21492-0.44444 0.21493-0.45103 0.21493-0.46459 0.21493-0.45939 0.21492-0.47302 0.21493-0.52936 0.21493-0.50361 0.21492-0.48011 0.21493-0.45808 0.21493-0.43798 0.21493-0.4187 0.21492-0.40232 0.21493-0.38718 0.21493-0.37314 0.21493-0.35818 0.21492-0.34605 0.21493-0.37201 0.21493-0.36141 0.21493-0.38504 0.21492-0.37226 0.21493-0.37547 0.21493-0.45437 0.21492-0.47764 0.21493-0.4608 0.21493-0.43884 0.21493-0.40967 0.21492-0.39006 0.21493-0.37771 0.21493-0.36617 0.21493-0.3613 0.21492-0.35439 0.21493-0.37833 0.21493-0.36399 0.21492-0.35081 0.21493-0.33534 0.21493-0.3246 0.21493-0.31452 0.21492-0.30504 0.21493-0.2963 0.21493-0.28097 0.21493-0.25008 0.21492-0.25449 0.21493-0.29206 0.21493-0.28494 0.21492-0.28925 0.21493-0.26704 0.21493-0.25936 0.21493-0.25821 0.21492-0.26807 0.21493-0.26141 0.21493-0.23887 0.21493-0.23433 0.21492-0.23269 0.21493-0.23104 0.21493-0.22938 0.21493-0.24912 0.21492-0.24624 0.21493-0.25002 0.21493-0.25272 0.21492-0.24668 0.21493-0.24092 0.21493-0.226 0.21493-0.22053 0.21492-0.2169 0.21493-0.21413 0.21493-0.2132 0.21493-0.18681 0.21492-0.17358 0.21493-0.16805 0.21493-0.1647 0.21492-0.16258 0.21493-0.16062 0.21493-0.17987 0.21493-0.18894 0.21492-0.19362 0.21493-0.20864 0.21493-0.19844 0.21493-0.19489 0.21492-0.19147 0.21493-0.18797 0.21493-0.18458 0.21492-0.18132 0.21493-0.17816 0.21493-0.17505 0.21493-0.17146 0.21492-0.16726 0.21493-0.15833 0.21493-0.13868 0.21493-0.1356 0.21492-0.1289 0.21493-0.12723 0.21493-0.12408 0.21492-0.11771 0.21493-0.10815 0.21493-0.104 0.21493-0.10293 0.21492-0.10148 0.21493-0.09881 0.21493-0.096207 0.21493-0.093668 0.21492-0.081052 0.21493-0.078905 0.21493-0.073581 0.21493-0.068818 0.21492-0.068242 0.21493-0.067721 0.21493-0.067322 0.21492-0.066859 0.21493-0.060805 0.21493-0.059322 0.21493-0.054614 0.21492-0.052424 0.21493-0.050857 0.21493-0.050551 0.21493-0.05025 0.21492-0.049288 0.21493-0.048288 0.21493-0.03449 0.21492-0.026465 0.21493-0.018297 0.21493-0.00505 0.21493-7.98e-4 0.21492-6.45e-4 0.21493-4.93e-4 0.21493-4.82e-4 0.21493-4.78e-4 0.21492-4.74e-4 0.21493-4.7e-4 0.21493-4.66e-4 0.21492-4.62e-4 0.21493-4.58e-4 0.21493-4.56e-4 0.21493-4.37e-4 0.21492-4.03e-4 0.21493-3.68e-4 0.21493-3.35e-4 0.21493-3e-4 0.21492-2.84e-4 0.21493-2.7e-4 0.21493-2.56e-4 0.21492-2.39e-4 0.21493-2.5e-4 0.21493-2.76e-4 0.21493-3.02e-4 0.21492-3.28e-4 0.21493-3.53e-4 0.21493-3.8e-4 0.21493-3.96e-4 0.21492-3.04e-4 0.21493-3.75e-4 0.21493-4.03e-4 0.21493-3.21e-4 0.21492-2.93e-4 0.21493-2.55e-4 0.21493-2.18e-4 0.21492-1.8e-4 1.0746-8.63e-4 0.21493-2.11e-4 0.21493-2.44e-4 0.21492-2.76e-4 0.64478-9.06e-4 0.21493-2.76e-4 0.21493-2.48e-4 0.21493-2.21e-4 0.21492-1.94e-4 0.21493-1.65e-4 0.21493-1.4e-4 0.21493-1.16e-4 0.21492-9.4e-5 0.21493-7e-5 0.21493-4.5e-5 0.21492-1.8e-5 0.21493 8e-6 0.21493 3.6e-5 0.21493 5.6e-5 0.21492 6.2e-5 0.21493 7e-5 0.21493 7.7e-5 0.21493 8.4e-5 0.21492 8.7e-5 0.21493 9.1e-5 0.21493 9.3e-5 0.21492 9.7e-5 0.21493 1e-4 0.21493 1.03e-4 0.21493 1.06e-4 0.21492 1.1e-4 0.21493 1.12e-4 0.21493 1.16e-4 0.21493 1.18e-4 0.21492 1.22e-4 0.21493 1.11e-4 0.42985 1.79e-4 0.21492 9.2e-5 0.21493 9.8e-5 0.21493 1.03e-4 0.21492 1.08e-4 0.21493 1.14e-4 0.21493 1.19e-4 0.21493 1.42e-4 0.21492 1.67e-4 0.21493 1.9e-4 0.21493 2.14e-4 0.21493 2.38e-4 0.21492 2.51e-4 0.21493 2.37e-4 0.21493 2.24e-4 0.21492 2.1e-4 0.21493 1.98e-4 0.21493 1.84e-4 0.42985 3.36e-4 0.42985 3e-4 0.42985 2.66e-4 0.64478 3.39e-4 0.21493 1.21e-4 0.21493 1.34e-4 0.21493 1.48e-4 0.21492 1.62e-4 0.21493 1.76e-4 0.21493 1.9e-4 0.21493 2.04e-4 0.21492 2.18e-4 0.21493 2.31e-4 0.21493 2.45e-4 0.21492 2.6e-4 0.21493 2.73e-4 0.21493 2.86e-4 0.21493 3.01e-4 0.21492 1.22e-4 0.21493-6.1e-4 0.21493-0.001342 0.21493-0.002072 0.21492-0.002817 0.21493-0.003572 0.21493-0.004325 0.21493-0.014781 0.21492-0.028401 0.21493-0.029316 0.21493-0.029266 0.21492-0.029212 0.21493-0.029157 0.21493-0.029368 0.21493-0.030188 0.21492-0.031 0.21493-0.031807 0.21493-0.032603 0.21493-0.034051 0.21492-0.052728 0.42985-0.14171 0.21492-0.078363 0.21493-0.08323 0.21493-0.082552 0.21493-0.081884 0.21492-0.081227 0.21493-0.080581 0.21493-0.079944 0.21493-0.079318 0.21492-0.078702 0.21493-0.078099 0.21493-0.077507 0.21492-0.076924 0.21493-0.076349 0.21493-0.075782 0.21493-0.075225 0.21492-0.074675 0.21493-0.074133 0.21493-0.073599 0.21493-0.07308 0.21492-0.072576 0.21493-0.07208 0.21493-0.071591 0.21492-0.071107 0.21493-0.070479 0.21493-0.069424 0.21493-0.068389 0.21492-0.06737 0.21493-0.066369 0.21493-0.065383 0.21493-0.064415 0.21492-0.056098 0.21493-0.045485 0.21493-0.044531 0.21493-0.044305 0.21492-0.044081 0.21493-0.04386 0.21493-0.043442 0.21492-0.042612 0.21493-0.041808 0.21493-0.040964 0.21493-0.040131 0.21492-0.038813 0.21493-0.024569 0.21493-0.010628 0.21493-0.010244 0.21492-0.004118 0.42985 1.89e-4 0.42985 1.59e-4 0.42985 1.29e-4 0.8597 1.82e-4 0.8597 1.09e-4 0.8597 4.9e-5 0.21493 2.5e-5 0.21493 3.8e-5 0.21493 4.9e-5 0.21492 6.1e-5 0.21493 7.4e-5 0.21493 8.5e-5 0.21492 9.7e-5 0.21493 1.09e-4 0.21493 1.21e-4 0.21493 1.34e-4 0.42985 2.81e-4 0.21493 1.13e-4 0.21493 6.7e-5 0.21492 2.4e-5 0.21493-2e-5 0.21493-6.3e-5 0.42985-2.13e-4 0.42985-1.73e-4 0.42985-2.08e-4 0.42985-2.41e-4 0.42985-2.76e-4 0.42985-3.1e-4 0.42985-3.45e-4 0.42985-3.78e-4 0.42985-4.13e-4 0.21493-2.02e-4 0.21492-1.91e-4 0.21493-1.78e-4 0.21493-1.67e-4 0.21493-1.55e-4 0.21492-1.47e-4 0.21493-1.42e-4 0.21493-1.36e-4 0.21492-1.32e-4 0.21493-1.3e-4 0.21493-1.26e-4 0.21493-1.24e-4 0.21492-1.21e-4 0.21493-1.17e-4 0.21493-1.15e-4 0.21493-1.13e-4 0.21492-1.09e-4 0.21493-1.06e-4 0.21493-1.04e-4 0.21492-1e-4 0.21493-9.8e-5 0.21493-7.4e-5 0.21493-3.5e-5 0.21492-1.8e-5 0.21493-1.2e-5 0.21493-6e-6 0.21493 2e-6 0.21492 2e-5 0.21493 3.8e-5 0.64478 1.27e-4 0.42985 5.7e-5 0.21492-1.1e-5 0.21493-0.001699 0.21493-0.007539 0.21493-0.010921 0.21492-0.010862 0.21493-0.011199 0.21493-0.011539 0.21493-0.011875 0.21492-0.014429 0.21493-0.014687 0.21493-0.014943 0.21492-0.015217 0.21493-0.017562 0.21493-0.01763 0.21493-0.019836 0.21492-0.023275 0.21493-0.026174 0.21493-0.02608 0.21493-0.026024 0.21492-0.025998 0.21493-0.025911 0.21493-0.025985 0.21492-0.026059 0.21493-0.027533 0.21493-0.029618 0.21493-0.029525 0.21492-0.029433 0.21493-0.029342 0.21493-0.029251 0.21493-0.029203 0.21492-0.029155 0.21493-0.029106 0.21493-0.029044 0.21492-0.028985 0.21493-0.028905 0.21493-0.028816 0.21493-0.028727 0.21492-0.035586 0.21493-0.037927 0.21493-0.037789 0.21493-0.037653 0.21492-0.037518 0.21493-0.037384 0.21493-0.03725 0.21493-0.037069 0.21492-0.036929 0.21493-0.035257 0.21493-0.029904 0.21492-0.026739 0.21493-0.026802 0.21493-0.035622 0.21493-0.035312 0.21492-0.0411 0.21493-0.042679 0.21493-0.043697 0.21493-0.043756 0.21492-0.043348 0.21493-0.041142 0.21493-0.040858 0.21492-0.038762 0.21493-0.035638 0.21493-0.032988 0.21493-0.032932 0.21492-0.038695 0.21493-0.039665 0.21493-0.041418 0.21493-0.041129 0.21492-0.040823 0.21493-0.039566 0.21493-0.041982 0.21492-0.049695 0.21493-0.051947 0.21493-0.053654 0.21493-0.0534 0.21492-0.053112 0.21493-0.052828 0.21493-0.052547 0.21493-0.052275 0.21492-0.052019 0.21493-0.051857 0.21493-0.051697 0.21492-0.051536 0.21493-0.048102 0.21493-0.048178 0.21493-0.047928 0.21492-0.047682 0.21493-0.047436 0.21493-0.047208 0.21493-0.047008 0.21492-0.046849 0.21493-0.046635 0.21493-0.046471 0.21493-0.046263 0.21492-0.046353 0.21493-0.046314 0.21493-0.038808 0.21492-0.038801 0.21493-0.033797 0.21493-0.030641 0.21493-0.032826 0.21492-0.042155 0.21493-0.041946 0.21493-0.041739 0.21493-0.041633 0.21492-0.041449 0.21493-0.041357 0.21493-0.041067 0.21492-0.040798 0.21493-0.035857 0.21493-0.041917 0.21493-0.040184 0.21492-0.040016 0.21493-0.039875 0.21493-0.039537 0.21493-0.035757 0.21492-0.029153 0.21493-0.027018 0.21493-0.025322 0.21492-0.025244 0.21493-0.025165 0.21493-0.025088 0.21493-0.025011 0.21492-0.024938 0.21493-0.024854 0.21493-0.024692 0.21493-0.024533 0.21492-0.024375 0.21493-0.022094 0.21493-0.020036 0.21493-0.020006 0.21492-0.019977 0.21493-0.019948 0.21493-0.019907 0.21492-0.019843 0.21493-0.019781 0.21493-0.019719 0.21493-0.019657 0.21492-0.019635 0.21493-0.019377 0.21493-0.019122 0.21493-0.018867 0.21492-0.018614 0.21493-0.018361 0.21493-0.018111 0.21492-0.015014 0.21493-0.006262 0.21493-0.006608 0.21493-0.006984 0.21492-0.007323 0.21493-0.007702 0.21493-0.00798 0.21493-0.008517 0.21492-0.008572 0.21493-0.008528 0.21493-0.002012 0.21492-0.002027 0.8597-0.008206 0.8597-0.00828 1.0746-0.010446 2.1493-0.021108 0.21493-0.002064 0.21493-0.002058 0.21492-0.002053 0.21493-0.002048 0.21493-0.002043 0.21493-0.002038 0.21492-0.002032 1.0746-0.010144 0.21493-0.001696 0.21492-0.001332 0.21493-9.7e-4 0.21493-6.07e-4 0.21493-2.44e-4 0.21492 1.96e-4 0.42985 3.54e-4 0.64478 5.37e-4 0.64478 5.44e-4 0.21493 1.83e-4 0.21493 1.86e-4 0.21492 1.89e-4 0.21493 1.93e-4 0.21493 1.96e-4 0.21493 1.99e-4 0.21492 2.03e-4 0.21493 2.06e-4 0.21493 2.09e-4 0.21492 2.13e-4 0.21493 2.15e-4 0.42985 4.37e-4 0.42985 4.45e-4 0.21493 2.25e-4 0.42985 4.55e-4 0.21493 2.31e-4 1.9343 0.001538 0.21492 1.75e-4 0.21493 1.8e-4 4.2985 0.003701 0.21492 1.73e-4 0.21493 1.94e-4 0.21493 2.15e-4 0.21493 2.19e-4 0.21492 2.24e-4 0.21493 2.27e-4 0.21493 2.33e-4 0.21492 2.39e-4 0.21493 2.47e-4 0.21493 2.56e-4 0.21493 2.65e-4 0.21492 2.75e-4 0.21493 2.81e-4 0.21493 2.88e-4 0.21493 2.94e-4 0.21492 3.01e-4 0.21493 3.08e-4 0.21493 3.53e-4 0.21493 3.64e-4 0.21492 3.72e-4 0.21493 3.78e-4 4.7283 0.009009 0.21493 4.41e-4 0.42985 9.09e-4 0.21493 4.31e-4 0.64478 0.001205 0.64478 0.001148 0.21493 3.68e-4 0.42985 7.05e-4 0.42985 6.67e-4 0.42985 6.38e-4 0.42985 6.1e-4 0.42985 5.07e-4 0.42985 4.75e-4 0.64478 5.66e-4 0.21493 1.9e-4 0.21492 1.96e-4 0.21493 2e-4 0.21493 2.06e-4 0.21493 2.11e-4 0.21492 2.16e-4 0.21493 2.22e-4 0.21493 2.27e-4 0.21493 2.73e-4 0.21492 2.76e-4 0.21493 2.79e-4 0.21493 2.82e-4 0.21492 2.85e-4 0.21493 2.87e-4 0.21493 2.89e-4 0.21493 2.93e-4 0.21492 2.95e-4 0.21493 2.98e-4 0.21493 3e-4 0.64478 7.96e-4 0.21493 2.7e-4 0.21492 2.75e-4 0.21493 2.78e-4 0.21493 2.83e-4 0.21493 3.03e-4 0.21492 3.25e-4 0.21493 3.54e-4 0.21493 4.01e-4 0.21493 4.39e-4 0.21492 4.66e-4 0.21493 4.79e-4 0.21493 4.94e-4 0.21492 5.07e-4 0.21493 5.13e-4 0.21493 5.18e-4 0.21493 5.24e-4 0.21492 5.27e-4 0.21493 5.3e-4 0.21493 5.39e-4 0.21493 5.58e-4 0.21492 6.7e-4 0.21493 6.75e-4 0.21493 6.82e-4 0.21493 6.88e-4 0.21492 6.93e-4 0.85971 0.002905 0.42985 0.001423 1.2896 0.003924 1.0746 0.003186 0.8597 0.002473 0.64478 0.0018 0.21492 5.73e-4 0.21493 5.52e-4 0.21493 5.21e-4 0.21493 4.81e-4 0.21492 4.5e-4 0.64478 0.001286 0.21492 4.54e-4 0.21493 4.66e-4 0.8597 0.001902 0.21493 4.62e-4 0.21492 4.42e-4 0.64478 9.71e-4 0.42985 6.16e-4 0.42985 5.37e-4 0.21492 2.73e-4 0.21493 2.78e-4 0.21493 2.84e-4 0.21492 2.9e-4 0.21493 2.99e-4 0.21493 3.11e-4 0.21493 3.23e-4 0.21492 3.33e-4 0.21493 3.42e-4 0.21493 3.51e-4 0.21493 3.6e-4 0.21492 3.67e-4 0.21493 3.77e-4 0.21493 3.84e-4 0.21492 3.92e-4 0.21493 4e-4 0.21493 4.08e-4 0.21493 4.29e-4 0.21492 4.67e-4 0.21493 4.72e-4 0.21493 4.77e-4 0.21493 4.82e-4 0.21492 4.87e-4 0.21493 4.92e-4 0.42985 9.94e-4 0.21493 5.04e-4 0.21493 5.1e-4 0.21493 5.44e-4 0.21492 5.46e-4 0.21493 5.13e-4 0.21493 5e-4 0.42985 9.72e-4 0.21493 4.88e-4 0.21493 5.03e-4 0.21492 5.27e-4 0.21493 5.39e-4 0.21493 5.49e-4 0.21493 5.57e-4 0.21492 5.69e-4 0.21493 5.8e-4 0.21493 5.92e-4 0.21493 6.02e-4 0.21492 6.13e-4 0.21493 6.22e-4 0.21493 6.36e-4 2.3642 0.007132 0.8597 0.002536 0.21492 6.15e-4 0.64478 0.001747 0.21492 5.85e-4 0.21493 5.88e-4 0.21493 5.91e-4 0.42985 0.001187 0.21493 5.95e-4 0.21493 6.04e-4 0.21492 5.78e-4 0.21493 5.66e-4 1.0746 0.002851 0.21493 5.48e-4 0.21492 5.21e-4 0.21493 5.06e-4 0.21493 4.95e-4 0.21492 4.83e-4 0.21493 4.71e-4 0.21493 4.55e-4 0.21493 4.41e-4 0.21492 4.26e-4 0.21493 4.12e-4 0.21493 3.97e-4 0.21493 3.77e-4 0.21492 3.57e-4 0.42985 6.86e-4 0.21493 3.46e-4 0.21492 3.51e-4 0.21493 3.55e-4 0.21493 4.04e-4 0.21492 4.57e-4 0.21493 4.88e-4 0.21493 5.01e-4 0.21493 5.14e-4 0.21492 5.18e-4 0.21493 5.2e-4 0.21493 5.24e-4 1.7194 0.004192 0.42985 0.001019 0.21493 5.5e-4 1.2896 0.003203 0.21493 5.41e-4 0.21493 5.49e-4 0.42985 0.001193 0.21493 5.99e-4 0.42985 0.001203 0.21493 6.04e-4 0.42985 0.001213 0.21492 6.09e-4 0.21493 6.11e-4 0.21493 6.13e-4 0.21492 6.31e-4 0.21493 6.71e-4 0.21493 6.84e-4 0.21493 6.94e-4 0.42985 0.001487 0.21493 7.47e-4 0.21493 7.03e-4 0.21492 6.54e-4 0.42985 0.001242 0.64478 0.00182 0.42985 0.00122 0.21493 6.23e-4 0.21493 6.44e-4 0.21493 6.86e-4 0.21492 7.47e-4 0.21493 7.55e-4 0.21493 7.62e-4 0.21492 7.7e-4 0.21493 8.71e-4 0.21493 9.1e-4 0.42985 0.001694 0.42985 0.001656 0.64478 0.002431 0.42985 0.001586 1.0746 0.003707 0.21493 7.62e-4 0.8597 0.00313 0.21493 7.84e-4 0.21492 7.68e-4 0.42985 0.001448 0.21492 7.07e-4 0.42985 0.001292 0.21493 6.67e-4 0.21492 7e-4 0.21493 7.37e-4 0.8597 0.002977 0.21493 7.5e-4 0.21492 7.58e-4 0.21493 7.64e-4 0.21493 7.45e-4 0.21493 7.21e-4 0.21492 6.77e-4 0.42985 0.001214 0.21493 5.92e-4 0.21492 5.81e-4 0.21493 4.77e-4 3.2239 0.006489 0.21493 4.09e-4 1.0746 0.001921 0.21493 3.86e-4 0.21493 4.4e-4 0.21493 4.57e-4 0.21492 4.82e-4 0.42985 0.001025 0.21492 4.75e-4 0.21493 4.34e-4 0.21493 3.9e-4 0.64478 0.001112 0.42985 7.08e-4 0.64478 0.001001 0.21492 3.4e-4 0.21493 3.46e-4 0.21493 3.48e-4 0.21493 3.5e-4 0.42985 7.05e-4 0.21493 3.56e-4 0.21493 3.58e-4 0.42985 7.23e-4 0.21493 3.64e-4 0.42985 7.33e-4 0.42985 7.39e-4 0.21492 3.71e-4 0.64478 0.00112 0.42985 7.52e-4 0.42985 7.56e-4 0.42985 7.6e-4 0.8597 0.001527 0.21493 3.24e-4 0.21492 3.06e-4 0.21493 2.81e-4 0.21493 2.49e-4 0.21493 2.99e-4 0.21492 3.12e-4 1.7194 0.002621 1.0746 0.001541 0.21492 3.1e-4 0.21493 3.16e-4 3.2239 0.004836 0.21493 3.24e-4 0.21493 3.29e-4 0.21492 3.34e-4 0.21493 3.4e-4 0.21493 3.44e-4 0.21492 3.5e-4 0.21493 3.56e-4 0.21493 3.6e-4 0.21493 3.66e-4 0.21492 3.72e-4 0.21493 4.38e-4 0.21493 4.59e-4 0.21493 5.15e-4 0.42985 9.52e-4 0.21493 8.47e-4 0.21493 0.002663 0.21492 0.002695 0.21493 0.0027 0.21493 0.002702 0.21492 0.002706 0.21493 0.00271 0.21493 0.002714 0.21493 0.002717 0.21492 0.002723 0.21493 0.002731 0.21493 0.002738 0.21493 0.002742 0.21492 0.002759 0.8597 0.01114 0.21493 0.002787 0.21493 0.002791 0.21492 0.002794 0.21493 0.002821 0.21493 0.002934 0.21493 0.00305 0.21492 0.003164 0.21493 0.003402 0.21493 0.003417 0.21492 0.003431 0.21493 0.003739 0.21493 0.00789 0.21493 0.008251 0.21492 0.008631 0.21493 0.008645 0.21493 0.008661 0.21493 0.00869 0.21492 0.009591 0.21493 0.009606 0.21493 0.009622 0.21492 0.009636 0.21493 0.00968 0.21493 0.009627 0.21493 0.009613 0.64478 0.028683 0.21493 0.00917 0.21492 0.007309 0.21493 0.007282 0.42985 0.014569 0.21492 0.007288 0.21493 0.007303 0.21493 0.007346 0.21492 0.007358 0.21493 0.007369 0.21493 0.007378 0.21493 0.007386 0.42985 0.014778 0.21493 0.007366 0.21493 0.007383 0.21492 0.0074 0.21493 0.007619 0.21493 0.007674 0.21492 0.007705 0.21493 0.007754 0.21493 0.007878 0.21493 0.007935 0.21492 0.008292 0.21493 0.009969 0.64478 0.029278 0.21493 0.009449 0.21493 0.005154 0.21492 0.004783 0.21493 0.004396 0.42985 0.008758 0.21492 0.004364 0.21493 0.003466 0.21493 0.003453 0.21493 0.003442 0.21492 0.003429 2.5791 0.040577 0.21493 0.003366 0.42985 0.006643 0.42985 0.006606 0.42985 0.006573 0.21493 0.003275 0.21493 0.003264 0.21492 0.003252 0.21493 0.003241 0.21493 0.003039 0.21493 0.003005 0.21492 0.003044 0.21493 0.003011 0.21493 0.002879 0.21492 0.002721 0.21493 0.002262 0.42985 9.17e-4 0.21492 6.29e-4 0.21493 0.001302 0.21493 0.002863 0.21493 0.002884 0.21492 0.002979 0.21493 0.003055 0.21493 0.00319 0.21492 0.004177 0.21493 0.00535 0.21493 0.005333 0.21493 0.005348 0.21492 0.007379 0.21493 0.007929 0.21493 0.007975 0.21493 0.008081 0.21492 0.008441 0.21493 0.012514 0.21493 0.012572 0.21492 0.012621 0.21493 0.012905 0.21493 0.015065 0.21493 0.015105 0.21492 0.015153 0.21493 0.017724 0.21493 0.018375 0.21493 0.022817 0.21492 0.024668 0.21493 0.0255 0.21493 0.025714 0.21493 0.02593 0.21492 0.027996 0.21493 0.028076 0.21493 0.028158 0.21492 0.02824 0.21493 0.028322 0.21493 0.028404 0.21493 0.033544 0.21492 0.036169 0.21493 0.039606 0.21493 0.043733 0.21493 0.044684 0.21492 0.046691 0.21493 0.047214 0.21493 0.049963 0.21492 0.052374 0.21493 0.053426 0.21493 0.054454 0.21493 0.055658 0.21492 0.055959 0.21493 0.058913 0.21493 0.059822 0.21493 0.062043 0.21492 0.061425 0.21493 0.062895 0.21493 0.068868 0.21492 0.06937 0.21493 0.070139 0.21493 0.072654 0.21493 0.075996 0.21492 0.076468 0.21493 0.076639 0.21493 0.075399 0.21493 0.076478 0.21492 0.07759 0.21493 0.082268 0.21493 0.080478 0.21492 0.082604 0.21493 0.084458 0.21493 0.081957 0.21493 0.081843 0.21492 0.076885 0.21493 0.075603 0.21493 0.077365 0.21493 0.078554 0.21492 0.080103 0.21493 0.079702 0.21493 0.080535 0.21493 0.081385 0.21492 0.082249 0.21493 0.083129 0.21493 0.084026 0.21492 0.079923 0.21493 0.077145 0.21493 0.073185 0.21493 0.068756 0.21492 0.071077 0.21493 0.06967 0.21493 0.072471 0.21493 0.069489 0.21492 0.066942 0.21493 0.066051 0.21493 0.064428 0.21492 0.061188 0.21493 0.061561 0.21493 0.058166 0.21493 0.057636 0.21492 0.058692 0.21493 0.058917 0.21493 0.055892 0.21493 0.048504 0.21492 0.048667 0.21493 0.045253 0.21493 0.041803 0.21492 0.038068 0.21493 0.038184 0.21493 0.038301 0.21493 0.034296 0.21492 0.033647 0.21493 0.032982 0.21493 0.027216 0.21493 0.027026 0.21492 0.025107 0.21493 0.023575 0.21493 0.023609 0.21492 0.023642 0.21493 0.023677 0.21493 0.023154 0.21493 0.02041 0.21492 0.019434 0.21493 0.018032 0.21493 0.016079 0.21493 0.015828 0.21492 0.015575 0.21493 0.015322 0.21493 0.015068 0.21493 0.014812 0.21492 0.012351 0.21493 0.012324 0.21493 0.012272 0.21492 0.011713 0.21493 0.0083 0.21493 0.007602 0.21493 0.004391 0.21492 0.004377 0.21493 0.004364 0.21493 0.00435 0.21493 0.004336 0.21492 0.004322 0.21493 0.004278 0.21493 0.004228 0.21492 0.004176 0.21493 2.99e-4 0.21493 2.19e-4 0.21493 1.78e-4 0.42985 2.96e-4 0.42985 2.6e-4 0.42985 2.23e-4 0.42985 1.87e-4 1.7194 6.34e-4 0.21493 8.1e-5 0.21493 9.2e-5 0.21493 1.02e-4 0.21492 1.13e-4 0.21493 1.23e-4 0.21493 1.34e-4 0.21492 1.44e-4 0.21493 1.54e-4 0.21493 1.63e-4 0.21493 1.72e-4 0.21492 1.79e-4 0.21493 1.88e-4 0.21493 1.96e-4 0.21493 2.04e-4 0.21492 2.12e-4 0.21493 2.2e-4 0.21493 2.28e-4 0.21492 2.43e-4 0.21493 3.04e-4 0.21493 4.21e-4 0.21493 4.62e-4 0.21492 5.03e-4 0.21493 5.43e-4 0.21493 5.84e-4 0.21493 0.006059 0.21492 0.012641 0.21493 0.012721 0.21493 0.012801 0.21492 0.017031 0.21493 0.017308 0.21493 0.021139 0.21493 0.021216 0.21492 0.021292 0.21493 0.021383 0.21493 0.02148 0.21493 0.021551 0.21492 0.021621 0.21493 0.021692 0.21493 0.022227 0.21492 0.023472 0.21493 0.027105 0.21493 0.034201 0.21493 0.046691 0.21492 0.052008 0.21493 0.056365 0.21493 0.057483 0.21493 0.058611 0.21492 0.061274 0.21493 0.062608 0.21493 0.066535 0.21493 0.067022 0.21492 0.067518 0.21493 0.06802 0.21493 0.06853 0.21492 0.069049 0.21493 0.069575 0.21493 0.070109 0.21493 0.07065 0.21492 0.075234 0.21493 0.075816 0.21493 0.076406 0.21493 0.077074 0.21492 0.077938 0.21493 0.078772 0.21493 0.079555 0.21492 0.089304 0.21493 0.090087 0.21493 0.090846 0.21493 0.091619 0.21492 0.085568 0.21493 0.077968 0.21493 0.078495 0.21493 0.07903 0.21492 0.074223 0.21493 0.074452 0.21493 0.070057 0.21492 0.070509 0.21493 0.070967 0.21493 0.071413 0.21493 0.071859 0.21492 0.072343 0.21493 0.072838 0.21493 0.073343 0.21493 0.073231 0.21492 0.072148 0.21493 0.067787 0.21493 0.058629 0.21492 0.04215 0.21493 0.035349 0.21493 0.029895 0.21493 0.028888 0.21492 0.027872 0.21493 0.024795 0.21493 0.023544 0.21493 0.018845 0.21492 0.018798 0.21493 0.018751 0.21493 0.018703 0.21493 0.018657 0.21492 0.018608 0.21493 0.01856 0.21493 0.018512 0.21492 0.018463 0.21493 0.013279 0.21493 0.013303 0.21493 0.013317 0.21492 0.013207 0.21493 0.012855 0.21493 0.012487 0.21493 0.012118 0.21492 9.08e-4 0.21493 8.53e-4 0.21493 8.41e-4 0.21492 8.3e-4 0.42985 0.001626 0.21493 7.97e-4 0.42985 0.00156 0.21493 7.62e-4 0.21493 7.51e-4 0.21492 7.39e-4 0.21493 7.26e-4 0.21493 7.15e-4 0.21492 7.02e-4 0.21493 6.9e-4 0.21493 6.78e-4 0.21493 6.61e-4 0.21492 6.41e-4 0.21493 6.23e-4 0.21493 6.27e-4 0.21493 6.31e-4 0.21492 5e-4 0.21493 5.2e-4 0.21493 5.75e-4 0.21492 6.94e-4 0.21493 7.49e-4 0.21493 7.94e-4 0.21493 8.18e-4 0.21492 8.42e-4 0.21493 8.68e-4 0.21493 9e-4 0.21493 9.78e-4 0.21492 0.004515 0.21493 0.021048 0.21493 0.024372 0.21493 0.02481 0.21492 0.02525 0.21493 0.025661 0.21493 0.029952 0.21492 0.030035 0.21493 0.030158 0.21493 0.035713 0.21493 0.036132 0.21492 0.036557 0.21493 0.038168 0.21493 0.038721 0.21493 0.040658 0.21492 0.040895 0.21493 0.046765 0.21493 0.047004 0.21492 0.047247 0.21493 0.047491 0.21493 0.048039 0.21493 0.048498 0.21492 0.049244 0.21493 0.049526 0.21493 0.049812 0.21493 0.050213 0.21492 0.056747 0.21493 0.0571 0.21493 0.057457 0.21492 0.057819 0.21493 0.065193 0.21493 0.069653 0.21493 0.079185 0.21492 0.079782 0.21493 0.080387 0.21493 0.081002 0.21493 0.081585 0.21492 0.0821 0.21493 0.082701 0.21493 0.083322 0.21492 0.083977 0.21493 0.084644 0.21493 0.085321 0.21493 0.093139 0.21492 0.10093 0.21493 0.10531 0.21493 0.085179 0.21493 0.083728 0.21492 0.091967 0.21493 0.09757 0.21493 0.10458 0.21493 0.10093 0.21492 0.10194 0.21493 0.10314 0.21493 0.10476 0.21492 0.10553 0.21493 0.10626 0.21493 0.10536 0.21493 0.10591 0.21492 0.10455 0.21493 0.10573 0.21493 0.10718 0.21493 0.13357 0.21492 0.14634 0.21493 0.15801 0.21493 0.16011 0.21492 0.17132 0.21493 0.17352 0.21493 0.1765 0.21493 0.189 0.21492 0.19255 0.21493 0.18642 0.21493 0.19007 0.21493 0.19385 0.21492 0.20707 0.21493 0.20096 0.21493 0.19962 0.21492 0.1961 0.21493 0.19993 0.21493 0.20392 0.21493 0.20806 0.21492 0.21238 0.21493 0.21688 0.21493 0.22158 0.21493 0.22648 0.21492 0.23196 0.21493 0.23743 0.21493 0.24317 0.21492 0.23487 0.21493 0.2262 0.21493 0.22988 0.21493 0.23736 0.21492 0.25078 0.21493 0.23997 0.21493 0.2691 0.21493 0.26198 0.21492 0.26682 0.21493 0.27397 0.21493 0.3002 0.21493 0.30966 0.21492 0.31953 0.21493 0.39034v63.012h-420.18z" stroke="#0766aa" stroke-opacity=".2"/>
</defs>
<g clip-path="url(#h)">
<use y="413.19625" fill="#0766aa" fill-opacity=".2" stroke="#0766aa" stroke-opacity=".2" xlink:href="#ae"/>
</g>
<path d="m40.603 170.63v-141.83" clip-path="url(#h)" fill="none" stroke="#b0b0b0" stroke-linecap="square" stroke-width=".8"/>
<defs>
<path id="c" d="m0 0v3.5" stroke="#000" stroke-width=".8"/>
</defs>
<use x="40.603125" y="170.627393" stroke="#000000" stroke-width=".8" xlink:href="#c"/>
<path d="m115.68 170.63v-141.83" clip-path="url(#h)" fill="none" stroke="#b0b0b0" stroke-linecap="square" stroke-width=".8"/>
<use x="115.678747" y="170.627393" stroke="#000000" stroke-width=".8" xlink:href="#c"/>
<path d="m190.75 170.63v-141.83" clip-path="url(#h)" fill="none" stroke="#b0b0b0" stroke-linecap="square" stroke-width=".8"/>
<use x="190.75437" y="170.627393" stroke="#000000" stroke-width=".8" xlink:href="#c"/>
<path d="m265.83 170.63v-141.83" clip-path="url(#h)" fill="none" stroke="#b0b0b0" stroke-linecap="square" stroke-width=".8"/>
<use x="265.829992" y="170.627393" stroke="#000000" stroke-width=".8" xlink:href="#c"/>
<path d="m340.91 170.63v-141.83" clip-path="url(#h)" fill="none" stroke="#b0b0b0" stroke-linecap="square" stroke-width=".8"/>
<use x="340.905615" y="170.627393" stroke="#000000" stroke-width=".8" xlink:href="#c"/>
<path d="m415.98 170.63v-141.83" clip-path="url(#h)" fill="none" stroke="#b0b0b0" stroke-linecap="square" stroke-width=".8"/>
<use x="415.981237" y="170.627393" stroke="#000000" stroke-width=".8" xlink:href="#c"/>
<defs>
<path id="d" d="m0 0h-3.5" stroke="#000" stroke-width=".8"/>
</defs>
<use x="40.603125" y="154.105211" stroke="#000000" stroke-width=".8" xlink:href="#d"/>
<defs>
<path id="g" d="m12.406 8.2969h16.109v55.625l-17.531-3.5156v8.9844l17.438 3.5156h9.8594v-64.609h16.109v-8.2969h-41.984z"/>
<path id="f" d="m31.781 66.406q-7.6094 0-11.453-7.5-3.8281-7.4844-3.8281-22.531 0-14.984 3.8281-22.484 3.8438-7.5 11.453-7.5 7.6719 0 11.5 7.5 3.8438 7.5 3.8438 22.484 0 15.047-3.8438 22.531-3.8281 7.5-11.5 7.5zm0 7.8125q12.266 0 18.734-9.7031 6.4688-9.6875 6.4688-28.141 0-18.406-6.4688-28.109-6.4688-9.6875-18.734-9.6875-12.25 0-18.719 9.6875-6.4688 9.7031-6.4688 28.109 0 18.453 6.4688 28.141 6.4688 9.7031 18.719 9.7031z"/>
</defs>
<g transform="translate(16.003 157.9) scale(.1 -.1)">
<use transform="translate(0 .68438)" xlink:href="#g"/>
<use transform="translate(63.623 .68438)" xlink:href="#f"/>
<use transform="translate(128.2 38.966) scale(.7)" xlink:href="#g"/>
</g>
<use x="40.603125" y="130.467312" stroke="#000000" stroke-width=".8" xlink:href="#d"/>
<defs>
<path id="w" d="m19.188 8.2969h34.422v-8.2969h-46.281v8.2969q5.6094 5.8125 15.297 15.594 9.7031 9.7969 12.188 12.641 4.7344 5.3125 6.6094 9 1.8906 3.6875 1.8906 7.25 0 5.8125-4.0781 9.4688-4.0781 3.6719-10.625 3.6719-4.6406 0-9.7969-1.6094-5.1406-1.6094-11-4.8906v9.9688q5.9531 2.3906 11.125 3.6094 5.1875 1.2188 9.4844 1.2188 11.328 0 18.062-5.6719 6.7344-5.6562 6.7344-15.125 0-4.5-1.6875-8.5312-1.6719-4.0156-6.125-9.4844-1.2188-1.4219-7.7656-8.1875-6.5312-6.7656-18.453-18.922z"/>
</defs>
<g transform="translate(16.003 134.27) scale(.1 -.1)">
<use transform="translate(0 .76562)" xlink:href="#g"/>
<use transform="translate(63.623 .76562)" xlink:href="#f"/>
<use transform="translate(128.2 39.047) scale(.7)" xlink:href="#w"/>
</g>
<use x="40.603125" y="106.829413" stroke="#000000" stroke-width=".8" xlink:href="#d"/>
<defs>
<path id="n" d="m40.578 39.312q7.0781-1.5156 11.047-6.3125 3.9844-4.7812 3.9844-11.812 0-10.781-7.4219-16.703-7.4219-5.9062-21.094-5.9062-4.5781 0-9.4375 0.90625t-10.031 2.7188v9.5156q4.0938-2.3906 8.9688-3.6094 4.8906-1.2188 10.219-1.2188 9.2656 0 14.125 3.6562t4.8594 10.641q0 6.4531-4.5156 10.078-4.5156 3.6406-12.562 3.6406h-8.5v8.1094h8.8906q7.2656 0 11.125 2.9062t3.8594 8.375q0 5.6094-3.9844 8.6094-3.9688 3.0156-11.391 3.0156-4.0625 0-8.7031-0.89062-4.6406-0.875-10.203-2.7188v8.7812q5.625 1.5625 10.531 2.3438t9.25 0.78125q11.234 0 17.766-5.1094 6.5469-5.0938 6.5469-13.781 0-6.0625-3.4688-10.234t-9.8594-5.7812z"/>
</defs>
<g transform="translate(16.003 110.63) scale(.1 -.1)">
<use transform="translate(0 .76562)" xlink:href="#g"/>
<use transform="translate(63.623 .76562)" xlink:href="#f"/>
<use transform="translate(128.2 39.047) scale(.7)" xlink:href="#n"/>
</g>
<use x="40.603125" y="83.191514" stroke="#000000" stroke-width=".8" xlink:href="#d"/>
<defs>
<path id="v" d="m37.797 64.312-24.906-38.922h24.906zm-2.5938 8.5938h12.406v-47.516h10.406v-8.2031h-10.406v-17.188h-9.8125v17.188h-32.906v9.5156z"/>
</defs>
<g transform="translate(16.003 86.991) scale(.1 -.1)">
<use transform="translate(0 .68438)" xlink:href="#g"/>
<use transform="translate(63.623 .68438)" xlink:href="#f"/>
<use transform="translate(128.2 38.966) scale(.7)" xlink:href="#v"/>
</g>
<use x="40.603125" y="59.553615" stroke="#000000" stroke-width=".8" xlink:href="#d"/>
<defs>
<path id="u" d="m10.797 72.906h38.719v-8.3125h-29.688v-17.859q2.1406 0.73438 4.2812 1.0938 2.1562 0.35938 4.3125 0.35938 12.203 0 19.328-6.6875 7.1406-6.6875 7.1406-18.109 0-11.766-7.3281-18.297-7.3281-6.5156-20.656-6.5156-4.5938 0-9.3594 0.78125-4.75 0.78125-9.8281 2.3438v9.9219q4.3906-2.3906 9.0781-3.5625t9.9062-1.1719q8.4531 0 13.375 4.4375 4.9375 4.4375 4.9375 12.062 0 7.6094-4.9375 12.047-4.9219 4.4531-13.375 4.4531-3.9531 0-7.8906-0.875-3.9219-0.875-8.0156-2.7344z"/>
</defs>
<g transform="translate(16.003 63.353) scale(.1 -.1)">
<use transform="translate(0 .68438)" xlink:href="#g"/>
<use transform="translate(63.623 .68438)" xlink:href="#f"/>
<use transform="translate(128.2 38.966) scale(.7)" xlink:href="#u"/>
</g>
<use x="40.603125" y="35.915717" stroke="#000000" stroke-width=".8" xlink:href="#d"/>
<defs>
<path id="t" d="m33.016 40.375q-6.6406 0-10.531-4.5469-3.875-4.5312-3.875-12.438 0-7.8594 3.875-12.438 3.8906-4.5625 10.531-4.5625t10.516 4.5625q3.875 4.5781 3.875 12.438 0 7.9062-3.875 12.438-3.875 4.5469-10.516 4.5469zm19.578 30.922v-8.9844q-3.7188 1.75-7.5 2.6719-3.7812 0.9375-7.5 0.9375-9.7656 0-14.922-6.5938-5.1406-6.5938-5.875-19.922 2.875 4.25 7.2188 6.5156 4.3594 2.2656 9.5781 2.2656 10.984 0 17.359-6.6719 6.375-6.6562 6.375-18.125 0-11.234-6.6406-18.031-6.6406-6.7812-17.672-6.7812-12.656 0-19.344 9.6875-6.6875 9.7031-6.6875 28.109 0 17.281 8.2031 27.562t22.016 10.281q3.7188 0 7.5-0.73438t7.8906-2.1875z"/>
</defs>
<g transform="translate(16.003 39.715) scale(.1 -.1)">
<use transform="translate(0 .76562)" xlink:href="#g"/>
<use transform="translate(63.623 .76562)" xlink:href="#f"/>
<use transform="translate(128.2 39.047) scale(.7)" xlink:href="#t"/>
</g>
<defs>
<path id="a" d="m0 0h-2" stroke="#000" stroke-width=".6"/>
</defs>
<use x="40.603125" y="170.627393" stroke="#000000" stroke-width=".6" xlink:href="#a"/>
<use x="40.603125" y="166.464966" stroke="#000000" stroke-width=".6" xlink:href="#a"/>
<use x="40.603125" y="163.511677" stroke="#000000" stroke-width=".6" xlink:href="#a"/>
<use x="40.603125" y="161.220927" stroke="#000000" stroke-width=".6" xlink:href="#a"/>
<use x="40.603125" y="159.349249" stroke="#000000" stroke-width=".6" xlink:href="#a"/>
<use x="40.603125" y="157.766768" stroke="#000000" stroke-width=".6" xlink:href="#a"/>
<use x="40.603125" y="156.39596" stroke="#000000" stroke-width=".6" xlink:href="#a"/>
<use x="40.603125" y="155.186822" stroke="#000000" stroke-width=".6" xlink:href="#a"/>
<use x="40.603125" y="146.989494" stroke="#000000" stroke-width=".6" xlink:href="#a"/>
<use x="40.603125" y="142.827067" stroke="#000000" stroke-width=".6" xlink:href="#a"/>
<use x="40.603125" y="139.873778" stroke="#000000" stroke-width=".6" xlink:href="#a"/>
<use x="40.603125" y="137.583029" stroke="#000000" stroke-width=".6" xlink:href="#a"/>
<use x="40.603125" y="135.71135" stroke="#000000" stroke-width=".6" xlink:href="#a"/>
<use x="40.603125" y="134.128869" stroke="#000000" stroke-width=".6" xlink:href="#a"/>
<use x="40.603125" y="132.758061" stroke="#000000" stroke-width=".6" xlink:href="#a"/>
<use x="40.603125" y="131.548923" stroke="#000000" stroke-width=".6" xlink:href="#a"/>
<use x="40.603125" y="123.351595" stroke="#000000" stroke-width=".6" xlink:href="#a"/>
<use x="40.603125" y="119.189168" stroke="#000000" stroke-width=".6" xlink:href="#a"/>
<use x="40.603125" y="116.235879" stroke="#000000" stroke-width=".6" xlink:href="#a"/>
<use x="40.603125" y="113.94513" stroke="#000000" stroke-width=".6" xlink:href="#a"/>
<use x="40.603125" y="112.073451" stroke="#000000" stroke-width=".6" xlink:href="#a"/>
<use x="40.603125" y="110.49097" stroke="#000000" stroke-width=".6" xlink:href="#a"/>
<use x="40.603125" y="109.120162" stroke="#000000" stroke-width=".6" xlink:href="#a"/>
<use x="40.603125" y="107.911024" stroke="#000000" stroke-width=".6" xlink:href="#a"/>
<use x="40.603125" y="99.713697" stroke="#000000" stroke-width=".6" xlink:href="#a"/>
<use x="40.603125" y="95.551269" stroke="#000000" stroke-width=".6" xlink:href="#a"/>
<use x="40.603125" y="92.59798" stroke="#000000" stroke-width=".6" xlink:href="#a"/>
<use x="40.603125" y="90.307231" stroke="#000000" stroke-width=".6" xlink:href="#a"/>
<use x="40.603125" y="88.435553" stroke="#000000" stroke-width=".6" xlink:href="#a"/>
<use x="40.603125" y="86.853071" stroke="#000000" stroke-width=".6" xlink:href="#a"/>
<use x="40.603125" y="85.482263" stroke="#000000" stroke-width=".6" xlink:href="#a"/>
<use x="40.603125" y="84.273125" stroke="#000000" stroke-width=".6" xlink:href="#a"/>
<use x="40.603125" y="76.075798" stroke="#000000" stroke-width=".6" xlink:href="#a"/>
<use x="40.603125" y="71.91337" stroke="#000000" stroke-width=".6" xlink:href="#a"/>
<use x="40.603125" y="68.960081" stroke="#000000" stroke-width=".6" xlink:href="#a"/>
<use x="40.603125" y="66.669332" stroke="#000000" stroke-width=".6" xlink:href="#a"/>
<use x="40.603125" y="64.797654" stroke="#000000" stroke-width=".6" xlink:href="#a"/>
<use x="40.603125" y="63.215172" stroke="#000000" stroke-width=".6" xlink:href="#a"/>
<use x="40.603125" y="61.844365" stroke="#000000" stroke-width=".6" xlink:href="#a"/>
<use x="40.603125" y="60.635226" stroke="#000000" stroke-width=".6" xlink:href="#a"/>
<use x="40.603125" y="52.437899" stroke="#000000" stroke-width=".6" xlink:href="#a"/>
<use x="40.603125" y="48.275471" stroke="#000000" stroke-width=".6" xlink:href="#a"/>
<use x="40.603125" y="45.322182" stroke="#000000" stroke-width=".6" xlink:href="#a"/>
<use x="40.603125" y="43.031433" stroke="#000000" stroke-width=".6" xlink:href="#a"/>
<use x="40.603125" y="41.159755" stroke="#000000" stroke-width=".6" xlink:href="#a"/>
<use x="40.603125" y="39.577273" stroke="#000000" stroke-width=".6" xlink:href="#a"/>
<use x="40.603125" y="38.206466" stroke="#000000" stroke-width=".6" xlink:href="#a"/>
<use x="40.603125" y="36.997328" stroke="#000000" stroke-width=".6" xlink:href="#a"/>
<use x="40.603125" y="28.8" stroke="#000000" stroke-width=".6" xlink:href="#a"/>
<path d="m45.434 153.22 1.0746 2.9534 0.64478 1.1121 0.42985 0.22997 1.5045 0.10415 0.8597 0.38317 0.8597 0.6357 1.0746 1.1203 1.0746 1.4523 1.2896 2.1104 2.3642 4.0515 0.64478 0.74036 0.42985 0.28539 0.42985 0.0763 21.493 0.084967 1.0746 0.3744 1.0746 0.62513 1.2896 1.0169 1.9343 1.8594 1.7194 1.5681 0.8597 0.53532 0.64478 0.20541 1.0746 0.022526 45.994-0.082352 0.42985-0.60051 0.64478-1.6967 3.4388-10.724 1.0746-2.2519 1.0746-1.6918 0.8597-0.97325 0.8597-0.63831 0.64478-0.35784 0.64478-0.6907 0.64478-1.0584 2.1493-3.8992 0.8597-0.8738 0.8597-0.52799 0.8597-0.21984 0.64478 0.031491 0.64478 0.20614 0.64478 0.39665 0.64478 0.61551 0.64478 0.88138 0.8597 1.2354 0.64478 0.58678 0.42985 0.1729 0.42985-0.027714 0.64478-0.36062 2.1493-1.5004 1.2896-1.2712 1.7194-1.6819 0.64478-0.33859 0.64478-0.13984 0.8597 0.068422 0.8597 0.26143 1.0746 0.58404 1.0746 0.87523 1.2896 1.2297 0.42985 0.11728 0.42985-0.094032 0.42985-0.29268 1.0746-1.2209 1.2896-1.4746 1.0746-0.84488 0.8597-0.43353 0.64478-0.12541 0.64478 0.10022 0.64478 0.32819 0.64478 0.57435 0.64478 0.85903 2.3642 3.8142 2.3642 2.5434 1.2896 0.945 1.9343 1.1398 1.2896 1.1507 1.9343 2.113 1.7194 1.7864 0.8597 0.59463 0.64478 0.20705 1.9343 0.013098h4.9433l0.21493-0.36072 1.5045-8.3789 0.64478-2.0265 0.8597-1.9271 0.8597-1.3136 0.8597-0.84489 0.64478-0.36684 0.64478-0.14866 1.7194 0.081679 1.7194 0.28221 0.21492-0.15601 1.7194-2.6442 0.64478-0.45231 0.64478-0.20473 0.64478 0.024716 0.64478 0.25206 0.64478 0.49288 0.64478 0.76599 0.64478 1.0991 1.0746 2.3927 0.64478 1.3862 0.42985 0.34257 0.21493-0.13871 1.9343-6.2023 0.8597-1.6796 0.8597-1.1132 0.64478-0.47565 0.64478-0.19913 0.64478 0.06474 0.64478 0.33692 0.64478 0.64069 0.64478 1.0091 0.64478 1.4994 0.64478 2.1607 0.8597 3.0939 2.1493 2.1031 0.8597 0.55255 3.2239 1.1873 0.42985 0.11753 0.42985-0.25667 0.42985-0.66414 2.1493-4.3476 0.8597-1.1072 0.8597-0.79842 0.8597-0.5219 0.64478-0.13983 0.64478 0.12142 0.64478 0.3866 0.64478 0.67737 0.64478 1.0229 0.64478 1.4716 1.0746 2.8069 0.64478 1.1193 2.5791 3.791 0.64478 0.6037 0.64478 0.27741 1.2896 0.004444 0.21493-0.70075 0.8597-4.5446 0.8597-3.4547 1.2896-4.0683 1.2896-3.8591 0.8597-2.8026 0.8597-1.9799 0.8597-1.3804 0.64478-0.61627 0.64478-0.27729 0.64478 0.048024 0.42985 0.22424 0.8597 0.57659 0.64478 0.57828 0.64478 0.85749 0.64478 1.1858 0.8597 2.0883 1.2896 3.6598 1.7194 3.2903 0.8597 1.0958 1.2896 1.4079 0.64478 0.46558 0.42985 0.050661 0.42985-0.13487 0.64478-0.50582 0.21492-0.23635 0.21493-0.56109 1.5045-6.7661 0.8597-2.485 2.1493-4.6885 0.64478-0.61814 0.64478-0.25161 0.42985 0.021395 0.42985 0.1728 0.64478 0.56237 0.64478 0.94928 0.64478 1.3574 0.64478 1.919 0.64478 2.2028 1.7194 3.8087 0.8597 1.9759 0.42985-0.070792 0.42985-0.44581 2.5791-4.2042 0.8597-0.71445 0.64478-0.29184 0.42985-0.15462 0.64478-0.70935 0.64478-0.42474 1.0746-0.47624 0.64478-0.61622 0.64478-0.32586 0.64478-0.0622 0.64478 0.17636 0.8597 0.54659 1.0746 0.98765 0.64478 0.89024 0.64478 1.2367 0.64478 1.6942 0.64478 2.366 0.42985 1.4433 1.0746 2.8589 0.42985 0.59677 0.21493-0.004274 0.21493-0.35514 1.7194-7.3399 0.64478-1.5581 0.64478-1.1118 0.64478-0.76995 0.64478-0.48459 1.0746-0.4098 0.8597-0.15586 0.64478 0.19314 0.64478 0.52933 0.64478 0.93378 1.0746 2.0402 0.21493-0.017158 0.42985-0.493 1.0746-2.0391 0.8597-1.3888 0.64478-0.69821 0.64478-0.44435 0.8597-0.50292 1.7194-1.703 0.8597-0.47334 0.8597-0.38077 0.42985-0.53957 2.5791-3.5197 0.64478-0.37272 0.64478-0.072482 0.64478 0.2363 0.64478 0.55726 1.9343 2.2496 0.64478 0.37229 0.64478 0.66768 1.2896 1.5731 0.8597 0.30547 0.64478-0.32074 0.64478-0.078845 0.64478 0.15473 0.64478 0.38444 0.64478 0.64023 0.64478 0.93064 0.64478 1.2917 0.64478 1.7914 1.0746 3.8729 0.42985 0.33561 0.64478 0.20427 0.42985-0.12014 0.64478-0.58076 1.5045-1.5443 1.0746-0.83811 1.0746-0.55973 1.0746-0.3325 1.0746-0.1008 1.0746 0.14456 0.64478-0.81853 0.64478-0.82107 0.64478-0.48119 1.2896-0.64404 0.8597-0.14364 0.8597 0.094166 0.8597 0.31871 0.8597 0.58031 0.8597 0.8768 0.8597 1.2416 0.8597 1.739 0.42985 1.0704 0.21492 0.090675 0.21493-0.097164 0.42985-0.80559 0.64478-1.4069 0.64478-0.89775 0.64478-0.51775 0.64478-0.20606 0.64478 0.071785 0.64478 0.31605 0.64478 0.54593 0.64478 0.79043 0.64478 1.0674 0.64478 1.4004 0.64478 1.8295 0.64478 2.4437 0.64478 3.4493 1.0746 7.7002 0.21492 0.56945 4.2985-0.060101 0.64478-0.28629 0.8597-0.66412 1.2896-1.3381 2.5791-2.7364 1.7194-1.6901 0.8597-1.585 2.1493-4.6381 2.1493-4.5432 0.64478-0.83319 0.64478-0.55068 0.64478-0.30045 0.64478-0.062564 0.64478 0.16617 0.64478-1.0959 0.64478-0.63422 0.64478-0.32384 0.64478-0.062162 0.64478 0.1573 0.8597 0.47798 1.2896 1.12 1.0746 1.1208 1.0746 1.4784 0.42985 0.37895 0.64478 0.95957 0.64478 1.5469 0.42985 1.4571 0.64478-0.60587 0.64478-0.36705 0.64478-0.1555 0.64478 0.04339 0.64478 0.24157 0.64478 0.45084 0.64478 0.68533 0.64478 0.96504 0.64478 1.3228 0.64478 1.8258 1.0746 3.563 1.0746 0.4165 1.2896 0.73255 1.9343 1.4004 2.1493 1.5193 1.0746 0.4806 0.8597 0.12611 4.0836-0.043065 0.21493-0.25517 0.42985-1.0412 0.64478-2.3902 1.5045-5.8555 2.5791-8.2637 0.8597-1.4865 0.8597-0.94452 2.1493-1.9147 0.64478-0.12185 0.8597 0.12897 0.8597 0.40895 0.64478 0.53033 0.8597 0.80974 0.21492 0.006251 0.42985-0.38712 1.0746-1.8284 0.64478-0.71729 0.64478-0.42629 0.64478-0.075969 0.8597 0.17079 1.7194 0.58413 0.64478 0.6578 0.64478 1.019 0.64478 1.4895 0.64478 2.1761 0.42985 2.0492 0.8597 4.5266 0.42985 1.7319 0.8597 1.487 0.42985 0.4183 0.42985 0.11817 3.4388-0.46128 0.21492-0.34301 1.9343-4.87 0.8597-1.4106 0.8597-1.0592 0.8597-0.68384 0.64478-0.2716 0.64478-0.07801 0.64478 0.11596 0.64478 0.32159 0.64478 0.55258 0.64478 0.82844 0.64478 1.1772 0.64478 1.3884 0.42985 0.36339 1.5045 0.72011 1.0746 0.25038 0.42985-0.063858 0.42985-0.88298 0.64478-1.1962 0.64478-0.71757 0.64478-0.35424 0.64478-0.052953 0.64478 0.21693 0.64478 0.47663 0.64478 0.74449 0.64478 1.0354 0.64478 1.376 0.64478 1.8109 0.64478 2.4221 0.64478 3.4033 0.42985 3.2382 0.42985 4.847 0.21492 3.7113 0.21493 5.8766 0.21493 11.484 0.002069 227.49v0" clip-path="url(#h)" fill="none" stroke="#dc143c" stroke-linecap="square" stroke-width="1.5"/>
<path d="m40.603 170.63v-141.83" fill="none" stroke="#000" stroke-linecap="square" stroke-width=".8"/>
<path d="m486.62 170.63v-141.83" fill="none" stroke="#000" stroke-linecap="square" stroke-width=".8"/>
<path d="m40.603 170.63h446.02" fill="none" stroke="#000" stroke-linecap="square" stroke-width=".8"/>
<path d="m40.603 28.8h446.02" fill="none" stroke="#000" stroke-linecap="square" stroke-width=".8"/>
<path d="m324.59 66.156h155.04q2 0 2-2v-28.356q0-2-2-2h-155.04q-2 0-2 2v28.356q0 2 2 2z" fill="#fff" opacity=".8" stroke="#ccc"/>
<path d="m326.59 41.898h20" fill="none" stroke="#dc143c" stroke-linecap="square" stroke-width="1.5"/>
<defs>
<path id="i" d="m41.109 46.297q-1.5156 0.875-3.2969 1.2812-1.7812 0.42188-3.9219 0.42188-7.625 0-11.703-4.9531t-4.0781-14.234v-28.812h-9.0312v54.688h9.0312v-8.5q2.8438 4.9844 7.375 7.3906 4.5469 2.4219 11.047 2.4219 0.92188 0 2.0469-0.125 1.125-0.10938 2.4844-0.35938z"/>
<path id="k" d="m34.281 27.484q-10.891 0-15.094-2.4844t-4.2031-8.5q0-4.7812 3.1562-7.5938 3.1562-2.7969 8.5625-2.7969 7.4844 0 12 5.2969t4.5156 14.078v2zm17.922 3.7188v-31.203h-8.9844v8.2969q-3.0781-4.9688-7.6719-7.3438t-11.234-2.375q-8.3906 0-13.359 4.7188-4.9531 4.7188-4.9531 12.625 0 9.2188 6.1719 13.906 6.1875 4.6875 18.438 4.6875h12.609v0.89062q0 6.2031-4.0781 9.5938t-11.453 3.3906q-4.6875 0-9.1406-1.125-4.4375-1.125-8.5312-3.375v8.3125q4.9219 1.9062 9.5625 2.8438 4.6406 0.95312 9.0312 0.95312 11.875 0 17.734-6.1562 5.8594-6.1406 5.8594-18.641z"/>
<path id="q" d="m18.312 70.219v-15.531h18.5v-6.9844h-18.5v-29.688q0-6.6875 1.8281-8.5938t7.4531-1.9062h9.2188v-7.5156h-9.2188q-10.406 0-14.359 3.875-3.9531 3.8906-3.9531 14.141v29.688h-6.5938v6.9844h6.5938v15.531z"/>
<path id="e" d="m56.203 29.594v-4.3906h-41.312q0.59375-9.2812 5.5938-14.141t13.938-4.8594q5.1719 0 10.031 1.2656t9.6562 3.8125v-8.5q-4.8438-2.0469-9.9219-3.125t-10.297-1.0781q-13.094 0-20.734 7.6094-7.6406 7.625-7.6406 20.625 0 13.422 7.25 21.297 7.25 7.8906 19.562 7.8906 11.031 0 17.453-7.1094 6.4219-7.0938 6.4219-19.297zm-8.9844 2.6406q-0.09375 7.3594-4.125 11.75-4.0312 4.4062-10.672 4.4062-7.5156 0-12.031-4.25t-5.2031-11.969z"/>
<path id="m" d="m30.609 48.391q-7.2188 0-11.422-5.6406t-4.2031-15.453 4.1719-15.453q4.1875-5.6406 11.453-5.6406 7.1875 0 11.375 5.6562 4.2031 5.6719 4.2031 15.438 0 9.7188-4.2031 15.406-4.1875 5.6875-11.375 5.6875zm0 7.6094q11.719 0 18.406-7.625 6.7031-7.6094 6.7031-21.078 0-13.422-6.7031-21.078-6.6875-7.6406-18.406-7.6406-11.766 0-18.438 7.6406-6.6562 7.6562-6.6562 21.078 0 13.469 6.6562 21.078 6.6719 7.625 18.438 7.625z"/>
<path id="ab" d="m37.109 75.984v-7.4844h-8.5938q-4.8281 0-6.7188-1.9531-1.875-1.9531-1.875-7.0312v-4.8281h14.797v-6.9844h-14.797v-47.703h-9.0312v47.703h-8.5938v6.9844h8.5938v3.8125q0 9.125 4.25 13.297 4.25 4.1875 13.469 4.1875z"/>
<path id="l" d="m9.4219 54.688h8.9844v-54.688h-8.9844zm0 21.297h8.9844v-11.391h-8.9844z"/>
<path id="r" d="m9.4219 75.984h8.9844v-75.984h-8.9844z"/>
<path id="z" d="m8.5 21.578v33.109h8.9844v-32.766q0-7.7656 3.0156-11.656 3.0312-3.875 9.0938-3.875 7.2656 0 11.484 4.6406 4.2344 4.6406 4.2344 12.656v31h8.9844v-54.688h-8.9844v8.4062q-3.2656-4.9844-7.5938-7.4062-4.3125-2.4219-10.031-2.4219-9.4219 0-14.312 5.8594-4.875 5.8594-4.875 17.141zm22.609 34.422z"/>
<path id="j" d="m44.281 53.078v-8.5q-3.7969 1.9531-7.9062 2.9219-4.0938 0.98438-8.5 0.98438-6.6875 0-10.031-2.0469t-3.3438-6.1562q0-3.125 2.3906-4.9062t9.625-3.3906l3.0781-0.6875q9.5625-2.0469 13.594-5.7812t4.0312-10.422q0-7.625-6.0312-12.078-6.0312-4.4375-16.578-4.4375-4.3906 0-9.1562 0.85938t-10.031 2.5625v9.2812q4.9844-2.5938 9.8125-3.8906 4.8281-1.2812 9.5781-1.2812 6.3438 0 9.75 2.1719 3.4219 2.1719 3.4219 6.125 0 3.6562-2.4688 5.6094-2.4531 1.9531-10.812 3.7656l-3.125 0.73438q-8.3438 1.75-12.062 5.3906-3.7031 3.6406-3.7031 9.9844 0 7.7188 5.4688 11.906 5.4688 4.2031 15.531 4.2031 4.9688 0 9.3594-0.73438 4.4062-0.71875 8.1094-2.1875z"/>
<path id="y" d="m31 75.875q-6.5312-11.219-9.7188-22.219-3.1719-10.984-3.1719-22.266 0-11.266 3.2031-22.328t9.6875-22.25h-7.8125q-7.3125 11.484-10.953 22.562t-3.6406 22.016q0 10.891 3.6094 21.922 3.625 11.047 10.984 22.562z"/>
<path id="o" d="m45.406 46.391v29.594h8.9844v-75.984h-8.9844v8.2031q-2.8281-4.875-7.1562-7.25-4.3125-2.375-10.375-2.375-9.9062 0-16.141 7.9062-6.2188 7.9219-6.2188 20.812t6.2188 20.797q6.2344 7.9062 16.141 7.9062 6.0625 0 10.375-2.375 4.3281-2.3594 7.1562-7.2344zm-30.609-19.094q0-9.9062 4.0781-15.547t11.203-5.6406 11.219 5.6406q4.1094 5.6406 4.1094 15.547t-4.1094 15.547q-4.0938 5.6406-11.219 5.6406t-11.203-5.6406-4.0781-15.547z"/>
<path id="aa" d="m9.0781 75.984h9.0312v-44.875l26.812 23.578h11.469l-29-25.578 30.234-29.109h-11.719l-27.797 26.703v-26.703h-9.0312z"/>
<path id="ad" d="m25.391 72.906h8.2969l-25.391-82.188h-8.2969z"/>
<path id="p" d="m32.172-5.0781q-3.7969-9.7656-7.4219-12.734-3.6094-2.9844-9.6562-2.9844h-7.1875v7.5156h5.2812q3.7031 0 5.75 1.7656 2.0625 1.75 4.5469 8.2969l1.6094 4.0938-22.109 53.812h9.5156l17.094-42.766 17.094 42.766h9.5156z"/>
<path id="x" d="m8.0156 75.875h7.8125q7.3125-11.516 10.953-22.562 3.6406-11.031 3.6406-21.922 0-10.938-3.6406-22.016t-10.953-22.562h-7.8125q6.4844 11.188 9.6875 22.25t3.2031 22.328q0 11.281-3.2031 22.266-3.2031 11-9.6875 22.219z"/>
</defs>
<g transform="translate(354.59 45.398) scale(.1 -.1)">
<use xlink:href="#i"/>
<use x="41.113281" xlink:href="#k"/>
<use x="102.392578" xlink:href="#q"/>
<use x="141.601562" xlink:href="#e"/>
<use x="203.125" xlink:href="#DejaVuSans-20"/>
<use x="234.912109" xlink:href="#m"/>
<use x="296.09375" xlink:href="#ab"/>
<use x="331.298828" xlink:href="#DejaVuSans-20"/>
<use x="363.085938" xlink:href="#ab"/>
<use x="398.291016" xlink:href="#k"/>
<use x="459.570312" xlink:href="#l"/>
<use x="487.353516" xlink:href="#r"/>
<use x="515.136719" xlink:href="#z"/>
<use x="578.515625" xlink:href="#i"/>
<use x="619.597656" xlink:href="#e"/>
<use x="681.121094" xlink:href="#j"/>
<use x="733.220703" xlink:href="#DejaVuSans-20"/>
<use x="765.007812" xlink:href="#y"/>
<use x="804.021484" xlink:href="#o"/>
<use x="867.498047" xlink:href="#l"/>
<use x="895.28125" xlink:href="#j"/>
<use x="947.380859" xlink:href="#aa"/>
<use x="1005.291016" xlink:href="#j"/>
<use x="1057.390625" xlink:href="#ad"/>
<use x="1091.082031" xlink:href="#p"/>
<use x="1150.261719" xlink:href="#i"/>
<use x="1191.375" xlink:href="#x"/>
</g>
<path d="m326.59 60.077h20v-7h-20z" fill="#0766aa" fill-opacity=".2" stroke="#0766aa" stroke-opacity=".2"/>
<defs>
<path id="am" d="m48.688 27.297q0 9.9062-4.0781 15.547t-11.203 5.6406q-7.1406 0-11.219-5.6406t-4.0781-15.547 4.0781-15.547 11.219-5.6406q7.125 0 11.203 5.6406t4.0781 15.547zm-30.578 19.094q2.8438 4.875 7.1562 7.2344 4.3281 2.375 10.328 2.375 9.9688 0 16.188-7.9062 6.2344-7.9062 6.2344-20.797t-6.2344-20.812q-6.2188-7.9062-16.188-7.9062-6 0-10.328 2.375-4.3125 2.375-7.1562 7.25v-8.2031h-9.0312v75.984h9.0312z"/>
<path id="ag" d="m2.9844 54.688h9.5156l17.094-45.891 17.094 45.891h9.5156l-20.516-54.688h-12.203z"/>
</defs>
<g transform="translate(354.59 60.077) scale(.1 -.1)">
<use xlink:href="#o"/>
<use x="63.476562" xlink:href="#l"/>
<use x="91.259766" xlink:href="#j"/>
<use x="143.359375" xlink:href="#aa"/>
<use x="201.269531" xlink:href="#j"/>
<use x="253.369141" xlink:href="#DejaVuSans-20"/>
<use x="285.15625" xlink:href="#m"/>
<use x="346.337891" xlink:href="#am"/>
<use x="409.814453" xlink:href="#j"/>
<use x="461.914062" xlink:href="#e"/>
<use x="523.4375" xlink:href="#i"/>
<use x="564.550781" xlink:href="#ag"/>
<use x="623.730469" xlink:href="#e"/>
<use x="685.253906" xlink:href="#o"/>
</g>
<path d="m40.603 375.64h446.02v-189.1h-446.02z" fill="#fff"/>
<path d="m40.603 375.64v-189.1" clip-path="url(#b)" fill="none" stroke="#b0b0b0" stroke-linecap="square" stroke-width=".8"/>
<use x="40.603125" y="375.64" stroke="#000000" stroke-width=".8" xlink:href="#c"/>
<g transform="translate(37.422 390.24) scale(.1 -.1)">
<use xlink:href="#f"/>
</g>
<path d="m115.68 375.64v-189.1" clip-path="url(#b)" fill="none" stroke="#b0b0b0" stroke-linecap="square" stroke-width=".8"/>
<use x="115.678747" y="375.64" stroke="#000000" stroke-width=".8" xlink:href="#c"/>
<g transform="translate(112.5 390.24) scale(.1 -.1)">
<use xlink:href="#g"/>
</g>
<path d="m190.75 375.64v-189.1" clip-path="url(#b)" fill="none" stroke="#b0b0b0" stroke-linecap="square" stroke-width=".8"/>
<use x="190.75437" y="375.64" stroke="#000000" stroke-width=".8" xlink:href="#c"/>
<g transform="translate(187.57 390.24) scale(.1 -.1)">
<use xlink:href="#w"/>
</g>
<path d="m265.83 375.64v-189.1" clip-path="url(#b)" fill="none" stroke="#b0b0b0" stroke-linecap="square" stroke-width=".8"/>
<use x="265.829992" y="375.64" stroke="#000000" stroke-width=".8" xlink:href="#c"/>
<g transform="translate(262.65 390.24) scale(.1 -.1)">
<use xlink:href="#n"/>
</g>
<path d="m340.91 375.64v-189.1" clip-path="url(#b)" fill="none" stroke="#b0b0b0" stroke-linecap="square" stroke-width=".8"/>
<use x="340.905615" y="375.64" stroke="#000000" stroke-width=".8" xlink:href="#c"/>
<g transform="translate(337.72 390.24) scale(.1 -.1)">
<use xlink:href="#v"/>
</g>
<path d="m415.98 375.64v-189.1" clip-path="url(#b)" fill="none" stroke="#b0b0b0" stroke-linecap="square" stroke-width=".8"/>
<use x="415.981237" y="375.64" stroke="#000000" stroke-width=".8" xlink:href="#c"/>
<g transform="translate(412.8 390.24) scale(.1 -.1)">
<use xlink:href="#u"/>
</g>
<defs>
<path id="s" d="m34.188 63.188-13.391-36.281h26.812zm-5.5781 9.7188h11.188l27.781-72.906h-10.25l-6.6406 18.703h-32.859l-6.6406-18.703h-10.406z"/>
<path id="ak" d="m45.406 27.984q0 9.7656-4.0312 15.125-4.0156 5.375-11.297 5.375-7.2188 0-11.25-5.375-4.0312-5.3594-4.0312-15.125 0-9.7188 4.0312-15.094t11.25-5.375q7.2812 0 11.297 5.375 4.0312 5.375 4.0312 15.094zm8.9844-21.203q0-13.953-6.2031-20.766-6.1875-6.8125-18.984-6.8125-4.7344 0-8.9375 0.70312t-8.1562 2.1719v8.7344q3.9531-2.1406 7.8125-3.1562 3.8594-1.0312 7.8594-1.0312 8.8438 0 13.234 4.6094t4.3906 13.938v4.4531q-2.7812-4.8438-7.125-7.2344t-10.406-2.3906q-10.047 0-16.203 7.6562-6.1562 7.6719-6.1562 20.328 0 12.688 6.1562 20.344 6.1562 7.6719 16.203 7.6719 6.0625 0 10.406-2.3906t7.125-7.2188v8.2969h8.9844z"/>
<path id="ah" d="m18.109 8.2031v-29h-9.0312v75.484h9.0312v-8.2969q2.8438 4.875 7.1562 7.2344 4.3281 2.375 10.328 2.375 9.9688 0 16.188-7.9062 6.2344-7.9062 6.2344-20.797t-6.2344-20.812q-6.2188-7.9062-16.188-7.9062-6 0-10.328 2.375-4.3125 2.375-7.1562 7.25zm30.578 19.094q0 9.9062-4.0781 15.547t-11.203 5.6406q-7.1406 0-11.219-5.6406t-4.0781-15.547 4.0781-15.547 11.219-5.6406q7.125 0 11.203 5.6406t4.0781 15.547z"/>
<path id="af" d="m4.2031 54.688h8.9844l11.234-42.672 11.172 42.672h10.594l11.234-42.672 11.188 42.672h8.9844l-14.312-54.688h-10.594l-11.766 44.828-11.812-44.828h-10.609z"/>
<path id="aw" d="m4.8906 31.391h26.312v-8h-26.312z"/>
<path id="ai" d="m54.891 33.016v-33.016h-8.9844v32.719q0 7.7656-3.0312 11.609-3.0312 3.8594-9.0781 3.8594-7.2812 0-11.484-4.6406-4.2031-4.625-4.2031-12.641v-30.906h-9.0312v54.688h9.0312v-8.5q3.2344 4.9375 7.5938 7.375 4.375 2.4375 10.094 2.4375 9.4219 0 14.25-5.8281 4.8438-5.8281 4.8438-17.156z"/>
</defs>
<g transform="translate(209.62 403.92) scale(.1 -.1)">
<use xlink:href="#s"/>
<use x="68.408203" xlink:href="#ak"/>
<use x="131.884766" xlink:href="#e"/>
<use x="193.408203" xlink:href="#DejaVuSans-20"/>
<use x="225.195312" xlink:href="#y"/>
<use x="264.208984" xlink:href="#ah"/>
<use x="327.685547" xlink:href="#m"/>
<use x="388.867188" xlink:href="#af"/>
<use x="470.654297" xlink:href="#e"/>
<use x="532.177734" xlink:href="#i"/>
<use x="573.197266" xlink:href="#aw"/>
<use x="609.296875" xlink:href="#m"/>
<use x="670.478516" xlink:href="#ai"/>
<use x="733.857422" xlink:href="#DejaVuSans-20"/>
<use x="765.644531" xlink:href="#p"/>
<use x="824.824219" xlink:href="#e"/>
<use x="886.347656" xlink:href="#k"/>
<use x="947.626953" xlink:href="#i"/>
<use x="988.740234" xlink:href="#j"/>
<use x="1040.839844" xlink:href="#x"/>
</g>
<path d="m40.603 375.64h446.02" clip-path="url(#b)" fill="none" stroke="#b0b0b0" stroke-linecap="square" stroke-width=".8"/>
<use x="40.603125" y="375.64" stroke="#000000" stroke-width=".8" xlink:href="#d"/>
<g transform="translate(27.241 379.44) scale(.1 -.1)">
<use xlink:href="#f"/>
</g>
<path d="m40.603 328.36h446.02" clip-path="url(#b)" fill="none" stroke="#b0b0b0" stroke-linecap="square" stroke-width=".8"/>
<use x="40.603125" y="328.364202" stroke="#000000" stroke-width=".8" xlink:href="#d"/>
<g transform="translate(27.241 332.16) scale(.1 -.1)">
<use xlink:href="#v"/>
</g>
<path d="m40.603 281.09h446.02" clip-path="url(#b)" fill="none" stroke="#b0b0b0" stroke-linecap="square" stroke-width=".8"/>
<use x="40.603125" y="281.088405" stroke="#000000" stroke-width=".8" xlink:href="#d"/>
<defs>
<path id="av" d="m31.781 34.625q-7.0312 0-11.062-3.7656-4.0156-3.7656-4.0156-10.344 0-6.5938 4.0156-10.359 4.0312-3.7656 11.062-3.7656t11.078 3.7812q4.0625 3.7969 4.0625 10.344 0 6.5781-4.0312 10.344-4.0156 3.7656-11.109 3.7656zm-9.8594 4.1875q-6.3438 1.5625-9.8906 5.9062-3.5312 4.3594-3.5312 10.609 0 8.7344 6.2188 13.812 6.2344 5.0781 17.062 5.0781 10.891 0 17.094-5.0781t6.2031-13.812q0-6.25-3.5469-10.609-3.5312-4.3438-9.8281-5.9062 7.125-1.6562 11.094-6.5 3.9844-4.8281 3.9844-11.797 0-10.609-6.4688-16.281-6.4688-5.6562-18.531-5.6562-12.047 0-18.531 5.6562-6.4688 5.6719-6.4688 16.281 0 6.9688 4 11.797 4.0156 4.8438 11.141 6.5zm-3.6094 15.578q0-5.6562 3.5312-8.8281 3.5469-3.1719 9.9375-3.1719 6.3594 0 9.9375 3.1719 3.5938 3.1719 3.5938 8.8281 0 5.6719-3.5938 8.8438-3.5781 3.1719-9.9375 3.1719-6.3906 0-9.9375-3.1719-3.5312-3.1719-3.5312-8.8438z"/>
</defs>
<g transform="translate(27.241 284.89) scale(.1 -.1)">
<use xlink:href="#av"/>
</g>
<path d="m40.603 233.81h446.02" clip-path="url(#b)" fill="none" stroke="#b0b0b0" stroke-linecap="square" stroke-width=".8"/>
<use x="40.603125" y="233.812607" stroke="#000000" stroke-width=".8" xlink:href="#d"/>
<g transform="translate(20.878 237.61) scale(.1 -.1)">
<use xlink:href="#g"/>
<use x="63.623047" xlink:href="#w"/>
</g>
<path d="m40.603 186.54h446.02" clip-path="url(#b)" fill="none" stroke="#b0b0b0" stroke-linecap="square" stroke-width=".8"/>
<use x="40.603125" y="186.536809" stroke="#000000" stroke-width=".8" xlink:href="#d"/>
<g transform="translate(20.878 190.34) scale(.1 -.1)">
<use xlink:href="#g"/>
<use x="63.623047" xlink:href="#t"/>
</g>
<defs>
<path id="ar" d="m9.8125 72.906h41.891v-8.3125h-32.031v-21.484h28.906v-8.2969h-28.906v-34.812h-9.8594z"/>
<path id="ao" d="m44.391 34.188q3.1719-1.0781 6.1719-4.5938t6.0312-9.6719l10.016-19.922h-10.609l-9.3125 18.703q-3.625 7.3281-7.0156 9.7188t-9.25 2.3906h-10.75v-30.812h-9.8594v72.906h22.266q12.5 0 18.656-5.2344 6.1562-5.2188 6.1562-15.766 0-6.8906-3.2031-11.438-3.2031-4.5312-9.2969-6.2812zm-24.719 30.609v-25.875h12.406q7.125 0 10.766 3.2969t3.6406 9.6875-3.6406 9.6406-10.766 3.25z"/>
<path id="ax" d="m72.703 32.078q-4.25 0-6.6719-3.6094-2.4062-3.6094-2.4062-10.062 0-6.3438 2.4062-9.9844 2.4219-3.6406 6.6719-3.6406 4.1562 0 6.5625 3.6406 2.4219 3.6406 2.4219 9.9844 0 6.4062-2.4219 10.031-2.4062 3.6406-6.5625 3.6406zm0 6.2031q7.7188 0 12.25-5.375 4.5469-5.3594 4.5469-14.5 0-9.125-4.5625-14.484-4.5625-5.3438-12.234-5.3438-7.8125 0-12.359 5.3438-4.5312 5.3594-4.5312 14.484 0 9.1875 4.5625 14.531t12.328 5.3438zm-50.391 29.734q-4.2031 0-6.625-3.6406-2.4062-3.625-2.4062-9.9844 0-6.4375 2.3906-10.062 2.3906-3.6094 6.6406-3.6094t6.6562 3.6094q2.4219 3.625 2.4219 10.062 0 6.2969-2.4375 9.9531-2.4375 3.6719-6.6406 3.6719zm44.094 6.2031h7.8125l-45.609-75.641h-7.8125zm-44.094 0q7.7188 0 12.297-5.3438 4.5938-5.3438 4.5938-14.484 0-9.2188-4.5625-14.547t-12.328-5.3281-12.281 5.3438q-4.5156 5.3594-4.5156 14.531 0 9.0938 4.5312 14.453 4.5469 5.375 12.266 5.375z"/>
</defs>
<g transform="translate(14.798 334.34) rotate(-90) scale(.1 -.1)">
<use xlink:href="#ar"/>
<use x="57.378906" xlink:href="#k"/>
<use x="118.658203" xlink:href="#l"/>
<use x="146.441406" xlink:href="#r"/>
<use x="174.224609" xlink:href="#z"/>
<use x="237.603516" xlink:href="#i"/>
<use x="278.685547" xlink:href="#e"/>
<use x="340.208984" xlink:href="#DejaVuSans-20"/>
<use x="371.996094" xlink:href="#ao"/>
<use x="441.447266" xlink:href="#k"/>
<use x="502.726562" xlink:href="#q"/>
<use x="541.935547" xlink:href="#e"/>
<use x="603.458984" xlink:href="#DejaVuSans-20"/>
<use x="635.246094" xlink:href="#y"/>
<use x="674.259766" xlink:href="#ax"/>
<use x="769.279297" xlink:href="#ad"/>
<use x="802.970703" xlink:href="#p"/>
<use x="862.150391" xlink:href="#e"/>
<use x="923.673828" xlink:href="#k"/>
<use x="984.953125" xlink:href="#i"/>
<use x="1026.066406" xlink:href="#x"/>
</g>
<path d="m45.434 96.386 0.42985 36.846 0.64478 38.754 0.42985 17.063 0.42985 9.301 0.21493 1.5465 0.64478 1.3935 0.21493 0.33903 0.21492 0.61499 0.42985 2.3032 0.64478 5.6072 0.8597 10.548 1.0746 16.678 3.8687 64.003 0.8597 9.8649 0.64478 5.2385 0.42985 2.2589 0.42985 1.1476 0.42985 0.18528 1.5045 0.44758 2.5791 1.1374 3.4388 1.7648 3.009 1.4845 2.1493 0.56675 3.4388 0.74676 2.794 0.28321 1.9343 0.15253 0.42985 0.33505 0.64478 0.91476 0.64478 1.3292 0.8597 2.2639 1.2896 4.1397 3.009 10.044 0.8597 2.2047 0.64478 1.1887 0.64478 0.71194 0.64478 0.2464 5.1582 1.6271 1.9343 0.60223 2.5791 0.68893 6.0179 1.9882 0.42985 0.20786 0.42985 0.44864 3.009 4.7696 1.5045 3.7248 1.2896 2.8489 0.8597 1.3389 1.0746 1.2047 2.3642 2.1837 1.5045 0.86027 1.5045 0.55618 1.9343 0.5352 3.2239 0.58238 4.5134 0.44063 4.7284 0.18418 2.794-0.014445 1.0746-0.29115 1.2896-0.60139 2.1493-1.3107 2.1493-1.2277 1.2896-0.47273 0.8597-0.25987 0.64478-0.41102 0.8597-0.90119 1.9343-2.3945 0.8597-0.68801 0.8597-0.41938 0.8597-0.13986 0.8597 0.1505 0.8597 0.45176 0.8597 0.76394 1.5045 1.5785 0.64478 0.30773 0.64478 0.022196 0.8597-0.33316 1.9343-0.99284 1.0746-0.8576 2.3642-2.0622 0.64478-0.19535 0.64478 0.075419 0.8597 0.3029 0.8597 0.4927 0.8597 0.77525 2.3642 2.341 0.64478 0.11366 0.64478-0.19662 1.2896-0.82877 1.0746-0.644 1.2896-0.51564 0.8597-0.11472 0.64478 0.13084 0.8597 0.3815 0.8597 0.67974 1.0746 1.2571 1.0746 1.1119 0.8597 0.594 1.7194 0.86916 1.2896 0.42165 7.7373 1.8707 1.5045 0.090732 6.6627-0.014726 0.42985-0.61786 1.2896-2.0215 1.0746-1.3379 1.0746-0.98321 0.8597-0.48202 0.8597-0.21174 1.0746 0.063212 1.2896 0.25755 1.2896 0.35562 0.42985-0.085238 0.64478-0.78813 0.8597-0.82695 0.64478-0.32669 0.64478-0.11 0.64478 0.092172 0.64478 0.28003 0.8597 0.64402 0.8597 0.9383 2.1493 2.7076 0.42985 0.1775 0.21493-0.039781 0.8597-1.3219 1.2896-2.2448 1.0746-1.3869 0.64478-0.55587 0.64478-0.29478 0.64478-0.038979 0.64478 0.20728 0.64478 0.46246 0.64478 0.71601 0.8597 1.346 1.7194 3.2148 1.9343 0.72121 1.2896 0.26429 3.6537 0.34133 0.64478-0.2393 1.0746-0.80892 1.7194-1.1883 1.2896-0.62473 1.0746-0.27648 0.8597 0.059487 0.8597 0.32122 0.8597 0.5757 0.8597 0.82291 0.8597 0.83814 0.64478 0.39093 2.1493 0.80134 1.2896 0.27637 1.2896 0.049854 0.64478-9.2e-5 0.42985-0.37964 1.5045-2.0197 1.2896-2.0424 0.8597-1.6755 0.42985-1.1739 1.5045-4.7985 1.0746-2.6876 0.64478-1.0276 0.42985-0.38454 0.42985-0.1362 0.42985 0.11891 0.42985 0.3875 0.64478 0.73639 0.64478 0.79054 0.64478 1.1456 0.8597 2.0371 2.1493 5.5325 1.0746 1.4014 0.8597 0.78003 1.5045 0.8191 1.0746 0.36447 0.8597-0.033454 0.8597-0.3037 0.21493-0.2444 0.64478-1.7023 3.2239-9.8291 0.64478-1.7513 0.64478-1.1133 0.42985-0.38752 0.42985-0.10382 0.42985 0.17994 0.42985 0.46376 0.42985 0.74762 0.64478 1.5946 0.8597 2.8153 1.0746 4.0014 0.8597 1.6892 1.5045 2.1969 0.21492 0.27958 0.42985-0.03849 0.42985-0.24667 0.8597-0.93782 1.7194-1.9989 0.8597-0.63076 0.8597-0.32072 0.21493-0.097415 0.8597-0.87892 0.64478-0.35436 0.8597-0.43411 0.64478-0.71016 0.64478-0.39395 0.64478-0.078222 0.64478 0.21313 0.8597 0.64118 1.0746 1.0769 0.8597 1.2334 0.8597 1.6249 1.5045 3.043 0.64478 0.77076 0.64478 0.38963 0.21493-0.001726 0.21493-0.12837 0.42985-0.85258 1.9343-4.3507 0.8597-1.3157 0.8597-0.86962 0.64478-0.35299 1.2896-0.43055 0.42985 0.027982 0.42985 0.18723 0.64478 0.58758 0.64478 0.96686 1.0746 1.8312 0.21493-0.014399 0.42985-0.41192 0.64478-1.078 1.2896-2.4032 0.8597-1.0903 0.64478-0.48606 0.42985-0.24666 2.3642-3.3676 1.5045-1.4111 1.5045-4.483 0.8597-3.057 0.64478-1.4925 0.42985-0.6035 0.42985-0.23512 0.42985 0.15026 0.42985 0.52351 0.42985 0.89188 2.1493 5.7996 0.64478 0.75612 0.64478 1.2929 1.0746 2.5962 1.0746 0.6221 0.64478-0.51269 0.42985-0.12938 0.42985 0.041073 0.64478 0.3684 0.64478 0.7218 0.64478 1.0731 0.8597 1.9348 0.8597 2.4951 1.0746 3.1712 0.42985 0.22222 0.64478 0.13135 0.42985-0.077797 0.64478-0.38768 2.1493-1.5821 1.0746-0.58112 1.2896-0.44217 1.0746-0.14222 1.0746 0.087752 0.21493 0.04645 0.42985-0.48058 0.8597-1.1927 0.64478-0.54452 1.2896-0.7707 0.64478-0.1669 0.8597 0.049989 0.8597 0.31532 0.8597 0.60414 0.8597 0.88415 1.0746 1.4792 1.5045 2.3292 0.21493-0.068267 0.42985-0.5914 0.8597-1.4642 0.64478-0.72058 0.64478-0.41355 0.64478-0.12156 0.64478 0.15218 0.64478 0.38038 0.8597 0.81727 0.8597 1.127 1.0746 1.7523 1.5045 2.9501 0.64478 1.2366 0.42985 0.52048 0.42985 0.083482 5.1582-0.12696 2.1493-0.39721 3.8687-0.96766 0.8597-0.5045 1.0746-0.87171 1.0746-1.143 0.8597-1.1351 1.7194-2.4706 0.8597-0.76158 0.64478-0.32229 0.64478-0.10055 0.64478 0.12058 0.64478-1.2125 0.64478-0.81619 0.64478-0.49247 0.64478-0.18309 0.64478 0.074089 0.8597 0.373 1.7194 1.242 0.64478 0.58408 1.0746 1.1106 0.42985 0.20739 0.64478 0.63903 0.64478 1.0347 0.42985 0.90022 0.8597-0.73807 0.8597-0.49676 0.8597-0.24659 0.64478 3.83e-4 0.64478 0.18788 0.8597 0.52426 0.8597 0.865 0.8597 1.2154 0.8597 1.4902 1.7194 0.15324 2.5791 0.50897 2.794 0.51691 1.7194 0.092673 4.0836-0.078618 0.42985-0.29127 0.64478-0.79171 0.8597-1.553 1.2896-2.8762 0.42985-1.275 1.0746-4.1554 1.0746-3.3423 0.8597-1.9867 1.7194-3.6184 0.64478-1.4635 0.42985-0.52653 0.64478-0.40367 0.42985-0.082261 0.42985 0.075057 0.42985 0.2548 0.64478 0.76001 0.64478 1.1785 0.21493-0.025828 0.21492-0.16013 0.21493-0.4762 0.42985-1.943 1.0746-5.903 0.8597-3.4708 0.42985-1.04 0.42985-0.55648 0.42985-0.31058 1.2896-0.46356 0.21492 0.047521 0.42985 0.49716 0.42985 0.97354 0.64478 2.3591 0.64478 3.3944 0.8597 6.0765 1.5045 12.127 0.42985 1.8037 0.64478 1.0757 0.64478 0.59665 0.42985 0.092884 3.4388-0.38241 0.21492-0.28984 0.64478-1.7753 1.9343-5.3217 1.2896-2.9951 0.8597-1.4174 0.64478-0.68627 0.64478-0.32301 0.42985 0.003005 0.42985 0.18808 0.64478 0.6239 0.64478 1.0687 0.64478 1.4952 0.8597 2.4406 0.21493 0.23401 1.0746 0.21526 1.0746-0.095569 0.64478-0.2775 0.21492-0.13333 0.21493-0.27613 0.42985-1.7795 0.8597-3.5885 0.8597-2.6226 0.64478-1.528 0.64478-1.033 0.42985-0.38237 0.42985-0.097388 0.42985 0.14942 0.42985 0.50173 0.64478 1.3182 0.64478 1.9936 0.64478 2.7107 0.64478 3.555 0.8597 6.0981 1.2896 10.54h0.42985v0" clip-path="url(#b)" fill="none" stroke="#d2691e" stroke-linecap="square" stroke-width="1.5"/>
<path d="m40.603 375.64v-189.1" fill="none" stroke="#000" stroke-linecap="square" stroke-width=".8"/>
<path d="m486.62 375.64v-189.1" fill="none" stroke="#000" stroke-linecap="square" stroke-width=".8"/>
<path d="m40.603 375.64h446.02" fill="none" stroke="#000" stroke-linecap="square" stroke-width=".8"/>
<path d="m40.603 186.54h446.02" fill="none" stroke="#000" stroke-linecap="square" stroke-width=".8"/>
<defs>
<path id="ap" d="m9.8125 72.906h14.703l18.594-49.609 18.703 49.609h14.703v-72.906h-9.625v64.016l-18.797-50h-9.9062l-18.797 50v-64.016h-9.5781z"/>
<path id="au" d="m11.719 12.406h10.297v-12.406h-10.297zm0 39.297h10.297v-12.391h-10.297z"/>
<path id="ac" d="m9.8125 72.906h9.8594v-29.891h35.844v29.891h9.8594v-72.906h-9.8594v34.719h-35.844v-34.719h-9.8594z"/>
<path id="al" d="m48.781 52.594v-8.4062q-3.8125 2.1094-7.6406 3.1562t-7.7344 1.0469q-8.75 0-13.594-5.5469-4.8281-5.5312-4.8281-15.547t4.8281-15.562q4.8438-5.5312 13.594-5.5312 3.9062 0 7.7344 1.0469t7.6406 3.1562v-8.3125q-3.7656-1.75-7.7969-2.625-4.0156-0.89062-8.5625-0.89062-12.359 0-19.641 7.7656-7.2656 7.7656-7.2656 20.953 0 13.375 7.3438 21.031 7.3594 7.6719 20.156 7.6719 4.1406 0 8.0938-0.85938 3.9531-0.84375 7.6719-2.5469z"/>
<path id="aj" d="m54.891 33.016v-33.016h-8.9844v32.719q0 7.7656-3.0312 11.609-3.0312 3.8594-9.0781 3.8594-7.2812 0-11.484-4.6406-4.2031-4.625-4.2031-12.641v-30.906h-9.0312v75.984h9.0312v-29.797q3.2344 4.9375 7.5938 7.375 4.375 2.4375 10.094 2.4375 9.4219 0 14.25-5.8281 4.8438-5.8281 4.8438-17.156z"/>
<path id="as" d="m19.672 64.797v-56.688h11.922q15.094 0 22.094 6.8281 7 6.8438 7 21.594 0 14.641-7 21.453t-22.094 6.8125zm-9.8594 8.1094h20.266q21.188 0 31.094-8.8125 9.9219-8.8125 9.9219-27.562 0-18.859-9.9688-27.703-9.9531-8.8281-31.047-8.8281h-20.266z"/>
<path id="an" d="m53.516 70.516v-9.625q-5.6094 2.6875-10.594 4-4.9844 1.3281-9.625 1.3281-8.0469 0-12.422-3.125t-4.375-8.8906q0-4.8438 2.9062-7.3125 2.9062-2.4531 11.016-3.9688l5.9531-1.2188q11.031-2.1094 16.281-7.4062t5.25-14.172q0-10.609-7.1094-16.078-7.0938-5.4688-20.812-5.4688-5.1719 0-11.016 1.1719-5.8281 1.1719-12.078 3.4688v10.156q6-3.3594 11.766-5.0781 5.7656-1.7031 11.328-1.7031 8.4375 0 13.031 3.3125 4.5938 3.3281 4.5938 9.4844 0 5.3594-3.2969 8.3906t-10.812 4.5469l-6.0156 1.1719q-11.031 2.1875-15.969 6.875-4.9219 4.6875-4.9219 13.047 0 9.6719 6.8125 15.234t18.766 5.5625q5.1406 0 10.453-0.9375 5.3281-0.92188 10.891-2.7656z"/>
<path id="at" d="m64.406 67.281v-10.391q-4.9844 4.6406-10.625 6.9219-5.6406 2.2969-11.984 2.2969-12.5 0-19.141-7.6406t-6.6406-22.094q0-14.406 6.6406-22.047t19.141-7.6406q6.3438 0 11.984 2.2969t10.625 6.9375v-10.312q-5.1719-3.5156-10.969-5.2812-5.7812-1.75-12.219-1.75-16.562 0-26.094 10.125-9.5156 10.141-9.5156 27.672 0 17.578 9.5156 27.703 9.5312 10.141 26.094 10.141 6.5312 0 12.312-1.7344 5.7969-1.7344 10.875-5.2031z"/>
<path id="aq" d="m9.8125 72.906h9.8594v-64.609h35.5v-8.2969h-45.359z"/>
</defs>
<g transform="translate(143.89 16.318) scale(.12 -.12)">
<use xlink:href="#ap"/>
<use x="86.279297" xlink:href="#m"/>
<use x="147.460938" xlink:href="#o"/>
<use x="210.9375" xlink:href="#e"/>
<use x="272.460938" xlink:href="#r"/>
<use x="300.244141" xlink:href="#au"/>
<use x="333.935547" xlink:href="#DejaVuSans-20"/>
<use x="365.722656" xlink:href="#ac"/>
<use x="440.917969" xlink:href="#l"/>
<use x="468.701172" xlink:href="#q"/>
<use x="507.910156" xlink:href="#k"/>
<use x="569.189453" xlink:href="#al"/>
<use x="624.169922" xlink:href="#aj"/>
<use x="687.548828" xlink:href="#l"/>
<use x="715.332031" xlink:href="#DejaVuSans-20"/>
<use x="747.119141" xlink:href="#ac"/>
<use x="822.314453" xlink:href="#as"/>
<use x="899.316406" xlink:href="#an"/>
<use x="962.792969" xlink:href="#u"/>
<use x="1026.416016" xlink:href="#at"/>
<use x="1096.240234" xlink:href="#n"/>
<use x="1159.863281" xlink:href="#f"/>
<use x="1223.486328" xlink:href="#n"/>
<use x="1287.109375" xlink:href="#f"/>
<use x="1350.732422" xlink:href="#s"/>
<use x="1419.140625" xlink:href="#aq"/>
<use x="1474.884766" xlink:href="#s"/>
<use x="1543.292969" xlink:href="#t"/>
<use x="1606.916016" xlink:href="#n"/>
<use x="1670.539062" xlink:href="#f"/>
</g>
<defs>
<clipPath id="h">
<rect x="40.603" y="28.8" width="446.02" height="141.83"/>
</clipPath>
<clipPath id="b">
<rect x="40.603" y="186.54" width="446.02" height="189.1"/>
</clipPath>
</defs>
</svg>
