<?xml version="1.0" encoding="UTF-8"?>
<!DOCTYPE svg  PUBLIC '-//W3C//DTD SVG 1.1//EN'  'http://www.w3.org/Graphics/SVG/1.1/DTD/svg11.dtd'>
<svg width="497pt" height="413pt" version="1.1" viewBox="0 0 497 413" xmlns="http://www.w3.org/2000/svg" xmlns:xlink="http://www.w3.org/1999/xlink">
<defs>
<style type="text/css">*{stroke-linecap:butt;stroke-linejoin:round;}</style>
</defs>
<path d="m0 413.2h497.32v-413.2h-497.32z" fill="#fff"/>
<path d="m40.603 170.63h446.02v-141.83h-446.02z" fill="#fff"/>
<defs>
<path id="ae" d="m49.618-235.45v-34.196l0.21711-0.049203 0.21711-0.045367 0.21711-0.045699 0.21711-0.046025 0.21711-0.046315 0.21711-0.046248 0.21711-0.04618 0.21711-0.046113 0.21711-0.046045 0.21711-0.045977 0.21711-0.04591 0.21711-0.045842 0.21711-0.036911 0.21711-0.033701 0.21711-0.033335 0.21711-0.032973 0.21711-0.032612 0.21711-0.032328 0.21711-0.032788 0.21711-0.03346 0.21711-0.034127 0.21711-0.034785 0.21711-0.035438 0.21711-0.039576 0.21711-0.039639 0.21711-0.039703 0.21711-0.039763 0.21711-0.039823 0.21711-0.039882 0.21711-0.03994 0.21711-0.039995 0.21711-0.040051 0.21711-0.040104 0.21711-0.040156 0.21711-0.040759 0.21711-0.04158 0.21711-0.042391 0.21711-0.046733 0.21711-0.046725 0.21711-0.046714 0.21711-0.046705 0.21711-0.046692 0.21711-0.046681 0.21711-0.046647 0.21711-0.0465 0.21711-0.046354 0.21711-0.04621 0.21711-0.046066 0.21711-0.046055 0.21711-0.046261 0.21711-0.046463 0.21711-0.04666 0.21711-0.046856 0.21711-0.047044 0.21711-0.047205 0.21711-0.047362 0.21711-0.047516 0.21711-0.044212 0.21711-0.044323 0.21711-0.045395 0.21711-0.048486 0.21711-0.050287 0.21711-0.050196 0.21711-0.050104 0.21711-0.050013 0.21711-0.049922 0.21711-0.049831 0.21711-0.049741 0.21711-0.047099 0.21711-0.047909 0.21711-0.048709 0.21711-0.049495 0.21711-0.050127 0.21711-0.050278 0.21711-0.050424 0.21711-0.050567 0.21711-0.050706 0.21711-0.050844 0.21711-0.050976 0.21711-0.050398 0.21711-0.049468 0.21711-0.04855 0.21711-0.047644 0.21711-0.046829 0.21711-0.046057 0.21711-0.045294 0.21711-0.044541 0.21711-0.043818 0.21711-0.043349 0.21711-0.042887 0.21711-0.042428 0.21711-0.041974 0.21711-0.041527 0.21711-0.041082 0.21711-0.040644 0.21711-0.040186 0.21711-0.039645 0.21711-0.039108 0.21711-0.038579 0.21711-0.038053 0.21711-0.037533 0.21711-0.036991 0.21711-0.036299 0.21711-0.037011 0.21711-0.037874 0.21711-0.039652 0.21711-0.036664 0.21711-0.036513 0.21711-0.036363 0.21711-0.036215 0.21711-0.036066 0.21711-0.035921 0.21711-0.035775 0.21711-0.03563 0.21711-0.035488 0.21711-0.035345 0.21711-0.035204 0.21711-0.034767 0.21711-0.034283 0.21711-0.033806 0.21711-0.030845 0.21711-0.03093 0.21711-0.031014 0.21711-0.031097 0.21711-0.031187 0.21711-0.031275 0.21711-0.031361 0.21711-0.031448 0.21711-0.031532 0.21711-0.031616 0.21711-0.032252 0.21711-0.032823 0.21711-0.033232 0.21711-0.033638 0.21711-0.034038 0.21711-0.033381 0.21711-0.032453 0.21711-0.031549 0.21711-0.030656 0.21711-0.029769 0.21711-0.02889 0.21711-0.028018 0.21711-0.026596 0.21711-0.023958 0.21711-0.022243 0.21711-0.021905 0.21711-0.021569 0.21711-0.021233 0.21711-0.0209 0.21711-0.02057 0.21711-0.02024 0.21711-0.019768 0.21711-0.019238 0.21711-0.018712 0.21711-0.018187 0.21711-0.017772 0.21711-0.017716 0.21711-0.017658 0.21711-0.017603 0.21711-0.017547 0.21711-0.017491 0.21711-0.017435 0.21711-0.017381 0.21711-0.017325 0.21711-0.017271 0.21711-0.017215 0.21711-0.017162 0.21711-0.017108 0.21711-0.017053 0.21711-0.017 0.21711-0.016946 0.21711-0.016894 0.21711-0.01684 0.21711-0.016787 0.21711-0.016735 0.21711-0.016683 0.21711-0.01663 0.21711-0.016578 0.21711-0.016527 0.21711-0.016475 0.21711-0.016423 0.21711-0.016373 0.21711-0.016321 0.21711-0.016271 0.21711-0.016221 0.21711-0.01617 0.21711-0.014982 0.21711-0.014012 0.21711-0.012415 0.21711-0.012727 0.21711-0.013039 0.21711-0.012414 0.21711-0.0108 0.21711-0.010957 0.21711-0.011114 0.21711-0.011271 0.21711-0.011426 0.21711-0.011581 0.21711-0.011727 0.21711-0.011692 0.21711-0.011582 0.21711-0.011379 0.21711-0.011177 0.21711-0.010977 0.21711-0.010776 0.21711-0.010575 0.21711-0.010376 0.21711-0.010171 0.21711-0.009966 0.21711-0.009761 0.21711-0.009559 0.21711-0.009356 0.21711-0.009396 0.21711-0.009036 0.21711-0.008644 0.21711-0.008255 0.21711-0.007714 0.21711-0.00643 0.21711-0.006073 0.21711-0.005964 0.21711-0.005853 0.21711-0.005744 0.21711-0.00777 0.21711-0.015314 0.21711-0.017662 0.21711-0.018014 0.21711-0.018141 0.21711-0.018267 0.21711-0.018393 0.21711-0.018519 0.21711-0.018643 0.21711-0.018767 0.21711-0.018889 0.21711-0.019012 0.21711-0.019133 0.21711-0.019215 0.21711-0.019252 0.21711-0.019289 0.21711-0.019326 0.21711-0.019362 0.21711-0.019398 0.21711-0.019434 0.21711-0.019469 0.21711-0.019504 0.21711-0.01954 0.21711-0.019574 0.21711-0.019609 0.21711-0.019643 0.21711-0.019677 0.21711-0.01971 0.21711-0.019744 0.21711-0.019777 0.21711-0.01981 0.21711-0.019966 0.21711-0.020206 0.21711-0.020445 0.21711-0.020683 0.21711-0.020918 0.21711-0.021152 0.21711-0.0213 0.21711-0.020925 0.21711-0.02055 0.21711-0.020178 0.21711-0.019808 0.21711-0.01944 0.21711-0.019074 0.21711-0.018711 0.21711-0.020561 0.21711-0.024965 0.21711-0.0252 0.21711-0.025128 0.21711-0.024943 0.21711-0.02476 0.21711-0.024577 0.21711-0.024763 0.21711-0.025773 0.21711-0.025231 0.21711-0.024694 0.21711-0.02416 0.21711-0.02363 0.21711-0.023103 0.21711-0.022587 0.21711-0.022232 0.21711-0.021879 0.21711-0.021529 0.21711-0.021179 0.21711-0.020903 0.21711-0.020817 0.21711-0.020733 0.21711-0.020648 0.21711-0.020564 0.21711-0.020481 0.21711-0.020398 0.21711-0.020316 0.21711-0.020233 0.21711-0.019942 0.21711-0.019588 0.21711-0.019234 0.21711-0.018883 0.21711-0.018663 0.21711-0.01908 0.21711-0.019494 0.21711-0.019906 0.21711-0.020315 0.21711-0.020722 0.21711-0.020461 0.21711-0.015097 0.21711-0.013502 0.21711-0.013488 0.21711-0.013475 0.21711-0.013463 0.21711-0.013448 0.21711-0.013436 0.21711-0.013423 0.21711-0.013409 0.21711-0.013397 0.21711-0.015407 0.21711-0.016027 0.21711-0.016677 0.21711-0.018926 0.21711-0.019327 0.21711-0.019726 0.21711-0.01995 0.21711-0.020011 0.21711-0.02007 0.21711-0.020131 0.21711-0.020189 0.21711-0.020248 0.21711-0.020307 0.21711-0.020365 0.21711-0.020422 0.21711-0.020633 0.21711-0.021067 0.21711-0.021499 0.21711-0.021927 0.21711-0.022354 0.21711-0.022671 0.65132-0.073995 0.43422-0.049359 0.21711-0.024759 0.21711-0.02507 0.21711-0.025349 0.21711-0.025627 0.21711-0.025901 0.21711-0.026173 0.21711-0.026443 0.21711-0.026712 0.21711-0.02511 0.21711-0.021354 0.21711-0.021119 0.21711-0.020887 0.21711-0.020654 0.21711-0.020423 0.21711-0.020194 0.21711-0.020351 0.21711-0.020541 0.21711-0.020729 0.21711-0.022472 0.21711-0.025243 0.21711-0.026197 0.21711-0.026536 0.21711-0.026874 0.21711-0.027209 0.21711-0.027539 0.21711-0.027868 0.21711-0.028343 0.21711-0.030074 0.21711-0.030153 0.21711-0.030232 0.21711-0.03031 0.21711-0.030386 0.43422-0.060928 0.21711-0.030376 0.21711-0.030288 0.21711-0.030199 0.21711-0.030113 0.21711-0.030026 0.21711-0.029939 0.21711-0.029853 0.21711-0.029768 0.21711-0.029684 0.21711-0.029598 0.21711-0.029515 0.21711-0.029432 0.21711-0.028402 0.21711-0.027735 0.21711-0.027595 0.21711-0.027455 0.21711-0.027317 0.21711-0.02718 0.21711-0.027113 0.21711-0.027046 0.21711-0.02698 0.21711-0.026915 0.21711-0.026849 0.21711-0.025131 0.21711-0.024553 0.21711-0.023981 0.21711-0.022135 0.21711-0.021799 0.21711-0.021426 0.21711-0.021196 0.21711-0.021099 0.21711-0.021002 0.21711-0.020906 0.21711-0.020811 0.21711-0.020715 0.21711-0.020621 0.21711-0.020527 0.21711-0.020434 0.21711-0.020215 0.21711-0.019814 0.21711-0.019417 0.21711-0.019069 0.21711-0.018771 0.21711-0.018476 0.21711-0.016758 0.21711-0.016657 0.21711-0.016555 0.21711-0.016454 0.21711-0.016321 0.21711-0.016134 0.43422-0.032244 0.43422-0.032277 0.43422-0.032312 0.43422-0.032343 0.65132-0.048576 0.21711-0.0163 0.21711-0.016423 0.21711-0.016546 0.21711-0.016668 0.21711-0.01679 0.21711-0.016911 0.21711-0.015674 0.21711-0.01353 0.21711-0.01289 0.21711-0.012757 0.21711-0.012623 0.21711-0.012491 0.21711-0.01236 0.21711-0.012228 0.21711-0.011972 0.21711-0.010609 0.21711-0.010492 0.21711-0.010376 0.21711-0.01026 0.21711-0.010224 0.21711-0.010196 0.21711-0.010231 0.21711-0.010343 0.21711-0.010454 0.21711-0.010565 0.21711-0.010677 0.21711-0.010654 0.21711-0.010615 0.21711-0.010576 0.21711-0.010537 0.21711-0.010498 0.21711-0.01046 0.21711-0.010422 0.21711-0.010383 0.21711-0.010344 0.21711-0.010307 0.21711-0.010268 0.21711-0.010231 0.21711-0.010192 0.21711-0.010155 0.21711-0.010055 0.21711-0.009956 0.21711-0.009858 0.21711-0.009759 0.21711-0.009661 0.21711-0.009563 0.21711-0.009465 0.21711-0.009368 0.21711-0.009271 0.21711-0.009174 0.21711-0.009111 0.21711-0.009048 0.21711-0.008986 0.21711-0.008924 0.21711-0.008862 0.21711-0.009341 0.21711-0.010759 0.21711-0.011054 0.21711-0.010638 0.21711-0.010222 0.21711-0.009808 0.21711-0.009529 0.21711-0.009668 0.21711-0.009762 0.21711-0.009813 0.21711-0.009861 0.21711-0.009912 0.21711-0.0111 0.21711-0.010936 0.21711-0.010772 0.21711-0.010638 0.21711-0.010555 0.21711-0.010473 0.21711-0.01039 0.21711-0.010308 0.21711-0.010227 0.21711-0.010145 0.21711-0.010063 0.21711-0.009982 0.21711-0.009902 0.21711-0.00982 0.21711-0.00974 0.21711-0.00966 0.21711-0.009496 0.21711-0.00931 0.21711-0.009124 0.21711-0.008938 0.21711-0.008754 0.21711-0.00857 0.21711-0.008449 0.21711-0.008373 0.21711-0.008296 0.21711-0.00822 0.21711-0.008143 0.21711-0.008068 0.21711-0.007993 0.21711-0.007917 0.21711-0.007841 0.21711-0.007766 0.21711-0.007691 0.21711-0.007617 0.21711-0.007542 0.21711-0.007393 0.21711-0.007238 0.21711-0.007081 0.21711-0.006927 0.21711-0.006772 0.43422-0.015984 0.21711-0.008131 0.21711-0.008281 0.21711-0.008428 0.21711-0.008578 0.21711-0.008726 0.21711-0.008882 0.21711-0.009038 0.21711-0.009192 0.21711-0.009348 0.21711-0.009501 0.21711-0.009656 0.21711-0.01111 0.21711-0.011342 0.21711-0.011573 0.21711-0.011803 0.21711-0.011704 0.21711-0.011174 0.21711-0.010646 0.21711-0.01027 0.21711-0.009937 0.21711-0.009606 0.21711-0.009276 0.21711-0.009065 0.21711-0.009126 0.21711-0.009188 0.21711-0.009249 0.21711-0.00931 0.21711-0.009371 0.21711-0.009432 0.21711-0.008991 0.21711-0.007679 0.21711-0.007409 0.21711-0.007798 0.21711-0.007887 0.21711-0.005827 0.21711-0.005472 0.21711-0.004731 0.21711-0.004017 0.21711-0.003308 0.21711-0.002772 0.21711-0.002666 0.21711-0.001497 0.21711-0.00159 0.21711-0.001682 0.21711-0.001774 0.21711-0.001867 0.21711-0.001958 0.21711-0.002051 0.21711-0.002143 0.21711-0.002265 0.21711-0.002464 0.21711-0.002664 0.21711-0.002864 0.21711-0.003062 0.21711-0.003261 0.21711-0.002127 0.21711-0.002236 0.21711-0.00249 0.21711-0.002741 0.21711-0.002995 0.21711-0.00293 0.21711-0.002632 0.21711-0.002332 0.21711-0.002034 0.21711-0.001736 0.21711 6.02e-4 0.21711 4.61e-4 0.21711 3.22e-4 0.21711 1.82e-4 0.21711 4.2e-5 0.21711-9.7e-5 0.21711-2.37e-4 0.21711-3.67e-4 0.21711-4.9e-4 0.21711-6.15e-4 0.21711-7.4e-4 0.21711-8.64e-4 0.21711-9.88e-4 0.21711-0.001112 0.21711-0.001237 0.21711-0.002136 0.21711-0.001924 0.21711-0.002866 0.21711-0.003806 0.21711-0.006738 0.21711-0.006712 0.21711-0.006687 0.21711-0.006659 0.21711-0.006625 0.21711-0.006591 0.21711-0.006557 0.21711-0.006525 0.21711-0.006498 0.21711-0.006471 0.21711-0.005192 0.21711-0.005088 0.21711-0.004985 0.21711-0.004881 0.21711-0.005115 0.21711-0.005843 0.21711-0.006568 0.21711-0.007146 0.21711-0.007682 0.21711-0.009386 0.21711-0.00987 0.21711-0.01024 0.21711-0.010343 0.21711-0.010449 0.21711-0.010585 0.21711-0.010805 0.21711-0.011026 0.21711-0.011245 0.21711-0.011463 0.21711-0.011681 0.21711-0.011898 0.21711-0.012087 0.21711-0.012443 0.21711-0.01487 0.21711-0.015528 0.21711-0.016182 0.21711-0.01681 0.21711-0.01743 0.21711-0.018287 0.21711-0.01877 0.21711-0.019054 0.21711-0.019336 0.21711-0.019615 0.21711-0.019894 0.21711-0.020171 0.21711-0.019057 0.21711-0.019089 0.21711-0.019183 0.21711-0.019247 0.21711-0.019238 0.21711-0.019446 0.21711-0.021257 0.21711-0.021187 0.21711-0.021119 0.21711-0.022291 0.21711-0.022302 0.21711-0.022179 0.21711-0.022063 0.21711-0.022007 0.21711-0.022242 0.21711-0.022694 0.21711-0.023141 0.21711-0.023813 0.21711-0.024616 0.21711-0.024683 0.21711-0.023139 0.21711-0.022843 0.21711-0.02255 0.21711-0.022257 0.21711-0.021968 0.21711-0.021679 0.21711-0.021402 0.21711-0.02113 0.21711-0.020861 0.21711-0.020593 0.21711-0.020325 0.21711-0.020061 0.21711-0.019243 0.21711-0.022343 0.21711-0.022228 0.21711-0.021932 0.21711-0.025443 0.21711-0.024518 0.21711-0.021849 0.21711-0.021789 0.21711-0.021727 0.21711-0.021668 0.21711-0.021608 0.21711-0.021547 0.21711-0.02227 0.21711-0.021971 0.21711-0.021421 0.21711-0.020875 0.21711-0.024042 0.21711-0.024271 0.21711-0.026001 0.21711-0.025563 0.21711-0.025183 0.21711-0.025121 0.21711-0.02506 0.21711-0.024999 0.21711-0.024964 0.21711-0.02403 0.21711-0.024135 0.21711-0.024239 0.21711-0.024342 0.21711-0.024444 0.21711-0.067158 0.21711-0.066966 0.21711-0.068689 0.21711-0.068725 0.21711-0.068756 0.21711-0.069151 0.21711-0.067709 0.21711-0.067252 0.21711-0.066895 0.21711-0.066544 0.43422-0.1324 0.21711-0.064947 0.21711-0.063611 0.21711-0.062888 0.21711-0.06214 0.21711-0.061559 0.21711-0.060983 0.21711-0.060418 0.21711-0.05986 0.21711-0.059875 0.21711-0.064257 0.21711-0.063895 0.21711-0.063491 0.21711-0.06309 0.21711-0.062696 0.21711-0.061368 0.21711-0.060488 0.21711-0.064216 0.21711-0.064235 0.21711-0.064254 0.21711-0.08988 0.21711-0.089164 0.21711-0.088456 0.21711-0.087717 0.21711-0.12151 0.21711-0.12007 0.21711-0.11867 0.21711-0.11714 0.21711-0.11556 0.21711-0.11576 0.21711-0.11551 0.21711-0.11444 0.21711-0.11338 0.21711-0.11235 0.21711-0.14418 0.21711-0.29759 0.21711-0.2911 0.21711-0.28492 0.21711-0.27902 0.21711-0.27338 0.21711-0.26799 0.21711-0.27811 0.21711-0.27311 0.21711-0.2687 0.21711-0.27915 0.21711-0.27064 0.21711-0.26174 0.21711-0.25526 0.21711-0.25536 0.21711-0.27679 0.21711-0.33973 0.21711-0.36559 0.21711-0.35318 0.21711-0.34236 0.21711-0.33105 0.21711-0.32083 0.21711-0.31131 0.21711-0.30235 0.21711-0.32369 0.21711-0.31348 0.21711-0.30414 0.21711-0.29554 0.21711-0.2874 0.21711-0.27958 0.21711-0.2858 0.21711-0.28976 0.21711-0.29382 0.21711-0.28709 0.21711-0.31447 0.21711-0.30605 0.21711-0.3072 0.21711-0.29893 0.21711-0.28072 0.21711-0.30264 0.21711-0.29336 0.21711-0.28496 0.21711-0.27704 0.21711-0.30608 0.21711-0.29747 0.21711-0.29056 0.21711-0.28401 0.21711-0.27829 0.21711-0.27432 0.21711-0.28946 0.21711-0.28172 0.21711-0.27429 0.21711-0.26707 0.21711-0.2754 0.21711-0.27348 0.21711-0.26631 0.21711-0.25951 0.21711-0.25711 0.21711-0.25331 0.21711-0.2466 0.21711-0.24079 0.21711-0.24027 0.21711-0.23544 0.21711-0.23067 0.21711-0.23106 0.21711-0.23342 0.21711-0.23629 0.21711-0.23898 0.21711-0.24759 0.21711-0.23853 0.21711-0.23758 0.21711-0.23225 0.21711-0.22716 0.21711-0.22241 0.21711-0.22105 0.21711-0.2162 0.21711-0.2117 0.21711-0.20739 0.21711-0.20326 0.21711-0.19928 0.21711-0.19545 0.21711-0.19177 0.21711-0.18859 0.21711-0.18223 0.21711-0.16831 0.21711-0.16691 0.21711-0.16805 0.21711-0.16523 0.21711-0.16249 0.21711-0.15985 0.21711-0.15542 0.21711-0.16181 0.21711-0.15891 0.21711-0.15427 0.21711-0.15211 0.21711-0.14979 0.21711-0.14754 0.21711-0.14458 0.21711-0.13884 0.21711-0.12738 0.21711-0.12065 0.21711-0.11914 0.21711-0.11758 0.21711-0.11629 0.21711-0.11503 0.21711-0.1138 0.21711-0.11259 0.21711-0.11204 0.21711-0.11268 0.21711-0.11408 0.21711-0.11318 0.21711-0.11237 0.21711-0.1125 0.21711-0.10889 0.21711-0.10566 0.21711-0.10229 0.21711-0.10097 0.21711-0.093125 0.21711-0.092067 0.21711-0.089184 0.21711-0.088245 0.21711-0.087409 0.21711-0.080349 0.21711-0.079773 0.21711-0.084539 0.21711-0.089339 0.21711-0.080123 0.21711-0.079826 0.21711-0.079188 0.21711-0.078555 0.21711-0.078355 0.21711-0.07688 0.21711-0.070411 0.21711-0.069912 0.21711-0.069451 0.21711-0.069001 0.21711-0.066201 0.21711-0.064223 0.21711-0.063828 0.21711-0.063438 0.21711-0.061797 0.21711-0.060574 0.21711-0.062249 0.21711-0.063623 0.21711-0.061584 0.21711-0.060992 0.21711-0.060455 0.21711-0.05823 0.21711-0.055215 0.21711-0.051807 0.21711-0.048579 0.21711-0.043173 0.21711-0.043093 0.21711-0.045946 0.21711-0.045675 0.21711-0.046898 0.21711-0.048183 0.21711-0.046599 0.21711-0.046533 0.21711-0.047035 0.21711-0.046835 0.21711-0.046638 0.21711-0.046442 0.21711-0.046328 0.21711-0.046152 0.21711-0.045801 0.21711-0.04525 0.21711-0.044537 0.21711-0.04612 0.21711-0.04546 0.21711-0.046814 0.21711-0.046588 0.21711-0.046363 0.21711-0.046141 0.21711-0.041266 0.21711-0.041052 0.21711-0.040905 0.21711-0.040761 0.21711-0.040667 0.21711-0.04058 0.21711-0.04173 0.21711-0.041596 0.21711-0.042883 0.21711-0.042713 0.21711-0.042574 0.21711-0.04242 0.21711-0.042209 0.21711-0.042008 0.21711-0.042222 0.21711-0.043068 0.21711-0.039528 0.21711-0.038353 0.21711-0.036622 0.21711-0.03737 0.21711-0.038646 0.21711-0.037634 0.21711-0.037436 0.21711-0.037248 0.21711-0.037125 0.21711-0.036996 0.21711-0.03689 0.21711-0.036777 0.21711-0.036647 0.21711-0.036518 0.21711-0.036782 0.21711-0.037667 0.21711-0.037501 0.21711-0.033777 0.21711-0.029982 0.21711-0.029841 0.21711-0.029512 0.21711-0.029123 0.21711-0.028809 0.21711-0.028115 0.21711-0.028043 0.21711-0.02797 0.21711-0.027898 0.21711-0.027826 0.21711-0.027754 0.21711-0.026286 0.21711-0.026252 0.21711-0.02622 0.21711-0.026188 0.21711-0.026154 0.21711-0.026679 0.21711-0.025205 0.21711-0.024184 0.21711-0.024153 0.21711-0.024104 0.21711-0.024289 0.21711-0.02508 0.21711-0.025697 0.21711-0.025644 0.21711-0.026141 0.21711-0.026156 0.21711-0.026551 0.21711-0.023523 0.21711-0.023959 0.21711-0.022809 0.21711-0.020267 0.21711-0.020155 0.21711-0.020079 0.21711-0.019489 0.21711-0.019775 0.21711-0.020533 0.21711-0.020473 0.21711-0.020354 0.21711-0.020284 0.21711-0.02022 0.21711-0.020157 0.21711-0.017948 0.21711-0.015985 0.21711-0.014763 0.21711-0.013495 0.21711-0.01345 0.21711-0.013404 0.21711-0.01336 0.21711-0.013314 0.21711-0.01327 0.21711-0.013239 0.21711-0.014258 0.21711-0.015534 0.21711-0.015476 0.21711-0.014409 0.21711-0.014349 0.21711-0.013142 0.21711-0.013114 0.21711-0.013091 0.21711-0.013067 0.21711-0.013004 0.21711-0.014218 0.21711-0.013853 0.21711-0.012964 0.21711-0.012878 0.21711-0.01279 0.21711-0.012699 0.21711-0.01175 0.21711-0.010347 0.21711-0.010366 0.21711-0.010391 0.21711-0.011551 0.21711-0.011532 0.21711-0.011519 0.21711-0.012658 0.21711-0.012629 0.21711-0.012615 0.21711-0.012601 0.21711-0.012247 0.21711-0.011342 0.21711-0.011324 0.43422-0.022597 0.21711-0.012329 0.21711-0.012276 0.21711-0.012314 0.21711-0.012292 0.21711-0.01227 0.21711-0.012247 0.21711-0.012226 0.21711-0.012203 0.21711-0.012182 0.21711-0.012157 0.21711-0.012133 0.21711-0.01209 0.21711-0.012045 0.21711-0.011999 0.21711-0.011952 0.21711-0.011433 0.21711-0.011363 0.21711-0.011076 0.21711-0.011022 0.21711-0.010996 0.21711-0.010761 0.21711-0.009989 0.21711-0.009369 0.21711-0.00934 0.21711-0.008821 0.21711-0.008653 0.21711-0.008124 0.21711-0.007575 0.21711-0.00715 0.21711-0.007148 0.21711-0.007145 0.21711-0.007163 0.43422-0.01428 0.21711-0.006832 1.3026-0.036595 0.21711-0.006094 0.21711-0.006071 0.21711-0.006068 0.21711-0.006065 0.21711-0.006062 0.21711-0.006056 0.21711-0.006047 0.21711-0.006038 0.21711-0.006032 0.21711-0.006017 0.21711-0.005035 0.65132-0.011465 0.21711-0.003845 0.21711-0.003869 0.65132-0.011661 0.21711-0.003936 0.21711-0.002766 0.21711-0.002747 1.0855-0.013702 0.21711-0.002717 0.21711-0.002693 0.21711-0.002671 0.65132-0.004746 0.43422-9.82e-4 0.86843-0.001898 0.21711-4.53e-4 0.21711-4.72e-4 0.21711-4.52e-4 0.21711 5.34e-4 1.0855 0.002467 0.21711 5.1e-4 0.21711 5.21e-4 0.43422 0.001061 0.65132 0.001597 0.21711 5.35e-4 0.21711 5.43e-4 0.21711 5.45e-4 0.21711 5.48e-4 0.21711 5.55e-4 0.21711 5.82e-4 0.21711 5.86e-4 0.21711 5.88e-4 0.21711 5.91e-4 1.3026 0.003853 0.21711 6.69e-4 0.21711 6.73e-4 0.21711 6.75e-4 0.21711 6.9e-4 1.0855 0.003596 0.21711 7.21e-4 0.21711 7.46e-4 0.21711 7.53e-4 0.21711 7.61e-4 0.21711 7.91e-4 0.21711 7.98e-4 0.21711 8.03e-4 0.21711 8.21e-4 0.21711 8.61e-4 0.21711 8.75e-4 0.21711 8.88e-4 0.21711 8.96e-4 0.21711 9.05e-4 0.21711 9.79e-4 0.21711 0.001027 0.21711 0.001038 0.21711 0.001041 0.21711 0.001043 0.21711 0.001046 0.21711 0.001048 0.21711 0.001051 0.21711 0.001074 0.21711 0.001095 0.21711 0.001103 0.21711 0.001088 0.43422 0.00214 0.21711 0.001084 0.21711 0.001092 0.21711 0.001098 0.43422 0.002236 1.5198 0.007867 0.43422 0.002204 0.21711 0.001108 0.21711 0.001114 0.21711 0.001097 0.21711 0.001138 0.21711 0.001184 0.21711 0.001199 0.21711 0.001203 0.21711 0.001206 0.21711 0.00121 0.21711 0.001213 0.21711 0.001231 0.21711 0.001218 1.0855 0.005976 0.43422 0.002361 0.21711 0.00119 0.21711 0.001214 0.43422 0.002438 0.86843 0.004747 0.21711 0.001131 0.43422 0.002269 0.21711 0.001138 0.21711 0.001163 0.21711 0.00119 0.21711 0.00117 0.21711 0.001185 0.21711 0.001192 0.21711 0.001174 1.3026 0.006791 0.43422 0.002193 0.21711 0.001085 1.5198 0.007402 0.21711 0.001066 0.21711 0.001117 0.21711 0.001052 0.43422 0.002025 0.21711 0.001025 0.21711 0.00105 0.21711 0.001058 0.21711 0.00109 0.21711 0.001093 0.21711 0.001072 1.0855 0.005237 0.21711 0.001023 0.43422 0.002015 0.21711 9.72e-4 0.21711 9.93e-4 0.21711 9.98e-4 0.21711 0.001026 0.21711 0.001032 0.21711 0.001036 0.21711 0.00104 0.21711 0.001058 0.86843 0.00427 0.43422 0.002104 0.21711 0.001012 0.21711 9.71e-4 1.0855 0.004786 1.954 0.008391 0.21711 9.03e-4 0.21711 8.68e-4 1.3026 0.005075 0.86843 0.003308 0.43422 0.001578 0.21711 7.92e-4 0.43422 0.001558 0.21711 7.84e-4 0.21711 7.96e-4 0.21711 8.11e-4 0.21711 8.31e-4 0.21711 8.41e-4 0.21711 8.49e-4 0.21711 8.85e-4 0.21711 8.92e-4 0.21711 9.01e-4 0.21711 9.23e-4 0.21711 9.76e-4 0.65133 0.002931 0.21711 9.55e-4 0.21711 9.62e-4 0.21711 9.5e-4 0.21711 9.28e-4 0.65132 0.002614 0.43422 0.001783 0.21711 9e-4 0.21711 9.02e-4 1.954 0.007824 0.21711 8.72e-4 0.43422 0.001749 0.43422 0.00176 0.86843 0.003398 1.5198 0.005799 0.86843 0.003254 0.21711 8.2e-4 0.21711 8.36e-4 0.21711 8.51e-4 0.21711 8.56e-4 0.21711 8.62e-4 0.21711 9.12e-4 0.21711 9.42e-4 0.21711 9.49e-4 0.21711 9.58e-4 0.21711 9.97e-4 3.2566 0.015135 0.21711 9.8e-4 0.21711 9.63e-4 0.86843 0.003776 0.21711 9.52e-4 0.65132 0.00279 0.65132 0.002653 0.21711 8.73e-4 0.21711 8.5e-4 0.65133 0.002564 0.43422 0.00168 0.21711 8.42e-4 0.21711 8.47e-4 0.21711 8.52e-4 0.21711 8.56e-4 0.21711 8.6e-4 0.21711 8.39e-4 0.21711 8.86e-4 1.0855 0.004218 0.21711 0.001586 0.21711 0.001599 0.21711 0.001606 0.21711 0.001612 0.21711 0.001623 0.21711 0.001657 0.21711 0.001732 0.21711 0.001756 0.21711 0.00178 0.21711 0.001764 0.21711 0.001772 0.21711 0.001791 0.21711 0.001809 0.21711 0.00182 0.21711 0.001836 0.86843 0.007381 0.21711 0.001849 0.21711 0.001853 0.21711 0.001857 0.21711 0.001873 0.21711 0.001916 0.21711 0.001943 0.21711 0.001947 0.65132 0.005983 0.21711 0.002004 0.21711 0.002006 0.86843 0.007842 0.21711 0.001917 0.21711 0.001938 0.21711 0.001953 0.21711 0.001964 0.21711 0.00197 0.21711 0.001976 0.21711 0.001981 0.21711 0.00199 0.21711 0.002001 0.21711 0.00201 0.21711 0.002018 0.21711 0.002026 0.21711 0.002034 0.21711 0.002036 0.21711 0.002038 0.43422 0.004081 0.21711 0.002044 0.65133 0.006136 0.43422 0.004056 0.21711 0.002101 0.21711 0.003257 0.21711 0.0033 0.21711 0.003316 0.21711 0.003332 0.21711 0.003367 0.21711 0.003371 0.21711 0.003359 0.21711 0.003381 0.43422 0.006767 0.21711 0.003388 0.65132 0.010226 0.43422 0.006792 0.21711 0.003436 0.21711 0.003443 0.21711 0.003388 0.21711 0.003392 0.21711 0.003396 0.21711 0.003402 0.21711 0.003411 0.21711 0.003424 0.21711 0.002687 0.21711 0.002691 0.21711 0.002727 0.43422 0.00557 0.21711 0.002759 0.21711 0.002684 0.21711 0.002662 0.21711 0.00264 0.21711 0.002621 0.21711 0.002673 0.21711 0.002684 0.43422 0.005335 0.21711 0.00265 0.21711 0.00269 0.21711 0.002798 0.21711 0.002908 0.21711 0.003017 0.21711 0.003128 0.21711 0.003738 0.43422 0.007499 0.21711 0.003717 0.43422 0.007397 0.21711 0.003736 0.21711 0.004952 0.43422 0.009974 0.21711 0.005009 0.21711 0.005058 0.21711 0.005072 0.21711 0.005088 0.21711 0.005091 0.21711 0.005093 0.43422 0.010124 0.21711 0.005079 0.21711 0.005089 0.21711 0.0051 0.21711 0.005138 0.21711 0.005356 0.21711 0.006339 0.21711 0.006343 0.21711 0.006352 0.21711 0.006359 0.21711 0.006552 0.21711 0.00729 0.21711 0.007338 0.21711 0.007348 0.21711 0.007357 0.21711 0.007369 0.21711 0.007406 0.21711 0.007417 0.21711 0.007427 0.21711 0.00744 0.21711 0.007478 0.21711 0.007416 0.86843 0.025074 0.21711 0.007639 0.21711 0.008823 0.43422 0.020072 0.21711 0.010044 0.21711 0.010563 0.21711 0.011341 0.21711 0.011479 0.21711 0.012552 0.21711 0.012583 0.21711 0.013517 0.21711 0.013552 0.21711 0.014901 0.21711 0.014918 0.21711 0.015379 0.21711 0.016214 0.21711 0.016344 0.21711 0.016605 0.21711 0.017886 0.21711 0.017932 0.21711 0.017941 0.21711 0.017957 0.21711 0.017945 0.21711 0.017912 0.21711 0.017971 0.21711 0.018055 0.21711 0.018468 0.21711 0.019617 0.21711 0.020803 0.21711 0.020884 0.21711 0.020915 0.21711 0.021004 0.21711 0.021043 0.21711 0.021085 0.43422 0.042244 0.21711 0.023656 0.21711 0.028867 0.21711 0.028912 0.21711 0.029196 0.21711 0.029611 0.21711 0.029724 0.21711 0.029837 0.21711 0.032114 0.21711 0.032266 0.21711 0.032377 0.21711 0.033683 0.21711 0.033607 0.21711 0.035141 0.21711 0.035316 0.21711 0.038038 0.21711 0.038392 0.21711 0.039954 0.21711 0.04401 0.21711 0.044258 0.21711 0.045915 0.21711 0.047531 0.21711 0.047794 0.21711 0.049442 0.21711 0.049709 0.21711 0.049961 0.21711 0.050366 0.21711 0.051734 0.21711 0.051062 0.21711 0.051325 0.21711 0.053108 0.21711 0.0534 0.21711 0.053478 0.21711 0.053264 0.21711 0.054652 0.21711 0.055221 0.21711 0.055855 0.21711 0.05728 0.21711 0.057659 0.21711 0.058 0.21711 0.059931 0.21711 0.060361 0.21711 0.060668 0.21711 0.061031 0.21711 0.061357 0.21711 0.061722 0.21711 0.062239 0.21711 0.06361 0.21711 0.062442 0.21711 0.061246 0.21711 0.059982 0.21711 0.060322 0.21711 0.060848 0.21711 0.062035 0.21711 0.061628 0.21711 0.06327 0.21711 0.062216 0.21711 0.062576 0.21711 0.061757 0.21711 0.062271 0.21711 0.060905 0.21711 0.061433 0.21711 0.064535 0.21711 0.065352 0.21711 0.067117 0.21711 0.067272 0.21711 0.065962 0.21711 0.067289 0.21711 0.070164 0.21711 0.072129 0.21711 0.074448 0.21711 0.074998 0.21711 0.075498 0.21711 0.076091 0.21711 0.077595 0.21711 0.076576 0.21711 0.075536 0.21711 0.076159 0.21711 0.078352 0.21711 0.081085 0.21711 0.083736 0.21711 0.086418 0.21711 0.087239 0.21711 0.088075 0.21711 0.086652 0.21711 0.08114 0.21711 0.083588 0.21711 0.083813 0.21711 0.082896 0.21711 0.083532 0.21711 0.084281 0.21711 0.081461 0.21711 0.082119 0.21711 0.082857 0.21711 0.082127 0.21711 0.080886 0.21711 0.079903 0.21711 0.082408 0.21711 0.079025 0.21711 0.079279 0.21711 0.077421 0.21711 0.071294 0.21711 0.0765 0.21711 0.074581 0.21711 0.072736 0.21711 0.073228 0.21711 0.071243 0.21711 0.073914 0.21711 0.075448 0.21711 0.078157 0.21711 0.076399 0.21711 0.079039 0.21711 0.07967 0.21711 0.077618 0.21711 0.078535 0.21711 0.081623 0.21711 0.081605 0.21711 0.080222 0.21711 0.085266 0.21711 0.085767 0.21711 0.084468 0.21711 0.084999 0.21711 0.085691 0.21711 0.085597 0.21711 0.086473 0.21711 0.08718 0.21711 0.0879 0.21711 0.088631 0.21711 0.089347 0.21711 0.089904 0.21711 0.091858 0.21711 0.092162 0.21711 0.092995 0.21711 0.093841 0.21711 0.094702 0.21711 0.095373 0.21711 0.096172 0.21711 0.09915 0.21711 0.10068 0.21711 0.10171 0.21711 0.10282 0.21711 0.10388 0.21711 0.11372 0.21711 0.11707 0.21711 0.12194 0.21711 0.11996 0.21711 0.11833 0.21711 0.118 0.21711 0.11953 0.21711 0.12211 0.21711 0.12169 0.21711 0.11821 0.21711 0.11656 0.21711 0.1142 0.21711 0.11706 0.21711 0.11849 0.21711 0.12656 0.21711 0.12822 0.21711 0.12976 0.21711 0.1314 0.21711 0.13306 0.21711 0.13316 0.21711 0.1343 0.21711 0.13177 0.21711 0.12919 0.21711 0.14313 0.21711 0.14505 0.21711 0.14284 0.21711 0.14006 0.21711 0.13989 0.21711 0.1421 0.21711 0.14404 0.21711 0.14603 0.21711 0.14783 0.21711 0.14973 0.21711 0.15171 0.21711 0.15375 0.21711 0.15424 0.21711 0.15639 0.21711 0.15675 0.21711 0.15444 0.21711 0.15577 0.21711 0.15791 0.21711 0.1603 0.21711 0.1628 0.21711 0.15345 0.21711 0.15569 0.21711 0.15802 0.21711 0.1661 0.21711 0.16884 0.21711 0.17142 0.21711 0.17186 0.21711 0.16838 0.21711 0.17331 0.21711 0.173 0.21711 0.18238 0.21711 0.18554 0.21711 0.18791 0.21711 0.18426 0.21711 0.1875 0.21711 0.19087 0.21711 0.18021 0.21711 0.18226 0.21711 0.18552 0.21711 0.1889 0.21711 0.19251 0.21711 0.1899 0.21711 0.1942 0.21711 0.20519 0.21711 0.20936 0.21711 0.2137 0.21711 0.21809 0.21711 0.22265 0.21711 0.21759 0.21711 0.22228 0.21711 0.22747 0.21711 0.23312 0.21711 0.23868 0.21711 0.24397 0.21711 0.24024 0.21711 0.23666 0.21711 0.22973 0.21711 0.23486 0.21711 0.23996 0.21711 0.24513 0.21711 0.21574 0.21711 0.21107 0.21711 0.21196 0.21711 0.20395 0.21711 0.20799 0.21711 0.20721 0.21711 0.21044 0.21711 0.20954 0.21711 0.21391 0.21711 0.21846 0.21711 0.2232 0.21711 0.22895 0.21711 0.24245 0.21711 0.24806 0.21711 0.22348 0.21711 0.2142 0.21711 0.21862 0.21711 0.22242 0.21711 0.22653 0.21711 0.23835 0.21711 0.22422 0.21711 0.22913 0.21711 0.23427 0.21711 0.17962 0.21711 0.18232 0.21711 0.18539 0.21711 0.18895 0.21711 0.18221 0.21711 0.18362 0.21711 0.18709 0.21711 0.19216 0.21711 0.21639 0.21711 0.22127 0.21711 0.22675 0.21711 0.23187 0.21711 0.23722 0.21711 0.24276 0.21711 0.24855 0.21711 0.25464 0.21711 0.26103 0.21711 0.26778 0.21711 0.27568 0.21711 0.28329 0.21711 0.29133 0.21711 0.29977 0.21711 0.30916v51.452h-416.2z" stroke="#0766aa" stroke-opacity=".2"/>
</defs>
<g clip-path="url(#h)">
<use y="413.19625" fill="#0766aa" fill-opacity=".2" stroke="#0766aa" stroke-opacity=".2" xlink:href="#ae"/>
</g>
<path d="m40.603 170.63v-141.83" clip-path="url(#h)" fill="none" stroke="#b0b0b0" stroke-linecap="square" stroke-width=".8"/>
<defs>
<path id="b" d="m0 0v3.5" stroke="#000" stroke-width=".8"/>
</defs>
<use x="40.603125" y="170.627393" stroke="#000000" stroke-width=".8" xlink:href="#b"/>
<path d="m111.58 170.63v-141.83" clip-path="url(#h)" fill="none" stroke="#b0b0b0" stroke-linecap="square" stroke-width=".8"/>
<use x="111.583004" y="170.627393" stroke="#000000" stroke-width=".8" xlink:href="#b"/>
<path d="m182.56 170.63v-141.83" clip-path="url(#h)" fill="none" stroke="#b0b0b0" stroke-linecap="square" stroke-width=".8"/>
<use x="182.562883" y="170.627393" stroke="#000000" stroke-width=".8" xlink:href="#b"/>
<path d="m253.54 170.63v-141.83" clip-path="url(#h)" fill="none" stroke="#b0b0b0" stroke-linecap="square" stroke-width=".8"/>
<use x="253.542763" y="170.627393" stroke="#000000" stroke-width=".8" xlink:href="#b"/>
<path d="m324.52 170.63v-141.83" clip-path="url(#h)" fill="none" stroke="#b0b0b0" stroke-linecap="square" stroke-width=".8"/>
<use x="324.522642" y="170.627393" stroke="#000000" stroke-width=".8" xlink:href="#b"/>
<path d="m395.5 170.63v-141.83" clip-path="url(#h)" fill="none" stroke="#b0b0b0" stroke-linecap="square" stroke-width=".8"/>
<use x="395.502521" y="170.627393" stroke="#000000" stroke-width=".8" xlink:href="#b"/>
<path d="m466.48 170.63v-141.83" clip-path="url(#h)" fill="none" stroke="#b0b0b0" stroke-linecap="square" stroke-width=".8"/>
<use x="466.4824" y="170.627393" stroke="#000000" stroke-width=".8" xlink:href="#b"/>
<defs>
<path id="d" d="m0 0h-3.5" stroke="#000" stroke-width=".8"/>
</defs>
<use x="40.603125" y="154.105211" stroke="#000000" stroke-width=".8" xlink:href="#d"/>
<defs>
<path id="g" d="m12.406 8.2969h16.109v55.625l-17.531-3.5156v8.9844l17.438 3.5156h9.8594v-64.609h16.109v-8.2969h-41.984z"/>
<path id="f" d="m31.781 66.406q-7.6094 0-11.453-7.5-3.8281-7.4844-3.8281-22.531 0-14.984 3.8281-22.484 3.8438-7.5 11.453-7.5 7.6719 0 11.5 7.5 3.8438 7.5 3.8438 22.484 0 15.047-3.8438 22.531-3.8281 7.5-11.5 7.5zm0 7.8125q12.266 0 18.734-9.7031 6.4688-9.6875 6.4688-28.141 0-18.406-6.4688-28.109-6.4688-9.6875-18.734-9.6875-12.25 0-18.719 9.6875-6.4688 9.7031-6.4688 28.109 0 18.453 6.4688 28.141 6.4688 9.7031 18.719 9.7031z"/>
</defs>
<g transform="translate(16.003 157.9) scale(.1 -.1)">
<use transform="translate(0 .68438)" xlink:href="#g"/>
<use transform="translate(63.623 .68438)" xlink:href="#f"/>
<use transform="translate(128.2 38.966) scale(.7)" xlink:href="#g"/>
</g>
<use x="40.603125" y="130.467312" stroke="#000000" stroke-width=".8" xlink:href="#d"/>
<defs>
<path id="m" d="m19.188 8.2969h34.422v-8.2969h-46.281v8.2969q5.6094 5.8125 15.297 15.594 9.7031 9.7969 12.188 12.641 4.7344 5.3125 6.6094 9 1.8906 3.6875 1.8906 7.25 0 5.8125-4.0781 9.4688-4.0781 3.6719-10.625 3.6719-4.6406 0-9.7969-1.6094-5.1406-1.6094-11-4.8906v9.9688q5.9531 2.3906 11.125 3.6094 5.1875 1.2188 9.4844 1.2188 11.328 0 18.062-5.6719 6.7344-5.6562 6.7344-15.125 0-4.5-1.6875-8.5312-1.6719-4.0156-6.125-9.4844-1.2188-1.4219-7.7656-8.1875-6.5312-6.7656-18.453-18.922z"/>
</defs>
<g transform="translate(16.003 134.27) scale(.1 -.1)">
<use transform="translate(0 .76562)" xlink:href="#g"/>
<use transform="translate(63.623 .76562)" xlink:href="#f"/>
<use transform="translate(128.2 39.047) scale(.7)" xlink:href="#m"/>
</g>
<use x="40.603125" y="106.829413" stroke="#000000" stroke-width=".8" xlink:href="#d"/>
<defs>
<path id="p" d="m40.578 39.312q7.0781-1.5156 11.047-6.3125 3.9844-4.7812 3.9844-11.812 0-10.781-7.4219-16.703-7.4219-5.9062-21.094-5.9062-4.5781 0-9.4375 0.90625t-10.031 2.7188v9.5156q4.0938-2.3906 8.9688-3.6094 4.8906-1.2188 10.219-1.2188 9.2656 0 14.125 3.6562t4.8594 10.641q0 6.4531-4.5156 10.078-4.5156 3.6406-12.562 3.6406h-8.5v8.1094h8.8906q7.2656 0 11.125 2.9062t3.8594 8.375q0 5.6094-3.9844 8.6094-3.9688 3.0156-11.391 3.0156-4.0625 0-8.7031-0.89062-4.6406-0.875-10.203-2.7188v8.7812q5.625 1.5625 10.531 2.3438t9.25 0.78125q11.234 0 17.766-5.1094 6.5469-5.0938 6.5469-13.781 0-6.0625-3.4688-10.234t-9.8594-5.7812z"/>
</defs>
<g transform="translate(16.003 110.63) scale(.1 -.1)">
<use transform="translate(0 .76562)" xlink:href="#g"/>
<use transform="translate(63.623 .76562)" xlink:href="#f"/>
<use transform="translate(128.2 39.047) scale(.7)" xlink:href="#p"/>
</g>
<use x="40.603125" y="83.191514" stroke="#000000" stroke-width=".8" xlink:href="#d"/>
<defs>
<path id="v" d="m37.797 64.312-24.906-38.922h24.906zm-2.5938 8.5938h12.406v-47.516h10.406v-8.2031h-10.406v-17.188h-9.8125v17.188h-32.906v9.5156z"/>
</defs>
<g transform="translate(16.003 86.991) scale(.1 -.1)">
<use transform="translate(0 .68438)" xlink:href="#g"/>
<use transform="translate(63.623 .68438)" xlink:href="#f"/>
<use transform="translate(128.2 38.966) scale(.7)" xlink:href="#v"/>
</g>
<use x="40.603125" y="59.553615" stroke="#000000" stroke-width=".8" xlink:href="#d"/>
<defs>
<path id="ac" d="m10.797 72.906h38.719v-8.3125h-29.688v-17.859q2.1406 0.73438 4.2812 1.0938 2.1562 0.35938 4.3125 0.35938 12.203 0 19.328-6.6875 7.1406-6.6875 7.1406-18.109 0-11.766-7.3281-18.297-7.3281-6.5156-20.656-6.5156-4.5938 0-9.3594 0.78125-4.75 0.78125-9.8281 2.3438v9.9219q4.3906-2.3906 9.0781-3.5625t9.9062-1.1719q8.4531 0 13.375 4.4375 4.9375 4.4375 4.9375 12.062 0 7.6094-4.9375 12.047-4.9219 4.4531-13.375 4.4531-3.9531 0-7.8906-0.875-3.9219-0.875-8.0156-2.7344z"/>
</defs>
<g transform="translate(16.003 63.353) scale(.1 -.1)">
<use transform="translate(0 .68438)" xlink:href="#g"/>
<use transform="translate(63.623 .68438)" xlink:href="#f"/>
<use transform="translate(128.2 38.966) scale(.7)" xlink:href="#ac"/>
</g>
<use x="40.603125" y="35.915717" stroke="#000000" stroke-width=".8" xlink:href="#d"/>
<defs>
<path id="u" d="m33.016 40.375q-6.6406 0-10.531-4.5469-3.875-4.5312-3.875-12.438 0-7.8594 3.875-12.438 3.8906-4.5625 10.531-4.5625t10.516 4.5625q3.875 4.5781 3.875 12.438 0 7.9062-3.875 12.438-3.875 4.5469-10.516 4.5469zm19.578 30.922v-8.9844q-3.7188 1.75-7.5 2.6719-3.7812 0.9375-7.5 0.9375-9.7656 0-14.922-6.5938-5.1406-6.5938-5.875-19.922 2.875 4.25 7.2188 6.5156 4.3594 2.2656 9.5781 2.2656 10.984 0 17.359-6.6719 6.375-6.6562 6.375-18.125 0-11.234-6.6406-18.031-6.6406-6.7812-17.672-6.7812-12.656 0-19.344 9.6875-6.6875 9.7031-6.6875 28.109 0 17.281 8.2031 27.562t22.016 10.281q3.7188 0 7.5-0.73438t7.8906-2.1875z"/>
</defs>
<g transform="translate(16.003 39.715) scale(.1 -.1)">
<use transform="translate(0 .76562)" xlink:href="#g"/>
<use transform="translate(63.623 .76562)" xlink:href="#f"/>
<use transform="translate(128.2 39.047) scale(.7)" xlink:href="#u"/>
</g>
<defs>
<path id="a" d="m0 0h-2" stroke="#000" stroke-width=".6"/>
</defs>
<use x="40.603125" y="170.627393" stroke="#000000" stroke-width=".6" xlink:href="#a"/>
<use x="40.603125" y="166.464966" stroke="#000000" stroke-width=".6" xlink:href="#a"/>
<use x="40.603125" y="163.511677" stroke="#000000" stroke-width=".6" xlink:href="#a"/>
<use x="40.603125" y="161.220927" stroke="#000000" stroke-width=".6" xlink:href="#a"/>
<use x="40.603125" y="159.349249" stroke="#000000" stroke-width=".6" xlink:href="#a"/>
<use x="40.603125" y="157.766768" stroke="#000000" stroke-width=".6" xlink:href="#a"/>
<use x="40.603125" y="156.39596" stroke="#000000" stroke-width=".6" xlink:href="#a"/>
<use x="40.603125" y="155.186822" stroke="#000000" stroke-width=".6" xlink:href="#a"/>
<use x="40.603125" y="146.989494" stroke="#000000" stroke-width=".6" xlink:href="#a"/>
<use x="40.603125" y="142.827067" stroke="#000000" stroke-width=".6" xlink:href="#a"/>
<use x="40.603125" y="139.873778" stroke="#000000" stroke-width=".6" xlink:href="#a"/>
<use x="40.603125" y="137.583029" stroke="#000000" stroke-width=".6" xlink:href="#a"/>
<use x="40.603125" y="135.71135" stroke="#000000" stroke-width=".6" xlink:href="#a"/>
<use x="40.603125" y="134.128869" stroke="#000000" stroke-width=".6" xlink:href="#a"/>
<use x="40.603125" y="132.758061" stroke="#000000" stroke-width=".6" xlink:href="#a"/>
<use x="40.603125" y="131.548923" stroke="#000000" stroke-width=".6" xlink:href="#a"/>
<use x="40.603125" y="123.351595" stroke="#000000" stroke-width=".6" xlink:href="#a"/>
<use x="40.603125" y="119.189168" stroke="#000000" stroke-width=".6" xlink:href="#a"/>
<use x="40.603125" y="116.235879" stroke="#000000" stroke-width=".6" xlink:href="#a"/>
<use x="40.603125" y="113.94513" stroke="#000000" stroke-width=".6" xlink:href="#a"/>
<use x="40.603125" y="112.073451" stroke="#000000" stroke-width=".6" xlink:href="#a"/>
<use x="40.603125" y="110.49097" stroke="#000000" stroke-width=".6" xlink:href="#a"/>
<use x="40.603125" y="109.120162" stroke="#000000" stroke-width=".6" xlink:href="#a"/>
<use x="40.603125" y="107.911024" stroke="#000000" stroke-width=".6" xlink:href="#a"/>
<use x="40.603125" y="99.713697" stroke="#000000" stroke-width=".6" xlink:href="#a"/>
<use x="40.603125" y="95.551269" stroke="#000000" stroke-width=".6" xlink:href="#a"/>
<use x="40.603125" y="92.59798" stroke="#000000" stroke-width=".6" xlink:href="#a"/>
<use x="40.603125" y="90.307231" stroke="#000000" stroke-width=".6" xlink:href="#a"/>
<use x="40.603125" y="88.435553" stroke="#000000" stroke-width=".6" xlink:href="#a"/>
<use x="40.603125" y="86.853071" stroke="#000000" stroke-width=".6" xlink:href="#a"/>
<use x="40.603125" y="85.482263" stroke="#000000" stroke-width=".6" xlink:href="#a"/>
<use x="40.603125" y="84.273125" stroke="#000000" stroke-width=".6" xlink:href="#a"/>
<use x="40.603125" y="76.075798" stroke="#000000" stroke-width=".6" xlink:href="#a"/>
<use x="40.603125" y="71.91337" stroke="#000000" stroke-width=".6" xlink:href="#a"/>
<use x="40.603125" y="68.960081" stroke="#000000" stroke-width=".6" xlink:href="#a"/>
<use x="40.603125" y="66.669332" stroke="#000000" stroke-width=".6" xlink:href="#a"/>
<use x="40.603125" y="64.797654" stroke="#000000" stroke-width=".6" xlink:href="#a"/>
<use x="40.603125" y="63.215172" stroke="#000000" stroke-width=".6" xlink:href="#a"/>
<use x="40.603125" y="61.844365" stroke="#000000" stroke-width=".6" xlink:href="#a"/>
<use x="40.603125" y="60.635226" stroke="#000000" stroke-width=".6" xlink:href="#a"/>
<use x="40.603125" y="52.437899" stroke="#000000" stroke-width=".6" xlink:href="#a"/>
<use x="40.603125" y="48.275471" stroke="#000000" stroke-width=".6" xlink:href="#a"/>
<use x="40.603125" y="45.322182" stroke="#000000" stroke-width=".6" xlink:href="#a"/>
<use x="40.603125" y="43.031433" stroke="#000000" stroke-width=".6" xlink:href="#a"/>
<use x="40.603125" y="41.159755" stroke="#000000" stroke-width=".6" xlink:href="#a"/>
<use x="40.603125" y="39.577273" stroke="#000000" stroke-width=".6" xlink:href="#a"/>
<use x="40.603125" y="38.206466" stroke="#000000" stroke-width=".6" xlink:href="#a"/>
<use x="40.603125" y="36.997328" stroke="#000000" stroke-width=".6" xlink:href="#a"/>
<use x="40.603125" y="28.8" stroke="#000000" stroke-width=".6" xlink:href="#a"/>
<path d="m49.618 163.11 1.7369 0.24615 1.954 0.52155 2.1711 0.83307 2.6053 1.2662 5.6448 2.8711 1.5198 0.46976 1.3026 0.16719 9.3356 0.002585 5.6448-0.084482 1.3026-0.31028 1.7369-0.67573 2.6053-1.3088 4.125-2.0713 2.3882-0.93249 1.954-0.53566 1.7369-0.26749 2.1711-0.2666 1.5198-0.4654 2.1711-0.94285 5.2106-2.6328 1.3026-1.0217 3.2566-2.7501 1.0855-0.42334 1.0855-0.13597 1.0855 0.12404 1.3026 0.40783 1.3026 0.67532 1.3026 0.96107 1.3026 1.2884 1.0855 1.3777 1.0855 1.7338 1.0855 2.2228 0.86843 2.2939 1.5198 4.8309 1.5198 4.7002 0.65132 1.2421 0.43422 0.30405 47.547-0.077513 0.86843-0.36199 1.0855-0.78294 1.3026-1.2534 5.8619-6.0393 1.7369-1.3523 1.7369-1.0716 1.5198-0.69558 1.5198-0.45582 1.3026-0.18347 2.8224-0.025588 2.6053-0.18288 3.6908-0.50911 7.1646-1.0381 2.8224-0.17905 2.1711 0.11837 3.2566 0.41481 10.855 1.6072 3.0395 0.018404 0.43422-0.12079 0.65132-0.49702 0.65132-0.80337 1.0855-1.7728 0.21711-0.3922 1.0855-4.2569 2.1711-7.1103 0.86843-2.048 1.0855-2.4572 0.86843-1.8534 0.86843-1.3898 1.0855-1.2788 1.0855-0.89559 2.1711-1.2765 1.0855-0.28134 1.0855-0.008369 1.7369 0.34213 1.0855 0.37691 1.0855 0.61386 0.86843 0.49234 1.0855 0.44803 1.5198 0.70606 1.0855 0.6256 1.0855 0.70114 1.0855 0.26249 1.0855 0.47479 1.0855 0.71042 1.7369 1.2582 0.43422-0.027889 3.0395-0.62691 1.3026-0.001439 2.1711-0.45508 1.0855-0.28424 1.3026-0.75217 3.2566-2.2558 2.1711-1.1101 1.0855-0.22859 1.0855 0.025948 1.3026 0.026867 1.3026-0.4707 1.0855-0.36764 1.0855-0.16548 1.3026 0.047439 2.6053 0.38875 6.7303 1.4621 0.43422-0.12447 2.3882-1.0458 0.65132-0.26713 0.86843-0.65625 1.3026-1.1022 1.0855-0.59073 1.0855-0.32304 1.954-0.49312 5.2106-2.4585 1.954-1.4375 3.4737-1.7215 1.3026-0.32042 0.86843-0.26543 1.5198-0.67937 1.0855-0.26957 4.125-0.28048 1.7369 0.080235 2.3882 0.55758 3.9079-1.2248 0.86843-0.1463 1.3026-0.16648 3.2566 0.093668 1.0855 0.37449 1.7369 0.70254 2.8224 1.6768 1.0855 0.73788 0.65132 0.38735 1.5198 0.78098 0.86843 0.037171 2.1711-0.6939 1.7369-0.29398 2.8224-0.82305 2.6053-0.41888 0.86843 0.11978 0.86843 0.3467 0.86843 0.59797 1.7369 1.4146 1.3026 0.9969 0.43422 0.22157 2.1711 0.78538 0.86843 0.24725 1.7369 0.17073 0.86843-0.34565 1.5198-0.61969 1.7369-0.56185 1.3026-1.0296 0.65132-0.60172 1.5198-1.3414 1.3026-0.82418 1.0855-0.4349 0.86843-0.10314 3.0395-0.091093 1.0855-0.083525 2.3882 0.21637 2.1711 0.65271 0.86843 0.5368 1.0855 0.94213 1.0855 0.98831 4.3422 2.7737 2.1711 1.4463 1.7369 1.4817 0.65132 0.32288 1.954 0.41948 0.65132-0.44883 0.65132-0.70027 1.0855-1.3482 0.86843-0.75263 0.86843-0.51532 0.86843-0.30932 1.954-0.34218 2.1711 0.14247 1.0855 0.24024 1.0855 0.49168 1.5198 1.0242 1.5198 1.1424 1.0855 0.36741 1.0855 0.60815 1.7369 1.0633 0.86843 0.34732 1.0855-0.15179 1.0855 0.082184 1.0855 0.32434 3.9079 1.68 1.7369 0.19529 1.3026 0.39028 0.86843 0.47167 1.0855 0.88268 0.86843 0.64954 2.6053 1.343 1.5198 0.15968 1.5198 0.37467 1.5198 0.59944 2.1711 0.95781 1.3026 0.3219 0.86843 0.067573 0.43422-0.17501 1.7369-1.196 1.3026-0.61052 1.0855-0.26132 1.0855-0.017507 1.0855 0.20832 1.0855 0.43096 1.0855 0.66538 1.0855 0.93692 1.0855 1.267 0.86843 1.3173 0.86843 1.6818 0.86843 2.205 0.86843 2.9832 0.86843 3.8566 0.65132 3.7677 0.65132 5.02 0.43422 4.5651 0.43422 6.6556 0.43422 12.184 0.21711 11.233 0.12962 209.3v0" clip-path="url(#h)" fill="none" stroke="#dc143c" stroke-linecap="square" stroke-width="1.5"/>
<path d="m40.603 170.63v-141.83" fill="none" stroke="#000" stroke-linecap="square" stroke-width=".8"/>
<path d="m486.62 170.63v-141.83" fill="none" stroke="#000" stroke-linecap="square" stroke-width=".8"/>
<path d="m40.603 170.63h446.02" fill="none" stroke="#000" stroke-linecap="square" stroke-width=".8"/>
<path d="m40.603 28.8h446.02" fill="none" stroke="#000" stroke-linecap="square" stroke-width=".8"/>
<path d="m324.59 66.156h155.04q2 0 2-2v-28.356q0-2-2-2h-155.04q-2 0-2 2v28.356q0 2 2 2z" fill="#fff" opacity=".8" stroke="#ccc"/>
<path d="m326.59 41.898h20" fill="none" stroke="#dc143c" stroke-linecap="square" stroke-width="1.5"/>
<defs>
<path id="i" d="m41.109 46.297q-1.5156 0.875-3.2969 1.2812-1.7812 0.42188-3.9219 0.42188-7.625 0-11.703-4.9531t-4.0781-14.234v-28.812h-9.0312v54.688h9.0312v-8.5q2.8438 4.9844 7.375 7.3906 4.5469 2.4219 11.047 2.4219 0.92188 0 2.0469-0.125 1.125-0.10938 2.4844-0.35938z"/>
<path id="k" d="m34.281 27.484q-10.891 0-15.094-2.4844t-4.2031-8.5q0-4.7812 3.1562-7.5938 3.1562-2.7969 8.5625-2.7969 7.4844 0 12 5.2969t4.5156 14.078v2zm17.922 3.7188v-31.203h-8.9844v8.2969q-3.0781-4.9688-7.6719-7.3438t-11.234-2.375q-8.3906 0-13.359 4.7188-4.9531 4.7188-4.9531 12.625 0 9.2188 6.1719 13.906 6.1875 4.6875 18.438 4.6875h12.609v0.89062q0 6.2031-4.0781 9.5938t-11.453 3.3906q-4.6875 0-9.1406-1.125-4.4375-1.125-8.5312-3.375v8.3125q4.9219 1.9062 9.5625 2.8438 4.6406 0.95312 9.0312 0.95312 11.875 0 17.734-6.1562 5.8594-6.1406 5.8594-18.641z"/>
<path id="r" d="m18.312 70.219v-15.531h18.5v-6.9844h-18.5v-29.688q0-6.6875 1.8281-8.5938t7.4531-1.9062h9.2188v-7.5156h-9.2188q-10.406 0-14.359 3.875-3.9531 3.8906-3.9531 14.141v29.688h-6.5938v6.9844h6.5938v15.531z"/>
<path id="e" d="m56.203 29.594v-4.3906h-41.312q0.59375-9.2812 5.5938-14.141t13.938-4.8594q5.1719 0 10.031 1.2656t9.6562 3.8125v-8.5q-4.8438-2.0469-9.9219-3.125t-10.297-1.0781q-13.094 0-20.734 7.6094-7.6406 7.625-7.6406 20.625 0 13.422 7.25 21.297 7.25 7.8906 19.562 7.8906 11.031 0 17.453-7.1094 6.4219-7.0938 6.4219-19.297zm-8.9844 2.6406q-0.09375 7.3594-4.125 11.75-4.0312 4.4062-10.672 4.4062-7.5156 0-12.031-4.25t-5.2031-11.969z"/>
<path id="n" d="m30.609 48.391q-7.2188 0-11.422-5.6406t-4.2031-15.453 4.1719-15.453q4.1875-5.6406 11.453-5.6406 7.1875 0 11.375 5.6562 4.2031 5.6719 4.2031 15.438 0 9.7188-4.2031 15.406-4.1875 5.6875-11.375 5.6875zm0 7.6094q11.719 0 18.406-7.625 6.7031-7.6094 6.7031-21.078 0-13.422-6.7031-21.078-6.6875-7.6406-18.406-7.6406-11.766 0-18.438 7.6406-6.6562 7.6562-6.6562 21.078 0 13.469 6.6562 21.078 6.6719 7.625 18.438 7.625z"/>
<path id="aa" d="m37.109 75.984v-7.4844h-8.5938q-4.8281 0-6.7188-1.9531-1.875-1.9531-1.875-7.0312v-4.8281h14.797v-6.9844h-14.797v-47.703h-9.0312v47.703h-8.5938v6.9844h8.5938v3.8125q0 9.125 4.25 13.297 4.25 4.1875 13.469 4.1875z"/>
<path id="l" d="m9.4219 54.688h8.9844v-54.688h-8.9844zm0 21.297h8.9844v-11.391h-8.9844z"/>
<path id="s" d="m9.4219 75.984h8.9844v-75.984h-8.9844z"/>
<path id="y" d="m8.5 21.578v33.109h8.9844v-32.766q0-7.7656 3.0156-11.656 3.0312-3.875 9.0938-3.875 7.2656 0 11.484 4.6406 4.2344 4.6406 4.2344 12.656v31h8.9844v-54.688h-8.9844v8.4062q-3.2656-4.9844-7.5938-7.4062-4.3125-2.4219-10.031-2.4219-9.4219 0-14.312 5.8594-4.875 5.8594-4.875 17.141zm22.609 34.422z"/>
<path id="j" d="m44.281 53.078v-8.5q-3.7969 1.9531-7.9062 2.9219-4.0938 0.98438-8.5 0.98438-6.6875 0-10.031-2.0469t-3.3438-6.1562q0-3.125 2.3906-4.9062t9.625-3.3906l3.0781-0.6875q9.5625-2.0469 13.594-5.7812t4.0312-10.422q0-7.625-6.0312-12.078-6.0312-4.4375-16.578-4.4375-4.3906 0-9.1562 0.85938t-10.031 2.5625v9.2812q4.9844-2.5938 9.8125-3.8906 4.8281-1.2812 9.5781-1.2812 6.3438 0 9.75 2.1719 3.4219 2.1719 3.4219 6.125 0 3.6562-2.4688 5.6094-2.4531 1.9531-10.812 3.7656l-3.125 0.73438q-8.3438 1.75-12.062 5.3906-3.7031 3.6406-3.7031 9.9844 0 7.7188 5.4688 11.906 5.4688 4.2031 15.531 4.2031 4.9688 0 9.3594-0.73438 4.4062-0.71875 8.1094-2.1875z"/>
<path id="x" d="m31 75.875q-6.5312-11.219-9.7188-22.219-3.1719-10.984-3.1719-22.266 0-11.266 3.2031-22.328t9.6875-22.25h-7.8125q-7.3125 11.484-10.953 22.562t-3.6406 22.016q0 10.891 3.6094 21.922 3.625 11.047 10.984 22.562z"/>
<path id="o" d="m45.406 46.391v29.594h8.9844v-75.984h-8.9844v8.2031q-2.8281-4.875-7.1562-7.25-4.3125-2.375-10.375-2.375-9.9062 0-16.141 7.9062-6.2188 7.9219-6.2188 20.812t6.2188 20.797q6.2344 7.9062 16.141 7.9062 6.0625 0 10.375-2.375 4.3281-2.3594 7.1562-7.2344zm-30.609-19.094q0-9.9062 4.0781-15.547t11.203-5.6406 11.219 5.6406q4.1094 5.6406 4.1094 15.547t-4.1094 15.547q-4.0938 5.6406-11.219 5.6406t-11.203-5.6406-4.0781-15.547z"/>
<path id="z" d="m9.0781 75.984h9.0312v-44.875l26.812 23.578h11.469l-29-25.578 30.234-29.109h-11.719l-27.797 26.703v-26.703h-9.0312z"/>
<path id="ad" d="m25.391 72.906h8.2969l-25.391-82.188h-8.2969z"/>
<path id="q" d="m32.172-5.0781q-3.7969-9.7656-7.4219-12.734-3.6094-2.9844-9.6562-2.9844h-7.1875v7.5156h5.2812q3.7031 0 5.75 1.7656 2.0625 1.75 4.5469 8.2969l1.6094 4.0938-22.109 53.812h9.5156l17.094-42.766 17.094 42.766h9.5156z"/>
<path id="w" d="m8.0156 75.875h7.8125q7.3125-11.516 10.953-22.562 3.6406-11.031 3.6406-21.922 0-10.938-3.6406-22.016t-10.953-22.562h-7.8125q6.4844 11.188 9.6875 22.25t3.2031 22.328q0 11.281-3.2031 22.266-3.2031 11-9.6875 22.219z"/>
</defs>
<g transform="translate(354.59 45.398) scale(.1 -.1)">
<use xlink:href="#i"/>
<use x="41.113281" xlink:href="#k"/>
<use x="102.392578" xlink:href="#r"/>
<use x="141.601562" xlink:href="#e"/>
<use x="203.125" xlink:href="#DejaVuSans-20"/>
<use x="234.912109" xlink:href="#n"/>
<use x="296.09375" xlink:href="#aa"/>
<use x="331.298828" xlink:href="#DejaVuSans-20"/>
<use x="363.085938" xlink:href="#aa"/>
<use x="398.291016" xlink:href="#k"/>
<use x="459.570312" xlink:href="#l"/>
<use x="487.353516" xlink:href="#s"/>
<use x="515.136719" xlink:href="#y"/>
<use x="578.515625" xlink:href="#i"/>
<use x="619.597656" xlink:href="#e"/>
<use x="681.121094" xlink:href="#j"/>
<use x="733.220703" xlink:href="#DejaVuSans-20"/>
<use x="765.007812" xlink:href="#x"/>
<use x="804.021484" xlink:href="#o"/>
<use x="867.498047" xlink:href="#l"/>
<use x="895.28125" xlink:href="#j"/>
<use x="947.380859" xlink:href="#z"/>
<use x="1005.291016" xlink:href="#j"/>
<use x="1057.390625" xlink:href="#ad"/>
<use x="1091.082031" xlink:href="#q"/>
<use x="1150.261719" xlink:href="#i"/>
<use x="1191.375" xlink:href="#w"/>
</g>
<path d="m326.59 60.077h20v-7h-20z" fill="#0766aa" fill-opacity=".2" stroke="#0766aa" stroke-opacity=".2"/>
<defs>
<path id="am" d="m48.688 27.297q0 9.9062-4.0781 15.547t-11.203 5.6406q-7.1406 0-11.219-5.6406t-4.0781-15.547 4.0781-15.547 11.219-5.6406q7.125 0 11.203 5.6406t4.0781 15.547zm-30.578 19.094q2.8438 4.875 7.1562 7.2344 4.3281 2.375 10.328 2.375 9.9688 0 16.188-7.9062 6.2344-7.9062 6.2344-20.797t-6.2344-20.812q-6.2188-7.9062-16.188-7.9062-6 0-10.328 2.375-4.3125 2.375-7.1562 7.25v-8.2031h-9.0312v75.984h9.0312z"/>
<path id="ag" d="m2.9844 54.688h9.5156l17.094-45.891 17.094 45.891h9.5156l-20.516-54.688h-12.203z"/>
</defs>
<g transform="translate(354.59 60.077) scale(.1 -.1)">
<use xlink:href="#o"/>
<use x="63.476562" xlink:href="#l"/>
<use x="91.259766" xlink:href="#j"/>
<use x="143.359375" xlink:href="#z"/>
<use x="201.269531" xlink:href="#j"/>
<use x="253.369141" xlink:href="#DejaVuSans-20"/>
<use x="285.15625" xlink:href="#n"/>
<use x="346.337891" xlink:href="#am"/>
<use x="409.814453" xlink:href="#j"/>
<use x="461.914062" xlink:href="#e"/>
<use x="523.4375" xlink:href="#i"/>
<use x="564.550781" xlink:href="#ag"/>
<use x="623.730469" xlink:href="#e"/>
<use x="685.253906" xlink:href="#o"/>
</g>
<path d="m40.603 375.64h446.02v-189.1h-446.02z" fill="#fff"/>
<path d="m40.603 375.64v-189.1" clip-path="url(#c)" fill="none" stroke="#b0b0b0" stroke-linecap="square" stroke-width=".8"/>
<use x="40.603125" y="375.64" stroke="#000000" stroke-width=".8" xlink:href="#b"/>
<g transform="translate(37.422 390.24) scale(.1 -.1)">
<use xlink:href="#f"/>
</g>
<path d="m111.58 375.64v-189.1" clip-path="url(#c)" fill="none" stroke="#b0b0b0" stroke-linecap="square" stroke-width=".8"/>
<use x="111.583004" y="375.64" stroke="#000000" stroke-width=".8" xlink:href="#b"/>
<g transform="translate(108.4 390.24) scale(.1 -.1)">
<use xlink:href="#g"/>
</g>
<path d="m182.56 375.64v-189.1" clip-path="url(#c)" fill="none" stroke="#b0b0b0" stroke-linecap="square" stroke-width=".8"/>
<use x="182.562883" y="375.64" stroke="#000000" stroke-width=".8" xlink:href="#b"/>
<g transform="translate(179.38 390.24) scale(.1 -.1)">
<use xlink:href="#m"/>
</g>
<path d="m253.54 375.64v-189.1" clip-path="url(#c)" fill="none" stroke="#b0b0b0" stroke-linecap="square" stroke-width=".8"/>
<use x="253.542763" y="375.64" stroke="#000000" stroke-width=".8" xlink:href="#b"/>
<g transform="translate(250.36 390.24) scale(.1 -.1)">
<use xlink:href="#p"/>
</g>
<path d="m324.52 375.64v-189.1" clip-path="url(#c)" fill="none" stroke="#b0b0b0" stroke-linecap="square" stroke-width=".8"/>
<use x="324.522642" y="375.64" stroke="#000000" stroke-width=".8" xlink:href="#b"/>
<g transform="translate(321.34 390.24) scale(.1 -.1)">
<use xlink:href="#v"/>
</g>
<path d="m395.5 375.64v-189.1" clip-path="url(#c)" fill="none" stroke="#b0b0b0" stroke-linecap="square" stroke-width=".8"/>
<use x="395.502521" y="375.64" stroke="#000000" stroke-width=".8" xlink:href="#b"/>
<g transform="translate(392.32 390.24) scale(.1 -.1)">
<use xlink:href="#ac"/>
</g>
<path d="m466.48 375.64v-189.1" clip-path="url(#c)" fill="none" stroke="#b0b0b0" stroke-linecap="square" stroke-width=".8"/>
<use x="466.4824" y="375.64" stroke="#000000" stroke-width=".8" xlink:href="#b"/>
<g transform="translate(463.3 390.24) scale(.1 -.1)">
<use xlink:href="#u"/>
</g>
<defs>
<path id="t" d="m34.188 63.188-13.391-36.281h26.812zm-5.5781 9.7188h11.188l27.781-72.906h-10.25l-6.6406 18.703h-32.859l-6.6406-18.703h-10.406z"/>
<path id="ak" d="m45.406 27.984q0 9.7656-4.0312 15.125-4.0156 5.375-11.297 5.375-7.2188 0-11.25-5.375-4.0312-5.3594-4.0312-15.125 0-9.7188 4.0312-15.094t11.25-5.375q7.2812 0 11.297 5.375 4.0312 5.375 4.0312 15.094zm8.9844-21.203q0-13.953-6.2031-20.766-6.1875-6.8125-18.984-6.8125-4.7344 0-8.9375 0.70312t-8.1562 2.1719v8.7344q3.9531-2.1406 7.8125-3.1562 3.8594-1.0312 7.8594-1.0312 8.8438 0 13.234 4.6094t4.3906 13.938v4.4531q-2.7812-4.8438-7.125-7.2344t-10.406-2.3906q-10.047 0-16.203 7.6562-6.1562 7.6719-6.1562 20.328 0 12.688 6.1562 20.344 6.1562 7.6719 16.203 7.6719 6.0625 0 10.406-2.3906t7.125-7.2188v8.2969h8.9844z"/>
<path id="ah" d="m18.109 8.2031v-29h-9.0312v75.484h9.0312v-8.2969q2.8438 4.875 7.1562 7.2344 4.3281 2.375 10.328 2.375 9.9688 0 16.188-7.9062 6.2344-7.9062 6.2344-20.797t-6.2344-20.812q-6.2188-7.9062-16.188-7.9062-6 0-10.328 2.375-4.3125 2.375-7.1562 7.25zm30.578 19.094q0 9.9062-4.0781 15.547t-11.203 5.6406q-7.1406 0-11.219-5.6406t-4.0781-15.547 4.0781-15.547 11.219-5.6406q7.125 0 11.203 5.6406t4.0781 15.547z"/>
<path id="af" d="m4.2031 54.688h8.9844l11.234-42.672 11.172 42.672h10.594l11.234-42.672 11.188 42.672h8.9844l-14.312-54.688h-10.594l-11.766 44.828-11.812-44.828h-10.609z"/>
<path id="aw" d="m4.8906 31.391h26.312v-8h-26.312z"/>
<path id="ai" d="m54.891 33.016v-33.016h-8.9844v32.719q0 7.7656-3.0312 11.609-3.0312 3.8594-9.0781 3.8594-7.2812 0-11.484-4.6406-4.2031-4.625-4.2031-12.641v-30.906h-9.0312v54.688h9.0312v-8.5q3.2344 4.9375 7.5938 7.375 4.375 2.4375 10.094 2.4375 9.4219 0 14.25-5.8281 4.8438-5.8281 4.8438-17.156z"/>
</defs>
<g transform="translate(209.62 403.92) scale(.1 -.1)">
<use xlink:href="#t"/>
<use x="68.408203" xlink:href="#ak"/>
<use x="131.884766" xlink:href="#e"/>
<use x="193.408203" xlink:href="#DejaVuSans-20"/>
<use x="225.195312" xlink:href="#x"/>
<use x="264.208984" xlink:href="#ah"/>
<use x="327.685547" xlink:href="#n"/>
<use x="388.867188" xlink:href="#af"/>
<use x="470.654297" xlink:href="#e"/>
<use x="532.177734" xlink:href="#i"/>
<use x="573.197266" xlink:href="#aw"/>
<use x="609.296875" xlink:href="#n"/>
<use x="670.478516" xlink:href="#ai"/>
<use x="733.857422" xlink:href="#DejaVuSans-20"/>
<use x="765.644531" xlink:href="#q"/>
<use x="824.824219" xlink:href="#e"/>
<use x="886.347656" xlink:href="#k"/>
<use x="947.626953" xlink:href="#i"/>
<use x="988.740234" xlink:href="#j"/>
<use x="1040.839844" xlink:href="#w"/>
</g>
<path d="m40.603 375.64h446.02" clip-path="url(#c)" fill="none" stroke="#b0b0b0" stroke-linecap="square" stroke-width=".8"/>
<use x="40.603125" y="375.64" stroke="#000000" stroke-width=".8" xlink:href="#d"/>
<g transform="translate(27.241 379.44) scale(.1 -.1)">
<use xlink:href="#f"/>
</g>
<path d="m40.603 328.36h446.02" clip-path="url(#c)" fill="none" stroke="#b0b0b0" stroke-linecap="square" stroke-width=".8"/>
<use x="40.603125" y="328.364202" stroke="#000000" stroke-width=".8" xlink:href="#d"/>
<g transform="translate(27.241 332.16) scale(.1 -.1)">
<use xlink:href="#v"/>
</g>
<path d="m40.603 281.09h446.02" clip-path="url(#c)" fill="none" stroke="#b0b0b0" stroke-linecap="square" stroke-width=".8"/>
<use x="40.603125" y="281.088405" stroke="#000000" stroke-width=".8" xlink:href="#d"/>
<defs>
<path id="au" d="m31.781 34.625q-7.0312 0-11.062-3.7656-4.0156-3.7656-4.0156-10.344 0-6.5938 4.0156-10.359 4.0312-3.7656 11.062-3.7656t11.078 3.7812q4.0625 3.7969 4.0625 10.344 0 6.5781-4.0312 10.344-4.0156 3.7656-11.109 3.7656zm-9.8594 4.1875q-6.3438 1.5625-9.8906 5.9062-3.5312 4.3594-3.5312 10.609 0 8.7344 6.2188 13.812 6.2344 5.0781 17.062 5.0781 10.891 0 17.094-5.0781t6.2031-13.812q0-6.25-3.5469-10.609-3.5312-4.3438-9.8281-5.9062 7.125-1.6562 11.094-6.5 3.9844-4.8281 3.9844-11.797 0-10.609-6.4688-16.281-6.4688-5.6562-18.531-5.6562-12.047 0-18.531 5.6562-6.4688 5.6719-6.4688 16.281 0 6.9688 4 11.797 4.0156 4.8438 11.141 6.5zm-3.6094 15.578q0-5.6562 3.5312-8.8281 3.5469-3.1719 9.9375-3.1719 6.3594 0 9.9375 3.1719 3.5938 3.1719 3.5938 8.8281 0 5.6719-3.5938 8.8438-3.5781 3.1719-9.9375 3.1719-6.3906 0-9.9375-3.1719-3.5312-3.1719-3.5312-8.8438z"/>
</defs>
<g transform="translate(27.241 284.89) scale(.1 -.1)">
<use xlink:href="#au"/>
</g>
<path d="m40.603 233.81h446.02" clip-path="url(#c)" fill="none" stroke="#b0b0b0" stroke-linecap="square" stroke-width=".8"/>
<use x="40.603125" y="233.812607" stroke="#000000" stroke-width=".8" xlink:href="#d"/>
<g transform="translate(20.878 237.61) scale(.1 -.1)">
<use xlink:href="#g"/>
<use x="63.623047" xlink:href="#m"/>
</g>
<path d="m40.603 186.54h446.02" clip-path="url(#c)" fill="none" stroke="#b0b0b0" stroke-linecap="square" stroke-width=".8"/>
<use x="40.603125" y="186.536809" stroke="#000000" stroke-width=".8" xlink:href="#d"/>
<g transform="translate(20.878 190.34) scale(.1 -.1)">
<use xlink:href="#g"/>
<use x="63.623047" xlink:href="#u"/>
</g>
<defs>
<path id="ar" d="m9.8125 72.906h41.891v-8.3125h-32.031v-21.484h28.906v-8.2969h-28.906v-34.812h-9.8594z"/>
<path id="ao" d="m44.391 34.188q3.1719-1.0781 6.1719-4.5938t6.0312-9.6719l10.016-19.922h-10.609l-9.3125 18.703q-3.625 7.3281-7.0156 9.7188t-9.25 2.3906h-10.75v-30.812h-9.8594v72.906h22.266q12.5 0 18.656-5.2344 6.1562-5.2188 6.1562-15.766 0-6.8906-3.2031-11.438-3.2031-4.5312-9.2969-6.2812zm-24.719 30.609v-25.875h12.406q7.125 0 10.766 3.2969t3.6406 9.6875-3.6406 9.6406-10.766 3.25z"/>
<path id="ax" d="m72.703 32.078q-4.25 0-6.6719-3.6094-2.4062-3.6094-2.4062-10.062 0-6.3438 2.4062-9.9844 2.4219-3.6406 6.6719-3.6406 4.1562 0 6.5625 3.6406 2.4219 3.6406 2.4219 9.9844 0 6.4062-2.4219 10.031-2.4062 3.6406-6.5625 3.6406zm0 6.2031q7.7188 0 12.25-5.375 4.5469-5.3594 4.5469-14.5 0-9.125-4.5625-14.484-4.5625-5.3438-12.234-5.3438-7.8125 0-12.359 5.3438-4.5312 5.3594-4.5312 14.484 0 9.1875 4.5625 14.531t12.328 5.3438zm-50.391 29.734q-4.2031 0-6.625-3.6406-2.4062-3.625-2.4062-9.9844 0-6.4375 2.3906-10.062 2.3906-3.6094 6.6406-3.6094t6.6562 3.6094q2.4219 3.625 2.4219 10.062 0 6.2969-2.4375 9.9531-2.4375 3.6719-6.6406 3.6719zm44.094 6.2031h7.8125l-45.609-75.641h-7.8125zm-44.094 0q7.7188 0 12.297-5.3438 4.5938-5.3438 4.5938-14.484 0-9.2188-4.5625-14.547t-12.328-5.3281-12.281 5.3438q-4.5156 5.3594-4.5156 14.531 0 9.0938 4.5312 14.453 4.5469 5.375 12.266 5.375z"/>
</defs>
<g transform="translate(14.798 334.34) rotate(-90) scale(.1 -.1)">
<use xlink:href="#ar"/>
<use x="57.378906" xlink:href="#k"/>
<use x="118.658203" xlink:href="#l"/>
<use x="146.441406" xlink:href="#s"/>
<use x="174.224609" xlink:href="#y"/>
<use x="237.603516" xlink:href="#i"/>
<use x="278.685547" xlink:href="#e"/>
<use x="340.208984" xlink:href="#DejaVuSans-20"/>
<use x="371.996094" xlink:href="#ao"/>
<use x="441.447266" xlink:href="#k"/>
<use x="502.726562" xlink:href="#r"/>
<use x="541.935547" xlink:href="#e"/>
<use x="603.458984" xlink:href="#DejaVuSans-20"/>
<use x="635.246094" xlink:href="#x"/>
<use x="674.259766" xlink:href="#ax"/>
<use x="769.279297" xlink:href="#ad"/>
<use x="802.970703" xlink:href="#q"/>
<use x="862.150391" xlink:href="#e"/>
<use x="923.673828" xlink:href="#k"/>
<use x="984.953125" xlink:href="#i"/>
<use x="1026.066406" xlink:href="#w"/>
</g>
<path d="m49.618 199.79 1.3026 7.4254 1.7369 11.87 1.7369 12.483 2.1711 17.619 3.4737 27.711 1.7369 11.731 1.3026 7.3231 1.0855 5.1007 0.86843 3.2197 0.86843 2.4993 0.65132 1.3589 1.3026 1.9217 1.954 2.4566 1.954 2.127 3.9079 3.7368 4.9935 3.8631 0.43422 0.099234 0.65132-0.14089 0.65132-0.44816 0.65132-0.73113 0.86843-1.3632 1.0855-2.197 1.3026-3.1911 1.954-5.4897 4.5593-13.071 1.3026-2.9993 1.0855-2.0231 0.86843-1.2359 0.86843-0.87127 0.65132-0.39587 0.86843-0.1816 0.43422-0.15964 0.43422-0.35878 0.65132-0.88212 0.65132-1.2549 0.86843-2.1827 1.0855-3.4108 1.5198-5.7034 3.0395-12.732 0.86843-3.9777 0.65132-4.1445 0.86843-7.1666 1.0855-11.111 2.3882-25.946 0.65132-3.7677 0.43422-1.5577 0.43422-0.82495 0.21711-0.14108 0.21711 0.048414 0.21711 0.23569 0.43422 1.0242 0.65132 2.6461 0.65132 3.4438 0.86843 6.0861 0.86843 7.7026 1.0855 11.833 1.5198 19.538 1.7369 25.455 3.9079 59.623 0.86843 8.8454 0.65132 4.7962 0.65132 3.0761 0.43422 1.0385 0.21711 0.20489 6.5132 1.4138 3.6908 0.55947 5.2106 0.59081 3.9079 0.32673 17.803 1.072 10.421 0.40835 0.65132-0.30926 0.86843-0.71969 0.86843-1.0321 1.0855-1.6708 1.3026-2.4593 1.5198-3.3624 5.8619-13.476 1.3026-2.2615 1.0855-1.4194 0.86843-0.80531 0.86843-0.47059 0.65132-0.079787 0.65132 0.15034 2.8224 0.85423 1.5198 0.15649 1.954-0.075912 1.7369-0.33313 4.125-0.9402 2.6053-0.22718 1.954 1.6648 1.954 1.8683 1.3026 1.5741 1.7369 2.393 1.0855 2.0746 1.954 3.9837 1.0855 4.0617 1.5198 4.5542 3.0395 7.3602 1.0855 1.7258 1.5198 2.0302 1.3026 1.3608 1.3026 1.0637 1.5198 0.96198 1.0855 0.48647 0.86843 0.081757 1.0855-0.16322 0.65132-0.20914 1.954-3.0523 1.0855-2.5276 1.0855-2.0185 0.65132-1.1209 1.7369-4.0145 0.86843-1.3332 0.86843-0.87281 0.86843-0.52315 2.1711-0.82261 0.65132 0.072495 0.86843 0.36212 0.86843 0.6431 2.8224 2.7984 1.3026 1.6887 0.43422 0.43704 1.0855 0.95635 1.0855 0.98608 1.0855 0.92007 1.5198 1.3992 1.3026 0.59805 1.5198 0.99517 2.1711 1.5599 0.65132 0.022884 2.8224-0.14622 1.5198 0.090581 3.4737-0.39222 1.0855-0.4693 4.3422-2.3301 1.0855-0.41623 0.86843-0.11996 1.0855 0.087392 1.3026 0.10933 1.3026-0.4397 1.0855-0.34774 1.0855-0.12129 1.0855 0.098727 2.6053 0.54051 1.7369 0.55879 1.7369 0.38129 3.4737 0.77246 0.43422-0.11188 3.6908-1.7718 1.5198-1.5786 1.0855-0.7771 0.86843-0.38008 1.954-0.6283 4.7764-3.3627 0.86843-1.2056 1.7369-2.5576 4.125-4.5317 1.0855-0.59332 0.43422-0.48965 1.0855-1.4486 1.0855-1.042 0.65132-0.28638 0.65132-0.1749 0.86843-0.54792 0.86843-0.18211 0.65132 0.06525 0.65132 0.013223 1.5198-0.041709 0.65132 0.41889 1.5198 1.3931 0.43422 0.091616 0.21711-0.059846 1.0855-1.1935 1.0855-1.3493 0.86843-0.81935 0.65132-0.35351 0.86843-0.38009 0.65132-0.4484 0.86843-0.30156 0.65132 0.08306 0.43422 0.019456 1.0855-0.18806 0.86843 0.21451 0.65132 0.51809 2.1711 2.5907 0.86843 1.7106 0.65132 1.3654 0.65132 0.82004 1.0855 1.376 2.3882 3.515 0.43422 0.49223 0.86843 0.16905 0.21711-0.032479 1.954-1.4494 0.65132-0.17572 0.65132-0.10213 0.65132-0.48914 2.6053-1.8949 1.0855-0.48745 0.43422-0.19433 0.86843-0.47746 0.65132-0.041297 0.65132 0.27985 0.65132 0.60156 0.65132 0.92384 3.4737 5.8564 0.43422 0.40747 1.954 1.2113 0.86843 0.51856 1.7369 0.3334 0.43422-0.12318 3.0395-2.0585 0.65132-0.355 0.65132-0.82433 1.3026-2.3324 1.954-4.133 1.3026-2.1242 0.65132-0.76655 0.65132-0.41809 0.65132-0.087074 1.5198 0.068503 0.43422 0.02421 0.65132-0.35466 0.86843-0.38881 1.3026-0.090642 0.65132 0.11336 0.86843 0.47648 2.1711 1.7818 0.65132 1.0145 1.0855 2.2204 1.0855 2.3475 0.65132 0.97529 2.1711 2.6533 2.6053 2.6701 0.86843 0.85194 2.3882 2.6581 0.43422 0.19027 1.7369 0.46582 0.43422-0.25591 0.86843-0.98651 1.5198-2.9145 1.0855-1.548 0.86843-0.88693 1.5198-1.075 0.86843-0.41456 2.1711-0.4666 0.86843-0.034325 0.65132 0.16327 0.65132 0.34713 1.3026 1.0482 1.7369 1.5022 0.86843 0.046899 0.86843 0.31014 2.3882 1.2267 0.65132 0.08679 1.0855-0.80934 0.86843-0.43054 0.86843-0.1823 0.86843 0.041016 1.3026 0.19476 1.0855 0.1013 0.65132 0.098533 0.65132-0.24977 1.0855-0.45886 1.0855-0.23248 0.86843 0.028585 0.65132 0.22811 0.86843 0.60031 0.86843 0.59858 0.65132 0.15586 2.3882 0.15193 2.3882-1.4325 1.0855-0.40251 2.8224-0.85558 0.86843-0.56532 0.86843-0.84229 0.65132-0.86991 0.43422-1.0325 1.5198-5.2712 4.125-14.712 1.954-5.4052 0.86843-1.9161 0.65132-0.85218 0.43422-0.36826 0.43422 0.17801 0.43422 0.51317 0.43422 0.82108 0.65132 1.8048 0.65132 2.4775 0.65132 3.2569 0.86843 6.3341 1.0855 9.7038 1.954 18.266 0.86843 6.1809 0.43422 1.3098h1.5198v0" clip-path="url(#c)" fill="none" stroke="#d2691e" stroke-linecap="square" stroke-width="1.5"/>
<path d="m40.603 375.64v-189.1" fill="none" stroke="#000" stroke-linecap="square" stroke-width=".8"/>
<path d="m486.62 375.64v-189.1" fill="none" stroke="#000" stroke-linecap="square" stroke-width=".8"/>
<path d="m40.603 375.64h446.02" fill="none" stroke="#000" stroke-linecap="square" stroke-width=".8"/>
<path d="m40.603 186.54h446.02" fill="none" stroke="#000" stroke-linecap="square" stroke-width=".8"/>
<defs>
<path id="ap" d="m9.8125 72.906h14.703l18.594-49.609 18.703 49.609h14.703v-72.906h-9.625v64.016l-18.797-50h-9.9062l-18.797 50v-64.016h-9.5781z"/>
<path id="at" d="m11.719 12.406h10.297v-12.406h-10.297zm0 39.297h10.297v-12.391h-10.297z"/>
<path id="ab" d="m9.8125 72.906h9.8594v-29.891h35.844v29.891h9.8594v-72.906h-9.8594v34.719h-35.844v-34.719h-9.8594z"/>
<path id="al" d="m48.781 52.594v-8.4062q-3.8125 2.1094-7.6406 3.1562t-7.7344 1.0469q-8.75 0-13.594-5.5469-4.8281-5.5312-4.8281-15.547t4.8281-15.562q4.8438-5.5312 13.594-5.5312 3.9062 0 7.7344 1.0469t7.6406 3.1562v-8.3125q-3.7656-1.75-7.7969-2.625-4.0156-0.89062-8.5625-0.89062-12.359 0-19.641 7.7656-7.2656 7.7656-7.2656 20.953 0 13.375 7.3438 21.031 7.3594 7.6719 20.156 7.6719 4.1406 0 8.0938-0.85938 3.9531-0.84375 7.6719-2.5469z"/>
<path id="aj" d="m54.891 33.016v-33.016h-8.9844v32.719q0 7.7656-3.0312 11.609-3.0312 3.8594-9.0781 3.8594-7.2812 0-11.484-4.6406-4.2031-4.625-4.2031-12.641v-30.906h-9.0312v75.984h9.0312v-29.797q3.2344 4.9375 7.5938 7.375 4.375 2.4375 10.094 2.4375 9.4219 0 14.25-5.8281 4.8438-5.8281 4.8438-17.156z"/>
<path id="as" d="m19.672 64.797v-56.688h11.922q15.094 0 22.094 6.8281 7 6.8438 7 21.594 0 14.641-7 21.453t-22.094 6.8125zm-9.8594 8.1094h20.266q21.188 0 31.094-8.8125 9.9219-8.8125 9.9219-27.562 0-18.859-9.9688-27.703-9.9531-8.8281-31.047-8.8281h-20.266z"/>
<path id="an" d="m53.516 70.516v-9.625q-5.6094 2.6875-10.594 4-4.9844 1.3281-9.625 1.3281-8.0469 0-12.422-3.125t-4.375-8.8906q0-4.8438 2.9062-7.3125 2.9062-2.4531 11.016-3.9688l5.9531-1.2188q11.031-2.1094 16.281-7.4062t5.25-14.172q0-10.609-7.1094-16.078-7.0938-5.4688-20.812-5.4688-5.1719 0-11.016 1.1719-5.8281 1.1719-12.078 3.4688v10.156q6-3.3594 11.766-5.0781 5.7656-1.7031 11.328-1.7031 8.4375 0 13.031 3.3125 4.5938 3.3281 4.5938 9.4844 0 5.3594-3.2969 8.3906t-10.812 4.5469l-6.0156 1.1719q-11.031 2.1875-15.969 6.875-4.9219 4.6875-4.9219 13.047 0 9.6719 6.8125 15.234t18.766 5.5625q5.1406 0 10.453-0.9375 5.3281-0.92188 10.891-2.7656z"/>
<path id="av" d="m8.2031 72.906h46.875v-4.2031l-26.469-68.703h-10.297l24.906 64.594h-35.016z"/>
<path id="aq" d="m9.8125 72.906h9.8594v-64.609h35.5v-8.2969h-45.359z"/>
</defs>
<g transform="translate(144.26 16.318) scale(.12 -.12)">
<use xlink:href="#ap"/>
<use x="86.279297" xlink:href="#n"/>
<use x="147.460938" xlink:href="#o"/>
<use x="210.9375" xlink:href="#e"/>
<use x="272.460938" xlink:href="#s"/>
<use x="300.244141" xlink:href="#at"/>
<use x="333.935547" xlink:href="#DejaVuSans-20"/>
<use x="365.722656" xlink:href="#ab"/>
<use x="440.917969" xlink:href="#l"/>
<use x="468.701172" xlink:href="#r"/>
<use x="507.910156" xlink:href="#k"/>
<use x="569.189453" xlink:href="#al"/>
<use x="624.169922" xlink:href="#aj"/>
<use x="687.548828" xlink:href="#l"/>
<use x="715.332031" xlink:href="#DejaVuSans-20"/>
<use x="747.119141" xlink:href="#ab"/>
<use x="822.314453" xlink:href="#as"/>
<use x="899.316406" xlink:href="#an"/>
<use x="962.792969" xlink:href="#av"/>
<use x="1026.416016" xlink:href="#m"/>
<use x="1090.039062" xlink:href="#m"/>
<use x="1153.662109" xlink:href="#f"/>
<use x="1217.285156" xlink:href="#m"/>
<use x="1280.908203" xlink:href="#f"/>
<use x="1344.53125" xlink:href="#t"/>
<use x="1412.939453" xlink:href="#aq"/>
<use x="1468.683594" xlink:href="#t"/>
<use x="1537.091797" xlink:href="#p"/>
<use x="1600.714844" xlink:href="#p"/>
<use x="1664.337891" xlink:href="#f"/>
</g>
<defs>
<clipPath id="h">
<rect x="40.603" y="28.8" width="446.02" height="141.83"/>
</clipPath>
<clipPath id="c">
<rect x="40.603" y="186.54" width="446.02" height="189.1"/>
</clipPath>
</defs>
</svg>
