<?xml version="1.0" encoding="UTF-8"?>
<!DOCTYPE svg  PUBLIC '-//W3C//DTD SVG 1.1//EN'  'http://www.w3.org/Graphics/SVG/1.1/DTD/svg11.dtd'>
<svg width="497pt" height="413pt" version="1.1" viewBox="0 0 497 413" xmlns="http://www.w3.org/2000/svg" xmlns:xlink="http://www.w3.org/1999/xlink">
<defs>
<style type="text/css">*{stroke-linecap:butt;stroke-linejoin:round;}</style>
</defs>
<path d="m0 413.2h497.32v-413.2h-497.32z" fill="#fff"/>
<path d="m40.603 170.63h446.02v-141.83h-446.02z" fill="#fff"/>
<defs>
<path id="ad" d="m52.311-235.45v-77.25l0.2185-0.09754 0.21851-0.088799 0.21851-0.067743 0.2185-0.064134 0.21851-0.050703 0.2185-0.01314 0.21851-0.010953 0.2185-0.005844 0.21851-0.004038 0.2185-0.003217 0.21851-0.002397 0.2185-0.001772 0.21851-0.001624 0.65552 0.001432 2.4036 0.004943 1.0925 0.002177 0.21851 4.21e-4 0.2185 4.1e-4 0.21851 3.97e-4 0.2185 3.99e-4 2.4036 0.004745 0.43701 8.38e-4 0.21851 4.02e-4 1.748 0.002898 0.87402 0.001389 0.87402 0.001315 0.2185 3.36e-4 0.21851 3.17e-4 0.65552 9.07e-4 0.43701 6.08e-4 0.43701 6.12e-4 0.65552 9.25e-4 0.43701 6.21e-4 0.65552 9.38e-4 0.65552 9.46e-4 0.43701 6.35e-4 0.2185 3.22e-4 0.21851 3.35e-4 0.2185 3.48e-4 0.21851 3.59e-4 0.2185 3.67e-4 0.21851 3.7e-4 0.2185 3.74e-4 0.21851 3.79e-4 0.2185 3.82e-4 0.21851 3.87e-4 0.21851 3.91e-4 0.2185 3.95e-4 0.21851 3.99e-4 0.2185 4.02e-4 0.21851 4.04e-4 0.2185 4.06e-4 0.21851 4.08e-4 0.2185 4.1e-4 0.21851 4.12e-4 0.2185 4.14e-4 2.4035 0.004573 0.21851 3.9e-4 6.9922 0.011335 0.21851 3.58e-4 0.2185 3.62e-4 0.21851 3.66e-4 0.2185 3.7e-4 0.21851 3.73e-4 0.21851 3.77e-4 0.87402 0.001517 0.87402 0.001526 1.311 0.002303 0.21851 3.68e-4 0.2185 3.55e-4 0.65552 0.001031 0.2185 3.45e-4 0.43701 6.95e-4 0.21851 3.5e-4 0.21851 3.52e-4 0.43701 7.09e-4 0.2185 3.57e-4 0.43701 7.19e-4 0.21851 3.62e-4 1.748 0.002921 0.21851 3.52e-4 0.2185 3.4e-4 1.5295 0.00223 1.0925 0.001515 0.2185 3.05e-4 0.43701 6.15e-4 0.43701 6.23e-4 0.21851 3.18e-4 0.2185 3.28e-4 0.21851 3.39e-4 0.21851 3.52e-4 0.2185 3.73e-4 0.21851 3.92e-4 1.5295 0.002783 1.311 0.002392 2.622 0.004803 8.5217 0.015401 6.9922 0.011624 1.0925 0.001721 0.21851 3.32e-4 0.2185 3.19e-4 0.21851 3.08e-4 0.21851 2.95e-4 0.2185 2.77e-4 4.3701 0.005097 2.1851 0.002567 3.7146 0.004311 7.4292 0.008018 0.87402 8.91e-4 0.21851 2.27e-4 0.2185 2.33e-4 0.21851 2.4e-4 0.2185 2.46e-4 2.6221 0.003006 10.488 0.010905 1.5295 0.001487 0.2185 2.29e-4 0.21851 2.5e-4 0.2185 2.59e-4 0.21851 2.63e-4 0.2185 2.69e-4 0.21851 2.75e-4 0.2185 2.79e-4 0.21851 2.85e-4 0.2185 2.91e-4 0.21851 2.94e-4 0.21851 2.97e-4 0.2185 2.99e-4 0.21851 3.01e-4 0.2185 3.03e-4 0.21851 3.06e-4 0.2185 3.08e-4 0.21851 3.1e-4 0.2185 3.12e-4 0.21851 3.15e-4 0.2185 3.17e-4 0.21851 3.19e-4 0.21851 3.22e-4 0.2185 3.27e-4 0.21851 3.54e-4 3.059 0.005205 0.65552 0.001041 2.4035 0.003683 0.2185 3.39e-4 0.21851 3.67e-4 0.2185 4.34e-4 0.21851 4.37e-4 0.2185 4.39e-4 0.21851 4.41e-4 0.21851 4.43e-4 0.2185 4.45e-4 0.43701 8.97e-4 0.21851 4.52e-4 0.2185 4.54e-4 0.21851 4.56e-4 0.2185 4.58e-4 0.21851 4.6e-4 0.2185 4.62e-4 0.21851 5.18e-4 0.21851 5.26e-4 0.2185 5.34e-4 0.21851 5.42e-4 0.2185 5.5e-4 7.4292 0.018808 0.2185 5.31e-4 0.65552 0.001501 0.2185 4.89e-4 0.21851 4.93e-4 0.2185 4.96e-4 0.21851 4.99e-4 2.1851 0.004978 1.0925 0.002409 0.21851 4.48e-4 3.4961 0.006884 0.21851 4.34e-4 0.2185 4.39e-4 0.21851 4.43e-4 0.2185 4.47e-4 0.21851 4.51e-4 0.2185 4.56e-4 0.21851 4.6e-4 1.311 0.002793 0.21851 4.36e-4 2.6221 0.004311 0.43701 6.94e-4 0.43701 5.75e-4 0.43701 5.45e-4 8.7402 0.009969 0.43701 4.56e-4 0.43701 4.19e-4 3.0591 0.002723 1.0925 9.83e-4 1.0925 9.92e-4 3.2776 0.002994 0.2185 2.01e-4 0.21851 2.07e-4 0.2185 2.12e-4 0.21851 2.18e-4 0.2185 2.24e-4 0.21851 2.29e-4 0.2185 2.35e-4 0.21851 2.41e-4 0.2185 2.45e-4 0.21851 2.51e-4 0.2185 2.56e-4 0.21851 2.6e-4 0.21851 2.66e-4 0.2185 2.71e-4 12.455 0.01461 3.4961 0.00381 0.87402 8.98e-4 2.4036 0.003541 1.0925 0.001512 0.65552 8.56e-4 0.65552 8.05e-4 1.9666 0.00224 0.2185 2.55e-4 0.21851 2.7e-4 0.2185 2.85e-4 0.21851 3e-4 0.43701 6.09e-4 0.65552 9.22e-4 0.43701 6.19e-4 0.65552 9.37e-4 0.43701 6.29e-4 0.43701 6.33e-4 0.43701 6.37e-4 0.65552 9.62e-4 0.43701 6.47e-4 0.65552 9.77e-4 0.65552 9.86e-4 0.65552 9.95e-4 0.43701 6.68e-4 0.65552 0.001009 0.43701 6.77e-4 0.65552 0.001022 0.43701 6.86e-4 0.65552 0.001036 0.43701 6.95e-4 0.43701 6.98e-4 0.43701 7.02e-4 0.65552 0.00106 0.43701 7.11e-4 0.65552 0.001073 0.43701 7.2e-4 0.65552 0.001087 0.21851 3.65e-4 0.21851 3.68e-4 0.2185 3.72e-4 0.21851 3.74e-4 0.2185 3.78e-4 0.21851 3.81e-4 0.2185 3.84e-4 0.21851 3.87e-4 0.2185 2.88e-4 0.43701 5.81e-4 0.21851 2.93e-4 0.21851 2.95e-4 0.65552 8.92e-4 0.87402 0.001198 0.87402 0.00121 0.65552 9.14e-4 1.5295 0.002148 0.65552 8.69e-4 0.65552 8.13e-4 0.21851 2.51e-4 0.2185 2.37e-4 7.4292 0.007175 0.2185 2.15e-4 0.21851 2.23e-4 0.2185 2.31e-4 0.21851 2.39e-4 6.9922 0.007872 0.43701 4.69e-4 0.21851 2.41e-4 0.2185 2.47e-4 0.21851 2.55e-4 4.3701 0.005063 0.87402 9.61e-4 0.65552 7.25e-4 1.0925 0.001217 0.21851 2.47e-4 0.2185 2.52e-4 0.21851 2.57e-4 0.2185 2.63e-4 0.21851 2.68e-4 0.2185 2.73e-4 0.21851 2.78e-4 0.21851 2.84e-4 0.43701 5.74e-4 0.87402 0.001158 0.65552 8.75e-4 0.43701 5.87e-4 0.87402 0.001182 0.87402 0.001193 1.748 0.002404 0.43701 5.63e-4 7.8662 0.009388 0.43701 4.86e-4 0.65552 6.89e-4 0.21851 2.31e-4 0.21851 2.33e-4 0.43701 4.71e-4 0.43701 4.77e-4 0.2185 2.41e-4 0.21851 2.47e-4 0.2185 2.65e-4 0.21851 2.83e-4 0.2185 2.92e-4 0.21851 2.96e-4 0.2185 3e-4 0.21851 3.04e-4 0.21851 3.09e-4 0.2185 3.12e-4 0.21851 3.16e-4 0.2185 3.21e-4 0.21851 3.24e-4 0.2185 3.27e-4 0.21851 3.3e-4 0.43701 6.65e-4 0.2185 3.36e-4 0.43701 6.79e-4 0.2185 3.42e-4 1.311 0.002069 0.21851 3.99e-4 0.2185 4.11e-4 0.21851 4.22e-4 0.2185 4.43e-4 8.7402 0.018372 0.65552 0.001385 0.65552 0.001391 0.65552 0.001396 0.65552 0.001401 0.87402 0.001877 0.43701 9.43e-4 0.2185 4.78e-4 0.21851 4.87e-4 0.21851 4.95e-4 0.2185 5.03e-4 0.21851 5.1e-4 0.2185 5.25e-4 0.21851 5.46e-4 0.43701 0.001118 0.43701 0.001122 0.43701 0.001127 0.65552 0.001699 0.65552 0.001709 0.21851 5.73e-4 0.87402 0.002217 0.2185 5.68e-4 3.2776 0.008774 1.0925 0.002855 0.21851 5.07e-4 0.2185 4.91e-4 0.21851 4.75e-4 0.2185 4.51e-4 0.21851 4.29e-4 0.43701 8.63e-4 0.43701 8.67e-4 0.43701 8.73e-4 0.43701 8.78e-4 0.43701 8.84e-4 0.43701 8.89e-4 0.2185 4.47e-4 0.21851 4.51e-4 0.2185 4.54e-4 0.21851 4.58e-4 0.2185 4.62e-4 0.21851 4.66e-4 0.2185 4.69e-4 0.21851 4.73e-4 0.2185 4.77e-4 0.21851 4.81e-4 0.2185 4.84e-4 0.21851 4.86e-4 0.21851 4.88e-4 0.43701 9.85e-4 0.2185 4.96e-4 0.43701 9.99e-4 0.43701 0.001009 0.21851 5.08e-4 0.2185 5.1e-4 0.43701 0.001025 0.87402 0.002057 0.43701 0.001031 1.311 0.003105 0.65552 0.001559 0.87402 0.002085 0.2185 5.23e-4 1.5295 0.003702 0.43701 0.001006 1.5295 0.00351 0.87402 0.001933 0.43701 9.32e-4 0.43701 8.99e-4 0.21851 4.36e-4 0.2185 4.18e-4 2.6221 0.004446 2.4036 0.003852 2.1851 0.003303 1.0925 0.001578 0.21851 4.47e-4 0.2185 4.65e-4 0.21851 4.67e-4 0.2185 4.69e-4 0.21851 4.72e-4 0.2185 4.74e-4 0.65552 0.001433 0.65552 0.001438 0.43701 9.63e-4 0.43701 9.66e-4 0.43701 9.7e-4 0.2185 4.95e-4 0.21851 5.11e-4 0.2185 5.28e-4 0.21851 5.44e-4 0.2185 5.61e-4 0.21851 5.8e-4 0.21851 5.97e-4 0.2185 6.16e-4 0.21851 6.34e-4 0.2185 6.51e-4 0.21851 0.00286 0.2185 0.005075 0.21851 0.005275 0.2185 0.014199 0.21851 0.014225 0.2185 0.01425 0.21851 0.014277 0.21851 0.014304 0.2185 0.014329 0.21851 0.014374 0.2185 0.01447 0.21851 0.014566 0.2185 0.0257 0.21851 0.02577 0.2185 0.02584 0.21851 0.025903 0.2185 0.025968 0.21851 0.026031 0.2185 0.026096 0.21851 0.026161 0.21851 0.026226 0.2185 0.026291 0.21851 0.026356 0.2185 0.026423 0.21851 0.026489 0.2185 0.026557 0.21851 0.031361 0.2185 0.035433 0.21851 0.07244 0.2185 0.072964 0.21851 0.073495 0.21851 0.074033 0.2185 0.074579 0.21851 0.075134 0.2185 0.075873 0.21851 0.076463 0.2185 0.07706 0.21851 0.080217 0.2185 0.080872 0.21851 0.081539 0.2185 0.082215 0.21851 0.082904 0.2185 0.083604 0.21851 0.084315 0.21851 0.085038 0.2185 0.085774 0.21851 0.086522 0.2185 0.087283 0.21851 0.088058 0.2185 0.093822 0.21851 0.095275 0.2185 0.096174 0.21851 0.09709 0.2185 0.098024 0.21851 0.098977 0.21851 0.099947 0.2185 0.10094 0.21851 0.10195 0.2185 0.10303 0.21851 0.10434 0.2185 0.10858 0.21851 0.11033 0.2185 0.11212 0.21851 0.11502 0.2185 0.11648 0.21851 0.11797 0.2185 0.1195 0.21851 0.12106 0.21851 0.12267 0.2185 0.12431 0.21851 0.126 0.2185 0.12774 0.21851 0.12952 0.2185 0.13134 0.21851 0.13479 0.2185 0.13667 0.21851 0.13861 0.2185 0.14116 0.21851 0.14378 0.21851 0.14625 0.2185 0.149 0.21851 0.1539 0.2185 0.16359 0.21851 0.16626 0.2185 0.16903 0.21851 0.17188 0.2185 0.17484 0.21851 0.1779 0.2185 0.18107 0.21851 0.18436 0.2185 0.18776 0.21851 0.19129 0.21851 0.19496 0.2185 0.19877 0.21851 0.20321 0.2185 0.21696 0.21851 0.22163 0.2185 0.22649 0.21851 0.23155 0.2185 0.23684 0.21851 0.24238 0.2185 0.24819 0.21851 0.25428 0.21851 0.26068 0.2185 0.26741 0.21851 0.2745 0.2185 0.28199 0.21851 0.28298 0.2185 0.28383 0.21851 0.29123 0.2185 0.26923 0.21851 0.27645 0.2185 0.28407 0.21851 0.29213 0.2185 0.30065 0.21851 0.30969 0.21851 0.31922 0.2185 0.32914 0.21851 0.3397 0.2185 0.30227 0.21851 0.3114 0.2185 0.32111 0.21851 0.33144 0.2185 0.34246 0.21851 0.35424 0.2185 0.36686 0.21851 0.38042 0.21851 0.39501 0.2185 0.41078 0.21851 0.42785 0.2185 0.44641 0.21851 0.46666 0.2185 0.48883 0.21851 0.47878 0.2185 0.472 0.21851 0.2068 0.2185 0.21098 0.21851 0.21534 0.2185 0.21988 0.21851 0.22461 0.21851 0.22956 0.2185 0.23325 0.21851 0.23846 0.2185 0.24391 0.21851 0.22723 0.2185 0.23215 0.21851 0.2373 0.2185 0.24268 0.21851 0.24832 0.2185 0.25424 0.21851 0.26044 0.21851 0.26697 0.2185 0.27384 0.21851 0.28107 0.2185 0.28871 0.21851 0.29678 0.2185 0.25152 0.21851 0.2514 0.2185 0.25762 0.21851 0.26417 0.2185 0.27105 0.21851 0.27831 0.2185 0.28597 0.21851 0.29406 0.21851 0.30264 0.2185 0.31105 0.21851 0.31739 0.2185 0.28577 0.21851 0.28608 0.2185 0.28619 0.21851 0.27154 0.2185 0.27675 0.21851 0.28219 0.2185 0.28787 0.21851 0.29382 0.21851 0.30005 0.2185 0.30659 0.21851 0.31345 0.2185 0.32066 0.21851 0.32825 0.2185 0.33626 0.21851 0.31834 0.2185 0.32696 0.21851 0.33612 0.2185 0.33596 0.21851 0.3354 0.2185 0.33441 0.21851 0.33295 0.21851 0.29246 0.2185 0.16037 0.21851 0.16217 0.2185 0.16402 0.21851 0.16591 0.2185 0.16786 0.21851 0.16986 0.2185 0.17191 0.21851 0.17401 0.2185 0.17618 0.21851 0.17841 0.21851 0.1807 0.2185 0.18306 0.21851 0.17653 2.1851 0.010815 2.4036 0.01191 3.9332 0.019519 3.2775 0.016294 2.1851 0.010877 3.9331 0.019608 3.7146 0.018553 3.7146 0.018587 0.21851 0.001141 0.21851 0.001188 0.2185 0.001235 0.21851 0.001281 0.2185 0.001329 0.21851 0.001376 0.2185 0.001422 0.21851 0.00147 0.2185 0.001517 0.21851 0.001564 0.2185 0.00161 0.21851 0.001658 0.21851 0.001705 0.2185 0.001753 0.21851 0.001799 0.2185 0.001846 0.21851 0.001894 0.2185 0.001941 0.21851 0.001989 0.2185 0.002035 0.21851 0.002083 0.2185 0.00213 0.21851 0.002178 0.2185 0.002225 0.21851 0.002272 0.21851 0.00232 0.2185 0.002368 0.21851 0.002415 0.2185 0.002462 0.21851 0.002511 0.2185 0.002558 0.21851 0.002605 0.2185 0.002653 0.21851 0.002701 0.2185 0.002749 0.21851 0.002797 0.21851 0.002844 0.2185 0.002892 0.21851 0.002941 0.2185 0.002988 0.21851 0.003036 0.2185 0.003085 0.21851 0.003132 0.2185 0.003181 0.21851 0.003229 0.2185 0.003277 0.21851 0.003325 0.2185 0.003374 0.21851 0.003422 0.21851 0.003471 0.2185 0.003519 0.21851 0.003567 0.2185 0.003616 0.21851 0.003665 0.2185 0.003714 0.21851 0.003762 0.2185 0.003811 0.21851 0.00386 0.2185 0.003909 0.21851 0.003957 0.21851 0.004007 0.2185 0.004056 0.21851 0.004105 0.2185 0.004154 0.21851 0.004203 0.2185 0.004253 0.21851 0.004302 0.2185 0.004351 0.21851 0.004401 0.2185 0.004451 0.21851 0.0045 0.2185 0.004549 0.21851 0.0046 0.21851 0.004649 0.2185 0.004699 0.21851 0.004749 0.2185 0.0048 0.21851 0.004849 0.2185 0.004899 0.21851 0.00495 0.2185 5e-3 0.21851 0.00505 0.2185 0.0051 0.21851 0.005152 0.21851 0.005201 0.2185 0.005253 0.21851 0.005303 0.2185 0.005354 0.21851 0.005405 0.2185 0.005456 0.21851 0.005507 0.2185 0.005558 0.21851 0.005609 0.2185 0.005661 0.21851 0.005711 0.2185 0.005764 0.21851 0.005815 0.21851 0.005866 0.2185 0.005919 0.21851 0.00597 0.2185 0.006022 0.21851 0.006074 0.2185 0.006126 0.21851 0.006178 0.2185 0.006231 0.21851 0.006283 0.2185 0.006335 0.21851 0.006339 0.21851 0.006344 0.2185 0.006347 0.21851 0.006351 0.2185 0.006355 0.21851 0.006359 0.2185 0.006363 0.21851 0.006367 0.2185 0.006371 0.21851 0.006375 0.2185 0.006378 0.21851 0.006383 0.2185 0.020648v37.937h-413.63z" stroke="#0766aa" stroke-opacity=".2"/>
</defs>
<g clip-path="url(#k)">
<use y="413.19625" fill="#0766aa" fill-opacity=".2" stroke="#0766aa" stroke-opacity=".2" xlink:href="#ad"/>
</g>
<path d="m40.603 170.63v-141.83" clip-path="url(#k)" fill="none" stroke="#b0b0b0" stroke-linecap="square" stroke-width=".8"/>
<defs>
<path id="g" d="m0 0v3.5" stroke="#000" stroke-width=".8"/>
</defs>
<use x="40.603125" y="170.627393" stroke="#000000" stroke-width=".8" xlink:href="#g"/>
<path d="m179.3 170.63v-141.83" clip-path="url(#k)" fill="none" stroke="#b0b0b0" stroke-linecap="square" stroke-width=".8"/>
<use x="179.302621" y="170.627393" stroke="#000000" stroke-width=".8" xlink:href="#g"/>
<path d="m318 170.63v-141.83" clip-path="url(#k)" fill="none" stroke="#b0b0b0" stroke-linecap="square" stroke-width=".8"/>
<use x="318.002116" y="170.627393" stroke="#000000" stroke-width=".8" xlink:href="#g"/>
<path d="m456.7 170.63v-141.83" clip-path="url(#k)" fill="none" stroke="#b0b0b0" stroke-linecap="square" stroke-width=".8"/>
<use x="456.701612" y="170.627393" stroke="#000000" stroke-width=".8" xlink:href="#g"/>
<defs>
<path id="d" d="m0 0h-3.5" stroke="#000" stroke-width=".8"/>
</defs>
<use x="40.603125" y="154.105211" stroke="#000000" stroke-width=".8" xlink:href="#d"/>
<defs>
<path id="f" d="m12.406 8.2969h16.109v55.625l-17.531-3.5156v8.9844l17.438 3.5156h9.8594v-64.609h16.109v-8.2969h-41.984z"/>
<path id="b" d="m31.781 66.406q-7.6094 0-11.453-7.5-3.8281-7.4844-3.8281-22.531 0-14.984 3.8281-22.484 3.8438-7.5 11.453-7.5 7.6719 0 11.5 7.5 3.8438 7.5 3.8438 22.484 0 15.047-3.8438 22.531-3.8281 7.5-11.5 7.5zm0 7.8125q12.266 0 18.734-9.7031 6.4688-9.6875 6.4688-28.141 0-18.406-6.4688-28.109-6.4688-9.6875-18.734-9.6875-12.25 0-18.719 9.6875-6.4688 9.7031-6.4688 28.109 0 18.453 6.4688 28.141 6.4688 9.7031 18.719 9.7031z"/>
</defs>
<g transform="translate(16.003 157.9) scale(.1 -.1)">
<use transform="translate(0 .68438)" xlink:href="#f"/>
<use transform="translate(63.623 .68438)" xlink:href="#b"/>
<use transform="translate(128.2 38.966) scale(.7)" xlink:href="#f"/>
</g>
<use x="40.603125" y="130.467312" stroke="#000000" stroke-width=".8" xlink:href="#d"/>
<defs>
<path id="s" d="m19.188 8.2969h34.422v-8.2969h-46.281v8.2969q5.6094 5.8125 15.297 15.594 9.7031 9.7969 12.188 12.641 4.7344 5.3125 6.6094 9 1.8906 3.6875 1.8906 7.25 0 5.8125-4.0781 9.4688-4.0781 3.6719-10.625 3.6719-4.6406 0-9.7969-1.6094-5.1406-1.6094-11-4.8906v9.9688q5.9531 2.3906 11.125 3.6094 5.1875 1.2188 9.4844 1.2188 11.328 0 18.062-5.6719 6.7344-5.6562 6.7344-15.125 0-4.5-1.6875-8.5312-1.6719-4.0156-6.125-9.4844-1.2188-1.4219-7.7656-8.1875-6.5312-6.7656-18.453-18.922z"/>
</defs>
<g transform="translate(16.003 134.27) scale(.1 -.1)">
<use transform="translate(0 .76562)" xlink:href="#f"/>
<use transform="translate(63.623 .76562)" xlink:href="#b"/>
<use transform="translate(128.2 39.047) scale(.7)" xlink:href="#s"/>
</g>
<use x="40.603125" y="106.829413" stroke="#000000" stroke-width=".8" xlink:href="#d"/>
<defs>
<path id="ab" d="m40.578 39.312q7.0781-1.5156 11.047-6.3125 3.9844-4.7812 3.9844-11.812 0-10.781-7.4219-16.703-7.4219-5.9062-21.094-5.9062-4.5781 0-9.4375 0.90625t-10.031 2.7188v9.5156q4.0938-2.3906 8.9688-3.6094 4.8906-1.2188 10.219-1.2188 9.2656 0 14.125 3.6562t4.8594 10.641q0 6.4531-4.5156 10.078-4.5156 3.6406-12.562 3.6406h-8.5v8.1094h8.8906q7.2656 0 11.125 2.9062t3.8594 8.375q0 5.6094-3.9844 8.6094-3.9688 3.0156-11.391 3.0156-4.0625 0-8.7031-0.89062-4.6406-0.875-10.203-2.7188v8.7812q5.625 1.5625 10.531 2.3438t9.25 0.78125q11.234 0 17.766-5.1094 6.5469-5.0938 6.5469-13.781 0-6.0625-3.4688-10.234t-9.8594-5.7812z"/>
</defs>
<g transform="translate(16.003 110.63) scale(.1 -.1)">
<use transform="translate(0 .76562)" xlink:href="#f"/>
<use transform="translate(63.623 .76562)" xlink:href="#b"/>
<use transform="translate(128.2 39.047) scale(.7)" xlink:href="#ab"/>
</g>
<use x="40.603125" y="83.191514" stroke="#000000" stroke-width=".8" xlink:href="#d"/>
<defs>
<path id="aa" d="m37.797 64.312-24.906-38.922h24.906zm-2.5938 8.5938h12.406v-47.516h10.406v-8.2031h-10.406v-17.188h-9.8125v17.188h-32.906v9.5156z"/>
</defs>
<g transform="translate(16.003 86.991) scale(.1 -.1)">
<use transform="translate(0 .68438)" xlink:href="#f"/>
<use transform="translate(63.623 .68438)" xlink:href="#b"/>
<use transform="translate(128.2 38.966) scale(.7)" xlink:href="#aa"/>
</g>
<use x="40.603125" y="59.553615" stroke="#000000" stroke-width=".8" xlink:href="#d"/>
<defs>
<path id="as" d="m10.797 72.906h38.719v-8.3125h-29.688v-17.859q2.1406 0.73438 4.2812 1.0938 2.1562 0.35938 4.3125 0.35938 12.203 0 19.328-6.6875 7.1406-6.6875 7.1406-18.109 0-11.766-7.3281-18.297-7.3281-6.5156-20.656-6.5156-4.5938 0-9.3594 0.78125-4.75 0.78125-9.8281 2.3438v9.9219q4.3906-2.3906 9.0781-3.5625t9.9062-1.1719q8.4531 0 13.375 4.4375 4.9375 4.4375 4.9375 12.062 0 7.6094-4.9375 12.047-4.9219 4.4531-13.375 4.4531-3.9531 0-7.8906-0.875-3.9219-0.875-8.0156-2.7344z"/>
</defs>
<g transform="translate(16.003 63.353) scale(.1 -.1)">
<use transform="translate(0 .68438)" xlink:href="#f"/>
<use transform="translate(63.623 .68438)" xlink:href="#b"/>
<use transform="translate(128.2 38.966) scale(.7)" xlink:href="#as"/>
</g>
<use x="40.603125" y="35.915717" stroke="#000000" stroke-width=".8" xlink:href="#d"/>
<defs>
<path id="r" d="m33.016 40.375q-6.6406 0-10.531-4.5469-3.875-4.5312-3.875-12.438 0-7.8594 3.875-12.438 3.8906-4.5625 10.531-4.5625t10.516 4.5625q3.875 4.5781 3.875 12.438 0 7.9062-3.875 12.438-3.875 4.5469-10.516 4.5469zm19.578 30.922v-8.9844q-3.7188 1.75-7.5 2.6719-3.7812 0.9375-7.5 0.9375-9.7656 0-14.922-6.5938-5.1406-6.5938-5.875-19.922 2.875 4.25 7.2188 6.5156 4.3594 2.2656 9.5781 2.2656 10.984 0 17.359-6.6719 6.375-6.6562 6.375-18.125 0-11.234-6.6406-18.031-6.6406-6.7812-17.672-6.7812-12.656 0-19.344 9.6875-6.6875 9.7031-6.6875 28.109 0 17.281 8.2031 27.562t22.016 10.281q3.7188 0 7.5-0.73438t7.8906-2.1875z"/>
</defs>
<g transform="translate(16.003 39.715) scale(.1 -.1)">
<use transform="translate(0 .76562)" xlink:href="#f"/>
<use transform="translate(63.623 .76562)" xlink:href="#b"/>
<use transform="translate(128.2 39.047) scale(.7)" xlink:href="#r"/>
</g>
<defs>
<path id="a" d="m0 0h-2" stroke="#000" stroke-width=".6"/>
</defs>
<use x="40.603125" y="170.627393" stroke="#000000" stroke-width=".6" xlink:href="#a"/>
<use x="40.603125" y="166.464966" stroke="#000000" stroke-width=".6" xlink:href="#a"/>
<use x="40.603125" y="163.511677" stroke="#000000" stroke-width=".6" xlink:href="#a"/>
<use x="40.603125" y="161.220927" stroke="#000000" stroke-width=".6" xlink:href="#a"/>
<use x="40.603125" y="159.349249" stroke="#000000" stroke-width=".6" xlink:href="#a"/>
<use x="40.603125" y="157.766768" stroke="#000000" stroke-width=".6" xlink:href="#a"/>
<use x="40.603125" y="156.39596" stroke="#000000" stroke-width=".6" xlink:href="#a"/>
<use x="40.603125" y="155.186822" stroke="#000000" stroke-width=".6" xlink:href="#a"/>
<use x="40.603125" y="146.989494" stroke="#000000" stroke-width=".6" xlink:href="#a"/>
<use x="40.603125" y="142.827067" stroke="#000000" stroke-width=".6" xlink:href="#a"/>
<use x="40.603125" y="139.873778" stroke="#000000" stroke-width=".6" xlink:href="#a"/>
<use x="40.603125" y="137.583029" stroke="#000000" stroke-width=".6" xlink:href="#a"/>
<use x="40.603125" y="135.71135" stroke="#000000" stroke-width=".6" xlink:href="#a"/>
<use x="40.603125" y="134.128869" stroke="#000000" stroke-width=".6" xlink:href="#a"/>
<use x="40.603125" y="132.758061" stroke="#000000" stroke-width=".6" xlink:href="#a"/>
<use x="40.603125" y="131.548923" stroke="#000000" stroke-width=".6" xlink:href="#a"/>
<use x="40.603125" y="123.351595" stroke="#000000" stroke-width=".6" xlink:href="#a"/>
<use x="40.603125" y="119.189168" stroke="#000000" stroke-width=".6" xlink:href="#a"/>
<use x="40.603125" y="116.235879" stroke="#000000" stroke-width=".6" xlink:href="#a"/>
<use x="40.603125" y="113.94513" stroke="#000000" stroke-width=".6" xlink:href="#a"/>
<use x="40.603125" y="112.073451" stroke="#000000" stroke-width=".6" xlink:href="#a"/>
<use x="40.603125" y="110.49097" stroke="#000000" stroke-width=".6" xlink:href="#a"/>
<use x="40.603125" y="109.120162" stroke="#000000" stroke-width=".6" xlink:href="#a"/>
<use x="40.603125" y="107.911024" stroke="#000000" stroke-width=".6" xlink:href="#a"/>
<use x="40.603125" y="99.713697" stroke="#000000" stroke-width=".6" xlink:href="#a"/>
<use x="40.603125" y="95.551269" stroke="#000000" stroke-width=".6" xlink:href="#a"/>
<use x="40.603125" y="92.59798" stroke="#000000" stroke-width=".6" xlink:href="#a"/>
<use x="40.603125" y="90.307231" stroke="#000000" stroke-width=".6" xlink:href="#a"/>
<use x="40.603125" y="88.435553" stroke="#000000" stroke-width=".6" xlink:href="#a"/>
<use x="40.603125" y="86.853071" stroke="#000000" stroke-width=".6" xlink:href="#a"/>
<use x="40.603125" y="85.482263" stroke="#000000" stroke-width=".6" xlink:href="#a"/>
<use x="40.603125" y="84.273125" stroke="#000000" stroke-width=".6" xlink:href="#a"/>
<use x="40.603125" y="76.075798" stroke="#000000" stroke-width=".6" xlink:href="#a"/>
<use x="40.603125" y="71.91337" stroke="#000000" stroke-width=".6" xlink:href="#a"/>
<use x="40.603125" y="68.960081" stroke="#000000" stroke-width=".6" xlink:href="#a"/>
<use x="40.603125" y="66.669332" stroke="#000000" stroke-width=".6" xlink:href="#a"/>
<use x="40.603125" y="64.797654" stroke="#000000" stroke-width=".6" xlink:href="#a"/>
<use x="40.603125" y="63.215172" stroke="#000000" stroke-width=".6" xlink:href="#a"/>
<use x="40.603125" y="61.844365" stroke="#000000" stroke-width=".6" xlink:href="#a"/>
<use x="40.603125" y="60.635226" stroke="#000000" stroke-width=".6" xlink:href="#a"/>
<use x="40.603125" y="52.437899" stroke="#000000" stroke-width=".6" xlink:href="#a"/>
<use x="40.603125" y="48.275471" stroke="#000000" stroke-width=".6" xlink:href="#a"/>
<use x="40.603125" y="45.322182" stroke="#000000" stroke-width=".6" xlink:href="#a"/>
<use x="40.603125" y="43.031433" stroke="#000000" stroke-width=".6" xlink:href="#a"/>
<use x="40.603125" y="41.159755" stroke="#000000" stroke-width=".6" xlink:href="#a"/>
<use x="40.603125" y="39.577273" stroke="#000000" stroke-width=".6" xlink:href="#a"/>
<use x="40.603125" y="38.206466" stroke="#000000" stroke-width=".6" xlink:href="#a"/>
<use x="40.603125" y="36.997328" stroke="#000000" stroke-width=".6" xlink:href="#a"/>
<use x="40.603125" y="28.8" stroke="#000000" stroke-width=".6" xlink:href="#a"/>
<path d="m52.311 130.08 1.311 0.40393 2.6221 0.9181 1.311 0.68325 1.0925 0.80128 1.5295 1.4725 1.0925 1.3091 1.0925 1.7231 1.0925 2.2436 0.65552 1.219 2.6221 2.3587 0.43701 0.05263 2.1851-0.49159 2.1851-0.25711 0.65552-0.1268 2.4036-1.0569 5.8996-2.6299 1.311-0.33862 1.311-0.13904 1.311 0.054398 3.0591 0.49021 1.311 0.39756 2.6221 0.93679 3.2776 1.0081 0.87402 0.28652 1.311 0.064664 1.311-0.13354 1.0925-0.38842 1.748-0.75409 1.311-0.32914 1.5295-0.13689 1.5295 0.11936 1.311 0.31227 1.311 0.52464 1.5295 0.62852 1.5295 0.30822 1.5295 0.40075 1.5295 0.60586 3.7146 1.8704 2.1851 1.3409 2.1851 1.4056 1.311 0.39701 1.5295 0.57814 1.5295 0.83124 1.5295 1.1182 1.311 1.2325 1.311 1.5534 2.8406 3.7236 0.87402 0.65579 2.1851 1.6381 2.6221 2.2521 4.1516 3.6338 1.311 0.87218 1.0925 0.48804 0.87402 0.18529 1.748 0.014454 22.069-0.094341 1.0925-0.37375 1.311-0.7471 1.748-1.3239 7.4292-6.0327 4.3701-2.8103 2.8406-1.6761 2.1851-1.044 3.0591-1.3635 4.3701-2.1285 1.5295-0.37468 1.5295-0.16034 1.5295 0.039031 1.5295 0.2355 1.5295 0.44053 2.1851 0.91952 2.1851 1.1799 2.1851 1.4529 2.8406 2.0014 0.43701-0.090009 0.87402-0.58469 3.7146-2.4521 1.5295-0.73605 1.5295-0.47605 1.5295-0.25321 1.5295-0.05026 1.5295 0.14566 1.5295 0.34598 1.5295 0.56301 1.5295 0.81268 1.311 0.93733 1.311 1.2206 1.0925 1.3024 1.0925 1.6611 1.311 2.2611 0.43701 0.35506 0.43701 0.060851 0.43701-0.087207 0.43701-0.37789 0.65552-1.0188 0.43701-0.97968 1.748-4.7997 1.0925-2.1017 1.0925-1.6563 1.311-1.5772 1.311-1.2461 1.5295-1.1307 1.5295-0.84176 1.5295-0.59456 1.5295-0.36999 1.5295-0.15309 3.9331 0.034971 1.5295 0.23983 1.311 0.40236 2.1851 0.82162 0.65552-0.021118 1.748-0.26592 1.9666-0.07246 1.9666 0.1483 2.4036 0.22743 1.5295-0.25001 1.5295-0.045236 1.5295 0.15372 1.748 0.41624 2.1851 0.48257 2.1851 0.2241 2.1851 0.02106 2.4036 0.024143 1.5295 0.2266 1.5295 0.46632 1.5295 0.73131 1.311 0.87454 2.4036 1.7584 2.6221 0.90199 2.8406 1.2374 2.1851 0.974 0.87402 0.11055 0.87402-0.11845 0.87402-0.33397 0.87402-0.5769 1.0925-1.0184 1.9666-2.2565 4.5886-5.382 1.311-0.92674 1.311-0.6373 1.311-0.39472 1.311-0.17769 1.311 0.028908 1.311 0.23789 1.311 0.46259 1.311 0.71989 1.311 1.0158 2.4036 1.8516 2.1851 1.3574 1.5295 0.70129 1.5295 0.46088 1.0925 0.12126 0.65552-0.23699 3.4961-2.1797 1.5295-0.65617 1.5295-0.39631 1.5295-0.16089 1.5295 0.067396 1.5295 0.30414 1.311 0.46831 1.311 0.69292 3.0591 2.0789 1.5295 1.2072 1.5295 1.5063 1.5295 1.8618 1.311 1.9405 4.5886 7.5446 1.311 2.4985 1.311 3.0429 1.0925 3.1027 1.0925 3.8364 0.87402 3.8387 0.87402 4.8927 0.65552 4.7642 0.65552 6.371 0.43701 5.8176 0.43701 8.283 0.43701 14.376 0.2185 14.741 0.001641 176.99v0" clip-path="url(#k)" fill="none" stroke="#dc143c" stroke-linecap="square" stroke-width="1.5"/>
<path d="m40.603 170.63v-141.83" fill="none" stroke="#000" stroke-linecap="square" stroke-width=".8"/>
<path d="m486.62 170.63v-141.83" fill="none" stroke="#000" stroke-linecap="square" stroke-width=".8"/>
<path d="m40.603 170.63h446.02" fill="none" stroke="#000" stroke-linecap="square" stroke-width=".8"/>
<path d="m40.603 28.8h446.02" fill="none" stroke="#000" stroke-linecap="square" stroke-width=".8"/>
<path d="m324.59 66.156h155.04q2 0 2-2v-28.356q0-2-2-2h-155.04q-2 0-2 2v28.356q0 2 2 2z" fill="#fff" opacity=".8" stroke="#ccc"/>
<path d="m326.59 41.898h20" fill="none" stroke="#dc143c" stroke-linecap="square" stroke-width="1.5"/>
<defs>
<path id="h" d="m41.109 46.297q-1.5156 0.875-3.2969 1.2812-1.7812 0.42188-3.9219 0.42188-7.625 0-11.703-4.9531t-4.0781-14.234v-28.812h-9.0312v54.688h9.0312v-8.5q2.8438 4.9844 7.375 7.3906 4.5469 2.4219 11.047 2.4219 0.92188 0 2.0469-0.125 1.125-0.10938 2.4844-0.35938z"/>
<path id="i" d="m34.281 27.484q-10.891 0-15.094-2.4844t-4.2031-8.5q0-4.7812 3.1562-7.5938 3.1562-2.7969 8.5625-2.7969 7.4844 0 12 5.2969t4.5156 14.078v2zm17.922 3.7188v-31.203h-8.9844v8.2969q-3.0781-4.9688-7.6719-7.3438t-11.234-2.375q-8.3906 0-13.359 4.7188-4.9531 4.7188-4.9531 12.625 0 9.2188 6.1719 13.906 6.1875 4.6875 18.438 4.6875h12.609v0.89062q0 6.2031-4.0781 9.5938t-11.453 3.3906q-4.6875 0-9.1406-1.125-4.4375-1.125-8.5312-3.375v8.3125q4.9219 1.9062 9.5625 2.8438 4.6406 0.95312 9.0312 0.95312 11.875 0 17.734-6.1562 5.8594-6.1406 5.8594-18.641z"/>
<path id="p" d="m18.312 70.219v-15.531h18.5v-6.9844h-18.5v-29.688q0-6.6875 1.8281-8.5938t7.4531-1.9062h9.2188v-7.5156h-9.2188q-10.406 0-14.359 3.875-3.9531 3.8906-3.9531 14.141v29.688h-6.5938v6.9844h6.5938v15.531z"/>
<path id="c" d="m56.203 29.594v-4.3906h-41.312q0.59375-9.2812 5.5938-14.141t13.938-4.8594q5.1719 0 10.031 1.2656t9.6562 3.8125v-8.5q-4.8438-2.0469-9.9219-3.125t-10.297-1.0781q-13.094 0-20.734 7.6094-7.6406 7.625-7.6406 20.625 0 13.422 7.25 21.297 7.25 7.8906 19.562 7.8906 11.031 0 17.453-7.1094 6.4219-7.0938 6.4219-19.297zm-8.9844 2.6406q-0.09375 7.3594-4.125 11.75-4.0312 4.4062-10.672 4.4062-7.5156 0-12.031-4.25t-5.2031-11.969z"/>
<path id="l" d="m30.609 48.391q-7.2188 0-11.422-5.6406t-4.2031-15.453 4.1719-15.453q4.1875-5.6406 11.453-5.6406 7.1875 0 11.375 5.6562 4.2031 5.6719 4.2031 15.438 0 9.7188-4.2031 15.406-4.1875 5.6875-11.375 5.6875zm0 7.6094q11.719 0 18.406-7.625 6.7031-7.6094 6.7031-21.078 0-13.422-6.7031-21.078-6.6875-7.6406-18.406-7.6406-11.766 0-18.438 7.6406-6.6562 7.6562-6.6562 21.078 0 13.469 6.6562 21.078 6.6719 7.625 18.438 7.625z"/>
<path id="y" d="m37.109 75.984v-7.4844h-8.5938q-4.8281 0-6.7188-1.9531-1.875-1.9531-1.875-7.0312v-4.8281h14.797v-6.9844h-14.797v-47.703h-9.0312v47.703h-8.5938v6.9844h8.5938v3.8125q0 9.125 4.25 13.297 4.25 4.1875 13.469 4.1875z"/>
<path id="m" d="m9.4219 54.688h8.9844v-54.688h-8.9844zm0 21.297h8.9844v-11.391h-8.9844z"/>
<path id="q" d="m9.4219 75.984h8.9844v-75.984h-8.9844z"/>
<path id="v" d="m8.5 21.578v33.109h8.9844v-32.766q0-7.7656 3.0156-11.656 3.0312-3.875 9.0938-3.875 7.2656 0 11.484 4.6406 4.2344 4.6406 4.2344 12.656v31h8.9844v-54.688h-8.9844v8.4062q-3.2656-4.9844-7.5938-7.4062-4.3125-2.4219-10.031-2.4219-9.4219 0-14.312 5.8594-4.875 5.8594-4.875 17.141zm22.609 34.422z"/>
<path id="j" d="m44.281 53.078v-8.5q-3.7969 1.9531-7.9062 2.9219-4.0938 0.98438-8.5 0.98438-6.6875 0-10.031-2.0469t-3.3438-6.1562q0-3.125 2.3906-4.9062t9.625-3.3906l3.0781-0.6875q9.5625-2.0469 13.594-5.7812t4.0312-10.422q0-7.625-6.0312-12.078-6.0312-4.4375-16.578-4.4375-4.3906 0-9.1562 0.85938t-10.031 2.5625v9.2812q4.9844-2.5938 9.8125-3.8906 4.8281-1.2812 9.5781-1.2812 6.3438 0 9.75 2.1719 3.4219 2.1719 3.4219 6.125 0 3.6562-2.4688 5.6094-2.4531 1.9531-10.812 3.7656l-3.125 0.73438q-8.3438 1.75-12.062 5.3906-3.7031 3.6406-3.7031 9.9844 0 7.7188 5.4688 11.906 5.4688 4.2031 15.531 4.2031 4.9688 0 9.3594-0.73438 4.4062-0.71875 8.1094-2.1875z"/>
<path id="u" d="m31 75.875q-6.5312-11.219-9.7188-22.219-3.1719-10.984-3.1719-22.266 0-11.266 3.2031-22.328t9.6875-22.25h-7.8125q-7.3125 11.484-10.953 22.562t-3.6406 22.016q0 10.891 3.6094 21.922 3.625 11.047 10.984 22.562z"/>
<path id="n" d="m45.406 46.391v29.594h8.9844v-75.984h-8.9844v8.2031q-2.8281-4.875-7.1562-7.25-4.3125-2.375-10.375-2.375-9.9062 0-16.141 7.9062-6.2188 7.9219-6.2188 20.812t6.2188 20.797q6.2344 7.9062 16.141 7.9062 6.0625 0 10.375-2.375 4.3281-2.3594 7.1562-7.2344zm-30.609-19.094q0-9.9062 4.0781-15.547t11.203-5.6406 11.219 5.6406q4.1094 5.6406 4.1094 15.547t-4.1094 15.547q-4.0938 5.6406-11.219 5.6406t-11.203-5.6406-4.0781-15.547z"/>
<path id="w" d="m9.0781 75.984h9.0312v-44.875l26.812 23.578h11.469l-29-25.578 30.234-29.109h-11.719l-27.797 26.703v-26.703h-9.0312z"/>
<path id="ac" d="m25.391 72.906h8.2969l-25.391-82.188h-8.2969z"/>
<path id="o" d="m32.172-5.0781q-3.7969-9.7656-7.4219-12.734-3.6094-2.9844-9.6562-2.9844h-7.1875v7.5156h5.2812q3.7031 0 5.75 1.7656 2.0625 1.75 4.5469 8.2969l1.6094 4.0938-22.109 53.812h9.5156l17.094-42.766 17.094 42.766h9.5156z"/>
<path id="t" d="m8.0156 75.875h7.8125q7.3125-11.516 10.953-22.562 3.6406-11.031 3.6406-21.922 0-10.938-3.6406-22.016t-10.953-22.562h-7.8125q6.4844 11.188 9.6875 22.25t3.2031 22.328q0 11.281-3.2031 22.266-3.2031 11-9.6875 22.219z"/>
</defs>
<g transform="translate(354.59 45.398) scale(.1 -.1)">
<use xlink:href="#h"/>
<use x="41.113281" xlink:href="#i"/>
<use x="102.392578" xlink:href="#p"/>
<use x="141.601562" xlink:href="#c"/>
<use x="203.125" xlink:href="#DejaVuSans-20"/>
<use x="234.912109" xlink:href="#l"/>
<use x="296.09375" xlink:href="#y"/>
<use x="331.298828" xlink:href="#DejaVuSans-20"/>
<use x="363.085938" xlink:href="#y"/>
<use x="398.291016" xlink:href="#i"/>
<use x="459.570312" xlink:href="#m"/>
<use x="487.353516" xlink:href="#q"/>
<use x="515.136719" xlink:href="#v"/>
<use x="578.515625" xlink:href="#h"/>
<use x="619.597656" xlink:href="#c"/>
<use x="681.121094" xlink:href="#j"/>
<use x="733.220703" xlink:href="#DejaVuSans-20"/>
<use x="765.007812" xlink:href="#u"/>
<use x="804.021484" xlink:href="#n"/>
<use x="867.498047" xlink:href="#m"/>
<use x="895.28125" xlink:href="#j"/>
<use x="947.380859" xlink:href="#w"/>
<use x="1005.291016" xlink:href="#j"/>
<use x="1057.390625" xlink:href="#ac"/>
<use x="1091.082031" xlink:href="#o"/>
<use x="1150.261719" xlink:href="#h"/>
<use x="1191.375" xlink:href="#t"/>
</g>
<path d="m326.59 60.077h20v-7h-20z" fill="#0766aa" fill-opacity=".2" stroke="#0766aa" stroke-opacity=".2"/>
<defs>
<path id="ai" d="m48.688 27.297q0 9.9062-4.0781 15.547t-11.203 5.6406q-7.1406 0-11.219-5.6406t-4.0781-15.547 4.0781-15.547 11.219-5.6406q7.125 0 11.203 5.6406t4.0781 15.547zm-30.578 19.094q2.8438 4.875 7.1562 7.2344 4.3281 2.375 10.328 2.375 9.9688 0 16.188-7.9062 6.2344-7.9062 6.2344-20.797t-6.2344-20.812q-6.2188-7.9062-16.188-7.9062-6 0-10.328 2.375-4.3125 2.375-7.1562 7.25v-8.2031h-9.0312v75.984h9.0312z"/>
<path id="af" d="m2.9844 54.688h9.5156l17.094-45.891 17.094 45.891h9.5156l-20.516-54.688h-12.203z"/>
</defs>
<g transform="translate(354.59 60.077) scale(.1 -.1)">
<use xlink:href="#n"/>
<use x="63.476562" xlink:href="#m"/>
<use x="91.259766" xlink:href="#j"/>
<use x="143.359375" xlink:href="#w"/>
<use x="201.269531" xlink:href="#j"/>
<use x="253.369141" xlink:href="#DejaVuSans-20"/>
<use x="285.15625" xlink:href="#l"/>
<use x="346.337891" xlink:href="#ai"/>
<use x="409.814453" xlink:href="#j"/>
<use x="461.914062" xlink:href="#c"/>
<use x="523.4375" xlink:href="#h"/>
<use x="564.550781" xlink:href="#af"/>
<use x="623.730469" xlink:href="#c"/>
<use x="685.253906" xlink:href="#n"/>
</g>
<path d="m40.603 375.64h446.02v-189.1h-446.02z" fill="#fff"/>
<path d="m40.603 375.64v-189.1" clip-path="url(#e)" fill="none" stroke="#b0b0b0" stroke-linecap="square" stroke-width=".8"/>
<use x="40.603125" y="375.64" stroke="#000000" stroke-width=".8" xlink:href="#g"/>
<g transform="translate(37.422 390.24) scale(.1 -.1)">
<use xlink:href="#b"/>
</g>
<path d="m179.3 375.64v-189.1" clip-path="url(#e)" fill="none" stroke="#b0b0b0" stroke-linecap="square" stroke-width=".8"/>
<use x="179.302621" y="375.64" stroke="#000000" stroke-width=".8" xlink:href="#g"/>
<g transform="translate(176.12 390.24) scale(.1 -.1)">
<use xlink:href="#f"/>
</g>
<path d="m318 375.64v-189.1" clip-path="url(#e)" fill="none" stroke="#b0b0b0" stroke-linecap="square" stroke-width=".8"/>
<use x="318.002116" y="375.64" stroke="#000000" stroke-width=".8" xlink:href="#g"/>
<g transform="translate(314.82 390.24) scale(.1 -.1)">
<use xlink:href="#s"/>
</g>
<path d="m456.7 375.64v-189.1" clip-path="url(#e)" fill="none" stroke="#b0b0b0" stroke-linecap="square" stroke-width=".8"/>
<use x="456.701612" y="375.64" stroke="#000000" stroke-width=".8" xlink:href="#g"/>
<g transform="translate(453.52 390.24) scale(.1 -.1)">
<use xlink:href="#ab"/>
</g>
<defs>
<path id="ap" d="m34.188 63.188-13.391-36.281h26.812zm-5.5781 9.7188h11.188l27.781-72.906h-10.25l-6.6406 18.703h-32.859l-6.6406-18.703h-10.406z"/>
<path id="x" d="m45.406 27.984q0 9.7656-4.0312 15.125-4.0156 5.375-11.297 5.375-7.2188 0-11.25-5.375-4.0312-5.3594-4.0312-15.125 0-9.7188 4.0312-15.094t11.25-5.375q7.2812 0 11.297 5.375 4.0312 5.375 4.0312 15.094zm8.9844-21.203q0-13.953-6.2031-20.766-6.1875-6.8125-18.984-6.8125-4.7344 0-8.9375 0.70312t-8.1562 2.1719v8.7344q3.9531-2.1406 7.8125-3.1562 3.8594-1.0312 7.8594-1.0312 8.8438 0 13.234 4.6094t4.3906 13.938v4.4531q-2.7812-4.8438-7.125-7.2344t-10.406-2.3906q-10.047 0-16.203 7.6562-6.1562 7.6719-6.1562 20.328 0 12.688 6.1562 20.344 6.1562 7.6719 16.203 7.6719 6.0625 0 10.406-2.3906t7.125-7.2188v8.2969h8.9844z"/>
<path id="ag" d="m18.109 8.2031v-29h-9.0312v75.484h9.0312v-8.2969q2.8438 4.875 7.1562 7.2344 4.3281 2.375 10.328 2.375 9.9688 0 16.188-7.9062 6.2344-7.9062 6.2344-20.797t-6.2344-20.812q-6.2188-7.9062-16.188-7.9062-6 0-10.328 2.375-4.3125 2.375-7.1562 7.25zm30.578 19.094q0 9.9062-4.0781 15.547t-11.203 5.6406q-7.1406 0-11.219-5.6406t-4.0781-15.547 4.0781-15.547 11.219-5.6406q7.125 0 11.203 5.6406t4.0781 15.547z"/>
<path id="ae" d="m4.2031 54.688h8.9844l11.234-42.672 11.172 42.672h10.594l11.234-42.672 11.188 42.672h8.9844l-14.312-54.688h-10.594l-11.766 44.828-11.812-44.828h-10.609z"/>
<path id="at" d="m4.8906 31.391h26.312v-8h-26.312z"/>
<path id="ah" d="m54.891 33.016v-33.016h-8.9844v32.719q0 7.7656-3.0312 11.609-3.0312 3.8594-9.0781 3.8594-7.2812 0-11.484-4.6406-4.2031-4.625-4.2031-12.641v-30.906h-9.0312v54.688h9.0312v-8.5q3.2344 4.9375 7.5938 7.375 4.375 2.4375 10.094 2.4375 9.4219 0 14.25-5.8281 4.8438-5.8281 4.8438-17.156z"/>
</defs>
<g transform="translate(209.62 403.92) scale(.1 -.1)">
<use xlink:href="#ap"/>
<use x="68.408203" xlink:href="#x"/>
<use x="131.884766" xlink:href="#c"/>
<use x="193.408203" xlink:href="#DejaVuSans-20"/>
<use x="225.195312" xlink:href="#u"/>
<use x="264.208984" xlink:href="#ag"/>
<use x="327.685547" xlink:href="#l"/>
<use x="388.867188" xlink:href="#ae"/>
<use x="470.654297" xlink:href="#c"/>
<use x="532.177734" xlink:href="#h"/>
<use x="573.197266" xlink:href="#at"/>
<use x="609.296875" xlink:href="#l"/>
<use x="670.478516" xlink:href="#ah"/>
<use x="733.857422" xlink:href="#DejaVuSans-20"/>
<use x="765.644531" xlink:href="#o"/>
<use x="824.824219" xlink:href="#c"/>
<use x="886.347656" xlink:href="#i"/>
<use x="947.626953" xlink:href="#h"/>
<use x="988.740234" xlink:href="#j"/>
<use x="1040.839844" xlink:href="#t"/>
</g>
<path d="m40.603 375.64h446.02" clip-path="url(#e)" fill="none" stroke="#b0b0b0" stroke-linecap="square" stroke-width=".8"/>
<use x="40.603125" y="375.64" stroke="#000000" stroke-width=".8" xlink:href="#d"/>
<g transform="translate(27.241 379.44) scale(.1 -.1)">
<use xlink:href="#b"/>
</g>
<path d="m40.603 328.36h446.02" clip-path="url(#e)" fill="none" stroke="#b0b0b0" stroke-linecap="square" stroke-width=".8"/>
<use x="40.603125" y="328.364202" stroke="#000000" stroke-width=".8" xlink:href="#d"/>
<g transform="translate(27.241 332.16) scale(.1 -.1)">
<use xlink:href="#aa"/>
</g>
<path d="m40.603 281.09h446.02" clip-path="url(#e)" fill="none" stroke="#b0b0b0" stroke-linecap="square" stroke-width=".8"/>
<use x="40.603125" y="281.088405" stroke="#000000" stroke-width=".8" xlink:href="#d"/>
<defs>
<path id="ar" d="m31.781 34.625q-7.0312 0-11.062-3.7656-4.0156-3.7656-4.0156-10.344 0-6.5938 4.0156-10.359 4.0312-3.7656 11.062-3.7656t11.078 3.7812q4.0625 3.7969 4.0625 10.344 0 6.5781-4.0312 10.344-4.0156 3.7656-11.109 3.7656zm-9.8594 4.1875q-6.3438 1.5625-9.8906 5.9062-3.5312 4.3594-3.5312 10.609 0 8.7344 6.2188 13.812 6.2344 5.0781 17.062 5.0781 10.891 0 17.094-5.0781t6.2031-13.812q0-6.25-3.5469-10.609-3.5312-4.3438-9.8281-5.9062 7.125-1.6562 11.094-6.5 3.9844-4.8281 3.9844-11.797 0-10.609-6.4688-16.281-6.4688-5.6562-18.531-5.6562-12.047 0-18.531 5.6562-6.4688 5.6719-6.4688 16.281 0 6.9688 4 11.797 4.0156 4.8438 11.141 6.5zm-3.6094 15.578q0-5.6562 3.5312-8.8281 3.5469-3.1719 9.9375-3.1719 6.3594 0 9.9375 3.1719 3.5938 3.1719 3.5938 8.8281 0 5.6719-3.5938 8.8438-3.5781 3.1719-9.9375 3.1719-6.3906 0-9.9375-3.1719-3.5312-3.1719-3.5312-8.8438z"/>
</defs>
<g transform="translate(27.241 284.89) scale(.1 -.1)">
<use xlink:href="#ar"/>
</g>
<path d="m40.603 233.81h446.02" clip-path="url(#e)" fill="none" stroke="#b0b0b0" stroke-linecap="square" stroke-width=".8"/>
<use x="40.603125" y="233.812607" stroke="#000000" stroke-width=".8" xlink:href="#d"/>
<g transform="translate(20.878 237.61) scale(.1 -.1)">
<use xlink:href="#f"/>
<use x="63.623047" xlink:href="#s"/>
</g>
<path d="m40.603 186.54h446.02" clip-path="url(#e)" fill="none" stroke="#b0b0b0" stroke-linecap="square" stroke-width=".8"/>
<use x="40.603125" y="186.536809" stroke="#000000" stroke-width=".8" xlink:href="#d"/>
<g transform="translate(20.878 190.34) scale(.1 -.1)">
<use xlink:href="#f"/>
<use x="63.623047" xlink:href="#r"/>
</g>
<defs>
<path id="an" d="m9.8125 72.906h41.891v-8.3125h-32.031v-21.484h28.906v-8.2969h-28.906v-34.812h-9.8594z"/>
<path id="al" d="m44.391 34.188q3.1719-1.0781 6.1719-4.5938t6.0312-9.6719l10.016-19.922h-10.609l-9.3125 18.703q-3.625 7.3281-7.0156 9.7188t-9.25 2.3906h-10.75v-30.812h-9.8594v72.906h22.266q12.5 0 18.656-5.2344 6.1562-5.2188 6.1562-15.766 0-6.8906-3.2031-11.438-3.2031-4.5312-9.2969-6.2812zm-24.719 30.609v-25.875h12.406q7.125 0 10.766 3.2969t3.6406 9.6875-3.6406 9.6406-10.766 3.25z"/>
<path id="au" d="m72.703 32.078q-4.25 0-6.6719-3.6094-2.4062-3.6094-2.4062-10.062 0-6.3438 2.4062-9.9844 2.4219-3.6406 6.6719-3.6406 4.1562 0 6.5625 3.6406 2.4219 3.6406 2.4219 9.9844 0 6.4062-2.4219 10.031-2.4062 3.6406-6.5625 3.6406zm0 6.2031q7.7188 0 12.25-5.375 4.5469-5.3594 4.5469-14.5 0-9.125-4.5625-14.484-4.5625-5.3438-12.234-5.3438-7.8125 0-12.359 5.3438-4.5312 5.3594-4.5312 14.484 0 9.1875 4.5625 14.531t12.328 5.3438zm-50.391 29.734q-4.2031 0-6.625-3.6406-2.4062-3.625-2.4062-9.9844 0-6.4375 2.3906-10.062 2.3906-3.6094 6.6406-3.6094t6.6562 3.6094q2.4219 3.625 2.4219 10.062 0 6.2969-2.4375 9.9531-2.4375 3.6719-6.6406 3.6719zm44.094 6.2031h7.8125l-45.609-75.641h-7.8125zm-44.094 0q7.7188 0 12.297-5.3438 4.5938-5.3438 4.5938-14.484 0-9.2188-4.5625-14.547t-12.328-5.3281-12.281 5.3438q-4.5156 5.3594-4.5156 14.531 0 9.0938 4.5312 14.453 4.5469 5.375 12.266 5.375z"/>
</defs>
<g transform="translate(14.798 334.34) rotate(-90) scale(.1 -.1)">
<use xlink:href="#an"/>
<use x="57.378906" xlink:href="#i"/>
<use x="118.658203" xlink:href="#m"/>
<use x="146.441406" xlink:href="#q"/>
<use x="174.224609" xlink:href="#v"/>
<use x="237.603516" xlink:href="#h"/>
<use x="278.685547" xlink:href="#c"/>
<use x="340.208984" xlink:href="#DejaVuSans-20"/>
<use x="371.996094" xlink:href="#al"/>
<use x="441.447266" xlink:href="#i"/>
<use x="502.726562" xlink:href="#p"/>
<use x="541.935547" xlink:href="#c"/>
<use x="603.458984" xlink:href="#DejaVuSans-20"/>
<use x="635.246094" xlink:href="#u"/>
<use x="674.259766" xlink:href="#au"/>
<use x="769.279297" xlink:href="#ac"/>
<use x="802.970703" xlink:href="#o"/>
<use x="862.150391" xlink:href="#c"/>
<use x="923.673828" xlink:href="#i"/>
<use x="984.953125" xlink:href="#h"/>
<use x="1026.066406" xlink:href="#t"/>
</g>
<path d="m52.311 309.43 0.65552 2.9223 0.65552 1.9581 3.4961 7.652 1.0925 3.5855 1.0925 4.415 2.1851 9.8156 1.5295 8.3577 0.87402 4.4779 0.43701 1.1634 1.748 3.2641 0.65552 0.86583 0.2185 0.12811 0.43701-0.14153 1.748-0.69771 1.748-0.44878 1.0925-0.21394 0.65552-0.45837 1.9666-1.757 1.748-1.8203 1.311-1.3294 1.0925-1.0404 1.0925-1.4009 1.0925-1.0343 0.87402-0.56137 0.87402-0.32309 0.87402-0.08316 0.87402 0.1584 1.748 0.73316 1.5295 0.73246 0.87402 0.69038 1.0925 1.1826 0.65552 0.64665 2.1851 1.37 2.1851 1.5435 0.65552 0.50322 0.65552 0.18249 1.0925 0.02828 0.87402-0.17397 0.65552-0.35063 0.87402-0.80145 1.5295-1.4714 1.0925-0.68671 0.87402-0.3206 0.87402-0.11741 0.87402 0.085644 0.87402 0.28856 0.87402 0.49133 1.0925 0.89911 1.748 1.6579 0.87402 0.45937 1.9666 0.84212 1.311 0.87938 1.9665 1.6758 6.7737 5.6981 1.0925 0.38266 1.5295 0.6044 1.748 0.95865 1.9666 1.3758 2.1851 1.8308 1.9666 1.635 1.0925 0.56388 2.6221 0.81064 4.3701 1.2196 2.8406 0.56562 2.4036 0.24783 2.8406 0.02422 22.943-0.11351 2.4036-0.33909 3.0591-0.67522 4.8071-1.3406 4.1516-1.2955 9.8327-3.5789 2.8406-1.2719 1.5295-0.39174 1.5295-0.17315 1.5295 0.040089 1.5295 0.24797 1.5295 0.45058 2.6221 1.0769 3.4961 1.7101 3.0591 1.4979 0.65552-0.033318 1.311-0.5465 5.6811-2.4142 1.748-0.3396 1.748-0.09918 1.748 0.13591 1.748 0.36565 1.748 0.59006 1.748 0.80914 1.9666 1.1652 1.9666 1.4278 1.5295 1.1216 0.65552 0.15246 0.87402-0.088478 0.65552-0.32719 0.65552-0.58751 0.65552-1.0158 2.6221-4.1483 2.1851-3.0392 1.748-2.0937 1.5295-1.5389 1.5295-1.226 1.311-0.78012 1.311-0.51118 1.0925-0.20754 2.1851-0.056261 1.9666 0.09387 1.0925 0.27286 1.0925 0.48434 1.0925 0.71816 1.0925 0.7652 0.87402 0.34035 0.43701-0.073256 1.5295-0.40372 1.5295-0.16322 1.5295 0.065379 1.5295 0.28206 1.5295 0.34901 0.65552-0.16141 1.311-0.33389 1.311-0.087472 1.311 0.15583 1.311 0.39602 2.8406 1.0661 1.5295 0.28482 1.9666 0.15645 4.1516 0.1019 1.311 0.38147 1.311 0.61893 1.311 0.8492 1.5295 1.2721 1.748 1.5429 1.0925 0.35404 3.2776 1.1328 3.9331 1.3622 1.0925 0.02202 1.0925-0.23613 0.87402-0.39574 0.87402-0.61114 1.0925-1.0449 1.311-1.5763 1.5295-2.1776 0.87402-1.592 1.311-2.5893 1.311-2.1259 1.0925-1.4163 1.0925-1.0922 1.0925-0.76709 0.87402-0.37891 0.87402-0.16969 0.87402 0.04004 0.87402 0.25029 0.87402 0.46106 1.0925 0.87353 1.0925 1.2047 1.0925 1.5368 1.5295 2.2034 1.311 1.5305 1.5295 1.4167 1.311 0.93028 1.311 0.65836 1.311 0.41098 0.87402 0.089609 0.43701-0.14752 0.87402-0.66157 4.1516-3.2876 1.311-0.62102 1.311-0.34869 1.0925-0.079516 1.0925 0.11499 1.0925 0.31193 1.0925 0.5113 1.311 0.88011 1.5295 1.3517 7.2107 6.701 2.1851 2.1042 1.5295 1.1569 1.5295 0.85416 3.2776 1.5921 2.1851 0.83756 1.9666 0.51862 1.748 0.22885 2.6221 0.019273h89.369v0" clip-path="url(#e)" fill="none" stroke="#d2691e" stroke-linecap="square" stroke-width="1.5"/>
<path d="m40.603 375.64v-189.1" fill="none" stroke="#000" stroke-linecap="square" stroke-width=".8"/>
<path d="m486.62 375.64v-189.1" fill="none" stroke="#000" stroke-linecap="square" stroke-width=".8"/>
<path d="m40.603 375.64h446.02" fill="none" stroke="#000" stroke-linecap="square" stroke-width=".8"/>
<path d="m40.603 186.54h446.02" fill="none" stroke="#000" stroke-linecap="square" stroke-width=".8"/>
<defs>
<path id="am" d="m9.8125 72.906h14.703l18.594-49.609 18.703 49.609h14.703v-72.906h-9.625v64.016l-18.797-50h-9.9062l-18.797 50v-64.016h-9.5781z"/>
<path id="aq" d="m11.719 12.406h10.297v-12.406h-10.297zm0 39.297h10.297v-12.391h-10.297z"/>
<path id="z" d="m53.516 70.516v-9.625q-5.6094 2.6875-10.594 4-4.9844 1.3281-9.625 1.3281-8.0469 0-12.422-3.125t-4.375-8.8906q0-4.8438 2.9062-7.3125 2.9062-2.4531 11.016-3.9688l5.9531-1.2188q11.031-2.1094 16.281-7.4062t5.25-14.172q0-10.609-7.1094-16.078-7.0938-5.4688-20.812-5.4688-5.1719 0-11.016 1.1719-5.8281 1.1719-12.078 3.4688v10.156q6-3.3594 11.766-5.0781 5.7656-1.7031 11.328-1.7031 8.4375 0 13.031 3.3125 4.5938 3.3281 4.5938 9.4844 0 5.3594-3.2969 8.3906t-10.812 4.5469l-6.0156 1.1719q-11.031 2.1875-15.969 6.875-4.9219 4.6875-4.9219 13.047 0 9.6719 6.8125 15.234t18.766 5.5625q5.1406 0 10.453-0.9375 5.3281-0.92188 10.891-2.7656z"/>
<path id="ak" d="m-0.29688 72.906h61.672v-8.3125h-25.875v-64.594h-9.9062v64.594h-25.891z"/>
<path id="ao" d="m19.672 64.797v-56.688h11.922q15.094 0 22.094 6.8281 7 6.8438 7 21.594 0 14.641-7 21.453t-22.094 6.8125zm-9.8594 8.1094h20.266q21.188 0 31.094-8.8125 9.9219-8.8125 9.9219-27.562 0-18.859-9.9688-27.703-9.9531-8.8281-31.047-8.8281h-20.266z"/>
<path id="aj" d="m6.2969 72.906h10.594l18.125-27.109 18.203 27.109h10.594l-23.438-35.016 25-37.891h-10.594l-20.5 31-20.656-31h-10.641l26.016 38.922z"/>
</defs>
<g transform="translate(156.46 16.318) scale(.12 -.12)">
<use xlink:href="#am"/>
<use x="86.279297" xlink:href="#l"/>
<use x="147.460938" xlink:href="#n"/>
<use x="210.9375" xlink:href="#c"/>
<use x="272.460938" xlink:href="#q"/>
<use x="300.244141" xlink:href="#aq"/>
<use x="333.935547" xlink:href="#DejaVuSans-20"/>
<use x="365.722656" xlink:href="#z"/>
<use x="429.199219" xlink:href="#c"/>
<use x="490.722656" xlink:href="#i"/>
<use x="552.001953" xlink:href="#x"/>
<use x="615.478516" xlink:href="#i"/>
<use x="676.757812" xlink:href="#p"/>
<use x="715.966797" xlink:href="#c"/>
<use x="777.490234" xlink:href="#DejaVuSans-20"/>
<use x="809.277344" xlink:href="#z"/>
<use x="872.753906" xlink:href="#ak"/>
<use x="933.837891" xlink:href="#r"/>
<use x="997.460938" xlink:href="#b"/>
<use x="1061.083984" xlink:href="#b"/>
<use x="1124.707031" xlink:href="#b"/>
<use x="1188.330078" xlink:href="#ao"/>
<use x="1265.332031" xlink:href="#aj"/>
<use x="1333.837891" xlink:href="#b"/>
<use x="1397.460938" xlink:href="#b"/>
<use x="1461.083984" xlink:href="#b"/>
</g>
<defs>
<clipPath id="k">
<rect x="40.603" y="28.8" width="446.02" height="141.83"/>
</clipPath>
<clipPath id="e">
<rect x="40.603" y="186.54" width="446.02" height="189.1"/>
</clipPath>
</defs>
</svg>
