<?xml version="1.0" encoding="UTF-8"?>
<!DOCTYPE svg  PUBLIC '-//W3C//DTD SVG 1.1//EN'  'http://www.w3.org/Graphics/SVG/1.1/DTD/svg11.dtd'>
<svg width="497pt" height="413pt" version="1.1" viewBox="0 0 497 413" xmlns="http://www.w3.org/2000/svg" xmlns:xlink="http://www.w3.org/1999/xlink">
<defs>
<style type="text/css">*{stroke-linecap:butt;stroke-linejoin:round;}</style>
</defs>
<path d="m0 413.2h497.32v-413.2h-497.32z" fill="#fff"/>
<path d="m40.603 170.63h446.02v-141.83h-446.02z" fill="#fff"/>
<defs>
<path id="ag" d="m52.79-235.45v-95.594l0.21758-0.13131 0.21757-0.1296 0.21758-0.12798 0.21757-0.12638 0.21758-0.12465 0.21757-0.1231 0.21758-0.12162 0.21757-0.11456 0.21758-0.10471 0.21757-0.099644 0.21758-0.095767 0.21757-0.094855 0.21758-0.093952 0.21757-0.092769 0.21758-0.08668 0.21757-0.070986 0.21758-0.06247 0.21757-0.058709 0.21758-0.058246 0.21757-0.057788 0.21758-0.056112 0.21757-0.043889 0.21758-0.035153 0.21757-0.031888 0.21758-0.031568 0.21757-0.031373 0.21758-0.030318 0.21757-0.022292 0.21758-0.021051 0.21757-0.02068 0.21758-0.020565 0.21757-0.020526 0.21758-0.020485 0.21757-0.020343 0.21758-0.019493 0.21757-0.019238 0.21758-0.019197 0.21757-0.019159 0.21758-0.01903 0.21757-0.018899 0.21758-0.018366 0.21757-0.018105 0.21758-0.017578 0.21757-0.017355 0.21758-0.017115 0.21757-0.016761 0.21758-0.016205 0.21757-0.015972 0.21758-0.012637 0.21757-0.007593 0.21758-0.007587 0.21757-0.007582 0.21758-0.007577 0.21757-0.007572 0.21758-0.004318 0.21757-0.001628 1.9582-0.014014 0.21757-0.001547 0.21758-0.001536 0.21757-0.001487 0.21758-0.00142 0.21757-0.001353 0.21758 0.001492 0.21757 0.003174 0.21758 0.003495 0.21757 0.004205 0.21758 0.00748 0.21757 0.008128 0.21758 0.008137 0.21757 0.008146 0.21758 0.008153 0.21757 0.008159 0.21758 0.008167 0.21757 0.008173 0.21758 0.008181 0.21757 0.008187 0.21758 0.008194 0.21757 0.008201 0.21758 0.008209 0.21757 0.008215 0.21758 0.008222 0.21757 0.008228 0.21758 0.008236 0.21757 0.008242 0.21758 0.008249 0.21757 0.008256 0.21758 0.008263 0.21757 0.00827 0.21758 0.008275 0.21757 0.008281 0.21758 0.008286 0.21757 0.008292 0.21758 0.008507 0.21757 0.008855 0.21758 0.009206 0.21757 0.014037 0.21758 0.014297 0.21757 0.015136 0.21758 0.017165 0.21757 0.017204 0.21758 0.017244 0.21757 0.017285 0.21758 0.017325 0.21757 0.017365 0.21758 0.017402 0.21757 0.017435 0.21758 0.017463 0.21757 0.017491 0.21758 0.017522 0.21757 0.017551 0.21758 0.017582 0.21757 0.017612 0.21758 0.017643 0.21757 0.017674 0.21758 0.017705 0.21757 0.017742 0.21758 0.01778 0.21757 0.017811 0.21758 0.017844 0.21757 0.017876 0.21758 0.017909 0.21757 0.017947 0.21758 0.017979 0.21757 0.018012 0.21758 0.018044 0.21757 0.018077 0.21758 0.01811 0.21757 0.018143 0.21758 0.018176 0.21757 0.018209 0.21758 0.018243 0.21757 0.018278 0.21758 0.018314 0.21757 0.018351 0.21758 0.018388 0.21757 0.018427 0.21758 0.018671 0.21757 0.018947 0.21758 0.01902 0.21757 0.020128 0.21758 0.024297 0.21757 0.024764 0.21758 0.025581 0.21757 0.027998 0.21758 0.028195 0.21757 0.028274 0.21758 0.028351 0.21757 0.02843 0.21758 0.02851 0.21757 0.028589 0.21758 0.028669 0.21757 0.028749 0.21758 0.028831 0.21757 0.028912 0.21758 0.028995 0.21757 0.029079 0.21758 0.029163 0.21757 0.029245 0.21758 0.029326 0.21757 0.029408 0.21758 0.029445 0.21757 0.029461 0.21758 0.029477 0.21757 0.026207 0.21758 0.024289 0.21757 0.023976 0.21758 0.023199 0.21757 0.020757 0.21758 0.020324 0.21757 0.020362 0.21758 0.0204 0.21757 0.02044 0.21758 0.02048 0.21757 0.02052 0.21758 0.020562 0.21757 0.020602 0.21758 0.020643 0.21757 0.020684 0.21758 0.020726 0.21757 0.020768 0.21758 0.02081 0.21757 0.020852 0.21758 0.020894 0.21757 0.020938 0.21758 0.02098 0.21757 0.021023 0.21758 0.021066 0.21757 0.021109 0.21758 0.021153 0.21757 0.021198 0.21758 0.021243 0.21757 0.021288 0.21758 0.021334 0.21757 0.021125 0.21758 0.020749 0.21757 0.020372 0.21758 0.014466 0.21757 0.014226 0.21758 0.013293 0.21757 0.010852 0.21758 0.010862 0.21757 0.010874 0.21758 0.010884 0.21757 0.010895 0.21758 0.010907 0.21757 0.010917 0.21758 0.010925 0.21757 0.010938 0.21758 0.01095 0.21757 0.010962 0.21758 0.010976 0.21757 0.010988 0.21758 0.011044 0.21757 0.01156 0.21758 0.011618 0.21757 0.012109 0.21758 0.012117 0.21757 0.012127 0.21758 0.012586 0.21757 0.013695 0.21758 0.013728 0.21757 0.013781 0.21758 0.014286 0.21757 0.014307 0.21758 0.014405 0.21757 0.019431 0.21758 0.019935 0.21757 0.020212 0.21758 0.022058 0.21757 0.022367 0.21758 0.022414 0.21757 0.022461 0.21758 0.022502 0.21757 0.022543 0.21758 0.022584 0.21757 0.022625 0.21758 0.022666 0.21757 0.022457 0.43515 0.044418 0.21758 0.020937 0.21757 0.015936 0.21758 0.01546 0.21757 0.014559 0.21758 0.011718 0.21757 0.011582 0.21758 0.011608 0.21757 0.01165 0.21758 0.011693 0.21757 0.011734 0.21758 0.011776 0.21757 0.011819 0.21758 0.011862 0.21757 0.011904 0.21758 0.011946 0.21757 0.011987 0.21758 0.012029 0.21757 0.012071 0.21758 0.012114 0.21757 0.012157 0.21758 0.012202 0.21757 0.012245 0.21758 0.01229 0.21757 0.012335 0.21758 0.012379 0.21757 0.012424 0.21758 0.012469 0.21757 0.012513 0.21758 0.01256 0.21757 0.012604 0.21758 0.01265 0.21757 0.012695 0.21758 0.012742 0.21757 0.01936 0.21758 0.020756 0.21757 0.021323 0.21758 0.024016 0.21757 0.024072 0.21758 0.024128 0.21757 0.024185 0.21758 0.024242 0.21757 0.024299 0.21758 0.024357 0.21757 0.024414 0.21758 0.024473 0.21757 0.02453 0.21758 0.02459 0.21757 0.024648 0.21758 0.024707 0.21757 0.024766 0.21758 0.024825 0.21757 0.024883 0.21758 0.024943 0.21757 0.025002 0.21758 0.025062 0.21757 0.025123 0.21758 0.025184 0.21757 0.025247 0.21758 0.025308 0.21757 0.025371 0.21758 0.025434 0.21757 0.025496 0.21758 0.02556 0.21757 0.025624 0.21758 0.025688 0.21757 0.02575 0.21758 0.025813 0.21757 0.025876 0.21758 0.025939 0.21757 0.026004 0.21758 0.026067 0.21757 0.026132 0.21758 0.026197 0.21757 0.02621 0.21758 0.025667 0.21757 0.025677 0.21758 0.025161 0.21757 0.025219 0.21758 0.025278 0.21757 0.024796 0.21758 0.023525 0.21757 0.02356 0.21758 0.023566 0.21757 0.023019 0.21758 0.023066 0.21757 0.023022 0.21758 0.016955 0.21757 0.016411 0.21758 0.016143 0.21757 0.013965 0.21758 0.013664 0.21757 0.013682 0.21758 0.0137 0.21757 0.013718 0.21758 0.013736 0.21757 0.013755 0.21758 0.013772 0.21757 0.013791 0.21758 0.01381 0.21757 0.013828 0.21758 0.013846 0.21757 0.013865 0.21758 0.013883 0.21757 0.013902 0.21758 0.013921 0.21757 0.013939 0.21758 0.013958 0.21757 0.01396 0.21758 0.013944 0.21757 0.013928 0.21758 0.013911 0.21757 0.013894 0.21758 0.013878 0.21757 0.013861 0.21758 0.013844 0.21757 0.013827 0.21758 0.01381 0.21757 0.013793 0.21758 0.013775 0.21757 0.013759 0.21758 0.013741 0.21757 0.013723 0.21758 0.013706 0.21757 0.013688 0.21758 0.01367 0.21757 0.013653 0.21758 0.013634 0.21757 0.013616 0.21758 0.013599 0.21757 0.013579 0.21758 0.013562 0.21757 0.013543 0.21758 0.013525 0.21757 0.013506 0.21758 0.005525 0.21757 0.003884 0.21758 0.003254 1.9582 5.92e-4 0.43515 1.37e-4 0.21758 7.1e-5 0.43515 1.47e-4 0.21757 9.7e-5 0.21758 1.26e-4 0.21757 1.55e-4 0.21758 1.83e-4 0.21757 2.11e-4 0.21758 2.4e-4 0.21757 2.68e-4 0.21758 2.96e-4 0.21757 3.25e-4 0.21758 3.53e-4 0.21757 3.81e-4 0.21758 4.1e-4 0.21757 4.38e-4 0.21758 4.66e-4 0.21757 4.95e-4 0.21758 5.23e-4 0.21757 5.53e-4 0.21758 5.81e-4 0.21757 6.1e-4 0.21758 0.002414 0.21757 0.002965 0.21758 0.003517 0.21757 0.007255 0.21758 0.007267 0.21757 0.010767 0.21758 0.014505 0.21757 0.014525 0.21758 0.014546 0.21757 0.014567 0.21758 0.014588 0.21757 0.014609 0.21758 0.01463 0.21757 0.014652 0.21758 0.014672 0.21757 0.014694 0.21758 0.014716 0.21757 0.014736 0.21758 0.014759 0.21757 0.01478 0.21758 0.014807 0.21757 0.014865 0.21758 0.014923 0.21757 0.014981 0.21758 0.01504 0.21757 0.015099 0.21758 0.015294 0.21757 0.015718 0.21758 0.015803 0.21757 0.015887 0.21758 0.015973 0.21757 0.016058 0.21758 0.017466 0.21757 0.0211 0.21758 0.024148 0.21757 0.026618 0.21758 0.028891 0.21757 0.029081 0.21758 0.029274 0.21757 0.030234 0.21758 0.03073 0.21757 0.030823 0.21758 0.030916 0.21757 0.031011 0.21758 0.031104 0.21757 0.0312 0.21758 0.031295 0.21757 0.031391 0.21758 0.031488 0.21757 0.031586 0.21758 0.031683 0.21757 0.031782 0.21758 0.031881 0.21757 0.031981 0.21758 0.032081 0.21757 0.032181 0.21758 0.032283 0.21757 0.032385 0.21758 0.032488 0.21757 0.032591 0.21758 0.032695 0.21757 0.0328 0.21758 0.032905 0.21757 0.033011 0.21758 0.033117 0.21757 0.033225 0.21758 0.033332 0.21757 0.033441 0.21758 0.033551 0.21757 0.03366 0.21758 0.033772 0.21757 0.033883 0.21758 0.033996 0.21757 0.034109 0.21758 0.034222 0.21757 0.034338 0.21758 0.034453 0.21757 0.034567 0.21758 0.034682 0.21757 0.034799 0.21758 0.034915 0.21757 0.035033 0.21758 0.035126 0.21757 0.035211 0.21758 0.035297 0.21757 0.035385 0.21758 0.035472 0.21757 0.03556 0.21758 0.035649 0.21757 0.035737 0.21758 0.035828 0.21757 0.035919 0.21758 0.036012 0.21757 0.036104 0.21758 0.036197 0.21757 0.036289 0.21758 0.036382 0.21757 0.036474 0.21758 0.036567 0.21757 0.036662 0.21758 0.036755 0.21757 0.034536 0.21758 0.033933 0.21757 0.033324 0.21758 0.02852 0.21757 0.02859 0.21758 0.02406 0.21757 0.019201 0.21758 0.019235 0.21757 0.019272 0.21758 0.019306 0.21757 0.019343 0.21758 0.019378 0.21757 0.019415 0.21758 0.01945 0.21757 0.019487 0.21758 0.019523 0.21757 0.019559 0.21758 0.019596 0.21757 0.019633 0.21758 0.01967 0.21757 0.0197 0.43515 0.039366 0.21758 0.019667 0.21757 0.019655 0.21758 0.019644 0.21757 0.019451 0.21758 0.018954 0.21757 0.018907 0.21758 0.018862 0.21757 0.018816 0.21758 0.018769 0.21757 0.016959 0.21757 0.012185 0.21758 0.0082 0.21757 0.005003 0.21758 0.002088 0.21757 0.001943 0.21758 0.001799 0.21757 6.48e-4 0.65272 3.44e-4 0.21757 1.17e-4 0.21758 1.25e-4 0.21757 1.31e-4 0.21758 1.38e-4 0.21757 1.45e-4 0.21758 1.52e-4 0.21757 1.6e-4 0.21758 1.66e-4 0.21757 1.73e-4 0.21758 1.81e-4 0.21757 1.87e-4 0.21758 1.95e-4 0.21757 2.03e-4 0.21758 2.1e-4 0.21757 2.17e-4 0.21758 2.24e-4 0.21757 2.31e-4 0.21758 2.39e-4 0.21757 2.47e-4 0.21758 2.53e-4 0.21757 2.61e-4 0.21758 2.68e-4 0.21757 2.76e-4 0.21758 2.82e-4 0.21757 2.9e-4 0.21758 2.97e-4 0.21757 0.010987 0.21758 0.011651 0.21757 0.011763 0.21758 0.0167 0.21757 0.016736 0.21758 0.016772 0.21757 0.016808 0.21758 0.016843 0.21757 0.016881 0.21758 0.016916 0.21757 0.016953 0.21758 0.01699 0.21757 0.017026 0.21758 0.017063 0.21757 0.0171 0.21758 0.017137 0.21757 0.017175 0.21758 0.017211 0.21757 0.01725 0.21758 0.017286 0.21757 0.017325 0.21758 0.017361 0.21757 0.017397 0.21758 0.017433 0.21757 0.01747 0.21758 0.017507 0.21757 0.018985 0.21758 0.019044 0.21757 0.019237 0.21758 0.021147 0.21757 0.02119 0.21758 0.021234 0.21757 0.021277 0.21758 0.021321 0.21757 0.021365 0.21758 0.02141 0.21757 0.021453 0.21758 0.021498 0.21757 0.021543 0.21758 0.021588 0.21757 0.021634 0.21758 0.021681 0.21757 0.021726 0.21758 0.021773 0.21757 0.02182 0.21758 0.021867 0.21757 0.021914 0.21758 0.021962 0.21757 0.022015 0.21758 0.022072 0.21757 0.022122 0.21758 0.022169 0.21757 0.022219 0.21758 0.022267 0.21757 0.022316 0.21758 0.022365 0.21757 0.022414 0.21758 0.022465 0.21757 0.022514 0.21758 0.022564 0.21757 0.022614 0.21758 0.022665 0.21757 0.022716 0.21758 0.022767 0.21757 0.022818 0.21758 0.022869 0.21757 0.022921 0.21758 0.022974 0.21757 0.023027 0.21758 0.023081 0.21757 0.023135 0.21758 0.023189 0.21757 0.023243 0.21758 0.023297 0.21757 0.023353 0.21758 0.023406 0.21757 0.023459 0.21758 0.023511 0.21757 0.023564 0.21758 0.023617 0.21757 0.02367 0.21758 0.023723 0.21757 0.023777 0.21758 0.023831 0.21757 0.023885 0.21758 0.023939 0.21757 0.024779 0.21758 0.025127 0.21757 0.025183 0.21758 0.02524 0.21757 0.025296 0.21758 0.025471 0.21757 0.033717 0.21758 0.035465 0.21757 0.038242 0.21758 0.047733 0.21757 0.048688 0.21758 0.04891 0.21757 0.049134 0.21758 0.04936 0.21757 0.049588 0.21758 0.036379 0.43515 0.07137 0.21757 0.02958 0.21758 0.029653 0.21757 0.029727 0.21758 0.029801 0.21757 0.029876 0.21758 0.02995 0.21757 0.030025 0.21758 0.030101 0.21757 0.030177 0.21758 0.030253 0.21757 0.03033 0.21758 0.030408 0.21757 0.030485 0.21758 0.030563 0.21757 0.030642 0.21758 0.030721 0.21757 0.0308 0.21758 0.03088 0.21757 0.030961 0.21758 0.031041 0.21757 0.031122 0.21758 0.031204 0.21757 0.031286 0.21758 0.029493 0.21757 0.029547 0.21758 0.029423 0.21757 0.027062 0.21758 0.027132 0.21757 0.027203 0.21758 0.027274 0.21757 0.027346 0.21758 0.027419 0.21757 0.02749 0.21758 0.027564 0.21757 0.027637 0.21758 0.027711 0.21757 0.027785 0.21758 0.027859 0.21757 0.027934 0.21758 0.02801 0.21757 0.028085 0.21758 0.028162 0.21757 0.028238 0.21758 0.028314 0.21757 0.028393 0.21758 0.028461 0.21757 0.028528 0.21758 0.028605 0.21757 0.028684 0.21758 0.028763 0.21757 0.028843 0.21758 0.028923 0.21757 0.029003 0.21758 0.029085 0.21757 0.029166 0.21758 0.029249 0.21757 0.029332 0.21758 0.029419 0.21757 0.029506 0.21758 0.029595 0.21757 0.029682 0.21758 0.029771 0.21757 0.029879 0.21758 0.030017 0.21757 0.030154 0.21758 0.030292 0.21757 0.030431 0.21758 0.030563 0.21757 0.030686 0.21758 0.03081 0.21757 0.030935 0.21758 0.03106 0.21757 0.031182 0.21758 0.0313 0.21757 0.031418 0.21758 0.031502 0.21757 0.031588 0.21758 0.031675 0.21757 0.031761 0.21758 0.031848 0.21757 0.031935 0.21758 0.032024 0.21757 0.032113 0.21758 0.031138 0.21757 0.030827 0.21758 0.030915 0.21757 0.031002 0.21758 0.03109 0.21757 0.031018 0.21758 0.019973 0.21757 0.01778 0.21758 0.014205 0.21757 0.00161 14.36 0.040285 0.8703 0.002359 0.21758 5.58e-4 0.21757 5.02e-4 0.21758 4.46e-4 0.21757 3.89e-4 0.21758 3.33e-4 0.21757 2.86e-4 0.21758 2.48e-4 0.21757 2.11e-4 0.21758 1.73e-4 0.21757 1.36e-4 0.21758 9.9e-5 0.21757 6e-5 0.8703 1.08e-4 0.21758 4.3e-5 0.21757 6.8e-5 0.21758 9.2e-5 0.21757 1.16e-4 0.21758 1.41e-4 0.21757 1.65e-4 0.21758 1.89e-4 0.21757 2.15e-4 0.21758 2.38e-4 0.21757 2.63e-4 0.21758 2.87e-4 0.21757 3.12e-4 0.21758 3.36e-4 0.21757 3.61e-4 0.21758 3.85e-4 0.21757 4.1e-4 0.21758 4.34e-4 0.21757 4.59e-4 0.21758 8.03e-4 0.21757 8.08e-4 0.21758 8.12e-4 0.21757 8.15e-4 0.21758 8.2e-4 0.21757 8.24e-4 0.21758 8.28e-4 0.21757 0.002184 0.21758 0.019838 0.21757 0.020628 0.21758 0.021574 0.21757 0.023759 0.21758 0.024139 0.21757 0.024255 0.21758 0.025369 0.21757 0.027783 0.21758 0.027873 0.21757 0.027993 0.21758 0.029042 0.21757 0.029174 0.21758 0.029286 0.21757 0.029633 0.21758 0.030026 0.21757 0.030423 0.21758 0.032084 0.21757 0.03219 0.21758 0.032296 0.21757 0.032404 0.21758 0.032512 0.21757 0.033745 0.21758 0.035519 0.21757 0.035643 0.21758 0.035769 0.21757 0.035894 0.21758 0.036022 0.21757 0.036149 0.21758 0.036278 0.21757 0.036407 0.21758 0.036538 0.21757 0.03667 0.21758 0.036802 0.21757 0.036936 0.21758 0.037069 0.21757 0.037206 0.21758 0.037341 0.21757 0.037479 0.21758 0.037617 0.21757 0.037757 0.21758 0.037896 0.21757 0.038039 0.21758 0.038181 0.21757 0.038324 0.21758 0.038469 0.21757 0.038615 0.21758 0.038761 0.21757 0.038908 0.21758 0.039056 0.21757 0.039206 0.21758 0.039356 0.21757 0.039507 0.21758 0.03966 0.21757 0.039814 0.21758 0.039969 0.21757 0.040126 0.21758 0.040283 0.21757 0.040442 0.21758 0.040601 0.21757 0.040763 0.21758 0.040926 0.21757 0.04109 0.21758 0.041255 0.21757 0.041421 0.21758 0.041589 0.21757 0.041759 0.21758 0.041929 0.21757 0.042101 0.21758 0.042275 0.21757 0.04245 0.21758 0.042626 0.21757 0.042804 0.21758 0.042983 0.21757 0.043164 0.21758 0.043346 0.21757 0.043509 0.21758 0.043662 0.21757 0.043817 0.21758 0.043973 0.21757 0.044129 0.21758 0.044287 0.21757 0.044446 0.21758 0.044607 0.21757 0.044768 0.21758 0.044932 0.21757 0.045096 0.21758 0.045261 0.21757 0.045428 0.21758 0.045597 0.21757 0.045766 0.21758 0.045937 0.21757 0.04611 0.21758 0.046283 0.21757 0.046005 0.21758 0.046206 0.21757 0.04641 0.21758 0.046615 0.21757 0.046823 0.21758 0.047031 0.21757 0.047241 0.21758 0.045482 0.21757 0.019889 0.21758 0.018831 0.21757 0.017548 0.21758 0.014462 0.21757 0.014009 0.21758 0.013942 0.21757 0.012429 0.21758 0.009036 0.21757 0.009024 0.21758 0.008968 0.21757 0.007574 0.21758 0.00751 0.21757 0.007473 0.21758 0.007103 0.21757 0.006668 0.21758 0.006234 0.65272 0.011998 0.43515 0.007969 0.21758 0.002402 4.7866 0.001511 1.7406 4.52e-4 1.0879 2.89e-4 1.7406 4.75e-4 1.9582 5.52e-4 1.7406 5.07e-4 0.21757 6.5e-5 0.21758 6.8e-5 0.21757 7.3e-5 0.21758 7.7e-5 0.21757 8.1e-5 0.21758 8.6e-5 0.21757 9e-5 0.21758 9.4e-5 0.21757 9.8e-5 0.21758 1.06e-4 0.21757 1.28e-4 0.43515 2.85e-4 0.43515 2.88e-4 0.65272 4.39e-4 0.43515 2.96e-4 0.65272 4.51e-4 0.43515 3.04e-4 0.65272 4.63e-4 0.65272 4.69e-4 0.43515 3.17e-4 0.65272 4.82e-4 0.65272 4.88e-4 0.65272 4.96e-4 0.21757 1.67e-4 0.21758 1.71e-4 0.21757 1.84e-4 0.21758 1.96e-4 0.21757 2.08e-4 0.21758 2.19e-4 0.21757 2.32e-4 0.21758 2.44e-4 0.21757 2.56e-4 0.21758 2.68e-4 0.21757 2.8e-4 0.21758 2.92e-4 0.21757 3.04e-4 0.21758 3.16e-4 0.21757 3.28e-4 0.21758 3.4e-4 0.21757 3.52e-4 0.21758 3.64e-4 0.21757 3.77e-4 0.21758 3.88e-4 0.21757 4e-4 0.21758 4.12e-4 0.21757 4.24e-4 0.21758 4.37e-4 0.21757 4.48e-4 0.21758 4.6e-4 0.21757 4.73e-4 0.21758 4.84e-4 0.21757 4.97e-4 0.21758 5.08e-4 0.21757 5.21e-4 0.21758 5.32e-4 0.21757 5.45e-4 0.21758 5.56e-4 0.21757 5.69e-4 0.21758 5.81e-4 0.21757 5.93e-4 0.21758 0.026181 0.21757 0.030144 0.21758 0.032929 0.21757 0.049752 0.21758 0.050455 0.21757 0.050713 0.21758 0.050972 0.21757 0.051234 0.21758 0.0515 0.21757 0.051767 0.21758 0.052038 0.21757 0.052311 0.21758 0.052587 0.21757 0.052867 0.21758 0.053148 0.21757 0.053434 0.21758 0.053721 0.21757 0.054013 0.21758 0.054307 0.21757 0.054604 0.21758 0.054905 0.21757 0.055209 0.21758 0.055516 0.21757 0.055822 0.21758 0.056132 0.21757 0.056445 0.21758 0.056761 0.21757 0.057081 0.21758 0.057405 0.21757 0.057732 0.21758 0.058062 0.21757 0.058393 0.21758 0.058712 0.21757 0.059041 0.21758 0.059391 0.21757 0.059746 0.21758 0.060104 0.21757 0.060467 0.21758 0.060834 0.21757 0.061206 0.21758 0.061582 0.21757 0.061962 0.21758 0.062348 0.21757 0.062738 0.21758 0.063133 0.21757 0.063532 0.21758 0.063938 0.21757 0.064348 0.21758 0.064763 0.21757 0.065184 0.21758 0.06561 0.21757 0.066041 0.21758 0.066479 0.21757 0.066922 0.21758 0.067371 0.21757 0.067826 0.21758 0.068287 0.21757 0.068754 0.21758 0.069227 0.21757 0.069708 0.21758 0.070195 0.21757 0.070688 0.21758 0.071189 0.21757 0.071696 0.21758 0.072211 0.21757 0.072728 0.21758 0.07324 0.21757 0.073761 0.21758 0.074288 0.21757 0.074823 0.21758 0.075366 0.21757 0.075917 0.21758 0.080822 0.21757 0.11673 0.21758 0.1202 0.21757 0.13484 0.21758 0.15786 0.21757 0.16139 0.21758 0.16395 0.21757 0.16659 0.21758 0.16932 0.21757 0.17214 0.21758 0.17505 0.21757 0.17807 0.21758 0.18119 0.21757 0.18442 0.21758 0.18778 0.21757 0.19125 0.21758 0.19486 0.21757 0.19861 0.21758 0.2025 0.21757 0.20655 0.21758 0.21077 0.21757 0.21516 0.21758 0.21974 0.21757 0.22452 0.21758 0.22951 0.21757 0.23473 0.21758 0.2402 0.21757 0.24592 0.21758 0.25193 0.21757 0.19081 0.21758 0.18404 0.21757 0.18011 0.21758 0.13762 0.21757 0.13822 0.21758 0.14009 0.21757 0.14201 0.21758 0.14398 0.21757 0.146 0.21758 0.14809 0.21757 0.15023 0.21758 0.15244 0.21757 0.15471 0.21758 0.15706 0.21757 0.15947 0.21758 0.16196 0.21757 0.16453 0.21758 0.16719 0.21757 0.16993 0.21758 0.17276 0.21757 0.17569 0.21758 0.17873 0.21757 0.18186 0.21758 0.18512 0.21757 0.18849 0.21758 0.19198 0.21757 0.19561 0.21758 0.19938 0.21757 0.2033 0.21758 0.20737 0.21757 0.21162 0.21758 0.21604 0.21757 0.22065 0.21758 0.22546 0.21757 0.23049 0.21758 0.23575 0.21757 0.24125 0.21758 0.24702 0.21757 0.25307 0.21758 0.25943 0.21757 0.26611 0.21758 0.27315 0.21757 0.28057 0.21758 0.28841 0.21757 0.29671 0.21758 0.30549 0.21757 0.31481 0.21758 0.32472 0.21757 0.33528 0.21758 0.34654 0.21757 0.3586 0.21758 0.37152 0.21757 0.38541 0.21758 0.40038 0.21757 0.41657 0.21758 0.43412 0.21757 0.45323 0.21758 0.47409 0.21757 0.49697 0.21758 0.52218 0.21757 0.55008 0.21758 0.58114 0.21757 0.61592 0.21758 0.65515 0.21757 0.69972 0.21758 0.7508 0.21757 0.80994 0.21758 0.87922 0.21757 0.96148 0.21758 1.0608 0.21757 1.1829 0.21758 1.337 0.21757 1.4423 0.21758 0.82032 0.21757 0.83792 0.21758 0.56144 0.21757 0.03163 0.43515 0.008437 0.43515 0.008445 0.43515 0.008451 0.21758 0.004228 0.21757 0.00423 0.21758 0.004232 0.43515 0.008469 0.21757 0.004237 0.43515 0.008479 0.43515 0.008487 0.21758 0.004245 0.43515 0.008497 0.21757 0.004251 0.43515 0.008507 0.43515 0.008515 0.43515 0.008521 0.43515 0.008529 0.21758 0.004267 0.43515 0.008539 0.21757 0.004272 0.21758 0.004274 0.21757 0.004276 0.43515 0.008557 0.21758 0.004281 0.21757 0.004283 0.21758 0.004285 0.43515 0.008575 0.21757 0.00429 0.21758 0.004292 0.43515 0.008589 0.43515 0.008597 0.43515 0.008603 0.43515 0.008611 0.21757 0.004308 0.21758 0.00431 0.21757 0.004312 0.43515 0.008629 0.21758 0.004317 0.21757 0.004319 0.21758 0.004321 0.43515 0.008647 0.21757 0.004326 0.21758 0.004328 0.21757 0.00433 0.21758 0.004332 0.43515 0.008669 0.21757 0.004337 0.43515 0.00868 0.21758 0.004343 0.43515 0.008691 0.43515 0.008699 0.43515 0.008705 0.21757 0.004356 0.43515 0.008717 0.21758 0.004361 0.21757 0.004363 0.21758 0.004365 0.43515 0.008735 0.43515 0.008743 0.43515 0.008751 0.43515 0.008757 0.21757 0.004382 0.43515 0.008769 0.21758 0.004387 0.43515 0.008781 0.21757 0.004392 0.21758 0.004395 0.21757 0.004397 0.43515 0.008799 0.21758 0.004402 0.43515 0.008811 0.21757 0.004408 0.21758 0.00441 0.43515 0.008825 0.43515 0.008833 0.43515 0.008841 0.21757 0.004423 0.21758 0.004425 0.21757 0.004427 0.21758 0.004429 0.21757 0.004431 0.21758 0.004433 0.43515 0.008871 0.43515 0.008879 0.43515 0.008887 0.21757 0.004446 0.21758 0.004448 0.21757 0.00445 0.21758 0.004452 0.21757 0.004454 0.21758 0.004456 0.21757 0.004458 0.43515 0.008921 0.43515 0.008929 0.43515 0.008937 0.43515 0.008945 0.21758 0.004475 0.21757 0.004477 0.43515 0.008961 0.21758 0.004483 0.21757 0.004485 0.21758 0.004487 0.21757 0.004489 0.21758 0.004491 0.21757 0.004493 0.21758 0.004495 0.43515 0.008995 0.21757 0.004501 0.21758 0.004503 0.43515 0.009011 0.21757 0.004509 0.43515 0.009023 0.21758 0.004515 0.43515 0.009035 0.43515 0.009043 0.21757 0.004525 0.43515 0.009055 0.43515 0.009063 0.21758 0.004535 0.43515 0.009075 0.43515 0.009083 0.21757 0.004545 0.43515 0.009095 0.21758 0.004551 0.43515 0.009107 0.21757 0.004557 0.21758 0.004559 0.43515 0.009123 0.21757 0.004565 0.21758 0.004567 0.21757 0.004569 0.21758 0.004571 0.21757 0.004573 0.21758 0.004575 0.21757 0.004577 0.21758 0.004579 0.21757 0.004581 0.21758 0.004583 0.21757 0.004585 0.43515 0.009177 0.21758 0.004591 0.43515 0.009189 0.43515 0.009197 0.21757 0.004602 0.21758 0.004604 0.43515 0.009213 0.21757 0.00461 0.21758 0.004612 0.21757 0.004614 0.43515 0.009235 0.21758 0.00462 0.21757 0.004622 0.43515 0.009251 0.21758 0.004629 0.21757 0.004631 0.21758 0.004633 0.21757 0.004635 0.21758 0.004637 0.21757 0.004639 0.21758 0.004641 0.21757 0.004643 0.43515 0.009293 0.43515 0.009301 0.21758 0.004654 0.21757 0.004656 0.21758 0.004658 0.21757 0.00466 0.21758 0.004662 0.43515 0.009331 0.21757 0.004669 0.21758 0.004671 0.21757 0.004673 0.21758 0.004675 0.21757 0.004677 0.21758 0.004679 0.21757 0.004681 0.21758 0.004684 0.43515 0.009373 0.21757 0.00469 0.43515 0.009387 0.21758 0.004696 0.43515 0.009399 0.21757 0.004703 0.21758 0.004705 0.21757 0.004707 0.43515 0.009421 0.21758 0.004714 0.21757 0.004716 0.21758 0.004718 0.21757 0.00472 0.21758 0.004722 0.43515 0.009451 0.21757 0.004729 0.21758 0.004731 0.21757 0.004733 0.43515 0.009473 0.21758 0.00474 0.21757 0.004742 0.21758 0.004744 0.21757 0.004746 0.21758 0.004749 0.21757 0.004751 0.21758 0.004753 0.21757 0.004755 0.21758 0.004757 0.43515 0.009521 0.21757 0.004764 0.43515 0.009535 0.21758 0.00477 0.21757 0.004773 0.21758 0.004775 0.43515 0.009557 0.21757 0.004782 0.21758 0.004784 0.21757 0.004786 0.21758 0.004788 0.21757 0.004791 0.21758 0.004793 0.21757 0.004795 0.21758 0.004797 0.21757 0.0048 0.21758 0.004802 0.21757 0.004804 0.21758 0.004806 0.43515 0.009619 0.43515 0.009629 0.43515 0.009637 0.43515 0.009647 0.21757 0.004827 0.21758 0.004829 0.21757 0.004831 0.21758 0.004833 0.21757 0.004836 0.21758 0.004838 0.21757 0.00484 0.21758 0.004843 0.21757 0.004845 0.21758 0.004847 0.43515 0.009701 0.21757 0.004854 0.43515 0.009715 0.21758 0.004861 0.43515 0.009729 0.21757 0.004868 0.21758 0.00487 0.43515 0.009747 0.43515 0.009757 0.21757 0.004882 0.21758 0.004884 0.21757 0.004886 0.21758 0.004889 0.21757 0.004891 0.21758 0.004893 0.21757 0.004896 0.21758 0.004898 0.43515 0.009803 0.21757 0.004905 0.21758 0.004908 0.21757 0.00491 0.21758 0.004912 0.21757 0.004914 0.21758 0.004917 0.21757 0.004919 0.21758 0.004922 0.21757 0.004924 0.21758 0.004926 0.21757 0.004929 0.21758 0.004931 0.21757 0.004933 0.21758 0.004936 0.21757 0.004938 0.21758 0.00494 0.21757 0.004943 0.21758 0.004945 0.21757 0.004948 0.21758 0.00495 0.43515 0.009907 0.21757 0.004957 0.21758 0.00496 0.21757 0.004962 0.21758 0.004964 0.21757 0.004967 0.21758 0.004969 0.21757 0.004972 0.21758 0.004974 0.21757 0.004976 0.21758 0.004979 0.43515 0.009965 0.21757 0.004986 0.21758 0.004989 0.21757 0.004991 0.21758 0.004993 0.21757 0.004996 0.21758 0.004998 0.21757 0.005001 0.21758 0.005003 0.21757 0.005005 0.21758 0.005008 0.21757 0.005011 0.21758 0.005013 0.21757 0.005015 0.21758 0.005018 0.21757 0.00502 0.21758 0.005023 0.21757 0.005025 0.21758 0.005027 0.21757 0.00503 0.21758 0.005033 0.21757 0.005035 0.21758 0.005037 0.21757 0.00504 0.21758 0.005043 0.21757 0.005045 0.21758 0.005047 0.21757 0.00505 0.21758 0.005052 0.21757 0.005055 0.21758 0.005057 0.21757 0.00506 0.21758 0.005062 0.21757 0.005065 0.43515 0.010137 0.43515 0.010147 0.21758 0.005078 0.21757 0.00508 0.21758 0.005082 0.21757 0.005085 0.21758 0.005087 0.21757 0.00509 0.21758 0.005093 0.21757 0.005095 0.21758 0.005097 0.21757 0.0051 0.21758 0.005103 0.21757 0.005105 0.21758 0.005107 0.43515 0.010223 0.43515 0.010233 0.21757 0.005121 0.21758 0.005123 0.21757 0.005125 0.21758 0.005128 0.21757 0.005131 0.21758 0.005133 0.21757 0.005136 0.21758 0.005138 0.21757 0.005141 0.21758 0.005143 0.43515 0.010295 0.21757 0.005151 0.21758 0.005154 0.21757 0.005157 0.21758 0.005159 0.21757 0.005161 0.21758 0.005164 0.21757 0.005167 0.21758 0.005169 0.21757 0.005172 0.21758 0.005175 0.21757 0.005177 0.21758 0.00518 0.21757 0.005182 0.21758 0.005185 0.21757 0.005188 0.21758 0.00519 0.21757 0.005193 0.21758 0.005196 0.21757 0.005198 0.21758 0.005201 0.21757 0.005203 0.21758 0.005206 0.21757 0.005209 0.21758 0.005211 0.21757 0.005214 0.21758 0.005217 0.21757 0.005219 0.21758 0.005222 0.21757 0.005225 0.21758 0.005227 0.21757 0.00523 0.21758 0.005233 0.21757 0.005235 0.21758 0.005238 0.21757 0.00524 0.21758 0.005244 0.21757 0.005246 0.21758 0.005248 0.21757 0.005252 0.21758 0.005254 0.21757 0.005256 0.21758 0.00526 0.21757 0.005262 0.21758 0.005265 0.21757 0.005267 0.43515 0.010543 0.21758 0.005276 0.21757 0.005278 0.21758 0.005281 0.21757 0.005284 0.21758 0.005287 0.21757 0.005289 0.21758 0.005292 0.21757 0.005295 0.21758 0.005297 0.21757 0.0053 0.21758 0.005303 0.21757 0.005306 0.21758 0.005308 0.21757 0.005311 0.21758 0.005314 0.21757 0.005317 0.21758 0.005319 0.21757 0.005322 0.21758 0.005325 0.21757 0.005328 0.21758 0.00533 0.21757 0.005333 0.21758 0.005336 0.21757 0.005339 0.21758 0.005341 0.21757 0.005345 0.21758 0.005347 0.21757 0.00535 0.21758 0.005352 0.21757 0.005356 0.21758 0.005358 0.21757 0.005361 0.21758 0.005364 0.21757 0.005367 0.21758 0.005369 0.21757 0.005372 0.21758 0.005375 0.21757 0.005378 0.21758 0.005381 0.21757 0.005383 0.21758 0.005387 0.21757 0.005389 0.21758 0.005392 0.21757 0.005395 0.21758 0.005397 0.21757 0.005401 0.21758 0.005403 0.21757 0.005407 0.21758 0.005409 0.21757 0.005412 0.21758 0.005414 0.21757 0.005418 0.21758 0.00542 0.21757 0.005424 0.21758 0.005426 0.21757 0.005429 0.21758 0.005432 0.21757 0.005435 0.21758 0.005438 0.21757 0.00544 0.21758 0.005444 0.21757 0.005446 0.21758 0.005449 0.21757 0.005452 0.21758 0.005455 0.21757 0.005458 0.21758 0.005461 0.21757 0.005464 0.21758 0.005467 0.21757 0.005469 0.21758 0.005473 0.21757 0.005475 0.21758 0.005478 0.21757 0.005482v39.126h-413.17z" stroke="#0766aa" stroke-opacity=".2"/>
</defs>
<g clip-path="url(#t)">
<use y="413.19625" fill="#0766aa" fill-opacity=".2" stroke="#0766aa" stroke-opacity=".2" xlink:href="#ag"/>
</g>
<defs>
<path id="k" d="m0 0v3.5" stroke="#000" stroke-width=".8"/>
</defs>
<use x="40.603125" y="170.627393" stroke="#000000" stroke-width=".8" xlink:href="#k"/>
<use x="301.133711" y="170.627393" stroke="#000000" stroke-width=".8" xlink:href="#k"/>
<defs>
<path id="d" d="m0 0h-3.5" stroke="#000" stroke-width=".8"/>
</defs>
<use x="40.603125" y="154.105211" stroke="#000000" stroke-width=".8" xlink:href="#d"/>
<defs>
<path id="e" d="m12.406 8.2969h16.109v55.625l-17.531-3.5156v8.9844l17.438 3.5156h9.8594v-64.609h16.109v-8.2969h-41.984z"/>
<path id="b" d="m31.781 66.406q-7.6094 0-11.453-7.5-3.8281-7.4844-3.8281-22.531 0-14.984 3.8281-22.484 3.8438-7.5 11.453-7.5 7.6719 0 11.5 7.5 3.8438 7.5 3.8438 22.484 0 15.047-3.8438 22.531-3.8281 7.5-11.5 7.5zm0 7.8125q12.266 0 18.734-9.7031 6.4688-9.6875 6.4688-28.141 0-18.406-6.4688-28.109-6.4688-9.6875-18.734-9.6875-12.25 0-18.719 9.6875-6.4688 9.7031-6.4688 28.109 0 18.453 6.4688 28.141 6.4688 9.7031 18.719 9.7031z"/>
</defs>
<g transform="translate(16.003 157.9) scale(.1 -.1)">
<use transform="translate(0 .68438)" xlink:href="#e"/>
<use transform="translate(63.623 .68438)" xlink:href="#b"/>
<use transform="translate(128.2 38.966) scale(.7)" xlink:href="#e"/>
</g>
<use x="40.603125" y="130.467312" stroke="#000000" stroke-width=".8" xlink:href="#d"/>
<defs>
<path id="ad" d="m19.188 8.2969h34.422v-8.2969h-46.281v8.2969q5.6094 5.8125 15.297 15.594 9.7031 9.7969 12.188 12.641 4.7344 5.3125 6.6094 9 1.8906 3.6875 1.8906 7.25 0 5.8125-4.0781 9.4688-4.0781 3.6719-10.625 3.6719-4.6406 0-9.7969-1.6094-5.1406-1.6094-11-4.8906v9.9688q5.9531 2.3906 11.125 3.6094 5.1875 1.2188 9.4844 1.2188 11.328 0 18.062-5.6719 6.7344-5.6562 6.7344-15.125 0-4.5-1.6875-8.5312-1.6719-4.0156-6.125-9.4844-1.2188-1.4219-7.7656-8.1875-6.5312-6.7656-18.453-18.922z"/>
</defs>
<g transform="translate(16.003 134.27) scale(.1 -.1)">
<use transform="translate(0 .76562)" xlink:href="#e"/>
<use transform="translate(63.623 .76562)" xlink:href="#b"/>
<use transform="translate(128.2 39.047) scale(.7)" xlink:href="#ad"/>
</g>
<use x="40.603125" y="106.829413" stroke="#000000" stroke-width=".8" xlink:href="#d"/>
<defs>
<path id="as" d="m40.578 39.312q7.0781-1.5156 11.047-6.3125 3.9844-4.7812 3.9844-11.812 0-10.781-7.4219-16.703-7.4219-5.9062-21.094-5.9062-4.5781 0-9.4375 0.90625t-10.031 2.7188v9.5156q4.0938-2.3906 8.9688-3.6094 4.8906-1.2188 10.219-1.2188 9.2656 0 14.125 3.6562t4.8594 10.641q0 6.4531-4.5156 10.078-4.5156 3.6406-12.562 3.6406h-8.5v8.1094h8.8906q7.2656 0 11.125 2.9062t3.8594 8.375q0 5.6094-3.9844 8.6094-3.9688 3.0156-11.391 3.0156-4.0625 0-8.7031-0.89062-4.6406-0.875-10.203-2.7188v8.7812q5.625 1.5625 10.531 2.3438t9.25 0.78125q11.234 0 17.766-5.1094 6.5469-5.0938 6.5469-13.781 0-6.0625-3.4688-10.234t-9.8594-5.7812z"/>
</defs>
<g transform="translate(16.003 110.63) scale(.1 -.1)">
<use transform="translate(0 .76562)" xlink:href="#e"/>
<use transform="translate(63.623 .76562)" xlink:href="#b"/>
<use transform="translate(128.2 39.047) scale(.7)" xlink:href="#as"/>
</g>
<use x="40.603125" y="83.191514" stroke="#000000" stroke-width=".8" xlink:href="#d"/>
<defs>
<path id="ac" d="m37.797 64.312-24.906-38.922h24.906zm-2.5938 8.5938h12.406v-47.516h10.406v-8.2031h-10.406v-17.188h-9.8125v17.188h-32.906v9.5156z"/>
</defs>
<g transform="translate(16.003 86.991) scale(.1 -.1)">
<use transform="translate(0 .68438)" xlink:href="#e"/>
<use transform="translate(63.623 .68438)" xlink:href="#b"/>
<use transform="translate(128.2 38.966) scale(.7)" xlink:href="#ac"/>
</g>
<use x="40.603125" y="59.553615" stroke="#000000" stroke-width=".8" xlink:href="#d"/>
<defs>
<path id="n" d="m10.797 72.906h38.719v-8.3125h-29.688v-17.859q2.1406 0.73438 4.2812 1.0938 2.1562 0.35938 4.3125 0.35938 12.203 0 19.328-6.6875 7.1406-6.6875 7.1406-18.109 0-11.766-7.3281-18.297-7.3281-6.5156-20.656-6.5156-4.5938 0-9.3594 0.78125-4.75 0.78125-9.8281 2.3438v9.9219q4.3906-2.3906 9.0781-3.5625t9.9062-1.1719q8.4531 0 13.375 4.4375 4.9375 4.4375 4.9375 12.062 0 7.6094-4.9375 12.047-4.9219 4.4531-13.375 4.4531-3.9531 0-7.8906-0.875-3.9219-0.875-8.0156-2.7344z"/>
</defs>
<g transform="translate(16.003 63.353) scale(.1 -.1)">
<use transform="translate(0 .68438)" xlink:href="#e"/>
<use transform="translate(63.623 .68438)" xlink:href="#b"/>
<use transform="translate(128.2 38.966) scale(.7)" xlink:href="#n"/>
</g>
<use x="40.603125" y="35.915717" stroke="#000000" stroke-width=".8" xlink:href="#d"/>
<defs>
<path id="ab" d="m33.016 40.375q-6.6406 0-10.531-4.5469-3.875-4.5312-3.875-12.438 0-7.8594 3.875-12.438 3.8906-4.5625 10.531-4.5625t10.516 4.5625q3.875 4.5781 3.875 12.438 0 7.9062-3.875 12.438-3.875 4.5469-10.516 4.5469zm19.578 30.922v-8.9844q-3.7188 1.75-7.5 2.6719-3.7812 0.9375-7.5 0.9375-9.7656 0-14.922-6.5938-5.1406-6.5938-5.875-19.922 2.875 4.25 7.2188 6.5156 4.3594 2.2656 9.5781 2.2656 10.984 0 17.359-6.6719 6.375-6.6562 6.375-18.125 0-11.234-6.6406-18.031-6.6406-6.7812-17.672-6.7812-12.656 0-19.344 9.6875-6.6875 9.7031-6.6875 28.109 0 17.281 8.2031 27.562t22.016 10.281q3.7188 0 7.5-0.73438t7.8906-2.1875z"/>
</defs>
<g transform="translate(16.003 39.715) scale(.1 -.1)">
<use transform="translate(0 .76562)" xlink:href="#e"/>
<use transform="translate(63.623 .76562)" xlink:href="#b"/>
<use transform="translate(128.2 39.047) scale(.7)" xlink:href="#ab"/>
</g>
<defs>
<path id="a" d="m0 0h-2" stroke="#000" stroke-width=".6"/>
</defs>
<use x="40.603125" y="170.627393" stroke="#000000" stroke-width=".6" xlink:href="#a"/>
<use x="40.603125" y="166.464966" stroke="#000000" stroke-width=".6" xlink:href="#a"/>
<use x="40.603125" y="163.511677" stroke="#000000" stroke-width=".6" xlink:href="#a"/>
<use x="40.603125" y="161.220927" stroke="#000000" stroke-width=".6" xlink:href="#a"/>
<use x="40.603125" y="159.349249" stroke="#000000" stroke-width=".6" xlink:href="#a"/>
<use x="40.603125" y="157.766768" stroke="#000000" stroke-width=".6" xlink:href="#a"/>
<use x="40.603125" y="156.39596" stroke="#000000" stroke-width=".6" xlink:href="#a"/>
<use x="40.603125" y="155.186822" stroke="#000000" stroke-width=".6" xlink:href="#a"/>
<use x="40.603125" y="146.989494" stroke="#000000" stroke-width=".6" xlink:href="#a"/>
<use x="40.603125" y="142.827067" stroke="#000000" stroke-width=".6" xlink:href="#a"/>
<use x="40.603125" y="139.873778" stroke="#000000" stroke-width=".6" xlink:href="#a"/>
<use x="40.603125" y="137.583029" stroke="#000000" stroke-width=".6" xlink:href="#a"/>
<use x="40.603125" y="135.71135" stroke="#000000" stroke-width=".6" xlink:href="#a"/>
<use x="40.603125" y="134.128869" stroke="#000000" stroke-width=".6" xlink:href="#a"/>
<use x="40.603125" y="132.758061" stroke="#000000" stroke-width=".6" xlink:href="#a"/>
<use x="40.603125" y="131.548923" stroke="#000000" stroke-width=".6" xlink:href="#a"/>
<use x="40.603125" y="123.351595" stroke="#000000" stroke-width=".6" xlink:href="#a"/>
<use x="40.603125" y="119.189168" stroke="#000000" stroke-width=".6" xlink:href="#a"/>
<use x="40.603125" y="116.235879" stroke="#000000" stroke-width=".6" xlink:href="#a"/>
<use x="40.603125" y="113.94513" stroke="#000000" stroke-width=".6" xlink:href="#a"/>
<use x="40.603125" y="112.073451" stroke="#000000" stroke-width=".6" xlink:href="#a"/>
<use x="40.603125" y="110.49097" stroke="#000000" stroke-width=".6" xlink:href="#a"/>
<use x="40.603125" y="109.120162" stroke="#000000" stroke-width=".6" xlink:href="#a"/>
<use x="40.603125" y="107.911024" stroke="#000000" stroke-width=".6" xlink:href="#a"/>
<use x="40.603125" y="99.713697" stroke="#000000" stroke-width=".6" xlink:href="#a"/>
<use x="40.603125" y="95.551269" stroke="#000000" stroke-width=".6" xlink:href="#a"/>
<use x="40.603125" y="92.59798" stroke="#000000" stroke-width=".6" xlink:href="#a"/>
<use x="40.603125" y="90.307231" stroke="#000000" stroke-width=".6" xlink:href="#a"/>
<use x="40.603125" y="88.435553" stroke="#000000" stroke-width=".6" xlink:href="#a"/>
<use x="40.603125" y="86.853071" stroke="#000000" stroke-width=".6" xlink:href="#a"/>
<use x="40.603125" y="85.482263" stroke="#000000" stroke-width=".6" xlink:href="#a"/>
<use x="40.603125" y="84.273125" stroke="#000000" stroke-width=".6" xlink:href="#a"/>
<use x="40.603125" y="76.075798" stroke="#000000" stroke-width=".6" xlink:href="#a"/>
<use x="40.603125" y="71.91337" stroke="#000000" stroke-width=".6" xlink:href="#a"/>
<use x="40.603125" y="68.960081" stroke="#000000" stroke-width=".6" xlink:href="#a"/>
<use x="40.603125" y="66.669332" stroke="#000000" stroke-width=".6" xlink:href="#a"/>
<use x="40.603125" y="64.797654" stroke="#000000" stroke-width=".6" xlink:href="#a"/>
<use x="40.603125" y="63.215172" stroke="#000000" stroke-width=".6" xlink:href="#a"/>
<use x="40.603125" y="61.844365" stroke="#000000" stroke-width=".6" xlink:href="#a"/>
<use x="40.603125" y="60.635226" stroke="#000000" stroke-width=".6" xlink:href="#a"/>
<use x="40.603125" y="52.437899" stroke="#000000" stroke-width=".6" xlink:href="#a"/>
<use x="40.603125" y="48.275471" stroke="#000000" stroke-width=".6" xlink:href="#a"/>
<use x="40.603125" y="45.322182" stroke="#000000" stroke-width=".6" xlink:href="#a"/>
<use x="40.603125" y="43.031433" stroke="#000000" stroke-width=".6" xlink:href="#a"/>
<use x="40.603125" y="41.159755" stroke="#000000" stroke-width=".6" xlink:href="#a"/>
<use x="40.603125" y="39.577273" stroke="#000000" stroke-width=".6" xlink:href="#a"/>
<use x="40.603125" y="38.206466" stroke="#000000" stroke-width=".6" xlink:href="#a"/>
<use x="40.603125" y="36.997328" stroke="#000000" stroke-width=".6" xlink:href="#a"/>
<use x="40.603125" y="28.8" stroke="#000000" stroke-width=".6" xlink:href="#a"/>
<path d="m52.79 120.73 1.3054 0.42254 1.3054 0.63174 1.3054 0.88223 1.0879 0.98705 1.0879 1.2789 1.7406 2.2211 0.65272 0.47677 1.0879 0.21839 0.43515 0.008707 1.7406-0.9782 2.8285-2.0681 1.523-1.1992 1.523-0.91755 1.3054-0.50345 1.3054-0.26066 3.4812-0.26201 1.3054 0.18388 1.3054 0.40821 1.0879 0.382 1.7406 0.41396 1.0879 0.53795 0.8703 0.32673 1.0879 0.27618 2.6109 0.091848 1.0879 0.006963 1.0879-0.31647 2.6109-0.75515 1.7406-0.24797 1.7406-0.010411 1.523 0.20184 1.3054 0.38652 1.3054 0.6135 1.3054 0.88186 0.65272 0.46013 1.3054 0.46142 1.7406 0.66263 1.7406 0.91982 1.523 0.89032 2.6109 0.36486 1.7406-0.050762 1.9582 0.17384 2.6109 0.49104 2.3933 0.43108 1.7406-0.019084 1.7406 0.10128 1.7406 0.34599 1.523 0.51475 1.523 0.73044 1.523 0.97555 0.65272 0.5047 4.7866-0.21321 1.7406-0.082629 1.3054 0.15576 1.3054 0.35718 1.7406 0.75648 1.0879 0.33597 1.0879 0.11207 1.9582 0.21918 1.9582 0.43406 2.6109 0.85692 4.3515 1.333 1.0879 0.057842 0.8703-0.20247 0.8703-0.47153 1.3054-1.067 1.7406-1.675 1.9582-1.8988 1.0879-0.72054 1.3054-0.56832 1.3054-0.29619 1.3054-0.053178 1.3054 0.17943 1.3054 0.41775 1.3054 0.67061 1.523 1.0602 1.3054 1.1735 1.3054 1.478 1.0879 1.5328 1.0879 1.9058 1.523 3.185 3.2636 7.1404 0.43515 0.48237 0.43515 0.22428 4.5691 0.005476 9.5733-0.091928 1.9582-0.32529 2.6109-0.68501 10.661-3.1058 2.6109-0.39956 2.3933-0.13817 1.9582 0.13021 2.1757 0.37177 2.3933 0.64402 2.6109 0.93466 3.4812 1.5075 4.7866 2.0815 1.9582 0.60396 1.523 0.26098 1.7406 0.044316 19.364-0.094622 1.3054-0.33897 1.523-0.63677 2.1757-1.1888 6.7448-3.8837 2.3933-1.0551 2.1757-0.72866 4.1339-1.0302 4.1339-0.95953 7.8327-2.1812 4.5691-1.3144 1.9582-0.36729 1.3054 0.016762 1.3054 0.2245 1.523 0.5113 1.523 0.78085 1.523 1.0685 1.3054 1.1742 1.3054 1.4571 1.3054 1.8101 1.0879 1.8575 1.3054 2.69 1.0879 2.716 1.0879 3.3051 1.0879 4.1476 0.8703 4.2294 0.8703 5.5344 0.65272 5.5912 0.65272 7.9201 0.43515 7.9051 0.43515 13.298 0.21757 12.736 0.00182 197.34v0" clip-path="url(#t)" fill="none" stroke="#dc143c" stroke-linecap="square" stroke-width="1.5"/>
<path d="m40.603 170.63v-141.83" fill="none" stroke="#000" stroke-linecap="square" stroke-width=".8"/>
<path d="m486.62 170.63v-141.83" fill="none" stroke="#000" stroke-linecap="square" stroke-width=".8"/>
<path d="m40.603 170.63h446.02" fill="none" stroke="#000" stroke-linecap="square" stroke-width=".8"/>
<path d="m40.603 28.8h446.02" fill="none" stroke="#000" stroke-linecap="square" stroke-width=".8"/>
<path d="m324.59 66.156h155.04q2 0 2-2v-28.356q0-2-2-2h-155.04q-2 0-2 2v28.356q0 2 2 2z" fill="#fff" opacity=".8" stroke="#ccc"/>
<path d="m326.59 41.898h20" fill="none" stroke="#dc143c" stroke-linecap="square" stroke-width="1.5"/>
<defs>
<path id="f" d="m41.109 46.297q-1.5156 0.875-3.2969 1.2812-1.7812 0.42188-3.9219 0.42188-7.625 0-11.703-4.9531t-4.0781-14.234v-28.812h-9.0312v54.688h9.0312v-8.5q2.8438 4.9844 7.375 7.3906 4.5469 2.4219 11.047 2.4219 0.92188 0 2.0469-0.125 1.125-0.10938 2.4844-0.35938z"/>
<path id="g" d="m34.281 27.484q-10.891 0-15.094-2.4844t-4.2031-8.5q0-4.7812 3.1562-7.5938 3.1562-2.7969 8.5625-2.7969 7.4844 0 12 5.2969t4.5156 14.078v2zm17.922 3.7188v-31.203h-8.9844v8.2969q-3.0781-4.9688-7.6719-7.3438t-11.234-2.375q-8.3906 0-13.359 4.7188-4.9531 4.7188-4.9531 12.625 0 9.2188 6.1719 13.906 6.1875 4.6875 18.438 4.6875h12.609v0.89062q0 6.2031-4.0781 9.5938t-11.453 3.3906q-4.6875 0-9.1406-1.125-4.4375-1.125-8.5312-3.375v8.3125q4.9219 1.9062 9.5625 2.8438 4.6406 0.95312 9.0312 0.95312 11.875 0 17.734-6.1562 5.8594-6.1406 5.8594-18.641z"/>
<path id="p" d="m18.312 70.219v-15.531h18.5v-6.9844h-18.5v-29.688q0-6.6875 1.8281-8.5938t7.4531-1.9062h9.2188v-7.5156h-9.2188q-10.406 0-14.359 3.875-3.9531 3.8906-3.9531 14.141v29.688h-6.5938v6.9844h6.5938v15.531z"/>
<path id="c" d="m56.203 29.594v-4.3906h-41.312q0.59375-9.2812 5.5938-14.141t13.938-4.8594q5.1719 0 10.031 1.2656t9.6562 3.8125v-8.5q-4.8438-2.0469-9.9219-3.125t-10.297-1.0781q-13.094 0-20.734 7.6094-7.6406 7.625-7.6406 20.625 0 13.422 7.25 21.297 7.25 7.8906 19.562 7.8906 11.031 0 17.453-7.1094 6.4219-7.0938 6.4219-19.297zm-8.9844 2.6406q-0.09375 7.3594-4.125 11.75-4.0312 4.4062-10.672 4.4062-7.5156 0-12.031-4.25t-5.2031-11.969z"/>
<path id="j" d="m30.609 48.391q-7.2188 0-11.422-5.6406t-4.2031-15.453 4.1719-15.453q4.1875-5.6406 11.453-5.6406 7.1875 0 11.375 5.6562 4.2031 5.6719 4.2031 15.438 0 9.7188-4.2031 15.406-4.1875 5.6875-11.375 5.6875zm0 7.6094q11.719 0 18.406-7.625 6.7031-7.6094 6.7031-21.078 0-13.422-6.7031-21.078-6.6875-7.6406-18.406-7.6406-11.766 0-18.438 7.6406-6.6562 7.6562-6.6562 21.078 0 13.469 6.6562 21.078 6.6719 7.625 18.438 7.625z"/>
<path id="x" d="m37.109 75.984v-7.4844h-8.5938q-4.8281 0-6.7188-1.9531-1.875-1.9531-1.875-7.0312v-4.8281h14.797v-6.9844h-14.797v-47.703h-9.0312v47.703h-8.5938v6.9844h8.5938v3.8125q0 9.125 4.25 13.297 4.25 4.1875 13.469 4.1875z"/>
<path id="l" d="m9.4219 54.688h8.9844v-54.688h-8.9844zm0 21.297h8.9844v-11.391h-8.9844z"/>
<path id="q" d="m9.4219 75.984h8.9844v-75.984h-8.9844z"/>
<path id="u" d="m8.5 21.578v33.109h8.9844v-32.766q0-7.7656 3.0156-11.656 3.0312-3.875 9.0938-3.875 7.2656 0 11.484 4.6406 4.2344 4.6406 4.2344 12.656v31h8.9844v-54.688h-8.9844v8.4062q-3.2656-4.9844-7.5938-7.4062-4.3125-2.4219-10.031-2.4219-9.4219 0-14.312 5.8594-4.875 5.8594-4.875 17.141zm22.609 34.422z"/>
<path id="h" d="m44.281 53.078v-8.5q-3.7969 1.9531-7.9062 2.9219-4.0938 0.98438-8.5 0.98438-6.6875 0-10.031-2.0469t-3.3438-6.1562q0-3.125 2.3906-4.9062t9.625-3.3906l3.0781-0.6875q9.5625-2.0469 13.594-5.7812t4.0312-10.422q0-7.625-6.0312-12.078-6.0312-4.4375-16.578-4.4375-4.3906 0-9.1562 0.85938t-10.031 2.5625v9.2812q4.9844-2.5938 9.8125-3.8906 4.8281-1.2812 9.5781-1.2812 6.3438 0 9.75 2.1719 3.4219 2.1719 3.4219 6.125 0 3.6562-2.4688 5.6094-2.4531 1.9531-10.812 3.7656l-3.125 0.73438q-8.3438 1.75-12.062 5.3906-3.7031 3.6406-3.7031 9.9844 0 7.7188 5.4688 11.906 5.4688 4.2031 15.531 4.2031 4.9688 0 9.3594-0.73438 4.4062-0.71875 8.1094-2.1875z"/>
<path id="s" d="m31 75.875q-6.5312-11.219-9.7188-22.219-3.1719-10.984-3.1719-22.266 0-11.266 3.2031-22.328t9.6875-22.25h-7.8125q-7.3125 11.484-10.953 22.562t-3.6406 22.016q0 10.891 3.6094 21.922 3.625 11.047 10.984 22.562z"/>
<path id="m" d="m45.406 46.391v29.594h8.9844v-75.984h-8.9844v8.2031q-2.8281-4.875-7.1562-7.25-4.3125-2.375-10.375-2.375-9.9062 0-16.141 7.9062-6.2188 7.9219-6.2188 20.812t6.2188 20.797q6.2344 7.9062 16.141 7.9062 6.0625 0 10.375-2.375 4.3281-2.3594 7.1562-7.2344zm-30.609-19.094q0-9.9062 4.0781-15.547t11.203-5.6406 11.219 5.6406q4.1094 5.6406 4.1094 15.547t-4.1094 15.547q-4.0938 5.6406-11.219 5.6406t-11.203-5.6406-4.0781-15.547z"/>
<path id="v" d="m9.0781 75.984h9.0312v-44.875l26.812 23.578h11.469l-29-25.578 30.234-29.109h-11.719l-27.797 26.703v-26.703h-9.0312z"/>
<path id="ae" d="m25.391 72.906h8.2969l-25.391-82.188h-8.2969z"/>
<path id="o" d="m32.172-5.0781q-3.7969-9.7656-7.4219-12.734-3.6094-2.9844-9.6562-2.9844h-7.1875v7.5156h5.2812q3.7031 0 5.75 1.7656 2.0625 1.75 4.5469 8.2969l1.6094 4.0938-22.109 53.812h9.5156l17.094-42.766 17.094 42.766h9.5156z"/>
<path id="r" d="m8.0156 75.875h7.8125q7.3125-11.516 10.953-22.562 3.6406-11.031 3.6406-21.922 0-10.938-3.6406-22.016t-10.953-22.562h-7.8125q6.4844 11.188 9.6875 22.25t3.2031 22.328q0 11.281-3.2031 22.266-3.2031 11-9.6875 22.219z"/>
</defs>
<g transform="translate(354.59 45.398) scale(.1 -.1)">
<use xlink:href="#f"/>
<use x="41.113281" xlink:href="#g"/>
<use x="102.392578" xlink:href="#p"/>
<use x="141.601562" xlink:href="#c"/>
<use x="203.125" xlink:href="#DejaVuSans-20"/>
<use x="234.912109" xlink:href="#j"/>
<use x="296.09375" xlink:href="#x"/>
<use x="331.298828" xlink:href="#DejaVuSans-20"/>
<use x="363.085938" xlink:href="#x"/>
<use x="398.291016" xlink:href="#g"/>
<use x="459.570312" xlink:href="#l"/>
<use x="487.353516" xlink:href="#q"/>
<use x="515.136719" xlink:href="#u"/>
<use x="578.515625" xlink:href="#f"/>
<use x="619.597656" xlink:href="#c"/>
<use x="681.121094" xlink:href="#h"/>
<use x="733.220703" xlink:href="#DejaVuSans-20"/>
<use x="765.007812" xlink:href="#s"/>
<use x="804.021484" xlink:href="#m"/>
<use x="867.498047" xlink:href="#l"/>
<use x="895.28125" xlink:href="#h"/>
<use x="947.380859" xlink:href="#v"/>
<use x="1005.291016" xlink:href="#h"/>
<use x="1057.390625" xlink:href="#ae"/>
<use x="1091.082031" xlink:href="#o"/>
<use x="1150.261719" xlink:href="#f"/>
<use x="1191.375" xlink:href="#r"/>
</g>
<path d="m326.59 60.077h20v-7h-20z" fill="#0766aa" fill-opacity=".2" stroke="#0766aa" stroke-opacity=".2"/>
<defs>
<path id="al" d="m48.688 27.297q0 9.9062-4.0781 15.547t-11.203 5.6406q-7.1406 0-11.219-5.6406t-4.0781-15.547 4.0781-15.547 11.219-5.6406q7.125 0 11.203 5.6406t4.0781 15.547zm-30.578 19.094q2.8438 4.875 7.1562 7.2344 4.3281 2.375 10.328 2.375 9.9688 0 16.188-7.9062 6.2344-7.9062 6.2344-20.797t-6.2344-20.812q-6.2188-7.9062-16.188-7.9062-6 0-10.328 2.375-4.3125 2.375-7.1562 7.25v-8.2031h-9.0312v75.984h9.0312z"/>
<path id="ai" d="m2.9844 54.688h9.5156l17.094-45.891 17.094 45.891h9.5156l-20.516-54.688h-12.203z"/>
</defs>
<g transform="translate(354.59 60.077) scale(.1 -.1)">
<use xlink:href="#m"/>
<use x="63.476562" xlink:href="#l"/>
<use x="91.259766" xlink:href="#h"/>
<use x="143.359375" xlink:href="#v"/>
<use x="201.269531" xlink:href="#h"/>
<use x="253.369141" xlink:href="#DejaVuSans-20"/>
<use x="285.15625" xlink:href="#j"/>
<use x="346.337891" xlink:href="#al"/>
<use x="409.814453" xlink:href="#h"/>
<use x="461.914062" xlink:href="#c"/>
<use x="523.4375" xlink:href="#f"/>
<use x="564.550781" xlink:href="#ai"/>
<use x="623.730469" xlink:href="#c"/>
<use x="685.253906" xlink:href="#m"/>
</g>
<path d="m40.603 375.64h446.02v-189.1h-446.02z" fill="#fff"/>
<use x="40.603125" y="375.64" stroke="#000000" stroke-width=".8" xlink:href="#k"/>
<defs>
<path id="af" d="m10.688 12.406h10.312v-12.406h-10.312z"/>
</defs>
<g transform="translate(32.652 390.24) scale(.1 -.1)">
<use xlink:href="#b"/>
<use x="63.623047" xlink:href="#af"/>
<use x="95.410156" xlink:href="#b"/>
</g>
<use x="301.133711" y="375.64" stroke="#000000" stroke-width=".8" xlink:href="#k"/>
<g transform="translate(293.18 390.24) scale(.1 -.1)">
<use xlink:href="#b"/>
<use x="63.623047" xlink:href="#af"/>
<use x="95.410156" xlink:href="#n"/>
</g>
<defs>
<path id="aq" d="m34.188 63.188-13.391-36.281h26.812zm-5.5781 9.7188h11.188l27.781-72.906h-10.25l-6.6406 18.703h-32.859l-6.6406-18.703h-10.406z"/>
<path id="w" d="m45.406 27.984q0 9.7656-4.0312 15.125-4.0156 5.375-11.297 5.375-7.2188 0-11.25-5.375-4.0312-5.3594-4.0312-15.125 0-9.7188 4.0312-15.094t11.25-5.375q7.2812 0 11.297 5.375 4.0312 5.375 4.0312 15.094zm8.9844-21.203q0-13.953-6.2031-20.766-6.1875-6.8125-18.984-6.8125-4.7344 0-8.9375 0.70312t-8.1562 2.1719v8.7344q3.9531-2.1406 7.8125-3.1562 3.8594-1.0312 7.8594-1.0312 8.8438 0 13.234 4.6094t4.3906 13.938v4.4531q-2.7812-4.8438-7.125-7.2344t-10.406-2.3906q-10.047 0-16.203 7.6562-6.1562 7.6719-6.1562 20.328 0 12.688 6.1562 20.344 6.1562 7.6719 16.203 7.6719 6.0625 0 10.406-2.3906t7.125-7.2188v8.2969h8.9844z"/>
<path id="aj" d="m18.109 8.2031v-29h-9.0312v75.484h9.0312v-8.2969q2.8438 4.875 7.1562 7.2344 4.3281 2.375 10.328 2.375 9.9688 0 16.188-7.9062 6.2344-7.9062 6.2344-20.797t-6.2344-20.812q-6.2188-7.9062-16.188-7.9062-6 0-10.328 2.375-4.3125 2.375-7.1562 7.25zm30.578 19.094q0 9.9062-4.0781 15.547t-11.203 5.6406q-7.1406 0-11.219-5.6406t-4.0781-15.547 4.0781-15.547 11.219-5.6406q7.125 0 11.203 5.6406t4.0781 15.547z"/>
<path id="ah" d="m4.2031 54.688h8.9844l11.234-42.672 11.172 42.672h10.594l11.234-42.672 11.188 42.672h8.9844l-14.312-54.688h-10.594l-11.766 44.828-11.812-44.828h-10.609z"/>
<path id="at" d="m4.8906 31.391h26.312v-8h-26.312z"/>
<path id="ak" d="m54.891 33.016v-33.016h-8.9844v32.719q0 7.7656-3.0312 11.609-3.0312 3.8594-9.0781 3.8594-7.2812 0-11.484-4.6406-4.2031-4.625-4.2031-12.641v-30.906h-9.0312v54.688h9.0312v-8.5q3.2344 4.9375 7.5938 7.375 4.375 2.4375 10.094 2.4375 9.4219 0 14.25-5.8281 4.8438-5.8281 4.8438-17.156z"/>
</defs>
<g transform="translate(209.62 403.92) scale(.1 -.1)">
<use xlink:href="#aq"/>
<use x="68.408203" xlink:href="#w"/>
<use x="131.884766" xlink:href="#c"/>
<use x="193.408203" xlink:href="#DejaVuSans-20"/>
<use x="225.195312" xlink:href="#s"/>
<use x="264.208984" xlink:href="#aj"/>
<use x="327.685547" xlink:href="#j"/>
<use x="388.867188" xlink:href="#ah"/>
<use x="470.654297" xlink:href="#c"/>
<use x="532.177734" xlink:href="#f"/>
<use x="573.197266" xlink:href="#at"/>
<use x="609.296875" xlink:href="#j"/>
<use x="670.478516" xlink:href="#ak"/>
<use x="733.857422" xlink:href="#DejaVuSans-20"/>
<use x="765.644531" xlink:href="#o"/>
<use x="824.824219" xlink:href="#c"/>
<use x="886.347656" xlink:href="#g"/>
<use x="947.626953" xlink:href="#f"/>
<use x="988.740234" xlink:href="#h"/>
<use x="1040.839844" xlink:href="#r"/>
</g>
<path d="m40.603 375.64h446.02" clip-path="url(#i)" fill="none" stroke="#b0b0b0" stroke-linecap="square" stroke-width=".8"/>
<use x="40.603125" y="375.64" stroke="#000000" stroke-width=".8" xlink:href="#d"/>
<g transform="translate(27.241 379.44) scale(.1 -.1)">
<use xlink:href="#b"/>
</g>
<path d="m40.603 328.36h446.02" clip-path="url(#i)" fill="none" stroke="#b0b0b0" stroke-linecap="square" stroke-width=".8"/>
<use x="40.603125" y="328.364202" stroke="#000000" stroke-width=".8" xlink:href="#d"/>
<g transform="translate(27.241 332.16) scale(.1 -.1)">
<use xlink:href="#ac"/>
</g>
<path d="m40.603 281.09h446.02" clip-path="url(#i)" fill="none" stroke="#b0b0b0" stroke-linecap="square" stroke-width=".8"/>
<use x="40.603125" y="281.088405" stroke="#000000" stroke-width=".8" xlink:href="#d"/>
<defs>
<path id="aa" d="m31.781 34.625q-7.0312 0-11.062-3.7656-4.0156-3.7656-4.0156-10.344 0-6.5938 4.0156-10.359 4.0312-3.7656 11.062-3.7656t11.078 3.7812q4.0625 3.7969 4.0625 10.344 0 6.5781-4.0312 10.344-4.0156 3.7656-11.109 3.7656zm-9.8594 4.1875q-6.3438 1.5625-9.8906 5.9062-3.5312 4.3594-3.5312 10.609 0 8.7344 6.2188 13.812 6.2344 5.0781 17.062 5.0781 10.891 0 17.094-5.0781t6.2031-13.812q0-6.25-3.5469-10.609-3.5312-4.3438-9.8281-5.9062 7.125-1.6562 11.094-6.5 3.9844-4.8281 3.9844-11.797 0-10.609-6.4688-16.281-6.4688-5.6562-18.531-5.6562-12.047 0-18.531 5.6562-6.4688 5.6719-6.4688 16.281 0 6.9688 4 11.797 4.0156 4.8438 11.141 6.5zm-3.6094 15.578q0-5.6562 3.5312-8.8281 3.5469-3.1719 9.9375-3.1719 6.3594 0 9.9375 3.1719 3.5938 3.1719 3.5938 8.8281 0 5.6719-3.5938 8.8438-3.5781 3.1719-9.9375 3.1719-6.3906 0-9.9375-3.1719-3.5312-3.1719-3.5312-8.8438z"/>
</defs>
<g transform="translate(27.241 284.89) scale(.1 -.1)">
<use xlink:href="#aa"/>
</g>
<path d="m40.603 233.81h446.02" clip-path="url(#i)" fill="none" stroke="#b0b0b0" stroke-linecap="square" stroke-width=".8"/>
<use x="40.603125" y="233.812607" stroke="#000000" stroke-width=".8" xlink:href="#d"/>
<g transform="translate(20.878 237.61) scale(.1 -.1)">
<use xlink:href="#e"/>
<use x="63.623047" xlink:href="#ad"/>
</g>
<path d="m40.603 186.54h446.02" clip-path="url(#i)" fill="none" stroke="#b0b0b0" stroke-linecap="square" stroke-width=".8"/>
<use x="40.603125" y="186.536809" stroke="#000000" stroke-width=".8" xlink:href="#d"/>
<g transform="translate(20.878 190.34) scale(.1 -.1)">
<use xlink:href="#e"/>
<use x="63.623047" xlink:href="#ab"/>
</g>
<defs>
<path id="ap" d="m9.8125 72.906h41.891v-8.3125h-32.031v-21.484h28.906v-8.2969h-28.906v-34.812h-9.8594z"/>
<path id="an" d="m44.391 34.188q3.1719-1.0781 6.1719-4.5938t6.0312-9.6719l10.016-19.922h-10.609l-9.3125 18.703q-3.625 7.3281-7.0156 9.7188t-9.25 2.3906h-10.75v-30.812h-9.8594v72.906h22.266q12.5 0 18.656-5.2344 6.1562-5.2188 6.1562-15.766 0-6.8906-3.2031-11.438-3.2031-4.5312-9.2969-6.2812zm-24.719 30.609v-25.875h12.406q7.125 0 10.766 3.2969t3.6406 9.6875-3.6406 9.6406-10.766 3.25z"/>
<path id="au" d="m72.703 32.078q-4.25 0-6.6719-3.6094-2.4062-3.6094-2.4062-10.062 0-6.3438 2.4062-9.9844 2.4219-3.6406 6.6719-3.6406 4.1562 0 6.5625 3.6406 2.4219 3.6406 2.4219 9.9844 0 6.4062-2.4219 10.031-2.4062 3.6406-6.5625 3.6406zm0 6.2031q7.7188 0 12.25-5.375 4.5469-5.3594 4.5469-14.5 0-9.125-4.5625-14.484-4.5625-5.3438-12.234-5.3438-7.8125 0-12.359 5.3438-4.5312 5.3594-4.5312 14.484 0 9.1875 4.5625 14.531t12.328 5.3438zm-50.391 29.734q-4.2031 0-6.625-3.6406-2.4062-3.625-2.4062-9.9844 0-6.4375 2.3906-10.062 2.3906-3.6094 6.6406-3.6094t6.6562 3.6094q2.4219 3.625 2.4219 10.062 0 6.2969-2.4375 9.9531-2.4375 3.6719-6.6406 3.6719zm44.094 6.2031h7.8125l-45.609-75.641h-7.8125zm-44.094 0q7.7188 0 12.297-5.3438 4.5938-5.3438 4.5938-14.484 0-9.2188-4.5625-14.547t-12.328-5.3281-12.281 5.3438q-4.5156 5.3594-4.5156 14.531 0 9.0938 4.5312 14.453 4.5469 5.375 12.266 5.375z"/>
</defs>
<g transform="translate(14.798 334.34) rotate(-90) scale(.1 -.1)">
<use xlink:href="#ap"/>
<use x="57.378906" xlink:href="#g"/>
<use x="118.658203" xlink:href="#l"/>
<use x="146.441406" xlink:href="#q"/>
<use x="174.224609" xlink:href="#u"/>
<use x="237.603516" xlink:href="#f"/>
<use x="278.685547" xlink:href="#c"/>
<use x="340.208984" xlink:href="#DejaVuSans-20"/>
<use x="371.996094" xlink:href="#an"/>
<use x="441.447266" xlink:href="#g"/>
<use x="502.726562" xlink:href="#p"/>
<use x="541.935547" xlink:href="#c"/>
<use x="603.458984" xlink:href="#DejaVuSans-20"/>
<use x="635.246094" xlink:href="#s"/>
<use x="674.259766" xlink:href="#au"/>
<use x="769.279297" xlink:href="#ae"/>
<use x="802.970703" xlink:href="#o"/>
<use x="862.150391" xlink:href="#c"/>
<use x="923.673828" xlink:href="#g"/>
<use x="984.953125" xlink:href="#f"/>
<use x="1026.066406" xlink:href="#r"/>
</g>
<path d="m52.79 348.07 3.2636 7.2375 4.1339 8.1586 0.8703 0.96329 0.43515 0.24423 0.8703 0.23624 0.43515 0.044419 1.523-0.81608 1.523-1.2328 1.523-1.4955 2.3933-2.735 1.0879-1.0025 1.0879-0.72816 1.0879-0.4462 3.6988-0.84401 0.8703 0.10257 0.8703 0.28849 1.0879 0.63205 0.43515 0.20357 1.9582 0.53516 0.8703 0.58738 0.65272 0.4305 1.3054 0.52263 2.8285-0.43419 0.8703-0.14794 0.65272-0.35084 3.046-2.306 1.3054-0.70236 1.3054-0.45061 1.3054-0.18528 1.0879 0.076916 0.8703 0.32356 1.0879 0.68572 1.0879 0.97405 1.0879 1.2636 0.65272 0.7254 0.8703 0.46014 1.7406 0.72916 1.523 0.86894 1.523 1.1469 0.43515 0.36473 1.523 0.27968 0.8703 0.11741 2.3933-0.27887 2.1757 0.079001 2.6109 0.29556 1.7406 0.14851 1.3054-0.16362 1.523-0.24394 1.523 0.003356 1.3054 0.21009 1.3054 0.43505 1.523 0.7647 1.7406 1.1417 0.43515 0.3278 4.7866-0.54306 1.523-0.18119 1.3054 0.13015 1.3054 0.34373 1.523 0.65265 1.3054 0.4557 1.0879 0.13898 2.6109 0.2225 2.1757 0.35922 4.7866 0.96436 1.523 0.14426 1.3054-0.11983 0.8703-0.31721 0.8703-0.55222 1.0879-0.97618 1.0879-1.2011 1.3054-1.7733 1.9582-2.7542 1.3054-1.3966 1.0879-0.87597 1.0879-0.60185 0.8703-0.24125 0.8703 0.021754 0.8703 0.21692 1.0879 0.53412 1.0879 0.81345 1.3054 1.2384 1.3054 1.518 1.7406 2.4898 4.5691 6.8335 1.0879 1.1087 0.8703 0.57608 0.8703 0.27277 1.0879-4.99e-4 12.837-0.40287 3.2636-0.32352 2.6109-0.45604 11.531-2.4679 3.2636-0.46007 2.3933-0.10562 2.6109 0.10116 1.7406 0.24493 4.7866 1.1466 4.7866 1.0792 2.8285 0.42028 2.3933 0.14218 10.444-0.0496 6.0921-0.38255 4.1339-0.39712 1.7406-0.4345 1.9582-0.74348 1.9582-0.98503 2.1757-1.3347 5.4394-3.5276 2.1757-1.0298 3.046-1.0802 7.3975-2.656 4.3515-2.0264 2.8285-1.6639 4.1339-2.4197 1.3054-0.55559 0.8703-0.087477 0.8703 0.13166 0.8703 0.3354 1.0879 0.68234 1.0879 0.94668 1.3054 1.4427 3.9163 4.9953 1.7406 2.7405 5.0042 8.3196 1.3054 1.7189 1.0879 1.1243 0.8703 0.63772 0.8703 0.3528 0.8703 0.052857h146.43v0" clip-path="url(#i)" fill="none" stroke="#d2691e" stroke-linecap="square" stroke-width="1.5"/>
<path d="m40.603 375.64v-189.1" fill="none" stroke="#000" stroke-linecap="square" stroke-width=".8"/>
<path d="m486.62 375.64v-189.1" fill="none" stroke="#000" stroke-linecap="square" stroke-width=".8"/>
<path d="m40.603 375.64h446.02" fill="none" stroke="#000" stroke-linecap="square" stroke-width=".8"/>
<path d="m40.603 186.54h446.02" fill="none" stroke="#000" stroke-linecap="square" stroke-width=".8"/>
<defs>
<path id="z" d="m9.8125 72.906h14.703l18.594-49.609 18.703 49.609h14.703v-72.906h-9.625v64.016l-18.797-50h-9.9062l-18.797 50v-64.016h-9.5781z"/>
<path id="ar" d="m11.719 12.406h10.297v-12.406h-10.297zm0 39.297h10.297v-12.391h-10.297z"/>
<path id="y" d="m53.516 70.516v-9.625q-5.6094 2.6875-10.594 4-4.9844 1.3281-9.625 1.3281-8.0469 0-12.422-3.125t-4.375-8.8906q0-4.8438 2.9062-7.3125 2.9062-2.4531 11.016-3.9688l5.9531-1.2188q11.031-2.1094 16.281-7.4062t5.25-14.172q0-10.609-7.1094-16.078-7.0938-5.4688-20.812-5.4688-5.1719 0-11.016 1.1719-5.8281 1.1719-12.078 3.4688v10.156q6-3.3594 11.766-5.0781 5.7656-1.7031 11.328-1.7031 8.4375 0 13.031 3.3125 4.5938 3.3281 4.5938 9.4844 0 5.3594-3.2969 8.3906t-10.812 4.5469l-6.0156 1.1719q-11.031 2.1875-15.969 6.875-4.9219 4.6875-4.9219 13.047 0 9.6719 6.8125 15.234t18.766 5.5625q5.1406 0 10.453-0.9375 5.3281-0.92188 10.891-2.7656z"/>
<path id="am" d="m-0.29688 72.906h61.672v-8.3125h-25.875v-64.594h-9.9062v64.594h-25.891z"/>
<path id="ao" d="m9.8125 72.906h13.281l32.328-60.984v60.984h9.5625v-72.906h-13.281l-32.312 60.984v-60.984h-9.5781z"/>
</defs>
<g transform="translate(151.7 16.318) scale(.12 -.12)">
<use xlink:href="#z"/>
<use x="86.279297" xlink:href="#j"/>
<use x="147.460938" xlink:href="#m"/>
<use x="210.9375" xlink:href="#c"/>
<use x="272.460938" xlink:href="#q"/>
<use x="300.244141" xlink:href="#ar"/>
<use x="333.935547" xlink:href="#DejaVuSans-20"/>
<use x="365.722656" xlink:href="#y"/>
<use x="429.199219" xlink:href="#c"/>
<use x="490.722656" xlink:href="#g"/>
<use x="552.001953" xlink:href="#w"/>
<use x="615.478516" xlink:href="#g"/>
<use x="676.757812" xlink:href="#p"/>
<use x="715.966797" xlink:href="#c"/>
<use x="777.490234" xlink:href="#DejaVuSans-20"/>
<use x="809.277344" xlink:href="#y"/>
<use x="872.753906" xlink:href="#am"/>
<use x="933.837891" xlink:href="#aa"/>
<use x="997.460938" xlink:href="#b"/>
<use x="1061.083984" xlink:href="#b"/>
<use x="1124.707031" xlink:href="#b"/>
<use x="1188.330078" xlink:href="#ao"/>
<use x="1263.134766" xlink:href="#z"/>
<use x="1349.414062" xlink:href="#b"/>
<use x="1413.037109" xlink:href="#b"/>
<use x="1476.660156" xlink:href="#n"/>
<use x="1540.283203" xlink:href="#n"/>
</g>
<defs>
<clipPath id="t">
<rect x="40.603" y="28.8" width="446.02" height="141.83"/>
</clipPath>
<clipPath id="i">
<rect x="40.603" y="186.54" width="446.02" height="189.1"/>
</clipPath>
</defs>
</svg>
