<?xml version="1.0" encoding="UTF-8"?>
<!DOCTYPE svg  PUBLIC '-//W3C//DTD SVG 1.1//EN'  'http://www.w3.org/Graphics/SVG/1.1/DTD/svg11.dtd'>
<svg width="497pt" height="413pt" version="1.1" viewBox="0 0 497 413" xmlns="http://www.w3.org/2000/svg" xmlns:xlink="http://www.w3.org/1999/xlink">
<defs>
<style type="text/css">*{stroke-linecap:butt;stroke-linejoin:round;}</style>
</defs>
<path d="m0 413.2h497.32v-413.2h-497.32z" fill="#fff"/>
<path d="m40.603 170.63h446.02v-141.83h-446.02z" fill="#fff"/>
<defs>
<path id="af" d="m52.474-235.45v-71.2l0.21865-0.095962 0.21865-0.026902 0.21866-0.02572 0.21865-0.025143 0.21865-0.023099 0.21865-0.022826 0.21866-0.01955 0.21865-0.018755 0.21865-0.014943 0.21866-0.014974 0.21865-0.014945 0.21865-0.014875 0.21866-0.014984 0.21865-0.013918 0.21865-0.011778 0.21866-0.01168 0.21865-0.011628 0.21865-0.010623 0.21865-0.010696 0.43731-0.021084 0.21865-0.01049 0.21866-0.01061 0.21865-0.010224 0.21865-0.009198 0.21866-0.009335 0.43731-0.018745 0.21866-0.009436 0.21865-0.009489 0.21865-0.009487 0.21865-0.009485 0.21866-0.008713 0.21865-0.007794 0.43731-0.01562 0.21865-0.007863 0.21865-0.007822 0.21866-0.007766 0.21865-0.007711 0.21865-0.006618 0.21865-0.006504 0.21866-0.00653 0.21865-0.006526 0.43731-0.013042 0.21865-0.006029 0.21865-0.005793 0.21866-0.005811 0.21865-0.005723 0.43731-0.010572 0.21865-0.005283 0.21865-0.005279 0.21865-0.005316 0.21866-0.004792 0.21865-0.004213 0.21865-0.004089 0.21866-0.003393 0.21865-0.003388 0.21865-0.003399 0.21866-0.003433 0.21865-0.003497 0.21865-0.0034 0.21865-0.002956 0.21866-0.002672 0.21865-0.00212 0.21865-0.001825 0.21866-0.001775 0.21865-0.001576 0.21865-0.001495 0.21866-0.001444 0.21865-0.001364 0.21865-0.001278 0.21866-7.53e-4 0.21865-7.86e-4 0.21865-8.2e-4 0.21865-8.56e-4 0.21866-8.96e-4 0.21865-9.58e-4 0.21865-0.001103 0.21866-1e-3 0.21865-5.4e-4 0.21865-5.71e-4 0.21866-6.02e-4 0.21865-8.41e-4 0.21865-9.06e-4 0.21866-8.6e-4 0.21865-6.04e-4 0.21865-5.64e-4 0.21865-4.56e-4 0.21866-4.24e-4 0.21865-3.94e-4 0.21865-3.48e-4 0.21866-2.61e-4 0.21865-2.1e-5 0.21865 9.1e-5 0.21866 7e-5 0.21865 1.25e-4 0.21865 6.1e-5 0.21865-1e-6 0.21866 2.14e-4 0.21865 2.94e-4 0.21865 4.31e-4 0.21866 5e-4 0.21865 6.89e-4 0.21865 7.84e-4 0.21866 9.94e-4 0.21865 0.001547 0.21865 0.001568 0.21866 0.001629 0.21865 0.001709 0.21865 0.001765 0.21865 0.00204 0.21866 0.002275 0.43731 0.00456 0.21866 0.002266 0.21865 0.002247 0.21865 0.002219 0.21866 0.002146 0.43731 0.004485 0.21865 0.002221 0.21866 0.002489 0.21865 0.002554 0.21865 0.002617 0.21866 0.002682 0.21865 0.00252 0.21865 0.002494 0.21866 0.002468 0.21865 0.002539 0.21865 0.002752 0.21866 0.002754 0.21865 0.002822 0.21865 0.002907 0.21865 0.002926 0.21866 0.003003 0.87462 0.012236 1.0933 0.015197 0.65596 0.009064 0.21866 0.003006 0.21865 0.002991 0.21865 0.003049 0.21866 0.003028 0.21865 0.003007 0.21865 0.002885 0.21866 0.00279 0.87462 0.011068 0.21865 0.00275 0.65596 0.008462 0.21865 0.002768 0.21866 0.002745 0.43731 0.005663 0.21866 0.002861 1.3119 0.017607 0.21866 0.002936 0.21865 0.002842 0.21865 0.002778 0.21866 0.002825 0.21865 0.00294 0.21865 0.002957 0.21865 0.002974 0.21866 0.002991 0.21865 0.003007 0.21865 0.00299 0.21866 0.002974 0.21865 0.002957 0.21865 0.00294 0.21866 0.002923 0.21865 0.002905 0.21865 0.002889 0.21866 0.002905 0.21865 0.002931 0.21865 0.003178 0.21865 0.003266 0.21866 0.003301 0.21865 0.003316 0.21865 0.003332 0.21866 0.003347 0.21865 0.003352 0.21865 0.003357 0.21866 0.003346 0.21865 0.003291 0.21865 0.003293 0.21865 0.003296 0.21866 0.003308 0.21865 0.003319 0.21865 0.003331 0.21866 0.00342 0.21865 0.00322 0.21865 0.00316 0.21866 0.00304 0.21865 0.003006 0.21865 0.002962 0.21866 0.002906 0.21865 0.002773 0.21865 0.002735 0.21865 0.002704 0.21866 0.002634 0.21865 0.002544 0.21865 0.002511 0.21866 0.002493 0.21865 0.002478 0.43731 0.004921 0.21865 0.002477 0.21865 0.002497 0.21866 0.002504 0.21865 0.002509 0.21865 0.002511 0.21865 0.002514 0.21866 0.002518 0.21865 0.002539 0.21865 0.002632 0.21866 0.002641 0.21865 0.002649 0.21865 0.002658 0.21866 0.002666 0.21865 0.002675 0.21865 0.002695 0.21865 0.002717 0.21866 0.00274 0.21865 0.002801 0.43731 0.005648 0.65596 0.008429 0.21865 0.00283 0.21865 0.002854 0.21866 0.002864 0.21865 0.00287 0.21865 0.002876 0.21865 0.002883 0.21866 0.002886 0.21865 0.00289 0.43731 0.005783 0.21865 0.002972 0.21865 0.002974 0.43731 0.005777 0.21865 0.002896 0.21865 0.002911 1.3119 0.017528 0.21866 0.002833 0.21865 0.00279 0.21865 0.002725 0.21866-0.0012 0.21865-0.001172 0.65596-0.003755 0.21865-0.001315 0.21865-0.001298 0.21866-0.001282 0.21865-0.001248 0.21865-0.001206 0.21866-0.00129 0.21865-0.001634 0.21865-0.001976 0.21866-0.00232 0.21865-0.002709 0.21865-0.005332 0.21865-0.005296 0.43731-0.010571 0.21865-0.005301 0.21866-0.005277 0.21865-0.005253 0.21865-0.005229 0.21866-0.005205 0.21865-0.005181 0.21865-0.005157 0.21865-0.005133 1.0933-0.025648 0.21865-0.005068 0.21866-0.005054 0.21865-0.005047 0.21865-0.005031 0.21866-0.005025 0.21865-0.005021 0.21865-0.005016 0.87461-0.020052 0.21866-0.005029 0.65596-0.015344 0.21865-0.005097 0.21865-0.005079 0.21865-0.00498 0.21866-0.004969 0.21865-0.004956 0.21865-0.004945 0.21866-0.004934 0.21865-0.004928 1.0933-0.024612 0.21865-0.004891 0.21865-0.004986 0.21865-0.004999 0.21866-0.004985 0.21865-0.00495 0.21865-0.004862 0.21866-0.004781 0.21865-0.004742 0.21865-0.00568 0.21866-0.006943 0.43731-0.017332 0.87462-0.034661 0.21866-0.008684 0.21865-0.008696 0.21865-0.00878 0.21866-0.008842 0.21865-0.008834 0.21865-0.008828 0.21866-0.00882 0.21865-0.008812 0.65596-0.02624 0.21865-0.008743 0.21865-0.008662 0.21866-0.008658 0.21865-0.008653 0.21865-0.008649 0.21866-0.008643 0.21865-0.008469 0.21865-0.008521 0.21866-0.008498 0.21865-0.00849 0.43731-0.016964 0.21866-0.008472 0.21865-0.008447 0.21865-0.008433 0.21866-0.008423 0.21865-0.008415 0.21865-0.008404 0.21866-0.008396 0.21865-0.008386 0.21865-0.008336 0.21865-0.008269 0.21866-0.004575 0.65596-0.013813 0.21865-0.004583 0.21865-0.004495 0.21866-0.004458 0.21865-0.004405 0.21865-0.004358 0.21866-0.004389 0.21865-0.004301 0.21865-0.003971 0.21865-0.003641 0.21866-0.003309 0.21865-0.002976 0.21865-6.15e-4 0.21866-6.45e-4 0.21865-5.67e-4 0.21865-5.35e-4 0.21866-5.12e-4 0.21865-5.01e-4 0.21865-4.89e-4 0.21866-4.79e-4 0.21865-4.52e-4 0.21865-3.75e-4 0.21865-3.38e-4 0.21866-3.24e-4 0.21865-3.38e-4 0.21865-3.57e-4 0.21866-3.75e-4 0.21865-4.04e-4 0.21865-4.39e-4 0.21866-5.13e-4 0.21865-5.39e-4 0.21865-5.59e-4 1.5306-0.003559 0.21866-4.62e-4 0.21865-4.43e-4 0.21865-4.37e-4 0.43731-8.63e-4 0.21865-3.41e-4 0.21865-3.21e-4 1.0933-0.002063 0.65596-0.001299 0.43731-9.02e-4 0.21866-4.71e-4 0.21865-5.16e-4 0.21865-4.57e-4 0.21866-4.73e-4 0.21865-5.05e-4 0.21865-5.55e-4 0.21866-6.57e-4 0.21865-7.5e-4 0.21865-8e-4 0.21866 8.6e-5 0.21865 0.001218 0.21865 0.002877 0.21865 0.002881 0.21866 0.002884 0.21865 0.002891 0.21865 0.002898 0.21866 0.002904 0.21865 0.002911 0.21865 0.002917 0.21866 0.00301 0.21865 0.003032 0.21865 0.003051 0.21865 0.003062 0.21866 0.003074 0.87462 0.012316 0.21865 0.003065 0.87462 0.011916 0.21865 0.002965 0.21865 0.002793 0.21865 0.002763 0.21866 0.002738 0.21865 0.002725 0.21865 0.002792 0.21866 0.002855 0.21865 0.002836 0.43731 0.005631 0.21865 0.002821 0.21865 0.002824 0.21866 0.002826 0.21865 0.002829 0.43731 0.005661 0.21866 0.002833 0.87461 0.011343 0.21865 0.002817 0.21866 0.002735 0.21865 0.002686 0.21865 0.002623 1.0933 0.012696 0.87462 0.01042 0.21865 0.002511 0.21866 0.002483 0.65596 0.007373 0.21866 0.002445 0.21865 0.002422 0.21865 0.00243 0.21866 0.002435 0.21865 0.00245 0.21865 0.002458 0.21866 0.002465 0.21865 0.002472 0.21865 0.002479 0.21865 0.002486 0.21866 0.002499 0.21865 0.002512 0.21865 0.002525 0.21866 0.002465 0.21865 0.002549 0.21865 0.002565 0.21866 0.002583 0.21865 0.002602 0.21865 0.002621 0.43731 0.005308 0.43731 0.005243 0.43731 0.0052 0.21865 0.002478 0.43731 0.004855 0.43731 0.004824 0.21865 0.002482 0.21865 0.002498 0.21866 0.002521 0.21865 0.002554 0.21865 0.002615 0.21865 0.002718 0.21866 0.002781 0.21865 0.002783 0.21865 0.002785 0.21866 0.002788 0.43731 0.005583 1.0933 0.013973 0.21865 0.002838 0.21865 0.002901 0.21866 0.002981 0.21865 0.003066 0.21865 0.003088 0.21866 0.003096 0.21865 0.003106 0.21865 0.003136 0.21866 0.003187 0.21865 0.003099 0.21865 0.003078 0.21865 0.003059 0.21866 0.003044 0.43731 0.006058 0.21866 0.002955 1.9678 0.026682 0.21866 0.00297 0.21865 0.002987 0.21865 0.003005 0.21866 0.002962 0.21865 0.002926 0.21865 0.002913 0.21866 0.002902 0.21865 0.00289 0.43731 0.005745 0.43731 0.005706 0.43731 0.005667 0.21865 0.002816 0.21865 0.002802 0.21866 0.002788 0.65596 0.00832 0.21865 0.002779 0.21865 0.002811 0.21865 0.002856 0.21866 0.002935 0.21865 0.00307 0.21865 0.003082 0.21866 0.003092 0.21865 0.003105 0.21865 0.003072 0.21866 0.003147 0.21865 0.003176 0.21865 0.003191 0.21865 0.003206 0.21866 0.003269 0.21865 0.003311 0.21865 0.003344 0.21866 0.003442 0.21865 0.003489 0.21865 0.003498 0.21866 0.003411 0.21865 0.003371 0.87462 0.013342 0.43731 0.006641 0.21865 0.00336 0.21865 0.003369 0.21866 0.003356 0.21865 0.003336 0.21865 0.003248 0.21866 0.003227 0.21865 0.003208 0.21865 0.003185 0.21865 0.003162 0.21866 0.003124 0.21865 0.003129 0.21865 0.003158 0.21866 0.003168 0.21865 0.003179 0.21865 0.00319 0.21866 0.003206 0.21865 0.003252 0.43731 0.006548 0.21865 0.003276 0.21865 0.003192 0.21865 0.00317 0.21866 0.003149 0.21865 0.003119 0.21865 0.003059 0.21866 0.002956 0.21865 0.002894 0.21865 0.002899 0.21866 0.00292 0.21865 0.002941 0.21865 0.002966 0.21866 0.003022 0.21865 0.003121 0.21865 0.003127 0.21865 0.003131 0.21866 0.003136 0.21865 0.003141 0.21865 0.003091 0.21866 0.003026 0.21865 0.003033 0.21865 0.002983 0.65596 0.008972 0.21865 0.002967 0.21866 0.002947 0.21865 0.002995 0.21865 0.003017 0.21866 0.003039 0.21865 0.003113 0.21865 0.003151 0.21866 0.003182 0.21865 0.003256 0.43731 0.006771 0.21865 0.003387 0.21865 0.003389 0.21865 0.003393 0.21866 0.003396 0.21865 0.003399 0.21865 0.003497 0.21866 0.003546 0.21865 0.003613 0.21865 0.003645 0.21866 0.003668 0.21865 0.003629 0.21865 0.003589 0.21865 0.003597 0.21866 0.003604 0.21865 0.003612 0.21865 0.00362 0.21866 0.003628 0.21865 0.003638 0.21865 0.003647 0.21866 0.003657 0.21865 0.003667 0.21865 0.003676 0.21866 0.003698 0.21865 0.003748 0.21865 0.003873 0.21865 0.003883 0.21866 0.003931 0.21865 0.003943 0.21865 0.003916 0.21866 0.003876 0.21865 0.003801 0.43731 0.007328 0.21865 0.003648 0.21865 0.003636 0.21865 0.003581 0.21866 0.003495 0.21865 0.003455 0.21865 0.003432 0.21866 0.003408 0.21865 0.003341 0.21865 0.003294 0.21866 0.003306 0.65596 0.009814 0.21865 0.003279 0.21865 0.00329 0.21865 0.0033 0.21866 0.003395 0.21865 0.003455 0.21865 0.003659 0.21866 0.00382 0.21865 0.003905 0.43731 0.007745 0.21865 0.003924 0.21865 0.004048 0.21866 0.004167 0.21865 0.0042 0.21865 0.004263 0.21865 0.004294 0.43731 0.008595 0.21865 0.004236 0.43731 0.008409 0.43731 0.008379 0.21865 0.004172 0.21865 0.004213 0.21865 0.004305 0.21866 0.004328 0.21865 0.004352 0.21865 0.004464 0.21866 0.004492 0.21865 0.004608 0.21865 0.004657 0.21866 0.004693 0.21865 0.004709 0.21865 0.004725 0.21866 0.004736 0.21865 0.004808 0.21865 0.007198 0.21865 0.007226 0.21866 0.007197 0.21865 0.007118 0.21865 0.007139 0.21866 0.007151 0.21865 0.007159 0.21865 0.007168 0.21866 0.007176 0.21865 0.007185 0.21865 0.007101 0.21865 0.007078 0.21866 0.007062 0.21865 0.007069 0.21865 0.007258 0.21866 0.00783 0.21865 0.008381 0.21865 0.008914 0.43731 0.022008 0.21865 0.010934 0.21866 0.010906 0.21865 0.010878 0.21865 0.0108 0.21865 0.010666 0.21866 0.010686 0.21865 0.010705 0.21865 0.010724 0.21866 0.010835 0.21865 0.010868 0.21865 0.010899 0.21866 0.010824 0.21865 0.010795 0.21865 0.01074 0.21866 0.01071 0.21865 0.010731 0.21865 0.010787 0.21865 0.010824 0.21866 0.010871 0.21865 0.010951 0.21865 0.010955 0.21866 0.010961 0.21865 0.010964 0.21865 0.010968 0.21866 0.010971 0.21865 0.010973 0.21865 0.010976 0.21865 0.01098 0.21866 0.010969 0.21865 0.010929 0.21865 0.010807 0.21866 0.010782 0.21865 0.010714 0.21865 0.010694 0.21866 0.010708 0.21865 0.010722 0.21865 0.010735 0.21866 0.010762 0.21865 0.010846 0.21865 0.010868 0.21865 0.01089 0.21866 0.010912 0.21865 0.010933 0.21865 0.01106 0.21866 0.011116 0.21865 0.011149 0.21865 0.011163 0.21866 0.011177 0.21865 0.01114 0.21865 0.011074 0.21865 0.01104 0.21866 0.011043 0.21865 0.011046 0.21865 0.011136 0.21866 0.01123 0.21865 0.011166 0.21865 0.011142 0.21866 0.010954 0.21865 0.010813 0.21865 0.010754 0.21866 0.010782 0.43731 0.021672 0.21865 0.01076 0.21866 0.01069 0.21865 0.010728 0.21865 0.010765 0.21866 0.010979 0.21865 0.011015 0.21865 0.011052 0.21866 0.011089 0.21865 0.011129 0.21865 0.011169 0.21866 0.011212 0.21865 0.011261 0.21865 0.011312 0.21865 0.011275 0.21866 0.011194 0.21865 0.011202 0.21865 0.011212 0.21866 0.011134 0.21865 0.011173 0.21865 0.011159 0.21866 0.011123 0.87462 0.044374 0.21865 0.011001 0.21865 0.008324 0.21866 0.008278 0.21865 0.00826 0.21865 0.008325 0.21866 0.008349 0.21865 0.008363 0.21865 0.008381 0.21866 0.008412 0.21865 0.008449 0.21865 0.008487 0.21865 0.008523 0.21866 0.008546 0.21865 0.008559 0.21865 0.008573 0.21866 0.008428 0.21865 0.00787 0.21865 0.007284 0.21866 0.006704 0.21865 0.004459 0.21865 0.004532 0.21865 0.004686 0.21866 0.004816 0.21865 0.004883 0.21865 0.004928 0.43731 0.009918 0.43731 0.009886 0.21865 0.00483 0.21865 0.004807 0.21866 0.004784 0.21865 0.004771 0.21865 0.004819 0.21865 0.004847 0.21866 0.004836 0.21865 0.004781 0.21865 0.00473 0.21866 0.0047 0.21865 0.004661 0.21865 0.004583 0.21866 0.004589 0.21865 0.004627 0.21865 0.004904 0.21866 0.004919 0.21865 0.004933 0.21865 0.004948 0.21865 0.004963 0.21866 0.004977 0.21865 0.006967 0.21865 0.008622 0.21866 0.00875 0.21865 0.008825 0.21865 0.008875 0.21866 0.00888 0.21865 0.008887 0.21865 0.008892 0.43731 0.017793 0.21865 0.00891 0.21865 0.008933 0.21866 0.008956 0.21865 0.008983 0.21865 0.009017 0.21866 0.008974 0.21865 0.009172 0.21865 0.009327 0.21866 0.009399 0.21865 0.009462 0.21865 0.009598 0.21865 0.00965 0.21866 0.009696 0.21865 0.009729 0.43731 0.019518 0.21865 0.009849 0.21865 0.010053 0.21866 0.010181 0.21865 0.010206 0.21865 0.010327 0.21865 0.010316 0.21866 0.010286 0.21865 0.010228 0.21865 0.010192 0.21866 0.010155 0.21865 0.010116 0.21865 0.01006 0.21866 0.010015 0.21865 0.010049 0.21865 0.01013 0.21866 0.010184 0.21865 0.010233 0.21865 0.010281 0.21865 0.010321 0.21866 0.010309 0.21865 0.010295 0.21865 0.010275 0.43731 0.020493 0.21865 0.01025 0.43731 0.020507 0.21865 0.010276 0.21865 0.010448 0.21866 0.010525 0.21865 0.010554 0.21865 0.010583 0.21866 0.010611 0.21865 0.010842 0.21865 0.010879 0.21866 0.010911 0.21865 0.010944 0.21865 0.01099 0.21866 0.010959 0.21865 0.010999 0.21865 0.011077 0.21865 0.011245 0.21866 0.011276 0.21865 0.011299 0.21865 0.011329 0.21866 0.011455 0.21865 0.01166 0.21865 0.011733 0.21866 0.011752 0.21865 0.011723 0.21865 0.011687 0.21866 0.011698 0.21865 0.011731 0.21865 0.011653 0.21865 0.011613 0.21866 0.011934 0.21865 0.011889 0.21865 0.011849 0.21866 0.011832 0.21865 0.011929 0.21865 0.011956 0.21866 0.011984 0.21865 0.012014 0.21865 0.012109 0.21865 0.012531 0.21866 0.012624 0.21865 0.012693 0.21865 0.012881 0.21866 0.012909 0.21865 0.01304 0.21865 0.013284 0.21866 0.013585 0.21865 0.013688 0.21865 0.013797 0.21866 0.014149 0.21865 0.014191 0.21865 0.014199 0.21865 0.01394 0.21866 0.01401 0.21865 0.014107 0.21865 0.014549 0.21866 0.014764 0.21865 0.014852 0.21865 0.0128 0.21866 0.011134 0.21865 0.011073 0.21865 0.01105 0.21865 0.011188 0.21866 0.011401 0.21865 0.011524 0.21865 0.011649 0.21866 0.011797 0.21865 0.01201 0.21865 0.012104 0.21866 0.012317 0.21865 0.012407 0.43731 0.024928 0.21865 0.012424 0.21865 0.012341 0.21865 0.012389 0.21866 0.012401 0.21865 0.012497 0.21865 0.012417 0.21866 0.012674 0.21865 0.012716 0.21865 0.013016 0.21866 0.013203 0.21865 0.013228 0.21865 0.013135 0.21866 0.012957 0.43731 0.025883 0.21865 0.012834 0.21866 0.012926 0.21865 0.015709 0.21865 0.015894 0.21866 0.016085 0.21865 0.016216 0.21865 0.016275 0.21866 0.016335 0.21865 0.016524 0.21865 0.016383 0.21865 0.016459 0.21866 0.016915 0.43731 0.034106 0.21866 0.017422 0.21865 0.017626 0.21865 0.017812 0.21866 0.017934 0.21865 0.018033 0.21865 0.018252 0.21866 0.018708 0.21865 0.019061 0.21865 0.019611 0.21865 0.019756 0.21866 0.019535 0.21865 0.019787 0.21865 0.019954 0.21866 0.020337 0.21865 0.020561 0.21865 0.020438 0.21866 0.020529 0.21865 0.020645 0.21865 0.020968 0.21865 0.02143 0.21866 0.021999 0.21865 0.022005 0.21865 0.02198 0.21866 0.021854 0.21865 0.02195 0.21865 0.022713 0.21866 0.022959 0.21865 0.023022 0.21865 0.023211 0.21866 0.023252 0.21865 0.023352 0.21865 0.023469 0.21865 0.023525 0.21866 0.023582 0.21865 0.023717 0.21865 0.023946 0.21866 0.024242 0.21865 0.024266 0.21865 0.024495 0.21866 0.024592 0.43731 0.04945 0.21866 0.024822 0.21865 0.02514 0.21865 0.02528 0.21865 0.02534 0.21866 0.025001 0.21865 0.025054 0.21865 0.025157 0.21866 0.025043 0.21865 0.025239 0.21865 0.025443 0.21866 0.025702 0.21865 0.025794 0.21865 0.026147 0.21865 0.026581 0.21866 0.026461 0.21865 0.026671 0.21865 0.026765 0.21866 0.026948 0.21865 0.027335 0.21865 0.027586 0.21866 0.027341 0.21865 0.027396 0.21865 0.027455 0.21866 0.027553 0.21865 0.027584 0.21865 0.027677 0.21865 0.027799 0.21866 0.027879 0.21865 0.027958 0.21865 0.028079 0.21866 0.028382 0.21865 0.028407 0.21865 0.028588 0.21866 0.028866 0.21865 0.028999 0.21865 0.029009 0.21865 0.029148 0.21866 0.029295 0.21865 0.030059 0.21865 0.03065 0.21866 0.030568 0.43731 0.06148 0.21866 0.030791 0.21865 0.030534 0.21865 0.030559 0.21866 0.030304 0.21865 0.030194 0.21865 0.030238 0.21865 0.030291 0.43731 0.06082 0.21865 0.030751 0.21866 0.030934 0.21865 0.031017 0.21865 0.027779 0.21866 0.027759 0.21865 0.027741 0.21865 0.028105 0.21866 0.02863 0.21865 0.028789 0.21865 0.028871 0.21865 0.029508 0.21866 0.029635 0.21865 0.02917 0.21865 0.02914 0.43731 0.058834 0.21865 0.029504 0.21866 0.029465 0.21865 0.029652 0.21865 0.02989 0.21865 0.02984 0.21866 0.029527 0.21865 0.029458 0.21865 0.029023 0.21866 0.028962 0.21865 0.029765 0.21865 0.029787 0.21866 0.030121 0.21865 0.030503 0.21865 0.030651 0.21866 0.030854 0.21865 0.031155 0.21865 0.031209 0.21865 0.031439 0.21866 0.031008 0.21865 0.030403 0.21865 0.030504 0.21866 0.030748 0.21865 0.031043 0.21865 0.03128 0.21866 0.030685 0.21865 0.03049 0.21865 0.030579 0.21865 0.030296 0.21866 0.03059 0.21865 0.030847 0.21865 0.031049 0.21866 0.031275 0.21865 0.031475 0.21865 0.031676 0.21866 0.032026 0.21865 0.03183 0.21865 0.03137 0.21866 0.031481 0.21865 0.031957 0.21865 0.032317 0.21865 0.03269 0.21866 0.032889 0.21865 0.032846 0.21865 0.033193 0.21866 0.033366 0.21865 0.03343 0.21865 0.033493 0.21866 0.03417 0.21865 0.034396 0.21865 0.034373 0.21865 0.034434 0.21866 0.033995 0.21865 0.034081 0.21865 0.033898 0.21866 0.03357 0.21865 0.033834 0.21865 0.033816 0.21866 0.034929 0.21865 0.03514 0.21865 0.03478 0.21866 0.034565 0.21865 0.034725 0.21865 0.03482 0.21865 0.034911 0.21866 0.035053 0.21865 0.035676 0.21865 0.035919 0.21866 0.036519 0.21865 0.036574 0.21865 0.036486 0.21866 0.036509 0.21865 0.036299 0.21865 0.036849 0.21866 0.036766 0.21865 0.037384 0.21865 0.037529 0.21865 0.03778 0.21866 0.037866 0.21865 0.038287 0.21865 0.038274 0.21866 0.038145 0.21865 0.038248 0.21865 0.038344 0.21866 0.038589 0.21865 0.039185 0.21865 0.039685 0.21865 0.040193 0.21866 0.040752 0.21865 0.041091 0.21865 0.041515 0.21866 0.041971 0.21865 0.042531 0.21865 0.043398 0.21866 0.043506 0.21865 0.043684 0.21865 0.044303 0.21866 0.044326 0.21865 0.044872 0.21865 0.044993 0.21865 0.04488 0.21866 0.044721 0.21865 0.045296 0.21865 0.04551 0.21866 0.044896 0.21865 0.045049 0.21865 0.045191 0.21866 0.045722 0.21865 0.045682 0.21865 0.045373 0.21865 0.045557 0.21866 0.045711 0.21865 0.045927 0.21865 0.04645 0.21866 0.046953 0.21865 0.047209 0.21865 0.047072 0.21866 0.047015 0.21865 0.047069 0.21865 0.046117 0.21866 0.045848 0.21865 0.045403 0.21865 0.044449 0.21865 0.044201 0.21866 0.044169 0.21865 0.044347 0.21865 0.044544 0.21866 0.043984 0.21865 0.0441 0.21865 0.044865 0.21866 0.045249 0.21865 0.045363 0.21865 0.045319 0.21866 0.045178 0.21865 0.045091 0.21865 0.045529 0.21865 0.045727 0.21866 0.046122 0.21865 0.046006 0.21865 0.045856 0.21866 0.045755 0.21865 0.045882 0.21865 0.045982 0.21866 0.045999 0.21865 0.045846 0.21865 0.046004 0.21865 0.046032 0.21866 0.046101 0.21865 0.046596 0.21865 0.046469 0.21866 0.046251 0.21865 0.04642 0.21865 0.046481 0.43731 0.092417 0.21865 0.046697 0.21866 0.046947 0.21865 0.04637 0.21865 0.046217 0.21865 0.046252 0.21866 0.045992 0.21865 0.046388 0.21865 0.04598 0.21866 0.045904 0.21865 0.045848 0.21865 0.045409 0.21866 0.045612 0.21865 0.044336 0.21865 0.044266 0.21865 0.044453 0.21866 0.044641 0.21865 0.044754 0.21865 0.045313 0.21866 0.04555 0.21865 0.045355 0.21865 0.044474 0.21866 0.044356 0.21865 0.044559 0.21865 0.044472 0.21866 0.044504 0.21865 0.044891 0.21865 0.04569 0.21865 0.045033 0.21866 0.04484 0.21865 0.043633 0.21865 0.04348 0.21866 0.043429 0.21865 0.043449 0.21865 0.043044 0.21866 0.041949 0.21865 0.041349 0.21865 0.041442 0.21866 0.041407 0.21865 0.04142 0.21865 0.041471 0.21865 0.041553 0.21866 0.042304 0.21865 0.04208 0.21865 0.043229 0.21866 0.042899 0.21865 0.042481 0.21865 0.041857 0.21866 0.041128 0.21865 0.041073 0.21865 0.041289 0.21865 0.040637 0.21866 0.040569 0.21865 0.040438 0.21865 0.040625 0.21866 0.040434 0.21865 0.040157 0.21865 0.039537 0.21866 0.039161 0.21865 0.039579 0.43731 0.078494 0.21865 0.038593 0.21865 0.038559 0.21865 0.038724 0.21866 0.038568 0.21865 0.03867 0.21865 0.038327 0.21866 0.037423 0.21865 0.036853 0.21865 0.036549 0.21866 0.037055 0.21865 0.03735 0.21865 0.037922 0.21865 0.038153 0.21866 0.038385 0.21865 0.038752 0.21865 0.039109 0.21866 0.03931 0.21865 0.039389 0.21865 0.03892 0.21866 0.038934 0.21865 0.039077 0.21865 0.039169 0.21866 0.038276 0.21865 0.038002 0.21865 0.037855 0.21865 0.03783 0.21866 0.03794 0.21865 0.037825 0.21865 0.038499 0.21866 0.038606 0.21865 0.03829 0.21865 0.038394 0.21866 0.038676 0.21865 0.039214 0.21865 0.039039 0.21866 0.03891 0.21865 0.038534 0.21865 0.038407 0.21865 0.039258 0.21866 0.039524 0.21865 0.039116 0.21865 0.03779 0.21866 0.037585 0.21865 0.03761 0.21865 0.037636 0.21866 0.037707 0.21865 0.037842 0.21865 0.037933 0.21865 0.037537 0.21866 0.037523 0.21865 0.037225 0.21865 0.037356 0.21866 0.037488 0.21865 0.037753 0.21865 0.037686 0.21866 0.037929 0.21865 0.03822 0.21865 0.03878 0.43731 0.077823 0.21865 0.038823 0.21865 0.038758 0.21866 0.038853 0.21865 0.038947 0.21865 0.039105 0.21866 0.038252 0.21865 0.038154 0.21865 0.038138 0.21866 0.038176 0.21865 0.038212 0.21865 0.036898 0.21865 0.036938 0.21866 0.037251 0.21865 0.037913 0.21865 0.036795 0.21866 0.036884 0.21865 0.037018 0.21865 0.036864 0.21866 0.036711 0.21865 0.037022 0.21865 0.037205 0.21866 0.037908 0.21865 0.038286 0.21865 0.037793 0.21865 0.037768 0.21866 0.037745 0.21865 0.03756 0.21865 0.036702 0.21866 0.036034 0.21865 0.034344 0.21865 0.033898 0.21866 0.031927 0.21865 0.031963 0.21865 0.032048 0.21866 0.032132 0.21865 0.032044 0.21865 0.031953 0.21865 0.031699 0.21866 0.032121 0.21865 0.032868 0.21865 0.032229 0.21866 0.032101 0.21865 0.032058 0.21865 0.032095 0.21866 0.032371 0.21865 0.033155 0.21865 0.033454 0.21865 0.033651 0.21866 0.03385 0.21865 0.03405 0.21865 0.034252 0.21866 0.034139 0.21865 0.033949 0.21865 0.033879 0.65596 0.10149 0.21866 0.03382 0.21865 0.033182 0.21865 0.033021 0.21865 0.032453 0.21866 0.032393 0.21865 0.032331 0.21865 0.032072 0.21866 0.031844 0.21865 0.031772 0.21865 0.031708 0.21866 0.031685 0.43731 0.063315 0.21865 0.03172 0.21866 0.031787 0.21865 0.032003 0.21865 0.032231 0.21866 0.032428 0.43731 0.064897 0.21866 0.031083 0.21865 0.030364 0.21865 0.030069 0.21866 0.029792 0.21865 0.029485 0.21865 0.028807 0.21865 0.028784 0.21866 0.028763 0.21865 0.028739 0.21865 0.028118 0.21866 0.026953 0.21865 0.026638 0.21865 0.026433 0.21866 0.026324 0.21865 0.026217 0.21865 0.025989 0.21865 0.025657 0.21866 0.025322 0.21865 0.025205 0.21865 0.025418 0.21866 0.025497 0.21865 0.025419 0.21865 0.025362 0.21866 0.025303 0.21865 0.025243 0.21865 0.024995 0.21866 0.024585 0.21865 0.02418 0.21865 0.02377 0.21865 0.023054 0.21866 0.022942 0.21865 0.02283 0.21865 0.022715 0.21866 0.022619 0.21865 0.022517 0.21865 0.022413 0.21866 0.02146 0.21865 0.02109 0.21865 0.021074 0.21866 0.021057 0.21865 0.02104 0.21865 0.021024 0.21865 0.021006 0.21866 0.020989 0.21865 0.020598 0.21865 0.018929 0.21866 0.01879 0.21865 0.01865 0.21865 0.018451 0.21866 0.018149 0.21865 0.017634 0.21865 0.017177 0.21865 0.01689 0.21866 0.015907 0.21865 0.015367 0.21865 0.015321 0.21866 0.015274 0.21865 0.015227 0.21865 0.01518 0.21866 0.015132 0.21865 0.015085 0.21865 0.015037 0.21866 0.014989 0.21865 0.01494 0.21865 0.014801 0.21865 0.014612 0.21866 0.014422 0.21865 0.013873 0.21865 0.013417 0.21866 0.013176 0.21865 0.01252 0.21865 0.011439 0.21866 0.011293 0.21865 0.011147 0.21865 0.010999 0.21865 0.010752 0.21866 0.010219 0.21865 0.00901 0.21865 0.007325 0.21866 0.007084 0.21865 0.006841 0.21865 0.006599 0.21866 0.006356 0.21865 0.006112 0.21865 0.005933 0.21866 0.005881 0.21865 0.00583 0.21865 0.005778 0.21865 0.005725 0.21866 0.005674 0.21865 0.005622 0.21865 0.005569 0.21866 0.005517 0.21865 0.005465 0.21865 0.005412 0.21866 0.00536 0.21865 0.005295 0.21865 0.005204 0.21866 0.005113 0.21865 0.005022 0.21865 0.00493 0.21865 0.004839 0.21866 0.004747 0.21865 0.004656 0.21865 0.004384 0.21866 0.004101 0.21865 0.003858 0.21865 0.003668 0.21866 0.003479 0.21865 0.003289 0.21865 0.003205 0.21865 0.00317 0.21866 0.003133 0.21865 0.003097 0.21865 0.003061 0.21866 0.003025 0.21865 0.002989 0.21865 0.002952 0.21866 0.002917 0.21865 0.00288 0.21865 0.002844 0.21866 0.002808 0.21865 0.002771 0.21865 0.002735 0.21865 0.002699 0.21866 0.002662 0.21865 0.002626 0.21865 0.002489 0.21866 0.002096 0.21865 0.001853 0.21865 0.001802 0.21866 0.001751 0.21865 0.001701 0.21865 0.00165 0.21865 0.0016 0.21866 0.001549 0.21865 0.001498 0.21865 0.001447 0.21866 0.001397 0.21865 0.001346 0.21865 0.001295 0.21866 0.001244 0.21865 0.001198 0.21865 0.001158 0.21866 0.001121 0.21865 0.001082 0.21865 0.001043 0.21865 0.001005 0.21866 9.67e-4 0.21865 9.28e-4 0.21865 8.89e-4 0.21866 8.51e-4 0.21865 8.13e-4 0.21865 7.74e-4 0.21866 7.35e-4 0.21865 6.97e-4 0.21865 6.59e-4 0.21866 6.19e-4 0.21865 5.81e-4 7.6529 0.019582 0.21866 5.63e-4 0.21865 5.68e-4 0.21865 5.72e-4 0.21866 5.78e-4 0.21865 5.83e-4 0.21865 5.88e-4 0.21866 5.93e-4 0.21865 5.98e-4 0.21865 6.03e-4 0.21866 6.09e-4 0.21865 6.13e-4 0.21865 6.18e-4 0.21865 6.24e-4 0.21866 6.28e-4 0.21865 6.34e-4 0.21865 6.39e-4 0.21866 6.43e-4 0.21865 6.49e-4 0.21865 6.54e-4 0.21866 6.59e-4 0.21865 6.64e-4 0.21865 6.7e-4 0.21866 6.74e-4 0.21865 6.79e-4 0.21865 6.85e-4 0.21865 6.89e-4 0.21866 6.95e-4 0.21865 6.99e-4 0.21865 7.05e-4 0.21866 7.1e-4 0.21865 7.15e-4 0.21865 7.2e-4 0.21866 7.25e-4 0.21865 7.31e-4 0.21865 7.35e-4 0.21865 7.41e-4 0.21866 7.45e-4 0.21865 7.51e-4 0.21865 7.56e-4 0.21866 7.61e-4 0.21865 7.66e-4 0.21865 7.71e-4 0.21866 7.76e-4 0.21865 7.81e-4 0.21865 7.87e-4 0.21866 7.91e-4 0.21865 7.97e-4 0.21865 8.02e-4 0.21865 8.06e-4 0.21866 8.12e-4 0.21865 8.17e-4 0.21865 8.23e-4 0.21866 8.27e-4 0.21865 8.33e-4 0.21865 8.37e-4 0.21866 8.43e-4 0.21865 8.48e-4 0.21865 8.53e-4 0.21865 8.58e-4 0.21866 8.63e-4 0.21865 8.68e-4 0.21865 8.74e-4 0.21866 8.78e-4 0.21865 8.84e-4 0.21865 8.89e-4 0.21866 8.94e-4 0.21865 8.99e-4 0.21865 9.04e-4 0.21866 9.1e-4 0.21865 9.14e-4 0.21865 9.2e-4 0.21865 9.25e-4 0.21866 9.3e-4 0.21865 0.032361 0.21865 0.032718 0.21866 0.033079 0.21865 0.033443 0.21865 0.03381 0.21866 0.034179 0.21865 0.034553 0.21865 0.03493 0.21865 0.035311 0.21866 0.035694 0.21865 0.036082 0.21865 0.036473 0.21866 0.036868 0.21865 0.037266 0.21865 0.037669 0.21866 0.038076 0.21865 0.038485 0.21865 0.038901 0.21866 0.039319 0.21865 0.039743 0.21865 0.040169 0.21865 0.040602 0.21866 0.041038 0.21865 0.041478 0.21865 0.041925 0.21866 0.042374 0.21865 0.04283 0.21865 0.043291 0.21866 0.043755 0.21865 0.044227 0.21865 0.044702 0.21866 0.05135 0.21865 0.071558 0.21865 0.072076 0.21865 0.072601 0.21866 0.073133 0.21865 0.07367 0.21865 0.074212 0.21866 0.074763 0.21865 0.075321 0.21865 0.075888 0.21866 0.076463 0.21865 0.077046 0.21865 0.07764 0.21865 0.078241 0.21866 0.078853 0.21865 0.079473 0.21865 0.080104 0.21866 0.080744 0.21865 0.081395 0.21865 0.082056 0.21866 0.082729 0.21865 0.083411 0.21865 0.084105 0.21866 0.084812 0.21865 0.085529 0.21865 0.086259 0.21865 0.087001 0.21866 0.087756 0.21865 0.088524 0.21865 0.089307 0.21866 0.090101 0.21865 0.090911 0.21865 0.091736 0.21866 0.092575 0.21865 0.093429 0.21865 0.0943 0.21865 0.095186 0.21866 0.09609 0.21865 0.09701 0.21865 0.097949 0.21866 0.098905 0.21865 0.099948 0.21865 0.10105 0.21866 0.10218 0.21865 0.10333 0.21865 0.10451 0.21866 0.10571 0.21865 0.10694 0.21865 0.10819 0.21865 0.11584v44.168h-413.47z" stroke="#0766aa" stroke-opacity=".2"/>
</defs>
<g clip-path="url(#i)">
<use y="413.19625" fill="#0766aa" fill-opacity=".2" stroke="#0766aa" stroke-opacity=".2" xlink:href="#af"/>
</g>
<path d="m40.603 170.63v-141.83" clip-path="url(#i)" fill="none" stroke="#b0b0b0" stroke-linecap="square" stroke-width=".8"/>
<defs>
<path id="e" d="m0 0v3.5" stroke="#000" stroke-width=".8"/>
</defs>
<use x="40.603125" y="170.627393" stroke="#000000" stroke-width=".8" xlink:href="#e"/>
<path d="m133.48 170.63v-141.83" clip-path="url(#i)" fill="none" stroke="#b0b0b0" stroke-linecap="square" stroke-width=".8"/>
<use x="133.476922" y="170.627393" stroke="#000000" stroke-width=".8" xlink:href="#e"/>
<path d="m226.35 170.63v-141.83" clip-path="url(#i)" fill="none" stroke="#b0b0b0" stroke-linecap="square" stroke-width=".8"/>
<use x="226.350718" y="170.627393" stroke="#000000" stroke-width=".8" xlink:href="#e"/>
<path d="m319.22 170.63v-141.83" clip-path="url(#i)" fill="none" stroke="#b0b0b0" stroke-linecap="square" stroke-width=".8"/>
<use x="319.224515" y="170.627393" stroke="#000000" stroke-width=".8" xlink:href="#e"/>
<path d="m412.1 170.63v-141.83" clip-path="url(#i)" fill="none" stroke="#b0b0b0" stroke-linecap="square" stroke-width=".8"/>
<use x="412.098311" y="170.627393" stroke="#000000" stroke-width=".8" xlink:href="#e"/>
<defs>
<path id="c" d="m0 0h-3.5" stroke="#000" stroke-width=".8"/>
</defs>
<use x="40.603125" y="154.105211" stroke="#000000" stroke-width=".8" xlink:href="#c"/>
<defs>
<path id="f" d="m12.406 8.2969h16.109v55.625l-17.531-3.5156v8.9844l17.438 3.5156h9.8594v-64.609h16.109v-8.2969h-41.984z"/>
<path id="g" d="m31.781 66.406q-7.6094 0-11.453-7.5-3.8281-7.4844-3.8281-22.531 0-14.984 3.8281-22.484 3.8438-7.5 11.453-7.5 7.6719 0 11.5 7.5 3.8438 7.5 3.8438 22.484 0 15.047-3.8438 22.531-3.8281 7.5-11.5 7.5zm0 7.8125q12.266 0 18.734-9.7031 6.4688-9.6875 6.4688-28.141 0-18.406-6.4688-28.109-6.4688-9.6875-18.734-9.6875-12.25 0-18.719 9.6875-6.4688 9.7031-6.4688 28.109 0 18.453 6.4688 28.141 6.4688 9.7031 18.719 9.7031z"/>
</defs>
<g transform="translate(16.003 157.9) scale(.1 -.1)">
<use transform="translate(0 .68438)" xlink:href="#f"/>
<use transform="translate(63.623 .68438)" xlink:href="#g"/>
<use transform="translate(128.2 38.966) scale(.7)" xlink:href="#f"/>
</g>
<use x="40.603125" y="130.467312" stroke="#000000" stroke-width=".8" xlink:href="#c"/>
<defs>
<path id="s" d="m19.188 8.2969h34.422v-8.2969h-46.281v8.2969q5.6094 5.8125 15.297 15.594 9.7031 9.7969 12.188 12.641 4.7344 5.3125 6.6094 9 1.8906 3.6875 1.8906 7.25 0 5.8125-4.0781 9.4688-4.0781 3.6719-10.625 3.6719-4.6406 0-9.7969-1.6094-5.1406-1.6094-11-4.8906v9.9688q5.9531 2.3906 11.125 3.6094 5.1875 1.2188 9.4844 1.2188 11.328 0 18.062-5.6719 6.7344-5.6562 6.7344-15.125 0-4.5-1.6875-8.5312-1.6719-4.0156-6.125-9.4844-1.2188-1.4219-7.7656-8.1875-6.5312-6.7656-18.453-18.922z"/>
</defs>
<g transform="translate(16.003 134.27) scale(.1 -.1)">
<use transform="translate(0 .76562)" xlink:href="#f"/>
<use transform="translate(63.623 .76562)" xlink:href="#g"/>
<use transform="translate(128.2 39.047) scale(.7)" xlink:href="#s"/>
</g>
<use x="40.603125" y="106.829413" stroke="#000000" stroke-width=".8" xlink:href="#c"/>
<defs>
<path id="r" d="m40.578 39.312q7.0781-1.5156 11.047-6.3125 3.9844-4.7812 3.9844-11.812 0-10.781-7.4219-16.703-7.4219-5.9062-21.094-5.9062-4.5781 0-9.4375 0.90625t-10.031 2.7188v9.5156q4.0938-2.3906 8.9688-3.6094 4.8906-1.2188 10.219-1.2188 9.2656 0 14.125 3.6562t4.8594 10.641q0 6.4531-4.5156 10.078-4.5156 3.6406-12.562 3.6406h-8.5v8.1094h8.8906q7.2656 0 11.125 2.9062t3.8594 8.375q0 5.6094-3.9844 8.6094-3.9688 3.0156-11.391 3.0156-4.0625 0-8.7031-0.89062-4.6406-0.875-10.203-2.7188v8.7812q5.625 1.5625 10.531 2.3438t9.25 0.78125q11.234 0 17.766-5.1094 6.5469-5.0938 6.5469-13.781 0-6.0625-3.4688-10.234t-9.8594-5.7812z"/>
</defs>
<g transform="translate(16.003 110.63) scale(.1 -.1)">
<use transform="translate(0 .76562)" xlink:href="#f"/>
<use transform="translate(63.623 .76562)" xlink:href="#g"/>
<use transform="translate(128.2 39.047) scale(.7)" xlink:href="#r"/>
</g>
<use x="40.603125" y="83.191514" stroke="#000000" stroke-width=".8" xlink:href="#c"/>
<defs>
<path id="q" d="m37.797 64.312-24.906-38.922h24.906zm-2.5938 8.5938h12.406v-47.516h10.406v-8.2031h-10.406v-17.188h-9.8125v17.188h-32.906v9.5156z"/>
</defs>
<g transform="translate(16.003 86.991) scale(.1 -.1)">
<use transform="translate(0 .68438)" xlink:href="#f"/>
<use transform="translate(63.623 .68438)" xlink:href="#g"/>
<use transform="translate(128.2 38.966) scale(.7)" xlink:href="#q"/>
</g>
<use x="40.603125" y="59.553615" stroke="#000000" stroke-width=".8" xlink:href="#c"/>
<defs>
<path id="at" d="m10.797 72.906h38.719v-8.3125h-29.688v-17.859q2.1406 0.73438 4.2812 1.0938 2.1562 0.35938 4.3125 0.35938 12.203 0 19.328-6.6875 7.1406-6.6875 7.1406-18.109 0-11.766-7.3281-18.297-7.3281-6.5156-20.656-6.5156-4.5938 0-9.3594 0.78125-4.75 0.78125-9.8281 2.3438v9.9219q4.3906-2.3906 9.0781-3.5625t9.9062-1.1719q8.4531 0 13.375 4.4375 4.9375 4.4375 4.9375 12.062 0 7.6094-4.9375 12.047-4.9219 4.4531-13.375 4.4531-3.9531 0-7.8906-0.875-3.9219-0.875-8.0156-2.7344z"/>
</defs>
<g transform="translate(16.003 63.353) scale(.1 -.1)">
<use transform="translate(0 .68438)" xlink:href="#f"/>
<use transform="translate(63.623 .68438)" xlink:href="#g"/>
<use transform="translate(128.2 38.966) scale(.7)" xlink:href="#at"/>
</g>
<use x="40.603125" y="35.915717" stroke="#000000" stroke-width=".8" xlink:href="#c"/>
<defs>
<path id="ad" d="m33.016 40.375q-6.6406 0-10.531-4.5469-3.875-4.5312-3.875-12.438 0-7.8594 3.875-12.438 3.8906-4.5625 10.531-4.5625t10.516 4.5625q3.875 4.5781 3.875 12.438 0 7.9062-3.875 12.438-3.875 4.5469-10.516 4.5469zm19.578 30.922v-8.9844q-3.7188 1.75-7.5 2.6719-3.7812 0.9375-7.5 0.9375-9.7656 0-14.922-6.5938-5.1406-6.5938-5.875-19.922 2.875 4.25 7.2188 6.5156 4.3594 2.2656 9.5781 2.2656 10.984 0 17.359-6.6719 6.375-6.6562 6.375-18.125 0-11.234-6.6406-18.031-6.6406-6.7812-17.672-6.7812-12.656 0-19.344 9.6875-6.6875 9.7031-6.6875 28.109 0 17.281 8.2031 27.562t22.016 10.281q3.7188 0 7.5-0.73438t7.8906-2.1875z"/>
</defs>
<g transform="translate(16.003 39.715) scale(.1 -.1)">
<use transform="translate(0 .76562)" xlink:href="#f"/>
<use transform="translate(63.623 .76562)" xlink:href="#g"/>
<use transform="translate(128.2 39.047) scale(.7)" xlink:href="#ad"/>
</g>
<defs>
<path id="a" d="m0 0h-2" stroke="#000" stroke-width=".6"/>
</defs>
<use x="40.603125" y="170.627393" stroke="#000000" stroke-width=".6" xlink:href="#a"/>
<use x="40.603125" y="166.464966" stroke="#000000" stroke-width=".6" xlink:href="#a"/>
<use x="40.603125" y="163.511677" stroke="#000000" stroke-width=".6" xlink:href="#a"/>
<use x="40.603125" y="161.220927" stroke="#000000" stroke-width=".6" xlink:href="#a"/>
<use x="40.603125" y="159.349249" stroke="#000000" stroke-width=".6" xlink:href="#a"/>
<use x="40.603125" y="157.766768" stroke="#000000" stroke-width=".6" xlink:href="#a"/>
<use x="40.603125" y="156.39596" stroke="#000000" stroke-width=".6" xlink:href="#a"/>
<use x="40.603125" y="155.186822" stroke="#000000" stroke-width=".6" xlink:href="#a"/>
<use x="40.603125" y="146.989494" stroke="#000000" stroke-width=".6" xlink:href="#a"/>
<use x="40.603125" y="142.827067" stroke="#000000" stroke-width=".6" xlink:href="#a"/>
<use x="40.603125" y="139.873778" stroke="#000000" stroke-width=".6" xlink:href="#a"/>
<use x="40.603125" y="137.583029" stroke="#000000" stroke-width=".6" xlink:href="#a"/>
<use x="40.603125" y="135.71135" stroke="#000000" stroke-width=".6" xlink:href="#a"/>
<use x="40.603125" y="134.128869" stroke="#000000" stroke-width=".6" xlink:href="#a"/>
<use x="40.603125" y="132.758061" stroke="#000000" stroke-width=".6" xlink:href="#a"/>
<use x="40.603125" y="131.548923" stroke="#000000" stroke-width=".6" xlink:href="#a"/>
<use x="40.603125" y="123.351595" stroke="#000000" stroke-width=".6" xlink:href="#a"/>
<use x="40.603125" y="119.189168" stroke="#000000" stroke-width=".6" xlink:href="#a"/>
<use x="40.603125" y="116.235879" stroke="#000000" stroke-width=".6" xlink:href="#a"/>
<use x="40.603125" y="113.94513" stroke="#000000" stroke-width=".6" xlink:href="#a"/>
<use x="40.603125" y="112.073451" stroke="#000000" stroke-width=".6" xlink:href="#a"/>
<use x="40.603125" y="110.49097" stroke="#000000" stroke-width=".6" xlink:href="#a"/>
<use x="40.603125" y="109.120162" stroke="#000000" stroke-width=".6" xlink:href="#a"/>
<use x="40.603125" y="107.911024" stroke="#000000" stroke-width=".6" xlink:href="#a"/>
<use x="40.603125" y="99.713697" stroke="#000000" stroke-width=".6" xlink:href="#a"/>
<use x="40.603125" y="95.551269" stroke="#000000" stroke-width=".6" xlink:href="#a"/>
<use x="40.603125" y="92.59798" stroke="#000000" stroke-width=".6" xlink:href="#a"/>
<use x="40.603125" y="90.307231" stroke="#000000" stroke-width=".6" xlink:href="#a"/>
<use x="40.603125" y="88.435553" stroke="#000000" stroke-width=".6" xlink:href="#a"/>
<use x="40.603125" y="86.853071" stroke="#000000" stroke-width=".6" xlink:href="#a"/>
<use x="40.603125" y="85.482263" stroke="#000000" stroke-width=".6" xlink:href="#a"/>
<use x="40.603125" y="84.273125" stroke="#000000" stroke-width=".6" xlink:href="#a"/>
<use x="40.603125" y="76.075798" stroke="#000000" stroke-width=".6" xlink:href="#a"/>
<use x="40.603125" y="71.91337" stroke="#000000" stroke-width=".6" xlink:href="#a"/>
<use x="40.603125" y="68.960081" stroke="#000000" stroke-width=".6" xlink:href="#a"/>
<use x="40.603125" y="66.669332" stroke="#000000" stroke-width=".6" xlink:href="#a"/>
<use x="40.603125" y="64.797654" stroke="#000000" stroke-width=".6" xlink:href="#a"/>
<use x="40.603125" y="63.215172" stroke="#000000" stroke-width=".6" xlink:href="#a"/>
<use x="40.603125" y="61.844365" stroke="#000000" stroke-width=".6" xlink:href="#a"/>
<use x="40.603125" y="60.635226" stroke="#000000" stroke-width=".6" xlink:href="#a"/>
<use x="40.603125" y="52.437899" stroke="#000000" stroke-width=".6" xlink:href="#a"/>
<use x="40.603125" y="48.275471" stroke="#000000" stroke-width=".6" xlink:href="#a"/>
<use x="40.603125" y="45.322182" stroke="#000000" stroke-width=".6" xlink:href="#a"/>
<use x="40.603125" y="43.031433" stroke="#000000" stroke-width=".6" xlink:href="#a"/>
<use x="40.603125" y="41.159755" stroke="#000000" stroke-width=".6" xlink:href="#a"/>
<use x="40.603125" y="39.577273" stroke="#000000" stroke-width=".6" xlink:href="#a"/>
<use x="40.603125" y="38.206466" stroke="#000000" stroke-width=".6" xlink:href="#a"/>
<use x="40.603125" y="36.997328" stroke="#000000" stroke-width=".6" xlink:href="#a"/>
<use x="40.603125" y="28.8" stroke="#000000" stroke-width=".6" xlink:href="#a"/>
<path d="m52.474 129.56 0.65596 0.37886 1.3119 0.32802 1.0933 0.12458 5.2477-0.32374 2.4052 0.37592 1.3119 0.45311 2.6239 1.2969 2.1865 1.2679 1.9679 1.4015 1.3119 0.89881 2.4052 1.3485 0.87462-0.16338 1.3119-0.66694 1.5306-1.4506 1.0933-0.89531 1.3119-0.75739 1.5306-0.5644 1.5306-0.37928 1.7492-0.42982 1.3119-0.26177 1.3119-0.04951 1.3119-0.023303 2.8425-0.20316 1.3119 0.041337 1.3119 0.28961 1.3119 0.525 1.3119 0.77848 0.65596 0.39355 0.87462 0.23607 2.4052 0.34586 1.3119 0.2337 1.3119 0.47116 2.8425 1.2251 6.341 2.584 1.5306-0.13535 1.0933-0.26674 2.1865-0.57951 1.0933-0.37573 1.5306-0.48439 1.9679-0.51657 2.1865-1.0105 1.3119-0.58636 2.6239-1.5927 2.4052-0.85839 2.4052-0.60193 2.6239-0.70433 5.2477-0.95746 2.6239 0.030058 1.9679 0.26389 8.0902 1.2862 1.0933 0.53553 2.4052 1.3216 2.8425 1.0906 5.4664 3.0606 1.5306 1.2463 2.1865 1.5856 0.87462 0.36438 1.3119 0.39099 1.9679 0.075114 1.5306 0.0939 0.87462-0.19446 1.7492-0.57325 1.3119-0.20252 2.1865-0.2518 5.685-2.1515 2.6239-1.012 1.3119-0.13615 1.3119 0.1104 1.3119 0.33333 3.2798 1.0721 3.4985 0.48393 1.5306 0.20845 1.3119 0.38799 3.0612 1.2953 1.7492 1.0379 1.3119 0.81279 1.3119 0.29969 0.87462 0.067261 1.9679-0.20469 2.4052-0.1158 1.7492-0.13733 1.7492 0.088811 2.4052 0.14884 2.1865 0.15056 1.5306 0.28018 3.2798 0.97475 1.5306 0.63957 3.4985 1.5535 1.5306 0.66034 1.5306 0.89921 1.3119 1.0069 0.65596 0.50339 1.7492 0.49473 5.2477 1.1351 1.3119 0.34084 1.3119 0.10622 3.0612-0.025284 1.5306-0.69306 2.1865-0.87754 2.1865-0.61449 2.1865-0.38053 3.0612-0.44474 4.1544-0.99676 1.3119-0.11923 1.3119 0.098876 3.0612 0.42822 2.1865 0.33832 2.4052 0.60457 1.9679 0.70522 3.4985 1.5253 2.8425 1.2857 0.87462 0.052273 0.87462-0.19726 1.7492-0.66828 1.9679-1.0087 1.9679-0.97324 2.4052-0.92891 2.1865-0.60977 1.5306-0.44992 1.9679-0.64084 1.3119-0.14883 1.7492 0.081172 1.7492 0.30938 1.7492 0.53478 11.151 4.356 1.7492 1.0416 2.1865 1.4073 0.87462 0.21472 1.7492 0.37747 1.9679 0.66504 1.7492 0.81262 1.7492 1.0399 1.7492 1.2995 1.5306 1.3909 4.8104 4.7393 1.0933 0.60542 0.87462 0.21756 2.1865 0.012002 3.7171-0.11061 1.3119-0.36057 1.5306-0.66564 2.1865-1.2374 5.9037-3.5472 1.3119-0.41164 1.3119-0.17542 1.3119 0.037975 1.3119 0.24257 1.3119 0.45049 1.3119 0.67456 1.3119 0.93111 1.3119 1.2447 1.0933 1.3465 1.3119 2.0122 1.3119 2.4015 1.3119 2.9073 1.0933 2.9425 1.0933 3.6033 0.87462 3.5606 0.87462 4.4612 0.87462 5.9053 0.65596 6.0776 0.65596 8.903 0.43731 9.4482 0.21865 7.2255 0.21866 11.571 0.001661 179.22v0" clip-path="url(#i)" fill="none" stroke="#dc143c" stroke-linecap="square" stroke-width="1.5"/>
<path d="m40.603 170.63v-141.83" fill="none" stroke="#000" stroke-linecap="square" stroke-width=".8"/>
<path d="m486.62 170.63v-141.83" fill="none" stroke="#000" stroke-linecap="square" stroke-width=".8"/>
<path d="m40.603 170.63h446.02" fill="none" stroke="#000" stroke-linecap="square" stroke-width=".8"/>
<path d="m40.603 28.8h446.02" fill="none" stroke="#000" stroke-linecap="square" stroke-width=".8"/>
<path d="m324.59 66.156h155.04q2 0 2-2v-28.356q0-2-2-2h-155.04q-2 0-2 2v28.356q0 2 2 2z" fill="#fff" opacity=".8" stroke="#ccc"/>
<path d="m326.59 41.898h20" fill="none" stroke="#dc143c" stroke-linecap="square" stroke-width="1.5"/>
<defs>
<path id="h" d="m41.109 46.297q-1.5156 0.875-3.2969 1.2812-1.7812 0.42188-3.9219 0.42188-7.625 0-11.703-4.9531t-4.0781-14.234v-28.812h-9.0312v54.688h9.0312v-8.5q2.8438 4.9844 7.375 7.3906 4.5469 2.4219 11.047 2.4219 0.92188 0 2.0469-0.125 1.125-0.10938 2.4844-0.35938z"/>
<path id="k" d="m34.281 27.484q-10.891 0-15.094-2.4844t-4.2031-8.5q0-4.7812 3.1562-7.5938 3.1562-2.7969 8.5625-2.7969 7.4844 0 12 5.2969t4.5156 14.078v2zm17.922 3.7188v-31.203h-8.9844v8.2969q-3.0781-4.9688-7.6719-7.3438t-11.234-2.375q-8.3906 0-13.359 4.7188-4.9531 4.7188-4.9531 12.625 0 9.2188 6.1719 13.906 6.1875 4.6875 18.438 4.6875h12.609v0.89062q0 6.2031-4.0781 9.5938t-11.453 3.3906q-4.6875 0-9.1406-1.125-4.4375-1.125-8.5312-3.375v8.3125q4.9219 1.9062 9.5625 2.8438 4.6406 0.95312 9.0312 0.95312 11.875 0 17.734-6.1562 5.8594-6.1406 5.8594-18.641z"/>
<path id="w" d="m18.312 70.219v-15.531h18.5v-6.9844h-18.5v-29.688q0-6.6875 1.8281-8.5938t7.4531-1.9062h9.2188v-7.5156h-9.2188q-10.406 0-14.359 3.875-3.9531 3.8906-3.9531 14.141v29.688h-6.5938v6.9844h6.5938v15.531z"/>
<path id="d" d="m56.203 29.594v-4.3906h-41.312q0.59375-9.2812 5.5938-14.141t13.938-4.8594q5.1719 0 10.031 1.2656t9.6562 3.8125v-8.5q-4.8438-2.0469-9.9219-3.125t-10.297-1.0781q-13.094 0-20.734 7.6094-7.6406 7.625-7.6406 20.625 0 13.422 7.25 21.297 7.25 7.8906 19.562 7.8906 11.031 0 17.453-7.1094 6.4219-7.0938 6.4219-19.297zm-8.9844 2.6406q-0.09375 7.3594-4.125 11.75-4.0312 4.4062-10.672 4.4062-7.5156 0-12.031-4.25t-5.2031-11.969z"/>
<path id="l" d="m30.609 48.391q-7.2188 0-11.422-5.6406t-4.2031-15.453 4.1719-15.453q4.1875-5.6406 11.453-5.6406 7.1875 0 11.375 5.6562 4.2031 5.6719 4.2031 15.438 0 9.7188-4.2031 15.406-4.1875 5.6875-11.375 5.6875zm0 7.6094q11.719 0 18.406-7.625 6.7031-7.6094 6.7031-21.078 0-13.422-6.7031-21.078-6.6875-7.6406-18.406-7.6406-11.766 0-18.438 7.6406-6.6562 7.6562-6.6562 21.078 0 13.469 6.6562 21.078 6.6719 7.625 18.438 7.625z"/>
<path id="y" d="m37.109 75.984v-7.4844h-8.5938q-4.8281 0-6.7188-1.9531-1.875-1.9531-1.875-7.0312v-4.8281h14.797v-6.9844h-14.797v-47.703h-9.0312v47.703h-8.5938v6.9844h8.5938v3.8125q0 9.125 4.25 13.297 4.25 4.1875 13.469 4.1875z"/>
<path id="m" d="m9.4219 54.688h8.9844v-54.688h-8.9844zm0 21.297h8.9844v-11.391h-8.9844z"/>
<path id="p" d="m9.4219 75.984h8.9844v-75.984h-8.9844z"/>
<path id="v" d="m8.5 21.578v33.109h8.9844v-32.766q0-7.7656 3.0156-11.656 3.0312-3.875 9.0938-3.875 7.2656 0 11.484 4.6406 4.2344 4.6406 4.2344 12.656v31h8.9844v-54.688h-8.9844v8.4062q-3.2656-4.9844-7.5938-7.4062-4.3125-2.4219-10.031-2.4219-9.4219 0-14.312 5.8594-4.875 5.8594-4.875 17.141zm22.609 34.422z"/>
<path id="j" d="m44.281 53.078v-8.5q-3.7969 1.9531-7.9062 2.9219-4.0938 0.98438-8.5 0.98438-6.6875 0-10.031-2.0469t-3.3438-6.1562q0-3.125 2.3906-4.9062t9.625-3.3906l3.0781-0.6875q9.5625-2.0469 13.594-5.7812t4.0312-10.422q0-7.625-6.0312-12.078-6.0312-4.4375-16.578-4.4375-4.3906 0-9.1562 0.85938t-10.031 2.5625v9.2812q4.9844-2.5938 9.8125-3.8906 4.8281-1.2812 9.5781-1.2812 6.3438 0 9.75 2.1719 3.4219 2.1719 3.4219 6.125 0 3.6562-2.4688 5.6094-2.4531 1.9531-10.812 3.7656l-3.125 0.73438q-8.3438 1.75-12.062 5.3906-3.7031 3.6406-3.7031 9.9844 0 7.7188 5.4688 11.906 5.4688 4.2031 15.531 4.2031 4.9688 0 9.3594-0.73438 4.4062-0.71875 8.1094-2.1875z"/>
<path id="u" d="m31 75.875q-6.5312-11.219-9.7188-22.219-3.1719-10.984-3.1719-22.266 0-11.266 3.2031-22.328t9.6875-22.25h-7.8125q-7.3125 11.484-10.953 22.562t-3.6406 22.016q0 10.891 3.6094 21.922 3.625 11.047 10.984 22.562z"/>
<path id="n" d="m45.406 46.391v29.594h8.9844v-75.984h-8.9844v8.2031q-2.8281-4.875-7.1562-7.25-4.3125-2.375-10.375-2.375-9.9062 0-16.141 7.9062-6.2188 7.9219-6.2188 20.812t6.2188 20.797q6.2344 7.9062 16.141 7.9062 6.0625 0 10.375-2.375 4.3281-2.3594 7.1562-7.2344zm-30.609-19.094q0-9.9062 4.0781-15.547t11.203-5.6406 11.219 5.6406q4.1094 5.6406 4.1094 15.547t-4.1094 15.547q-4.0938 5.6406-11.219 5.6406t-11.203-5.6406-4.0781-15.547z"/>
<path id="x" d="m9.0781 75.984h9.0312v-44.875l26.812 23.578h11.469l-29-25.578 30.234-29.109h-11.719l-27.797 26.703v-26.703h-9.0312z"/>
<path id="ae" d="m25.391 72.906h8.2969l-25.391-82.188h-8.2969z"/>
<path id="o" d="m32.172-5.0781q-3.7969-9.7656-7.4219-12.734-3.6094-2.9844-9.6562-2.9844h-7.1875v7.5156h5.2812q3.7031 0 5.75 1.7656 2.0625 1.75 4.5469 8.2969l1.6094 4.0938-22.109 53.812h9.5156l17.094-42.766 17.094 42.766h9.5156z"/>
<path id="t" d="m8.0156 75.875h7.8125q7.3125-11.516 10.953-22.562 3.6406-11.031 3.6406-21.922 0-10.938-3.6406-22.016t-10.953-22.562h-7.8125q6.4844 11.188 9.6875 22.25t3.2031 22.328q0 11.281-3.2031 22.266-3.2031 11-9.6875 22.219z"/>
</defs>
<g transform="translate(354.59 45.398) scale(.1 -.1)">
<use xlink:href="#h"/>
<use x="41.113281" xlink:href="#k"/>
<use x="102.392578" xlink:href="#w"/>
<use x="141.601562" xlink:href="#d"/>
<use x="203.125" xlink:href="#DejaVuSans-20"/>
<use x="234.912109" xlink:href="#l"/>
<use x="296.09375" xlink:href="#y"/>
<use x="331.298828" xlink:href="#DejaVuSans-20"/>
<use x="363.085938" xlink:href="#y"/>
<use x="398.291016" xlink:href="#k"/>
<use x="459.570312" xlink:href="#m"/>
<use x="487.353516" xlink:href="#p"/>
<use x="515.136719" xlink:href="#v"/>
<use x="578.515625" xlink:href="#h"/>
<use x="619.597656" xlink:href="#d"/>
<use x="681.121094" xlink:href="#j"/>
<use x="733.220703" xlink:href="#DejaVuSans-20"/>
<use x="765.007812" xlink:href="#u"/>
<use x="804.021484" xlink:href="#n"/>
<use x="867.498047" xlink:href="#m"/>
<use x="895.28125" xlink:href="#j"/>
<use x="947.380859" xlink:href="#x"/>
<use x="1005.291016" xlink:href="#j"/>
<use x="1057.390625" xlink:href="#ae"/>
<use x="1091.082031" xlink:href="#o"/>
<use x="1150.261719" xlink:href="#h"/>
<use x="1191.375" xlink:href="#t"/>
</g>
<path d="m326.59 60.077h20v-7h-20z" fill="#0766aa" fill-opacity=".2" stroke="#0766aa" stroke-opacity=".2"/>
<defs>
<path id="al" d="m48.688 27.297q0 9.9062-4.0781 15.547t-11.203 5.6406q-7.1406 0-11.219-5.6406t-4.0781-15.547 4.0781-15.547 11.219-5.6406q7.125 0 11.203 5.6406t4.0781 15.547zm-30.578 19.094q2.8438 4.875 7.1562 7.2344 4.3281 2.375 10.328 2.375 9.9688 0 16.188-7.9062 6.2344-7.9062 6.2344-20.797t-6.2344-20.812q-6.2188-7.9062-16.188-7.9062-6 0-10.328 2.375-4.3125 2.375-7.1562 7.25v-8.2031h-9.0312v75.984h9.0312z"/>
<path id="ah" d="m2.9844 54.688h9.5156l17.094-45.891 17.094 45.891h9.5156l-20.516-54.688h-12.203z"/>
</defs>
<g transform="translate(354.59 60.077) scale(.1 -.1)">
<use xlink:href="#n"/>
<use x="63.476562" xlink:href="#m"/>
<use x="91.259766" xlink:href="#j"/>
<use x="143.359375" xlink:href="#x"/>
<use x="201.269531" xlink:href="#j"/>
<use x="253.369141" xlink:href="#DejaVuSans-20"/>
<use x="285.15625" xlink:href="#l"/>
<use x="346.337891" xlink:href="#al"/>
<use x="409.814453" xlink:href="#j"/>
<use x="461.914062" xlink:href="#d"/>
<use x="523.4375" xlink:href="#h"/>
<use x="564.550781" xlink:href="#ah"/>
<use x="623.730469" xlink:href="#d"/>
<use x="685.253906" xlink:href="#n"/>
</g>
<path d="m40.603 375.64h446.02v-189.1h-446.02z" fill="#fff"/>
<path d="m40.603 375.64v-189.1" clip-path="url(#b)" fill="none" stroke="#b0b0b0" stroke-linecap="square" stroke-width=".8"/>
<use x="40.603125" y="375.64" stroke="#000000" stroke-width=".8" xlink:href="#e"/>
<g transform="translate(37.422 390.24) scale(.1 -.1)">
<use xlink:href="#g"/>
</g>
<path d="m133.48 375.64v-189.1" clip-path="url(#b)" fill="none" stroke="#b0b0b0" stroke-linecap="square" stroke-width=".8"/>
<use x="133.476922" y="375.64" stroke="#000000" stroke-width=".8" xlink:href="#e"/>
<g transform="translate(130.3 390.24) scale(.1 -.1)">
<use xlink:href="#f"/>
</g>
<path d="m226.35 375.64v-189.1" clip-path="url(#b)" fill="none" stroke="#b0b0b0" stroke-linecap="square" stroke-width=".8"/>
<use x="226.350718" y="375.64" stroke="#000000" stroke-width=".8" xlink:href="#e"/>
<g transform="translate(223.17 390.24) scale(.1 -.1)">
<use xlink:href="#s"/>
</g>
<path d="m319.22 375.64v-189.1" clip-path="url(#b)" fill="none" stroke="#b0b0b0" stroke-linecap="square" stroke-width=".8"/>
<use x="319.224515" y="375.64" stroke="#000000" stroke-width=".8" xlink:href="#e"/>
<g transform="translate(316.04 390.24) scale(.1 -.1)">
<use xlink:href="#r"/>
</g>
<path d="m412.1 375.64v-189.1" clip-path="url(#b)" fill="none" stroke="#b0b0b0" stroke-linecap="square" stroke-width=".8"/>
<use x="412.098311" y="375.64" stroke="#000000" stroke-width=".8" xlink:href="#e"/>
<g transform="translate(408.92 390.24) scale(.1 -.1)">
<use xlink:href="#q"/>
</g>
<defs>
<path id="aq" d="m34.188 63.188-13.391-36.281h26.812zm-5.5781 9.7188h11.188l27.781-72.906h-10.25l-6.6406 18.703h-32.859l-6.6406-18.703h-10.406z"/>
<path id="ak" d="m45.406 27.984q0 9.7656-4.0312 15.125-4.0156 5.375-11.297 5.375-7.2188 0-11.25-5.375-4.0312-5.3594-4.0312-15.125 0-9.7188 4.0312-15.094t11.25-5.375q7.2812 0 11.297 5.375 4.0312 5.375 4.0312 15.094zm8.9844-21.203q0-13.953-6.2031-20.766-6.1875-6.8125-18.984-6.8125-4.7344 0-8.9375 0.70312t-8.1562 2.1719v8.7344q3.9531-2.1406 7.8125-3.1562 3.8594-1.0312 7.8594-1.0312 8.8438 0 13.234 4.6094t4.3906 13.938v4.4531q-2.7812-4.8438-7.125-7.2344t-10.406-2.3906q-10.047 0-16.203 7.6562-6.1562 7.6719-6.1562 20.328 0 12.688 6.1562 20.344 6.1562 7.6719 16.203 7.6719 6.0625 0 10.406-2.3906t7.125-7.2188v8.2969h8.9844z"/>
<path id="ai" d="m18.109 8.2031v-29h-9.0312v75.484h9.0312v-8.2969q2.8438 4.875 7.1562 7.2344 4.3281 2.375 10.328 2.375 9.9688 0 16.188-7.9062 6.2344-7.9062 6.2344-20.797t-6.2344-20.812q-6.2188-7.9062-16.188-7.9062-6 0-10.328 2.375-4.3125 2.375-7.1562 7.25zm30.578 19.094q0 9.9062-4.0781 15.547t-11.203 5.6406q-7.1406 0-11.219-5.6406t-4.0781-15.547 4.0781-15.547 11.219-5.6406q7.125 0 11.203 5.6406t4.0781 15.547z"/>
<path id="ag" d="m4.2031 54.688h8.9844l11.234-42.672 11.172 42.672h10.594l11.234-42.672 11.188 42.672h8.9844l-14.312-54.688h-10.594l-11.766 44.828-11.812-44.828h-10.609z"/>
<path id="au" d="m4.8906 31.391h26.312v-8h-26.312z"/>
<path id="aj" d="m54.891 33.016v-33.016h-8.9844v32.719q0 7.7656-3.0312 11.609-3.0312 3.8594-9.0781 3.8594-7.2812 0-11.484-4.6406-4.2031-4.625-4.2031-12.641v-30.906h-9.0312v54.688h9.0312v-8.5q3.2344 4.9375 7.5938 7.375 4.375 2.4375 10.094 2.4375 9.4219 0 14.25-5.8281 4.8438-5.8281 4.8438-17.156z"/>
</defs>
<g transform="translate(209.62 403.92) scale(.1 -.1)">
<use xlink:href="#aq"/>
<use x="68.408203" xlink:href="#ak"/>
<use x="131.884766" xlink:href="#d"/>
<use x="193.408203" xlink:href="#DejaVuSans-20"/>
<use x="225.195312" xlink:href="#u"/>
<use x="264.208984" xlink:href="#ai"/>
<use x="327.685547" xlink:href="#l"/>
<use x="388.867188" xlink:href="#ag"/>
<use x="470.654297" xlink:href="#d"/>
<use x="532.177734" xlink:href="#h"/>
<use x="573.197266" xlink:href="#au"/>
<use x="609.296875" xlink:href="#l"/>
<use x="670.478516" xlink:href="#aj"/>
<use x="733.857422" xlink:href="#DejaVuSans-20"/>
<use x="765.644531" xlink:href="#o"/>
<use x="824.824219" xlink:href="#d"/>
<use x="886.347656" xlink:href="#k"/>
<use x="947.626953" xlink:href="#h"/>
<use x="988.740234" xlink:href="#j"/>
<use x="1040.839844" xlink:href="#t"/>
</g>
<path d="m40.603 375.64h446.02" clip-path="url(#b)" fill="none" stroke="#b0b0b0" stroke-linecap="square" stroke-width=".8"/>
<use x="40.603125" y="375.64" stroke="#000000" stroke-width=".8" xlink:href="#c"/>
<g transform="translate(27.241 379.44) scale(.1 -.1)">
<use xlink:href="#g"/>
</g>
<path d="m40.603 328.36h446.02" clip-path="url(#b)" fill="none" stroke="#b0b0b0" stroke-linecap="square" stroke-width=".8"/>
<use x="40.603125" y="328.364202" stroke="#000000" stroke-width=".8" xlink:href="#c"/>
<g transform="translate(27.241 332.16) scale(.1 -.1)">
<use xlink:href="#q"/>
</g>
<path d="m40.603 281.09h446.02" clip-path="url(#b)" fill="none" stroke="#b0b0b0" stroke-linecap="square" stroke-width=".8"/>
<use x="40.603125" y="281.088405" stroke="#000000" stroke-width=".8" xlink:href="#c"/>
<defs>
<path id="as" d="m31.781 34.625q-7.0312 0-11.062-3.7656-4.0156-3.7656-4.0156-10.344 0-6.5938 4.0156-10.359 4.0312-3.7656 11.062-3.7656t11.078 3.7812q4.0625 3.7969 4.0625 10.344 0 6.5781-4.0312 10.344-4.0156 3.7656-11.109 3.7656zm-9.8594 4.1875q-6.3438 1.5625-9.8906 5.9062-3.5312 4.3594-3.5312 10.609 0 8.7344 6.2188 13.812 6.2344 5.0781 17.062 5.0781 10.891 0 17.094-5.0781t6.2031-13.812q0-6.25-3.5469-10.609-3.5312-4.3438-9.8281-5.9062 7.125-1.6562 11.094-6.5 3.9844-4.8281 3.9844-11.797 0-10.609-6.4688-16.281-6.4688-5.6562-18.531-5.6562-12.047 0-18.531 5.6562-6.4688 5.6719-6.4688 16.281 0 6.9688 4 11.797 4.0156 4.8438 11.141 6.5zm-3.6094 15.578q0-5.6562 3.5312-8.8281 3.5469-3.1719 9.9375-3.1719 6.3594 0 9.9375 3.1719 3.5938 3.1719 3.5938 8.8281 0 5.6719-3.5938 8.8438-3.5781 3.1719-9.9375 3.1719-6.3906 0-9.9375-3.1719-3.5312-3.1719-3.5312-8.8438z"/>
</defs>
<g transform="translate(27.241 284.89) scale(.1 -.1)">
<use xlink:href="#as"/>
</g>
<path d="m40.603 233.81h446.02" clip-path="url(#b)" fill="none" stroke="#b0b0b0" stroke-linecap="square" stroke-width=".8"/>
<use x="40.603125" y="233.812607" stroke="#000000" stroke-width=".8" xlink:href="#c"/>
<g transform="translate(20.878 237.61) scale(.1 -.1)">
<use xlink:href="#f"/>
<use x="63.623047" xlink:href="#s"/>
</g>
<path d="m40.603 186.54h446.02" clip-path="url(#b)" fill="none" stroke="#b0b0b0" stroke-linecap="square" stroke-width=".8"/>
<use x="40.603125" y="186.536809" stroke="#000000" stroke-width=".8" xlink:href="#c"/>
<g transform="translate(20.878 190.34) scale(.1 -.1)">
<use xlink:href="#f"/>
<use x="63.623047" xlink:href="#ad"/>
</g>
<defs>
<path id="ab" d="m9.8125 72.906h41.891v-8.3125h-32.031v-21.484h28.906v-8.2969h-28.906v-34.812h-9.8594z"/>
<path id="aa" d="m44.391 34.188q3.1719-1.0781 6.1719-4.5938t6.0312-9.6719l10.016-19.922h-10.609l-9.3125 18.703q-3.625 7.3281-7.0156 9.7188t-9.25 2.3906h-10.75v-30.812h-9.8594v72.906h22.266q12.5 0 18.656-5.2344 6.1562-5.2188 6.1562-15.766 0-6.8906-3.2031-11.438-3.2031-4.5312-9.2969-6.2812zm-24.719 30.609v-25.875h12.406q7.125 0 10.766 3.2969t3.6406 9.6875-3.6406 9.6406-10.766 3.25z"/>
<path id="av" d="m72.703 32.078q-4.25 0-6.6719-3.6094-2.4062-3.6094-2.4062-10.062 0-6.3438 2.4062-9.9844 2.4219-3.6406 6.6719-3.6406 4.1562 0 6.5625 3.6406 2.4219 3.6406 2.4219 9.9844 0 6.4062-2.4219 10.031-2.4062 3.6406-6.5625 3.6406zm0 6.2031q7.7188 0 12.25-5.375 4.5469-5.3594 4.5469-14.5 0-9.125-4.5625-14.484-4.5625-5.3438-12.234-5.3438-7.8125 0-12.359 5.3438-4.5312 5.3594-4.5312 14.484 0 9.1875 4.5625 14.531t12.328 5.3438zm-50.391 29.734q-4.2031 0-6.625-3.6406-2.4062-3.625-2.4062-9.9844 0-6.4375 2.3906-10.062 2.3906-3.6094 6.6406-3.6094t6.6562 3.6094q2.4219 3.625 2.4219 10.062 0 6.2969-2.4375 9.9531-2.4375 3.6719-6.6406 3.6719zm44.094 6.2031h7.8125l-45.609-75.641h-7.8125zm-44.094 0q7.7188 0 12.297-5.3438 4.5938-5.3438 4.5938-14.484 0-9.2188-4.5625-14.547t-12.328-5.3281-12.281 5.3438q-4.5156 5.3594-4.5156 14.531 0 9.0938 4.5312 14.453 4.5469 5.375 12.266 5.375z"/>
</defs>
<g transform="translate(14.798 334.34) rotate(-90) scale(.1 -.1)">
<use xlink:href="#ab"/>
<use x="57.378906" xlink:href="#k"/>
<use x="118.658203" xlink:href="#m"/>
<use x="146.441406" xlink:href="#p"/>
<use x="174.224609" xlink:href="#v"/>
<use x="237.603516" xlink:href="#h"/>
<use x="278.685547" xlink:href="#d"/>
<use x="340.208984" xlink:href="#DejaVuSans-20"/>
<use x="371.996094" xlink:href="#aa"/>
<use x="441.447266" xlink:href="#k"/>
<use x="502.726562" xlink:href="#w"/>
<use x="541.935547" xlink:href="#d"/>
<use x="603.458984" xlink:href="#DejaVuSans-20"/>
<use x="635.246094" xlink:href="#u"/>
<use x="674.259766" xlink:href="#av"/>
<use x="769.279297" xlink:href="#ae"/>
<use x="802.970703" xlink:href="#o"/>
<use x="862.150391" xlink:href="#d"/>
<use x="923.673828" xlink:href="#k"/>
<use x="984.953125" xlink:href="#h"/>
<use x="1026.066406" xlink:href="#t"/>
</g>
<path d="m52.474 250.06 0.43731 4.817 0.43731 2.5899 0.65596 2.6516 0.87462 2.5135 0.43731 0.8333 0.21865 0.20926 1.7492-0.51716 0.43731-0.48376 0.65596-0.80526 0.65596-0.40082 0.43731 0.023406 0.65596 0.38873 0.65596 0.78762 1.3119 2.295 0.65596 1.3425 0.65596 1.8742 0.87462 3.3262 2.1865 10.325 5.9037 29.187 2.1865 8.0999 0.43731 0.5674 0.43731-0.28505 0.43731-0.62585 0.87462-2.269 0.43731-1.6024 0.65596-3.8937 2.1865-13.033 1.0933-4.8497 0.87462-2.9226 1.3119-3.5895 1.0933-2.1847 0.43731-0.81956 2.1865-5.2146 0.65596-0.72847 0.43731-0.21065 0.43731 0.009777 0.43731 0.23251 0.65596-0.32012 0.65596-0.77354 0.65596-0.4107 0.43731-0.32205 0.65596-0.58174 0.65596-0.55207 0.43731-0.19179 0.43731 0.076489 0.43731 0.34646 0.43731 0.61771 0.65596 1.4223 0.65596 1.9306 0.87462 3.3633 0.87462 4.2296 1.0933 5.5982 0.43731 1.1054 0.87462 1.2929 1.3119 1.6934 0.43731 0.08273 0.43731 0.27278 0.65596 0.76392 0.65596 1.1895 0.65596 1.6123 0.87462 2.8074 1.0933 3.5141 1.7492 4.2757 1.3119 3.4 1.5306 3.2188 1.3119 3.4232 1.0933 2.7506 0.43731 0.45398 1.0933-0.058402 1.7492-1.8584 1.5306-2.144 1.0933-1.2848 0.87462-1.8021 0.87462-1.5427 0.87462-1.1295 0.65596-0.80704 0.87462-1.5413 1.9679-5.7257 0.87462-2.3478 0.65596-2.0948 0.65596-3.446 0.87462-4.394 0.87462-3.1576 2.1865-6.4877 0.65596-1.125 1.0933-1.6512 1.7492-4.4454 1.0933-2.5031 1.5306-2.768 0.65596-1.0294 1.5306-3.4902 0.65596-1.0959 0.87462-1.7768 0.65596-0.80856 0.43731-0.18475 1.3119-0.023406 1.0933 0.46335 0.43731 0.44508 1.3119 2.0092 0.43731 0.77369 0.21865 0.23286 0.43731 0.17414 0.43731 0.36887 0.43731 0.58256 0.65596 1.3362 1.7492 4.2695 0.43731 0.12254 0.65596 0.09956 0.43731 0.25271 0.65596 0.68162 0.65596 1.0491 0.65596 1.6019 0.65596 2.2321 0.87462 3.9539 1.7492 8.5759 0.65596 2.2567 2.8425 7.8916 1.3119 4.4916 0.87462 3.0424 1.0933 4.0648 1.7492 5.3255 1.0933 4.1183 1.5306 5.9089 1.0933 3.4735 0.87462 1.8847 1.7492 1.9947 1.0933-0.018627 0.87462 0.20763 1.0933 0.35862 0.43731-0.082045 0.43731-0.27308 0.43731-0.50492 1.5306-2.1136 0.87462-0.77224 0.87462-0.42363 1.5306-0.46161 1.0933-1.7347 2.8425-5.0657 0.43731-0.54086 1.3119-2.8193 1.3119-3.1828 0.87462-2.1642 0.65596-1.1714 0.65596-0.78307 0.65596-0.39337 0.43731-0.04477 0.65596 0.2146 0.65596 0.53614 0.65596 0.85447 0.87462 1.6295 1.5306 3.3486 1.7492 1.6367 0.87462 0.7317 0.87462 0.76135 0.65596 0.30247 1.0933 0.20654 0.65596 0.39114 0.65596 0.61427 0.87462 1.1654 1.0933 1.976 2.4052 4.3162 1.7492 4.0465 0.87462 2.0398 0.65596 0.6838 0.87462 0.53892 0.65596 0.21004 0.43731-0.15808 0.87462-0.45139 0.87462-0.21663 0.87462 0.015427 0.43731 0.097266 0.87462-0.54137 1.0933-0.51815 0.87462-0.20974 0.87462 0.01469 1.0933 0.23956 1.0933 0.31724 2.8425 0.074559 1.0933 0.3313 0.87462 0.49153 0.87462 0.73595 1.0933 0.98856 1.7492 1.3589 1.0933 1.3059 2.6239 3.1909 1.9679 1.6652 1.3119 1.5239 1.3119 1.867 1.3119 2.021 1.3119 0.64297 1.0933 0.29915 1.9679 0.36652 1.5306 0.54948 2.6239 1.0909 1.0933 0.064727 1.7492 0.095638 0.65596 0.005534 0.65596-0.25867 0.87462-0.71006 2.8425-2.3534 1.7492-1.1979 1.7492-0.93167 1.5306-0.59004 1.5306-0.57065 1.0933-0.7185 3.0612-2.2897 1.5306-0.86521 0.87462-0.20019 0.87462 0.05963 3.7171 0.83659 1.3119 0.34483 1.5306 0.62274 1.7492 0.95033 1.3119 0.95304 6.5596 5.2723 0.65596 0.03455 0.65596-0.24052 1.0933-0.82133 1.3119-1.2978 1.3119-1.6691 3.9358-5.5231 2.1865-2.7141 2.1865-2.6357 2.4052-3.6189 0.87462-0.76552 0.87462-0.43537 0.87462-0.20976 0.87462-0.003195 0.87462 0.19844 1.0933 0.51658 1.0933 0.82892 2.6239 2.2453 7.4342 5.715 1.3119 1.3393 1.5306 1.9191 1.5306 2.0028 0.65596 0.42864 0.65596 0.075261 1.3119 0.13944 1.3119 0.37934 1.3119 0.61024 1.3119 0.83143 1.5306 1.2314 1.7492 1.7244 1.9679 2.2876 2.8425 3.4258 1.0933 0.96543 1.0933 0.68441 0.87462 0.30326 0.87462 0.041754 1.9679-0.42987 3.4985-0.89526 1.0933-0.54715 1.3119-0.95431 1.3119-1.258 1.5306-1.8394 1.5306-2.2007 1.9679-3.2478 3.2798-5.7005 1.0933-1.2641 0.87462-0.71006 0.87462-0.43698 0.87462-0.16336 0.87462 0.088942 0.87462 0.3535 0.87462 0.63247 0.87462 0.91573 1.0933 1.5239 1.0933 1.9534 1.0933 2.3911 1.7492 4.5288 3.4985 8.9644 1.7492 3.8667 1.3119 2.3764 1.0933 1.5191 0.87462 0.8506 0.65596 0.39279 0.65596 0.15869h85.057v0" clip-path="url(#b)" fill="none" stroke="#d2691e" stroke-linecap="square" stroke-width="1.5"/>
<path d="m40.603 375.64v-189.1" fill="none" stroke="#000" stroke-linecap="square" stroke-width=".8"/>
<path d="m486.62 375.64v-189.1" fill="none" stroke="#000" stroke-linecap="square" stroke-width=".8"/>
<path d="m40.603 375.64h446.02" fill="none" stroke="#000" stroke-linecap="square" stroke-width=".8"/>
<path d="m40.603 186.54h446.02" fill="none" stroke="#000" stroke-linecap="square" stroke-width=".8"/>
<defs>
<path id="an" d="m9.8125 72.906h14.703l18.594-49.609 18.703 49.609h14.703v-72.906h-9.625v64.016l-18.797-50h-9.9062l-18.797 50v-64.016h-9.5781z"/>
<path id="ar" d="m11.719 12.406h10.297v-12.406h-10.297zm0 39.297h10.297v-12.391h-10.297z"/>
<path id="z" d="m3.3281 72.906h9.9531l15.328-61.625 15.281 61.625h11.094l15.328-61.625 15.281 61.625h10.016l-18.312-72.906h-12.406l-15.375 63.281-15.531-63.281h-12.406z"/>
<path id="ac" d="m19.672 64.797v-56.688h11.922q15.094 0 22.094 6.8281 7 6.8438 7 21.594 0 14.641-7 21.453t-22.094 6.8125zm-9.8594 8.1094h20.266q21.188 0 31.094-8.8125 9.9219-8.8125 9.9219-27.562 0-18.859-9.9688-27.703-9.9531-8.8281-31.047-8.8281h-20.266z"/>
<path id="ap" d="m64.406 67.281v-10.391q-4.9844 4.6406-10.625 6.9219-5.6406 2.2969-11.984 2.2969-12.5 0-19.141-7.6406t-6.6406-22.094q0-14.406 6.6406-22.047t19.141-7.6406q6.3438 0 11.984 2.2969t10.625 6.9375v-10.312q-5.1719-3.5156-10.969-5.2812-5.7812-1.75-12.219-1.75-16.562 0-26.094 10.125-9.5156 10.141-9.5156 27.672 0 17.578 9.5156 27.703 9.5312 10.141 26.094 10.141 6.5312 0 12.312-1.7344 5.7969-1.7344 10.875-5.2031z"/>
<path id="ao" d="m9.8125 72.906h46.094v-8.3125h-36.234v-21.578h34.719v-8.2969h-34.719v-26.422h37.109v-8.2969h-46.969z"/>
<path id="am" d="m6.2969 72.906h10.594l18.125-27.109 18.203 27.109h10.594l-23.438-35.016 25-37.891h-10.594l-20.5 31-20.656-31h-10.641l26.016 38.922z"/>
</defs>
<g transform="translate(175.64 16.318) scale(.12 -.12)">
<use xlink:href="#an"/>
<use x="86.279297" xlink:href="#l"/>
<use x="147.460938" xlink:href="#n"/>
<use x="210.9375" xlink:href="#d"/>
<use x="272.460938" xlink:href="#p"/>
<use x="300.244141" xlink:href="#ar"/>
<use x="333.935547" xlink:href="#DejaVuSans-20"/>
<use x="365.722656" xlink:href="#z"/>
<use x="464.599609" xlink:href="#ac"/>
<use x="541.601562" xlink:href="#ap"/>
<use x="611.425781" xlink:href="#DejaVuSans-20"/>
<use x="643.212891" xlink:href="#z"/>
<use x="742.089844" xlink:href="#ac"/>
<use x="819.091797" xlink:href="#r"/>
<use x="882.714844" xlink:href="#g"/>
<use x="946.337891" xlink:href="#ao"/>
<use x="1009.521484" xlink:href="#ab"/>
<use x="1067.041016" xlink:href="#aa"/>
<use x="1136.523438" xlink:href="#am"/>
</g>
<defs>
<clipPath id="i">
<rect x="40.603" y="28.8" width="446.02" height="141.83"/>
</clipPath>
<clipPath id="b">
<rect x="40.603" y="186.54" width="446.02" height="189.1"/>
</clipPath>
</defs>
</svg>
