<?xml version="1.0" encoding="UTF-8"?>
<!DOCTYPE svg  PUBLIC '-//W3C//DTD SVG 1.1//EN'  'http://www.w3.org/Graphics/SVG/1.1/DTD/svg11.dtd'>
<svg width="497pt" height="413pt" version="1.1" viewBox="0 0 497 413" xmlns="http://www.w3.org/2000/svg" xmlns:xlink="http://www.w3.org/1999/xlink">
<defs>
<style type="text/css">*{stroke-linecap:butt;stroke-linejoin:round;}</style>
</defs>
<path d="m0 413.2h497.32v-413.2h-497.32z" fill="#fff"/>
<path d="m40.603 170.63h446.02v-141.83h-446.02z" fill="#fff"/>
<defs>
<path id="af" d="m65.055-235.45v-67.967l0.22518-0.048158 0.22518-0.044523 0.22518-0.039425 0.22518-0.037741 0.22518-0.034916 0.22518-0.033014 0.22518-0.029939 0.22518-0.027831 0.22518-0.026951 0.22518-0.023876 0.22518-0.023348 0.22518-0.019851 0.22518-0.018464 0.22518-0.015536 0.22518-0.013737 0.22518-0.012326 0.22518-0.011509 0.22518-0.01129 0.22518-0.009954 0.22518-0.009342 0.22518-0.007939 0.22518-0.007627 0.22518-0.0071 0.22518-0.006778 0.22518-0.006606 0.22518-0.004433 0.22518-0.004258 0.22518-0.004051 0.22518-0.00367 0.22518-0.003441 0.22518-0.003313 0.22518-0.003259 0.22518-0.002999 0.22518-0.002768 0.22518-0.002466 0.22518-0.002399 0.22518-0.002267 0.22518-0.002098 0.22518-0.001678 0.22518-0.001043 0.22518-9.34e-4 0.22518-8.84e-4 0.22518-7.27e-4 0.22518-6e-4 0.22518-5.69e-4 0.22518-5.61e-4 0.22518-5.51e-4 0.22518-5.43e-4 0.22518-5.33e-4 0.22518-5.23e-4 0.22518-4.01e-4 0.22518-2.62e-4 0.22518-2.03e-4 0.22518-1.7e-4 0.22518 1.5e-5 0.22518 3.8e-5 0.22518 6.1e-5 0.45036 2.35e-4 0.22518 3.8e-5 0.22518-4.4e-5 0.22518-8e-5 0.22518-1e-4 0.22518-1.19e-4 2.2518-0.001465 0.22518-1.35e-4 0.22518-1.1e-4 0.22518-8.6e-5 0.22518-1.16e-4 0.22518-1.33e-4 0.45036-2.61e-4 0.22518-1.28e-4 0.22518-1.23e-4 0.22518-1.14e-4 0.22518-1.04e-4 0.22518-9.4e-5 0.22518-8.5e-5 0.22518-7.3e-5 0.22518-5.7e-5 0.22518-3.9e-5 0.22518-2.3e-5 0.22518-1.2e-5 0.22518-3e-6 0.22518 7e-6 0.22518 1.8e-5 0.22518 2.7e-5 0.22518 3.1e-5 0.22518 3.3e-5 0.22518 3.7e-5 0.22518 4e-5 0.22518 4.2e-5 0.22518 4.6e-5 0.22518 4.8e-5 0.22518 5.2e-5 0.22518 5.4e-5 0.22518 5.8e-5 0.22518 6e-5 1.1259 3.19e-4 0.22518 6.5e-5 0.22518 6.9e-5 0.22518 7.2e-5 0.22518 7.5e-5 0.22518 7.7e-5 0.22518 8.1e-5 0.22518 8.4e-5 0.22518 8.7e-5 0.22518 8.9e-5 0.22518 9.3e-5 0.22518 9.6e-5 0.22518 9.8e-5 0.22518 1.02e-4 0.22518 1.05e-4 0.22518 1.07e-4 0.22518 1.11e-4 0.22518 1.14e-4 0.22518 1.16e-4 0.22518 1.2e-4 0.22518 1.22e-4 0.22518 1.26e-4 0.22518 1.28e-4 0.22518 1.32e-4 0.22518 1.34e-4 0.22518 1.38e-4 1.3511 8.32e-4 1.1259 5.8e-4 0.45036 2e-4 0.22518 8.1e-5 0.22518 5.4e-5 0.22518 3.8e-5 0.22518 4e-5 0.45036 8.5e-5 0.45036 9.3e-5 0.45036 1.01e-4 0.22518 5.3e-5 0.22518 5.5e-5 0.45036 1.15e-4 0.22518 6.1e-5 0.45036 1.27e-4 0.22518 6.6e-5 0.22518 6.8e-5 0.22518 7e-5 0.22518 7.2e-5 0.22518 7.4e-5 0.45036 1.53e-4 0.45036 1.61e-4 0.22518 8.3e-5 0.22518 8.5e-5 0.22518 8.7e-5 0.22518 9e-5 0.22518 9.2e-5 0.22518 9.5e-5 0.22518 9.8e-5 0.22518 1e-4 0.22518 1.02e-4 0.22518 1.06e-4 0.22518 1.08e-4 0.22518 1.11e-4 0.22518 1.13e-4 0.22518 1.16e-4 0.22518 1.18e-4 0.22518 1.21e-4 0.22518 1.24e-4 0.22518 1.27e-4 0.22518 1.29e-4 0.22518 1.31e-4 0.22518 1.35e-4 0.22518 1.37e-4 0.22518 1.39e-4 0.45036 2.87e-4 0.22518 1.48e-4 0.22518 1.5e-4 0.22518 1.53e-4 0.22518 1.55e-4 0.22518 1.58e-4 0.22518 1.61e-4 0.22518 1.63e-4 7.8813 0.005642 0.22518 1.65e-4 0.22518 1.68e-4 0.22518 1.7e-4 0.22518 1.74e-4 0.22518 1.77e-4 0.22518 1.8e-4 0.22518 1.83e-4 0.22518 1.86e-4 0.22518 1.89e-4 0.22518 1.92e-4 0.22518 1.95e-4 0.22518 1.98e-4 0.22518 2.01e-4 0.22518 2.04e-4 0.22518 2.07e-4 0.22518 2.12e-4 0.22518 2.3e-4 0.22518 2.45e-4 0.22518 2.62e-4 0.22518 2.77e-4 0.22518 2.82e-4 0.22518 2.88e-4 0.22518 2.94e-4 0.22518 3e-4 0.22518 3.05e-4 0.22518 3.11e-4 0.22518 3.17e-4 0.22518 3.23e-4 0.22518 3.29e-4 0.22518 3.34e-4 0.22518 3.4e-4 0.22518 3.46e-4 0.22518 3.52e-4 0.22518 4.29e-4 0.22518 5.11e-4 0.22518 5.47e-4 0.22518 5.66e-4 0.22518 5.84e-4 0.22518 6.03e-4 4.0532 0.010916 0.45036 0.001162 0.45036 0.001122 0.22518 5.45e-4 0.22518 5.27e-4 0.22518 5.1e-4 0.45036 9.74e-4 0.45036 9.33e-4 1.1259 0.002192 1.3511 0.002512 2.477 0.004414 0.67554 0.001211 0.67554 0.001217 0.67554 0.001222 0.67554 0.001229 0.67554 0.001235 0.45036 8.27e-4 0.45036 8.3e-4 0.45036 8.33e-4 0.67554 0.001255 0.67554 0.001262 0.45036 8.44e-4 0.90071 0.001698 0.90071 0.00171 0.45036 8.59e-4 2.0266 0.003874 0.67554 0.001225 0.67554 0.001172 1.5762 0.002593 0.45036 7.49e-4 0.45036 7.53e-4 0.22518 3.78e-4 0.67554 0.001141 0.67554 0.001151 0.45036 7.73e-4 0.45036 7.77e-4 0.45036 7.81e-4 0.22518 3.92e-4 0.22518 3.94e-4 0.22518 4e-4 0.22518 4.05e-4 0.22518 4.12e-4 0.22518 4.16e-4 0.22518 4.23e-4 0.22518 4.28e-4 0.22518 4.35e-4 0.22518 4.4e-4 0.22518 4.68e-4 0.22518 4.97e-4 0.22518 5.02e-4 0.22518 5.06e-4 0.22518 5.1e-4 0.22518 5.14e-4 0.22518 5.19e-4 0.22518 5.23e-4 0.22518 5.28e-4 0.22518 5.31e-4 9.9079 0.023354 0.22518 5.17e-4 0.22518 5.03e-4 0.22518 4.89e-4 0.22518 4.75e-4 1.3511 0.002726 1.3511 0.002607 5.1791 0.009387 0.45036 8.2e-4 0.22518 4.13e-4 0.45036 8.31e-4 0.22518 4.44e-4 0.22518 4.73e-4 0.22518 5.01e-4 0.22518 5.27e-4 0.22518 5.41e-4 0.22518 5.52e-4 0.22518 5.63e-4 0.22518 5.74e-4 0.22518 5.85e-4 0.22518 6.36e-4 0.22518 6.5e-4 0.22518 6.56e-4 0.22518 6.63e-4 0.22518 6.68e-4 0.22518 6.76e-4 0.22518 6.82e-4 0.22518 6.88e-4 0.22518 6.94e-4 0.22518 7.02e-4 0.22518 7.09e-4 0.22518 7.17e-4 0.22518 7.23e-4 0.22518 7.31e-4 0.22518 7.38e-4 0.22518 7.49e-4 0.22518 7.82e-4 0.22518 8.64e-4 0.22518 8.68e-4 0.22518 8.71e-4 0.22518 8.76e-4 0.22518 8.79e-4 0.22518 8.83e-4 0.22518 8.87e-4 0.22518 8.9e-4 0.22518 8.95e-4 0.22518 8.98e-4 0.22518 9.02e-4 0.22518 9.06e-4 0.22518 9.88e-4 0.22518 0.001031 0.22518 0.001034 0.22518 0.001038 0.22518 0.001043 0.22518 0.001046 0.22518 0.00105 0.22518 0.001054 0.22518 0.001058 0.22518 0.001062 0.22518 0.001066 0.22518 0.001069 0.22518 0.001077 0.22518 0.001085 0.22518 0.001095 0.22518 0.001103 0.22518 0.001111 0.22518 0.001121 0.22518 0.00113 0.22518 0.00114 0.22518 0.001149 0.22518 0.001158 0.22518 0.001168 0.22518 0.001177 0.22518 0.001185 0.22518 0.001192 0.22518 0.0012 0.22518 0.001207 0.22518 0.001215 0.22518 0.001222 0.22518 0.00123 0.22518 0.001239 0.22518 0.001246 0.22518 0.001255 0.22518 0.001263 0.22518 0.001272 0.22518 0.001279 0.22518 0.001286 0.22518 0.001296 0.22518 0.001309 0.22518 0.001323 0.22518 0.001336 0.22518 0.001349 0.22518 0.001363 0.22518 0.00141 0.22518 0.001444 0.22518 0.001459 0.22518 0.001476 0.22518 0.00149 0.22518 0.001506 0.22518 0.001517 0.22518 0.001526 0.22518 0.001534 0.22518 0.001543 0.22518 0.001552 0.22518 0.001561 0.22518 0.001572 0.22518 0.001591 0.22518 0.001608 0.22518 0.001626 0.22518 0.001641 0.22518 0.001657 0.22518 0.001671 0.22518 0.001711 0.22518 0.001824 0.22518 0.002019 0.22518 0.002085 0.22518 0.002146 0.22518 0.002178 0.22518 0.002217 0.22518 0.002297 0.22518 0.00233 0.22518 0.002339 0.22518 0.002342 0.22518 0.002347 0.22518 0.002351 0.22518 0.002368 0.22518 0.00242 0.22518 0.002426 0.22518 0.00243 0.22518 0.002435 0.22518 0.002417 0.22518 0.002401 0.22518 0.002409 0.22518 0.00242 0.22518 0.002429 0.22518 0.002675 0.22518 0.00268 0.22518 0.002682 0.22518 0.002687 0.22518 0.00269 0.22518 0.002693 0.22518 0.002697 0.22518 0.002708 0.22518 0.002725 0.22518 0.002744 0.22518 0.002763 0.22518 0.002912 0.22518 0.003366 0.22518 0.003698 0.22518 0.004017 0.22518 0.004336 0.22518 0.004594 0.22518 0.004851 0.22518 0.005108 0.22518 0.005461 0.22518 0.006357 0.22518 0.007828 0.22518 0.008039 0.22518 0.008299 0.22518 0.008665 0.22518 0.008877 0.22518 0.009004 0.22518 0.009126 0.22518 0.009187 0.22518 0.009211 0.22518 0.009235 0.22518 0.009259 0.22518 0.009293 0.22518 0.009331 0.22518 0.009386 0.22518 0.009459 0.22518 0.009523 0.22518 0.009574 0.22518 0.009624 0.22518 0.009653 0.22518 0.009681 0.22518 0.009709 0.22518 0.009738 0.22518 0.009768 0.22518 0.009798 0.22518 0.009992 0.22518 0.010156 0.22518 0.010615 0.22518 0.011238 0.22518 0.011316 0.22518 0.011362 0.22518 0.011464 0.22518 0.011502 0.22518 0.011543 0.22518 0.011636 0.22518 0.011671 0.22518 0.011707 0.22518 0.011776 0.22518 0.011864 0.22518 0.011888 0.22518 0.011913 0.22518 0.011938 0.22518 0.011963 0.22518 0.011988 0.22518 0.012012 0.22518 0.012034 0.22518 0.012058 0.22518 0.01208 0.22518 0.012104 0.22518 0.012127 0.22518 0.01217 0.22518 0.01256 0.22518 0.01263 0.22518 0.012747 0.22518 0.012859 0.22518 0.012911 0.22518 0.013 0.22518 0.013121 0.22518 0.013253 0.22518 0.013343 0.22518 0.013423 0.22518 0.013561 0.22518 0.013616 0.22518 0.013644 0.22518 0.013667 0.22518 0.013692 0.22518 0.013715 0.22518 0.01374 0.22518 0.013763 0.22518 0.013788 0.22518 0.013944 0.22518 0.013969 1.1259 0.069968 0.22518 0.014014 0.22518 0.014038 0.22518 0.014063 0.22518 0.014111 0.22518 0.01418 0.22518 0.014191 0.22518 0.014226 0.22518 0.014282 0.22518 0.014355 0.22518 0.01446 0.22518 0.014554 0.22518 0.014649 0.22518 0.014695 0.22518 0.01474 0.22518 0.014781 0.22518 0.014822 0.22518 0.014901 0.22518 0.014999 0.22518 0.015037 0.22518 0.015076 0.45036 0.0302 0.22518 0.015042 0.22518 0.015075 0.22518 0.015108 0.22518 0.015141 0.22518 0.015174 0.22518 0.015209 0.22518 0.015252 0.22518 0.015304 0.22518 0.01544 0.22518 0.015502 0.22518 0.015535 0.22518 0.015566 0.22518 0.015509 0.22518 0.015495 0.22518 0.015614 0.22518 0.01569 0.22518 0.01575 0.22518 0.0159 0.22518 0.016026 0.22518 0.016443 0.22518 0.016541 0.22518 0.016593 0.22518 0.016639 0.22518 0.016685 0.22518 0.016848 0.22518 0.016872 0.22518 0.016895 0.22518 0.01692 0.22518 0.016943 0.22518 0.016966 0.22518 0.01699 0.22518 0.017014 0.22518 0.017036 0.22518 0.017062 0.22518 0.017092 0.22518 0.017122 0.22518 0.017154 0.22518 0.017187 0.22518 0.017261 0.22518 0.017338 0.22518 0.017395 0.22518 0.017489 0.22518 0.017587 0.22518 0.017656 0.22518 0.017859 0.22518 0.017929 0.22518 0.017993 0.22518 0.018054 0.22518 0.018117 0.22518 0.018186 0.22518 0.018268 0.22518 0.018333 0.22518 0.01845 0.22518 0.018649 0.22518 0.018719 0.22518 0.018902 0.22518 0.019273 0.22518 0.01946 0.22518 0.019562 0.22518 0.019727 0.22518 0.019782 0.22518 0.019845 0.22518 0.019991 0.22518 0.020075 0.22518 0.020159 0.22518 0.020255 0.22518 0.020394 0.22518 0.020898 0.22518 0.021042 0.22518 0.021102 0.22518 0.021229 0.22518 0.021291 0.22518 0.021344 0.22518 0.021389 0.22518 0.021435 0.22518 0.021473 0.22518 0.021526 0.22518 0.021363 0.22518 0.021451 0.22518 0.021469 0.22518 0.021685 0.22518 0.021819 0.22518 0.022115 0.22518 0.022434 0.22518 0.022522 0.22518 0.022676 0.22518 0.022783 0.22518 0.02285 0.22518 0.022899 0.22518 0.022882 0.22518 0.022927 0.22518 0.022971 0.22518 0.023017 0.22518 0.023062 0.22518 0.023105 0.22518 0.023147 0.22518 0.023188 0.22518 0.023293 0.22518 0.023038 0.22518 0.023097 0.22518 0.023156 0.22518 0.023217 0.22518 0.023435 0.22518 0.023485 0.22518 0.023535 0.22518 0.023582 0.22518 0.023619 0.22518 0.023657 0.22518 0.023694 0.22518 0.023549 0.22518 0.022981 0.22518 0.022581 0.22518 0.02221 0.22518 0.021858 0.22518 0.02157 0.22518 0.021263 0.22518 0.020955 0.22518 0.020512 0.22518 0.019301 0.22518 0.017274 0.22518 0.017021 0.22518 0.016697 0.22518 0.016221 0.22518 0.015965 0.22518 0.015826 0.22518 0.015694 0.22518 0.015765 0.22518 0.015951 0.22518 0.016376 0.22518 0.01675 0.45036 0.03377 0.22518 0.016861 0.22518 0.016809 0.22518 0.016774 0.45036 0.033495 0.22518 0.016763 0.22518 0.016788 0.22518 0.016813 0.22518 0.016889 0.22518 0.016916 0.22518 0.016933 0.22518 0.016715 0.22518 0.016539 0.22518 0.015941 0.22518 0.015107 0.45036 0.030103 0.67554 0.044868 0.67554 0.044588 0.22518 0.014811 0.22518 0.014736 0.22518 0.014751 0.22518 0.014796 0.22518 0.014899 0.22518 0.014962 0.22518 0.014984 0.22518 0.015009 0.22518 0.015033 0.22518 0.01506 0.22518 0.015088 0.22518 0.015148 0.45036 0.030585 0.22518 0.014791 0.22518 0.014753 0.22518 0.014648 0.22518 0.014546 0.22518 0.014529 0.22518 0.014457 0.22518 0.014338 0.22518 0.014207 0.22518 0.014166 0.45036 0.028351 0.22518 0.014442 0.22518 0.014766 0.22518 0.014836 0.22518 0.01487 0.22518 0.014906 0.22518 0.014951 0.22518 0.015018 0.22518 0.015059 0.22518 0.014895 0.22518 0.014919 0.22518 0.014944 0.22518 0.014968 0.22518 0.015048 0.22518 0.015265 0.22518 0.015402 0.22518 0.01543 0.22518 0.01546 0.22518 0.015498 0.22518 0.015501 0.45036 0.030936 0.22518 0.015503 0.22518 0.015777 0.22518 0.015795 0.22518 0.01572 0.22518 0.015659 0.22518 0.015574 0.45036 0.031114 0.45036 0.031084 0.22518 0.015478 0.22518 0.015389 0.22518 0.015431 0.22518 0.015476 0.22518 0.015502 0.22518 0.015528 0.22518 0.015554 0.22518 0.015683 0.22518 0.015731 0.22518 0.01577 0.22518 0.015788 0.67554 0.047421 0.22518 0.015672 0.22518 0.015852 0.22518 0.015893 0.22518 0.015934 0.22518 0.016674 0.22518 0.016713 0.22518 0.016627 0.22518 0.016609 0.22518 0.016654 0.22518 0.016565 0.22518 0.01653 0.22518 0.016047 0.22518 0.015995 0.22518 0.016009 0.22518 0.016026 0.22518 0.016039 0.22518 0.015874 0.22518 0.015911 0.22518 0.015957 0.22518 0.016038 0.22518 0.016094 0.22518 0.016136 0.22518 0.016179 0.22518 0.016301 0.22518 0.016453 0.22518 0.016577 0.22518 0.016666 0.22518 0.016837 0.22518 0.017135 0.22518 0.017191 0.22518 0.017194 0.22518 0.017217 0.22518 0.017325 0.22518 0.01727 0.22518 0.01721 0.22518 0.017191 0.22518 0.016998 0.22518 0.017027 0.22518 0.017114 0.22518 0.017634 0.22518 0.018 0.22518 0.018035 0.22518 0.018037 0.22518 0.018061 0.22518 0.01801 0.22518 0.017792 0.22518 0.017761 0.22518 0.017567 0.22518 0.017037 0.22518 0.016801 0.22518 0.016718 0.22518 0.016549 0.22518 0.016537 0.22518 0.016515 0.22518 0.016372 0.22518 0.016317 0.22518 0.016264 0.22518 0.016193 0.22518 0.01606 0.22518 0.015398 0.22518 0.015255 0.22518 0.015222 0.22518 0.015088 0.22518 0.015056 0.45036 0.030067 0.22518 0.015044 0.22518 0.015025 0.22518 0.014848 0.22518 0.014828 0.22518 0.014812 0.22518 0.015207 0.22518 0.015022 0.22518 0.014874 0.22518 0.01441 0.22518 0.014005 0.22518 0.014778 0.22518 0.015655 0.22518 0.015859 0.22518 0.016276 0.22518 0.016574 0.22518 0.017079 0.22518 0.017329 0.22518 0.017496 0.22518 0.017625 0.22518 0.017767 0.22518 0.017848 0.22518 0.017888 0.22518 0.017928 0.22518 0.017878 0.22518 0.017883 0.22518 0.017912 0.22518 0.017954 0.22518 0.017996 0.22518 0.017816 0.22518 0.017904 0.22518 0.017978 0.22518 0.018024 0.22518 0.01807 0.22518 0.018115 0.22518 0.018162 0.22518 0.018316 0.22518 0.01838 0.22518 0.018443 0.22518 0.018486 0.22518 0.018504 0.22518 0.018549 0.22518 0.018593 0.22518 0.018631 0.22518 0.01867 0.22518 0.018708 0.22518 0.018747 0.22518 0.018786 0.22518 0.018825 0.22518 0.018864 0.22518 0.018904 0.22518 0.018947 0.22518 0.01899 0.22518 0.018869 0.22518 0.018661 0.22518 0.018115 0.22518 0.017643 0.22518 0.017541 0.22518 0.017833 0.22518 0.018162 0.22518 0.018327 0.22518 0.018494 0.22518 0.018673 0.22518 0.018833 0.22518 0.018888 0.22518 0.018928 0.22518 0.018948 0.22518 0.018892 0.22518 0.018905 0.22518 0.018932 0.22518 0.01896 0.22518 0.019026 0.22518 0.019249 0.22518 0.019556 0.22518 0.019621 0.22518 0.019742 0.22518 0.020053 0.22518 0.020085 0.22518 0.020117 0.22518 0.020149 0.22518 0.020182 0.22518 0.020214 0.22518 0.020248 0.22518 0.02028 0.45036 0.040615 0.22518 0.020209 0.22518 0.020173 0.22518 0.020196 0.22518 0.020218 0.22518 0.020242 0.22518 0.020264 0.22518 0.020284 0.22518 0.020296 0.22518 0.020189 0.22518 0.020263 0.22518 0.020472 0.22518 0.02067 0.22518 0.020737 0.22518 0.020808 0.22518 0.021032 0.22518 0.02117 0.22518 0.021256 0.22518 0.021332 0.22518 0.021352 0.22518 0.021316 0.22518 0.021162 0.22518 0.020771 0.22518 0.020356 0.22518 0.02032 0.22518 0.020332 0.45036 0.040688 0.22518 0.020309 0.22518 0.020316 0.22518 0.020339 0.22518 0.020365 0.22518 0.020389 0.22518 0.020514 0.22518 0.020492 0.22518 0.020242 0.22518 0.020102 1.3511 0.12067 0.22518 0.020091 0.22518 0.019699 0.22518 0.019642 0.22518 0.019657 0.22518 0.019669 0.22518 0.019709 0.22518 0.019748 0.22518 0.019787 0.22518 0.019828 0.22518 0.019868 0.22518 0.019907 0.22518 0.019939 0.22518 0.019904 0.22518 0.019861 0.22518 0.01987 0.22518 0.019877 0.22518 0.019886 0.22518 0.019743 0.22518 0.01972 0.22518 0.019705 0.22518 0.019724 0.22518 0.019742 0.22518 0.01976 0.22518 0.019779 0.22518 0.019798 0.45036 0.039028 0.22518 0.019497 0.22518 0.018459 0.22518 0.018506 0.22518 0.018582 0.22518 0.018566 0.22518 0.018497 0.22518 0.018425 0.22518 0.018334 0.45036 0.036536 0.22518 0.018253 0.22518 0.018255 0.22518 0.018265 0.22518 0.018273 0.45036 0.036559 0.22518 0.018221 0.22518 0.018202 0.45036 0.036409 0.22518 0.01809 0.22518 0.017929 0.22518 0.017808 0.22518 0.017726 0.22518 0.017527 0.22518 0.017135 0.22518 0.017105 0.22518 0.017065 0.22518 0.016986 0.22518 0.016828 0.22518 0.017142 0.22518 0.017148 0.22518 0.017154 0.22518 0.017128 0.22518 0.017064 0.22518 0.016927 0.22518 0.016152 0.22518 0.015605 0.22518 0.015539 0.22518 0.015494 0.22518 0.015451 0.22518 0.015719 0.22518 0.016017 0.22518 0.016142 0.22518 0.016251 0.22518 0.016319 0.22518 0.016381 0.22518 0.016444 0.22518 0.0165 0.22518 0.016531 0.22518 0.01656 0.22518 0.016591 0.22518 0.016621 0.22518 0.016651 0.22518 0.016682 0.22518 0.016713 0.22518 0.016743 0.22518 0.016775 0.22518 0.016805 0.22518 0.016837 0.22518 0.016867 0.22518 0.016899 1.1259 0.084655 0.22518 0.016744 0.22518 0.016111 0.67554 0.047969 0.22518 0.015975 0.22518 0.014787 0.22518 0.013299 0.22518 0.012912 0.22518 0.012304 0.22518 0.012186 0.22518 0.011487 0.22518 0.011166 0.22518 0.010968 0.22518 0.01083 0.22518 0.010667 0.45036 0.021192 0.45036 0.021161 0.45036 0.021127 0.22518 0.010527 0.22518 0.010582 0.22518 0.010626 0.22518 0.010574 0.22518 0.010546 0.22518 0.010558 0.22518 0.010571 0.22518 0.010582 0.22518 0.010592 0.22518 0.010444 0.22518 0.010431 0.22518 0.010582 0.22518 0.010711 0.22518 0.010681 0.22518 0.010653 0.22518 0.010661 0.22518 0.01068 0.22518 0.010698 0.22518 0.010718 0.22518 0.010756 0.22518 0.010792 0.22518 0.010831 0.22518 0.010875 0.22518 0.01093 0.22518 0.010984 0.22518 0.011441 0.22518 0.01157 0.22518 0.011644 0.22518 0.011852 0.22518 0.011907 0.22518 0.011881 0.22518 0.011554 0.22518 0.011173 0.22518 0.011025 0.22518 0.010849 0.22518 0.01063 0.22518 0.010428 0.22518 0.010368 0.45036 0.020647 0.22518 0.010307 0.45036 0.020579 0.22518 0.010273 0.22518 0.010208 0.22518 0.009919 0.22518 0.00951 0.22518 0.009447 0.22518 0.0093 0.22518 0.008891 0.22518 0.008895 0.22518 0.008899 0.22518 0.008905 0.22518 0.008909 0.22518 0.008914 0.22518 0.008919 0.22518 0.008924 0.22518 0.009003 0.22518 0.009101 0.22518 0.009197 0.22518 0.009338 0.22518 0.00953 0.22518 0.009624 0.22518 0.010098 0.22518 0.010222 0.22518 0.010261 0.22518 0.010247 0.22518 0.010233 0.22518 0.010197 0.22518 0.01006 0.22518 0.009927 0.22518 0.009965 0.22518 0.010087 0.22518 0.009946 0.22518 0.010241 0.45036 0.020449 0.22518 0.01033 0.22518 0.010396 0.22518 0.010448 0.22518 0.010511 0.22518 0.010545 0.22518 0.01058 0.22518 0.010616 0.22518 0.010651 0.22518 0.010686 0.22518 0.010719 0.22518 0.010752 0.22518 0.010785 0.22518 0.010819 0.22518 0.010897 0.22518 0.010911 0.22518 0.010925 0.22518 0.010975 0.22518 0.011069 0.22518 0.011281 0.22518 0.011382 0.22518 0.011395 0.22518 0.011407 1.1259 0.057093 0.22518 0.011576 0.22518 0.011703 0.22518 0.012039 0.22518 0.012178 0.22518 0.012218 0.22518 0.012259 0.22518 0.012315 0.22518 0.012428 0.22518 0.012524 0.22518 0.012611 0.22518 0.012777 0.22518 0.012958 0.22518 0.013084 0.22518 0.013309 0.22518 0.013401 0.22518 0.013492 0.22518 0.013556 0.22518 0.013619 0.22518 0.013684 0.22518 0.013732 0.22518 0.013769 0.22518 0.013806 0.22518 0.013844 0.22518 0.013882 0.22518 0.01392 0.22518 0.013958 0.22518 0.014504 0.22518 0.014903 0.22518 0.015129 0.22518 0.01544 0.22518 0.015766 0.22518 0.015875 0.22518 0.015941 0.22518 0.016009 0.22518 0.016163 0.22518 0.016336 0.22518 0.016446 0.22518 0.016549 0.22518 0.016651 0.22518 0.017103 0.22518 0.017301 0.22518 0.017378 0.22518 0.017416 0.22518 0.017454 0.22518 0.017491 0.22518 0.01753 0.22518 0.017569 0.22518 0.017607 0.22518 0.017645 0.22518 0.017713 0.22518 0.017845 0.22518 0.018147 0.22518 0.018217 0.22518 0.018288 0.22518 0.017949 0.22518 0.01818 0.22518 0.018548 0.22518 0.0193 0.22518 0.019483 0.22518 0.020062 0.22518 0.020384 0.22518 0.020764 0.22518 0.020883 0.22518 0.020957 0.22518 0.021032 0.22518 0.020702 0.22518 0.02041 0.22518 0.02034 0.22518 0.020292 0.22518 0.020298 0.22518 0.020313 0.22518 0.020327 0.22518 0.02035 0.22518 0.020417 0.22518 0.020482 0.22518 0.020549 0.22518 0.020616 0.22518 0.020683 0.22518 0.020796 0.22518 0.020927 0.22518 0.02106 0.22518 0.021193 0.22518 0.021286 0.22518 0.021338 0.22518 0.02139 0.22518 0.021443 0.22518 0.021497 0.22518 0.021549 0.22518 0.021601 0.22518 0.021654 0.22518 0.021706 0.22518 0.02176 0.22518 0.021907 0.22518 0.022072 0.22518 0.023104 0.22518 0.023395 0.22518 0.023615 0.22518 0.024029 0.22518 0.024169 0.22518 0.024309 0.22518 0.024359 0.22518 0.023985 0.22518 0.02404 0.22518 0.024095 0.22518 0.02415 0.22518 0.024205 0.22518 0.024261 0.22518 0.024316 0.22518 0.024373 0.22518 0.024429 0.22518 0.024486 0.22518 0.024543 0.22518 0.0246 0.22518 0.024681 0.45036 0.049307 0.22518 0.024708 0.22518 0.024785 0.22518 0.024895 0.22518 0.025175 0.22518 0.025536 0.22518 0.025858 0.22518 0.026051 0.22518 0.026223 0.22518 0.026341 0.22518 0.026286 0.22518 0.026381 0.22518 0.026423 0.22518 0.026467 0.22518 0.02651 0.22518 0.026553 0.22518 0.026595 0.22518 0.026611 0.22518 0.026628 0.22518 0.026645 0.45036 0.053294 0.22518 0.026629 0.22518 0.026047 0.22518 0.025925 0.22518 0.025882 0.22518 0.025649 0.22518 0.02563 0.22518 0.025613 0.22518 0.025655 0.22518 0.025733 0.22518 0.025804 0.22518 0.02588 0.22518 0.025993 0.22518 0.026108 0.22518 0.026223 0.22518 0.026314 0.22518 0.0264 0.22518 0.026486 0.22518 0.026573 0.22518 0.02666 0.22518 0.026748 0.22518 0.026835 0.22518 0.026925 0.22518 0.027014 0.22518 0.027178 0.22518 0.02735 0.22518 0.027529 0.22518 0.027717 0.22518 0.027901 0.22518 0.028076 0.22518 0.028253 0.22518 0.028395 0.22518 0.028536 0.22518 0.028678 0.22518 0.029008 0.22518 0.029374 0.22518 0.029742 0.22518 0.029784 0.22518 0.030077 0.22518 0.030431 0.22518 0.029919 0.22518 0.02993 0.22518 0.03004 0.22518 0.030152 0.22518 0.030265 0.22518 0.030404 0.45036 0.060857 0.22518 0.030387 0.22518 0.030222 0.22518 0.030135 0.22518 0.029561 0.22518 0.029573 0.22518 0.029585 0.22518 0.029449 0.22518 0.029374 0.22518 0.029434 0.22518 0.029504 0.22518 0.029617 0.22518 0.029727 0.22518 0.029832 0.22518 0.029938 0.22518 0.030046 0.22518 0.030186 0.22518 0.030328 0.22518 0.030637 0.22518 0.031711 0.22518 0.031783 0.22518 0.031741 0.22518 0.031987 0.22518 0.032181 0.22518 0.03222 0.22518 0.032068 0.22518 0.032386 0.22518 0.032568 0.22518 0.03275 0.22518 0.032897 0.22518 0.033044 0.22518 0.033191 0.22518 0.033339 0.22518 0.033468 0.22518 0.033327 0.22518 0.033255 0.22518 0.032844 0.22518 0.032756 0.22518 0.032849 0.22518 0.032958 0.45036 0.066082 0.22518 0.033195 0.22518 0.033325 0.22518 0.033278 0.22518 0.033207 0.22518 0.033174 0.67554 0.098827 0.22518 0.032983 0.22518 0.033026 0.22518 0.033069 0.22518 0.033142 0.22518 0.033232 0.22518 0.033323 0.22518 0.033436 0.22518 0.03356 0.22518 0.033685 0.22518 0.033811 0.22518 0.03293 0.22518 0.032291 0.22518 0.032174 0.22518 0.031898 0.22518 0.031572 0.22518 0.031621 0.22518 0.03178 0.45036 0.063916 0.22518 0.031897 0.22518 0.031951 0.22518 0.032067 0.22518 0.032198 0.22518 0.032246 0.22518 0.032485 0.22518 0.033521 0.22518 0.033861 0.22518 0.034383 0.22518 0.034661 0.22518 0.034896 0.22518 0.035092 0.22518 0.035291 0.22518 0.035479 0.22518 0.035606 0.22518 0.035622 0.22518 0.035331 0.22518 0.035908 0.22518 0.036235 0.22518 0.036411 0.22518 0.036288 0.22518 0.035863 0.22518 0.034736 0.22518 0.034638 0.22518 0.033823 0.22518 0.033573 0.22518 0.033644 0.22518 0.033727 0.22518 0.033892 0.22518 0.034784 0.22518 0.036156 0.22518 0.03646 0.22518 0.03663 0.22518 0.036802 0.22518 0.036975 0.22518 0.037129 0.22518 0.037256 0.22518 0.037382 0.22518 0.037495 0.22518 0.037609 0.22518 0.037724 0.22518 0.037839 0.22518 0.037956 0.22518 0.039866 0.22518 0.04083 0.22518 0.041382 0.22518 0.042065 0.22518 0.042531 0.22518 0.042948 0.22518 0.043308 0.22518 0.043659 0.22518 0.044065 0.22518 0.044846 0.22518 0.045205 0.22518 0.045566 0.22518 0.045805 0.22518 0.046045 0.22518 0.046107 0.22518 0.046133 0.22518 0.044486 0.22518 0.044676 0.22518 0.044611 0.22518 0.044165 0.22518 0.044255 0.22518 0.044345 0.22518 0.044631 0.22518 0.044957 0.22518 0.045288 0.22518 0.045626 0.22518 0.045969 0.22518 0.04637 0.22518 0.046942 0.22518 0.047184 0.22518 0.047428 0.22518 0.047675 0.22518 0.047925 0.22518 0.048176 0.22518 0.048431 0.22518 0.04864 0.22518 0.04928 0.22518 0.050139 0.22518 0.051117 0.22518 0.051682 0.22518 0.052166 0.22518 0.051951 0.22518 0.051573 0.22518 0.051278 0.22518 0.051243 0.22518 0.051257 0.22518 0.051151 0.22518 0.05147 0.22518 0.051831 0.22518 0.052258 0.22518 0.052622 0.22518 0.05299 0.22518 0.053362 0.22518 0.053777 0.22518 0.054296 0.22518 0.054769 0.22518 0.055124 0.22518 0.055482 0.22518 0.055845 0.22518 0.056212 0.22518 0.056584 0.22518 0.057014 0.22518 0.057535 0.22518 0.058185 0.22518 0.059192 0.22518 0.059842 0.22518 0.060541 0.22518 0.060798 0.22518 0.061072 0.22518 0.06143 0.22518 0.061794 0.22518 0.062491 0.22518 0.063067 0.22518 0.063546 0.22518 0.064046 0.22518 0.064544 0.22518 0.065033 0.22518 0.065528 0.22518 0.06603 0.22518 0.066529 0.22518 0.067011 0.22518 0.067497 0.22518 0.067815 0.22518 0.068126 0.22518 0.068422 0.22518 0.069045 0.22518 0.069655 0.22518 0.070262v44.105h-401.5z" stroke="#0766aa" stroke-opacity=".2"/>
</defs>
<g clip-path="url(#k)">
<use y="413.19625" fill="#0766aa" fill-opacity=".2" stroke="#0766aa" stroke-opacity=".2" xlink:href="#af"/>
</g>
<path d="m40.603 170.63v-141.83" clip-path="url(#k)" fill="none" stroke="#b0b0b0" stroke-linecap="square" stroke-width=".8"/>
<defs>
<path id="g" d="m0 0v3.5" stroke="#000" stroke-width=".8"/>
</defs>
<use x="40.603125" y="170.627393" stroke="#000000" stroke-width=".8" xlink:href="#g"/>
<path d="m186.03 170.63v-141.83" clip-path="url(#k)" fill="none" stroke="#b0b0b0" stroke-linecap="square" stroke-width=".8"/>
<use x="186.031855" y="170.627393" stroke="#000000" stroke-width=".8" xlink:href="#g"/>
<path d="m331.46 170.63v-141.83" clip-path="url(#k)" fill="none" stroke="#b0b0b0" stroke-linecap="square" stroke-width=".8"/>
<use x="331.460586" y="170.627393" stroke="#000000" stroke-width=".8" xlink:href="#g"/>
<path d="m476.89 170.63v-141.83" clip-path="url(#k)" fill="none" stroke="#b0b0b0" stroke-linecap="square" stroke-width=".8"/>
<use x="476.889316" y="170.627393" stroke="#000000" stroke-width=".8" xlink:href="#g"/>
<defs>
<path id="c" d="m0 0h-3.5" stroke="#000" stroke-width=".8"/>
</defs>
<use x="40.603125" y="154.105211" stroke="#000000" stroke-width=".8" xlink:href="#c"/>
<defs>
<path id="d" d="m12.406 8.2969h16.109v55.625l-17.531-3.5156v8.9844l17.438 3.5156h9.8594v-64.609h16.109v-8.2969h-41.984z"/>
<path id="e" d="m31.781 66.406q-7.6094 0-11.453-7.5-3.8281-7.4844-3.8281-22.531 0-14.984 3.8281-22.484 3.8438-7.5 11.453-7.5 7.6719 0 11.5 7.5 3.8438 7.5 3.8438 22.484 0 15.047-3.8438 22.531-3.8281 7.5-11.5 7.5zm0 7.8125q12.266 0 18.734-9.7031 6.4688-9.6875 6.4688-28.141 0-18.406-6.4688-28.109-6.4688-9.6875-18.734-9.6875-12.25 0-18.719 9.6875-6.4688 9.7031-6.4688 28.109 0 18.453 6.4688 28.141 6.4688 9.7031 18.719 9.7031z"/>
</defs>
<g transform="translate(16.003 157.9) scale(.1 -.1)">
<use transform="translate(0 .68438)" xlink:href="#d"/>
<use transform="translate(63.623 .68438)" xlink:href="#e"/>
<use transform="translate(128.2 38.966) scale(.7)" xlink:href="#d"/>
</g>
<use x="40.603125" y="130.467312" stroke="#000000" stroke-width=".8" xlink:href="#c"/>
<defs>
<path id="o" d="m19.188 8.2969h34.422v-8.2969h-46.281v8.2969q5.6094 5.8125 15.297 15.594 9.7031 9.7969 12.188 12.641 4.7344 5.3125 6.6094 9 1.8906 3.6875 1.8906 7.25 0 5.8125-4.0781 9.4688-4.0781 3.6719-10.625 3.6719-4.6406 0-9.7969-1.6094-5.1406-1.6094-11-4.8906v9.9688q5.9531 2.3906 11.125 3.6094 5.1875 1.2188 9.4844 1.2188 11.328 0 18.062-5.6719 6.7344-5.6562 6.7344-15.125 0-4.5-1.6875-8.5312-1.6719-4.0156-6.125-9.4844-1.2188-1.4219-7.7656-8.1875-6.5312-6.7656-18.453-18.922z"/>
</defs>
<g transform="translate(16.003 134.27) scale(.1 -.1)">
<use transform="translate(0 .76562)" xlink:href="#d"/>
<use transform="translate(63.623 .76562)" xlink:href="#e"/>
<use transform="translate(128.2 39.047) scale(.7)" xlink:href="#o"/>
</g>
<use x="40.603125" y="106.829413" stroke="#000000" stroke-width=".8" xlink:href="#c"/>
<defs>
<path id="ad" d="m40.578 39.312q7.0781-1.5156 11.047-6.3125 3.9844-4.7812 3.9844-11.812 0-10.781-7.4219-16.703-7.4219-5.9062-21.094-5.9062-4.5781 0-9.4375 0.90625t-10.031 2.7188v9.5156q4.0938-2.3906 8.9688-3.6094 4.8906-1.2188 10.219-1.2188 9.2656 0 14.125 3.6562t4.8594 10.641q0 6.4531-4.5156 10.078-4.5156 3.6406-12.562 3.6406h-8.5v8.1094h8.8906q7.2656 0 11.125 2.9062t3.8594 8.375q0 5.6094-3.9844 8.6094-3.9688 3.0156-11.391 3.0156-4.0625 0-8.7031-0.89062-4.6406-0.875-10.203-2.7188v8.7812q5.625 1.5625 10.531 2.3438t9.25 0.78125q11.234 0 17.766-5.1094 6.5469-5.0938 6.5469-13.781 0-6.0625-3.4688-10.234t-9.8594-5.7812z"/>
</defs>
<g transform="translate(16.003 110.63) scale(.1 -.1)">
<use transform="translate(0 .76562)" xlink:href="#d"/>
<use transform="translate(63.623 .76562)" xlink:href="#e"/>
<use transform="translate(128.2 39.047) scale(.7)" xlink:href="#ad"/>
</g>
<use x="40.603125" y="83.191514" stroke="#000000" stroke-width=".8" xlink:href="#c"/>
<defs>
<path id="ac" d="m37.797 64.312-24.906-38.922h24.906zm-2.5938 8.5938h12.406v-47.516h10.406v-8.2031h-10.406v-17.188h-9.8125v17.188h-32.906v9.5156z"/>
</defs>
<g transform="translate(16.003 86.991) scale(.1 -.1)">
<use transform="translate(0 .68438)" xlink:href="#d"/>
<use transform="translate(63.623 .68438)" xlink:href="#e"/>
<use transform="translate(128.2 38.966) scale(.7)" xlink:href="#ac"/>
</g>
<use x="40.603125" y="59.553615" stroke="#000000" stroke-width=".8" xlink:href="#c"/>
<defs>
<path id="ab" d="m10.797 72.906h38.719v-8.3125h-29.688v-17.859q2.1406 0.73438 4.2812 1.0938 2.1562 0.35938 4.3125 0.35938 12.203 0 19.328-6.6875 7.1406-6.6875 7.1406-18.109 0-11.766-7.3281-18.297-7.3281-6.5156-20.656-6.5156-4.5938 0-9.3594 0.78125-4.75 0.78125-9.8281 2.3438v9.9219q4.3906-2.3906 9.0781-3.5625t9.9062-1.1719q8.4531 0 13.375 4.4375 4.9375 4.4375 4.9375 12.062 0 7.6094-4.9375 12.047-4.9219 4.4531-13.375 4.4531-3.9531 0-7.8906-0.875-3.9219-0.875-8.0156-2.7344z"/>
</defs>
<g transform="translate(16.003 63.353) scale(.1 -.1)">
<use transform="translate(0 .68438)" xlink:href="#d"/>
<use transform="translate(63.623 .68438)" xlink:href="#e"/>
<use transform="translate(128.2 38.966) scale(.7)" xlink:href="#ab"/>
</g>
<use x="40.603125" y="35.915717" stroke="#000000" stroke-width=".8" xlink:href="#c"/>
<defs>
<path id="aa" d="m33.016 40.375q-6.6406 0-10.531-4.5469-3.875-4.5312-3.875-12.438 0-7.8594 3.875-12.438 3.8906-4.5625 10.531-4.5625t10.516 4.5625q3.875 4.5781 3.875 12.438 0 7.9062-3.875 12.438-3.875 4.5469-10.516 4.5469zm19.578 30.922v-8.9844q-3.7188 1.75-7.5 2.6719-3.7812 0.9375-7.5 0.9375-9.7656 0-14.922-6.5938-5.1406-6.5938-5.875-19.922 2.875 4.25 7.2188 6.5156 4.3594 2.2656 9.5781 2.2656 10.984 0 17.359-6.6719 6.375-6.6562 6.375-18.125 0-11.234-6.6406-18.031-6.6406-6.7812-17.672-6.7812-12.656 0-19.344 9.6875-6.6875 9.7031-6.6875 28.109 0 17.281 8.2031 27.562t22.016 10.281q3.7188 0 7.5-0.73438t7.8906-2.1875z"/>
</defs>
<g transform="translate(16.003 39.715) scale(.1 -.1)">
<use transform="translate(0 .76562)" xlink:href="#d"/>
<use transform="translate(63.623 .76562)" xlink:href="#e"/>
<use transform="translate(128.2 39.047) scale(.7)" xlink:href="#aa"/>
</g>
<defs>
<path id="a" d="m0 0h-2" stroke="#000" stroke-width=".6"/>
</defs>
<use x="40.603125" y="170.627393" stroke="#000000" stroke-width=".6" xlink:href="#a"/>
<use x="40.603125" y="166.464966" stroke="#000000" stroke-width=".6" xlink:href="#a"/>
<use x="40.603125" y="163.511677" stroke="#000000" stroke-width=".6" xlink:href="#a"/>
<use x="40.603125" y="161.220927" stroke="#000000" stroke-width=".6" xlink:href="#a"/>
<use x="40.603125" y="159.349249" stroke="#000000" stroke-width=".6" xlink:href="#a"/>
<use x="40.603125" y="157.766768" stroke="#000000" stroke-width=".6" xlink:href="#a"/>
<use x="40.603125" y="156.39596" stroke="#000000" stroke-width=".6" xlink:href="#a"/>
<use x="40.603125" y="155.186822" stroke="#000000" stroke-width=".6" xlink:href="#a"/>
<use x="40.603125" y="146.989494" stroke="#000000" stroke-width=".6" xlink:href="#a"/>
<use x="40.603125" y="142.827067" stroke="#000000" stroke-width=".6" xlink:href="#a"/>
<use x="40.603125" y="139.873778" stroke="#000000" stroke-width=".6" xlink:href="#a"/>
<use x="40.603125" y="137.583029" stroke="#000000" stroke-width=".6" xlink:href="#a"/>
<use x="40.603125" y="135.71135" stroke="#000000" stroke-width=".6" xlink:href="#a"/>
<use x="40.603125" y="134.128869" stroke="#000000" stroke-width=".6" xlink:href="#a"/>
<use x="40.603125" y="132.758061" stroke="#000000" stroke-width=".6" xlink:href="#a"/>
<use x="40.603125" y="131.548923" stroke="#000000" stroke-width=".6" xlink:href="#a"/>
<use x="40.603125" y="123.351595" stroke="#000000" stroke-width=".6" xlink:href="#a"/>
<use x="40.603125" y="119.189168" stroke="#000000" stroke-width=".6" xlink:href="#a"/>
<use x="40.603125" y="116.235879" stroke="#000000" stroke-width=".6" xlink:href="#a"/>
<use x="40.603125" y="113.94513" stroke="#000000" stroke-width=".6" xlink:href="#a"/>
<use x="40.603125" y="112.073451" stroke="#000000" stroke-width=".6" xlink:href="#a"/>
<use x="40.603125" y="110.49097" stroke="#000000" stroke-width=".6" xlink:href="#a"/>
<use x="40.603125" y="109.120162" stroke="#000000" stroke-width=".6" xlink:href="#a"/>
<use x="40.603125" y="107.911024" stroke="#000000" stroke-width=".6" xlink:href="#a"/>
<use x="40.603125" y="99.713697" stroke="#000000" stroke-width=".6" xlink:href="#a"/>
<use x="40.603125" y="95.551269" stroke="#000000" stroke-width=".6" xlink:href="#a"/>
<use x="40.603125" y="92.59798" stroke="#000000" stroke-width=".6" xlink:href="#a"/>
<use x="40.603125" y="90.307231" stroke="#000000" stroke-width=".6" xlink:href="#a"/>
<use x="40.603125" y="88.435553" stroke="#000000" stroke-width=".6" xlink:href="#a"/>
<use x="40.603125" y="86.853071" stroke="#000000" stroke-width=".6" xlink:href="#a"/>
<use x="40.603125" y="85.482263" stroke="#000000" stroke-width=".6" xlink:href="#a"/>
<use x="40.603125" y="84.273125" stroke="#000000" stroke-width=".6" xlink:href="#a"/>
<use x="40.603125" y="76.075798" stroke="#000000" stroke-width=".6" xlink:href="#a"/>
<use x="40.603125" y="71.91337" stroke="#000000" stroke-width=".6" xlink:href="#a"/>
<use x="40.603125" y="68.960081" stroke="#000000" stroke-width=".6" xlink:href="#a"/>
<use x="40.603125" y="66.669332" stroke="#000000" stroke-width=".6" xlink:href="#a"/>
<use x="40.603125" y="64.797654" stroke="#000000" stroke-width=".6" xlink:href="#a"/>
<use x="40.603125" y="63.215172" stroke="#000000" stroke-width=".6" xlink:href="#a"/>
<use x="40.603125" y="61.844365" stroke="#000000" stroke-width=".6" xlink:href="#a"/>
<use x="40.603125" y="60.635226" stroke="#000000" stroke-width=".6" xlink:href="#a"/>
<use x="40.603125" y="52.437899" stroke="#000000" stroke-width=".6" xlink:href="#a"/>
<use x="40.603125" y="48.275471" stroke="#000000" stroke-width=".6" xlink:href="#a"/>
<use x="40.603125" y="45.322182" stroke="#000000" stroke-width=".6" xlink:href="#a"/>
<use x="40.603125" y="43.031433" stroke="#000000" stroke-width=".6" xlink:href="#a"/>
<use x="40.603125" y="41.159755" stroke="#000000" stroke-width=".6" xlink:href="#a"/>
<use x="40.603125" y="39.577273" stroke="#000000" stroke-width=".6" xlink:href="#a"/>
<use x="40.603125" y="38.206466" stroke="#000000" stroke-width=".6" xlink:href="#a"/>
<use x="40.603125" y="36.997328" stroke="#000000" stroke-width=".6" xlink:href="#a"/>
<use x="40.603125" y="28.8" stroke="#000000" stroke-width=".6" xlink:href="#a"/>
<path d="m65.055 131.17 2.9273 0.79525 2.2518 0.84223 2.0266 1.0021 1.8014 1.1402 1.5762 1.2516 1.3511 1.3257 1.3511 1.648 1.1259 1.719 1.1259 2.1535 0.90071 2.1914 0.90071 2.8503 0.67554 2.8272 0.67554 3.7831 0.45036 2.4849 0.90071 2.1447 3.828 3.5007 1.5762 1.1487 0.67554 0.23341 0.67554-0.014629 3.1525-0.90613 4.7287-1.6175 1.8014-0.74426 2.0266-1.1105 4.9539-2.884 2.477-1.0559 2.7021-0.90874 2.9273-0.75032 3.1525-0.57632 3.3777-0.37954 3.3777-0.14688 3.828 0.080443 3.828 0.29484 15.087 1.5802 2.0266-0.056887 2.7021-0.31498 3.1525-0.41934 3.3777-0.22716 3.6029-0.014746 3.6029 0.20847 3.6029 0.43415 3.3777 0.6274 3.6029 0.91248 4.5036 1.3707 11.259 3.6263 2.0266 0.27862 1.8014 0.045759 2.0266-0.18785 6.0798-0.89353 4.2784-2.741 2.2518-1.0227 2.477-0.88357 2.7021-0.73338 2.9273-0.57029 3.1525-0.39001 3.3777-0.18512 3.3777 0.045315 3.3777 0.27781 5.1791 0.49658 2.2518-0.18115 6.0798-0.49737 4.5036-0.16573 3.6029-0.062921 3.1525-0.70535 3.3777-0.52096 3.3777-0.30312 3.6029-0.095211 3.3777 0.12929 2.9273 0.32416 2.9273 0.55308 2.7021 0.74713 2.477 0.92919 2.2518 1.0921 2.2518 1.021 2.0266 0.65409 4.9539 1.3099 3.3777 0.66089 2.9273 0.35799 0.90071-0.06839 0.90071-0.29984 2.7021-1.1467 3.1525-1.0856 3.6029-0.98843 4.0532-0.8653 4.5036-0.7205 3.828-0.39079 2.9273-0.11473 2.7021 0.11957 2.7021 0.33789 2.7021 0.5672 2.477 0.74445 2.2518 0.89536 2.0266 1.0228 2.0266 1.2835 1.8014 1.4292 1.5762 1.5546 1.3511 1.6476 2.0266 2.6156 0.90071 0.70466 2.477 1.9406 2.2518 2.0637 2.0266 2.1623 1.8014 2.2281 1.8014 2.5976 1.5762 2.6677 1.3511 2.6739 1.3511 3.1536 1.1259 3.1261 1.1259 3.7633 0.90071 3.6657 0.90071 4.535 0.90071 5.9214 0.67554 6.0075 0.67554 8.6373 0.45036 8.9069 0.22518 6.5642 0.22518 9.8288 0.22518 20.994 0.1133 145.52v0" clip-path="url(#k)" fill="none" stroke="#dc143c" stroke-linecap="square" stroke-width="1.5"/>
<path d="m40.603 170.63v-141.83" fill="none" stroke="#000" stroke-linecap="square" stroke-width=".8"/>
<path d="m486.62 170.63v-141.83" fill="none" stroke="#000" stroke-linecap="square" stroke-width=".8"/>
<path d="m40.603 170.63h446.02" fill="none" stroke="#000" stroke-linecap="square" stroke-width=".8"/>
<path d="m40.603 28.8h446.02" fill="none" stroke="#000" stroke-linecap="square" stroke-width=".8"/>
<path d="m324.59 66.156h155.04q2 0 2-2v-28.356q0-2-2-2h-155.04q-2 0-2 2v28.356q0 2 2 2z" fill="#fff" opacity=".8" stroke="#ccc"/>
<path d="m326.59 41.898h20" fill="none" stroke="#dc143c" stroke-linecap="square" stroke-width="1.5"/>
<defs>
<path id="h" d="m41.109 46.297q-1.5156 0.875-3.2969 1.2812-1.7812 0.42188-3.9219 0.42188-7.625 0-11.703-4.9531t-4.0781-14.234v-28.812h-9.0312v54.688h9.0312v-8.5q2.8438 4.9844 7.375 7.3906 4.5469 2.4219 11.047 2.4219 0.92188 0 2.0469-0.125 1.125-0.10938 2.4844-0.35938z"/>
<path id="i" d="m34.281 27.484q-10.891 0-15.094-2.4844t-4.2031-8.5q0-4.7812 3.1562-7.5938 3.1562-2.7969 8.5625-2.7969 7.4844 0 12 5.2969t4.5156 14.078v2zm17.922 3.7188v-31.203h-8.9844v8.2969q-3.0781-4.9688-7.6719-7.3438t-11.234-2.375q-8.3906 0-13.359 4.7188-4.9531 4.7188-4.9531 12.625 0 9.2188 6.1719 13.906 6.1875 4.6875 18.438 4.6875h12.609v0.89062q0 6.2031-4.0781 9.5938t-11.453 3.3906q-4.6875 0-9.1406-1.125-4.4375-1.125-8.5312-3.375v8.3125q4.9219 1.9062 9.5625 2.8438 4.6406 0.95312 9.0312 0.95312 11.875 0 17.734-6.1562 5.8594-6.1406 5.8594-18.641z"/>
<path id="q" d="m18.312 70.219v-15.531h18.5v-6.9844h-18.5v-29.688q0-6.6875 1.8281-8.5938t7.4531-1.9062h9.2188v-7.5156h-9.2188q-10.406 0-14.359 3.875-3.9531 3.8906-3.9531 14.141v29.688h-6.5938v6.9844h6.5938v15.531z"/>
<path id="b" d="m56.203 29.594v-4.3906h-41.312q0.59375-9.2812 5.5938-14.141t13.938-4.8594q5.1719 0 10.031 1.2656t9.6562 3.8125v-8.5q-4.8438-2.0469-9.9219-3.125t-10.297-1.0781q-13.094 0-20.734 7.6094-7.6406 7.625-7.6406 20.625 0 13.422 7.25 21.297 7.25 7.8906 19.562 7.8906 11.031 0 17.453-7.1094 6.4219-7.0938 6.4219-19.297zm-8.9844 2.6406q-0.09375 7.3594-4.125 11.75-4.0312 4.4062-10.672 4.4062-7.5156 0-12.031-4.25t-5.2031-11.969z"/>
<path id="l" d="m30.609 48.391q-7.2188 0-11.422-5.6406t-4.2031-15.453 4.1719-15.453q4.1875-5.6406 11.453-5.6406 7.1875 0 11.375 5.6562 4.2031 5.6719 4.2031 15.438 0 9.7188-4.2031 15.406-4.1875 5.6875-11.375 5.6875zm0 7.6094q11.719 0 18.406-7.625 6.7031-7.6094 6.7031-21.078 0-13.422-6.7031-21.078-6.6875-7.6406-18.406-7.6406-11.766 0-18.438 7.6406-6.6562 7.6562-6.6562 21.078 0 13.469 6.6562 21.078 6.6719 7.625 18.438 7.625z"/>
<path id="x" d="m37.109 75.984v-7.4844h-8.5938q-4.8281 0-6.7188-1.9531-1.875-1.9531-1.875-7.0312v-4.8281h14.797v-6.9844h-14.797v-47.703h-9.0312v47.703h-8.5938v6.9844h8.5938v3.8125q0 9.125 4.25 13.297 4.25 4.1875 13.469 4.1875z"/>
<path id="m" d="m9.4219 54.688h8.9844v-54.688h-8.9844zm0 21.297h8.9844v-11.391h-8.9844z"/>
<path id="r" d="m9.4219 75.984h8.9844v-75.984h-8.9844z"/>
<path id="u" d="m8.5 21.578v33.109h8.9844v-32.766q0-7.7656 3.0156-11.656 3.0312-3.875 9.0938-3.875 7.2656 0 11.484 4.6406 4.2344 4.6406 4.2344 12.656v31h8.9844v-54.688h-8.9844v8.4062q-3.2656-4.9844-7.5938-7.4062-4.3125-2.4219-10.031-2.4219-9.4219 0-14.312 5.8594-4.875 5.8594-4.875 17.141zm22.609 34.422z"/>
<path id="j" d="m44.281 53.078v-8.5q-3.7969 1.9531-7.9062 2.9219-4.0938 0.98438-8.5 0.98438-6.6875 0-10.031-2.0469t-3.3438-6.1562q0-3.125 2.3906-4.9062t9.625-3.3906l3.0781-0.6875q9.5625-2.0469 13.594-5.7812t4.0312-10.422q0-7.625-6.0312-12.078-6.0312-4.4375-16.578-4.4375-4.3906 0-9.1562 0.85938t-10.031 2.5625v9.2812q4.9844-2.5938 9.8125-3.8906 4.8281-1.2812 9.5781-1.2812 6.3438 0 9.75 2.1719 3.4219 2.1719 3.4219 6.125 0 3.6562-2.4688 5.6094-2.4531 1.9531-10.812 3.7656l-3.125 0.73438q-8.3438 1.75-12.062 5.3906-3.7031 3.6406-3.7031 9.9844 0 7.7188 5.4688 11.906 5.4688 4.2031 15.531 4.2031 4.9688 0 9.3594-0.73438 4.4062-0.71875 8.1094-2.1875z"/>
<path id="t" d="m31 75.875q-6.5312-11.219-9.7188-22.219-3.1719-10.984-3.1719-22.266 0-11.266 3.2031-22.328t9.6875-22.25h-7.8125q-7.3125 11.484-10.953 22.562t-3.6406 22.016q0 10.891 3.6094 21.922 3.625 11.047 10.984 22.562z"/>
<path id="n" d="m45.406 46.391v29.594h8.9844v-75.984h-8.9844v8.2031q-2.8281-4.875-7.1562-7.25-4.3125-2.375-10.375-2.375-9.9062 0-16.141 7.9062-6.2188 7.9219-6.2188 20.812t6.2188 20.797q6.2344 7.9062 16.141 7.9062 6.0625 0 10.375-2.375 4.3281-2.3594 7.1562-7.2344zm-30.609-19.094q0-9.9062 4.0781-15.547t11.203-5.6406 11.219 5.6406q4.1094 5.6406 4.1094 15.547t-4.1094 15.547q-4.0938 5.6406-11.219 5.6406t-11.203-5.6406-4.0781-15.547z"/>
<path id="v" d="m9.0781 75.984h9.0312v-44.875l26.812 23.578h11.469l-29-25.578 30.234-29.109h-11.719l-27.797 26.703v-26.703h-9.0312z"/>
<path id="ae" d="m25.391 72.906h8.2969l-25.391-82.188h-8.2969z"/>
<path id="p" d="m32.172-5.0781q-3.7969-9.7656-7.4219-12.734-3.6094-2.9844-9.6562-2.9844h-7.1875v7.5156h5.2812q3.7031 0 5.75 1.7656 2.0625 1.75 4.5469 8.2969l1.6094 4.0938-22.109 53.812h9.5156l17.094-42.766 17.094 42.766h9.5156z"/>
<path id="s" d="m8.0156 75.875h7.8125q7.3125-11.516 10.953-22.562 3.6406-11.031 3.6406-21.922 0-10.938-3.6406-22.016t-10.953-22.562h-7.8125q6.4844 11.188 9.6875 22.25t3.2031 22.328q0 11.281-3.2031 22.266-3.2031 11-9.6875 22.219z"/>
</defs>
<g transform="translate(354.59 45.398) scale(.1 -.1)">
<use xlink:href="#h"/>
<use x="41.113281" xlink:href="#i"/>
<use x="102.392578" xlink:href="#q"/>
<use x="141.601562" xlink:href="#b"/>
<use x="203.125" xlink:href="#DejaVuSans-20"/>
<use x="234.912109" xlink:href="#l"/>
<use x="296.09375" xlink:href="#x"/>
<use x="331.298828" xlink:href="#DejaVuSans-20"/>
<use x="363.085938" xlink:href="#x"/>
<use x="398.291016" xlink:href="#i"/>
<use x="459.570312" xlink:href="#m"/>
<use x="487.353516" xlink:href="#r"/>
<use x="515.136719" xlink:href="#u"/>
<use x="578.515625" xlink:href="#h"/>
<use x="619.597656" xlink:href="#b"/>
<use x="681.121094" xlink:href="#j"/>
<use x="733.220703" xlink:href="#DejaVuSans-20"/>
<use x="765.007812" xlink:href="#t"/>
<use x="804.021484" xlink:href="#n"/>
<use x="867.498047" xlink:href="#m"/>
<use x="895.28125" xlink:href="#j"/>
<use x="947.380859" xlink:href="#v"/>
<use x="1005.291016" xlink:href="#j"/>
<use x="1057.390625" xlink:href="#ae"/>
<use x="1091.082031" xlink:href="#p"/>
<use x="1150.261719" xlink:href="#h"/>
<use x="1191.375" xlink:href="#s"/>
</g>
<path d="m326.59 60.077h20v-7h-20z" fill="#0766aa" fill-opacity=".2" stroke="#0766aa" stroke-opacity=".2"/>
<defs>
<path id="ak" d="m48.688 27.297q0 9.9062-4.0781 15.547t-11.203 5.6406q-7.1406 0-11.219-5.6406t-4.0781-15.547 4.0781-15.547 11.219-5.6406q7.125 0 11.203 5.6406t4.0781 15.547zm-30.578 19.094q2.8438 4.875 7.1562 7.2344 4.3281 2.375 10.328 2.375 9.9688 0 16.188-7.9062 6.2344-7.9062 6.2344-20.797t-6.2344-20.812q-6.2188-7.9062-16.188-7.9062-6 0-10.328 2.375-4.3125 2.375-7.1562 7.25v-8.2031h-9.0312v75.984h9.0312z"/>
<path id="ah" d="m2.9844 54.688h9.5156l17.094-45.891 17.094 45.891h9.5156l-20.516-54.688h-12.203z"/>
</defs>
<g transform="translate(354.59 60.077) scale(.1 -.1)">
<use xlink:href="#n"/>
<use x="63.476562" xlink:href="#m"/>
<use x="91.259766" xlink:href="#j"/>
<use x="143.359375" xlink:href="#v"/>
<use x="201.269531" xlink:href="#j"/>
<use x="253.369141" xlink:href="#DejaVuSans-20"/>
<use x="285.15625" xlink:href="#l"/>
<use x="346.337891" xlink:href="#ak"/>
<use x="409.814453" xlink:href="#j"/>
<use x="461.914062" xlink:href="#b"/>
<use x="523.4375" xlink:href="#h"/>
<use x="564.550781" xlink:href="#ah"/>
<use x="623.730469" xlink:href="#b"/>
<use x="685.253906" xlink:href="#n"/>
</g>
<path d="m40.603 375.64h446.02v-189.1h-446.02z" fill="#fff"/>
<path d="m40.603 375.64v-189.1" clip-path="url(#f)" fill="none" stroke="#b0b0b0" stroke-linecap="square" stroke-width=".8"/>
<use x="40.603125" y="375.64" stroke="#000000" stroke-width=".8" xlink:href="#g"/>
<g transform="translate(37.422 390.24) scale(.1 -.1)">
<use xlink:href="#e"/>
</g>
<path d="m186.03 375.64v-189.1" clip-path="url(#f)" fill="none" stroke="#b0b0b0" stroke-linecap="square" stroke-width=".8"/>
<use x="186.031855" y="375.64" stroke="#000000" stroke-width=".8" xlink:href="#g"/>
<g transform="translate(182.85 390.24) scale(.1 -.1)">
<use xlink:href="#d"/>
</g>
<path d="m331.46 375.64v-189.1" clip-path="url(#f)" fill="none" stroke="#b0b0b0" stroke-linecap="square" stroke-width=".8"/>
<use x="331.460586" y="375.64" stroke="#000000" stroke-width=".8" xlink:href="#g"/>
<g transform="translate(328.28 390.24) scale(.1 -.1)">
<use xlink:href="#o"/>
</g>
<path d="m476.89 375.64v-189.1" clip-path="url(#f)" fill="none" stroke="#b0b0b0" stroke-linecap="square" stroke-width=".8"/>
<use x="476.889316" y="375.64" stroke="#000000" stroke-width=".8" xlink:href="#g"/>
<g transform="translate(473.71 390.24) scale(.1 -.1)">
<use xlink:href="#ad"/>
</g>
<defs>
<path id="ar" d="m34.188 63.188-13.391-36.281h26.812zm-5.5781 9.7188h11.188l27.781-72.906h-10.25l-6.6406 18.703h-32.859l-6.6406-18.703h-10.406z"/>
<path id="w" d="m45.406 27.984q0 9.7656-4.0312 15.125-4.0156 5.375-11.297 5.375-7.2188 0-11.25-5.375-4.0312-5.3594-4.0312-15.125 0-9.7188 4.0312-15.094t11.25-5.375q7.2812 0 11.297 5.375 4.0312 5.375 4.0312 15.094zm8.9844-21.203q0-13.953-6.2031-20.766-6.1875-6.8125-18.984-6.8125-4.7344 0-8.9375 0.70312t-8.1562 2.1719v8.7344q3.9531-2.1406 7.8125-3.1562 3.8594-1.0312 7.8594-1.0312 8.8438 0 13.234 4.6094t4.3906 13.938v4.4531q-2.7812-4.8438-7.125-7.2344t-10.406-2.3906q-10.047 0-16.203 7.6562-6.1562 7.6719-6.1562 20.328 0 12.688 6.1562 20.344 6.1562 7.6719 16.203 7.6719 6.0625 0 10.406-2.3906t7.125-7.2188v8.2969h8.9844z"/>
<path id="ai" d="m18.109 8.2031v-29h-9.0312v75.484h9.0312v-8.2969q2.8438 4.875 7.1562 7.2344 4.3281 2.375 10.328 2.375 9.9688 0 16.188-7.9062 6.2344-7.9062 6.2344-20.797t-6.2344-20.812q-6.2188-7.9062-16.188-7.9062-6 0-10.328 2.375-4.3125 2.375-7.1562 7.25zm30.578 19.094q0 9.9062-4.0781 15.547t-11.203 5.6406q-7.1406 0-11.219-5.6406t-4.0781-15.547 4.0781-15.547 11.219-5.6406q7.125 0 11.203 5.6406t4.0781 15.547z"/>
<path id="ag" d="m4.2031 54.688h8.9844l11.234-42.672 11.172 42.672h10.594l11.234-42.672 11.188 42.672h8.9844l-14.312-54.688h-10.594l-11.766 44.828-11.812-44.828h-10.609z"/>
<path id="au" d="m4.8906 31.391h26.312v-8h-26.312z"/>
<path id="aj" d="m54.891 33.016v-33.016h-8.9844v32.719q0 7.7656-3.0312 11.609-3.0312 3.8594-9.0781 3.8594-7.2812 0-11.484-4.6406-4.2031-4.625-4.2031-12.641v-30.906h-9.0312v54.688h9.0312v-8.5q3.2344 4.9375 7.5938 7.375 4.375 2.4375 10.094 2.4375 9.4219 0 14.25-5.8281 4.8438-5.8281 4.8438-17.156z"/>
</defs>
<g transform="translate(209.62 403.92) scale(.1 -.1)">
<use xlink:href="#ar"/>
<use x="68.408203" xlink:href="#w"/>
<use x="131.884766" xlink:href="#b"/>
<use x="193.408203" xlink:href="#DejaVuSans-20"/>
<use x="225.195312" xlink:href="#t"/>
<use x="264.208984" xlink:href="#ai"/>
<use x="327.685547" xlink:href="#l"/>
<use x="388.867188" xlink:href="#ag"/>
<use x="470.654297" xlink:href="#b"/>
<use x="532.177734" xlink:href="#h"/>
<use x="573.197266" xlink:href="#au"/>
<use x="609.296875" xlink:href="#l"/>
<use x="670.478516" xlink:href="#aj"/>
<use x="733.857422" xlink:href="#DejaVuSans-20"/>
<use x="765.644531" xlink:href="#p"/>
<use x="824.824219" xlink:href="#b"/>
<use x="886.347656" xlink:href="#i"/>
<use x="947.626953" xlink:href="#h"/>
<use x="988.740234" xlink:href="#j"/>
<use x="1040.839844" xlink:href="#s"/>
</g>
<path d="m40.603 375.64h446.02" clip-path="url(#f)" fill="none" stroke="#b0b0b0" stroke-linecap="square" stroke-width=".8"/>
<use x="40.603125" y="375.64" stroke="#000000" stroke-width=".8" xlink:href="#c"/>
<g transform="translate(27.241 379.44) scale(.1 -.1)">
<use xlink:href="#e"/>
</g>
<path d="m40.603 328.36h446.02" clip-path="url(#f)" fill="none" stroke="#b0b0b0" stroke-linecap="square" stroke-width=".8"/>
<use x="40.603125" y="328.364202" stroke="#000000" stroke-width=".8" xlink:href="#c"/>
<g transform="translate(27.241 332.16) scale(.1 -.1)">
<use xlink:href="#ac"/>
</g>
<path d="m40.603 281.09h446.02" clip-path="url(#f)" fill="none" stroke="#b0b0b0" stroke-linecap="square" stroke-width=".8"/>
<use x="40.603125" y="281.088405" stroke="#000000" stroke-width=".8" xlink:href="#c"/>
<defs>
<path id="at" d="m31.781 34.625q-7.0312 0-11.062-3.7656-4.0156-3.7656-4.0156-10.344 0-6.5938 4.0156-10.359 4.0312-3.7656 11.062-3.7656t11.078 3.7812q4.0625 3.7969 4.0625 10.344 0 6.5781-4.0312 10.344-4.0156 3.7656-11.109 3.7656zm-9.8594 4.1875q-6.3438 1.5625-9.8906 5.9062-3.5312 4.3594-3.5312 10.609 0 8.7344 6.2188 13.812 6.2344 5.0781 17.062 5.0781 10.891 0 17.094-5.0781t6.2031-13.812q0-6.25-3.5469-10.609-3.5312-4.3438-9.8281-5.9062 7.125-1.6562 11.094-6.5 3.9844-4.8281 3.9844-11.797 0-10.609-6.4688-16.281-6.4688-5.6562-18.531-5.6562-12.047 0-18.531 5.6562-6.4688 5.6719-6.4688 16.281 0 6.9688 4 11.797 4.0156 4.8438 11.141 6.5zm-3.6094 15.578q0-5.6562 3.5312-8.8281 3.5469-3.1719 9.9375-3.1719 6.3594 0 9.9375 3.1719 3.5938 3.1719 3.5938 8.8281 0 5.6719-3.5938 8.8438-3.5781 3.1719-9.9375 3.1719-6.3906 0-9.9375-3.1719-3.5312-3.1719-3.5312-8.8438z"/>
</defs>
<g transform="translate(27.241 284.89) scale(.1 -.1)">
<use xlink:href="#at"/>
</g>
<path d="m40.603 233.81h446.02" clip-path="url(#f)" fill="none" stroke="#b0b0b0" stroke-linecap="square" stroke-width=".8"/>
<use x="40.603125" y="233.812607" stroke="#000000" stroke-width=".8" xlink:href="#c"/>
<g transform="translate(20.878 237.61) scale(.1 -.1)">
<use xlink:href="#d"/>
<use x="63.623047" xlink:href="#o"/>
</g>
<path d="m40.603 186.54h446.02" clip-path="url(#f)" fill="none" stroke="#b0b0b0" stroke-linecap="square" stroke-width=".8"/>
<use x="40.603125" y="186.536809" stroke="#000000" stroke-width=".8" xlink:href="#c"/>
<g transform="translate(20.878 190.34) scale(.1 -.1)">
<use xlink:href="#d"/>
<use x="63.623047" xlink:href="#aa"/>
</g>
<defs>
<path id="aq" d="m9.8125 72.906h41.891v-8.3125h-32.031v-21.484h28.906v-8.2969h-28.906v-34.812h-9.8594z"/>
<path id="am" d="m44.391 34.188q3.1719-1.0781 6.1719-4.5938t6.0312-9.6719l10.016-19.922h-10.609l-9.3125 18.703q-3.625 7.3281-7.0156 9.7188t-9.25 2.3906h-10.75v-30.812h-9.8594v72.906h22.266q12.5 0 18.656-5.2344 6.1562-5.2188 6.1562-15.766 0-6.8906-3.2031-11.438-3.2031-4.5312-9.2969-6.2812zm-24.719 30.609v-25.875h12.406q7.125 0 10.766 3.2969t3.6406 9.6875-3.6406 9.6406-10.766 3.25z"/>
<path id="av" d="m72.703 32.078q-4.25 0-6.6719-3.6094-2.4062-3.6094-2.4062-10.062 0-6.3438 2.4062-9.9844 2.4219-3.6406 6.6719-3.6406 4.1562 0 6.5625 3.6406 2.4219 3.6406 2.4219 9.9844 0 6.4062-2.4219 10.031-2.4062 3.6406-6.5625 3.6406zm0 6.2031q7.7188 0 12.25-5.375 4.5469-5.3594 4.5469-14.5 0-9.125-4.5625-14.484-4.5625-5.3438-12.234-5.3438-7.8125 0-12.359 5.3438-4.5312 5.3594-4.5312 14.484 0 9.1875 4.5625 14.531t12.328 5.3438zm-50.391 29.734q-4.2031 0-6.625-3.6406-2.4062-3.625-2.4062-9.9844 0-6.4375 2.3906-10.062 2.3906-3.6094 6.6406-3.6094t6.6562 3.6094q2.4219 3.625 2.4219 10.062 0 6.2969-2.4375 9.9531-2.4375 3.6719-6.6406 3.6719zm44.094 6.2031h7.8125l-45.609-75.641h-7.8125zm-44.094 0q7.7188 0 12.297-5.3438 4.5938-5.3438 4.5938-14.484 0-9.2188-4.5625-14.547t-12.328-5.3281-12.281 5.3438q-4.5156 5.3594-4.5156 14.531 0 9.0938 4.5312 14.453 4.5469 5.375 12.266 5.375z"/>
</defs>
<g transform="translate(14.798 334.34) rotate(-90) scale(.1 -.1)">
<use xlink:href="#aq"/>
<use x="57.378906" xlink:href="#i"/>
<use x="118.658203" xlink:href="#m"/>
<use x="146.441406" xlink:href="#r"/>
<use x="174.224609" xlink:href="#u"/>
<use x="237.603516" xlink:href="#h"/>
<use x="278.685547" xlink:href="#b"/>
<use x="340.208984" xlink:href="#DejaVuSans-20"/>
<use x="371.996094" xlink:href="#am"/>
<use x="441.447266" xlink:href="#i"/>
<use x="502.726562" xlink:href="#q"/>
<use x="541.935547" xlink:href="#b"/>
<use x="603.458984" xlink:href="#DejaVuSans-20"/>
<use x="635.246094" xlink:href="#t"/>
<use x="674.259766" xlink:href="#av"/>
<use x="769.279297" xlink:href="#ae"/>
<use x="802.970703" xlink:href="#p"/>
<use x="862.150391" xlink:href="#b"/>
<use x="923.673828" xlink:href="#i"/>
<use x="984.953125" xlink:href="#h"/>
<use x="1026.066406" xlink:href="#s"/>
</g>
<path d="m65.055 228.51 1.3511 8.0095 2.0266 10.51 2.2518 11.764 1.8014 10.422 2.0266 13.192 2.0266 14.837 2.0266 16.558 2.477 22.29 3.1525 28.514 0.67554 1.6763 0.45036 0.58826 1.8014 1.3394 1.8014 1.0612 1.5762 0.67342 0.90071 0.14037 1.1259-0.11692 3.828-0.68654 4.0532-0.94641 1.8014-0.62274 1.8014-0.84613 3.1525-1.8088 3.3777-1.7466 3.1525-1.3748 2.9273-1.0418 2.9273-0.80298 2.7021-0.51924 2.7021-0.29707 2.7021-0.066674 3.3777 0.16627 2.9273 0.35693 7.8812 1.3922 3.6029 0.5319 3.828 0.33878 1.5762-0.040106 2.2518-0.29174 6.0798-1.0208 2.9273-0.15533 2.9273 0.0647 2.9273 0.27752 3.1525 0.52745 3.1525 0.75503 3.6029 1.1094 13.511 4.3244 2.477 0.48153 2.2518 0.2275 2.2518 0.009464 2.7021-0.24478 4.9539-0.60033 1.3511-0.84552 3.1525-1.8394 3.1525-1.573 3.828-1.6448 2.9273-1.0155 3.1525-0.85975 2.7021-0.51415 2.7021-0.30885 2.7021-0.082229 2.7021 0.15184 4.0532 0.28545 1.5762-0.25828 3.828-1.0855 5.8546-1.5287 2.9273-0.58795 2.477-0.36822 3.6029-2.4966 3.1525-1.8945 2.0266-0.97444 2.2518-0.79467 2.2518-0.59306 2.0266-0.31297 2.0266-0.078434 1.8014 0.14307 1.8014 0.36502 1.8014 0.59773 1.8014 0.81836 1.8014 1.0515 1.8014 1.2954 1.8014 1.5561 1.8014 1.5588 1.3511 0.89299 1.3511 0.62145 3.6029 1.287 2.7021 0.72106 2.2518 0.39234 2.477 0.2178 1.1259-0.011646 0.67554-0.25585 0.67554-0.46439 6.0798-5.1208 5.1791-4.0708 5.1791-3.7188 3.3777-2.2125 2.9273-1.6175 1.5762-0.64752 1.5762-0.40227 1.5762-0.15044 1.3511 0.07552 1.5762 0.3214 1.5762 0.57544 1.5762 0.83507 1.5762 1.1142 1.5762 1.3847 1.8014 1.9033 1.8014 2.2617 1.8014 2.6104 2.0266 3.361 2.0266 3.7718 1.5762 2.9657 0.67554 0.87848 0.90071 0.755 9.4575 6.9507 2.9273 1.7777 2.477 1.2556 2.2518 0.89167 2.0266 0.56036 1.8014 0.27947 1.8014 0.060313h91.422v0" clip-path="url(#f)" fill="none" stroke="#d2691e" stroke-linecap="square" stroke-width="1.5"/>
<path d="m40.603 375.64v-189.1" fill="none" stroke="#000" stroke-linecap="square" stroke-width=".8"/>
<path d="m486.62 375.64v-189.1" fill="none" stroke="#000" stroke-linecap="square" stroke-width=".8"/>
<path d="m40.603 375.64h446.02" fill="none" stroke="#000" stroke-linecap="square" stroke-width=".8"/>
<path d="m40.603 186.54h446.02" fill="none" stroke="#000" stroke-linecap="square" stroke-width=".8"/>
<defs>
<path id="z" d="m9.8125 72.906h14.703l18.594-49.609 18.703 49.609h14.703v-72.906h-9.625v64.016l-18.797-50h-9.9062l-18.797 50v-64.016h-9.5781z"/>
<path id="as" d="m11.719 12.406h10.297v-12.406h-10.297zm0 39.297h10.297v-12.391h-10.297z"/>
<path id="y" d="m53.516 70.516v-9.625q-5.6094 2.6875-10.594 4-4.9844 1.3281-9.625 1.3281-8.0469 0-12.422-3.125t-4.375-8.8906q0-4.8438 2.9062-7.3125 2.9062-2.4531 11.016-3.9688l5.9531-1.2188q11.031-2.1094 16.281-7.4062t5.25-14.172q0-10.609-7.1094-16.078-7.0938-5.4688-20.812-5.4688-5.1719 0-11.016 1.1719-5.8281 1.1719-12.078 3.4688v10.156q6-3.3594 11.766-5.0781 5.7656-1.7031 11.328-1.7031 8.4375 0 13.031 3.3125 4.5938 3.3281 4.5938 9.4844 0 5.3594-3.2969 8.3906t-10.812 4.5469l-6.0156 1.1719q-11.031 2.1875-15.969 6.875-4.9219 4.6875-4.9219 13.047 0 9.6719 6.8125 15.234t18.766 5.5625q5.1406 0 10.453-0.9375 5.3281-0.92188 10.891-2.7656z"/>
<path id="al" d="m-0.29688 72.906h61.672v-8.3125h-25.875v-64.594h-9.9062v64.594h-25.891z"/>
<path id="ao" d="m9.8125 72.906h9.8594v-64.609h35.5v-8.2969h-45.359z"/>
<path id="ap" d="m9.8125 72.906h9.8594v-29.891h35.844v29.891h9.8594v-72.906h-9.8594v34.719h-35.844v-34.719h-9.8594z"/>
<path id="an" d="m9.8125 72.906h13.281l32.328-60.984v60.984h9.5625v-72.906h-13.281l-32.312 60.984v-60.984h-9.5781z"/>
</defs>
<g transform="translate(149.58 16.318) scale(.12 -.12)">
<use xlink:href="#z"/>
<use x="86.279297" xlink:href="#l"/>
<use x="147.460938" xlink:href="#n"/>
<use x="210.9375" xlink:href="#b"/>
<use x="272.460938" xlink:href="#r"/>
<use x="300.244141" xlink:href="#as"/>
<use x="333.935547" xlink:href="#DejaVuSans-20"/>
<use x="365.722656" xlink:href="#y"/>
<use x="429.199219" xlink:href="#b"/>
<use x="490.722656" xlink:href="#i"/>
<use x="552.001953" xlink:href="#w"/>
<use x="615.478516" xlink:href="#i"/>
<use x="676.757812" xlink:href="#q"/>
<use x="715.966797" xlink:href="#b"/>
<use x="777.490234" xlink:href="#DejaVuSans-20"/>
<use x="809.277344" xlink:href="#y"/>
<use x="872.753906" xlink:href="#al"/>
<use x="933.837891" xlink:href="#ab"/>
<use x="997.460938" xlink:href="#e"/>
<use x="1061.083984" xlink:href="#e"/>
<use x="1124.707031" xlink:href="#ao"/>
<use x="1180.419922" xlink:href="#z"/>
<use x="1266.699219" xlink:href="#e"/>
<use x="1330.322266" xlink:href="#d"/>
<use x="1393.945312" xlink:href="#o"/>
<use x="1457.568359" xlink:href="#DejaVuSans-20"/>
<use x="1489.355469" xlink:href="#ap"/>
<use x="1564.550781" xlink:href="#an"/>
</g>
<defs>
<clipPath id="k">
<rect x="40.603" y="28.8" width="446.02" height="141.83"/>
</clipPath>
<clipPath id="f">
<rect x="40.603" y="186.54" width="446.02" height="189.1"/>
</clipPath>
</defs>
</svg>
