<?xml version="1.0" encoding="UTF-8"?>
<!DOCTYPE svg  PUBLIC '-//W3C//DTD SVG 1.1//EN'  'http://www.w3.org/Graphics/SVG/1.1/DTD/svg11.dtd'>
<svg width="497pt" height="413pt" version="1.1" viewBox="0 0 497 413" xmlns="http://www.w3.org/2000/svg" xmlns:xlink="http://www.w3.org/1999/xlink">
<defs>
<style type="text/css">*{stroke-linecap:butt;stroke-linejoin:round;}</style>
</defs>
<path d="m0 413.2h497.32v-413.2h-497.32z" fill="#fff"/>
<path d="m40.603 170.63h446.02v-141.83h-446.02z" fill="#fff"/>
<defs>
<path id="ae" d="m73.798-235.45v-59.597l0.22979-0.034526 0.22979-0.028311 0.22979-0.019668 0.22979-0.019111 0.22979-0.017188 0.22979-0.011935 0.22979-0.011321 0.22979-0.00873 0.22979-0.008524 0.22979-0.007699 0.22979-0.006952 0.22979-0.006759 0.22979-0.006282 0.22979-0.00582 0.22979-0.005643 0.22979-0.005524 0.22979-0.005329 0.22979-0.00359 0.22979-0.002685 0.22979-0.002531 0.22979-0.00213 0.22979-0.001816 0.22979-0.001674 0.22979-0.001604 0.22979-0.001514 0.22979-0.001361 0.22979-0.001202 0.22979-0.001154 0.22979-0.001118 0.22979-0.001091 0.22979-0.001063 0.22979-0.001036 0.22979-9.96e-4 0.22979-9.42e-4 0.22979-9.04e-4 0.22979-8.86e-4 0.22979-8.67e-4 0.22979-8.47e-4 0.22979-8.29e-4 0.22979-8.11e-4 0.22979-7.94e-4 0.22979-7.81e-4 0.22979-7.68e-4 0.22979-7.56e-4 0.22979-7.43e-4 0.22979-7.3e-4 0.22979-7.17e-4 0.22979-7.04e-4 0.22979-6.92e-4 0.22979-6.8e-4 0.22979-6.72e-4 0.22979-6.64e-4 0.22979-6.57e-4 0.22979-6.49e-4 0.22979-6.41e-4 0.22979-6.34e-4 0.22979-6.26e-4 0.22979-6.18e-4 0.22979-6.1e-4 0.22979-6.03e-4 0.22979-5.96e-4 0.22979-5.87e-4 0.22979-5.8e-4 0.22979-5.72e-4 0.22979-5.65e-4 0.22979-5.57e-4 0.22979-5.55e-4 0.22979-5.74e-4 0.22979-5.94e-4 0.22979-6.12e-4 0.22979-6.32e-4 4.366-0.012437 0.45958-0.001301 0.45958-0.001293 0.45958-0.001285 0.22979-6.39e-4 0.22979-6.37e-4 0.22979-6.35e-4 0.22979-6.33e-4 0.22979-6.31e-4 0.45958-0.001255 0.22979-6.25e-4 0.45958-0.001243 0.22979-6.18e-4 0.22979-6.16e-4 0.45958-0.001227 0.22979-5.22e-4 0.22979-2.01e-4 0.22979-1.93e-4 0.22979-1.85e-4 0.22979-1.77e-4 0.22979-1.57e-4 0.22979-1.35e-4 0.22979-1.13e-4 0.22979-9e-5 0.22979-6.8e-5 0.22979-4.6e-5 0.22979-2.4e-5 0.22979-7e-6 0.22979 1.06e-4 0.22979 1.08e-4 0.22979 1.11e-4 0.22979 1.15e-4 0.22979 1.17e-4 0.22979 1.2e-4 0.22979 1.24e-4 0.22979 1.26e-4 0.22979 1.29e-4 0.22979 1.32e-4 0.22979 1.35e-4 0.22979 1.38e-4 0.22979 1.41e-4 0.22979 1.45e-4 0.22979 1.47e-4 0.22979 1.49e-4 0.22979 1.53e-4 0.22979 1.56e-4 0.22979 1.59e-4 0.22979 1.62e-4 0.22979 1.65e-4 0.22979 1.68e-4 0.22979 1.7e-4 0.22979 1.74e-4 0.22979 1.77e-4 0.22979 1.79e-4 0.22979 1.83e-4 0.22979 1.86e-4 0.22979 1.88e-4 0.22979 1.92e-4 0.22979 1.94e-4 0.22979 1.98e-4 0.22979 2e-4 0.22979 2.03e-4 0.22979 2.07e-4 0.22979 2.09e-4 0.22979 2.12e-4 0.22979 2.16e-4 0.22979 2.18e-4 0.22979 2.21e-4 0.22979 2.24e-4 0.22979 1.87e-4 0.22979 1.38e-4 0.22979 1.59e-4 0.22979 2.13e-4 0.22979 6.55e-4 0.22979 6.79e-4 0.22979 7.02e-4 0.22979 7.26e-4 0.22979 7.76e-4 0.22979 9.59e-4 0.22979 9.61e-4 0.22979 9.63e-4 0.22979 9.65e-4 0.45958 0.001937 0.22979 9.72e-4 0.22979 9.74e-4 0.22979 9.76e-4 0.22979 9.78e-4 0.45958 0.001963 0.22979 9.85e-4 0.22979 9.87e-4 0.22979 9.89e-4 0.22979 9.91e-4 0.22979 9.93e-4 0.22979 9.95e-4 0.45958 0.001997 0.22979 0.001002 0.22979 0.001004 0.22979 0.001006 0.22979 0.001008 0.45958 0.002023 0.22979 0.001015 0.22979 0.001017 0.22979 0.001019 0.22979 0.001021 0.22979 0.001023 0.45958 0.002053 0.22979 0.00103 0.22979 0.001032 0.22979 0.001034 0.45958 0.002075 0.45958 0.002083 0.22979 0.001045 0.22979 0.001047 0.45958 0.002101 0.22979 0.001053 0.22979 0.001056 0.22979 0.001058 0.22979 0.00106 0.22979 0.001062 0.45958 0.002131 0.22979 0.001069 0.22979 0.001071 0.22979 0.001073 0.22979 0.001075 0.45958 0.002157 0.22979 0.001082 0.22979 0.001084 0.22979 0.001086 0.91915 0.004354 0.22979 0.001062 0.22979 0.001043 0.22979 0.001023 0.22979 0.001002 0.22979 9.83e-4 0.22979 9.63e-4 0.22979 9.44e-4 0.22979 9.24e-4 0.22979 9.04e-4 0.22979 0.001003 0.22979 0.001053 0.45958 0.002189 0.45958 0.002151 0.45958 0.002113 0.45958 0.002074 0.45958 0.002037 2.7575 0.011895 2.7575 0.011629 2.9872 0.0123 2.0681 0.008333 0.22979 8.51e-4 5.0553 0.017616 5.0553 0.017117 5.0553 0.016614 1.6085 0.005168 1.3787 0.004311 0.22979 7.21e-4 0.22979 7.25e-4 0.22979 7.29e-4 0.22979 7.33e-4 0.22979 7.36e-4 0.22979 7.4e-4 0.22979 7.44e-4 0.22979 7.48e-4 0.22979 7.51e-4 0.22979 7.55e-4 0.22979 7.59e-4 0.22979 8.14e-4 0.22979 9.83e-4 0.45958 0.002135 0.22979 9.77e-4 0.68936 0.001918 0.68936 0.001852 0.68936 0.001783 1.1489 0.002871 0.22979 5.78e-4 0.22979 5.8e-4 0.22979 5.82e-4 0.22979 5.85e-4 0.22979 5.87e-4 0.22979 5.89e-4 0.45958 0.001185 0.45958 0.001195 0.22979 6.01e-4 0.22979 6.03e-4 0.22979 6.06e-4 0.22979 6.08e-4 0.22979 6.1e-4 0.22979 6.12e-4 0.22979 6.15e-4 0.22979 6.17e-4 0.45958 0.001241 0.22979 6.24e-4 0.22979 6.27e-4 0.22979 6.58e-4 0.22979 7.37e-4 0.22979 7.42e-4 0.22979 7.47e-4 0.22979 7.52e-4 0.22979 7.57e-4 0.22979 7.62e-4 0.22979 7.67e-4 0.22979 7.73e-4 0.22979 7.77e-4 0.22979 7.82e-4 0.22979 7.88e-4 0.22979 7.92e-4 0.22979 7.97e-4 0.22979 8.03e-4 0.22979 8.08e-4 0.22979 8.12e-4 0.22979 8.18e-4 0.22979 8.23e-4 0.22979 8.28e-4 0.22979 8.32e-4 0.22979 8.44e-4 0.22979 8.57e-4 0.22979 8.69e-4 0.22979 8.82e-4 0.22979 8.95e-4 0.22979 9.08e-4 0.22979 9.2e-4 0.22979 9.34e-4 0.22979 1e-3 0.22979 0.001122 0.22979 0.002427 0.45958 0.005935 0.45958 0.005943 0.22979 0.002975 0.22979 0.002977 0.22979 0.002979 0.45958 0.005963 0.45958 0.005973 0.22979 0.002989 0.22979 0.002991 0.22979 0.002993 0.45958 0.005993 0.22979 3e-3 0.45958 0.006005 0.22979 0.003006 0.22979 0.003008 0.22979 0.00301 0.22979 0.003012 0.22979 0.003014 0.45958 0.006035 0.22979 0.00302 0.22979 0.003023 0.45958 0.006051 0.22979 0.003029 0.22979 0.003031 0.22979 0.003033 0.22979 0.003035 0.45958 0.006077 0.45958 0.006085 0.22979 0.003046 0.22979 0.003048 0.22979 0.00305 0.22979 0.003052 0.22979 0.003054 0.45958 0.006115 0.45958 0.006123 0.22979 0.003065 0.22979 0.003067 0.22979 0.003069 0.45958 0.006145 0.45958 0.006153 0.22979 0.00308 0.22979 0.003082 0.22979 0.003084 0.22979 0.003086 0.45958 0.006179 0.22979 0.003093 0.22979 0.003095 0.22979 0.003097 0.22979 0.003099 0.45958 0.006205 0.22979 0.003115 0.22979 0.003138 0.22979 0.003162 0.22979 0.003186 0.22979 0.003209 0.22979 0.003229 0.22979 0.003249 0.22979 0.003267 0.22979 0.003287 0.22979 0.003306 0.22979 0.003325 0.22979 0.003333 0.22979 0.003338 0.22979 0.003343 0.22979 0.003348 0.22979 0.003353 0.22979 0.003358 0.22979 0.003363 0.22979 0.003368 0.22979 0.003373 0.22979 0.003378 0.22979 0.003383 0.22979 0.003389 0.22979 0.003393 0.22979 0.003398 0.22979 0.003404 0.22979 0.003408 0.22979 0.003414 0.22979 0.003419 0.22979 0.003423 0.22979 0.003429 0.22979 0.003434 0.22979 0.003439 0.22979 0.003444 0.22979 0.00345 0.22979 0.003454 0.22979 0.00393 0.22979 0.003998 0.22979 0.004012 0.22979 0.004015 0.22979 0.00402 0.22979 0.004023 0.22979 0.004027 0.22979 0.004031 0.22979 0.004034 0.22979 0.004038 0.22979 0.004042 0.22979 0.004046 0.22979 0.004049 0.22979 0.004054 0.22979 0.004057 0.22979 0.00406 0.22979 0.004065 0.22979 0.004068 0.22979 0.004072 0.22979 0.004076 0.22979 0.00408 0.22979 0.004084 0.22979 0.004087 0.22979 0.004091 0.22979 0.004095 0.22979 0.004099 0.22979 0.004102 0.22979 0.004107 0.22979 0.00411 0.22979 0.004114 0.22979 0.004118 0.22979 0.004122 0.22979 0.004125 0.22979 0.00413 0.22979 0.004133 0.22979 0.004137 0.22979 0.004141 0.22979 0.004145 0.22979 0.004149 0.22979 0.004152 0.22979 0.004157 0.22979 0.00416 0.22979 0.004164 0.22979 0.004168 0.22979 0.004173 0.22979 0.004182 0.22979 0.004191 0.22979 0.004199 0.22979 0.004208 0.22979 0.004217 0.22979 0.004226 0.22979 0.004235 0.22979 0.004244 0.22979 0.004253 0.22979 0.004261 0.22979 0.004271 0.22979 0.004279 0.22979 0.004289 0.22979 0.004297 0.22979 0.004351 0.22979 0.00449 0.22979 0.004651 0.22979 0.004663 0.22979 0.004675 0.22979 0.004688 0.22979 0.004699 0.22979 0.004712 0.22979 0.004724 0.22979 0.004736 0.22979 0.004749 0.22979 0.00476 0.22979 0.004773 0.22979 0.005088 0.22979 0.005256 0.22979 0.005289 0.22979 0.005322 0.22979 0.005355 0.22979 0.005388 0.22979 0.00542 0.22979 0.005455 0.22979 0.005592 0.22979 0.005602 0.22979 0.005609 0.22979 0.005619 0.22979 0.005626 0.22979 0.005635 0.22979 0.005644 0.22979 0.005652 0.22979 0.00566 0.22979 0.005669 0.22979 0.005677 0.22979 0.005686 0.22979 0.005695 0.22979 0.005703 0.22979 0.005711 0.22979 0.00572 0.22979 0.005729 0.22979 0.005737 0.22979 0.005746 0.22979 0.005755 0.22979 0.00592 0.22979 0.007165 0.22979 0.007364 0.22979 0.007947 0.22979 0.007951 0.22979 0.007955 0.22979 0.007959 0.22979 0.007963 0.22979 0.007968 0.22979 0.007971 0.22979 0.007975 0.22979 0.007979 0.22979 0.007983 0.22979 0.007987 0.22979 0.007935 0.22979 0.007758 0.22979 0.007671 0.22979 0.007681 0.22979 0.00769 0.22979 0.007701 0.22979 0.007706 0.22979 0.007711 0.22979 0.007715 0.22979 0.00772 0.22979 0.007725 0.22979 0.007729 0.22979 0.007734 0.22979 0.007738 0.22979 0.007743 0.22979 0.007748 0.22979 0.007752 0.22979 0.007757 0.22979 0.007762 0.22979 0.007766 0.22979 0.007771 0.22979 0.007775 0.22979 0.007781 0.22979 0.007784 0.22979 0.00779 0.22979 0.007794 0.22979 0.007799 0.22979 0.007804 0.22979 0.007808 0.22979 0.007813 0.22979 0.007818 0.22979 0.007822 0.22979 0.007828 0.22979 0.007831 0.22979 0.007837 0.22979 0.007842 0.22979 0.007846 0.22979 0.007851 0.22979 0.007855 0.22979 0.007861 0.22979 0.007865 0.22979 0.007837 0.22979 0.007755 0.45958 0.015515 0.45958 0.015521 0.45958 0.015528 0.22979 0.007766 0.45958 0.015537 0.22979 0.007771 0.45958 0.015546 0.45958 0.015553 0.22979 0.007778 0.45958 0.015562 0.91915 0.03112 0.68936 0.023273 0.68936 0.023206 0.22979 0.007658 0.22979 0.007526 0.22979 0.006028 0.22979 0.005415 0.22979 0.00542 0.22979 0.005426 0.22979 0.005432 0.22979 0.005438 0.22979 0.005443 0.22979 0.005449 0.22979 0.005455 0.22979 0.005461 0.22979 0.005466 0.22979 0.005473 0.22979 0.005478 0.22979 0.005484 0.22979 0.005489 0.22979 0.005496 0.22979 0.005501 0.22979 0.005507 0.22979 0.005514 0.22979 0.005519 0.22979 0.005524 0.22979 0.005531 0.22979 0.005537 0.22979 0.005542 0.22979 0.005549 0.22979 0.005554 0.22979 0.00556 0.22979 0.005567 0.22979 0.005575 0.22979 0.005582 0.22979 0.00559 0.22979 0.005597 0.22979 0.005604 0.22979 0.005612 0.22979 0.005619 0.22979 0.005627 0.22979 0.005634 0.22979 0.005641 0.22979 0.005649 0.22979 0.005657 0.22979 0.005664 0.22979 0.005672 0.22979 0.005679 0.22979 0.005687 0.22979 0.005694 0.22979 0.005702 0.22979 0.005709 0.22979 0.005808 0.22979 0.005842 0.22979 0.005845 0.22979 0.00585 0.22979 0.005853 0.22979 0.005857 0.22979 0.005862 0.22979 0.005865 0.22979 0.00587 0.22979 0.005873 0.22979 0.005878 0.22979 0.005881 0.22979 0.005886 0.22979 0.005889 0.22979 0.005894 0.22979 0.005897 0.22979 0.005902 0.22979 0.005906 0.68937 0.017731 0.22979 0.005886 0.22979 0.005865 0.22979 0.005845 0.22979 0.005823 0.22979 0.005805 0.22979 0.00579 0.22979 0.005774 0.22979 0.005759 0.22979 0.005742 1.3787 0.034352 0.45958 0.011455 0.91915 0.022918 0.45958 0.011463 0.68936 0.0172 0.68936 0.017207 0.22979 0.005784 0.22979 0.005865 0.22979 0.00587 0.22979 0.005875 0.22979 0.005881 0.22979 0.005886 0.22979 0.005335 0.45958 0.010526 0.22979 0.005267 0.22979 0.005274 0.22979 0.00528 0.22979 0.005287 0.22979 0.005294 0.22979 0.005301 0.22979 0.005307 0.22979 0.005315 0.22979 0.005321 0.22979 0.005327 0.22979 0.005335 0.22979 0.005341 0.22979 0.005347 0.22979 0.005354 0.22979 0.00536 0.22979 0.005366 0.22979 0.005373 0.22979 0.005379 0.22979 0.005385 0.22979 0.005392 0.22979 0.005399 0.22979 0.005404 0.22979 0.005412 0.22979 0.005417 0.22979 0.005424 0.22979 0.005431 0.22979 0.005437 0.22979 0.005443 0.22979 0.00545 0.22979 0.005456 0.22979 0.005463 0.22979 0.005486 0.22979 0.005509 0.22979 0.005532 0.22979 0.005555 0.22979 0.005579 0.22979 0.005612 0.22979 0.005661 0.22979 0.005713 0.22979 0.005763 0.22979 0.005813 0.22979 0.005992 0.22979 0.006024 0.22979 0.006053 0.22979 0.006084 0.22979 0.006108 0.22979 0.006113 0.22979 0.006119 0.22979 0.006124 0.22979 0.006129 0.22979 0.006134 0.22979 0.00614 0.22979 0.006145 0.22979 0.006151 0.22979 0.006155 0.22979 0.006161 0.22979 0.006114 0.22979 0.005964 0.22979 0.00586 0.22979 0.005972 0.22979 0.00617 0.22979 0.006191 0.22979 0.006213 0.22979 0.006235 0.22979 0.006256 0.22979 0.006265 0.22979 0.006268 0.22979 0.006271 0.22979 0.006273 0.22979 0.005915 0.22979 0.005731 0.22979 0.005709 0.22979 0.005686 0.22979 0.005665 0.22979 0.005643 0.22979 0.005621 0.22979 0.005598 0.22979 0.005447 0.22979 0.005451 0.22979 0.005454 0.22979 0.005458 0.22979 0.005461 0.22979 0.005464 0.22979 0.005469 0.22979 0.005471 0.22979 0.005476 0.22979 0.005479 0.22979 0.005482 0.22979 0.005486 0.22979 0.00549 0.22979 0.005493 0.22979 0.005497 0.22979 0.0055 0.22979 0.005504 0.22979 0.005507 0.22979 0.005513 0.22979 0.00552 0.22979 0.005339 0.22979 0.003864 0.22979 0.003633 0.22979 0.002946 0.22979 0.002949 0.22979 0.002952 0.22979 0.002955 0.22979 0.002958 0.22979 0.002962 1.8383 0.023691 1.1489 0.014722 0.22979 0.002948 0.22979 0.002951 0.22979 0.002953 0.22979 0.002957 0.22979 0.002959 0.22979 0.002962 0.22979 0.002964 0.22979 0.002968 0.22979 0.00297 0.22979 0.002973 0.22979 0.002976 0.22979 0.002979 0.22979 0.002981 0.22979 0.002984 0.22979 0.002987 0.22979 0.00299 0.22979 0.002993 0.22979 0.002996 0.22979 0.002998 0.22979 0.003001 0.22979 0.003004 0.22979 0.003007 0.22979 0.003009 0.22979 0.003013 0.22979 0.003153 0.22979 0.003156 0.22979 0.003158 0.22979 0.003161 0.22979 0.003163 0.22979 0.003166 0.22979 0.003169 0.22979 0.003171 0.22979 0.003173 0.22979 0.003176 0.22979 0.003179 0.22979 0.003181 0.22979 0.003183 0.45958 0.006375 0.22979 0.003191 0.22979 0.003194 0.45958 0.006395 0.22979 0.003202 0.22979 0.003204 0.22979 0.003206 0.22979 0.003209 0.22979 0.003212 0.22979 0.003214 0.22979 0.003217 0.22979 0.003219 0.22979 0.003222 0.22979 0.003225 0.22979 0.003227 0.22979 0.003229 0.22979 0.003232 0.22979 0.003235 0.22979 0.003237 0.22979 0.00324 0.22979 0.003243 0.22979 0.003245 0.22979 0.003247 0.22979 0.003258 0.22979 0.003293 0.22979 0.003327 0.22979 0.003359 0.22979 0.003388 0.22979 0.003409 0.22979 0.003432 0.22979 0.003452 0.22979 0.003475 0.22979 0.003496 0.22979 0.003565 0.22979 0.003639 0.22979 0.003676 0.22979 0.003714 0.22979 0.003751 0.22979 0.004155 0.22979 0.004191 0.22979 0.004199 0.22979 0.004207 0.22979 0.004215 0.22979 0.004223 0.22979 0.004232 0.22979 0.004239 0.22979 0.004248 0.22979 0.004256 0.22979 0.004264 0.22979 0.004273 0.22979 0.00428 0.45958 0.008571 0.22979 0.004288 0.22979 0.00429 0.45958 0.008585 0.45958 0.008591 0.45958 0.008598 0.45958 0.008605 0.22979 0.004305 0.45958 0.008615 0.22979 0.00431 0.22979 0.004312 0.45958 0.008629 0.22979 0.004317 0.22979 0.004349 0.22979 0.004299 0.22979 0.004316 0.22979 0.004325 0.22979 0.004334 0.22979 0.004343 0.22979 0.004351 0.22979 0.004361 0.22979 0.004369 0.22979 0.004379 0.22979 0.004387 0.22979 0.004397 0.22979 0.004405 0.22979 0.004415 0.22979 0.004423 0.22979 0.004432 0.22979 0.004442 0.22979 0.004493 0.22979 0.004556 0.22979 0.004593 0.22979 0.004607 0.22979 0.004619 0.22979 0.004632 0.22979 0.004646 0.22979 0.004658 0.22979 0.004671 0.22979 0.004685 0.22979 0.004698 0.22979 0.00471 0.22979 0.00473 0.22979 0.004802 0.22979 0.005378 0.22979 0.005611 0.22979 0.005658 0.22979 0.005706 0.22979 0.005772 0.22979 0.005891 0.22979 0.005921 0.22979 0.005953 0.22979 0.005984 0.22979 0.006015 0.22979 0.006046 0.22979 0.006078 0.22979 0.00611 0.22979 0.006141 0.22979 0.006172 0.22979 0.006339 0.22979 0.006404 0.22979 0.006469 0.22979 0.006534 0.45958 0.013199 0.22979 0.006547 0.22979 0.006581 0.22979 0.006615 0.22979 0.006788 0.22979 0.006847 0.22979 0.006906 0.22979 0.007038 0.22979 0.007331 0.22979 0.008391 0.22979 0.008394 0.22979 0.008398 0.22979 0.0084 0.22979 0.008403 0.22979 0.008406 0.22979 0.008409 0.22979 0.008412 0.22979 0.008415 0.22979 0.008417 0.22979 0.008421 0.22979 0.008425 0.22979 0.008428 0.22979 0.008431 0.22979 0.008435 0.22979 0.008438 0.22979 0.008442 0.22979 0.008446 0.22979 0.008449 0.22979 0.008452 0.22979 0.008456 0.22979 0.00846 0.22979 0.008463 0.22979 0.008467 0.22979 0.008471 0.22979 0.008473 0.22979 0.008478 0.22979 0.008481 0.22979 0.008485 0.22979 0.008488 0.22979 0.008492 0.22979 0.008476 0.22979 0.008461 0.22979 0.008446 0.22979 0.008429 0.22979 0.008414 0.22979 0.00839 0.22979 0.008355 0.22979 0.00832 0.22979 0.008284 0.22979 0.008248 0.22979 0.008065 0.22979 0.008043 0.22979 0.008025 0.68936 0.024002 0.22979 0.008004 0.22979 0.008009 0.22979 0.008013 0.22979 0.008017 0.22979 0.00802 0.22979 0.008025 0.22979 0.008029 0.22979 0.008033 0.22979 0.008037 0.22979 0.00804 0.22979 0.008045 0.22979 0.007965 0.22979 0.007842 0.22979 0.007618 0.91915 0.031005 0.22979 0.007761 0.22979 0.007779 0.22979 0.007797 0.22979 0.007805 0.22979 0.007814 0.22979 0.007823 0.22979 0.007832 0.22979 0.007841 0.22979 0.00785 0.22979 0.007859 0.22979 0.007868 0.22979 0.007877 0.22979 0.007904 0.22979 0.007948 0.22979 0.00799 0.22979 0.008072 0.22979 0.008611 0.22979 0.009688 0.22979 0.009826 0.22979 0.009888 0.22979 0.009937 0.22979 0.009957 0.22979 0.00998 0.22979 0.010001 0.22979 0.010022 0.22979 0.010044 0.22979 0.010065 0.22979 0.010087 0.22979 0.010149 0.22979 0.010244 0.22979 0.010275 0.22979 0.010292 0.22979 0.010311 0.22979 0.010328 0.22979 0.010347 0.22979 0.010365 0.22979 0.010383 0.22979 0.010401 0.22979 0.010794 0.22979 0.010899 0.22979 0.010954 0.22979 0.01101 0.22979 0.011219 0.22979 0.011271 0.22979 0.011326 0.22979 0.011382 0.22979 0.011486 0.22979 0.011605 0.22979 0.011723 0.22979 0.012141 0.22979 0.012265 0.22979 0.012407 0.22979 0.01253 0.22979 0.012773 0.22979 0.013056 0.22979 0.013151 0.22979 0.013197 0.22979 0.013244 0.22979 0.013291 0.22979 0.013337 0.22979 0.013401 0.22979 0.01347 0.22979 0.01354 0.22979 0.013735 0.22979 0.013758 0.22979 0.01378 0.22979 0.013803 0.22979 0.013824 0.22979 0.013847 0.22979 0.013869 0.22979 0.013891 0.22979 0.013914 0.22979 0.013936 0.22979 0.013959 0.22979 0.013982 0.22979 0.014005 0.22979 0.014027 0.22979 0.01405 0.22979 0.013905 0.22979 0.013927 0.22979 0.013951 0.22979 0.013974 0.22979 0.013997 0.22979 0.014041 0.22979 0.014089 0.22979 0.014139 0.22979 0.014187 0.22979 0.014237 0.22979 0.014466 0.22979 0.014531 0.22979 0.014596 0.22979 0.014668 0.22979 0.014788 0.22979 0.014909 0.22979 0.01503 0.22979 0.015115 0.22979 0.015191 0.22979 0.015266 0.22979 0.015346 0.22979 0.015429 0.22979 0.01551 0.22979 0.015551 0.22979 0.015591 0.22979 0.015631 0.22979 0.015672 0.22979 0.015713 0.22979 0.015753 0.22979 0.015795 0.22979 0.015836 0.22979 0.016042 0.22979 0.016067 0.22979 0.016092 0.22979 0.016117 0.22979 0.016141 0.22979 0.016167 0.22979 0.016192 0.22979 0.016207 0.22979 0.016192 0.22979 0.016176 0.22979 0.01616 1.3787 0.096831 0.22979 0.016064 0.22979 0.015994 0.22979 0.015969 0.22979 0.015944 0.22979 0.01592 0.22979 0.015418 0.22979 0.015395 0.22979 0.015407 0.22979 0.015419 0.22979 0.015432 0.22979 0.015443 0.22979 0.015456 0.22979 0.015467 0.22979 0.01548 0.22979 0.015493 0.22979 0.015504 0.22979 0.015517 0.22979 0.015529 0.22979 0.015547 0.22979 0.015566 0.22979 0.015585 0.22979 0.015603 0.22979 0.015623 0.22979 0.015642 0.22979 0.01566 0.22979 0.015756 0.22979 0.015871 0.22979 0.01707 0.22979 0.01713 0.22979 0.017189 0.22979 0.017249 0.22979 0.017309 0.22979 0.017373 0.22979 0.017438 0.22979 0.017502 0.22979 0.017567 0.22979 0.017608 0.45958 0.035263 0.22979 0.017585 0.22979 0.017555 0.22979 0.017581 0.22979 0.017606 0.22979 0.017632 0.22979 0.017658 0.22979 0.017684 0.22979 0.017709 0.22979 0.017736 0.22979 0.017762 0.22979 0.017789 0.22979 0.017815 0.22979 0.017841 0.22979 0.017868 0.22979 0.017894 0.22979 0.017921 0.22979 0.01789 0.45958 0.035671 0.22979 0.017855 0.22979 0.017881 0.22979 0.017907 0.22979 0.017932 0.22979 0.017958 0.22979 0.017983 0.22979 0.01801 0.22979 0.018035 0.22979 0.018062 0.22979 0.01808 0.22979 0.018023 0.22979 0.017258 0.22979 0.016972 0.22979 0.016948 0.22979 0.017126 0.22979 0.017074 1.3787 0.10163 0.91915 0.067682 0.22979 0.016718 0.22979 0.016666 0.22979 0.016614 0.22979 0.016561 0.22979 0.016509 0.22979 0.016486 0.22979 0.016566 0.22979 0.016848 0.22979 0.016895 0.45958 0.033492 0.22979 0.016717 0.22979 0.016583 0.22979 0.016213 0.22979 0.014736 0.22979 0.014784 0.22979 0.014834 0.22979 0.015667 0.22979 0.016823 0.22979 0.016878 0.22979 0.016933 0.22979 0.016987 0.22979 0.017042 0.22979 0.017097 0.22979 0.017152 0.22979 0.017192 0.22979 0.017225 0.22979 0.017257 0.22979 0.01729 0.22979 0.017324 0.22979 0.017356 0.22979 0.01739 0.22979 0.017424 0.22979 0.017457 0.22979 0.01749 0.22979 0.017524 0.22979 0.017558 0.22979 0.017593 0.22979 0.017626 0.22979 0.017661 0.22979 0.017695 0.22979 0.017729 0.22979 0.017764 0.22979 0.017799 0.22979 0.017834 0.22979 0.017869 0.22979 0.017904 0.22979 0.017941 0.22979 0.01798 0.22979 0.018019 0.22979 0.018054 0.22979 0.018075 0.22979 0.018097 0.22979 0.018118 0.22979 0.018141 0.22979 0.018162 0.22979 0.018185 0.22979 0.018207 0.22979 0.018228 0.22979 0.018251 0.22979 0.018279 0.22979 0.01831 0.22979 0.018341 0.22979 0.018373 0.22979 0.018891 0.22979 0.018953 0.22979 0.019016 0.22979 0.019079 0.22979 0.019143 0.22979 0.019223 0.22979 0.019349 0.22979 0.019516 0.22979 0.019853 0.22979 0.019996 0.22979 0.020033 0.22979 0.019831 0.22979 0.019842 0.22979 0.019854 0.22979 0.019865 0.22979 0.019876 0.22979 0.019888 0.22979 0.019903 0.22979 0.01993 0.22979 0.019959 0.22979 0.019986 0.22979 0.020015 0.22979 0.020042 0.22979 0.020071 0.22979 0.020099 0.22979 0.020128 0.22979 0.020156 0.22979 0.020411 0.22979 0.020445 0.22979 0.020481 0.22979 0.020452 0.22979 0.01969 0.22979 0.018053 0.22979 0.017887 0.22979 0.017842 0.22979 0.017816 0.22979 0.017834 0.22979 0.017851 0.22979 0.01787 0.22979 0.017887 0.22979 0.017905 0.22979 0.017923 0.22979 0.017941 0.22979 0.017895 0.22979 0.018596 0.22979 0.019182 0.22979 0.019327 0.22979 0.019412 0.22979 0.019499 0.22979 0.019649 0.22979 0.020128 0.22979 0.020189 0.22979 0.02025 0.22979 0.019715 0.22979 0.019636 0.22979 0.019621 0.22979 0.0196 0.68936 0.057974 0.22979 0.019308 0.22979 0.019222 0.22979 0.01911 0.22979 0.019025 0.22979 0.018469 0.22979 0.018387 0.22979 0.018277 0.22979 0.018487 0.22979 0.018267 0.22979 0.017936 1.1489 0.089281 0.22979 0.017827 0.22979 0.017791 0.22979 0.017754 0.22979 0.017511 0.22979 0.017551 0.22979 0.017603 0.22979 0.017716 0.22979 0.017829 0.22979 0.017977 0.22979 0.018192 0.22979 0.018282 0.22979 0.018366 0.22979 0.01845 0.22979 0.018535 0.22979 0.01864 0.22979 0.018751 0.22979 0.018862 0.22979 0.018962 0.22979 0.019058 0.22979 0.019153 0.22979 0.019249 0.22979 0.019632 0.22979 0.01975 0.22979 0.019836 0.22979 0.020213 0.22979 0.020362 0.22979 0.020682 0.22979 0.020717 0.22979 0.020457 0.22979 0.020469 0.22979 0.020479 0.22979 0.020483 0.22979 0.020437 0.22979 0.020391 0.22979 0.020344 0.22979 0.020948 0.22979 0.021309 0.22979 0.022735 0.22979 0.022941 0.22979 0.023016 0.22979 0.023035 0.22979 0.023124 0.22979 0.023214 0.22979 0.023294 0.22979 0.023369 0.22979 0.023444 0.22979 0.02352 0.22979 0.023595 0.22979 0.023771 0.22979 0.023703 0.22979 0.023813 0.22979 0.023923 0.22979 0.024034 0.22979 0.024146 0.22979 0.025191 0.22979 0.025445 0.22979 0.02561 0.22979 0.025758 0.22979 0.025905 0.22979 0.026026 0.22979 0.026117 0.22979 0.026209 0.22979 0.026302 0.22979 0.026395 0.22979 0.026487 0.22979 0.026582 0.22979 0.026677 0.22979 0.026771 0.22979 0.02718 0.22979 0.027523 0.22979 0.028602 0.22979 0.028769 0.22979 0.028937 0.22979 0.029135 0.22979 0.029537 0.22979 0.030171 0.22979 0.030959 0.22979 0.031232 0.22979 0.031493 0.22979 0.031745 0.22979 0.031996 0.22979 0.032247 0.22979 0.032439 0.22979 0.032583 0.22979 0.032727 0.22979 0.032872 0.22979 0.033018 0.22979 0.033165 0.22979 0.033314 0.22979 0.033772 0.22979 0.034006 0.22979 0.034106 0.22979 0.034252 0.22979 0.032533 0.22979 0.032789 0.22979 0.03316 0.22979 0.03336 0.22979 0.033534 0.22979 0.034844 0.22979 0.035193 0.22979 0.035378 0.22979 0.035628 0.22979 0.035935 0.22979 0.036119 0.22979 0.036306 0.22979 0.036493 0.22979 0.036682 0.22979 0.036869 0.22979 0.037056 0.22979 0.037243 0.22979 0.037433 0.22979 0.037624 0.22979 0.03788 0.22979 0.038199 0.22979 0.039185 0.22979 0.03953 0.22979 0.039776 0.22979 0.039964 0.22979 0.040153 0.22979 0.040343 0.22979 0.040537 0.22979 0.040731 0.22979 0.040927 0.22979 0.041131 0.22979 0.041352 0.22979 0.041572 0.22979 0.041797 0.22979 0.042022 0.22979 0.042354 0.22979 0.042784 0.22979 0.043446 0.22979 0.044221 0.22979 0.044531 0.22979 0.044843 0.22979 0.045225 0.22979 0.045668 0.22979 0.045885 0.22979 0.046104 0.22979 0.045933 0.22979 0.046157 0.22979 0.046382 0.22979 0.046611 0.22979 0.046841 0.22979 0.047073 0.22979 0.047307 0.22979 0.047946v45.747h-393.17z" stroke="#0766aa" stroke-opacity=".2"/>
</defs>
<g clip-path="url(#j)">
<use y="413.19625" fill="#0766aa" fill-opacity=".2" stroke="#0766aa" stroke-opacity=".2" xlink:href="#ae"/>
</g>
<path d="m40.603 170.63v-141.83" clip-path="url(#j)" fill="none" stroke="#b0b0b0" stroke-linecap="square" stroke-width=".8"/>
<defs>
<path id="g" d="m0 0v3.5" stroke="#000" stroke-width=".8"/>
</defs>
<use x="40.603125" y="170.627393" stroke="#000000" stroke-width=".8" xlink:href="#g"/>
<path d="m172.88 170.63v-141.83" clip-path="url(#j)" fill="none" stroke="#b0b0b0" stroke-linecap="square" stroke-width=".8"/>
<use x="172.875752" y="170.627393" stroke="#000000" stroke-width=".8" xlink:href="#g"/>
<path d="m305.15 170.63v-141.83" clip-path="url(#j)" fill="none" stroke="#b0b0b0" stroke-linecap="square" stroke-width=".8"/>
<use x="305.148379" y="170.627393" stroke="#000000" stroke-width=".8" xlink:href="#g"/>
<path d="m437.42 170.63v-141.83" clip-path="url(#j)" fill="none" stroke="#b0b0b0" stroke-linecap="square" stroke-width=".8"/>
<use x="437.421007" y="170.627393" stroke="#000000" stroke-width=".8" xlink:href="#g"/>
<defs>
<path id="b" d="m0 0h-3.5" stroke="#000" stroke-width=".8"/>
</defs>
<use x="40.603125" y="154.105211" stroke="#000000" stroke-width=".8" xlink:href="#b"/>
<defs>
<path id="f" d="m12.406 8.2969h16.109v55.625l-17.531-3.5156v8.9844l17.438 3.5156h9.8594v-64.609h16.109v-8.2969h-41.984z"/>
<path id="d" d="m31.781 66.406q-7.6094 0-11.453-7.5-3.8281-7.4844-3.8281-22.531 0-14.984 3.8281-22.484 3.8438-7.5 11.453-7.5 7.6719 0 11.5 7.5 3.8438 7.5 3.8438 22.484 0 15.047-3.8438 22.531-3.8281 7.5-11.5 7.5zm0 7.8125q12.266 0 18.734-9.7031 6.4688-9.6875 6.4688-28.141 0-18.406-6.4688-28.109-6.4688-9.6875-18.734-9.6875-12.25 0-18.719 9.6875-6.4688 9.7031-6.4688 28.109 0 18.453 6.4688 28.141 6.4688 9.7031 18.719 9.7031z"/>
</defs>
<g transform="translate(16.003 157.9) scale(.1 -.1)">
<use transform="translate(0 .68438)" xlink:href="#f"/>
<use transform="translate(63.623 .68438)" xlink:href="#d"/>
<use transform="translate(128.2 38.966) scale(.7)" xlink:href="#f"/>
</g>
<use x="40.603125" y="130.467312" stroke="#000000" stroke-width=".8" xlink:href="#b"/>
<defs>
<path id="q" d="m19.188 8.2969h34.422v-8.2969h-46.281v8.2969q5.6094 5.8125 15.297 15.594 9.7031 9.7969 12.188 12.641 4.7344 5.3125 6.6094 9 1.8906 3.6875 1.8906 7.25 0 5.8125-4.0781 9.4688-4.0781 3.6719-10.625 3.6719-4.6406 0-9.7969-1.6094-5.1406-1.6094-11-4.8906v9.9688q5.9531 2.3906 11.125 3.6094 5.1875 1.2188 9.4844 1.2188 11.328 0 18.062-5.6719 6.7344-5.6562 6.7344-15.125 0-4.5-1.6875-8.5312-1.6719-4.0156-6.125-9.4844-1.2188-1.4219-7.7656-8.1875-6.5312-6.7656-18.453-18.922z"/>
</defs>
<g transform="translate(16.003 134.27) scale(.1 -.1)">
<use transform="translate(0 .76562)" xlink:href="#f"/>
<use transform="translate(63.623 .76562)" xlink:href="#d"/>
<use transform="translate(128.2 39.047) scale(.7)" xlink:href="#q"/>
</g>
<use x="40.603125" y="106.829413" stroke="#000000" stroke-width=".8" xlink:href="#b"/>
<defs>
<path id="ac" d="m40.578 39.312q7.0781-1.5156 11.047-6.3125 3.9844-4.7812 3.9844-11.812 0-10.781-7.4219-16.703-7.4219-5.9062-21.094-5.9062-4.5781 0-9.4375 0.90625t-10.031 2.7188v9.5156q4.0938-2.3906 8.9688-3.6094 4.8906-1.2188 10.219-1.2188 9.2656 0 14.125 3.6562t4.8594 10.641q0 6.4531-4.5156 10.078-4.5156 3.6406-12.562 3.6406h-8.5v8.1094h8.8906q7.2656 0 11.125 2.9062t3.8594 8.375q0 5.6094-3.9844 8.6094-3.9688 3.0156-11.391 3.0156-4.0625 0-8.7031-0.89062-4.6406-0.875-10.203-2.7188v8.7812q5.625 1.5625 10.531 2.3438t9.25 0.78125q11.234 0 17.766-5.1094 6.5469-5.0938 6.5469-13.781 0-6.0625-3.4688-10.234t-9.8594-5.7812z"/>
</defs>
<g transform="translate(16.003 110.63) scale(.1 -.1)">
<use transform="translate(0 .76562)" xlink:href="#f"/>
<use transform="translate(63.623 .76562)" xlink:href="#d"/>
<use transform="translate(128.2 39.047) scale(.7)" xlink:href="#ac"/>
</g>
<use x="40.603125" y="83.191514" stroke="#000000" stroke-width=".8" xlink:href="#b"/>
<defs>
<path id="ab" d="m37.797 64.312-24.906-38.922h24.906zm-2.5938 8.5938h12.406v-47.516h10.406v-8.2031h-10.406v-17.188h-9.8125v17.188h-32.906v9.5156z"/>
</defs>
<g transform="translate(16.003 86.991) scale(.1 -.1)">
<use transform="translate(0 .68438)" xlink:href="#f"/>
<use transform="translate(63.623 .68438)" xlink:href="#d"/>
<use transform="translate(128.2 38.966) scale(.7)" xlink:href="#ab"/>
</g>
<use x="40.603125" y="59.553615" stroke="#000000" stroke-width=".8" xlink:href="#b"/>
<defs>
<path id="aa" d="m10.797 72.906h38.719v-8.3125h-29.688v-17.859q2.1406 0.73438 4.2812 1.0938 2.1562 0.35938 4.3125 0.35938 12.203 0 19.328-6.6875 7.1406-6.6875 7.1406-18.109 0-11.766-7.3281-18.297-7.3281-6.5156-20.656-6.5156-4.5938 0-9.3594 0.78125-4.75 0.78125-9.8281 2.3438v9.9219q4.3906-2.3906 9.0781-3.5625t9.9062-1.1719q8.4531 0 13.375 4.4375 4.9375 4.4375 4.9375 12.062 0 7.6094-4.9375 12.047-4.9219 4.4531-13.375 4.4531-3.9531 0-7.8906-0.875-3.9219-0.875-8.0156-2.7344z"/>
</defs>
<g transform="translate(16.003 63.353) scale(.1 -.1)">
<use transform="translate(0 .68438)" xlink:href="#f"/>
<use transform="translate(63.623 .68438)" xlink:href="#d"/>
<use transform="translate(128.2 38.966) scale(.7)" xlink:href="#aa"/>
</g>
<use x="40.603125" y="35.915717" stroke="#000000" stroke-width=".8" xlink:href="#b"/>
<defs>
<path id="z" d="m33.016 40.375q-6.6406 0-10.531-4.5469-3.875-4.5312-3.875-12.438 0-7.8594 3.875-12.438 3.8906-4.5625 10.531-4.5625t10.516 4.5625q3.875 4.5781 3.875 12.438 0 7.9062-3.875 12.438-3.875 4.5469-10.516 4.5469zm19.578 30.922v-8.9844q-3.7188 1.75-7.5 2.6719-3.7812 0.9375-7.5 0.9375-9.7656 0-14.922-6.5938-5.1406-6.5938-5.875-19.922 2.875 4.25 7.2188 6.5156 4.3594 2.2656 9.5781 2.2656 10.984 0 17.359-6.6719 6.375-6.6562 6.375-18.125 0-11.234-6.6406-18.031-6.6406-6.7812-17.672-6.7812-12.656 0-19.344 9.6875-6.6875 9.7031-6.6875 28.109 0 17.281 8.2031 27.562t22.016 10.281q3.7188 0 7.5-0.73438t7.8906-2.1875z"/>
</defs>
<g transform="translate(16.003 39.715) scale(.1 -.1)">
<use transform="translate(0 .76562)" xlink:href="#f"/>
<use transform="translate(63.623 .76562)" xlink:href="#d"/>
<use transform="translate(128.2 39.047) scale(.7)" xlink:href="#z"/>
</g>
<defs>
<path id="a" d="m0 0h-2" stroke="#000" stroke-width=".6"/>
</defs>
<use x="40.603125" y="170.627393" stroke="#000000" stroke-width=".6" xlink:href="#a"/>
<use x="40.603125" y="166.464966" stroke="#000000" stroke-width=".6" xlink:href="#a"/>
<use x="40.603125" y="163.511677" stroke="#000000" stroke-width=".6" xlink:href="#a"/>
<use x="40.603125" y="161.220927" stroke="#000000" stroke-width=".6" xlink:href="#a"/>
<use x="40.603125" y="159.349249" stroke="#000000" stroke-width=".6" xlink:href="#a"/>
<use x="40.603125" y="157.766768" stroke="#000000" stroke-width=".6" xlink:href="#a"/>
<use x="40.603125" y="156.39596" stroke="#000000" stroke-width=".6" xlink:href="#a"/>
<use x="40.603125" y="155.186822" stroke="#000000" stroke-width=".6" xlink:href="#a"/>
<use x="40.603125" y="146.989494" stroke="#000000" stroke-width=".6" xlink:href="#a"/>
<use x="40.603125" y="142.827067" stroke="#000000" stroke-width=".6" xlink:href="#a"/>
<use x="40.603125" y="139.873778" stroke="#000000" stroke-width=".6" xlink:href="#a"/>
<use x="40.603125" y="137.583029" stroke="#000000" stroke-width=".6" xlink:href="#a"/>
<use x="40.603125" y="135.71135" stroke="#000000" stroke-width=".6" xlink:href="#a"/>
<use x="40.603125" y="134.128869" stroke="#000000" stroke-width=".6" xlink:href="#a"/>
<use x="40.603125" y="132.758061" stroke="#000000" stroke-width=".6" xlink:href="#a"/>
<use x="40.603125" y="131.548923" stroke="#000000" stroke-width=".6" xlink:href="#a"/>
<use x="40.603125" y="123.351595" stroke="#000000" stroke-width=".6" xlink:href="#a"/>
<use x="40.603125" y="119.189168" stroke="#000000" stroke-width=".6" xlink:href="#a"/>
<use x="40.603125" y="116.235879" stroke="#000000" stroke-width=".6" xlink:href="#a"/>
<use x="40.603125" y="113.94513" stroke="#000000" stroke-width=".6" xlink:href="#a"/>
<use x="40.603125" y="112.073451" stroke="#000000" stroke-width=".6" xlink:href="#a"/>
<use x="40.603125" y="110.49097" stroke="#000000" stroke-width=".6" xlink:href="#a"/>
<use x="40.603125" y="109.120162" stroke="#000000" stroke-width=".6" xlink:href="#a"/>
<use x="40.603125" y="107.911024" stroke="#000000" stroke-width=".6" xlink:href="#a"/>
<use x="40.603125" y="99.713697" stroke="#000000" stroke-width=".6" xlink:href="#a"/>
<use x="40.603125" y="95.551269" stroke="#000000" stroke-width=".6" xlink:href="#a"/>
<use x="40.603125" y="92.59798" stroke="#000000" stroke-width=".6" xlink:href="#a"/>
<use x="40.603125" y="90.307231" stroke="#000000" stroke-width=".6" xlink:href="#a"/>
<use x="40.603125" y="88.435553" stroke="#000000" stroke-width=".6" xlink:href="#a"/>
<use x="40.603125" y="86.853071" stroke="#000000" stroke-width=".6" xlink:href="#a"/>
<use x="40.603125" y="85.482263" stroke="#000000" stroke-width=".6" xlink:href="#a"/>
<use x="40.603125" y="84.273125" stroke="#000000" stroke-width=".6" xlink:href="#a"/>
<use x="40.603125" y="76.075798" stroke="#000000" stroke-width=".6" xlink:href="#a"/>
<use x="40.603125" y="71.91337" stroke="#000000" stroke-width=".6" xlink:href="#a"/>
<use x="40.603125" y="68.960081" stroke="#000000" stroke-width=".6" xlink:href="#a"/>
<use x="40.603125" y="66.669332" stroke="#000000" stroke-width=".6" xlink:href="#a"/>
<use x="40.603125" y="64.797654" stroke="#000000" stroke-width=".6" xlink:href="#a"/>
<use x="40.603125" y="63.215172" stroke="#000000" stroke-width=".6" xlink:href="#a"/>
<use x="40.603125" y="61.844365" stroke="#000000" stroke-width=".6" xlink:href="#a"/>
<use x="40.603125" y="60.635226" stroke="#000000" stroke-width=".6" xlink:href="#a"/>
<use x="40.603125" y="52.437899" stroke="#000000" stroke-width=".6" xlink:href="#a"/>
<use x="40.603125" y="48.275471" stroke="#000000" stroke-width=".6" xlink:href="#a"/>
<use x="40.603125" y="45.322182" stroke="#000000" stroke-width=".6" xlink:href="#a"/>
<use x="40.603125" y="43.031433" stroke="#000000" stroke-width=".6" xlink:href="#a"/>
<use x="40.603125" y="41.159755" stroke="#000000" stroke-width=".6" xlink:href="#a"/>
<use x="40.603125" y="39.577273" stroke="#000000" stroke-width=".6" xlink:href="#a"/>
<use x="40.603125" y="38.206466" stroke="#000000" stroke-width=".6" xlink:href="#a"/>
<use x="40.603125" y="36.997328" stroke="#000000" stroke-width=".6" xlink:href="#a"/>
<use x="40.603125" y="28.8" stroke="#000000" stroke-width=".6" xlink:href="#a"/>
<path d="m73.798 151.84 4.5958 1.2367 4.1362 1.3447 2.2979 0.73872 1.3787 0.14164 3.9064 0.057542 21.83-0.44781 1.1489-0.22232 2.9872-0.95647 3.217-0.79362 3.6766-0.66534 3.9064-0.47128 4.1362-0.26829 4.366-0.050368 8.7319 0.028721 4.1362-0.99523 6.2043-1.4356 9.4213-2.1255 5.5149-1.1084 4.8255-1.1689 3.6766-0.9291 8.7319-2.409 3.6766-0.63262 2.9872-0.52909 3.6766-0.56801 3.9064-0.43757 3.217-0.1121 3.4468 0.090693 8.9617 0.63959 3.6766 0.53388 3.4468 0.72312 5.5149 1.4599 2.7575 0.99592 10.111 4.2499 2.0681 0.85042 3.6766 1.557 3.217 1.6035 2.7575 1.6187 2.2979 1.5912 2.2979 1.6687 3.6766 1.3629 1.6085 0.44691 1.6085 0.07702 5.2851 0.037795 4.1362-0.1663 3.6766-0.39192 3.9064-0.64031 3.9064-0.8977 3.6766-0.84225 3.6766-0.59595 4.1362-0.43634 4.1362-0.21689 4.1362 0.019456 4.1362 0.24821 3.9064 0.44921 3.9064 0.67614 3.4468 0.81271 3.217 0.97804 3.4468 1.2929 3.4468 1.5255 2.9872 1.5528 2.7575 1.6731 2.9872 2.1055 4.1362 3.1967 4.1362 3.1746 1.6085 0.92709 1.3787 0.52595 1.1489 0.20422 2.0681 0.016217 23.209-0.089086 1.8383-0.34044 2.0681-0.64065 2.2979-0.95316 3.217-1.5958 4.5958-2.316 2.5277-0.93771 2.7575-0.78249 2.9872-0.62214 3.4468-0.47894 3.6766-0.27098 3.6766-0.050048 3.9064 0.17569 3.6766 0.38212 3.6766 0.6073 3.4468 0.80146 2.9872 0.91098 2.7575 1.0612 2.5277 1.2092 2.2979 1.3566 1.8383 1.3204 1.8383 1.6054 1.6085 1.7303 1.3787 1.8308 1.6085 2.5287 1.6085 2.9476 1.3787 2.9715 1.3787 3.5376 1.1489 3.5549 1.1489 4.3644 0.91915 4.3686 0.91915 5.6215 0.68936 5.5894 0.68936 7.7807 0.45958 7.6075 0.45958 12.403 0.22979 11.37 0.11692 161.88v0" clip-path="url(#j)" fill="none" stroke="#dc143c" stroke-linecap="square" stroke-width="1.5"/>
<path d="m40.603 170.63v-141.83" fill="none" stroke="#000" stroke-linecap="square" stroke-width=".8"/>
<path d="m486.62 170.63v-141.83" fill="none" stroke="#000" stroke-linecap="square" stroke-width=".8"/>
<path d="m40.603 170.63h446.02" fill="none" stroke="#000" stroke-linecap="square" stroke-width=".8"/>
<path d="m40.603 28.8h446.02" fill="none" stroke="#000" stroke-linecap="square" stroke-width=".8"/>
<path d="m324.59 66.156h155.04q2 0 2-2v-28.356q0-2-2-2h-155.04q-2 0-2 2v28.356q0 2 2 2z" fill="#fff" opacity=".8" stroke="#ccc"/>
<path d="m326.59 41.898h20" fill="none" stroke="#dc143c" stroke-linecap="square" stroke-width="1.5"/>
<defs>
<path id="h" d="m41.109 46.297q-1.5156 0.875-3.2969 1.2812-1.7812 0.42188-3.9219 0.42188-7.625 0-11.703-4.9531t-4.0781-14.234v-28.812h-9.0312v54.688h9.0312v-8.5q2.8438 4.9844 7.375 7.3906 4.5469 2.4219 11.047 2.4219 0.92188 0 2.0469-0.125 1.125-0.10938 2.4844-0.35938z"/>
<path id="k" d="m34.281 27.484q-10.891 0-15.094-2.4844t-4.2031-8.5q0-4.7812 3.1562-7.5938 3.1562-2.7969 8.5625-2.7969 7.4844 0 12 5.2969t4.5156 14.078v2zm17.922 3.7188v-31.203h-8.9844v8.2969q-3.0781-4.9688-7.6719-7.3438t-11.234-2.375q-8.3906 0-13.359 4.7188-4.9531 4.7188-4.9531 12.625 0 9.2188 6.1719 13.906 6.1875 4.6875 18.438 4.6875h12.609v0.89062q0 6.2031-4.0781 9.5938t-11.453 3.3906q-4.6875 0-9.1406-1.125-4.4375-1.125-8.5312-3.375v8.3125q4.9219 1.9062 9.5625 2.8438 4.6406 0.95312 9.0312 0.95312 11.875 0 17.734-6.1562 5.8594-6.1406 5.8594-18.641z"/>
<path id="u" d="m18.312 70.219v-15.531h18.5v-6.9844h-18.5v-29.688q0-6.6875 1.8281-8.5938t7.4531-1.9062h9.2188v-7.5156h-9.2188q-10.406 0-14.359 3.875-3.9531 3.8906-3.9531 14.141v29.688h-6.5938v6.9844h6.5938v15.531z"/>
<path id="c" d="m56.203 29.594v-4.3906h-41.312q0.59375-9.2812 5.5938-14.141t13.938-4.8594q5.1719 0 10.031 1.2656t9.6562 3.8125v-8.5q-4.8438-2.0469-9.9219-3.125t-10.297-1.0781q-13.094 0-20.734 7.6094-7.6406 7.625-7.6406 20.625 0 13.422 7.25 21.297 7.25 7.8906 19.562 7.8906 11.031 0 17.453-7.1094 6.4219-7.0938 6.4219-19.297zm-8.9844 2.6406q-0.09375 7.3594-4.125 11.75-4.0312 4.4062-10.672 4.4062-7.5156 0-12.031-4.25t-5.2031-11.969z"/>
<path id="l" d="m30.609 48.391q-7.2188 0-11.422-5.6406t-4.2031-15.453 4.1719-15.453q4.1875-5.6406 11.453-5.6406 7.1875 0 11.375 5.6562 4.2031 5.6719 4.2031 15.438 0 9.7188-4.2031 15.406-4.1875 5.6875-11.375 5.6875zm0 7.6094q11.719 0 18.406-7.625 6.7031-7.6094 6.7031-21.078 0-13.422-6.7031-21.078-6.6875-7.6406-18.406-7.6406-11.766 0-18.438 7.6406-6.6562 7.6562-6.6562 21.078 0 13.469 6.6562 21.078 6.6719 7.625 18.438 7.625z"/>
<path id="w" d="m37.109 75.984v-7.4844h-8.5938q-4.8281 0-6.7188-1.9531-1.875-1.9531-1.875-7.0312v-4.8281h14.797v-6.9844h-14.797v-47.703h-9.0312v47.703h-8.5938v6.9844h8.5938v3.8125q0 9.125 4.25 13.297 4.25 4.1875 13.469 4.1875z"/>
<path id="m" d="m9.4219 54.688h8.9844v-54.688h-8.9844zm0 21.297h8.9844v-11.391h-8.9844z"/>
<path id="p" d="m9.4219 75.984h8.9844v-75.984h-8.9844z"/>
<path id="t" d="m8.5 21.578v33.109h8.9844v-32.766q0-7.7656 3.0156-11.656 3.0312-3.875 9.0938-3.875 7.2656 0 11.484 4.6406 4.2344 4.6406 4.2344 12.656v31h8.9844v-54.688h-8.9844v8.4062q-3.2656-4.9844-7.5938-7.4062-4.3125-2.4219-10.031-2.4219-9.4219 0-14.312 5.8594-4.875 5.8594-4.875 17.141zm22.609 34.422z"/>
<path id="i" d="m44.281 53.078v-8.5q-3.7969 1.9531-7.9062 2.9219-4.0938 0.98438-8.5 0.98438-6.6875 0-10.031-2.0469t-3.3438-6.1562q0-3.125 2.3906-4.9062t9.625-3.3906l3.0781-0.6875q9.5625-2.0469 13.594-5.7812t4.0312-10.422q0-7.625-6.0312-12.078-6.0312-4.4375-16.578-4.4375-4.3906 0-9.1562 0.85938t-10.031 2.5625v9.2812q4.9844-2.5938 9.8125-3.8906 4.8281-1.2812 9.5781-1.2812 6.3438 0 9.75 2.1719 3.4219 2.1719 3.4219 6.125 0 3.6562-2.4688 5.6094-2.4531 1.9531-10.812 3.7656l-3.125 0.73438q-8.3438 1.75-12.062 5.3906-3.7031 3.6406-3.7031 9.9844 0 7.7188 5.4688 11.906 5.4688 4.2031 15.531 4.2031 4.9688 0 9.3594-0.73438 4.4062-0.71875 8.1094-2.1875z"/>
<path id="s" d="m31 75.875q-6.5312-11.219-9.7188-22.219-3.1719-10.984-3.1719-22.266 0-11.266 3.2031-22.328t9.6875-22.25h-7.8125q-7.3125 11.484-10.953 22.562t-3.6406 22.016q0 10.891 3.6094 21.922 3.625 11.047 10.984 22.562z"/>
<path id="n" d="m45.406 46.391v29.594h8.9844v-75.984h-8.9844v8.2031q-2.8281-4.875-7.1562-7.25-4.3125-2.375-10.375-2.375-9.9062 0-16.141 7.9062-6.2188 7.9219-6.2188 20.812t6.2188 20.797q6.2344 7.9062 16.141 7.9062 6.0625 0 10.375-2.375 4.3281-2.3594 7.1562-7.2344zm-30.609-19.094q0-9.9062 4.0781-15.547t11.203-5.6406 11.219 5.6406q4.1094 5.6406 4.1094 15.547t-4.1094 15.547q-4.0938 5.6406-11.219 5.6406t-11.203-5.6406-4.0781-15.547z"/>
<path id="v" d="m9.0781 75.984h9.0312v-44.875l26.812 23.578h11.469l-29-25.578 30.234-29.109h-11.719l-27.797 26.703v-26.703h-9.0312z"/>
<path id="ad" d="m25.391 72.906h8.2969l-25.391-82.188h-8.2969z"/>
<path id="o" d="m32.172-5.0781q-3.7969-9.7656-7.4219-12.734-3.6094-2.9844-9.6562-2.9844h-7.1875v7.5156h5.2812q3.7031 0 5.75 1.7656 2.0625 1.75 4.5469 8.2969l1.6094 4.0938-22.109 53.812h9.5156l17.094-42.766 17.094 42.766h9.5156z"/>
<path id="r" d="m8.0156 75.875h7.8125q7.3125-11.516 10.953-22.562 3.6406-11.031 3.6406-21.922 0-10.938-3.6406-22.016t-10.953-22.562h-7.8125q6.4844 11.188 9.6875 22.25t3.2031 22.328q0 11.281-3.2031 22.266-3.2031 11-9.6875 22.219z"/>
</defs>
<g transform="translate(354.59 45.398) scale(.1 -.1)">
<use xlink:href="#h"/>
<use x="41.113281" xlink:href="#k"/>
<use x="102.392578" xlink:href="#u"/>
<use x="141.601562" xlink:href="#c"/>
<use x="203.125" xlink:href="#DejaVuSans-20"/>
<use x="234.912109" xlink:href="#l"/>
<use x="296.09375" xlink:href="#w"/>
<use x="331.298828" xlink:href="#DejaVuSans-20"/>
<use x="363.085938" xlink:href="#w"/>
<use x="398.291016" xlink:href="#k"/>
<use x="459.570312" xlink:href="#m"/>
<use x="487.353516" xlink:href="#p"/>
<use x="515.136719" xlink:href="#t"/>
<use x="578.515625" xlink:href="#h"/>
<use x="619.597656" xlink:href="#c"/>
<use x="681.121094" xlink:href="#i"/>
<use x="733.220703" xlink:href="#DejaVuSans-20"/>
<use x="765.007812" xlink:href="#s"/>
<use x="804.021484" xlink:href="#n"/>
<use x="867.498047" xlink:href="#m"/>
<use x="895.28125" xlink:href="#i"/>
<use x="947.380859" xlink:href="#v"/>
<use x="1005.291016" xlink:href="#i"/>
<use x="1057.390625" xlink:href="#ad"/>
<use x="1091.082031" xlink:href="#o"/>
<use x="1150.261719" xlink:href="#h"/>
<use x="1191.375" xlink:href="#r"/>
</g>
<path d="m326.59 60.077h20v-7h-20z" fill="#0766aa" fill-opacity=".2" stroke="#0766aa" stroke-opacity=".2"/>
<defs>
<path id="ak" d="m48.688 27.297q0 9.9062-4.0781 15.547t-11.203 5.6406q-7.1406 0-11.219-5.6406t-4.0781-15.547 4.0781-15.547 11.219-5.6406q7.125 0 11.203 5.6406t4.0781 15.547zm-30.578 19.094q2.8438 4.875 7.1562 7.2344 4.3281 2.375 10.328 2.375 9.9688 0 16.188-7.9062 6.2344-7.9062 6.2344-20.797t-6.2344-20.812q-6.2188-7.9062-16.188-7.9062-6 0-10.328 2.375-4.3125 2.375-7.1562 7.25v-8.2031h-9.0312v75.984h9.0312z"/>
<path id="ag" d="m2.9844 54.688h9.5156l17.094-45.891 17.094 45.891h9.5156l-20.516-54.688h-12.203z"/>
</defs>
<g transform="translate(354.59 60.077) scale(.1 -.1)">
<use xlink:href="#n"/>
<use x="63.476562" xlink:href="#m"/>
<use x="91.259766" xlink:href="#i"/>
<use x="143.359375" xlink:href="#v"/>
<use x="201.269531" xlink:href="#i"/>
<use x="253.369141" xlink:href="#DejaVuSans-20"/>
<use x="285.15625" xlink:href="#l"/>
<use x="346.337891" xlink:href="#ak"/>
<use x="409.814453" xlink:href="#i"/>
<use x="461.914062" xlink:href="#c"/>
<use x="523.4375" xlink:href="#h"/>
<use x="564.550781" xlink:href="#ag"/>
<use x="623.730469" xlink:href="#c"/>
<use x="685.253906" xlink:href="#n"/>
</g>
<path d="m40.603 375.64h446.02v-189.1h-446.02z" fill="#fff"/>
<path d="m40.603 375.64v-189.1" clip-path="url(#e)" fill="none" stroke="#b0b0b0" stroke-linecap="square" stroke-width=".8"/>
<use x="40.603125" y="375.64" stroke="#000000" stroke-width=".8" xlink:href="#g"/>
<g transform="translate(37.422 390.24) scale(.1 -.1)">
<use xlink:href="#d"/>
</g>
<path d="m172.88 375.64v-189.1" clip-path="url(#e)" fill="none" stroke="#b0b0b0" stroke-linecap="square" stroke-width=".8"/>
<use x="172.875752" y="375.64" stroke="#000000" stroke-width=".8" xlink:href="#g"/>
<g transform="translate(169.69 390.24) scale(.1 -.1)">
<use xlink:href="#f"/>
</g>
<path d="m305.15 375.64v-189.1" clip-path="url(#e)" fill="none" stroke="#b0b0b0" stroke-linecap="square" stroke-width=".8"/>
<use x="305.148379" y="375.64" stroke="#000000" stroke-width=".8" xlink:href="#g"/>
<g transform="translate(301.97 390.24) scale(.1 -.1)">
<use xlink:href="#q"/>
</g>
<path d="m437.42 375.64v-189.1" clip-path="url(#e)" fill="none" stroke="#b0b0b0" stroke-linecap="square" stroke-width=".8"/>
<use x="437.421007" y="375.64" stroke="#000000" stroke-width=".8" xlink:href="#g"/>
<g transform="translate(434.24 390.24) scale(.1 -.1)">
<use xlink:href="#ac"/>
</g>
<defs>
<path id="at" d="m34.188 63.188-13.391-36.281h26.812zm-5.5781 9.7188h11.188l27.781-72.906h-10.25l-6.6406 18.703h-32.859l-6.6406-18.703h-10.406z"/>
<path id="aj" d="m45.406 27.984q0 9.7656-4.0312 15.125-4.0156 5.375-11.297 5.375-7.2188 0-11.25-5.375-4.0312-5.3594-4.0312-15.125 0-9.7188 4.0312-15.094t11.25-5.375q7.2812 0 11.297 5.375 4.0312 5.375 4.0312 15.094zm8.9844-21.203q0-13.953-6.2031-20.766-6.1875-6.8125-18.984-6.8125-4.7344 0-8.9375 0.70312t-8.1562 2.1719v8.7344q3.9531-2.1406 7.8125-3.1562 3.8594-1.0312 7.8594-1.0312 8.8438 0 13.234 4.6094t4.3906 13.938v4.4531q-2.7812-4.8438-7.125-7.2344t-10.406-2.3906q-10.047 0-16.203 7.6562-6.1562 7.6719-6.1562 20.328 0 12.688 6.1562 20.344 6.1562 7.6719 16.203 7.6719 6.0625 0 10.406-2.3906t7.125-7.2188v8.2969h8.9844z"/>
<path id="ah" d="m18.109 8.2031v-29h-9.0312v75.484h9.0312v-8.2969q2.8438 4.875 7.1562 7.2344 4.3281 2.375 10.328 2.375 9.9688 0 16.188-7.9062 6.2344-7.9062 6.2344-20.797t-6.2344-20.812q-6.2188-7.9062-16.188-7.9062-6 0-10.328 2.375-4.3125 2.375-7.1562 7.25zm30.578 19.094q0 9.9062-4.0781 15.547t-11.203 5.6406q-7.1406 0-11.219-5.6406t-4.0781-15.547 4.0781-15.547 11.219-5.6406q7.125 0 11.203 5.6406t4.0781 15.547z"/>
<path id="af" d="m4.2031 54.688h8.9844l11.234-42.672 11.172 42.672h10.594l11.234-42.672 11.188 42.672h8.9844l-14.312-54.688h-10.594l-11.766 44.828-11.812-44.828h-10.609z"/>
<path id="aw" d="m4.8906 31.391h26.312v-8h-26.312z"/>
<path id="ai" d="m54.891 33.016v-33.016h-8.9844v32.719q0 7.7656-3.0312 11.609-3.0312 3.8594-9.0781 3.8594-7.2812 0-11.484-4.6406-4.2031-4.625-4.2031-12.641v-30.906h-9.0312v54.688h9.0312v-8.5q3.2344 4.9375 7.5938 7.375 4.375 2.4375 10.094 2.4375 9.4219 0 14.25-5.8281 4.8438-5.8281 4.8438-17.156z"/>
</defs>
<g transform="translate(209.62 403.92) scale(.1 -.1)">
<use xlink:href="#at"/>
<use x="68.408203" xlink:href="#aj"/>
<use x="131.884766" xlink:href="#c"/>
<use x="193.408203" xlink:href="#DejaVuSans-20"/>
<use x="225.195312" xlink:href="#s"/>
<use x="264.208984" xlink:href="#ah"/>
<use x="327.685547" xlink:href="#l"/>
<use x="388.867188" xlink:href="#af"/>
<use x="470.654297" xlink:href="#c"/>
<use x="532.177734" xlink:href="#h"/>
<use x="573.197266" xlink:href="#aw"/>
<use x="609.296875" xlink:href="#l"/>
<use x="670.478516" xlink:href="#ai"/>
<use x="733.857422" xlink:href="#DejaVuSans-20"/>
<use x="765.644531" xlink:href="#o"/>
<use x="824.824219" xlink:href="#c"/>
<use x="886.347656" xlink:href="#k"/>
<use x="947.626953" xlink:href="#h"/>
<use x="988.740234" xlink:href="#i"/>
<use x="1040.839844" xlink:href="#r"/>
</g>
<path d="m40.603 375.64h446.02" clip-path="url(#e)" fill="none" stroke="#b0b0b0" stroke-linecap="square" stroke-width=".8"/>
<use x="40.603125" y="375.64" stroke="#000000" stroke-width=".8" xlink:href="#b"/>
<g transform="translate(27.241 379.44) scale(.1 -.1)">
<use xlink:href="#d"/>
</g>
<path d="m40.603 328.36h446.02" clip-path="url(#e)" fill="none" stroke="#b0b0b0" stroke-linecap="square" stroke-width=".8"/>
<use x="40.603125" y="328.364202" stroke="#000000" stroke-width=".8" xlink:href="#b"/>
<g transform="translate(27.241 332.16) scale(.1 -.1)">
<use xlink:href="#ab"/>
</g>
<path d="m40.603 281.09h446.02" clip-path="url(#e)" fill="none" stroke="#b0b0b0" stroke-linecap="square" stroke-width=".8"/>
<use x="40.603125" y="281.088405" stroke="#000000" stroke-width=".8" xlink:href="#b"/>
<defs>
<path id="av" d="m31.781 34.625q-7.0312 0-11.062-3.7656-4.0156-3.7656-4.0156-10.344 0-6.5938 4.0156-10.359 4.0312-3.7656 11.062-3.7656t11.078 3.7812q4.0625 3.7969 4.0625 10.344 0 6.5781-4.0312 10.344-4.0156 3.7656-11.109 3.7656zm-9.8594 4.1875q-6.3438 1.5625-9.8906 5.9062-3.5312 4.3594-3.5312 10.609 0 8.7344 6.2188 13.812 6.2344 5.0781 17.062 5.0781 10.891 0 17.094-5.0781t6.2031-13.812q0-6.25-3.5469-10.609-3.5312-4.3438-9.8281-5.9062 7.125-1.6562 11.094-6.5 3.9844-4.8281 3.9844-11.797 0-10.609-6.4688-16.281-6.4688-5.6562-18.531-5.6562-12.047 0-18.531 5.6562-6.4688 5.6719-6.4688 16.281 0 6.9688 4 11.797 4.0156 4.8438 11.141 6.5zm-3.6094 15.578q0-5.6562 3.5312-8.8281 3.5469-3.1719 9.9375-3.1719 6.3594 0 9.9375 3.1719 3.5938 3.1719 3.5938 8.8281 0 5.6719-3.5938 8.8438-3.5781 3.1719-9.9375 3.1719-6.3906 0-9.9375-3.1719-3.5312-3.1719-3.5312-8.8438z"/>
</defs>
<g transform="translate(27.241 284.89) scale(.1 -.1)">
<use xlink:href="#av"/>
</g>
<path d="m40.603 233.81h446.02" clip-path="url(#e)" fill="none" stroke="#b0b0b0" stroke-linecap="square" stroke-width=".8"/>
<use x="40.603125" y="233.812607" stroke="#000000" stroke-width=".8" xlink:href="#b"/>
<g transform="translate(20.878 237.61) scale(.1 -.1)">
<use xlink:href="#f"/>
<use x="63.623047" xlink:href="#q"/>
</g>
<path d="m40.603 186.54h446.02" clip-path="url(#e)" fill="none" stroke="#b0b0b0" stroke-linecap="square" stroke-width=".8"/>
<use x="40.603125" y="186.536809" stroke="#000000" stroke-width=".8" xlink:href="#b"/>
<g transform="translate(20.878 190.34) scale(.1 -.1)">
<use xlink:href="#f"/>
<use x="63.623047" xlink:href="#z"/>
</g>
<defs>
<path id="ar" d="m9.8125 72.906h41.891v-8.3125h-32.031v-21.484h28.906v-8.2969h-28.906v-34.812h-9.8594z"/>
<path id="an" d="m44.391 34.188q3.1719-1.0781 6.1719-4.5938t6.0312-9.6719l10.016-19.922h-10.609l-9.3125 18.703q-3.625 7.3281-7.0156 9.7188t-9.25 2.3906h-10.75v-30.812h-9.8594v72.906h22.266q12.5 0 18.656-5.2344 6.1562-5.2188 6.1562-15.766 0-6.8906-3.2031-11.438-3.2031-4.5312-9.2969-6.2812zm-24.719 30.609v-25.875h12.406q7.125 0 10.766 3.2969t3.6406 9.6875-3.6406 9.6406-10.766 3.25z"/>
<path id="ax" d="m72.703 32.078q-4.25 0-6.6719-3.6094-2.4062-3.6094-2.4062-10.062 0-6.3438 2.4062-9.9844 2.4219-3.6406 6.6719-3.6406 4.1562 0 6.5625 3.6406 2.4219 3.6406 2.4219 9.9844 0 6.4062-2.4219 10.031-2.4062 3.6406-6.5625 3.6406zm0 6.2031q7.7188 0 12.25-5.375 4.5469-5.3594 4.5469-14.5 0-9.125-4.5625-14.484-4.5625-5.3438-12.234-5.3438-7.8125 0-12.359 5.3438-4.5312 5.3594-4.5312 14.484 0 9.1875 4.5625 14.531t12.328 5.3438zm-50.391 29.734q-4.2031 0-6.625-3.6406-2.4062-3.625-2.4062-9.9844 0-6.4375 2.3906-10.062 2.3906-3.6094 6.6406-3.6094t6.6562 3.6094q2.4219 3.625 2.4219 10.062 0 6.2969-2.4375 9.9531-2.4375 3.6719-6.6406 3.6719zm44.094 6.2031h7.8125l-45.609-75.641h-7.8125zm-44.094 0q7.7188 0 12.297-5.3438 4.5938-5.3438 4.5938-14.484 0-9.2188-4.5625-14.547t-12.328-5.3281-12.281 5.3438q-4.5156 5.3594-4.5156 14.531 0 9.0938 4.5312 14.453 4.5469 5.375 12.266 5.375z"/>
</defs>
<g transform="translate(14.798 334.34) rotate(-90) scale(.1 -.1)">
<use xlink:href="#ar"/>
<use x="57.378906" xlink:href="#k"/>
<use x="118.658203" xlink:href="#m"/>
<use x="146.441406" xlink:href="#p"/>
<use x="174.224609" xlink:href="#t"/>
<use x="237.603516" xlink:href="#h"/>
<use x="278.685547" xlink:href="#c"/>
<use x="340.208984" xlink:href="#DejaVuSans-20"/>
<use x="371.996094" xlink:href="#an"/>
<use x="441.447266" xlink:href="#k"/>
<use x="502.726562" xlink:href="#u"/>
<use x="541.935547" xlink:href="#c"/>
<use x="603.458984" xlink:href="#DejaVuSans-20"/>
<use x="635.246094" xlink:href="#s"/>
<use x="674.259766" xlink:href="#ax"/>
<use x="769.279297" xlink:href="#ad"/>
<use x="802.970703" xlink:href="#o"/>
<use x="862.150391" xlink:href="#c"/>
<use x="923.673828" xlink:href="#k"/>
<use x="984.953125" xlink:href="#h"/>
<use x="1026.066406" xlink:href="#r"/>
</g>
<path d="m73.798 331.26 0.91915 1.4036 1.3787 1.7432 4.8255 5.6327 3.4468 3.9235 0.68936 0.45244 0.91915 0.28149 2.0681 0.21311 2.2979 0.015337 17.004-0.78773 3.6766-0.2209 1.1489-0.38506 0.68936-0.34364 2.5277-2.8022 2.5277-2.4551 2.2979-1.9291 2.2979-1.6408 2.2979-1.3525 2.0681-0.97083 2.0681-0.73655 2.0681-0.49885 2.0681-0.26703 2.2979-0.038719 8.5021 0.24353 3.4468-3.9555 4.8255-5.3786 4.5958-6.2 1.8383-2.4063 2.2979-3.7881 2.0681-3.0186 2.0681-2.6386 2.7575-3.3981 3.6766-7.5903 5.0553-10.231 2.7575-7.6155 2.9872-10.04 2.2979-7.0743 2.0681-5.7357 1.8383-4.5325 1.8383-3.9715 1.3787-2.8952 1.8383-5.2753 1.8383-4.5852 2.9872-6.5465 1.1489-2.1914 1.1489-1.7605 1.1489-1.3263 0.91915-0.74902 0.91915-0.50602 0.91915-0.27477 1.1489-0.050829 0.91915 0.21168 0.91915 0.44286 0.91915 0.67401 1.1489 1.1675 0.68936 0.765 0.91915 0.14642 0.91915 0.33288 1.1489 0.67763 1.1489 0.9674 1.1489 1.256 1.3787 1.8852 1.3787 2.2972 1.6085 3.1768 1.6085 3.7283 1.6085 4.2448 5.0553 14.597 2.0681 6.9305 1.8383 6.9582 2.2979 8.9006 3.217 10.341 5.0553 16.537 5.0553 12.316 5.5149 14.348 4.8255 12.698 2.0681 2.3425 1.8383 1.7449 1.3787 1.0313 0.68936 0.16394 3.217-0.002663 3.217-0.22829 2.7575-0.39348 2.0681-0.53851 2.0681-0.75913 2.2979-1.0905 1.8383-1.082 1.8383-1.3368 2.0681-1.7875 5.0553-4.6218 2.2979-1.6794 2.0681-1.2726 2.2979-1.0815 2.2979-0.82879 2.0681-0.48728 1.8383-0.21737 2.0681-0.007269 2.0681 0.23849 2.0681 0.48396 2.0681 0.72545 2.0681 0.96289 2.2979 1.3373 2.2979 1.599 2.2979 1.8696 2.2979 2.145 2.5277 2.6679 4.8255 5.501 11.719 13.545 2.2979 2.1764 2.0681 1.6916 1.6085 1.0887 1.6085 0.80735 1.3787 0.44897 1.3787 0.21035 1.8383-0.017588 12.409-0.42654 10.8-0.58608 1.8383-0.35186 1.8383-0.57963 1.8383-0.80008 2.0681-1.1519 2.0681-1.4146 2.0681-1.6762 3.9064-3.3149 2.9872-2.225 2.7575-1.7954 2.7575-1.5172 2.5277-1.1482 2.2979-0.82639 2.5277-0.7144 2.5277-0.48186 2.5277-0.24278 2.2979-0.005056 2.5277 0.21448 2.2979 0.4179 2.2979 0.64193 1.8383 0.72721 2.5277 1.2384 2.2979 1.3636 2.2979 1.6429 2.2979 1.9195 2.5277 2.4073 2.5277 2.714 2.5277 3.0439 3.4468 4.2161 2.0681 2.1397 1.8383 1.5988 1.6085 1.1276 1.6085 0.84352 1.3787 0.47072 1.3787 0.21067 3.4468 0.007872h8.0426v0" clip-path="url(#e)" fill="none" stroke="#d2691e" stroke-linecap="square" stroke-width="1.5"/>
<path d="m40.603 375.64v-189.1" fill="none" stroke="#000" stroke-linecap="square" stroke-width=".8"/>
<path d="m486.62 375.64v-189.1" fill="none" stroke="#000" stroke-linecap="square" stroke-width=".8"/>
<path d="m40.603 375.64h446.02" fill="none" stroke="#000" stroke-linecap="square" stroke-width=".8"/>
<path d="m40.603 186.54h446.02" fill="none" stroke="#000" stroke-linecap="square" stroke-width=".8"/>
<defs>
<path id="ap" d="m9.8125 72.906h14.703l18.594-49.609 18.703 49.609h14.703v-72.906h-9.625v64.016l-18.797-50h-9.9062l-18.797 50v-64.016h-9.5781z"/>
<path id="au" d="m11.719 12.406h10.297v-12.406h-10.297zm0 39.297h10.297v-12.391h-10.297z"/>
<path id="x" d="m3.3281 72.906h9.9531l15.328-61.625 15.281 61.625h11.094l15.328-61.625 15.281 61.625h10.016l-18.312-72.906h-12.406l-15.375 63.281-15.531-63.281h-12.406z"/>
<path id="y" d="m19.672 64.797v-56.688h11.922q15.094 0 22.094 6.8281 7 6.8438 7 21.594 0 14.641-7 21.453t-22.094 6.8125zm-9.8594 8.1094h20.266q21.188 0 31.094-8.8125 9.9219-8.8125 9.9219-27.562 0-18.859-9.9688-27.703-9.9531-8.8281-31.047-8.8281h-20.266z"/>
<path id="as" d="m64.406 67.281v-10.391q-4.9844 4.6406-10.625 6.9219-5.6406 2.2969-11.984 2.2969-12.5 0-19.141-7.6406t-6.6406-22.094q0-14.406 6.6406-22.047t19.141-7.6406q6.3438 0 11.984 2.2969t10.625 6.9375v-10.312q-5.1719-3.5156-10.969-5.2812-5.7812-1.75-12.219-1.75-16.562 0-26.094 10.125-9.5156 10.141-9.5156 27.672 0 17.578 9.5156 27.703 9.5312 10.141 26.094 10.141 6.5312 0 12.312-1.7344 5.7969-1.7344 10.875-5.2031z"/>
<path id="aq" d="m9.8125 72.906h9.8594v-64.609h35.5v-8.2969h-45.359z"/>
<path id="ao" d="m19.672 64.797v-27.391h12.406q6.8906 0 10.641 3.5625 3.7656 3.5625 3.7656 10.156 0 6.5469-3.7656 10.109-3.75 3.5625-10.641 3.5625zm-9.8594 8.1094h22.266q12.266 0 18.531-5.5469 6.2812-5.5469 6.2812-16.234 0-10.797-6.2812-16.312-6.2656-5.5156-18.531-5.5156h-12.406v-29.297h-9.8594z"/>
<path id="am" d="m28.609 0-27.828 72.906h10.297l23.109-61.375 23.141 61.375h10.25l-27.781-72.906z"/>
<path id="al" d="m6.2969 72.906h10.594l18.125-27.109 18.203 27.109h10.594l-23.438-35.016 25-37.891h-10.594l-20.5 31-20.656-31h-10.641l26.016 38.922z"/>
</defs>
<g transform="translate(168.35 16.318) scale(.12 -.12)">
<use xlink:href="#ap"/>
<use x="86.279297" xlink:href="#l"/>
<use x="147.460938" xlink:href="#n"/>
<use x="210.9375" xlink:href="#c"/>
<use x="272.460938" xlink:href="#p"/>
<use x="300.244141" xlink:href="#au"/>
<use x="333.935547" xlink:href="#DejaVuSans-20"/>
<use x="365.722656" xlink:href="#x"/>
<use x="464.599609" xlink:href="#y"/>
<use x="541.601562" xlink:href="#as"/>
<use x="611.425781" xlink:href="#DejaVuSans-20"/>
<use x="643.212891" xlink:href="#x"/>
<use x="742.089844" xlink:href="#y"/>
<use x="819.091797" xlink:href="#aa"/>
<use x="882.714844" xlink:href="#d"/>
<use x="946.337891" xlink:href="#d"/>
<use x="1009.960938" xlink:href="#d"/>
<use x="1073.583984" xlink:href="#aq"/>
<use x="1129.296875" xlink:href="#ao"/>
<use x="1189.599609" xlink:href="#am"/>
<use x="1258.007812" xlink:href="#al"/>
</g>
<defs>
<clipPath id="j">
<rect x="40.603" y="28.8" width="446.02" height="141.83"/>
</clipPath>
<clipPath id="e">
<rect x="40.603" y="186.54" width="446.02" height="189.1"/>
</clipPath>
</defs>
</svg>
