<?xml version="1.0" encoding="UTF-8"?>
<!DOCTYPE svg  PUBLIC '-//W3C//DTD SVG 1.1//EN'  'http://www.w3.org/Graphics/SVG/1.1/DTD/svg11.dtd'>
<svg width="497pt" height="413pt" version="1.1" viewBox="0 0 497 413" xmlns="http://www.w3.org/2000/svg" xmlns:xlink="http://www.w3.org/1999/xlink">
<defs>
<style type="text/css">*{stroke-linecap:butt;stroke-linejoin:round;}</style>
</defs>
<path d="m0 413.2h497.32v-413.2h-497.32z" fill="#fff"/>
<path d="m40.603 170.63h446.02v-141.83h-446.02z" fill="#fff"/>
<defs>
<path id="ae" d="m74.044-235.45v-39.576l0.22992-0.070703 0.22992-0.098897 0.22992-0.09794 0.22992-0.097 0.22992-0.09608 0.22992-0.095175 0.22992-0.094288 0.22992-0.093417 0.22992-0.092562 0.22992-0.091722 0.22992-0.090897 0.22992-0.090086 0.22992-0.089291 0.22992-0.088508 0.22992-0.08774 0.22992-0.086984 0.22992-0.086242 0.22992-0.085511 0.22992-0.084792 0.22992-0.084087 0.22992-0.083392 0.22992-0.082708 0.22992-0.082036 0.22992-0.081374 0.22992-0.080723 0.22992-0.080083 0.22992-0.079451 0.22992-0.07883 0.22992-0.078219 0.22992-0.077616 0.22992-0.077023 0.22992-0.076439 0.22992-0.075863 0.22992-0.075297 0.22992-0.074792 0.22992-0.07431 0.22992-0.073832 0.22992-0.073363 0.22992-0.072898 0.22992-0.07244 0.22992-0.071989 0.22992-0.071542 0.22992-0.071103 0.22992-0.070667 0.22992-0.070239 0.22992-0.069766 0.22992-0.069298 0.22992-0.068837 0.22992-0.068382 0.22992-0.067933 0.22992-0.067491 0.22992-0.067053 0.22992-0.066621 0.22992-0.066196 0.22992-0.065775 0.22992-0.065359 0.22992-0.06495 0.22992-0.064545 0.22992-0.064145 0.22992-0.06375 0.22992-0.063359 0.22992-0.062975 0.22992-0.062594 0.22992-0.062218 0.22992-0.061846 0.22992-0.06148 0.22992-0.061116 0.22992-0.060758 0.22992-0.060404 0.22992-0.060054 0.22992-0.059708 0.22992-0.059365 0.22992-0.059027 0.22992-0.058693 0.22992-0.058363 0.22992-0.058036 0.22992-0.057712 0.22992-0.057393 0.22992-0.057077 0.22992-0.056764 0.22992-0.056455 0.22992-0.056149 0.22992-0.055847 0.22992-0.055548 0.22992-0.055252 0.22992-0.054958 0.22992-0.05467 0.22992-0.071666 0.22992-0.071162 0.22992-0.070665 0.22992-0.070176 0.22992-0.069692 0.22992-0.069215 0.22992-0.068746 0.22992-0.068281 0.22992-0.067823 0.22992-0.067372 0.22992-0.066926 0.22992-0.066486 0.22992-0.066052 0.22992-0.065622 0.22992-0.0652 0.22992-0.064782 0.22992-0.064369 0.22992-0.063962 0.22992-0.06356 0.22992-0.063163 0.22992-0.06277 0.22992-0.062382 0.22992-0.062 0.22992-0.061621 0.22992-0.061248 0.22992-0.060878 0.22992-0.060514 0.22992-0.060153 0.22992-0.059797 0.22992-0.059444 0.22992-0.059097 0.22992-0.058753 0.22992-0.058412 0.22992-0.058077 0.22992-0.057744 0.22992-0.057415 0.22992-0.057091 0.22992-0.056769 0.22992-0.056451 0.22992-0.056138 0.22992-0.055826 0.22992-0.055519 0.22992-0.055215 0.22992-0.054914 0.22992-0.054617 0.22992-0.054322 0.22992-0.054031 0.22992-0.053743 0.22992-0.053457 0.22992-0.053176 0.22992-0.052896 0.22992-0.05262 0.22992-0.052347 0.22992-0.052075 0.22992-0.051808 0.22992-0.051543 0.22992-0.05128 0.22992-0.05102 0.22992-0.050763 0.22992-0.050508 0.22992-0.050256 0.22992-0.050007 0.22992-0.049758 0.22992-0.049514 0.22992-0.049272 0.22992-0.049031 0.22992-0.048794 0.22992-0.048557 0.22992-0.048325 0.22992-0.048093 0.22992-0.047864 0.22992-0.047638 0.22992-0.047413 0.22992-0.04719 0.22992-0.046969 0.22992-0.046752 0.22992-0.046534 0.22992-0.046321 0.22992-0.046111 0.22992-0.045902 0.22992-0.045695 0.22992-0.04549 0.22992-0.045287 0.22992-0.045086 0.22992-0.044886 0.22992-0.044688 0.22992-0.044491 0.22992-0.044298 0.22992-0.044104 0.22992-0.043914 0.22992-0.043724 0.22992-0.043536 0.22992-0.04335 0.22992-0.043165 0.22992-0.042983 0.22992-0.0428 0.22992-0.042621 0.22992-0.042442 0.22992-0.042264 0.22992-0.04209 0.22992-0.041915 0.22992-0.041742 0.22992-0.041571 0.22992-0.041401 0.22992-0.041232 0.22992-0.041065 0.22992-0.0409 0.22992-0.040734 0.22992-0.040572 0.22992-0.040409 0.22992-0.040249 0.22992-0.04009 0.22992-0.039931 0.22992-0.039774 0.22992-0.039619 0.22992-0.039464 0.22992-0.039311 0.22992-0.039159 0.22992-0.039008 0.22992-0.038858 0.22992-0.038709 0.22992-0.038561 0.22992-0.038416 0.22992-0.03827 0.22992-0.038125 0.22992-0.037983 0.22992-0.03784 0.22992-0.0377 0.22992-0.037559 0.22992-0.03742 0.22992-0.037282 0.22992-0.037146 0.22992-0.037009 0.22992-0.036875 0.22992-0.03674 0.22992-0.036607 0.22992-0.036475 0.22992-0.036344 0.22992-0.036214 0.22992-0.036085 0.22992-0.035956 0.22992-0.035829 0.22992-0.035702 0.22992-0.035576 0.22992-0.035451 0.22992-0.035328 0.22992-0.035204 0.22992-0.035082 0.22992-0.034961 0.22992-0.03484 0.22992-0.034721 0.22992-0.034601 0.22992-0.034483 0.22992-0.034366 0.22992-0.03425 0.22992-0.034133 0.22992-0.034019 0.22992-0.033904 0.22992-0.033791 0.22992-0.033678 0.22992-0.033566 0.22992-0.033455 0.22992-0.033344 0.22992-0.033235 0.22992-0.033125 0.22992-0.033017 0.22992-0.032909 0.22992-0.032803 0.22992-0.032696 0.22992-0.03259 0.22992-0.032486 0.22992-0.032381 0.22992-0.032278 0.22992-0.032174 0.22992-0.032073 0.22992-0.03197 0.22992-0.03187 0.22992-0.031769 0.22992-0.03167 0.22992-0.03157 0.22992-0.031472 0.22992-0.031374 0.22992-0.031276 0.22992-0.03118 0.22992-0.031084 0.22992-0.030988 0.22992-0.030893 0.22992-0.029822 0.22992-0.021605 0.22992-0.019662 0.22992-0.01522 0.22992-0.01516 0.22992-0.015103 0.22992-0.015044 0.22992-0.014986 0.22992-0.014929 0.22992-0.014871 0.22992-0.014813 0.22992-0.014757 0.22992-0.0147 0.22992-0.014643 0.22992-0.014587 0.22992-0.01453 0.22992-0.014475 0.22992-0.014419 0.22992-0.007225 0.22992-0.007217 0.22992-0.007209 0.22992-0.007201 0.22992-0.007193 0.22992-0.007185 0.22992-0.007178 0.22992-0.007169 0.22992-0.007162 0.22992-0.007153 0.22992-0.007146 0.22992-0.007138 0.22992-0.00713 0.22992-0.007123 0.22992-0.007114 0.22992-0.007107 0.22992-0.007099 0.22992-0.007091 0.22992-0.007083 0.22992-0.007076 0.22992-0.007068 0.22992-0.00706 0.22992-0.007052 0.22992-0.007045 0.22992-0.007037 0.22992-0.00703 0.22992-0.007022 0.22992-0.007014 0.22992-0.007006 0.22992-0.006999 0.22992-0.006991 0.22992-0.006984 0.22992-0.006976 0.22992-0.006968 0.22992-0.006961 0.22992-0.006954 0.22992-0.006946 0.22992-0.006938 0.22992-0.006931 0.22992-0.006923 0.22992-0.006916 0.22992-0.006908 0.22992-0.006901 0.22992-0.006894 0.22992-0.006886 0.22992-0.006878 0.22992-0.006871 0.22992-0.006864 0.22992-0.006856 0.22992-0.006849 0.22992-0.006842 0.22992-0.006834 0.22992-0.006827 0.22992-0.00682 0.22992-0.006812 0.22992-0.006805 0.22992-0.006797 0.22992-0.006789 0.22992-0.006781 0.22992-0.006773 0.22992-0.006766 0.22992-0.006757 0.22992-0.00675 0.22992-0.006741 0.22992-0.006734 0.22992-0.006726 0.22992-0.006718 0.22992-0.00671 0.22992-0.006702 0.22992-0.006695 0.22992-0.006687 0.22992-0.006678 0.22992-0.006672 0.22992-0.006663 0.22992-0.006656 0.22992-0.006648 0.22992-0.00664 0.22992-0.006632 0.22992-0.006625 0.22992-0.006617 0.22992-0.006609 0.22992-0.006602 0.22992-0.006594 0.22992-0.006587 0.22992-0.006579 0.22992-0.006571 8.7369 0.01367 8.507 0.012542 0.22992 3.68e-4 0.22992 4e-4 0.22992 4.33e-4 0.22992 4.65e-4 0.22992 4.85e-4 0.22992 4.87e-4 0.22992 4.9e-4 0.22992 4.92e-4 0.22992 4.95e-4 0.22992 4.98e-4 0.22992 5e-4 0.22992 5.03e-4 0.22992 5.06e-4 0.22992 5.08e-4 0.22992 5.11e-4 0.22992 5.13e-4 0.22992 5.16e-4 0.22992 5.19e-4 0.22992 5.21e-4 0.22992 5.24e-4 0.22992 5.27e-4 0.22992 5.29e-4 0.22992 5.32e-4 0.22992 5.35e-4 0.22992 5.37e-4 0.22992 5.4e-4 0.22992 5.42e-4 0.22992 5.45e-4 0.22992 5.48e-4 0.22992 5.5e-4 0.22992 5.53e-4 0.22992 5.56e-4 0.22992 5.58e-4 0.22992 5.61e-4 0.22992 5.63e-4 0.22992 5.66e-4 0.22992 5.69e-4 0.22992 5.72e-4 0.22992 5.74e-4 0.22992 5.77e-4 0.22992 5.79e-4 0.22992 5.82e-4 0.22992 5.85e-4 0.22992 5.87e-4 0.22992 5.9e-4 0.22992 5.92e-4 0.45984 0.001193 0.22992 6.01e-4 0.22992 6.03e-4 0.22992 6.48e-4 0.22992 7.7e-4 0.22992 7.73e-4 0.22992 7.75e-4 0.22992 7.78e-4 0.22992 7.81e-4 0.22992 7.83e-4 0.22992 7.86e-4 0.22992 7.89e-4 0.22992 7.91e-4 0.22992 7.94e-4 0.22992 7.96e-4 0.22992 7.99e-4 0.22992 8.02e-4 0.22992 8.04e-4 0.45984 0.001617 0.22992 8.13e-4 0.22992 8.15e-4 0.22992 8.17e-4 0.22992 8.21e-4 0.22992 8.23e-4 0.22992 8.25e-4 0.22992 8.28e-4 0.22992 8.31e-4 0.22992 8.34e-4 0.22992 8.36e-4 0.22992 8.39e-4 0.22992 8.42e-4 0.22992 8.44e-4 0.22992 8.47e-4 0.22992 8.49e-4 0.22992 8.52e-4 0.22992 8.55e-4 0.22992 8.57e-4 0.45984 0.001723 0.22992 8.66e-4 0.22992 8.68e-4 0.22992 8.71e-4 0.22992 8.73e-4 0.22992 8.76e-4 0.22992 8.79e-4 0.22992 8.82e-4 0.22992 8.84e-4 0.22992 8.86e-4 0.22992 8.9e-4 0.45984 0.001785 0.45984 0.001791 0.45984 0.001797 0.45984 0.001801 0.22992 9.03e-4 0.45984 0.001811 0.45984 0.001815 0.22992 9.1e-4 0.45984 0.001824 0.22992 9.14e-4 0.45984 0.001833 0.45984 0.001837 0.22992 9.21e-4 0.45984 0.001846 0.45984 0.001852 0.45984 0.001857 0.45984 0.001863 0.22992 9.33e-4 0.45984 0.001871 0.45984 0.001877 0.22992 9.4e-4 0.45984 0.001885 0.45984 0.00189 0.45984 0.001896 0.22992 9.5e-4 0.45984 0.001905 0.22992 9.54e-4 0.45984 0.001913 0.22992 9.58e-4 0.45984 0.001921 0.45984 0.001927 0.22992 9.65e-4 0.45984 0.001935 0.45984 0.001941 0.22992 9.72e-4 0.45984 0.001949 0.22992 9.76e-4 0.22992 9.78e-4 0.45984 0.00196 0.45984 0.001966 0.45984 0.001971 0.45984 0.001977 0.45984 0.001983 0.22992 9.93e-4 0.22992 9.95e-4 0.22992 0.007225 0.22992 0.007232 0.22992 0.007236 0.22992 0.007243 0.22992 0.007248 0.22992 0.007254 0.22992 0.007259 0.22992 0.007265 0.22992 0.007271 0.22992 0.007277 0.22992 0.007282 0.22992 0.007288 0.22992 0.007293 0.22992 0.0073 0.22992 0.007304 0.22992 0.00731 0.22992 0.007314 0.22992 0.00732 0.22992 0.007325 0.22992 0.00733 0.22992 0.007335 0.22992 0.00734 0.22992 0.007345 0.22992 0.007351 0.22992 0.007355 0.22992 0.007361 0.22992 0.007365 0.22992 0.007371 0.22992 0.007376 0.22992 0.007382 0.22992 0.007386 0.22992 0.007392 0.22992 0.007396 0.22992 0.007402 0.22992 0.007407 0.22992 0.007413 0.22992 0.007417 0.22992 0.007423 0.22992 0.007428 0.22992 0.007434 0.22992 0.007438 0.22992 0.007444 0.22992 0.007449 0.22992 0.007454 0.22992 0.00746 0.22992 0.007465 0.22992 0.00747 0.22992 0.007475 0.22992 0.007481 0.22992 0.007486 0.22992 0.007491 0.22992 0.007497 0.22992 0.007502 0.22992 0.007507 0.22992 0.007513 0.22992 0.007518 0.22992 0.007524 0.22992 0.007529 0.22992 0.007534 0.22992 0.007539 0.22992 0.007545 0.22992 0.007551 0.22992 0.007556 0.22992 0.007561 0.22992 0.007567 0.22992 0.007572 0.22992 0.007577 0.22992 0.007583 0.22992 0.007589 0.22992 0.007594 0.22992 0.007599 0.22992 0.007605 0.22992 0.007611 0.22992 0.007616 0.22992 0.007621 0.22992 0.007627 0.22992 0.007632 0.22992 0.007638 0.22992 0.007644 0.22992 0.007649 0.22992 0.007655 0.22992 0.00766 0.22992 0.007666 0.22992 0.007671 0.22992 0.007677 0.22992 0.007683 0.22992 0.007688 0.22992 0.007694 0.22992 0.007699 0.22992 0.007705 0.22992 0.007711 0.22992 0.007716 0.22992 0.007722 0.22992 0.007728 0.22992 0.007733 0.22992 0.007739 0.22992 0.007745 0.22992 0.00775 0.22992 0.007756 0.22992 0.007762 0.22992 0.007768 0.22992 0.007773 0.22992 0.007779 0.22992 0.007785 0.22992 0.007791 0.22992 0.007796 0.22992 0.007802 0.22992 0.007808 0.22992 0.007814 0.22992 0.007819 0.22992 0.007825 0.22992 0.007832 0.22992 0.007836 0.22992 0.007843 0.22992 0.007849 0.22992 0.007858 0.22992 0.007868 0.22992 0.007879 0.22992 0.007882 0.22992 0.007856 0.22992 0.007831 0.22992 0.007805 0.45984 0.015551 0.22992 0.007778 0.22992 0.007787 0.22992 0.007795 0.22992 0.007804 0.22992 0.007812 0.22992 0.00782 0.22992 0.007828 0.22992 0.007837 0.22992 0.007846 0.22992 0.007854 0.22992 0.007862 0.22992 0.007871 0.22992 0.007879 0.22992 0.007888 0.22992 0.007896 0.22992 0.007905 0.22992 0.007913 0.22992 0.007922 0.22992 0.007931 0.22992 0.007938 0.22992 0.007942 0.22992 0.007946 0.22992 0.00795 0.22992 0.007954 0.22992 0.007958 0.22992 0.007961 0.22992 0.007965 0.22992 0.00797 0.22992 0.007973 0.22992 0.007977 0.22992 0.007981 0.22992 0.007984 0.22992 0.007989 0.22992 0.007993 0.22992 0.007996 0.22992 8e-3 0.22992 0.008005 0.22992 0.008008 0.22992 0.008012 0.22992 0.008016 0.22992 0.00802 0.22992 0.008024 0.22992 0.008027 0.22992 0.008032 0.22992 0.008036 0.22992 0.007991 0.22992 0.007858 0.22992 0.007861 0.22992 0.007866 0.22992 0.007869 0.22992 0.007873 0.22992 0.007876 0.22992 0.007881 0.22992 0.007884 0.22992 0.007887 0.22992 0.007892 0.22992 0.007895 0.22992 0.007899 0.22992 0.007903 0.22992 0.007906 0.22992 0.00791 0.22992 0.007914 0.22992 0.007918 0.22992 0.007921 0.22992 0.007926 0.22992 0.007929 0.22992 0.007932 0.22992 0.007937 0.22992 0.00794 0.22992 0.007944 0.22992 0.007948 0.22992 0.007952 0.22992 0.007956 0.22992 0.007959 0.22992 0.007963 0.22992 0.007967 0.22992 0.007971 0.22992 0.007975 0.22992 0.007978 0.22992 0.007982 0.22992 0.007986 0.22992 0.00799 0.22992 0.007994 0.22992 0.007998 0.22992 0.008001 0.22992 0.008006 0.22992 0.008009 0.22992 0.008013 0.22992 0.008017 0.22992 0.008021 0.22992 0.008024 0.22992 0.008029 0.22992 0.008032 0.22992 0.008038 0.22992 0.008044 0.22992 0.008049 0.22992 0.008054 0.22992 0.00806 0.22992 0.008065 0.22992 0.008071 0.22992 0.008076 0.22992 0.008081 0.22992 0.008088 0.22992 0.008092 0.22992 0.008098 0.22992 0.008104 0.22992 0.008109 0.22992 0.008115 0.22992 0.00812 0.22992 0.008126 0.22992 0.008131 0.22992 0.008137 0.22992 0.008143 0.22992 0.008148 0.22992 0.008154 0.22992 0.008159 0.22992 0.008165 0.22992 0.00817 0.22992 0.008177 0.22992 0.008181 0.22992 0.008188 0.22992 0.008193 0.22992 0.008199 0.22992 0.008204 0.22992 0.00821 0.22992 0.008216 0.22992 0.008221 0.22992 0.008227 0.22992 0.008233 0.22992 0.008239 0.22992 0.008244 0.22992 0.00825 0.22992 0.008257 0.22992 0.008265 0.22992 0.008271 0.22992 0.008278 0.22992 0.008285 0.22992 0.008293 0.22992 0.008299 0.22992 0.008307 0.22992 0.008313 0.22992 0.008321 0.22992 0.008328 0.22992 0.008335 0.22992 0.008342 0.22992 0.00835 0.22992 0.008356 0.22992 0.008364 0.22992 0.008371 0.22992 0.008378 0.22992 0.008386 0.22992 0.008392 0.22992 0.0084 0.22992 0.008407 0.22992 0.008415 0.22992 0.008422 0.22992 0.008429 0.22992 0.008436 0.22992 0.008444 0.22992 0.008451 0.22992 0.008458 0.22992 0.008466 0.22992 0.008473 0.22992 0.008481 0.22992 0.008488 0.22992 0.008495 0.22992 0.008503 0.22992 7.26e-4 0.45984 0.001458 0.22992 7.31e-4 0.45984 0.001467 0.45984 0.001471 0.22992 7.38e-4 0.45984 0.001481 0.22992 7.42e-4 0.45984 0.001489 0.22992 7.46e-4 0.45984 0.001497 0.45984 0.001503 0.22992 7.53e-4 0.22992 7.55e-4 0.45984 0.001514 0.45984 0.00152 0.45984 0.001525 0.45984 0.001531 0.22992 7.68e-4 0.22992 8.34e-4 0.22992 9.16e-4 0.22992 9.7e-4 0.22992 9.74e-4 0.22992 9.77e-4 0.22992 9.81e-4 0.22992 9.85e-4 0.22992 9.88e-4 0.22992 9.91e-4 0.22992 9.96e-4 0.22992 9.98e-4 0.22992 0.001003 0.22992 0.001006 0.22992 0.001009 0.22992 0.001013 0.22992 0.001017 0.22992 0.00102 0.22992 0.001024 0.22992 0.001027 0.22992 0.001031 0.22992 0.001035 0.22992 0.001038 0.22992 0.001042 0.22992 0.001045 0.22992 0.001049 0.22992 0.001053 0.22992 0.001056 0.22992 0.001059 0.22992 0.001063 0.22992 0.001067 0.22992 0.001071 0.22992 0.001074 0.22992 0.001077 0.22992 0.001082 0.22992 0.001084 0.22992 0.001089 0.22992 0.001092 0.22992 0.001096 0.22992 0.001099 0.22992 0.001103 0.22992 0.001106 0.22992 0.001111 0.22992 0.001119 0.22992 0.001126 0.22992 0.001133 0.22992 0.00114 0.22992 0.001147 0.22992 0.001155 0.22992 0.001162 0.22992 0.001169 0.22992 0.001176 0.22992 0.001184 0.22992 0.001191 0.22992 0.001198 0.22992 0.001205 0.22992 0.001213 0.22992 0.001219 0.22992 0.001227 0.22992 0.001235 0.22992 0.001241 0.22992 0.001249 0.22992 0.001256 0.22992 0.001263 0.22992 0.001271 0.22992 0.00129 0.22992 0.001367 0.22992 0.001445 0.22992 0.001486 0.22992 0.0015 0.22992 0.001514 0.22992 0.001528 0.22992 0.001541 0.22992 0.001555 0.22992 0.001569 0.22992 0.001582 0.22992 0.001596 0.22992 0.00161 0.22992 0.001624 0.22992 0.001637 0.22992 0.001651 0.22992 0.001682 0.22992 0.001997 0.22992 0.00217 3.2189 0.031899 2.759 0.027075 1.3795 0.013448 0.22992 0.002245 0.22992 0.00225 0.22992 0.002253 0.22992 0.002256 0.22992 0.00226 0.22992 0.002264 0.22992 0.002268 0.22992 0.002271 0.22992 0.002275 0.22992 0.002279 0.22992 0.002281 0.22992 0.002283 0.22992 0.002285 0.45984 0.004577 0.22992 0.002292 0.22992 0.002294 0.22992 0.002296 0.45984 0.004599 0.22992 0.002303 0.22992 0.002305 0.22992 0.002307 0.22992 0.002309 0.45984 0.004625 0.22992 0.002316 0.22992 0.002318 0.22992 0.00232 0.22992 0.002322 0.22992 0.002325 0.45984 0.004655 0.45984 0.004665 0.22992 0.002335 0.22992 0.002338 0.22992 0.00234 0.22992 0.002342 0.22992 0.002344 0.45984 0.004695 0.22992 0.002351 0.22992 0.002353 0.22992 0.002355 0.22992 0.002358 0.22992 0.00236 0.22992 0.002362 0.22992 0.002364 0.22992 0.002366 0.45984 0.004739 0.22992 0.002373 0.45984 0.004753 0.45984 0.004761 0.45984 0.004771 0.22992 0.002388 0.22992 0.002391 0.22992 0.002393 0.45984 0.004793 0.22992 0.0024 0.22992 0.002402 0.22992 0.002404 0.22992 0.002406 0.22992 0.002409 0.22992 0.002858 0.22992 0.00295 0.22992 0.003042 0.22992 0.003081 0.22992 0.00312 0.22992 0.003158 0.22992 0.003196 0.22992 0.003235 0.22992 0.003294 0.22992 0.003368 0.22992 0.003443 0.22992 0.003481 0.22992 0.003505 0.22992 0.00353 0.22992 0.003556 0.22992 0.003581 0.22992 0.003606 0.22992 0.003632 0.22992 0.003656 0.22992 0.003671 0.22992 0.003676 0.22992 0.003679 0.22992 0.003684 0.22992 0.003689 0.22992 0.003693 0.22992 0.003697 0.22992 0.003702 0.22992 0.003706 0.22992 0.00371 0.22992 0.003715 0.22992 0.00372 0.22992 0.003723 0.22992 0.003729 0.22992 0.003732 0.22992 0.003737 0.22992 0.003742 0.22992 0.003746 0.22992 0.00375 0.22992 0.003755 0.22992 0.00376 0.22992 0.003764 0.22992 0.003768 0.22992 0.003771 0.22992 0.003775 0.22992 0.003777 0.22992 0.003781 0.22992 0.003784 0.22992 0.003787 0.22992 0.00379 0.22992 0.003793 0.22992 0.003796 0.22992 0.003799 0.22992 0.003803 0.22992 0.003806 0.22992 0.003808 0.22992 0.003812 0.22992 0.003815 0.22992 0.003819 0.22992 0.003821 0.22992 0.003825 0.22992 0.003827 0.22992 0.003831 0.22992 0.003836 0.22992 0.003843 0.22992 0.00385 0.22992 0.003857 0.22992 0.003864 0.22992 0.003871 0.22992 0.003877 0.22992 0.003884 0.22992 0.003892 0.22992 0.003898 0.22992 0.003905 0.22992 0.003912 0.22992 0.003919 0.22992 0.003926 0.22992 0.003932 0.22992 0.00394 0.22992 0.003947 0.22992 0.003953 0.22992 0.003961 0.22992 0.003968 0.22992 0.003974 0.22992 0.003982 0.22992 0.003988 0.22992 0.003996 0.22992 0.004003 0.22992 0.004155 0.22992 0.004279 0.22992 0.004368 0.22992 0.00444 0.22992 0.004457 0.22992 0.004474 0.22992 0.004491 0.22992 0.004508 0.22992 0.004525 0.22992 0.004542 0.22992 0.00456 0.22992 0.004576 0.22992 0.004594 0.22992 0.004611 0.22992 0.004628 0.22992 0.00464 0.22992 0.004644 0.22992 0.004647 0.22992 0.00465 0.22992 0.004653 0.22992 0.004587 0.22992 0.004502 0.68976 0.013348 0.68976 0.013355 0.68976 0.01336 0.68976 0.013367 0.68976 0.013372 0.68976 0.013379 0.68976 0.013385 0.45984 0.008926 0.91968 0.017861 0.68976 0.013403 0.68976 0.013409 0.68976 0.013415 1.8393 0.03576 0.22992 0.004473 0.22992 0.004483 0.22992 0.004493 0.22992 0.004502 0.22992 0.004512 0.22992 0.004522 0.22992 0.004531 0.22992 0.004542 0.22992 0.00455 0.22992 0.004561 0.22992 0.00457 0.22992 0.004581 0.22992 0.004594 0.22992 0.004619 0.22992 0.004644 0.22992 0.004668 0.22992 0.004692 0.22992 0.004717 0.22992 0.004729 0.22992 0.004671 0.22992 0.004601 2.989 0.05936 0.22992 0.004544 0.22992 0.004228 0.22992 0.004104 0.22992 0.004047 0.22992 0.004111 0.22992 0.004134 0.22992 0.004153 0.22992 0.004174 0.22992 0.004194 0.22992 0.004214 0.22992 0.004234 0.22992 0.004255 0.22992 0.004274 0.22992 0.004295 0.22992 0.004332 0.22992 0.004396 0.22992 0.004459 0.22992 0.004523 0.22992 0.004541 0.22992 0.004558 0.22992 0.004575 0.22992 0.004592 0.22992 0.004608 0.22992 0.004626 0.22992 0.004642 0.22992 0.004659 0.22992 0.004676 0.22992 0.004694 0.22992 0.00471 0.22992 0.004733 0.22992 0.004759 0.22992 0.004787 0.22992 0.004813 0.22992 0.004841 0.22992 0.004867 0.22992 0.004894 0.22992 0.004921 0.22992 0.004943 0.22992 0.004964 0.22992 0.004985 0.22992 0.005005 0.22992 0.005028 0.22992 0.005048 0.22992 0.00507 0.22992 0.005091 0.22992 0.005113 0.22992 0.005201 0.22992 0.005363 0.22992 0.005378 0.22992 0.005394 0.22992 0.00541 0.22992 0.005426 0.22992 0.005441 0.22992 0.005457 0.22992 0.005473 0.22992 0.005489 0.22992 0.005505 0.22992 0.00552 0.22992 0.005537 0.22992 0.005552 0.22992 0.005568 0.22992 0.005588 0.22992 0.005619 0.22992 0.005649 0.22992 0.005681 0.22992 0.005711 0.22992 0.005742 0.22992 0.005774 0.22992 0.005804 0.22992 0.005997 0.22992 0.006174 0.22992 0.006386 0.22992 0.006529 0.22992 0.006547 0.22992 0.006566 0.22992 0.006585 0.22992 0.006604 0.22992 0.006622 0.22992 0.006642 0.22992 0.006661 0.22992 0.006679 0.22992 0.006699 0.22992 0.006718 0.22992 0.006737 0.22992 0.006756 0.22992 0.006777 0.22992 0.0068 0.22992 0.006822 0.22992 0.006844 0.22992 0.006867 0.22992 0.006889 0.22992 0.006911 0.22992 0.006934 0.22992 0.006956 0.22992 0.006979 0.22992 0.007001 0.22992 0.007038 0.22992 0.007076 0.22992 0.007116 0.22992 0.007154 0.22992 0.007194 0.22992 0.007234 0.22992 0.007258 0.22992 0.00727 0.22992 0.006773 0.22992 0.006681 0.22992 0.006591 0.22992 0.006561 0.22992 0.00653 0.22992 0.006501 0.22992 0.006472 0.22992 0.006441 0.22992 0.006388 0.22992 0.006316 0.22992 0.006246 0.22992 0.006217 0.22992 0.006202 0.22992 0.006188 0.22992 0.006173 0.22992 0.006158 0.22992 0.006143 0.22992 0.006129 0.45984 0.012225 0.22992 0.00614 0.22992 0.006177 0.22992 0.006215 0.22992 0.006252 0.22992 0.006291 0.22992 0.006328 0.22992 0.006446 0.22992 0.006625 0.22992 0.006739 0.22992 0.006836 0.22992 0.006844 0.22992 0.006853 0.22992 0.00686 0.22992 0.006869 0.22992 0.006877 0.22992 0.006885 0.22992 0.006893 0.22992 0.006901 0.22992 0.00691 0.22992 0.006918 0.22992 0.006926 0.22992 0.006934 0.22992 0.006943 0.22992 0.006951 0.22992 0.006959 0.22992 0.006968 0.22992 0.006976 0.22992 0.006984 0.22992 0.006993 0.22992 0.007001 0.22992 0.00701 0.22992 0.007018 0.22992 0.007026 0.22992 0.007035 0.22992 0.007043 0.22992 0.007052 0.22992 0.007123 0.22992 0.007221 0.22992 0.00734 0.22992 0.007551 0.22992 0.007804 0.22992 0.007826 0.22992 0.007845 0.22992 0.007861 0.22992 0.007879 0.22992 0.007896 0.22992 0.007913 0.22992 0.007931 0.22992 0.007947 0.22992 0.007965 0.22992 0.007982 0.22992 8e-3 0.22992 0.008019 0.22992 0.008066 0.22992 0.008111 0.22992 0.008158 0.22992 0.008203 0.22992 0.00825 0.22992 0.008289 0.22992 0.008327 0.22992 0.008366 0.22992 0.008404 0.22992 0.008444 0.22992 0.008483 0.22992 0.008502 0.22992 0.008521 0.22992 0.008539 0.22992 0.008387 0.22992 0.008269 0.22992 0.008191 0.22992 0.008133 0.22992 0.00814 0.22992 0.008147 0.22992 0.008153 0.22992 0.00816 1.6094 0.057164 0.22992 0.008173 0.22992 0.008189 0.22992 0.008207 0.22992 0.008223 0.22992 0.008241 0.22992 0.008258 0.22992 0.008274 0.22992 0.008292 0.22992 0.008309 0.22992 0.008326 0.22992 0.008415 0.22992 0.008559 0.22992 0.008618 0.22992 0.008644 0.22992 0.00867 0.22992 0.008697 0.22992 0.008722 0.22992 0.008749 0.22992 0.008775 0.22992 0.008801 0.22992 0.008828 0.22992 0.008854 0.22992 0.00888 0.22992 0.008922 0.22992 0.008966 0.22992 0.009012 0.22992 0.009057 0.22992 0.009102 0.22992 0.009147 0.22992 0.009175 0.22992 0.009187 0.22992 0.009197 0.22992 0.00921 0.22992 0.009221 0.22992 0.009232 0.22992 0.009244 0.22992 0.009256 0.22992 0.009268 0.22992 0.009279 0.22992 0.00929 0.22992 0.009303 0.22992 0.009314 0.22992 0.009326 0.22992 0.009338 0.22992 0.009349 0.22992 0.009362 0.22992 0.009373 0.22992 0.009385 0.22992 0.009398 1.6094 0.065858 0.91968 0.037559 0.22992 0.009393 0.22992 0.009416 0.22992 0.009438 0.22992 0.009455 0.22992 0.00946 0.22992 0.009464 0.22992 0.009469 0.22992 0.009473 0.22992 0.009493 0.22992 0.009521 0.22992 0.009555 0.22992 0.009605 0.22992 0.009656 0.22992 0.009691 0.22992 0.009724 0.22992 0.009757 0.22992 0.009791 0.22992 0.009824 0.22992 0.009858 0.22992 0.010165 0.22992 0.010287 0.22992 0.010408 0.22992 0.010464 0.22992 0.010512 0.22992 0.010559 0.22992 0.010607 0.22992 0.010632 0.22992 0.01916 0.22992 0.020714 0.22992 0.026687 0.22992 0.026974 0.22992 0.027266 0.22992 0.02756 0.22992 0.027856 0.22992 0.028154 0.22992 0.028454 0.22992 0.028758 0.22992 0.029062 0.22992 0.029371 0.22992 0.029659 0.22992 0.029916 0.22992 0.030176 0.22992 0.030438 0.22992 0.030759 0.22992 0.035332 0.22992 0.035433 0.22992 0.035534 0.22992 0.035636 0.22992 0.035738 0.22992 0.035841 0.22992 0.035945 0.22992 0.036049 0.22992 0.036154 0.22992 0.03626 0.22992 0.036359 0.22992 0.036452 0.22992 0.036547 0.22992 0.036642 0.22992 0.036738 0.22992 0.036834 0.22992 0.036931 0.22992 0.037028 0.22992 0.037134 0.22992 0.03724 0.22992 0.037348 0.22992 0.037456 0.22992 0.037565 0.22992 0.037674 0.22992 0.037784 0.22992 0.037896 0.22992 0.038006 0.22992 0.03803 0.22992 0.037948 0.22992 0.03807 0.22992 0.038193 0.22992 0.038317 0.22992 0.038443 0.22992 0.038568 0.22992 0.038695 0.22992 0.038822 0.22992 0.038951 0.22992 0.03908 0.22992 0.03921 0.22992 0.039342 0.22992 0.039473 0.22992 0.039607 0.22992 0.039736 0.22992 0.039848 0.22992 0.039963 0.22992 0.040077 0.22992 0.040193 0.22992 0.040309 0.22992 0.040426 0.22992 0.040543 0.22992 0.04042 0.22992 0.040316 0.22992 0.040161 0.22992 0.040107 0.22992 0.040242 0.22992 0.040378 0.22992 0.040514 0.22992 0.040652 0.22992 0.04079 0.22992 0.04093 0.22992 0.041071 0.22992 0.041212 0.22992 0.041354 0.22992 0.041499 0.22992 0.041648 0.22992 0.041811 0.22992 0.041969 0.22992 0.04213 0.22992 0.04229 0.22992 0.042452 0.22992 0.042616 0.22992 0.042781 0.22992 0.042947 0.22992 0.043114 0.22992 0.043283 0.22992 0.043454 0.22992 0.043624 0.22992 0.043776 0.22992 0.043923 0.22992 0.044071 0.22992 0.044221 0.22992 0.044371v45.9h-392.93z" stroke="#0766aa" stroke-opacity=".2"/>
</defs>
<g clip-path="url(#j)">
<use y="413.19625" fill="#0766aa" fill-opacity=".2" stroke="#0766aa" stroke-opacity=".2" xlink:href="#ae"/>
</g>
<path d="m40.603 170.63v-141.83" clip-path="url(#j)" fill="none" stroke="#b0b0b0" stroke-linecap="square" stroke-width=".8"/>
<defs>
<path id="f" d="m0 0v3.5" stroke="#000" stroke-width=".8"/>
</defs>
<use x="40.603125" y="170.627393" stroke="#000000" stroke-width=".8" xlink:href="#f"/>
<path d="m140.4 170.63v-141.83" clip-path="url(#j)" fill="none" stroke="#b0b0b0" stroke-linecap="square" stroke-width=".8"/>
<use x="140.404235" y="170.627393" stroke="#000000" stroke-width=".8" xlink:href="#f"/>
<path d="m240.21 170.63v-141.83" clip-path="url(#j)" fill="none" stroke="#b0b0b0" stroke-linecap="square" stroke-width=".8"/>
<use x="240.205344" y="170.627393" stroke="#000000" stroke-width=".8" xlink:href="#f"/>
<path d="m340.01 170.63v-141.83" clip-path="url(#j)" fill="none" stroke="#b0b0b0" stroke-linecap="square" stroke-width=".8"/>
<use x="340.006454" y="170.627393" stroke="#000000" stroke-width=".8" xlink:href="#f"/>
<path d="m439.81 170.63v-141.83" clip-path="url(#j)" fill="none" stroke="#b0b0b0" stroke-linecap="square" stroke-width=".8"/>
<use x="439.807563" y="170.627393" stroke="#000000" stroke-width=".8" xlink:href="#f"/>
<defs>
<path id="d" d="m0 0h-3.5" stroke="#000" stroke-width=".8"/>
</defs>
<use x="40.603125" y="154.105211" stroke="#000000" stroke-width=".8" xlink:href="#d"/>
<defs>
<path id="g" d="m12.406 8.2969h16.109v55.625l-17.531-3.5156v8.9844l17.438 3.5156h9.8594v-64.609h16.109v-8.2969h-41.984z"/>
<path id="b" d="m31.781 66.406q-7.6094 0-11.453-7.5-3.8281-7.4844-3.8281-22.531 0-14.984 3.8281-22.484 3.8438-7.5 11.453-7.5 7.6719 0 11.5 7.5 3.8438 7.5 3.8438 22.484 0 15.047-3.8438 22.531-3.8281 7.5-11.5 7.5zm0 7.8125q12.266 0 18.734-9.7031 6.4688-9.6875 6.4688-28.141 0-18.406-6.4688-28.109-6.4688-9.6875-18.734-9.6875-12.25 0-18.719 9.6875-6.4688 9.7031-6.4688 28.109 0 18.453 6.4688 28.141 6.4688 9.7031 18.719 9.7031z"/>
</defs>
<g transform="translate(16.003 157.9) scale(.1 -.1)">
<use transform="translate(0 .68438)" xlink:href="#g"/>
<use transform="translate(63.623 .68438)" xlink:href="#b"/>
<use transform="translate(128.2 38.966) scale(.7)" xlink:href="#g"/>
</g>
<use x="40.603125" y="130.467312" stroke="#000000" stroke-width=".8" xlink:href="#d"/>
<defs>
<path id="p" d="m19.188 8.2969h34.422v-8.2969h-46.281v8.2969q5.6094 5.8125 15.297 15.594 9.7031 9.7969 12.188 12.641 4.7344 5.3125 6.6094 9 1.8906 3.6875 1.8906 7.25 0 5.8125-4.0781 9.4688-4.0781 3.6719-10.625 3.6719-4.6406 0-9.7969-1.6094-5.1406-1.6094-11-4.8906v9.9688q5.9531 2.3906 11.125 3.6094 5.1875 1.2188 9.4844 1.2188 11.328 0 18.062-5.6719 6.7344-5.6562 6.7344-15.125 0-4.5-1.6875-8.5312-1.6719-4.0156-6.125-9.4844-1.2188-1.4219-7.7656-8.1875-6.5312-6.7656-18.453-18.922z"/>
</defs>
<g transform="translate(16.003 134.27) scale(.1 -.1)">
<use transform="translate(0 .76562)" xlink:href="#g"/>
<use transform="translate(63.623 .76562)" xlink:href="#b"/>
<use transform="translate(128.2 39.047) scale(.7)" xlink:href="#p"/>
</g>
<use x="40.603125" y="106.829413" stroke="#000000" stroke-width=".8" xlink:href="#d"/>
<defs>
<path id="t" d="m40.578 39.312q7.0781-1.5156 11.047-6.3125 3.9844-4.7812 3.9844-11.812 0-10.781-7.4219-16.703-7.4219-5.9062-21.094-5.9062-4.5781 0-9.4375 0.90625t-10.031 2.7188v9.5156q4.0938-2.3906 8.9688-3.6094 4.8906-1.2188 10.219-1.2188 9.2656 0 14.125 3.6562t4.8594 10.641q0 6.4531-4.5156 10.078-4.5156 3.6406-12.562 3.6406h-8.5v8.1094h8.8906q7.2656 0 11.125 2.9062t3.8594 8.375q0 5.6094-3.9844 8.6094-3.9688 3.0156-11.391 3.0156-4.0625 0-8.7031-0.89062-4.6406-0.875-10.203-2.7188v8.7812q5.625 1.5625 10.531 2.3438t9.25 0.78125q11.234 0 17.766-5.1094 6.5469-5.0938 6.5469-13.781 0-6.0625-3.4688-10.234t-9.8594-5.7812z"/>
</defs>
<g transform="translate(16.003 110.63) scale(.1 -.1)">
<use transform="translate(0 .76562)" xlink:href="#g"/>
<use transform="translate(63.623 .76562)" xlink:href="#b"/>
<use transform="translate(128.2 39.047) scale(.7)" xlink:href="#t"/>
</g>
<use x="40.603125" y="83.191514" stroke="#000000" stroke-width=".8" xlink:href="#d"/>
<defs>
<path id="l" d="m37.797 64.312-24.906-38.922h24.906zm-2.5938 8.5938h12.406v-47.516h10.406v-8.2031h-10.406v-17.188h-9.8125v17.188h-32.906v9.5156z"/>
</defs>
<g transform="translate(16.003 86.991) scale(.1 -.1)">
<use transform="translate(0 .68438)" xlink:href="#g"/>
<use transform="translate(63.623 .68438)" xlink:href="#b"/>
<use transform="translate(128.2 38.966) scale(.7)" xlink:href="#l"/>
</g>
<use x="40.603125" y="59.553615" stroke="#000000" stroke-width=".8" xlink:href="#d"/>
<defs>
<path id="as" d="m10.797 72.906h38.719v-8.3125h-29.688v-17.859q2.1406 0.73438 4.2812 1.0938 2.1562 0.35938 4.3125 0.35938 12.203 0 19.328-6.6875 7.1406-6.6875 7.1406-18.109 0-11.766-7.3281-18.297-7.3281-6.5156-20.656-6.5156-4.5938 0-9.3594 0.78125-4.75 0.78125-9.8281 2.3438v9.9219q4.3906-2.3906 9.0781-3.5625t9.9062-1.1719q8.4531 0 13.375 4.4375 4.9375 4.4375 4.9375 12.062 0 7.6094-4.9375 12.047-4.9219 4.4531-13.375 4.4531-3.9531 0-7.8906-0.875-3.9219-0.875-8.0156-2.7344z"/>
</defs>
<g transform="translate(16.003 63.353) scale(.1 -.1)">
<use transform="translate(0 .68438)" xlink:href="#g"/>
<use transform="translate(63.623 .68438)" xlink:href="#b"/>
<use transform="translate(128.2 38.966) scale(.7)" xlink:href="#as"/>
</g>
<use x="40.603125" y="35.915717" stroke="#000000" stroke-width=".8" xlink:href="#d"/>
<defs>
<path id="ac" d="m33.016 40.375q-6.6406 0-10.531-4.5469-3.875-4.5312-3.875-12.438 0-7.8594 3.875-12.438 3.8906-4.5625 10.531-4.5625t10.516 4.5625q3.875 4.5781 3.875 12.438 0 7.9062-3.875 12.438-3.875 4.5469-10.516 4.5469zm19.578 30.922v-8.9844q-3.7188 1.75-7.5 2.6719-3.7812 0.9375-7.5 0.9375-9.7656 0-14.922-6.5938-5.1406-6.5938-5.875-19.922 2.875 4.25 7.2188 6.5156 4.3594 2.2656 9.5781 2.2656 10.984 0 17.359-6.6719 6.375-6.6562 6.375-18.125 0-11.234-6.6406-18.031-6.6406-6.7812-17.672-6.7812-12.656 0-19.344 9.6875-6.6875 9.7031-6.6875 28.109 0 17.281 8.2031 27.562t22.016 10.281q3.7188 0 7.5-0.73438t7.8906-2.1875z"/>
</defs>
<g transform="translate(16.003 39.715) scale(.1 -.1)">
<use transform="translate(0 .76562)" xlink:href="#g"/>
<use transform="translate(63.623 .76562)" xlink:href="#b"/>
<use transform="translate(128.2 39.047) scale(.7)" xlink:href="#ac"/>
</g>
<defs>
<path id="a" d="m0 0h-2" stroke="#000" stroke-width=".6"/>
</defs>
<use x="40.603125" y="170.627393" stroke="#000000" stroke-width=".6" xlink:href="#a"/>
<use x="40.603125" y="166.464966" stroke="#000000" stroke-width=".6" xlink:href="#a"/>
<use x="40.603125" y="163.511677" stroke="#000000" stroke-width=".6" xlink:href="#a"/>
<use x="40.603125" y="161.220927" stroke="#000000" stroke-width=".6" xlink:href="#a"/>
<use x="40.603125" y="159.349249" stroke="#000000" stroke-width=".6" xlink:href="#a"/>
<use x="40.603125" y="157.766768" stroke="#000000" stroke-width=".6" xlink:href="#a"/>
<use x="40.603125" y="156.39596" stroke="#000000" stroke-width=".6" xlink:href="#a"/>
<use x="40.603125" y="155.186822" stroke="#000000" stroke-width=".6" xlink:href="#a"/>
<use x="40.603125" y="146.989494" stroke="#000000" stroke-width=".6" xlink:href="#a"/>
<use x="40.603125" y="142.827067" stroke="#000000" stroke-width=".6" xlink:href="#a"/>
<use x="40.603125" y="139.873778" stroke="#000000" stroke-width=".6" xlink:href="#a"/>
<use x="40.603125" y="137.583029" stroke="#000000" stroke-width=".6" xlink:href="#a"/>
<use x="40.603125" y="135.71135" stroke="#000000" stroke-width=".6" xlink:href="#a"/>
<use x="40.603125" y="134.128869" stroke="#000000" stroke-width=".6" xlink:href="#a"/>
<use x="40.603125" y="132.758061" stroke="#000000" stroke-width=".6" xlink:href="#a"/>
<use x="40.603125" y="131.548923" stroke="#000000" stroke-width=".6" xlink:href="#a"/>
<use x="40.603125" y="123.351595" stroke="#000000" stroke-width=".6" xlink:href="#a"/>
<use x="40.603125" y="119.189168" stroke="#000000" stroke-width=".6" xlink:href="#a"/>
<use x="40.603125" y="116.235879" stroke="#000000" stroke-width=".6" xlink:href="#a"/>
<use x="40.603125" y="113.94513" stroke="#000000" stroke-width=".6" xlink:href="#a"/>
<use x="40.603125" y="112.073451" stroke="#000000" stroke-width=".6" xlink:href="#a"/>
<use x="40.603125" y="110.49097" stroke="#000000" stroke-width=".6" xlink:href="#a"/>
<use x="40.603125" y="109.120162" stroke="#000000" stroke-width=".6" xlink:href="#a"/>
<use x="40.603125" y="107.911024" stroke="#000000" stroke-width=".6" xlink:href="#a"/>
<use x="40.603125" y="99.713697" stroke="#000000" stroke-width=".6" xlink:href="#a"/>
<use x="40.603125" y="95.551269" stroke="#000000" stroke-width=".6" xlink:href="#a"/>
<use x="40.603125" y="92.59798" stroke="#000000" stroke-width=".6" xlink:href="#a"/>
<use x="40.603125" y="90.307231" stroke="#000000" stroke-width=".6" xlink:href="#a"/>
<use x="40.603125" y="88.435553" stroke="#000000" stroke-width=".6" xlink:href="#a"/>
<use x="40.603125" y="86.853071" stroke="#000000" stroke-width=".6" xlink:href="#a"/>
<use x="40.603125" y="85.482263" stroke="#000000" stroke-width=".6" xlink:href="#a"/>
<use x="40.603125" y="84.273125" stroke="#000000" stroke-width=".6" xlink:href="#a"/>
<use x="40.603125" y="76.075798" stroke="#000000" stroke-width=".6" xlink:href="#a"/>
<use x="40.603125" y="71.91337" stroke="#000000" stroke-width=".6" xlink:href="#a"/>
<use x="40.603125" y="68.960081" stroke="#000000" stroke-width=".6" xlink:href="#a"/>
<use x="40.603125" y="66.669332" stroke="#000000" stroke-width=".6" xlink:href="#a"/>
<use x="40.603125" y="64.797654" stroke="#000000" stroke-width=".6" xlink:href="#a"/>
<use x="40.603125" y="63.215172" stroke="#000000" stroke-width=".6" xlink:href="#a"/>
<use x="40.603125" y="61.844365" stroke="#000000" stroke-width=".6" xlink:href="#a"/>
<use x="40.603125" y="60.635226" stroke="#000000" stroke-width=".6" xlink:href="#a"/>
<use x="40.603125" y="52.437899" stroke="#000000" stroke-width=".6" xlink:href="#a"/>
<use x="40.603125" y="48.275471" stroke="#000000" stroke-width=".6" xlink:href="#a"/>
<use x="40.603125" y="45.322182" stroke="#000000" stroke-width=".6" xlink:href="#a"/>
<use x="40.603125" y="43.031433" stroke="#000000" stroke-width=".6" xlink:href="#a"/>
<use x="40.603125" y="41.159755" stroke="#000000" stroke-width=".6" xlink:href="#a"/>
<use x="40.603125" y="39.577273" stroke="#000000" stroke-width=".6" xlink:href="#a"/>
<use x="40.603125" y="38.206466" stroke="#000000" stroke-width=".6" xlink:href="#a"/>
<use x="40.603125" y="36.997328" stroke="#000000" stroke-width=".6" xlink:href="#a"/>
<use x="40.603125" y="28.8" stroke="#000000" stroke-width=".6" xlink:href="#a"/>
<path d="m74.044 172.83 3.4488 2.1263 2.2992 1.158 1.8394 0.66234 1.6094 0.32226 1.6094 0.059807 30.349-0.098959 4.1386-0.34659 4.8283-0.64576 6.4377-1.1104 20.693-3.7378 11.726-1.903 11.956-2.0319 3.9086-0.6971 7.5873-3.7782 4.1386-1.8959 2.5291-1.4694 2.759-1.3472 3.2189-1.3117 3.2189-1.0731 2.989-0.75456 3.2189-0.59144 3.4488-0.41753 3.6787-0.22643 3.6787-0.014565 3.9086 0.20875 3.9086 0.42328 3.6787 0.61174 3.4488 0.7919 3.2189 0.97101 2.759 1.0565 2.5291 1.2036 4.3685 2.2152 3.4488 1.1339 5.0582 1.5642 1.3795 0.35993 4.1386-0.23731 3.9086-0.45027 14.255-1.9664 11.266-1.0956 1.6094-0.2403 5.0582-1.4676 5.2882-1.2925 4.5984-1.1919 3.2189-1.3646 1.8394-1.3875 2.2992-1.4624 2.759-1.4691 2.5291-1.1194 2.759-0.98369 2.989-0.83343 3.4488-0.71876 3.6787-0.52636 1.8394-0.29031 3.2189-0.98796 2.989-0.85514 2.989-0.62449 3.4488-0.4851 3.6787-0.29046 12.646-0.54206 3.4488 0.14966 4.1386 0.42194 4.5984 0.43043 2.0693 0.046605 9.8865-1.1275 3.9086-0.4441 2.5291-0.32172 3.4488-0.48399 5.748-0.72228 8.9669-1.6218 18.394-2.1537 3.4488-0.10752 3.4488 0.11937 14.485 1.0087 4.8283 0.73055 10.116 1.9261v0" clip-path="url(#j)" fill="none" stroke="#dc143c" stroke-linecap="square" stroke-width="1.5"/>
<path d="m40.603 170.63v-141.83" fill="none" stroke="#000" stroke-linecap="square" stroke-width=".8"/>
<path d="m486.62 170.63v-141.83" fill="none" stroke="#000" stroke-linecap="square" stroke-width=".8"/>
<path d="m40.603 170.63h446.02" fill="none" stroke="#000" stroke-linecap="square" stroke-width=".8"/>
<path d="m40.603 28.8h446.02" fill="none" stroke="#000" stroke-linecap="square" stroke-width=".8"/>
<path d="m324.59 66.156h155.04q2 0 2-2v-28.356q0-2-2-2h-155.04q-2 0-2 2v28.356q0 2 2 2z" fill="#fff" opacity=".8" stroke="#ccc"/>
<path d="m326.59 41.898h20" fill="none" stroke="#dc143c" stroke-linecap="square" stroke-width="1.5"/>
<defs>
<path id="h" d="m41.109 46.297q-1.5156 0.875-3.2969 1.2812-1.7812 0.42188-3.9219 0.42188-7.625 0-11.703-4.9531t-4.0781-14.234v-28.812h-9.0312v54.688h9.0312v-8.5q2.8438 4.9844 7.375 7.3906 4.5469 2.4219 11.047 2.4219 0.92188 0 2.0469-0.125 1.125-0.10938 2.4844-0.35938z"/>
<path id="i" d="m34.281 27.484q-10.891 0-15.094-2.4844t-4.2031-8.5q0-4.7812 3.1562-7.5938 3.1562-2.7969 8.5625-2.7969 7.4844 0 12 5.2969t4.5156 14.078v2zm17.922 3.7188v-31.203h-8.9844v8.2969q-3.0781-4.9688-7.6719-7.3438t-11.234-2.375q-8.3906 0-13.359 4.7188-4.9531 4.7188-4.9531 12.625 0 9.2188 6.1719 13.906 6.1875 4.6875 18.438 4.6875h12.609v0.89062q0 6.2031-4.0781 9.5938t-11.453 3.3906q-4.6875 0-9.1406-1.125-4.4375-1.125-8.5312-3.375v8.3125q4.9219 1.9062 9.5625 2.8438 4.6406 0.95312 9.0312 0.95312 11.875 0 17.734-6.1562 5.8594-6.1406 5.8594-18.641z"/>
<path id="r" d="m18.312 70.219v-15.531h18.5v-6.9844h-18.5v-29.688q0-6.6875 1.8281-8.5938t7.4531-1.9062h9.2188v-7.5156h-9.2188q-10.406 0-14.359 3.875-3.9531 3.8906-3.9531 14.141v29.688h-6.5938v6.9844h6.5938v15.531z"/>
<path id="e" d="m56.203 29.594v-4.3906h-41.312q0.59375-9.2812 5.5938-14.141t13.938-4.8594q5.1719 0 10.031 1.2656t9.6562 3.8125v-8.5q-4.8438-2.0469-9.9219-3.125t-10.297-1.0781q-13.094 0-20.734 7.6094-7.6406 7.625-7.6406 20.625 0 13.422 7.25 21.297 7.25 7.8906 19.562 7.8906 11.031 0 17.453-7.1094 6.4219-7.0938 6.4219-19.297zm-8.9844 2.6406q-0.09375 7.3594-4.125 11.75-4.0312 4.4062-10.672 4.4062-7.5156 0-12.031-4.25t-5.2031-11.969z"/>
<path id="m" d="m30.609 48.391q-7.2188 0-11.422-5.6406t-4.2031-15.453 4.1719-15.453q4.1875-5.6406 11.453-5.6406 7.1875 0 11.375 5.6562 4.2031 5.6719 4.2031 15.438 0 9.7188-4.2031 15.406-4.1875 5.6875-11.375 5.6875zm0 7.6094q11.719 0 18.406-7.625 6.7031-7.6094 6.7031-21.078 0-13.422-6.7031-21.078-6.6875-7.6406-18.406-7.6406-11.766 0-18.438 7.6406-6.6562 7.6562-6.6562 21.078 0 13.469 6.6562 21.078 6.6719 7.625 18.438 7.625z"/>
<path id="z" d="m37.109 75.984v-7.4844h-8.5938q-4.8281 0-6.7188-1.9531-1.875-1.9531-1.875-7.0312v-4.8281h14.797v-6.9844h-14.797v-47.703h-9.0312v47.703h-8.5938v6.9844h8.5938v3.8125q0 9.125 4.25 13.297 4.25 4.1875 13.469 4.1875z"/>
<path id="n" d="m9.4219 54.688h8.9844v-54.688h-8.9844zm0 21.297h8.9844v-11.391h-8.9844z"/>
<path id="s" d="m9.4219 75.984h8.9844v-75.984h-8.9844z"/>
<path id="w" d="m8.5 21.578v33.109h8.9844v-32.766q0-7.7656 3.0156-11.656 3.0312-3.875 9.0938-3.875 7.2656 0 11.484 4.6406 4.2344 4.6406 4.2344 12.656v31h8.9844v-54.688h-8.9844v8.4062q-3.2656-4.9844-7.5938-7.4062-4.3125-2.4219-10.031-2.4219-9.4219 0-14.312 5.8594-4.875 5.8594-4.875 17.141zm22.609 34.422z"/>
<path id="k" d="m44.281 53.078v-8.5q-3.7969 1.9531-7.9062 2.9219-4.0938 0.98438-8.5 0.98438-6.6875 0-10.031-2.0469t-3.3438-6.1562q0-3.125 2.3906-4.9062t9.625-3.3906l3.0781-0.6875q9.5625-2.0469 13.594-5.7812t4.0312-10.422q0-7.625-6.0312-12.078-6.0312-4.4375-16.578-4.4375-4.3906 0-9.1562 0.85938t-10.031 2.5625v9.2812q4.9844-2.5938 9.8125-3.8906 4.8281-1.2812 9.5781-1.2812 6.3438 0 9.75 2.1719 3.4219 2.1719 3.4219 6.125 0 3.6562-2.4688 5.6094-2.4531 1.9531-10.812 3.7656l-3.125 0.73438q-8.3438 1.75-12.062 5.3906-3.7031 3.6406-3.7031 9.9844 0 7.7188 5.4688 11.906 5.4688 4.2031 15.531 4.2031 4.9688 0 9.3594-0.73438 4.4062-0.71875 8.1094-2.1875z"/>
<path id="v" d="m31 75.875q-6.5312-11.219-9.7188-22.219-3.1719-10.984-3.1719-22.266 0-11.266 3.2031-22.328t9.6875-22.25h-7.8125q-7.3125 11.484-10.953 22.562t-3.6406 22.016q0 10.891 3.6094 21.922 3.625 11.047 10.984 22.562z"/>
<path id="o" d="m45.406 46.391v29.594h8.9844v-75.984h-8.9844v8.2031q-2.8281-4.875-7.1562-7.25-4.3125-2.375-10.375-2.375-9.9062 0-16.141 7.9062-6.2188 7.9219-6.2188 20.812t6.2188 20.797q6.2344 7.9062 16.141 7.9062 6.0625 0 10.375-2.375 4.3281-2.3594 7.1562-7.2344zm-30.609-19.094q0-9.9062 4.0781-15.547t11.203-5.6406 11.219 5.6406q4.1094 5.6406 4.1094 15.547t-4.1094 15.547q-4.0938 5.6406-11.219 5.6406t-11.203-5.6406-4.0781-15.547z"/>
<path id="x" d="m9.0781 75.984h9.0312v-44.875l26.812 23.578h11.469l-29-25.578 30.234-29.109h-11.719l-27.797 26.703v-26.703h-9.0312z"/>
<path id="ad" d="m25.391 72.906h8.2969l-25.391-82.188h-8.2969z"/>
<path id="q" d="m32.172-5.0781q-3.7969-9.7656-7.4219-12.734-3.6094-2.9844-9.6562-2.9844h-7.1875v7.5156h5.2812q3.7031 0 5.75 1.7656 2.0625 1.75 4.5469 8.2969l1.6094 4.0938-22.109 53.812h9.5156l17.094-42.766 17.094 42.766h9.5156z"/>
<path id="u" d="m8.0156 75.875h7.8125q7.3125-11.516 10.953-22.562 3.6406-11.031 3.6406-21.922 0-10.938-3.6406-22.016t-10.953-22.562h-7.8125q6.4844 11.188 9.6875 22.25t3.2031 22.328q0 11.281-3.2031 22.266-3.2031 11-9.6875 22.219z"/>
</defs>
<g transform="translate(354.59 45.398) scale(.1 -.1)">
<use xlink:href="#h"/>
<use x="41.113281" xlink:href="#i"/>
<use x="102.392578" xlink:href="#r"/>
<use x="141.601562" xlink:href="#e"/>
<use x="203.125" xlink:href="#DejaVuSans-20"/>
<use x="234.912109" xlink:href="#m"/>
<use x="296.09375" xlink:href="#z"/>
<use x="331.298828" xlink:href="#DejaVuSans-20"/>
<use x="363.085938" xlink:href="#z"/>
<use x="398.291016" xlink:href="#i"/>
<use x="459.570312" xlink:href="#n"/>
<use x="487.353516" xlink:href="#s"/>
<use x="515.136719" xlink:href="#w"/>
<use x="578.515625" xlink:href="#h"/>
<use x="619.597656" xlink:href="#e"/>
<use x="681.121094" xlink:href="#k"/>
<use x="733.220703" xlink:href="#DejaVuSans-20"/>
<use x="765.007812" xlink:href="#v"/>
<use x="804.021484" xlink:href="#o"/>
<use x="867.498047" xlink:href="#n"/>
<use x="895.28125" xlink:href="#k"/>
<use x="947.380859" xlink:href="#x"/>
<use x="1005.291016" xlink:href="#k"/>
<use x="1057.390625" xlink:href="#ad"/>
<use x="1091.082031" xlink:href="#q"/>
<use x="1150.261719" xlink:href="#h"/>
<use x="1191.375" xlink:href="#u"/>
</g>
<path d="m326.59 60.077h20v-7h-20z" fill="#0766aa" fill-opacity=".2" stroke="#0766aa" stroke-opacity=".2"/>
<defs>
<path id="aj" d="m48.688 27.297q0 9.9062-4.0781 15.547t-11.203 5.6406q-7.1406 0-11.219-5.6406t-4.0781-15.547 4.0781-15.547 11.219-5.6406q7.125 0 11.203 5.6406t4.0781 15.547zm-30.578 19.094q2.8438 4.875 7.1562 7.2344 4.3281 2.375 10.328 2.375 9.9688 0 16.188-7.9062 6.2344-7.9062 6.2344-20.797t-6.2344-20.812q-6.2188-7.9062-16.188-7.9062-6 0-10.328 2.375-4.3125 2.375-7.1562 7.25v-8.2031h-9.0312v75.984h9.0312z"/>
<path id="ag" d="m2.9844 54.688h9.5156l17.094-45.891 17.094 45.891h9.5156l-20.516-54.688h-12.203z"/>
</defs>
<g transform="translate(354.59 60.077) scale(.1 -.1)">
<use xlink:href="#o"/>
<use x="63.476562" xlink:href="#n"/>
<use x="91.259766" xlink:href="#k"/>
<use x="143.359375" xlink:href="#x"/>
<use x="201.269531" xlink:href="#k"/>
<use x="253.369141" xlink:href="#DejaVuSans-20"/>
<use x="285.15625" xlink:href="#m"/>
<use x="346.337891" xlink:href="#aj"/>
<use x="409.814453" xlink:href="#k"/>
<use x="461.914062" xlink:href="#e"/>
<use x="523.4375" xlink:href="#h"/>
<use x="564.550781" xlink:href="#ag"/>
<use x="623.730469" xlink:href="#e"/>
<use x="685.253906" xlink:href="#o"/>
</g>
<path d="m40.603 375.64h446.02v-189.1h-446.02z" fill="#fff"/>
<path d="m40.603 375.64v-189.1" clip-path="url(#c)" fill="none" stroke="#b0b0b0" stroke-linecap="square" stroke-width=".8"/>
<use x="40.603125" y="375.64" stroke="#000000" stroke-width=".8" xlink:href="#f"/>
<g transform="translate(37.422 390.24) scale(.1 -.1)">
<use xlink:href="#b"/>
</g>
<path d="m140.4 375.64v-189.1" clip-path="url(#c)" fill="none" stroke="#b0b0b0" stroke-linecap="square" stroke-width=".8"/>
<use x="140.404235" y="375.64" stroke="#000000" stroke-width=".8" xlink:href="#f"/>
<g transform="translate(137.22 390.24) scale(.1 -.1)">
<use xlink:href="#g"/>
</g>
<path d="m240.21 375.64v-189.1" clip-path="url(#c)" fill="none" stroke="#b0b0b0" stroke-linecap="square" stroke-width=".8"/>
<use x="240.205344" y="375.64" stroke="#000000" stroke-width=".8" xlink:href="#f"/>
<g transform="translate(237.02 390.24) scale(.1 -.1)">
<use xlink:href="#p"/>
</g>
<path d="m340.01 375.64v-189.1" clip-path="url(#c)" fill="none" stroke="#b0b0b0" stroke-linecap="square" stroke-width=".8"/>
<use x="340.006454" y="375.64" stroke="#000000" stroke-width=".8" xlink:href="#f"/>
<g transform="translate(336.83 390.24) scale(.1 -.1)">
<use xlink:href="#t"/>
</g>
<path d="m439.81 375.64v-189.1" clip-path="url(#c)" fill="none" stroke="#b0b0b0" stroke-linecap="square" stroke-width=".8"/>
<use x="439.807563" y="375.64" stroke="#000000" stroke-width=".8" xlink:href="#f"/>
<g transform="translate(436.63 390.24) scale(.1 -.1)">
<use xlink:href="#l"/>
</g>
<defs>
<path id="aq" d="m34.188 63.188-13.391-36.281h26.812zm-5.5781 9.7188h11.188l27.781-72.906h-10.25l-6.6406 18.703h-32.859l-6.6406-18.703h-10.406z"/>
<path id="y" d="m45.406 27.984q0 9.7656-4.0312 15.125-4.0156 5.375-11.297 5.375-7.2188 0-11.25-5.375-4.0312-5.3594-4.0312-15.125 0-9.7188 4.0312-15.094t11.25-5.375q7.2812 0 11.297 5.375 4.0312 5.375 4.0312 15.094zm8.9844-21.203q0-13.953-6.2031-20.766-6.1875-6.8125-18.984-6.8125-4.7344 0-8.9375 0.70312t-8.1562 2.1719v8.7344q3.9531-2.1406 7.8125-3.1562 3.8594-1.0312 7.8594-1.0312 8.8438 0 13.234 4.6094t4.3906 13.938v4.4531q-2.7812-4.8438-7.125-7.2344t-10.406-2.3906q-10.047 0-16.203 7.6562-6.1562 7.6719-6.1562 20.328 0 12.688 6.1562 20.344 6.1562 7.6719 16.203 7.6719 6.0625 0 10.406-2.3906t7.125-7.2188v8.2969h8.9844z"/>
<path id="ah" d="m18.109 8.2031v-29h-9.0312v75.484h9.0312v-8.2969q2.8438 4.875 7.1562 7.2344 4.3281 2.375 10.328 2.375 9.9688 0 16.188-7.9062 6.2344-7.9062 6.2344-20.797t-6.2344-20.812q-6.2188-7.9062-16.188-7.9062-6 0-10.328 2.375-4.3125 2.375-7.1562 7.25zm30.578 19.094q0 9.9062-4.0781 15.547t-11.203 5.6406q-7.1406 0-11.219-5.6406t-4.0781-15.547 4.0781-15.547 11.219-5.6406q7.125 0 11.203 5.6406t4.0781 15.547z"/>
<path id="af" d="m4.2031 54.688h8.9844l11.234-42.672 11.172 42.672h10.594l11.234-42.672 11.188 42.672h8.9844l-14.312-54.688h-10.594l-11.766 44.828-11.812-44.828h-10.609z"/>
<path id="at" d="m4.8906 31.391h26.312v-8h-26.312z"/>
<path id="ai" d="m54.891 33.016v-33.016h-8.9844v32.719q0 7.7656-3.0312 11.609-3.0312 3.8594-9.0781 3.8594-7.2812 0-11.484-4.6406-4.2031-4.625-4.2031-12.641v-30.906h-9.0312v54.688h9.0312v-8.5q3.2344 4.9375 7.5938 7.375 4.375 2.4375 10.094 2.4375 9.4219 0 14.25-5.8281 4.8438-5.8281 4.8438-17.156z"/>
</defs>
<g transform="translate(209.62 403.92) scale(.1 -.1)">
<use xlink:href="#aq"/>
<use x="68.408203" xlink:href="#y"/>
<use x="131.884766" xlink:href="#e"/>
<use x="193.408203" xlink:href="#DejaVuSans-20"/>
<use x="225.195312" xlink:href="#v"/>
<use x="264.208984" xlink:href="#ah"/>
<use x="327.685547" xlink:href="#m"/>
<use x="388.867188" xlink:href="#af"/>
<use x="470.654297" xlink:href="#e"/>
<use x="532.177734" xlink:href="#h"/>
<use x="573.197266" xlink:href="#at"/>
<use x="609.296875" xlink:href="#m"/>
<use x="670.478516" xlink:href="#ai"/>
<use x="733.857422" xlink:href="#DejaVuSans-20"/>
<use x="765.644531" xlink:href="#q"/>
<use x="824.824219" xlink:href="#e"/>
<use x="886.347656" xlink:href="#i"/>
<use x="947.626953" xlink:href="#h"/>
<use x="988.740234" xlink:href="#k"/>
<use x="1040.839844" xlink:href="#u"/>
</g>
<path d="m40.603 375.64h446.02" clip-path="url(#c)" fill="none" stroke="#b0b0b0" stroke-linecap="square" stroke-width=".8"/>
<use x="40.603125" y="375.64" stroke="#000000" stroke-width=".8" xlink:href="#d"/>
<g transform="translate(27.241 379.44) scale(.1 -.1)">
<use xlink:href="#b"/>
</g>
<path d="m40.603 344.12h446.02" clip-path="url(#c)" fill="none" stroke="#b0b0b0" stroke-linecap="square" stroke-width=".8"/>
<use x="40.603125" y="344.122802" stroke="#000000" stroke-width=".8" xlink:href="#d"/>
<defs>
<path id="ab" d="m31.781 34.625q-7.0312 0-11.062-3.7656-4.0156-3.7656-4.0156-10.344 0-6.5938 4.0156-10.359 4.0312-3.7656 11.062-3.7656t11.078 3.7812q4.0625 3.7969 4.0625 10.344 0 6.5781-4.0312 10.344-4.0156 3.7656-11.109 3.7656zm-9.8594 4.1875q-6.3438 1.5625-9.8906 5.9062-3.5312 4.3594-3.5312 10.609 0 8.7344 6.2188 13.812 6.2344 5.0781 17.062 5.0781 10.891 0 17.094-5.0781t6.2031-13.812q0-6.25-3.5469-10.609-3.5312-4.3438-9.8281-5.9062 7.125-1.6562 11.094-6.5 3.9844-4.8281 3.9844-11.797 0-10.609-6.4688-16.281-6.4688-5.6562-18.531-5.6562-12.047 0-18.531 5.6562-6.4688 5.6719-6.4688 16.281 0 6.9688 4 11.797 4.0156 4.8438 11.141 6.5zm-3.6094 15.578q0-5.6562 3.5312-8.8281 3.5469-3.1719 9.9375-3.1719 6.3594 0 9.9375 3.1719 3.5938 3.1719 3.5938 8.8281 0 5.6719-3.5938 8.8438-3.5781 3.1719-9.9375 3.1719-6.3906 0-9.9375-3.1719-3.5312-3.1719-3.5312-8.8438z"/>
</defs>
<g transform="translate(27.241 347.92) scale(.1 -.1)">
<use xlink:href="#ab"/>
</g>
<path d="m40.603 312.61h446.02" clip-path="url(#c)" fill="none" stroke="#b0b0b0" stroke-linecap="square" stroke-width=".8"/>
<use x="40.603125" y="312.605603" stroke="#000000" stroke-width=".8" xlink:href="#d"/>
<g transform="translate(20.878 316.4) scale(.1 -.1)">
<use xlink:href="#g"/>
<use x="63.623047" xlink:href="#ac"/>
</g>
<path d="m40.603 281.09h446.02" clip-path="url(#c)" fill="none" stroke="#b0b0b0" stroke-linecap="square" stroke-width=".8"/>
<use x="40.603125" y="281.088405" stroke="#000000" stroke-width=".8" xlink:href="#d"/>
<g transform="translate(20.878 284.89) scale(.1 -.1)">
<use xlink:href="#p"/>
<use x="63.623047" xlink:href="#l"/>
</g>
<path d="m40.603 249.57h446.02" clip-path="url(#c)" fill="none" stroke="#b0b0b0" stroke-linecap="square" stroke-width=".8"/>
<use x="40.603125" y="249.571206" stroke="#000000" stroke-width=".8" xlink:href="#d"/>
<g transform="translate(20.878 253.37) scale(.1 -.1)">
<use xlink:href="#t"/>
<use x="63.623047" xlink:href="#p"/>
</g>
<path d="m40.603 218.05h446.02" clip-path="url(#c)" fill="none" stroke="#b0b0b0" stroke-linecap="square" stroke-width=".8"/>
<use x="40.603125" y="218.054008" stroke="#000000" stroke-width=".8" xlink:href="#d"/>
<g transform="translate(20.878 221.85) scale(.1 -.1)">
<use xlink:href="#l"/>
<use x="63.623047" xlink:href="#b"/>
</g>
<path d="m40.603 186.54h446.02" clip-path="url(#c)" fill="none" stroke="#b0b0b0" stroke-linecap="square" stroke-width=".8"/>
<use x="40.603125" y="186.536809" stroke="#000000" stroke-width=".8" xlink:href="#d"/>
<g transform="translate(20.878 190.34) scale(.1 -.1)">
<use xlink:href="#l"/>
<use x="63.623047" xlink:href="#ab"/>
</g>
<defs>
<path id="ao" d="m9.8125 72.906h41.891v-8.3125h-32.031v-21.484h28.906v-8.2969h-28.906v-34.812h-9.8594z"/>
<path id="am" d="m44.391 34.188q3.1719-1.0781 6.1719-4.5938t6.0312-9.6719l10.016-19.922h-10.609l-9.3125 18.703q-3.625 7.3281-7.0156 9.7188t-9.25 2.3906h-10.75v-30.812h-9.8594v72.906h22.266q12.5 0 18.656-5.2344 6.1562-5.2188 6.1562-15.766 0-6.8906-3.2031-11.438-3.2031-4.5312-9.2969-6.2812zm-24.719 30.609v-25.875h12.406q7.125 0 10.766 3.2969t3.6406 9.6875-3.6406 9.6406-10.766 3.25z"/>
<path id="au" d="m72.703 32.078q-4.25 0-6.6719-3.6094-2.4062-3.6094-2.4062-10.062 0-6.3438 2.4062-9.9844 2.4219-3.6406 6.6719-3.6406 4.1562 0 6.5625 3.6406 2.4219 3.6406 2.4219 9.9844 0 6.4062-2.4219 10.031-2.4062 3.6406-6.5625 3.6406zm0 6.2031q7.7188 0 12.25-5.375 4.5469-5.3594 4.5469-14.5 0-9.125-4.5625-14.484-4.5625-5.3438-12.234-5.3438-7.8125 0-12.359 5.3438-4.5312 5.3594-4.5312 14.484 0 9.1875 4.5625 14.531t12.328 5.3438zm-50.391 29.734q-4.2031 0-6.625-3.6406-2.4062-3.625-2.4062-9.9844 0-6.4375 2.3906-10.062 2.3906-3.6094 6.6406-3.6094t6.6562 3.6094q2.4219 3.625 2.4219 10.062 0 6.2969-2.4375 9.9531-2.4375 3.6719-6.6406 3.6719zm44.094 6.2031h7.8125l-45.609-75.641h-7.8125zm-44.094 0q7.7188 0 12.297-5.3438 4.5938-5.3438 4.5938-14.484 0-9.2188-4.5625-14.547t-12.328-5.3281-12.281 5.3438q-4.5156 5.3594-4.5156 14.531 0 9.0938 4.5312 14.453 4.5469 5.375 12.266 5.375z"/>
</defs>
<g transform="translate(14.798 334.34) rotate(-90) scale(.1 -.1)">
<use xlink:href="#ao"/>
<use x="57.378906" xlink:href="#i"/>
<use x="118.658203" xlink:href="#n"/>
<use x="146.441406" xlink:href="#s"/>
<use x="174.224609" xlink:href="#w"/>
<use x="237.603516" xlink:href="#h"/>
<use x="278.685547" xlink:href="#e"/>
<use x="340.208984" xlink:href="#DejaVuSans-20"/>
<use x="371.996094" xlink:href="#am"/>
<use x="441.447266" xlink:href="#i"/>
<use x="502.726562" xlink:href="#r"/>
<use x="541.935547" xlink:href="#e"/>
<use x="603.458984" xlink:href="#DejaVuSans-20"/>
<use x="635.246094" xlink:href="#v"/>
<use x="674.259766" xlink:href="#au"/>
<use x="769.279297" xlink:href="#ad"/>
<use x="802.970703" xlink:href="#q"/>
<use x="862.150391" xlink:href="#e"/>
<use x="923.673828" xlink:href="#i"/>
<use x="984.953125" xlink:href="#h"/>
<use x="1026.066406" xlink:href="#u"/>
</g>
<path d="m74.044 362.18 2.759 3.2492 1.6094 1.3927 1.6094 1.0723 1.6094 0.79229 1.6094 0.54558 1.8394 0.37728 5.0582 0.77305 10.116 1.2338 7.1275 0.61886 7.8173 0.46185 6.8976 0.14974 9.6566-0.035159 9.6566-0.22795 23.682-1.1927 13.795-1.1072 3.4488-1.0483 7.3574-2.434 0.68976-0.36078 5.9779-3.3488 5.0582-2.5837 2.989-1.2828 2.989-1.031 2.759-0.72755 2.759-0.51182 2.759-0.29549 3.6787-0.1376 2.759 0.069936 2.989 0.29397 2.989 0.51764 2.989 0.74391 2.989 0.97289 2.989 1.2047 2.989 1.4394 2.989 1.6771 2.989 1.7183 2.759 0.87885 3.2189 0.7751 5.0582 1.0837 4.5984-0.33626 4.1386-0.53229 21.153-3.2848 5.2881-0.6931 14.485-5.7219 1.8394-1.3586 1.6094-1.3092 1.1496-1.9235 4.5984-7.5923 3.6787-5.717 2.5291-3.5227 2.2992-2.844 2.2992-2.4949 2.0693-1.9418 2.0693-1.6494 2.0693-1.3523 1.1496-0.77654 1.1496-1.6414 1.3795-2.3157 4.1386-7.3496 1.8394-2.714 1.8394-2.3197 1.8394-1.9416 1.6094-1.3867 1.8394-1.2553 1.6094-0.84245 1.6094-0.5974 1.3795-0.45464 3.9086-2.4806 0.91968-0.49845 1.3795-0.73969 1.3795-0.48891 1.3795-0.2368 1.3795 0.016636 1.3795 0.27142 1.3795 0.52755 1.3795 0.77506 3.2189 2.211 1.6094 1.0321 3.2189 1.1457 0.22992 0.076063 0.45984-0.25601 1.8394-1.578 1.6094-1.5301 3.6787-3.881 3.4488-3.7947 1.8394-2.1947 2.0693-2.0764 0.91968-0.93969 0.68976-1.1378 1.8394-3.1379 1.8394-2.6744 1.6094-1.9801 2.0693-2.403 1.6094-3.1218 1.6094-3.5337 3.2189-7.4187 1.8394-4.9023 1.8394-4.2441 1.6094-3.162 2.0693-3.8747 2.0693-4.8271 5.0582-11.298 2.5291-6.3192 1.6094-3.5043 3.9086-7.5416 1.8394-2.8868 1.1496-1.3347 0.91968-0.76882 0.91968-0.49945 0.91968-0.22661 0.91968 0.013802 0.91968 0.20912 1.3795 0.60387 1.6094 0.64797 2.0693 0.52224 1.8394-0.4333 0.45984-0.46232 1.6094-1.7711 1.8394-1.8975 1.1496-1.3262 1.1496-1.0205 1.3795-0.90861 1.1496-0.49761 2.759-0.70697 0.91968 0.047605 0.91968 0.29594 1.1496 0.64325 0.91968 0.58643 0.45984-0.014185 1.1496-0.39074 1.1496-0.12325 1.3795 0.13621 1.8394 0.39255 1.1496 0.23544v0" clip-path="url(#c)" fill="none" stroke="#d2691e" stroke-linecap="square" stroke-width="1.5"/>
<path d="m40.603 375.64v-189.1" fill="none" stroke="#000" stroke-linecap="square" stroke-width=".8"/>
<path d="m486.62 375.64v-189.1" fill="none" stroke="#000" stroke-linecap="square" stroke-width=".8"/>
<path d="m40.603 375.64h446.02" fill="none" stroke="#000" stroke-linecap="square" stroke-width=".8"/>
<path d="m40.603 186.54h446.02" fill="none" stroke="#000" stroke-linecap="square" stroke-width=".8"/>
<defs>
<path id="an" d="m9.8125 72.906h14.703l18.594-49.609 18.703 49.609h14.703v-72.906h-9.625v64.016l-18.797-50h-9.9062l-18.797 50v-64.016h-9.5781z"/>
<path id="ar" d="m11.719 12.406h10.297v-12.406h-10.297zm0 39.297h10.297v-12.391h-10.297z"/>
<path id="aa" d="m53.516 70.516v-9.625q-5.6094 2.6875-10.594 4-4.9844 1.3281-9.625 1.3281-8.0469 0-12.422-3.125t-4.375-8.8906q0-4.8438 2.9062-7.3125 2.9062-2.4531 11.016-3.9688l5.9531-1.2188q11.031-2.1094 16.281-7.4062t5.25-14.172q0-10.609-7.1094-16.078-7.0938-5.4688-20.812-5.4688-5.1719 0-11.016 1.1719-5.8281 1.1719-12.078 3.4688v10.156q6-3.3594 11.766-5.0781 5.7656-1.7031 11.328-1.7031 8.4375 0 13.031 3.3125 4.5938 3.3281 4.5938 9.4844 0 5.3594-3.2969 8.3906t-10.812 4.5469l-6.0156 1.1719q-11.031 2.1875-15.969 6.875-4.9219 4.6875-4.9219 13.047 0 9.6719 6.8125 15.234t18.766 5.5625q5.1406 0 10.453-0.9375 5.3281-0.92188 10.891-2.7656z"/>
<path id="al" d="m-0.29688 72.906h61.672v-8.3125h-25.875v-64.594h-9.9062v64.594h-25.891z"/>
<path id="ap" d="m19.672 64.797v-56.688h11.922q15.094 0 22.094 6.8281 7 6.8438 7 21.594 0 14.641-7 21.453t-22.094 6.8125zm-9.8594 8.1094h20.266q21.188 0 31.094-8.8125 9.9219-8.8125 9.9219-27.562 0-18.859-9.9688-27.703-9.9531-8.8281-31.047-8.8281h-20.266z"/>
<path id="ak" d="m6.2969 72.906h10.594l18.125-27.109 18.203 27.109h10.594l-23.438-35.016 25-37.891h-10.594l-20.5 31-20.656-31h-10.641l26.016 38.922z"/>
</defs>
<g transform="translate(156.46 16.318) scale(.12 -.12)">
<use xlink:href="#an"/>
<use x="86.279297" xlink:href="#m"/>
<use x="147.460938" xlink:href="#o"/>
<use x="210.9375" xlink:href="#e"/>
<use x="272.460938" xlink:href="#s"/>
<use x="300.244141" xlink:href="#ar"/>
<use x="333.935547" xlink:href="#DejaVuSans-20"/>
<use x="365.722656" xlink:href="#aa"/>
<use x="429.199219" xlink:href="#e"/>
<use x="490.722656" xlink:href="#i"/>
<use x="552.001953" xlink:href="#y"/>
<use x="615.478516" xlink:href="#i"/>
<use x="676.757812" xlink:href="#r"/>
<use x="715.966797" xlink:href="#e"/>
<use x="777.490234" xlink:href="#DejaVuSans-20"/>
<use x="809.277344" xlink:href="#aa"/>
<use x="872.753906" xlink:href="#al"/>
<use x="933.837891" xlink:href="#l"/>
<use x="997.460938" xlink:href="#b"/>
<use x="1061.083984" xlink:href="#b"/>
<use x="1124.707031" xlink:href="#b"/>
<use x="1188.330078" xlink:href="#ap"/>
<use x="1265.332031" xlink:href="#ak"/>
<use x="1333.837891" xlink:href="#b"/>
<use x="1397.460938" xlink:href="#b"/>
<use x="1461.083984" xlink:href="#b"/>
</g>
<defs>
<clipPath id="j">
<rect x="40.603" y="28.8" width="446.02" height="141.83"/>
</clipPath>
<clipPath id="c">
<rect x="40.603" y="186.54" width="446.02" height="189.1"/>
</clipPath>
</defs>
</svg>
