<?xml version="1.0" encoding="UTF-8"?>
<!DOCTYPE svg  PUBLIC '-//W3C//DTD SVG 1.1//EN'  'http://www.w3.org/Graphics/SVG/1.1/DTD/svg11.dtd'>
<svg width="497pt" height="413pt" version="1.1" viewBox="0 0 497 413" xmlns="http://www.w3.org/2000/svg" xmlns:xlink="http://www.w3.org/1999/xlink">
<defs>
<style type="text/css">*{stroke-linecap:butt;stroke-linejoin:round;}</style>
</defs>
<path d="m0 413.2h497.32v-413.2h-497.32z" fill="#fff"/>
<path d="m40.603 170.63h446.02v-141.83h-446.02z" fill="#fff"/>
<defs>
<path id="ae" d="m44.692-235.45v-103.53l0.21463-0.34512 0.21463-0.2972 0.21463-0.2598 0.21463-0.23746 0.21463-0.22756 0.21463-0.19961 0.21463-0.16401 0.21463-0.14564 0.21463-0.12339 0.21463-0.11067 0.21463-0.10712 0.21463-0.09849 0.21463-0.075331 0.21463-0.071888 0.21463-0.065853 0.21463-0.060602 0.21463-0.054859 0.21463-0.039141 0.21463-0.03665 0.21463-0.031477 0.21463-0.031203 0.21463-0.029625 0.21463-0.023839 0.21463-0.019565 0.21463-0.018335 0.21463-0.018056 0.21463-0.016046 0.21463-0.009637 0.21463-0.00955 0.21463-0.009226 0.21463-0.008675 0.21463-0.008538 0.21463-0.00742 0.21463-0.00773 0.21463-0.007232 0.21463-0.008458 0.21463-0.007202 0.21463-0.007337 0.21463-0.006601 0.21463-0.005588 0.21463-0.005574 0.21463-0.005545 0.21463-0.005543 0.21463-0.005538 0.21463-0.006648 0.21463-0.007158 0.21463-0.00749 0.21463-0.007463 0.42926-0.014829 0.21463-0.00752 0.21463-0.00978 0.21463-0.009457 0.21463-0.009469 0.21463-0.009834 0.21463-0.009972 0.21463-0.010195 0.21463-0.010188 0.21463-0.009825 0.21463-0.0095 0.21463-0.009475 0.21463-0.009535 0.21463-0.009954 0.21463-0.010315 0.42926-0.020622 0.21463-0.009961 0.21463-0.009701 0.21463-0.00888 0.21463-0.008589 0.21463-0.008421 0.21463-0.008414 0.21463-0.008079 0.21463-0.007761 0.21463-0.006001 0.21463-0.005649 0.21463-0.005318 0.21463-0.005294 0.21463-0.005226 0.21463-0.005237 0.21463-0.005264 0.21463-0.005253 0.21463-0.005308 0.21463-0.00437 0.21463-0.004043 0.21463-0.003725 0.21463-0.003867 0.21463-0.003978 0.21463-0.003955 0.21463-0.003871 0.42926-0.003633 0.21463-0.001787 0.21463-0.001451 0.21463-0.001314 0.21463-0.001084 0.21463-0.001121 0.21463-0.001116 0.21463-0.001114 0.21463-0.001492 0.21463-0.001581 0.21463-0.001012 0.21463-0.002819 0.21463-0.005404 0.21463-0.006349 0.21463-0.006547 0.42926-0.013211 0.64389-0.019953 0.42926-0.013642 0.21463-0.006808 0.21463-0.006439 0.21463-0.006466 0.21463-0.006502 0.21463-0.006494 0.21463-0.006484 0.21463-0.006479 0.21463-0.006502 0.21463-0.006463 0.21463-0.006354 0.42926-0.012703 0.21463-0.006241 0.21463-0.006158 0.21463-0.006319 0.21463-0.006305 0.21463-0.006133 0.21463-0.006111 0.21463-0.006143 0.21463-0.006117 0.21463-0.006088 0.21463-0.006651 0.21463-0.007006 0.21463-0.007908 0.21463-0.009235 0.21463-0.009184 0.21463-0.009003 0.21463-0.008933 0.21463-0.006824 0.21463-0.004282 0.21463-0.003353 0.21463-0.003157 0.21463-0.003125 0.21463-0.003085 0.21463-0.003072 0.21463-0.003063 0.21463-0.003167 0.21463-0.002993 0.21463-0.002984 0.42926-0.00594 0.21463-0.003121 0.21463-0.003198 0.21463-0.00338 0.21463-0.003373 0.21463-0.003368 0.21463-0.003429 0.21463-0.00363 0.21463-0.003751 0.21463-0.003614 0.21463-0.003596 0.21463-0.003581 0.21463-0.003593 0.42926-0.006885 0.21463-0.003481 0.21463-0.003507 0.21463-0.00349 0.21463-0.003502 0.21463-0.006085 0.21463-0.00703 0.21463-0.007294 0.21463-0.006855 0.21463-0.005629 0.21463-0.005339 0.21463-0.005337 0.21463-0.005335 0.21463-0.005374 0.21463-0.005401 0.21463-0.005443 0.42926-0.010876 0.21463-0.005474 0.21463-0.00543 0.21463-0.005415 0.21463-0.005309 0.21463-0.005329 0.21463-0.00535 0.42926-0.010748 0.21463-0.005226 0.21463-0.00513 0.21463-0.004951 0.42926-0.011242 0.21463-0.005549 0.21463-0.005376 0.21463-0.005355 0.21463-0.007011 0.21463-0.007738 0.21463-0.008563 0.21463-0.009175 0.21463-0.009159 0.21463-0.009147 0.21463-0.009139 0.21463-0.009135 0.42926-0.018972 0.21463-0.006991 0.21463-0.005813 0.21463-0.005141 0.21463-0.004686 0.21463-0.004588 0.21463-0.004586 0.21463-0.004615 0.64389-0.013945 0.42926-0.009282 0.21463-0.004666 0.21463-0.004664 0.21463-0.004692 0.21463-0.004704 0.21463-0.0047 0.21463-0.004694 0.85851-0.018777 0.42926-0.009363 0.21463-0.004024 0.21463-0.004004 0.21463-0.003996 0.21463-0.003955 0.21463-0.003844 0.21463-0.002221 0.21463-0.001488 0.21463-6.98e-4 0.21463-8.6e-5 0.85851-4.45e-4 0.21463 2.14e-4 0.42926 3.97e-4 0.21463 4.96e-4 0.42926 0.001011 0.21463 5.16e-4 0.85851 0.002001 0.21463 5.11e-4 0.64389 0.001563 0.21463 5.57e-4 0.42926 0.001017 0.21463 4.85e-4 0.21463 2.4e-4 0.21463 2.64e-4 0.21463 2.67e-4 0.21463 2.77e-4 0.21463 2.8e-4 0.21463 2.61e-4 0.21463 2.67e-4 0.21463 2.75e-4 0.21463 2.58e-4 0.21463 2.45e-4 0.21463 2.51e-4 0.21463 2.33e-4 0.21463 2.68e-4 0.42926 5.49e-4 0.21463 2.62e-4 0.21463 2.79e-4 0.21463 2.9e-4 0.42926 6.52e-4 0.21463 3.39e-4 0.21463 3.6e-4 0.21463 3.48e-4 0.21463 2.4e-5 0.21463-4e-6 0.42926 4e-5 0.21463 3.7e-5 0.21463 5.5e-5 0.42926 1.82e-4 0.21463 7.5e-5 0.21463 6.2e-5 0.42926 2.17e-4 0.21463 6.3e-5 0.21463 1.29e-4 0.21463 1.38e-4 0.21463 1.82e-4 0.21463 4.37e-4 0.42926 8.29e-4 0.21463 4.22e-4 0.21463 4.28e-4 0.21463 4.49e-4 0.21463 4.72e-4 0.21463 4.74e-4 0.21463 5.07e-4 0.21463 5.27e-4 0.21463 5.69e-4 0.21463 5.97e-4 0.21463 5.69e-4 0.21463 5.79e-4 0.21463 6.21e-4 0.42926 0.001333 0.21463 6.76e-4 0.21463 6.43e-4 0.21463 6.45e-4 0.42926 0.001318 0.21463 6.71e-4 0.21463 0.001011 0.21463 0.001028 0.21463 0.001016 0.21463 9.98e-4 0.21463 9.85e-4 0.64389 0.002895 0.21463 9.84e-4 0.21463 0.001009 0.21463 9.64e-4 0.21463 0.001001 0.21463 0.001017 0.42926 0.001972 0.42926 0.001985 0.21463 0.001014 0.42926 0.002076 0.64388 0.003124 0.21463 0.001043 0.21463 0.001014 0.21463 9.95e-4 0.21463 9.56e-4 0.21463 9.38e-4 0.21463 9.22e-4 0.21463 8.91e-4 0.21463 8.55e-4 0.64389 0.002426 0.21463 8.11e-4 0.42926 0.001645 0.21463 8.32e-4 0.21463 8.51e-4 0.21463 8.36e-4 0.21463 8.18e-4 0.21463 7.97e-4 0.42926 0.001606 0.21463 8.21e-4 0.64389 0.002405 0.21463 7.82e-4 0.21463 8.11e-4 0.21463 7.96e-4 0.21463 8.03e-4 0.21463 8.22e-4 0.42926 0.001734 0.42926 0.001867 0.21463 9.18e-4 0.42926 0.001873 0.21463 9.38e-4 0.21463 9.26e-4 0.21463 9.15e-4 0.21463 9.28e-4 0.21463 9.67e-4 0.42926 0.002029 0.21463 0.001027 0.21463 0.001042 0.21463 0.001094 0.21463 0.001097 0.21463 0.001113 0.21463 0.001099 0.21463 0.001105 0.42926 0.002235 0.21463 0.001123 0.42926 0.002205 0.21463 0.001109 0.21463 0.00112 0.21463 0.001149 0.21463 0.001161 0.21463 0.001164 0.21463 0.001189 0.21463 0.001217 0.21463 0.001191 0.21463 0.001174 0.21463 0.001154 0.21463 0.001179 0.21463 0.001193 0.21463 0.001198 0.21463 0.001179 0.21463 0.001193 0.21463 0.00114 0.21463 0.001154 0.21463 0.001176 0.21463 0.001156 0.21463 0.001169 0.21463 0.001187 0.21463 0.00119 0.42926 0.002416 0.21463 0.00119 0.21463 0.001151 0.21463 0.001174 0.42926 0.00239 0.21463 0.001148 0.21463 0.001173 0.21463 0.001175 0.21463 0.001201 0.21463 0.001212 0.21463 0.001194 0.42926 0.002351 0.21463 0.001201 0.42926 0.002421 0.42926 0.00249 0.21463 0.001269 0.21463 0.001286 0.21463 0.001273 0.21463 0.001282 0.21463 0.001304 0.21463 0.001332 0.21463 0.001341 0.21463 0.001317 0.21463 0.0013 0.21463 0.001273 0.21463 0.001262 0.42926 0.002493 0.42926 0.002456 0.42926 0.002478 0.42926 0.002443 0.21463 0.00119 0.42926 0.002412 0.21463 0.001214 0.21463 0.001198 0.21463 0.001183 0.21463 0.001172 0.21463 0.001189 0.21463 0.001193 0.21463 0.00118 0.21463 0.001166 0.64389 0.003524 0.21463 0.001162 0.21463 0.001146 0.21463 0.001164 0.42926 0.002271 0.21463 0.001152 0.21463 0.001119 0.42926 0.002202 0.42926 0.002166 0.21463 0.001085 0.21463 0.00111 0.21463 0.001127 0.21463 0.001152 0.42926 0.002367 0.21463 0.001207 0.21463 0.00122 0.21463 0.001208 0.21463 0.001228 0.21463 0.001236 0.21463 0.001242 0.21463 0.001259 0.21463 0.001285 0.85852 0.005483 0.21463 0.00141 0.21463 0.00142 0.21463 0.001453 0.85852 0.005723 0.21463 0.001412 0.21463 0.00142 0.21463 0.001424 0.21463 0.001442 0.21463 0.001425 0.21463 0.001399 0.42926 0.002805 0.21463 0.001368 0.85852 0.005477 0.21463 0.001401 0.21463 0.001408 0.21463 0.001383 0.21463 0.001028 0.21463 0.001015 0.42926 0.001978 0.42926 0.00192 0.42926 0.001956 0.21463 9.95e-4 0.21463 1e-3 0.21463 9.84e-4 0.21463 9.71e-4 0.64389 0.00272 0.21463 8.93e-4 0.21463 8.52e-4 0.21463 8.31e-4 0.42926 0.001619 0.21463 8.24e-4 0.21463 8.34e-4 0.21463 8.56e-4 0.21463 8.61e-4 0.21463 8.71e-4 0.64388 0.002647 0.21463 9.07e-4 0.42926 0.001877 0.21463 9.18e-4 0.21463 9.43e-4 0.21463 9.67e-4 0.21463 9.91e-4 0.21463 0.001006 0.21463 9.55e-4 0.21463 9.19e-4 0.21463 8.96e-4 0.21463 0.001236 0.21463 0.001249 0.42926 0.002541 0.21463 0.001278 0.21463 0.001266 0.21463 0.00125 0.21463 0.00123 0.21463 0.001198 0.21463 0.001183 0.21463 0.001193 0.21463 0.001175 0.21463 0.001158 0.21463 0.001161 0.21463 0.001147 0.21463 0.001172 0.21463 0.001191 0.21463 0.001199 0.21463 0.001203 0.21463 0.001214 0.21463 0.001182 0.21463 0.001205 0.21463 0.001184 0.42926 0.002338 0.42926 0.002299 0.21463 0.00119 0.42926 0.002341 0.21463 0.001157 0.21463 0.001198 0.21463 0.001184 0.64389 0.003422 0.21463 0.001156 0.21463 0.001167 0.21463 0.001174 0.21463 0.001159 0.42926 0.002256 0.21463 0.00115 0.64388 0.003504 0.21463 0.001183 0.21463 0.001213 0.21463 0.001202 0.42926 0.002415 0.21463 0.001218 0.21463 0.001268 0.21463 0.001279 0.64389 0.003733 0.21463 0.00126 0.21463 0.001277 0.21463 0.001307 0.21463 0.00128 0.42926 0.002612 0.21463 0.001309 0.42926 0.002653 0.42926 0.00258 0.21463 0.00127 0.21463 0.001249 0.42926 0.002412 0.21463 0.001216 0.21463 0.001192 0.21463 0.001195 0.21463 0.001197 0.21463 0.001229 0.21463 0.001254 0.21463 0.001302 0.42926 0.002666 0.21463 0.001322 0.21463 0.001285 0.21463 0.001301 0.21463 0.001335 0.21463 0.002053 0.21463 0.006209 0.21463 0.007922 0.21463 0.0079 0.21463 0.007909 0.21463 0.007887 0.21463 0.007853 0.21463 0.007882 0.42926 0.015781 0.21463 0.007923 0.42926 0.015812 0.21463 0.007885 0.21463 0.007906 0.21463 0.007932 0.64389 0.023846 0.21463 0.007968 0.21463 0.007985 0.21463 0.007995 0.21463 0.008001 0.21463 0.008032 0.21463 0.008136 0.21463 0.008425 0.21463 0.011802 0.21463 0.012862 0.21463 0.01486 0.21463 0.014884 0.21463 0.014872 0.21463 0.014907 0.42926 0.029749 0.21463 0.015248 0.21463 0.021802 0.21463 0.021899 0.21463 0.021946 0.21463 0.021967 0.21463 0.02122 0.21463 0.016896 0.21463 0.015183 0.21463 0.015211 0.21463 0.015245 0.21463 0.021277 0.21463 0.02453 0.21463 0.024565 0.21463 0.024609 0.21463 0.02465 0.21463 0.02466 0.21463 0.024731 0.21463 0.024813 0.21463 0.024902 0.21463 0.024945 0.21463 0.024985 0.21463 0.025052 0.21463 0.02517 0.21463 0.028561 0.21463 0.029892 0.21463 0.031332 0.21463 0.032632 0.21463 0.032748 0.21463 0.032839 0.21463 0.032865 0.21463 0.032667 0.21463 0.029083 0.21463 0.028026 0.21463 0.025892 0.21463 0.025954 0.21463 0.026032 0.21463 0.026069 0.21463 0.026145 0.21463 0.026229 0.21463 0.025889 0.21463 0.018744 0.21463 0.018706 0.21463 0.018804 0.21463 0.025965 0.21463 0.026454 0.21463 0.026491 0.21463 0.026531 0.21463 0.02662 0.21463 0.026668 0.21463 0.020099 0.21463 0.016586 0.21463 0.016613 0.21463 0.016708 0.21463 0.016742 0.21463 0.016764 0.21463 0.016766 0.21463 0.016753 0.21463 0.016817 0.21463 0.016848 0.21463 0.016863 0.21463 0.016872 0.21463 0.016833 0.21463 0.013229 0.21463 0.011836 0.21463 0.010375 0.21463 0.009082 0.21463 0.00907 0.21463 0.009089 0.21463 0.009104 0.64388 0.027276 0.21463 0.009122 0.21463 0.009181 0.42926 0.018373 0.42926 0.018407 0.21463 0.009207 0.21463 0.010495 0.21463 0.012985 0.21463 0.012926 0.21463 0.005405 0.21463 0.004975 0.21463 0.005013 0.21463 0.004997 0.21463 0.006116 0.21463 0.009061 0.21463 0.010431 0.21463 0.011039 0.21463 0.01105 0.21463 0.011021 0.21463 0.011034 0.21463 0.01105 0.21463 0.012724 0.21463 0.014064 0.21463 0.015378 0.21463 0.015391 0.21463 0.015422 0.21463 0.015479 0.21463 0.015529 0.21463 0.015711 0.21463 0.017816 0.21463 0.01783 0.21463 0.017848 0.21463 0.017875 0.42926 0.035779 0.21463 0.017911 0.21463 0.017946 0.21463 0.01844 0.21463 0.02363 0.21463 0.023958 0.21463 0.030993 0.21463 0.034711 0.21463 0.034831 0.21463 0.03493 0.21463 0.035058 0.21463 0.033818 0.21463 0.031268 0.21463 0.031362 0.21463 0.031487 0.21463 0.031576 0.21463 0.031656 0.21463 0.031823 0.21463 0.030722 0.21463 0.02764 0.21463 0.029324 0.21463 0.029486 0.21463 0.031474 0.21463 0.034717 0.21463 0.034876 0.21463 0.035017 0.21463 0.033327 0.21463 0.031958 0.21463 0.030522 0.21463 0.030622 0.21463 0.031603 0.21463 0.036698 0.21463 0.039559 0.21463 0.039518 0.21463 0.037398 0.21463 0.037572 0.21463 0.037702 0.21463 0.03783 0.21463 0.038017 0.21463 0.038176 0.21463 0.038355 0.21463 0.038531 0.21463 0.038165 0.21463 0.03244 0.21463 0.032164 0.21463 0.024299 0.21463 0.02024 0.21463 0.020277 0.21463 0.020321 0.21463 0.020886 0.21463 0.020949 0.21463 0.021018 0.21463 0.021031 0.21463 0.021017 0.21463 0.021049 0.21463 0.02108 0.21463 0.021135 0.21463 0.027288 0.21463 0.031269 0.21463 0.03222 0.21463 0.034481 0.21463 0.034397 0.21463 0.03094 0.21463 0.030986 0.21463 0.031052 0.21463 0.031175 0.21463 0.031278 0.21463 0.031395 0.21463 0.031486 0.21463 0.030588 0.21463 0.025038 0.21463 0.022049 0.21463 0.02207 0.21463 0.022316 0.21463 0.022611 0.21463 0.022705 0.21463 0.022917 0.21463 0.024357 0.21463 0.026904 0.21463 0.028075 0.21463 0.02812 0.21463 0.028207 0.21463 0.028296 0.21463 0.02835 0.21463 0.028902 0.21463 0.029015 0.21463 0.029132 0.21463 0.029197 0.21463 0.028771 0.21463 0.029146 0.21463 0.030802 0.21463 0.031764 0.21463 0.035097 0.21463 0.035639 0.21463 0.035773 0.21463 0.035794 0.21463 0.029057 0.21463 0.02474 0.21463 0.019975 0.21463 0.016715 0.21463 0.014564 0.21463 0.015695 0.21463 0.017403 0.42926 0.034925 0.21463 0.017482 0.21463 0.01749 0.42926 0.035027 0.21463 0.017522 0.21463 0.017504 0.21463 0.017565 0.21463 0.01737 0.21463 0.022184 0.21463 0.025017 0.21463 0.027147 0.21463 0.026853 0.21463 0.024162 0.21463 0.02301 0.21463 0.023076 0.21463 0.023131 0.21463 0.02318 0.21463 0.023235 0.21463 0.022759 0.21463 0.022797 0.21463 0.023359 0.21463 0.023395 0.21463 0.023378 0.21463 0.02308 0.21463 0.021388 0.21463 0.020494 0.21463 0.017039 0.42926 0.03329 0.21463 0.016675 0.21463 0.016678 0.21463 0.016763 0.21463 0.016802 0.21463 0.016815 0.21463 0.016826 0.21463 0.015651 0.21463 0.013842 0.21463 0.013877 0.21463 0.013961 0.21463 0.016427 0.21463 0.01663 0.21463 0.016638 0.21463 0.01664 0.21463 0.016684 0.21463 0.016713 0.21463 0.016702 0.21463 0.016683 0.21463 0.011262 0.21463 0.008226 0.21463 0.005823 0.21463 0.004735 0.21463 0.004769 0.21463 0.005199 0.21463 0.006901 0.21463 0.013805 0.21463 0.015952 0.21463 0.016589 0.21463 0.017208 0.21463 0.0218 0.21463 0.021262 0.21463 0.021318 0.21463 0.021335 0.21463 0.021373 0.21463 0.021424 0.21463 0.021492 0.21463 0.021538 0.21463 0.021557 0.21463 0.021598 0.21463 0.021719 0.21463 0.021816 0.21463 0.022346 0.21463 0.022376 0.21463 0.023665 0.21463 0.023768 0.21463 0.027679 0.21463 0.027781 0.21463 0.027857 0.21463 0.027865 0.21463 0.025315 0.21463 0.025196 0.21463 0.025274 0.21463 0.026599 0.21463 0.027106 0.21463 0.03028 0.21463 0.030415 0.21463 0.030537 0.21463 0.030574 0.21463 0.030696 0.21463 0.030812 0.21463 0.030687 0.21463 0.030827 0.21463 0.030424 0.21463 0.028658 0.21463 0.021225 0.21463 0.01893 0.21463 0.01829 0.21463 0.017674 0.21463 0.012664 0.21463 0.012693 0.21463 0.012733 0.21463 0.012784 0.21463 0.012877 0.42926 0.025782 0.21463 0.012879 0.21463 0.012887 0.21463 0.012961 0.21463 0.018842 0.21463 0.018934 0.21463 0.018488 0.21463 0.018514 0.21463 0.017222 0.21463 0.017281 0.21463 0.01314 0.21463 0.013161 0.21463 0.013178 0.21463 0.014883 0.21463 0.015169 0.21463 0.015201 0.21463 0.015217 0.21463 0.013933 0.21463 0.013459 0.21463 0.010147 0.21463 0.010116 0.21463 0.010137 0.21463 0.01018 0.21463 0.010207 0.21463 0.010241 0.21463 0.012583 0.21463 0.012556 0.21463 0.012587 0.21463 0.018198 0.21463 0.020981 0.21463 0.022522 0.21463 0.022785 0.21463 0.02564 0.21463 0.025732 0.21463 0.02579 0.21463 0.025889 0.21463 0.025941 0.21463 0.02592 0.21463 0.02602 0.21463 0.026072 0.21463 0.026149 0.21463 0.026293 0.21463 0.026341 0.21463 0.020058 0.21463 0.019986 0.21463 0.019918 0.21463 0.019958 0.21463 0.021279 0.21463 0.024821 0.21463 0.024865 0.21463 0.024911 0.21463 0.024942 0.21463 0.023188 0.21463 0.022953 0.21463 0.022981 0.42926 0.046158 0.21463 0.023216 0.21463 0.023974 0.21463 0.024052 0.21463 0.024762 0.21463 0.024799 0.21463 0.024862 0.21463 0.026036 0.21463 0.035789 0.21463 0.035886 0.21463 0.035981 0.21463 0.0299 0.21463 0.026827 0.21463 0.025309 0.21463 0.025166 0.21463 0.022116 0.21463 0.022138 0.21463 0.022157 0.21463 0.0222 0.21463 0.022278 0.21463 0.022323 0.21463 0.02234 0.21463 0.022391 0.21463 0.022438 0.21463 0.022453 0.21463 0.022487 0.21463 0.022522 0.21463 0.022549 0.21463 0.022605 0.21463 0.022693 0.21463 0.021267 0.21463 0.017404 0.21463 0.017435 0.21463 0.017456 0.42926 0.036315 0.21463 0.018198 0.21463 0.018243 0.21463 0.018204 0.21463 0.018321 0.21463 0.018236 0.21463 0.017482 0.21463 0.017466 0.21463 0.016704 0.21463 0.016732 0.21463 0.016703 0.21463 0.015538 0.21463 0.002276 0.21463 0.002293 0.42926 0.004621 0.21463 0.00233 0.21463 0.002203 0.21463 0.002169 0.21463 0.002174 0.21463 0.002258 0.21463 0.002267 0.21463 0.002192 0.42926 0.005774 0.21463 0.00287 0.21463 0.002887 0.21463 0.002889 0.21463 0.002864 0.21463 0.002879 0.21463 0.002868 0.21463 0.002857 0.21463 0.002873 0.42926 0.005668 0.42926 0.005761 0.21463 0.002885 0.42926 0.004308 0.21463 0.002143 0.21463 0.002169 0.42926 0.004343 0.21463 0.002214 0.21463 0.00224 0.21463 0.002306 0.64389 0.00694 0.21463 0.002234 0.21463 0.002389 0.21463 0.003042 0.42926 0.005988 0.21463 0.003135 0.21463 0.003894 0.21463 0.004811 0.21463 0.006393 0.21463 0.009688 0.21463 0.022966 0.21463 0.023021 0.21463 0.022301 0.21463 0.022358 0.21463 0.022422 0.21463 0.022468 0.21463 0.022504 0.21463 0.022568 0.21463 0.022621 0.21463 0.023138 0.21463 0.023431 0.21463 0.023479 0.21463 0.023513 0.21463 0.02358 0.21463 0.023561 0.21463 0.023681 0.21463 0.026083 0.21463 0.027024 0.21463 0.027127 0.21463 0.029618 0.21463 0.030781 0.21463 0.032283 0.21463 0.032392 0.21463 0.034136 0.21463 0.035271 0.21463 0.036929 0.21463 0.037121 0.21463 0.038066 0.21463 0.038328 0.21463 0.039248 0.21463 0.039946 0.21463 0.039536 0.21463 0.039758 0.21463 0.040793 0.21463 0.040798 0.21463 0.040338 0.21463 0.040024 0.21463 0.038478 0.21463 0.034855 0.21463 0.020082 0.21463 0.02017 0.21463 0.020201 0.21463 0.020229 0.21463 0.020324 0.21463 0.020357 0.21463 0.020425 0.21463 0.020429 0.21463 0.020416 0.21463 0.019911 0.21463 0.020626 0.21463 0.020732 0.42926 0.041508 0.21463 0.020797 0.21463 0.020894 0.21463 0.021144 0.21463 0.020197 0.21463 0.020257 0.21463 0.017621 0.21463 0.01642 0.21463 0.014886 0.21463 0.014827 0.21463 0.012986 0.21463 0.011871 0.21463 0.010179 0.21463 0.010292 0.21463 0.009646 0.21463 0.009516 0.21463 0.008679 0.21463 0.007897 0.21463 0.008595 0.21463 0.008581 0.21463 0.008517 0.21463 0.011889 0.21463 0.01169 0.21463 0.014852 0.21463 0.014835 0.21463 0.014868 0.21463 0.014938 0.21463 0.015791 0.21463 0.015833 0.21463 0.015872 0.21463 0.015813 0.21463 0.015956 0.21463 0.015967 0.21463 0.016001 0.21463 0.016056 0.21463 0.016084 0.21463 0.015148 0.21463 0.015114 0.21463 0.01521 0.21463 0.015249 0.21463 0.015292 0.21463 0.015198 0.21463 0.012267 0.21463 0.012423 0.21463 0.01311 0.21463 0.013117 0.21463 0.013152 0.21463 0.013225 0.21463 0.013353 0.21463 0.013666 0.21463 0.013956 0.21463 0.014293 0.21463 0.015321 0.21463 0.015943 0.21463 0.015975 0.21463 0.015993 0.21463 0.015998 0.21463 0.015062 0.21463 0.015027 0.21463 0.014118 0.21463 0.011643 0.21463 0.015148 0.21463 0.012516 0.21463 0.017367 0.21463 0.017334 0.21463 0.017243 0.42926 0.032648 0.21463 0.016352 0.21463 0.016411 0.21463 0.018305 0.21463 0.01942 0.21463 0.019435 0.21463 0.020479 0.21463 0.020527 0.21463 0.020572 0.21463 0.020581 0.21463 0.020675 0.21463 0.023285 0.21463 0.029192 0.21463 0.0302 0.21463 0.030233 0.21463 0.030165 0.21463 0.029446 0.21463 0.029563 0.42926 0.059218 0.21463 0.029576 0.21463 0.029398 0.21463 0.034997 0.21463 0.041449 0.21463 0.043547 0.21463 0.042785 0.21463 0.042936 0.21463 0.043106 0.21463 0.043288 0.21463 0.043488 0.21463 0.043698 0.21463 0.043983 0.21463 0.043199 0.21463 0.040279 0.21463 0.038985 0.21463 0.033689 0.21463 0.033848 0.21463 0.034019 0.21463 0.03532 0.21463 0.035444 0.21463 0.035563 0.21463 0.035705 0.21463 0.033625 0.21463 0.032567 0.21463 0.03267 0.21463 0.031593 0.21463 0.031651 0.21463 0.0317 0.21463 0.031807 0.21463 0.031787 0.21463 0.028931 0.21463 0.022304 0.21463 0.021336 0.21463 0.021391 0.21463 0.021469 0.42926 0.04303 0.21463 0.021593 0.21463 0.021714 0.21463 0.021725 0.21463 0.02174 0.21463 0.015172 0.21463 0.007574 0.21463 0.00399 0.21463 0.004008 0.21463 0.004024 0.21463 0.004097 0.21463 0.004119 0.21463 0.004126 0.21463 0.004199 0.21463 0.004093 0.21463 0.003819 0.21463 0.002921 0.21463 0.002956 0.21463 0.002983 0.21463 0.00293 0.21463 0.00288 0.42926 0.003188 0.21463 0.001557 0.21463 0.001483 0.21463 0.001413 0.21463 0.001351 0.21463 0.001356 0.21463 0.001361 0.21463 0.001387 0.64389 0.004174 0.21463 0.001398 0.21463 0.001448 0.42926 0.002775 0.42926 0.002926 0.21463 0.001557 0.21463 0.00156 0.42926 0.002966 0.21463 0.001467 0.42926 0.002942 0.42926 0.002894 0.21463 0.00143 0.21463 0.001356 0.21463 0.001387 0.21463 0.001389 0.21463 0.001299 0.21463 0.001387 0.42926 0.002786 0.21463 0.001381 0.42926 0.002662 0.21463 0.001309 0.21463 0.001317 0.21463 0.00146 0.21463 0.001575 0.21463 0.001596 0.21463 0.001601 0.21463 0.001626 0.21463 0.001669 0.21463 0.001714 0.21463 0.001762 0.21463 0.001821 0.21463 0.001834 0.21463 0.001823 0.21463 0.001889 0.21463 0.001913 0.21463 0.001927 0.21463 0.001952 0.21463 0.00187 0.21463 0.001887 0.42926 0.003591 0.21463 0.001808 0.21463 0.001813 0.21463 0.001816 0.21463 0.001838 0.21463 0.001878 0.21463 0.001852 0.21463 0.001837 0.21463 0.001839 0.21463 0.001845 0.42926 0.003623 0.21463 0.001798 0.42926 0.003401 0.21463 0.00168 0.42926 0.003294 0.21463 0.001652 0.42926 0.003322 0.21463 0.001514 0.21463 0.001399 0.21463 0.001381 0.21463 0.001383 0.21463 0.001402 0.21463 0.001367 0.21463 0.001344 0.21463 0.001275 0.21463 0.001203 0.42926 0.002292 0.21463 0.001081 0.21463 0.002126 0.21463 0.00223 0.21463 0.002214 0.42926 0.004482 0.21463 0.00223 0.21463 0.002189 0.21463 0.002195 0.21463 0.002197 0.21463 0.003361 0.21463 0.003328 0.64389 0.009832 0.21463 0.003306 0.21463 0.003325 0.21463 0.003329 0.21463 0.003344 0.21463 0.00337 0.21463 0.003438 0.21463 0.00353 0.21463 0.003558 0.21463 0.003617 0.21463 0.004178 0.42926 0.009742 0.21463 0.00498 0.21463 0.005029 0.21463 0.005059 0.21463 0.005098 0.21463 0.005101 0.21463 0.005038 0.21463 0.005023 0.21463 0.005009 0.21463 0.00502 0.21463 0.005023 0.21463 0.005028 0.42926 0.010059 0.21463 0.003909 0.21463 0.003853 0.21463 0.003884 0.21463 0.003901 0.21463 0.003906 0.21463 0.003982 0.21463 0.004002 0.21463 0.00404 0.21463 0.004063 0.21463 0.003121 0.21463 0.004039 0.21463 0.004092 0.21463 0.004102 0.21463 0.004114 0.21463 0.004157 0.21463 0.004145 0.21463 0.00419 0.21463 0.004199 0.21463 0.004184 0.21463 0.00513 0.42926 0.010767 0.21463 0.005385 0.21463 0.004825 0.21463 0.004122 0.21463 0.005395 0.21463 0.005305 0.21463 0.005285 0.21463 0.005272 0.21463 0.005249 0.21463 0.005279 0.21463 0.00661 0.21463 0.006748 0.42926 0.016099 0.21463 0.008106 0.21463 0.008124 0.21463 0.008157 0.21463 0.008184 0.21463 0.008219 0.21463 0.009447 0.21463 0.009449 0.21463 0.009385 0.21463 0.009465 0.21463 0.009402 0.21463 0.009406 0.21463 0.009732 0.21463 0.011995 0.21463 0.013045 0.21463 0.012204 0.21463 0.012289 0.21463 0.013586 0.21463 0.015047 0.21463 0.015034 0.42926 0.030104 0.21463 0.015099 0.21463 0.015208 0.21463 0.014261 0.21463 0.013947 0.21463 0.014025 0.21463 0.013987 0.21463 0.013994 0.21463 0.014012 0.21463 0.01274 0.21463 0.012883 0.21463 0.018089 0.21463 0.019419 0.21463 0.019551 0.21463 0.019588 0.21463 0.018294 0.21463 0.018241 0.21463 0.01698 0.21463 0.019037 0.21463 0.021151 0.21463 0.021184 0.21463 0.02125 0.21463 0.021301 0.21463 0.021287 0.21463 0.019963 0.21463 0.019973 0.21463 0.022658 0.21463 0.023789 0.21463 0.024236 0.21463 0.025924 0.21463 0.027754 0.21463 0.025442 0.21463 0.025141 0.21463 0.025153 0.21463 0.027483 0.21463 0.027797 0.21463 0.037247 0.21463 0.037559 0.21463 0.039054 0.21463 0.039265 0.21463 0.039391 0.21463 0.039509 0.21463 0.039951 0.21463 0.041239 0.21463 0.041529 0.21463 0.042301 0.21463 0.046228 0.21463 0.054439 0.21463 0.054856 0.21463 0.055006 0.21463 0.049483 0.21463 0.048284 0.21463 0.049714 0.21463 0.049931 0.21463 0.050162 0.21463 0.050367 0.21463 0.050549 0.21463 0.048464 0.21463 0.046481 0.21463 0.048076 0.21463 0.048251 0.21463 0.04851 0.21463 0.050187 0.21463 0.050562 0.21463 0.050849 0.21463 0.048 0.21463 0.046847 0.21463 0.046645 0.21463 0.045099 0.21463 0.044071 0.21463 0.044226 0.21463 0.043467 0.21463 0.043912 0.21463 0.062395 0.21463 0.060864 0.21463 0.048144 0.21463 0.048131 0.21463 0.046725 0.21463 0.046991 0.21463 0.048545 0.21463 0.051167 0.21463 0.05218 0.21463 0.051203 0.21463 0.051329 0.21463 0.052479 0.21463 0.049698 0.21463 0.040345 0.21463 0.04035 0.21463 0.040989 0.21463 0.042804 0.21463 0.045189 0.21463 0.04385 0.21463 0.044065 0.21463 0.04456 0.21463 0.046186 0.21463 0.046629 0.21463 0.048352 0.21463 0.048363 0.21463 0.04708 0.21463 0.047462 0.21463 0.048536 0.21463 0.047039 0.21463 0.048708 0.21463 0.048941 0.21463 0.049165 0.21463 0.049465 0.21463 0.050166 0.21463 0.0525 0.21463 0.052181 0.21463 0.053317 0.21463 0.0533 0.21463 0.053242 0.21463 0.028178 0.21463 0.028431 0.21463 0.029897 0.21463 0.029977 0.21463 0.032321 0.21463 0.032591 0.21463 0.034555 0.21463 0.035591 0.21463 0.040252 0.21463 0.040503 0.21463 0.042331 0.21463 0.040649 0.21463 0.039118 0.21463 0.039183 0.21463 0.039263 0.21463 0.038823 0.21463 0.037017 0.21463 0.034511 0.21463 0.03457 0.21463 0.034623 0.21463 0.034358 0.21463 0.032845 0.21463 0.032971 0.21463 0.03162 0.21463 0.036107 0.21463 0.040787 0.21463 0.052826 0.21463 0.055978 0.21463 0.062644 0.21463 0.061173 0.21463 0.061603 0.21463 0.063086 0.21463 0.063431 0.21463 0.063303 0.21463 0.061198 0.21463 0.062219 0.21463 0.06297 0.21463 0.063384 0.21463 0.063827 0.21463 0.064172 0.21463 0.064346 0.21463 0.06306 0.21463 0.063404 0.21463 0.061066 0.21463 0.060964 0.21463 0.057071 0.21463 0.052757 0.21463 0.046138 0.21463 0.046033 0.21463 0.044046 0.21463 0.044188 0.21463 0.045433 0.21463 0.047151 0.21463 0.047386 0.21463 0.047603 0.21463 0.04777 0.21463 0.047986 0.21463 0.048216 0.21463 0.048468 0.21463 0.048622 0.21463 0.048749 0.21463 0.04857 0.21463 0.051053 0.21463 0.04585 0.21463 0.040321 0.21463 0.025634 0.21463 0.021002 0.21463 0.013374 0.21463 0.013459 0.21463 0.013395 0.21463 0.014197 0.21463 0.016638 0.21463 0.021663 0.21463 0.023112 0.21463 0.022296 0.21463 0.020638 0.21463 0.025408 0.21463 0.028573 0.21463 0.040775 0.21463 0.045901 0.21463 0.049432 0.21463 0.049921 0.21463 0.050232 0.21463 0.050484 0.21463 0.050724 0.21463 0.055036 0.21463 0.060442 0.21463 0.064341 0.21463 0.069785 0.21463 0.073021 0.21463 0.07223 0.21463 0.070968 0.21463 0.071505 0.21463 0.074746 0.21463 0.091008 0.21463 0.091828 0.21463 0.09265 0.21463 0.093462 0.21463 0.094353 0.21463 0.095248 0.21463 0.09631 0.21463 0.094055 0.21463 0.094937 0.21463 0.095819 0.21463 0.0968 0.21463 0.1039 0.21463 0.1073 0.21463 0.10831 0.21463 0.10931 0.21463 0.10773 0.21463 0.10572 0.21463 0.10006 0.21463 0.098853 0.21463 0.098155 0.21463 0.099602 0.21463 0.096361 0.21463 0.093062 0.21463 0.077266 0.21463 0.074331 0.21463 0.070527 0.21463 0.070684 0.21463 0.071099 0.21463 0.071673 0.21463 0.072175 0.21463 0.066998 0.21463 0.060205 0.21463 0.057237 0.21463 0.052023 0.21463 0.048702 0.21463 0.048915 0.21463 0.049128 0.21463 0.049266 0.21463 0.04573 0.21463 0.024458 0.21463 0.024497 0.21463 0.024536 0.21463 0.024556 0.21463 0.024569 0.21463 0.024602 0.21463 0.024401 0.21463 0.024535 0.21463 0.024722 0.21463 0.025762 0.21463 0.026632 0.21463 0.018632 0.21463 0.040306 0.21463 0.074603 0.21463 0.081404 0.21463 0.083408 0.21463 0.084056 0.21463 0.084902 0.21463 0.08745 0.21463 0.090229 0.21463 0.091767 0.21463 0.089694 0.21463 0.090285 0.21463 0.091022 0.21463 0.08775 0.21463 0.08828 0.21463 0.089174 0.21463 0.090077 0.21463 0.090819 0.21463 0.091866 0.21463 0.095202 0.21463 0.095632 0.21463 0.094515 0.21463 0.094842 0.21463 0.096233 0.21463 0.097413 0.21463 0.098376 0.21463 0.099358 0.21463 0.10036 0.21463 0.10137 0.21463 0.10241 0.21463 0.10362 0.21463 0.10501 0.21463 0.10642 0.21463 0.1196 0.21463 0.13038 0.21463 0.14604 0.21463 0.16565 0.21463 0.17203 0.21463 0.1736 0.21463 0.17658 0.21463 0.14273 0.21463 0.094001 0.21463 0.086957 0.21463 0.085753 0.21463 0.08641 0.21463 0.086957 0.21463 0.085047 0.21463 0.082669 0.21463 0.081302 0.21463 0.084886 0.21463 0.085552 0.21463 0.086179 0.21463 0.086789 0.21463 0.087407 0.21463 0.087927 0.21463 0.088463 0.21463 0.089151 0.21463 0.08963 0.21463 0.090235 0.21463 0.093798 0.21463 0.094601 0.21463 0.093489 0.21463 0.093057 0.21463 0.093511 0.21463 0.094333 0.21463 0.095232 0.21463 0.096391 0.21463 0.09761 0.21463 0.098636 0.21463 0.099584 0.21463 0.10079 0.21463 0.17402 0.21463 0.1727 0.21463 0.18389 0.21463 0.1716 0.21463 0.14986 0.21463 0.14406 0.21463 0.14602 0.21463 0.14804 0.21463 0.15 0.42926 0.30272 0.21463 0.15344 0.21463 0.15568 0.21463 0.15794 0.21463 0.16019 0.21463 0.16246 0.21463 0.165 0.21463 0.16311 0.21463 0.16592 0.21463 0.16882 0.21463 0.17182 0.21463 0.17493 0.21463 0.17815 0.21463 0.18149 0.21463 0.20593 0.21463 0.21045 0.21463 0.20908 0.21463 0.20884 0.21463 0.21366 0.21463 0.2854 0.21463 0.35223 0.21463 0.39104 0.21463 0.42193 0.21463 0.44076 0.21463 0.46083 0.21463 0.48271 0.21463 0.50728 0.21463 0.5451 0.21463 0.57393 0.21463 0.41933 0.21463 0.41765 0.21463 0.37515 0.21463 0.37332 0.21463 0.3808 0.21463 0.39545 0.21463 0.41128 0.21463 0.42844 0.21463 0.44708 0.21463 0.46742 0.21463 0.4897 0.21463 0.51422 0.21463 0.54132 0.21463 0.57144 0.21463 0.60511 0.21463 0.643 0.21463 0.68585 0.21463 0.73409 0.21463 0.7897 0.21463 0.8545 0.21463 0.93096 0.21463 1.0226 0.21463 1.1344 0.21463 1.2739 0.21463 1.2807 0.21463 1.459 0.21463 1.696 0.21463 2.0264 0.21463 2.519 0.21463 1.9993 0.21463 1.2123 0.21463 0.80108 0.21463 0.53262 0.21463 0.54166 0.21463 0.55061 0.21463 0.55941 0.21463 0.56797 0.21463 0.33559 0.21463 0.34365 0.21463 0.35216 0.21463 0.017734 0.21463 0.017464 0.21463 0.017193 0.21463 0.016919 0.21463 0.016645 0.21463 0.016369 0.21463 0.016092 0.21463 0.015813 0.21463 0.015533 0.21463 0.015253 0.21463 0.014969 0.21463 0.014686 0.21463 0.014401 0.21463 0.029271 0.21463 0.035735v32.377h-420.89z" stroke="#0766aa" stroke-opacity=".2"/>
</defs>
<g clip-path="url(#j)">
<use y="413.19625" fill="#0766aa" fill-opacity=".2" stroke="#0766aa" stroke-opacity=".2" xlink:href="#ae"/>
</g>
<path d="m40.603 170.63v-141.83" clip-path="url(#j)" fill="none" stroke="#b0b0b0" stroke-linecap="square" stroke-width=".8"/>
<defs>
<path id="f" d="m0 0v3.5" stroke="#000" stroke-width=".8"/>
</defs>
<use x="40.603125" y="170.627393" stroke="#000000" stroke-width=".8" xlink:href="#f"/>
<path d="m137.68 170.63v-141.83" clip-path="url(#j)" fill="none" stroke="#b0b0b0" stroke-linecap="square" stroke-width=".8"/>
<use x="137.677086" y="170.627393" stroke="#000000" stroke-width=".8" xlink:href="#f"/>
<path d="m234.75 170.63v-141.83" clip-path="url(#j)" fill="none" stroke="#b0b0b0" stroke-linecap="square" stroke-width=".8"/>
<use x="234.751047" y="170.627393" stroke="#000000" stroke-width=".8" xlink:href="#f"/>
<path d="m331.83 170.63v-141.83" clip-path="url(#j)" fill="none" stroke="#b0b0b0" stroke-linecap="square" stroke-width=".8"/>
<use x="331.825009" y="170.627393" stroke="#000000" stroke-width=".8" xlink:href="#f"/>
<path d="m428.9 170.63v-141.83" clip-path="url(#j)" fill="none" stroke="#b0b0b0" stroke-linecap="square" stroke-width=".8"/>
<use x="428.89897" y="170.627393" stroke="#000000" stroke-width=".8" xlink:href="#f"/>
<defs>
<path id="e" d="m0 0h-3.5" stroke="#000" stroke-width=".8"/>
</defs>
<use x="40.603125" y="154.105211" stroke="#000000" stroke-width=".8" xlink:href="#e"/>
<defs>
<path id="g" d="m12.406 8.2969h16.109v55.625l-17.531-3.5156v8.9844l17.438 3.5156h9.8594v-64.609h16.109v-8.2969h-41.984z"/>
<path id="b" d="m31.781 66.406q-7.6094 0-11.453-7.5-3.8281-7.4844-3.8281-22.531 0-14.984 3.8281-22.484 3.8438-7.5 11.453-7.5 7.6719 0 11.5 7.5 3.8438 7.5 3.8438 22.484 0 15.047-3.8438 22.531-3.8281 7.5-11.5 7.5zm0 7.8125q12.266 0 18.734-9.7031 6.4688-9.6875 6.4688-28.141 0-18.406-6.4688-28.109-6.4688-9.6875-18.734-9.6875-12.25 0-18.719 9.6875-6.4688 9.7031-6.4688 28.109 0 18.453 6.4688 28.141 6.4688 9.7031 18.719 9.7031z"/>
</defs>
<g transform="translate(16.003 157.9) scale(.1 -.1)">
<use transform="translate(0 .68438)" xlink:href="#g"/>
<use transform="translate(63.623 .68438)" xlink:href="#b"/>
<use transform="translate(128.2 38.966) scale(.7)" xlink:href="#g"/>
</g>
<use x="40.603125" y="130.467312" stroke="#000000" stroke-width=".8" xlink:href="#e"/>
<defs>
<path id="s" d="m19.188 8.2969h34.422v-8.2969h-46.281v8.2969q5.6094 5.8125 15.297 15.594 9.7031 9.7969 12.188 12.641 4.7344 5.3125 6.6094 9 1.8906 3.6875 1.8906 7.25 0 5.8125-4.0781 9.4688-4.0781 3.6719-10.625 3.6719-4.6406 0-9.7969-1.6094-5.1406-1.6094-11-4.8906v9.9688q5.9531 2.3906 11.125 3.6094 5.1875 1.2188 9.4844 1.2188 11.328 0 18.062-5.6719 6.7344-5.6562 6.7344-15.125 0-4.5-1.6875-8.5312-1.6719-4.0156-6.125-9.4844-1.2188-1.4219-7.7656-8.1875-6.5312-6.7656-18.453-18.922z"/>
</defs>
<g transform="translate(16.003 134.27) scale(.1 -.1)">
<use transform="translate(0 .76562)" xlink:href="#g"/>
<use transform="translate(63.623 .76562)" xlink:href="#b"/>
<use transform="translate(128.2 39.047) scale(.7)" xlink:href="#s"/>
</g>
<use x="40.603125" y="106.829413" stroke="#000000" stroke-width=".8" xlink:href="#e"/>
<defs>
<path id="ac" d="m40.578 39.312q7.0781-1.5156 11.047-6.3125 3.9844-4.7812 3.9844-11.812 0-10.781-7.4219-16.703-7.4219-5.9062-21.094-5.9062-4.5781 0-9.4375 0.90625t-10.031 2.7188v9.5156q4.0938-2.3906 8.9688-3.6094 4.8906-1.2188 10.219-1.2188 9.2656 0 14.125 3.6562t4.8594 10.641q0 6.4531-4.5156 10.078-4.5156 3.6406-12.562 3.6406h-8.5v8.1094h8.8906q7.2656 0 11.125 2.9062t3.8594 8.375q0 5.6094-3.9844 8.6094-3.9688 3.0156-11.391 3.0156-4.0625 0-8.7031-0.89062-4.6406-0.875-10.203-2.7188v8.7812q5.625 1.5625 10.531 2.3438t9.25 0.78125q11.234 0 17.766-5.1094 6.5469-5.0938 6.5469-13.781 0-6.0625-3.4688-10.234t-9.8594-5.7812z"/>
</defs>
<g transform="translate(16.003 110.63) scale(.1 -.1)">
<use transform="translate(0 .76562)" xlink:href="#g"/>
<use transform="translate(63.623 .76562)" xlink:href="#b"/>
<use transform="translate(128.2 39.047) scale(.7)" xlink:href="#ac"/>
</g>
<use x="40.603125" y="83.191514" stroke="#000000" stroke-width=".8" xlink:href="#e"/>
<defs>
<path id="o" d="m37.797 64.312-24.906-38.922h24.906zm-2.5938 8.5938h12.406v-47.516h10.406v-8.2031h-10.406v-17.188h-9.8125v17.188h-32.906v9.5156z"/>
</defs>
<g transform="translate(16.003 86.991) scale(.1 -.1)">
<use transform="translate(0 .68438)" xlink:href="#g"/>
<use transform="translate(63.623 .68438)" xlink:href="#b"/>
<use transform="translate(128.2 38.966) scale(.7)" xlink:href="#o"/>
</g>
<use x="40.603125" y="59.553615" stroke="#000000" stroke-width=".8" xlink:href="#e"/>
<defs>
<path id="ar" d="m10.797 72.906h38.719v-8.3125h-29.688v-17.859q2.1406 0.73438 4.2812 1.0938 2.1562 0.35938 4.3125 0.35938 12.203 0 19.328-6.6875 7.1406-6.6875 7.1406-18.109 0-11.766-7.3281-18.297-7.3281-6.5156-20.656-6.5156-4.5938 0-9.3594 0.78125-4.75 0.78125-9.8281 2.3438v9.9219q4.3906-2.3906 9.0781-3.5625t9.9062-1.1719q8.4531 0 13.375 4.4375 4.9375 4.4375 4.9375 12.062 0 7.6094-4.9375 12.047-4.9219 4.4531-13.375 4.4531-3.9531 0-7.8906-0.875-3.9219-0.875-8.0156-2.7344z"/>
</defs>
<g transform="translate(16.003 63.353) scale(.1 -.1)">
<use transform="translate(0 .68438)" xlink:href="#g"/>
<use transform="translate(63.623 .68438)" xlink:href="#b"/>
<use transform="translate(128.2 38.966) scale(.7)" xlink:href="#ar"/>
</g>
<use x="40.603125" y="35.915717" stroke="#000000" stroke-width=".8" xlink:href="#e"/>
<defs>
<path id="ab" d="m33.016 40.375q-6.6406 0-10.531-4.5469-3.875-4.5312-3.875-12.438 0-7.8594 3.875-12.438 3.8906-4.5625 10.531-4.5625t10.516 4.5625q3.875 4.5781 3.875 12.438 0 7.9062-3.875 12.438-3.875 4.5469-10.516 4.5469zm19.578 30.922v-8.9844q-3.7188 1.75-7.5 2.6719-3.7812 0.9375-7.5 0.9375-9.7656 0-14.922-6.5938-5.1406-6.5938-5.875-19.922 2.875 4.25 7.2188 6.5156 4.3594 2.2656 9.5781 2.2656 10.984 0 17.359-6.6719 6.375-6.6562 6.375-18.125 0-11.234-6.6406-18.031-6.6406-6.7812-17.672-6.7812-12.656 0-19.344 9.6875-6.6875 9.7031-6.6875 28.109 0 17.281 8.2031 27.562t22.016 10.281q3.7188 0 7.5-0.73438t7.8906-2.1875z"/>
</defs>
<g transform="translate(16.003 39.715) scale(.1 -.1)">
<use transform="translate(0 .76562)" xlink:href="#g"/>
<use transform="translate(63.623 .76562)" xlink:href="#b"/>
<use transform="translate(128.2 39.047) scale(.7)" xlink:href="#ab"/>
</g>
<defs>
<path id="a" d="m0 0h-2" stroke="#000" stroke-width=".6"/>
</defs>
<use x="40.603125" y="170.627393" stroke="#000000" stroke-width=".6" xlink:href="#a"/>
<use x="40.603125" y="166.464966" stroke="#000000" stroke-width=".6" xlink:href="#a"/>
<use x="40.603125" y="163.511677" stroke="#000000" stroke-width=".6" xlink:href="#a"/>
<use x="40.603125" y="161.220927" stroke="#000000" stroke-width=".6" xlink:href="#a"/>
<use x="40.603125" y="159.349249" stroke="#000000" stroke-width=".6" xlink:href="#a"/>
<use x="40.603125" y="157.766768" stroke="#000000" stroke-width=".6" xlink:href="#a"/>
<use x="40.603125" y="156.39596" stroke="#000000" stroke-width=".6" xlink:href="#a"/>
<use x="40.603125" y="155.186822" stroke="#000000" stroke-width=".6" xlink:href="#a"/>
<use x="40.603125" y="146.989494" stroke="#000000" stroke-width=".6" xlink:href="#a"/>
<use x="40.603125" y="142.827067" stroke="#000000" stroke-width=".6" xlink:href="#a"/>
<use x="40.603125" y="139.873778" stroke="#000000" stroke-width=".6" xlink:href="#a"/>
<use x="40.603125" y="137.583029" stroke="#000000" stroke-width=".6" xlink:href="#a"/>
<use x="40.603125" y="135.71135" stroke="#000000" stroke-width=".6" xlink:href="#a"/>
<use x="40.603125" y="134.128869" stroke="#000000" stroke-width=".6" xlink:href="#a"/>
<use x="40.603125" y="132.758061" stroke="#000000" stroke-width=".6" xlink:href="#a"/>
<use x="40.603125" y="131.548923" stroke="#000000" stroke-width=".6" xlink:href="#a"/>
<use x="40.603125" y="123.351595" stroke="#000000" stroke-width=".6" xlink:href="#a"/>
<use x="40.603125" y="119.189168" stroke="#000000" stroke-width=".6" xlink:href="#a"/>
<use x="40.603125" y="116.235879" stroke="#000000" stroke-width=".6" xlink:href="#a"/>
<use x="40.603125" y="113.94513" stroke="#000000" stroke-width=".6" xlink:href="#a"/>
<use x="40.603125" y="112.073451" stroke="#000000" stroke-width=".6" xlink:href="#a"/>
<use x="40.603125" y="110.49097" stroke="#000000" stroke-width=".6" xlink:href="#a"/>
<use x="40.603125" y="109.120162" stroke="#000000" stroke-width=".6" xlink:href="#a"/>
<use x="40.603125" y="107.911024" stroke="#000000" stroke-width=".6" xlink:href="#a"/>
<use x="40.603125" y="99.713697" stroke="#000000" stroke-width=".6" xlink:href="#a"/>
<use x="40.603125" y="95.551269" stroke="#000000" stroke-width=".6" xlink:href="#a"/>
<use x="40.603125" y="92.59798" stroke="#000000" stroke-width=".6" xlink:href="#a"/>
<use x="40.603125" y="90.307231" stroke="#000000" stroke-width=".6" xlink:href="#a"/>
<use x="40.603125" y="88.435553" stroke="#000000" stroke-width=".6" xlink:href="#a"/>
<use x="40.603125" y="86.853071" stroke="#000000" stroke-width=".6" xlink:href="#a"/>
<use x="40.603125" y="85.482263" stroke="#000000" stroke-width=".6" xlink:href="#a"/>
<use x="40.603125" y="84.273125" stroke="#000000" stroke-width=".6" xlink:href="#a"/>
<use x="40.603125" y="76.075798" stroke="#000000" stroke-width=".6" xlink:href="#a"/>
<use x="40.603125" y="71.91337" stroke="#000000" stroke-width=".6" xlink:href="#a"/>
<use x="40.603125" y="68.960081" stroke="#000000" stroke-width=".6" xlink:href="#a"/>
<use x="40.603125" y="66.669332" stroke="#000000" stroke-width=".6" xlink:href="#a"/>
<use x="40.603125" y="64.797654" stroke="#000000" stroke-width=".6" xlink:href="#a"/>
<use x="40.603125" y="63.215172" stroke="#000000" stroke-width=".6" xlink:href="#a"/>
<use x="40.603125" y="61.844365" stroke="#000000" stroke-width=".6" xlink:href="#a"/>
<use x="40.603125" y="60.635226" stroke="#000000" stroke-width=".6" xlink:href="#a"/>
<use x="40.603125" y="52.437899" stroke="#000000" stroke-width=".6" xlink:href="#a"/>
<use x="40.603125" y="48.275471" stroke="#000000" stroke-width=".6" xlink:href="#a"/>
<use x="40.603125" y="45.322182" stroke="#000000" stroke-width=".6" xlink:href="#a"/>
<use x="40.603125" y="43.031433" stroke="#000000" stroke-width=".6" xlink:href="#a"/>
<use x="40.603125" y="41.159755" stroke="#000000" stroke-width=".6" xlink:href="#a"/>
<use x="40.603125" y="39.577273" stroke="#000000" stroke-width=".6" xlink:href="#a"/>
<use x="40.603125" y="38.206466" stroke="#000000" stroke-width=".6" xlink:href="#a"/>
<use x="40.603125" y="36.997328" stroke="#000000" stroke-width=".6" xlink:href="#a"/>
<use x="40.603125" y="28.8" stroke="#000000" stroke-width=".6" xlink:href="#a"/>
<path d="m44.692 106.91 0.64388 0.82282 0.85852 0.83442 0.42926 0.29688 0.64388 0.56093 0.64389 0.071732 1.2878-0.052743 0.85851 0.07031 0.42926-0.022811 0.64389-0.2405 1.0731-0.30669 1.717-0.82033 1.5024 0.15236 2.7902 1.4066 1.5024 0.32618 0.64389 0.26749 0.64389-0.099995 0.85851-0.3908 1.2878-0.18148 0.64389 0.049539 0.64389 0.28653 1.0731 0.67332 0.85851 0.52432 1.2878 0.14895 0.64389-0.010546 0.42926 0.1095 1.5024-0.48751 0.85852-0.063841 0.64388-0.37587 0.64389-0.33597 3.0048-0.49653 2.5755-1.5544 0.64389-0.19688 0.64389 0.085094 0.64388 0.045419 0.64389-0.15003 0.64389 0.17193 0.64389 0.12063 0.42926 0.026685 0.64389 0.074176 0.85851-0.086521 0.85851-0.2164 0.85852-0.46459 1.2878-0.037761 0.42926 0.17273 0.64389 0.50868 1.717 1.9389 0.85851 1.1576 1.0731 1.0809 0.85851 0.34459 0.64389 0.031539 1.0731-0.92485 2.7902-1.2495 0.64389-0.26149 0.42926 0.034845 1.5024 0.5976 1.2878 0.95752 0.64388 0.041788 2.1463-0.77399 1.0731-0.42909 1.0731-0.9316 1.0731-0.40505 0.64389-0.045943 0.64388 0.13191 0.64389 0.44337 1.2878 0.84329 0.42926 0.14901 0.64388-0.13463 0.85852-0.35268 2.3609-1.9177 0.42926-0.031898 0.85852 0.18384 1.0731 0.44274 0.64389 0.48035 0.64389 0.77604 1.0731 1.5427 0.85851 0.94626 0.42926 0.21077 0.42926-0.17872 1.2878-1.0125 1.9317-1.8145 0.85851-1.0548 1.0731-0.85462 0.42926-0.16996 1.5024-0.27367 0.64388-0.21898 0.85852-0.1205 0.64388-0.10198 1.2878 0.18052 0.64389 0.081602 2.5755-0.11276 0.42926 0.15371 0.64388 0.326 1.717 0.54861 0.42926 0.14522 1.0731-0.21463 1.717-0.41554 0.85851-0.10734 0.64389-0.33118 0.64389-0.35599 0.85851-0.083617 0.64389 0.065703 1.2878 0.30276 1.2878 0.10889 0.85851 0.14051 1.717 0.76575 0.64389 0.22687 2.3609 0.47808 1.2878 0.25832 0.21463-0.017072 1.5024-1.178 0.64388-0.51239 0.64389-0.26407 0.64389-0.026673 0.64389 0.14214 0.42926 0.11952 1.2878 0.52005 1.0731-0.13888 0.64389-0.18806 1.5024-1.1225 2.1463-1.6953 0.42926-0.0601 0.64389 0.2541 0.85851 0.68144 2.5755 2.4229 0.85851 0.29306 0.64389 0.14019 0.64389-0.096744 0.64388-0.066826 1.717 0.23614 1.2878 0.516 0.42926-0.14678 0.64388-0.2393 0.64389 0.01177 1.0731-0.35551 0.85851-0.50588 0.85852-0.48041 1.5024-0.96003 0.85851-0.2177 0.64389 0.003321 1.5024 0.34274 0.64389 0.043799 0.85851 0.21366 0.64389 0.032766 0.85851-0.16157 1.2878 0.23061 0.85852 0.063378 1.0731-0.046805 0.85851 0.10944 1.2878 0.54972 1.2878 0.16782 0.85851-0.58304 0.85852-0.60204 0.85851-0.060239 2.3609 0.39636 0.85852-0.060132 0.64388 0.14779 1.0731 0.35414 0.85851 0.45073 1.9317 0.51499 0.85851 0.7117 1.2878 1.5004 0.42926 0.23855 0.42926 0.11733 2.1463-0.44276 0.64388-0.54335 3.2194-2.1237 0.64389-0.16975 0.85851-0.17382 0.85851-0.25004 0.64389 0.029982 0.42926 0.16618 1.2878 0.85486 2.5755 0.58859 0.85851-0.24738 1.5024-0.74072 1.0731-0.019351 0.64389 0.1537 2.3609 1.2543 0.64389 0.1491 0.64389 0.45842 1.0731 0.93167 0.64389 0.32213 2.7902-0.2639 0.85851-0.59729 1.2878-1.1228 0.85852-0.47423 0.42926 0.013383 0.42926 0.25597 2.1463 1.7739 0.64389 0.7725 1.0731 1.3615 0.85851 0.68182 0.42926 0.109 1.5024-0.50645 0.64389-0.29201 0.42926 0.070623 0.85851 0.61592 0.42926 0.23127 1.0731 0.031724 0.64389-0.002571 1.2878 0.062076 1.2878 0.11358 0.64389 0.24452 0.85851 0.25888 0.85851-0.12527 0.42926 0.068561 1.0731 0.53078 0.42926 0.26335 0.42926-0.005664 0.42926 0.029295 0.85851 0.27554 0.85852-0.23159 0.42926-0.26687 2.1463-2.3042 1.0731-1.5756 1.0731-1.6639 0.85852-0.60233 1.0731-0.40963 0.42926 0.041295 0.42926 0.22095 1.5024 1.4441 1.2878 1.3428 0.42926 0.20202 1.0731 0.086859 0.42926-0.29261 0.42926-0.40132 0.42926-0.15368 0.64389-0.10668 0.85851-0.4202 0.64389-0.096194 0.42926 0.13495 0.85851 0.76528 0.64389 0.69171 1.717 1.8876 1.2878 1.2956 0.42926 0.058215 0.42926 0.11645 0.64389 0.32426 0.85851 0.046928 1.2878-0.62291 0.85851-0.056024 0.42926 0.093309 0.64389 0.46738 0.42926 0.28018 0.64389-0.033681 0.42926-0.1601 0.64389 0.005423 0.42926-0.015277 0.85851-0.20501 0.85852 0.232 0.42926-0.12305 0.42926-0.018461 0.42926-0.38965 0.85851-0.85592 1.2878-1.0785 0.64389-0.16408 0.85851-0.026175 0.85851-0.41498 1.0731-0.60771 0.42926-0.10568 0.42926 0.10832 0.85852 0.40092 3.2194 1.043 1.2878 0.34402 0.42926 0.2066 0.42926 0.024686 1.9317-0.69618 1.5024 0.16438 0.42926-0.26661 0.64388-0.18842 0.85852-0.52579 2.1463-0.75052 0.64389 0.079752 1.2878-0.20749 0.64388 0.13794 0.85852 0.67111 0.85851 0.8677 0.64389 0.14824 0.42926 0.13875 1.2878 0.16714 0.42926-0.043299 1.717 0.44605 0.85852 0.45578 1.0731-0.19892 0.64389 0.20101 0.42926 0.33661 0.64389 0.63453 0.42926 0.23642 0.64389 0.095781 2.3609 1.1792 0.64389 0.61461 0.85851 1.1754 0.85852 1.1803 1.0731 0.73978 0.64388 0.45956 1.2878 1.2591 0.42926-0.05913 0.64389-0.31446 0.64388-0.5525 0.85852-1.0275 0.64388-0.27558 0.42926-0.051825 0.64388-0.39033 0.64389-0.27798 1.0731 0.078787 0.42926 0.13126 0.64389 0.43127 0.64389 0.69736 0.85851 1.0619 0.42926 0.29818 0.42926-0.003235 0.64389-0.45394 0.85851-1.0988 0.64389-0.35302 0.42926-0.1944 1.5024-1.5924 1.0731-0.37078 1.0731-0.04144 0.42926 0.065287 1.0731-0.28768 2.3609-2.9316 0.64389-0.3267 1.2878-0.092797 0.42926 0.14199 0.42926 0.33819 0.64389 0.89756 1.0731 2.1291 1.5024 3.0061 0.42926 0.11629 1.2878-0.40526 1.717-0.2211 0.85851-0.75618 0.64389-0.63556 1.717-1.8175 0.85851-0.73055 1.5024-0.75776 0.85851-1.106 0.42926-0.42986 0.42926-0.20117 0.42926-0.025288 0.42926 0.040531 2.1463-0.009882 3.8633 0.55442 1.0731-0.42129 0.85851-0.074262 0.42926 0.001008 0.85851-0.17352 1.5024-0.63554 0.64389 0.023214 0.85851 0.27079 1.0731-0.29039 0.85851 0.17002 0.42926 0.17117 0.64389 0.081853 1.0731 0.59893 0.42926 0.19221 0.64389 0.035918 0.64389-0.26359 0.42926-0.31368 0.64388-0.083489 0.85852 0.015837 0.64389 0.22023 1.0731-0.021843 0.64389 0.011573 1.5024 0.57759 0.64389 0.46916 0.64389 0.5032 2.1463 1.0561 0.85852 0.55485 1.0731 0.47668 1.2878-0.25063 1.717-1.7373 0.64389-0.5465 0.64388-0.26348 0.42926 0.013295 0.64389 0.26696 1.2878 0.71934 1.717 1.5601 1.5024 0.27427 0.64389-0.3655 0.64389-0.12181 0.64389 0.079315 0.42926 0.24572 0.42926 0.4531 0.64389 1.0958 1.2878 2.579 0.64389 1.1376 0.64389 1.4768 0.64388 1.4177 0.85852 0.96966 0.42926 0.089365 0.64388-0.69796 0.64389-0.56276 0.64389-0.19893 0.64389 0.045554 0.42926 0.071702 0.64389-0.59853 0.42926-0.31998 0.42926-0.34204 1.2878-0.49124 0.64389 0.18178 0.85851 0.11667 1.5024-0.3457 1.717-0.12156 0.42926 0.02475 0.42926 0.064084 1.717-1.6804 0.42926-0.15535 0.42926 0.030065 0.42926 0.20148 0.64388 0.62331 1.5024 2.0219 1.717 3.1939 0.21463 0.23741 0.64388 0.27855 0.42926 0.12264 0.64389-0.67342 0.85851-1.509 0.85852-1.294 0.64389-1.0638 0.42926-0.41602 0.42926-0.19623 1.0731-0.1202 0.64388 0.091121 1.5024 0.62756 0.64388 0.022352 1.9317 1.0795 0.64389 0.61746 0.21463 0.23499 0.64389 0.069441 0.85851-0.47036 1.0731-0.27961 0.42926 0.017925 0.42926 0.21345 0.64389 0.64237 1.0731 1.3292 0.64388 0.59507 0.64389 1.039 0.64389 1.6076 0.64389 1.9991 0.64388 2.9131 0.42926 2.8794 0.64388 4.4383 0.85852 5.1673 2.1463 3.9567 0.64389 0.70108 0.42926 0.18422 1.0731 0.095961 0.64389 0.41954 0.64389 0.73456 0.64388 1.0517 0.85852 1.9374 0.85851 2.6646 0.85851 3.6335 0.64389 3.6375 0.64389 4.849 0.64389 6.9261 0.42926 6.8147 0.42926 10.838v0" clip-path="url(#j)" fill="none" stroke="#dc143c" stroke-linecap="square" stroke-width="1.5"/>
<path d="m40.603 170.63v-141.83" fill="none" stroke="#000" stroke-linecap="square" stroke-width=".8"/>
<path d="m486.62 170.63v-141.83" fill="none" stroke="#000" stroke-linecap="square" stroke-width=".8"/>
<path d="m40.603 170.63h446.02" fill="none" stroke="#000" stroke-linecap="square" stroke-width=".8"/>
<path d="m40.603 28.8h446.02" fill="none" stroke="#000" stroke-linecap="square" stroke-width=".8"/>
<path d="m324.59 66.156h155.04q2 0 2-2v-28.356q0-2-2-2h-155.04q-2 0-2 2v28.356q0 2 2 2z" fill="#fff" opacity=".8" stroke="#ccc"/>
<path d="m326.59 41.898h20" fill="none" stroke="#dc143c" stroke-linecap="square" stroke-width="1.5"/>
<defs>
<path id="h" d="m41.109 46.297q-1.5156 0.875-3.2969 1.2812-1.7812 0.42188-3.9219 0.42188-7.625 0-11.703-4.9531t-4.0781-14.234v-28.812h-9.0312v54.688h9.0312v-8.5q2.8438 4.9844 7.375 7.3906 4.5469 2.4219 11.047 2.4219 0.92188 0 2.0469-0.125 1.125-0.10938 2.4844-0.35938z"/>
<path id="i" d="m34.281 27.484q-10.891 0-15.094-2.4844t-4.2031-8.5q0-4.7812 3.1562-7.5938 3.1562-2.7969 8.5625-2.7969 7.4844 0 12 5.2969t4.5156 14.078v2zm17.922 3.7188v-31.203h-8.9844v8.2969q-3.0781-4.9688-7.6719-7.3438t-11.234-2.375q-8.3906 0-13.359 4.7188-4.9531 4.7188-4.9531 12.625 0 9.2188 6.1719 13.906 6.1875 4.6875 18.438 4.6875h12.609v0.89062q0 6.2031-4.0781 9.5938t-11.453 3.3906q-4.6875 0-9.1406-1.125-4.4375-1.125-8.5312-3.375v8.3125q4.9219 1.9062 9.5625 2.8438 4.6406 0.95312 9.0312 0.95312 11.875 0 17.734-6.1562 5.8594-6.1406 5.8594-18.641z"/>
<path id="q" d="m18.312 70.219v-15.531h18.5v-6.9844h-18.5v-29.688q0-6.6875 1.8281-8.5938t7.4531-1.9062h9.2188v-7.5156h-9.2188q-10.406 0-14.359 3.875-3.9531 3.8906-3.9531 14.141v29.688h-6.5938v6.9844h6.5938v15.531z"/>
<path id="c" d="m56.203 29.594v-4.3906h-41.312q0.59375-9.2812 5.5938-14.141t13.938-4.8594q5.1719 0 10.031 1.2656t9.6562 3.8125v-8.5q-4.8438-2.0469-9.9219-3.125t-10.297-1.0781q-13.094 0-20.734 7.6094-7.6406 7.625-7.6406 20.625 0 13.422 7.25 21.297 7.25 7.8906 19.562 7.8906 11.031 0 17.453-7.1094 6.4219-7.0938 6.4219-19.297zm-8.9844 2.6406q-0.09375 7.3594-4.125 11.75-4.0312 4.4062-10.672 4.4062-7.5156 0-12.031-4.25t-5.2031-11.969z"/>
<path id="l" d="m30.609 48.391q-7.2188 0-11.422-5.6406t-4.2031-15.453 4.1719-15.453q4.1875-5.6406 11.453-5.6406 7.1875 0 11.375 5.6562 4.2031 5.6719 4.2031 15.438 0 9.7188-4.2031 15.406-4.1875 5.6875-11.375 5.6875zm0 7.6094q11.719 0 18.406-7.625 6.7031-7.6094 6.7031-21.078 0-13.422-6.7031-21.078-6.6875-7.6406-18.406-7.6406-11.766 0-18.438 7.6406-6.6562 7.6562-6.6562 21.078 0 13.469 6.6562 21.078 6.6719 7.625 18.438 7.625z"/>
<path id="y" d="m37.109 75.984v-7.4844h-8.5938q-4.8281 0-6.7188-1.9531-1.875-1.9531-1.875-7.0312v-4.8281h14.797v-6.9844h-14.797v-47.703h-9.0312v47.703h-8.5938v6.9844h8.5938v3.8125q0 9.125 4.25 13.297 4.25 4.1875 13.469 4.1875z"/>
<path id="m" d="m9.4219 54.688h8.9844v-54.688h-8.9844zm0 21.297h8.9844v-11.391h-8.9844z"/>
<path id="r" d="m9.4219 75.984h8.9844v-75.984h-8.9844z"/>
<path id="v" d="m8.5 21.578v33.109h8.9844v-32.766q0-7.7656 3.0156-11.656 3.0312-3.875 9.0938-3.875 7.2656 0 11.484 4.6406 4.2344 4.6406 4.2344 12.656v31h8.9844v-54.688h-8.9844v8.4062q-3.2656-4.9844-7.5938-7.4062-4.3125-2.4219-10.031-2.4219-9.4219 0-14.312 5.8594-4.875 5.8594-4.875 17.141zm22.609 34.422z"/>
<path id="k" d="m44.281 53.078v-8.5q-3.7969 1.9531-7.9062 2.9219-4.0938 0.98438-8.5 0.98438-6.6875 0-10.031-2.0469t-3.3438-6.1562q0-3.125 2.3906-4.9062t9.625-3.3906l3.0781-0.6875q9.5625-2.0469 13.594-5.7812t4.0312-10.422q0-7.625-6.0312-12.078-6.0312-4.4375-16.578-4.4375-4.3906 0-9.1562 0.85938t-10.031 2.5625v9.2812q4.9844-2.5938 9.8125-3.8906 4.8281-1.2812 9.5781-1.2812 6.3438 0 9.75 2.1719 3.4219 2.1719 3.4219 6.125 0 3.6562-2.4688 5.6094-2.4531 1.9531-10.812 3.7656l-3.125 0.73438q-8.3438 1.75-12.062 5.3906-3.7031 3.6406-3.7031 9.9844 0 7.7188 5.4688 11.906 5.4688 4.2031 15.531 4.2031 4.9688 0 9.3594-0.73438 4.4062-0.71875 8.1094-2.1875z"/>
<path id="u" d="m31 75.875q-6.5312-11.219-9.7188-22.219-3.1719-10.984-3.1719-22.266 0-11.266 3.2031-22.328t9.6875-22.25h-7.8125q-7.3125 11.484-10.953 22.562t-3.6406 22.016q0 10.891 3.6094 21.922 3.625 11.047 10.984 22.562z"/>
<path id="n" d="m45.406 46.391v29.594h8.9844v-75.984h-8.9844v8.2031q-2.8281-4.875-7.1562-7.25-4.3125-2.375-10.375-2.375-9.9062 0-16.141 7.9062-6.2188 7.9219-6.2188 20.812t6.2188 20.797q6.2344 7.9062 16.141 7.9062 6.0625 0 10.375-2.375 4.3281-2.3594 7.1562-7.2344zm-30.609-19.094q0-9.9062 4.0781-15.547t11.203-5.6406 11.219 5.6406q4.1094 5.6406 4.1094 15.547t-4.1094 15.547q-4.0938 5.6406-11.219 5.6406t-11.203-5.6406-4.0781-15.547z"/>
<path id="w" d="m9.0781 75.984h9.0312v-44.875l26.812 23.578h11.469l-29-25.578 30.234-29.109h-11.719l-27.797 26.703v-26.703h-9.0312z"/>
<path id="ad" d="m25.391 72.906h8.2969l-25.391-82.188h-8.2969z"/>
<path id="p" d="m32.172-5.0781q-3.7969-9.7656-7.4219-12.734-3.6094-2.9844-9.6562-2.9844h-7.1875v7.5156h5.2812q3.7031 0 5.75 1.7656 2.0625 1.75 4.5469 8.2969l1.6094 4.0938-22.109 53.812h9.5156l17.094-42.766 17.094 42.766h9.5156z"/>
<path id="t" d="m8.0156 75.875h7.8125q7.3125-11.516 10.953-22.562 3.6406-11.031 3.6406-21.922 0-10.938-3.6406-22.016t-10.953-22.562h-7.8125q6.4844 11.188 9.6875 22.25t3.2031 22.328q0 11.281-3.2031 22.266-3.2031 11-9.6875 22.219z"/>
</defs>
<g transform="translate(354.59 45.398) scale(.1 -.1)">
<use xlink:href="#h"/>
<use x="41.113281" xlink:href="#i"/>
<use x="102.392578" xlink:href="#q"/>
<use x="141.601562" xlink:href="#c"/>
<use x="203.125" xlink:href="#DejaVuSans-20"/>
<use x="234.912109" xlink:href="#l"/>
<use x="296.09375" xlink:href="#y"/>
<use x="331.298828" xlink:href="#DejaVuSans-20"/>
<use x="363.085938" xlink:href="#y"/>
<use x="398.291016" xlink:href="#i"/>
<use x="459.570312" xlink:href="#m"/>
<use x="487.353516" xlink:href="#r"/>
<use x="515.136719" xlink:href="#v"/>
<use x="578.515625" xlink:href="#h"/>
<use x="619.597656" xlink:href="#c"/>
<use x="681.121094" xlink:href="#k"/>
<use x="733.220703" xlink:href="#DejaVuSans-20"/>
<use x="765.007812" xlink:href="#u"/>
<use x="804.021484" xlink:href="#n"/>
<use x="867.498047" xlink:href="#m"/>
<use x="895.28125" xlink:href="#k"/>
<use x="947.380859" xlink:href="#w"/>
<use x="1005.291016" xlink:href="#k"/>
<use x="1057.390625" xlink:href="#ad"/>
<use x="1091.082031" xlink:href="#p"/>
<use x="1150.261719" xlink:href="#h"/>
<use x="1191.375" xlink:href="#t"/>
</g>
<path d="m326.59 60.077h20v-7h-20z" fill="#0766aa" fill-opacity=".2" stroke="#0766aa" stroke-opacity=".2"/>
<defs>
<path id="aj" d="m48.688 27.297q0 9.9062-4.0781 15.547t-11.203 5.6406q-7.1406 0-11.219-5.6406t-4.0781-15.547 4.0781-15.547 11.219-5.6406q7.125 0 11.203 5.6406t4.0781 15.547zm-30.578 19.094q2.8438 4.875 7.1562 7.2344 4.3281 2.375 10.328 2.375 9.9688 0 16.188-7.9062 6.2344-7.9062 6.2344-20.797t-6.2344-20.812q-6.2188-7.9062-16.188-7.9062-6 0-10.328 2.375-4.3125 2.375-7.1562 7.25v-8.2031h-9.0312v75.984h9.0312z"/>
<path id="ag" d="m2.9844 54.688h9.5156l17.094-45.891 17.094 45.891h9.5156l-20.516-54.688h-12.203z"/>
</defs>
<g transform="translate(354.59 60.077) scale(.1 -.1)">
<use xlink:href="#n"/>
<use x="63.476562" xlink:href="#m"/>
<use x="91.259766" xlink:href="#k"/>
<use x="143.359375" xlink:href="#w"/>
<use x="201.269531" xlink:href="#k"/>
<use x="253.369141" xlink:href="#DejaVuSans-20"/>
<use x="285.15625" xlink:href="#l"/>
<use x="346.337891" xlink:href="#aj"/>
<use x="409.814453" xlink:href="#k"/>
<use x="461.914062" xlink:href="#c"/>
<use x="523.4375" xlink:href="#h"/>
<use x="564.550781" xlink:href="#ag"/>
<use x="623.730469" xlink:href="#c"/>
<use x="685.253906" xlink:href="#n"/>
</g>
<path d="m40.603 375.64h446.02v-189.1h-446.02z" fill="#fff"/>
<path d="m40.603 375.64v-189.1" clip-path="url(#d)" fill="none" stroke="#b0b0b0" stroke-linecap="square" stroke-width=".8"/>
<use x="40.603125" y="375.64" stroke="#000000" stroke-width=".8" xlink:href="#f"/>
<g transform="translate(37.422 390.24) scale(.1 -.1)">
<use xlink:href="#b"/>
</g>
<path d="m137.68 375.64v-189.1" clip-path="url(#d)" fill="none" stroke="#b0b0b0" stroke-linecap="square" stroke-width=".8"/>
<use x="137.677086" y="375.64" stroke="#000000" stroke-width=".8" xlink:href="#f"/>
<g transform="translate(134.5 390.24) scale(.1 -.1)">
<use xlink:href="#g"/>
</g>
<path d="m234.75 375.64v-189.1" clip-path="url(#d)" fill="none" stroke="#b0b0b0" stroke-linecap="square" stroke-width=".8"/>
<use x="234.751047" y="375.64" stroke="#000000" stroke-width=".8" xlink:href="#f"/>
<g transform="translate(231.57 390.24) scale(.1 -.1)">
<use xlink:href="#s"/>
</g>
<path d="m331.83 375.64v-189.1" clip-path="url(#d)" fill="none" stroke="#b0b0b0" stroke-linecap="square" stroke-width=".8"/>
<use x="331.825009" y="375.64" stroke="#000000" stroke-width=".8" xlink:href="#f"/>
<g transform="translate(328.64 390.24) scale(.1 -.1)">
<use xlink:href="#ac"/>
</g>
<path d="m428.9 375.64v-189.1" clip-path="url(#d)" fill="none" stroke="#b0b0b0" stroke-linecap="square" stroke-width=".8"/>
<use x="428.89897" y="375.64" stroke="#000000" stroke-width=".8" xlink:href="#f"/>
<g transform="translate(425.72 390.24) scale(.1 -.1)">
<use xlink:href="#o"/>
</g>
<defs>
<path id="ao" d="m34.188 63.188-13.391-36.281h26.812zm-5.5781 9.7188h11.188l27.781-72.906h-10.25l-6.6406 18.703h-32.859l-6.6406-18.703h-10.406z"/>
<path id="x" d="m45.406 27.984q0 9.7656-4.0312 15.125-4.0156 5.375-11.297 5.375-7.2188 0-11.25-5.375-4.0312-5.3594-4.0312-15.125 0-9.7188 4.0312-15.094t11.25-5.375q7.2812 0 11.297 5.375 4.0312 5.375 4.0312 15.094zm8.9844-21.203q0-13.953-6.2031-20.766-6.1875-6.8125-18.984-6.8125-4.7344 0-8.9375 0.70312t-8.1562 2.1719v8.7344q3.9531-2.1406 7.8125-3.1562 3.8594-1.0312 7.8594-1.0312 8.8438 0 13.234 4.6094t4.3906 13.938v4.4531q-2.7812-4.8438-7.125-7.2344t-10.406-2.3906q-10.047 0-16.203 7.6562-6.1562 7.6719-6.1562 20.328 0 12.688 6.1562 20.344 6.1562 7.6719 16.203 7.6719 6.0625 0 10.406-2.3906t7.125-7.2188v8.2969h8.9844z"/>
<path id="ah" d="m18.109 8.2031v-29h-9.0312v75.484h9.0312v-8.2969q2.8438 4.875 7.1562 7.2344 4.3281 2.375 10.328 2.375 9.9688 0 16.188-7.9062 6.2344-7.9062 6.2344-20.797t-6.2344-20.812q-6.2188-7.9062-16.188-7.9062-6 0-10.328 2.375-4.3125 2.375-7.1562 7.25zm30.578 19.094q0 9.9062-4.0781 15.547t-11.203 5.6406q-7.1406 0-11.219-5.6406t-4.0781-15.547 4.0781-15.547 11.219-5.6406q7.125 0 11.203 5.6406t4.0781 15.547z"/>
<path id="af" d="m4.2031 54.688h8.9844l11.234-42.672 11.172 42.672h10.594l11.234-42.672 11.188 42.672h8.9844l-14.312-54.688h-10.594l-11.766 44.828-11.812-44.828h-10.609z"/>
<path id="as" d="m4.8906 31.391h26.312v-8h-26.312z"/>
<path id="ai" d="m54.891 33.016v-33.016h-8.9844v32.719q0 7.7656-3.0312 11.609-3.0312 3.8594-9.0781 3.8594-7.2812 0-11.484-4.6406-4.2031-4.625-4.2031-12.641v-30.906h-9.0312v54.688h9.0312v-8.5q3.2344 4.9375 7.5938 7.375 4.375 2.4375 10.094 2.4375 9.4219 0 14.25-5.8281 4.8438-5.8281 4.8438-17.156z"/>
</defs>
<g transform="translate(209.62 403.92) scale(.1 -.1)">
<use xlink:href="#ao"/>
<use x="68.408203" xlink:href="#x"/>
<use x="131.884766" xlink:href="#c"/>
<use x="193.408203" xlink:href="#DejaVuSans-20"/>
<use x="225.195312" xlink:href="#u"/>
<use x="264.208984" xlink:href="#ah"/>
<use x="327.685547" xlink:href="#l"/>
<use x="388.867188" xlink:href="#af"/>
<use x="470.654297" xlink:href="#c"/>
<use x="532.177734" xlink:href="#h"/>
<use x="573.197266" xlink:href="#as"/>
<use x="609.296875" xlink:href="#l"/>
<use x="670.478516" xlink:href="#ai"/>
<use x="733.857422" xlink:href="#DejaVuSans-20"/>
<use x="765.644531" xlink:href="#p"/>
<use x="824.824219" xlink:href="#c"/>
<use x="886.347656" xlink:href="#i"/>
<use x="947.626953" xlink:href="#h"/>
<use x="988.740234" xlink:href="#k"/>
<use x="1040.839844" xlink:href="#t"/>
</g>
<path d="m40.603 375.64h446.02" clip-path="url(#d)" fill="none" stroke="#b0b0b0" stroke-linecap="square" stroke-width=".8"/>
<use x="40.603125" y="375.64" stroke="#000000" stroke-width=".8" xlink:href="#e"/>
<g transform="translate(27.241 379.44) scale(.1 -.1)">
<use xlink:href="#b"/>
</g>
<path d="m40.603 328.36h446.02" clip-path="url(#d)" fill="none" stroke="#b0b0b0" stroke-linecap="square" stroke-width=".8"/>
<use x="40.603125" y="328.364202" stroke="#000000" stroke-width=".8" xlink:href="#e"/>
<g transform="translate(27.241 332.16) scale(.1 -.1)">
<use xlink:href="#o"/>
</g>
<path d="m40.603 281.09h446.02" clip-path="url(#d)" fill="none" stroke="#b0b0b0" stroke-linecap="square" stroke-width=".8"/>
<use x="40.603125" y="281.088405" stroke="#000000" stroke-width=".8" xlink:href="#e"/>
<defs>
<path id="aq" d="m31.781 34.625q-7.0312 0-11.062-3.7656-4.0156-3.7656-4.0156-10.344 0-6.5938 4.0156-10.359 4.0312-3.7656 11.062-3.7656t11.078 3.7812q4.0625 3.7969 4.0625 10.344 0 6.5781-4.0312 10.344-4.0156 3.7656-11.109 3.7656zm-9.8594 4.1875q-6.3438 1.5625-9.8906 5.9062-3.5312 4.3594-3.5312 10.609 0 8.7344 6.2188 13.812 6.2344 5.0781 17.062 5.0781 10.891 0 17.094-5.0781t6.2031-13.812q0-6.25-3.5469-10.609-3.5312-4.3438-9.8281-5.9062 7.125-1.6562 11.094-6.5 3.9844-4.8281 3.9844-11.797 0-10.609-6.4688-16.281-6.4688-5.6562-18.531-5.6562-12.047 0-18.531 5.6562-6.4688 5.6719-6.4688 16.281 0 6.9688 4 11.797 4.0156 4.8438 11.141 6.5zm-3.6094 15.578q0-5.6562 3.5312-8.8281 3.5469-3.1719 9.9375-3.1719 6.3594 0 9.9375 3.1719 3.5938 3.1719 3.5938 8.8281 0 5.6719-3.5938 8.8438-3.5781 3.1719-9.9375 3.1719-6.3906 0-9.9375-3.1719-3.5312-3.1719-3.5312-8.8438z"/>
</defs>
<g transform="translate(27.241 284.89) scale(.1 -.1)">
<use xlink:href="#aq"/>
</g>
<path d="m40.603 233.81h446.02" clip-path="url(#d)" fill="none" stroke="#b0b0b0" stroke-linecap="square" stroke-width=".8"/>
<use x="40.603125" y="233.812607" stroke="#000000" stroke-width=".8" xlink:href="#e"/>
<g transform="translate(20.878 237.61) scale(.1 -.1)">
<use xlink:href="#g"/>
<use x="63.623047" xlink:href="#s"/>
</g>
<path d="m40.603 186.54h446.02" clip-path="url(#d)" fill="none" stroke="#b0b0b0" stroke-linecap="square" stroke-width=".8"/>
<use x="40.603125" y="186.536809" stroke="#000000" stroke-width=".8" xlink:href="#e"/>
<g transform="translate(20.878 190.34) scale(.1 -.1)">
<use xlink:href="#g"/>
<use x="63.623047" xlink:href="#ab"/>
</g>
<defs>
<path id="am" d="m9.8125 72.906h41.891v-8.3125h-32.031v-21.484h28.906v-8.2969h-28.906v-34.812h-9.8594z"/>
<path id="al" d="m44.391 34.188q3.1719-1.0781 6.1719-4.5938t6.0312-9.6719l10.016-19.922h-10.609l-9.3125 18.703q-3.625 7.3281-7.0156 9.7188t-9.25 2.3906h-10.75v-30.812h-9.8594v72.906h22.266q12.5 0 18.656-5.2344 6.1562-5.2188 6.1562-15.766 0-6.8906-3.2031-11.438-3.2031-4.5312-9.2969-6.2812zm-24.719 30.609v-25.875h12.406q7.125 0 10.766 3.2969t3.6406 9.6875-3.6406 9.6406-10.766 3.25z"/>
<path id="at" d="m72.703 32.078q-4.25 0-6.6719-3.6094-2.4062-3.6094-2.4062-10.062 0-6.3438 2.4062-9.9844 2.4219-3.6406 6.6719-3.6406 4.1562 0 6.5625 3.6406 2.4219 3.6406 2.4219 9.9844 0 6.4062-2.4219 10.031-2.4062 3.6406-6.5625 3.6406zm0 6.2031q7.7188 0 12.25-5.375 4.5469-5.3594 4.5469-14.5 0-9.125-4.5625-14.484-4.5625-5.3438-12.234-5.3438-7.8125 0-12.359 5.3438-4.5312 5.3594-4.5312 14.484 0 9.1875 4.5625 14.531t12.328 5.3438zm-50.391 29.734q-4.2031 0-6.625-3.6406-2.4062-3.625-2.4062-9.9844 0-6.4375 2.3906-10.062 2.3906-3.6094 6.6406-3.6094t6.6562 3.6094q2.4219 3.625 2.4219 10.062 0 6.2969-2.4375 9.9531-2.4375 3.6719-6.6406 3.6719zm44.094 6.2031h7.8125l-45.609-75.641h-7.8125zm-44.094 0q7.7188 0 12.297-5.3438 4.5938-5.3438 4.5938-14.484 0-9.2188-4.5625-14.547t-12.328-5.3281-12.281 5.3438q-4.5156 5.3594-4.5156 14.531 0 9.0938 4.5312 14.453 4.5469 5.375 12.266 5.375z"/>
</defs>
<g transform="translate(14.798 334.34) rotate(-90) scale(.1 -.1)">
<use xlink:href="#am"/>
<use x="57.378906" xlink:href="#i"/>
<use x="118.658203" xlink:href="#m"/>
<use x="146.441406" xlink:href="#r"/>
<use x="174.224609" xlink:href="#v"/>
<use x="237.603516" xlink:href="#h"/>
<use x="278.685547" xlink:href="#c"/>
<use x="340.208984" xlink:href="#DejaVuSans-20"/>
<use x="371.996094" xlink:href="#al"/>
<use x="441.447266" xlink:href="#i"/>
<use x="502.726562" xlink:href="#q"/>
<use x="541.935547" xlink:href="#c"/>
<use x="603.458984" xlink:href="#DejaVuSans-20"/>
<use x="635.246094" xlink:href="#u"/>
<use x="674.259766" xlink:href="#at"/>
<use x="769.279297" xlink:href="#ad"/>
<use x="802.970703" xlink:href="#p"/>
<use x="862.150391" xlink:href="#c"/>
<use x="923.673828" xlink:href="#i"/>
<use x="984.953125" xlink:href="#h"/>
<use x="1026.066406" xlink:href="#t"/>
</g>
<path d="m44.692 326.74 0.42926 5.6635 0.85851 7.177 1.5024 5.8972 0.42926 0.45434 0.42926 0.15258 0.64389 0.1805 0.64389 0.56807 0.85851 0.16217 0.64389-0.59797 0.85851-0.46408 1.9317-2.6399 0.42926 0.058904 0.21463-0.068677 0.42926 0.13358 0.42926 0.50491 1.717 2.8608 1.0731 1.5346 1.0731 0.59795 0.64389 0.71471 0.42926 0.45518 0.64389-0.2014 0.64388-0.77304 0.64389-0.42731 0.64389-0.22886 0.42926 0.083055 0.42926 0.16075 0.42926 0.47836 1.0731 1.5909 0.85851 1.3084 0.21463 0.29353 0.42926 0.23786 0.21463 0.19335 0.64388-0.031888 0.42926-0.067158 0.64388 0.3601 1.2878-0.93121 0.42926-0.038457 0.42926 0.021431 0.42926-0.34798 0.42926-0.62061 0.42926-0.62089 0.42926-0.20752 1.0731-0.4151 0.85851 0.046838 0.42926-0.27771 0.64389-0.643 0.42926-0.73792 0.64389-1.3301 0.85851-1.0085 0.64389-0.9999 0.64389-0.322 0.85851 0.46942 0.21463-0.005185 0.42926-0.35834 0.21463-0.05934 0.42926 0.29131 0.42926 0.47243 0.42926 0.17512 0.21463-0.018813 0.64389 0.32148 0.42926 0.11296 0.42926-0.16882 0.42926-0.17311 0.42926-0.25504 0.21463-0.19146 0.64389-1.1937 0.42926-0.18793 0.42926-0.073984 0.21463-0.099014 0.21463 0.02767 0.42926 0.37357 0.42926 0.81885 0.64388 1.772 2.7902 8.2846 1.0731 1.6226 0.42926 0.23852 0.64389 0.08324 1.0731-1.7192 0.85851-0.55082 0.64389-0.47422 0.64388-0.76064 0.21463-0.15003 0.85851-1.0804 0.42926-0.12672 0.42926 0.25334 1.0731 0.89276 0.42926 0.62394 0.85851 1.5478 0.64389 0.25959 0.85851-0.5554 0.85851-0.86876 0.21463-0.005366 1.5024-1.1989 1.2878-2.4068 0.64388-0.63523 0.64389-0.2804 0.64389 0.23276 0.42926 0.41564 1.5024 2.5558 0.64389 0.51281 0.21463-0.045935 0.64389-0.39014 0.21463-0.060445 0.42926-0.59214 1.0731-2.3129 0.64388-1.5902 0.42926-0.74051 0.42926-0.2952 0.42926 0.10018 1.0731 0.76918 0.64388 0.8183 0.42926 0.7549 0.64388 1.5855 1.2878 3.9843 0.85851 1.7771 0.42926 0.37209 0.42926-0.32188 0.64389-0.98478 1.0731-1.6749 1.2878-2.5555 1.5024-4.4202 0.64388-1.2322 0.42926-0.49392 0.21463-0.074212 0.21463 0.073968 0.64388-0.24004 0.85852-1.1271 0.64388-0.27617 0.21463-0.056571 0.64389-0.45109 0.64389-0.046664 0.64388 0.33729 0.64389 0.4518 0.64389-0.10391 0.64388-0.27417 0.64389-0.20959 0.42926-0.11289 0.64389 0.43498 1.0731 1.4677 1.2878 1.1078 0.64389 0.65503 0.64389-0.31224 0.42926-0.30097 0.42926-0.29422 0.42926-0.15342 1.0731-0.80364 0.42926-0.075227 0.64389-0.8001 0.85852-1.5537 0.64388-0.34134 0.85852 0.25597 0.85851 0.71821 0.21463 0.038141 0.64389 0.44406 0.64389 0.16587 0.21463-0.1285 0.64388 0.17633 1.717 2.0491 0.42926 0.68992 0.85851 0.41186 0.85852 0.1785 0.42926 0.26593 1.0731 1.081 0.64388 0.35883 0.42926-0.12808 1.0731-1.9771 0.85851-2.3705 0.64389-1.0503 0.42926-0.28317 0.64388 0.051047 1.0731 1.0555 0.64389 0.99276 0.42926 0.21276 0.42926-0.13711 0.64389-0.28161 0.64389-0.56501 1.0731-2.2568 1.0731-3.4789 0.64388-2.0251 0.64389-1.6515 0.42926-0.54001 0.21463-0.033926 0.21463 0.19398 0.42926 0.78911 0.64388 1.8913 0.85852 2.8337 1.2878 4.1828 0.85851 1.6807 1.2878 0.90137 0.42926-0.112 0.64389-0.37208 1.2878 0.12467 0.21463 0.09028 1.0731 1.2716 0.21463 0.34977 0.42926 0.15624 0.21463-0.068246 0.64389-0.87784 0.21463-0.091241 0.64389 0.02253 1.0731-0.99146 0.64389-1.1891 0.85851-1.2699 1.717-3.5887 0.64388-0.73389 0.85852-0.030149 1.2878 1.1451 0.64389-0.018586 0.42926 0.388 0.42926 0.34319 0.64389 0.22367 0.21463-0.03219 0.64388-0.63567 0.21463 0.006195 1.0731 0.60329 1.0731 0.10277 0.42926-0.08004 0.42926-0.13934 0.42926-0.065064 0.42926 0.063354 0.42926 0.49271 0.64388 0.85922 0.64389 0.39718 0.42926 0.25298 0.21463 0.13959 0.21463-0.02603 0.21463-0.18285 0.42926-1.0003 1.2878-3.3926 0.64388-0.55509 1.0731 0.14137 0.42926 0.40598 0.21463 0.24928 0.42926 0.005175 0.21463-0.098056 0.64388-0.79445 0.42926-0.17388 0.21463-0.050114 0.64389 0.34846 0.85851 0.67695 0.64389 0.95089 0.42926 0.35503 0.64389 0.27168 0.21463 0.14208 0.42926 0.006093 0.21463 0.15258 0.42926 0.76406 0.64389 1.6171 0.85851 2.845 0.64389 1.5826 0.64389 0.38913 0.64389-0.28007 0.42926-0.28227 0.64388-0.40134 0.21463-0.12958 0.21463-0.34068 0.64388-1.6148 2.1463-4.8217 0.64389-1.7023 0.64389-1.182 1.2878-1.2599 0.64389-1.1278 0.64389-0.31336 0.42926 0.32248 0.42926 0.84617 0.64389 1.7901 0.21463 0.37252 0.42926 0.075856 2.3609 0.62634 0.42926-0.57239 0.42926-0.73981 0.64389-1.9131 0.64388-1.6178 0.64389-0.68184 0.42926-0.39247 0.42926 0.037455 0.21463-0.013637 0.42926 0.52078 1.2878 2.3019 0.42926 0.40952 0.42926 0.52879 0.42926 0.048338 0.42926 0.61405 0.42926 1.0953 0.64388 1.7669 0.64389 1.3564 0.42926 0.34148 0.42926-0.32599 0.42926-0.46934 1.0731-0.61641 0.42926-0.22354 0.21463-0.12965 0.21463-0.29321 0.64388-1.7462 1.0731-3.9965 0.64389-2.4636 0.64389-1.8653 0.21463-0.2389 0.21463 0.021527 0.21463 0.27342 1.5024 3.9336 1.5024 5.4562 0.85851 3.5569 0.85851 2.2483 0.64389 0.31033 0.85851-0.82322 0.21463-0.16586 1.0731-2.145 0.21463-0.053352 0.21463 0.13691 0.64389 1.1191 0.42926 1.0373 0.42926 0.14149 0.21463 0.050518 0.21463-0.13352 0.42926-0.080201 0.42926-0.15813 0.42926 0.055595 0.42926-0.099056 0.21463 0.051737 0.42926-0.095411 0.21463-0.024102 0.42926-0.26091 0.21463 0.050596 0.42926 0.38483 0.42926 0.48769 0.85851 0.67243 0.21463 0.079606 0.42926-0.37967 0.64389-0.26982 0.64389 0.43111 0.21463 0.16052 0.85852 1.3407 0.21463 0.046501 0.42926-0.27487 0.21463 0.024821 0.85851 0.45741 0.64389-0.58429 0.42926-0.75743 0.42926-1.2477 0.85852-2.8232 0.85851-3.677 1.5024-9.7093 0.64389-5.2673 0.64388-3.1844 1.0731-3.5988 0.42926-0.8744 0.21463-0.10903 0.21463 0.19589 0.21463 0.3848 0.42926 1.6815 2.5755 12.249 0.21463 0.57535 0.42926 0.15699 0.42926 0.10639 0.21463 0.064389 0.21463-0.34566 0.21463-0.59756 0.85851-3.6144 0.42926-0.54531 0.42926-0.70235 0.64388-1.9011 0.42926-1.0534 0.42926-0.43957 0.21463 0.066316 0.21463 0.38469 0.42926 1.7107 2.1463 9.0772 0.64388 2.449 0.85852 3.0543 0.42926 1.1772 0.21463 0.16796 0.21463-0.1203 0.21463 0.028618 0.21463 0.21938 0.42926 0.82847 0.42926 0.062837 0.64388-0.16312 1.2878-2.5774 0.42926-0.27924 0.21463 0.037314 0.21463-0.22768 0.21463-0.006812 0.21463 0.21442 0.42926 0.89169 0.42926 1.1837 0.21463 0.26507 0.42926-0.013018 0.21463-0.17143 0.42926-0.57089 0.21463-0.09224 0.64388 0.23871 1.0731-0.98136 0.42926 0.56502 0.21463 0.39069 0.85851-0.61773 0.21463-0.097457 0.42926-1.4314 0.64389-2.7154 0.64389-2.0907 0.85851-3.1571 0.42926-0.65489 0.42926-0.11485 0.42926-0.081859 0.21463-0.07951 0.64389-1.2968 0.64388-1.9434 0.21463-0.42937 0.64389-2.0539 0.21463-0.25035 0.21463 0.024248 0.21463 0.30131 0.64389 1.5202 0.21463 0.043277 0.21463 0.26299 0.21463 0.50882 1.0731 0.86505 0.21463 0.083041 0.21463 0.30211 0.21463 0.069636 0.64388 0.78254 1.2878 0.26567 0.42926 0.48182 0.21463 0.45994 0.21463 0.12149 0.21463-0.049603 0.21463-0.20504 0.85852-2.58 0.42926-1.2932 0.42926-0.75829 0.42926 0.020341 0.42926 0.4325 0.85851-0.36816 0.42926-1.5681 0.42926-0.4846 1.2878-4.6995 0.42926-1.2676 0.42926-1.2735 0.42926-1.4696 0.42926-0.5358 0.21463 0.021955 0.42926 0.5062 0.21463-0.17289 0.85852-1.323 0.42926-0.42861 0.42926 0.16588 0.21463 0.40274 0.64389 2.6186 1.0731 5.5531 0.42926 0.18054 0.64389 0.9466 0.21463 0.12429 0.21463-0.18526 0.21463-0.00133 0.21463 0.12368 0.42926 0.41173 0.21463-0.30823 0.21463-0.061709 0.42926 0.27154 0.21463-0.019341 0.42926 0.24689 0.42926 0.6478 1.0731 2.5403 1.0731-1.3951 0.42926 0.28467 0.42926 1.0816 1.0731 4.1434 0.21463 0.30663 0.42926-0.034298 0.21463 0.13577 0.21463 0.29835 0.21463 0.49443 0.21463 0.10427 0.85851 1.0336 0.21463 0.10613 0.42926 0.87212 1.2878 4.4507 1.2878 5.398 0.42926 0.75926 0.85851 1.3172 0.64389 1.3116 0.64389 1.6365 0.42926 0.82837 0.21463-0.082976 0.42926-0.49138 0.85851-1.7665 1.2878-4.8047 0.42926-0.51435 0.42926-0.20486 0.42926-1.0134 0.85851-1.4465 0.21463-0.018738 0.42926 0.25136 0.42926 0.00209 0.42926 0.46448 0.64389 1.5067 0.64389 2.3177 0.64388 2.6423 0.42926 1.1647 0.21463 0.28555 0.42926-0.017027 0.64389-1.3288 0.85851-3.4572 0.42926-0.8794 0.64389-1.0018 1.717-6.4425 0.42926-0.8342 0.42926-0.32964 0.21463-0.11206 0.42926-0.46082 0.21463 0.077707 0.42926 0.45906 0.21463 0.089349 1.0731-1.2707 1.0731-6.678 1.2878-8.1779 0.42926-1.5028 0.42926-0.66768 0.21463-0.00284 0.64389-0.43593 0.21463 0.030947 0.21463 0.27491 0.42926 1.4034 0.42926 2.5074 0.85851 7.3485 1.2878 11.413 0.85852 6.1016 0.21463 0.31838 0.21463 0.039217 1.0731-1.2525 0.64388-0.43154 0.42926-0.25104 0.64388 0.036144 0.21463-0.28392 0.21463-0.55113 0.64388-2.1583 0.42926-1.5517 1.0731-4.8899 1.717-7.5461 0.42926-0.82837 0.64389-1.1745 0.42926-2.114 1.0731-7.9306 0.42926-2.0278 0.42926-0.77242 0.21463 0.062001 0.21463 0.39324 0.42926-0.27412 0.21463-0.045319 0.21463-0.29426 0.21463 0.042468 0.64389 0.45385 0.42926-0.34448 0.21463-0.090202 0.21463 0.17499 0.42926 0.59505 0.42926 0.48115 0.21463 0.006693 0.42926 0.20857 0.21463-0.22449 0.64389 0.22383 0.42926 1.0214 0.21463 0.51731 0.21463 0.1856 0.21463-0.065501 0.21463-0.43567 0.85851-2.462 0.42926-0.89711 0.42926-0.47305 0.21463 0.016878 0.21463 0.21581 0.42926-0.61602 0.21463-0.11382 0.85851-2.7093 0.64389-2.9034 0.42926-0.75384 0.42926-0.32635 0.21463 0.129 0.64388 1.3297 0.21463 0.075623 0.85851-2.4722 0.21463-0.36375 0.42926 0.041638 0.21463 0.17407 0.64388 1.3409 0.21463-0.23901 0.21463 0.040274 0.21463 0.22732 0.64389 1.8291 0.64389 2.3115 0.64388-0.12172 0.42926-1.1391 0.42926-2.0196 0.42926-2.9071 0.42926-1.3109 0.85851-1.8947 0.21463-0.03474 0.42926 0.47136 0.21463 0.069041 0.64388-1.4806 0.42926-0.58094 0.42926-0.85834 0.21463-0.23941 0.21463 0.16054 0.42926 1.1929 0.21463-0.28062 0.21463 0.035291 0.42926 0.88879 0.42926 1.4803 0.85852 3.5661 1.2878 2.1518 0.21463 0.06471 0.21463 0.36548 0.64389 2.3245 0.42926 1.3877 0.64389 1.2193 0.42926 0.84478 0.21463-0.030148 0.42926-0.91046 0.42926-0.70924 0.42926-1.9829 0.85851-7.6725 1.5024-14.682 0.64388-3.2415 0.21463-0.47459 0.21463-0.010441 0.21463 0.17956 0.21463 0.49507 0.64388 2.0059 0.64389 2.0241 0.64389 3.6885 0.64389 4.4503 0.42926 2.8215 0.21463 0.79439 0.21463 0.16684 0.42926 0.84762 0.42926 0.21415 0.21463-0.68279 0.21463-1.0702 0.42926-3.2089 0.64389-3.1662 0.42926-1.2355 0.21463-0.36303 0.21463-0.056927 0.21463 0.29351 0.21463 0.71458 0.42926 2.7495 0.42926 4.5779 1.5024 18.302 0.42926 3.529 1.5024 14.86 0.85852 3.2184 0.21463 0.17732 0.21463-0.008857 0.42926-1.7675 0.64389-3.1974 0.42926-1.2753 0.42926-0.657 0.42926-0.20711 0.64389-0.12958 0.64389-3.6056 0.42926-2.1693 0.42926-2.4844 0.64389-2.9381 0.42926-1.7803 0.42926-0.93774 0.85851-0.69768 0.21463-0.20401 1.0731-4.6851 0.85851-3.7387 0.21463-0.55468 0.42926-1.5053 0.21463-0.32108 0.21463-0.84438 0.42926-2.7115 0.21463-0.76642 0.21463-0.33048 0.21463-0.034574 0.21463-0.58078 1.9317-20.22 0.42926-1.5514 0.21463-0.11042 0.21463 0.33147 0.42926 2.2915 0.64389 6.0227 2.7902 29.409 0.42926 2.5141 0.21463-0.18672 0.21463 0.017602 0.21463 0.20877 0.21463 0.03187 0.21463-0.35971 0.42926-3.5368 0.21463-2.2339 1.9317-31.994 0.64389-12.103 0.64389-7.6009 0.85851-6.9218 0.64389-6.5096 0.21463-1.399 0.21463-0.56838 0.21463 0.47752 0.42926 1.1949 0.42926-0.76491 0.21463-0.85998 0.42926-2.4773 0.21463-0.48845 0.21463 0.3004 0.42926 0.86593 0.21463 0.30104 1.2878 3.231 0.64389 5.0689 0.64389-2.6524 0.85851-11.289 0.42926-5.645 0.85851-12.463 0.42926-2.7104 0.21463-0.26324 0.21463 0.35082 0.21463 0.97397 0.42926 3.7042 0.64389 5.9448 0.21463 0.075515 0.21463-0.056465 0.21463 0.43736 0.21463 1.0893 0.42926 4.2166 0.42926 7.0859 1.0731 25.671 0.85851 28.144 0.64389 23.081 0.64388 13.542 0.42926 5.9711 0.21463-0.004035 0.85851 0.64022 0.21463-0.00715 0.21463-0.12836 0.21463-0.27818 0.42926-1.1483 0.42926-2.252 0.42926-3.8934 0.42926-6.3165 0.64389-13.968 0.42926-12.946 0.42926-18.368 0.42926-24.826 0.42926-44.325 0.42926-75.15 0.21463-19.461 0.21463-8.8133 0.21463-0.76771 0.21463 0.12183 0.21463 1.0751 0.42926 5.2775 0.64389 33.669 1.5024 131.47 0.85852 57.715 0.64388 29.269 0.21463 6.4613v0" clip-path="url(#d)" fill="none" stroke="#d2691e" stroke-linecap="square" stroke-width="1.5"/>
<path d="m40.603 375.64v-189.1" fill="none" stroke="#000" stroke-linecap="square" stroke-width=".8"/>
<path d="m486.62 375.64v-189.1" fill="none" stroke="#000" stroke-linecap="square" stroke-width=".8"/>
<path d="m40.603 375.64h446.02" fill="none" stroke="#000" stroke-linecap="square" stroke-width=".8"/>
<path d="m40.603 186.54h446.02" fill="none" stroke="#000" stroke-linecap="square" stroke-width=".8"/>
<defs>
<path id="aa" d="m9.8125 72.906h14.703l18.594-49.609 18.703 49.609h14.703v-72.906h-9.625v64.016l-18.797-50h-9.9062l-18.797 50v-64.016h-9.5781z"/>
<path id="ap" d="m11.719 12.406h10.297v-12.406h-10.297zm0 39.297h10.297v-12.391h-10.297z"/>
<path id="z" d="m53.516 70.516v-9.625q-5.6094 2.6875-10.594 4-4.9844 1.3281-9.625 1.3281-8.0469 0-12.422-3.125t-4.375-8.8906q0-4.8438 2.9062-7.3125 2.9062-2.4531 11.016-3.9688l5.9531-1.2188q11.031-2.1094 16.281-7.4062t5.25-14.172q0-10.609-7.1094-16.078-7.0938-5.4688-20.812-5.4688-5.1719 0-11.016 1.1719-5.8281 1.1719-12.078 3.4688v10.156q6-3.3594 11.766-5.0781 5.7656-1.7031 11.328-1.7031 8.4375 0 13.031 3.3125 4.5938 3.3281 4.5938 9.4844 0 5.3594-3.2969 8.3906t-10.812 4.5469l-6.0156 1.1719q-11.031 2.1875-15.969 6.875-4.9219 4.6875-4.9219 13.047 0 9.6719 6.8125 15.234t18.766 5.5625q5.1406 0 10.453-0.9375 5.3281-0.92188 10.891-2.7656z"/>
<path id="ak" d="m-0.29688 72.906h61.672v-8.3125h-25.875v-64.594h-9.9062v64.594h-25.891z"/>
<path id="an" d="m19.672 64.797v-56.688h11.922q15.094 0 22.094 6.8281 7 6.8438 7 21.594 0 14.641-7 21.453t-22.094 6.8125zm-9.8594 8.1094h20.266q21.188 0 31.094-8.8125 9.9219-8.8125 9.9219-27.562 0-18.859-9.9688-27.703-9.9531-8.8281-31.047-8.8281h-20.266z"/>
</defs>
<g transform="translate(155.39 16.318) scale(.12 -.12)">
<use xlink:href="#aa"/>
<use x="86.279297" xlink:href="#l"/>
<use x="147.460938" xlink:href="#n"/>
<use x="210.9375" xlink:href="#c"/>
<use x="272.460938" xlink:href="#r"/>
<use x="300.244141" xlink:href="#ap"/>
<use x="333.935547" xlink:href="#DejaVuSans-20"/>
<use x="365.722656" xlink:href="#z"/>
<use x="429.199219" xlink:href="#c"/>
<use x="490.722656" xlink:href="#i"/>
<use x="552.001953" xlink:href="#x"/>
<use x="615.478516" xlink:href="#i"/>
<use x="676.757812" xlink:href="#q"/>
<use x="715.966797" xlink:href="#c"/>
<use x="777.490234" xlink:href="#DejaVuSans-20"/>
<use x="809.277344" xlink:href="#z"/>
<use x="872.753906" xlink:href="#ak"/>
<use x="933.837891" xlink:href="#o"/>
<use x="997.460938" xlink:href="#b"/>
<use x="1061.083984" xlink:href="#b"/>
<use x="1124.707031" xlink:href="#b"/>
<use x="1188.330078" xlink:href="#an"/>
<use x="1265.332031" xlink:href="#aa"/>
<use x="1351.611328" xlink:href="#b"/>
<use x="1415.234375" xlink:href="#b"/>
<use x="1478.857422" xlink:href="#b"/>
</g>
<defs>
<clipPath id="j">
<rect x="40.603" y="28.8" width="446.02" height="141.83"/>
</clipPath>
<clipPath id="d">
<rect x="40.603" y="186.54" width="446.02" height="189.1"/>
</clipPath>
</defs>
</svg>
