<?xml version="1.0" encoding="UTF-8"?>
<!DOCTYPE svg  PUBLIC '-//W3C//DTD SVG 1.1//EN'  'http://www.w3.org/Graphics/SVG/1.1/DTD/svg11.dtd'>
<svg width="497pt" height="413pt" version="1.1" viewBox="0 0 497 413" xmlns="http://www.w3.org/2000/svg" xmlns:xlink="http://www.w3.org/1999/xlink">
<defs>
<style type="text/css">*{stroke-linecap:butt;stroke-linejoin:round;}</style>
</defs>
<path d="m0 413.2h497.32v-413.2h-497.32z" fill="#fff"/>
<path d="m40.603 170.63h446.02v-141.83h-446.02z" fill="#fff"/>
<defs>
<path id="ag" d="m44.514-235.45v-90.71l0.2145-0.3191 0.2145-0.24484 0.2145-0.15764 0.2145-0.1384 0.2145-0.11829 0.2145-0.095086 0.2145-0.067239 0.2145-0.042191 0.2145-0.040487 0.2145-0.038664 0.2145-0.038458 0.2145-0.038204 0.2145-0.038115 0.2145-0.038004 0.2145-0.037803 0.2145-0.037468 0.2145-0.035737 0.2145-0.024774 0.2145-0.021424 0.2145-0.01072 0.2145-0.010131 0.2145-0.010152 0.2145-0.010173 0.2145-0.010024 0.2145-0.00934 0.64349-0.026539 0.2145-0.008861 0.2145-0.008877 0.2145-0.007987 0.2145-0.005262 0.2145-0.004232 0.2145-0.002551 0.2145-0.002523 0.2145-0.002495 0.2145-0.002467 0.2145-0.002439 0.2145-0.002453 0.2145-0.002428 0.2145-0.00159 0.2145-0.001026 0.2145-3.5e-5 0.2145-3.1e-5 0.2145-2.7e-5 0.2145-2.2e-5 0.2145-1.9e-5 0.42899-6.2e-5 0.2145-2.6e-5 0.2145-2.1e-5 0.2145-1.5e-5 0.2145-1.1e-5 0.2145-6e-6 0.2145-2e-6 0.2145 3e-6 0.2145 6e-6 0.2145 1.1e-5 0.2145 2.1e-5 0.2145 3.5e-5 0.2145 7.7e-5 0.2145 8.3e-5 0.2145 9e-5 0.2145 9.6e-5 0.2145 1e-4 0.2145 1.13e-4 0.2145 1.24e-4 0.2145 1.32e-4 0.2145 2.3e-4 0.2145 4.32e-4 0.2145 4.88e-4 0.2145 4.94e-4 0.2145 4.99e-4 0.2145 5.21e-4 0.2145 5.61e-4 0.42899 0.001133 1.0725 0.002848 0.2145 4.91e-4 0.2145 5.32e-4 0.2145 5.41e-4 0.2145 5.51e-4 0.2145 5.6e-4 0.2145 6.35e-4 0.2145 6.57e-4 0.2145 6.62e-4 0.2145 6.67e-4 0.2145 7.19e-4 0.2145 7.73e-4 0.85799 0.003439 0.2145 8.14e-4 0.2145 8.19e-4 0.2145 8.34e-4 0.64349 0.002512 0.2145 8.4e-4 0.2145 8.52e-4 0.2145 7.56e-4 0.2145 6.17e-4 0.2145 6.59e-4 0.2145 8.37e-4 0.2145 8.53e-4 0.42899 0.001966 0.2145 0.001006 0.2145 0.001064 0.2145 0.001098 0.2145 0.001195 0.2145 0.00122 0.2145 0.001233 0.2145 0.001252 0.2145 0.001354 0.2145 0.001429 0.2145 0.001542 0.2145 0.001588 0.2145 0.001632 0.2145 0.00138 0.2145 9.74e-4 0.2145 5.88e-4 0.2145 2e-4 0.2145-2.33e-4 0.2145-6.7e-4 0.2145-0.001848 0.2145-0.001958 0.2145-0.00207 0.2145-0.002179 0.2145-0.00229 0.2145-0.004684 0.2145-0.004972 0.2145-0.006905 0.2145-0.007624 0.2145-0.015573 0.2145-0.015567 0.2145-0.015563 0.2145-0.015461 0.2145-0.015345 0.2145-0.015359 0.2145-0.015508 0.2145-0.015472 0.64349-0.046817 0.2145-0.015642 0.2145-0.015656 0.2145-0.015713 0.2145-0.015696 0.2145-0.015689 0.42899-0.031371 0.2145-0.015783 0.2145-0.015871 0.2145-0.015886 0.2145-0.015914 0.2145-0.015718 0.2145-0.015328 0.2145-0.014937 0.2145-0.014519 0.2145-0.014132 0.2145-0.013747 0.2145-0.01269 0.2145-0.012569 0.2145-0.012442 0.2145-0.012311 0.2145-0.012186 0.2145-0.009901 0.2145-0.009632 0.2145-0.007789 0.2145-0.0071 0.64349 0.001384 0.2145 4.78e-4 0.2145 5.57e-4 0.2145 6.32e-4 0.2145 7.06e-4 0.2145 7.56e-4 0.2145 8.38e-4 0.2145 9.18e-4 0.2145 1e-3 0.42899 0.027749 0.42899 0.027711 0.2145 0.013861 0.2145 0.013875 0.2145 0.013889 0.2145 0.013903 0.42899 0.027812 0.2145 0.01392 0.2145 0.013934 0.2145 0.01395 0.2145 0.013963 0.2145 0.013947 0.2145 0.013967 0.2145 0.013988 0.2145 0.01401 0.2145 0.014038 0.2145 0.014079 0.2145 0.014113 0.2145 0.014154 0.2145 0.014201 0.2145 0.014246 0.2145 0.014292 0.2145 0.014338 0.2145 0.014385 0.2145 0.014432 0.2145 0.01448 0.2145 0.015792 0.2145 0.026441 0.2145 0.028945 0.2145 0.03022 0.2145 0.030226 0.2145 0.030234 0.42899 0.060473 0.2145 0.016609 0.2145 0.016639 0.2145 0.016669 0.2145 0.0167 0.2145 0.016731 0.2145 0.016761 0.2145 0.016792 0.2145 0.016822 0.2145 0.016854 0.2145 0.016885 0.2145 0.02681 0.2145 0.027893 0.2145 0.02804 0.2145 0.028232 0.2145 0.028369 0.2145 0.0285 0.2145 0.029402 0.2145 0.031882 0.2145 0.03247 0.2145 0.032555 0.2145 0.032704 0.2145 0.032907 0.2145 0.033121 0.2145 0.035186 0.2145 0.038129 0.2145 0.038242 0.2145 0.038356 0.2145 0.038472 0.2145 0.038594 0.2145 0.037629 0.2145 0.026039 0.2145 0.023318 0.2145 0.02196 0.2145 0.022003 0.2145 0.022046 0.2145 0.022089 0.2145 0.022132 0.2145 0.022174 0.2145 0.022217 0.2145 0.022261 0.2145 0.022303 0.2145 0.022347 0.2145 0.02239 0.2145 0.022434 0.2145 0.022478 0.2145 0.022522 0.2145 0.022567 0.2145 0.011665 0.2145 0.010561 0.2145 0.010491 0.2145 0.010374 0.2145 0.010319 0.2145 0.010262 0.2145 0.009364 0.2145 0.006748 0.2145 0.006204 0.2145 0.00619 0.2145 0.006104 0.2145 0.005963 0.2145 0.005811 0.2145 0.003674 0.42899 0.001227 0.42899 0.001193 0.2145 5.76e-4 0.2145 2.13e-4 0.64349 2.03e-4 1.5015 3.47e-4 0.2145 5.1e-5 0.64349 1.6e-4 0.42899 1.11e-4 0.42899 1.14e-4 0.42899 1.18e-4 1.287 3.69e-4 1.0725 3.18e-4 3.2175 9.9e-4 0.2145 8e-5 0.2145 9.5e-5 0.42899 2.03e-4 0.2145 1.04e-4 0.42899 2.13e-4 0.42899 2.21e-4 0.42899 2.29e-4 0.2145 1.17e-4 0.2145 1.38e-4 0.2145 1.58e-4 0.2145 1.66e-4 0.2145 1.73e-4 0.2145 1.81e-4 0.2145 1.92e-4 0.2145 2.27e-4 0.2145 2.38e-4 0.2145 2.51e-4 0.2145 2.63e-4 0.2145 2.75e-4 0.2145 2.87e-4 0.42899 5.9e-4 0.64349 8.92e-4 0.42899 5.99e-4 0.64349 9.04e-4 0.64349 9.11e-4 0.2145 2.89e-4 1.9305 0.002374 0.42899 5.04e-4 0.2145 2.3e-4 0.42899 4.14e-4 0.42899 3.84e-4 0.2145 1.77e-4 0.2145 1.43e-4 0.2145 1.31e-4 0.2145 1.2e-4 0.2145 1.07e-4 0.2145 9.6e-5 0.85798 3.04e-4 0.64349 1.65e-4 0.64349 1.05e-4 0.64349 4.4e-5 0.2145 1e-6 0.64349-3.6e-5 0.64349-9.5e-5 0.64349-1.51e-4 0.64349-2.06e-4 0.64349-2.62e-4 0.2145-9.9e-5 1.287-0.010281 0.85798-0.006847 0.2145-0.001705 0.2145-0.001698 0.2145-0.001692 0.2145-0.001685 0.2145-0.001679 0.2145-0.001673 0.2145-0.001666 0.2145-0.00166 0.2145-0.001654 0.2145-0.001647 0.2145-0.00164 0.2145-0.001635 0.2145-0.001621 0.2145-0.001609 0.2145-0.001595 0.2145-0.001582 0.2145-0.00157 0.2145-0.001563 0.2145-0.001555 0.2145-0.001546 0.2145-0.001539 0.2145-0.001531 0.2145-0.001522 0.2145-0.001515 0.2145-0.001507 0.2145-0.001498 0.2145-0.001491 0.42899 2.33e-4 0.42899 2.37e-4 0.42899 2.4e-4 0.64349 3.67e-4 0.42899 2.49e-4 0.64349 3.8e-4 0.2145 1.29e-4 0.2145 1.38e-4 0.2145 1.59e-4 0.2145 1.82e-4 0.42899 4.05e-4 1.0725 0.001003 4.7189 0.003902 0.2145 2.07e-4 0.2145 2.35e-4 0.2145 2.54e-4 0.2145 2.68e-4 0.42899 5.42e-4 0.2145 2.42e-4 0.2145 2.19e-4 1.5015 0.001322 2.145 0.001654 2.574 0.001734 0.2145 9.7e-5 0.2145 6.6e-5 0.2145 4.6e-5 9.0088 8.18e-4 0.64349 6.4e-5 0.85798 9.3e-5 0.85798 1.02e-4 0.85798 1.11e-4 0.64349 8.9e-5 0.85798 1.26e-4 0.85798 1.35e-4 0.85798 1.44e-4 0.85798 1.53e-4 0.2145 4.8e-5 0.2145 7.7e-5 0.2145 8.7e-5 0.2145 9.5e-5 0.2145 1.04e-4 1.0725 5.64e-4 1.5015 8.01e-4 0.64349 3.47e-4 1.716 9.37e-4 1.0725 5.94e-4 1.0725 5.97e-4 0.42899 1.65e-4 0.42899 1.35e-4 0.2145 5.6e-5 0.42899 1.16e-4 0.64349 1.81e-4 0.64349 1.9e-4 0.2145 6.5e-5 0.2145 7e-5 0.2145 7.7e-5 0.2145 8.5e-5 4.5044 0.001925 2.574 8.47e-4 0.64349 1.59e-4 0.42899 6.8e-5 6.4349 6.59e-4 0.2145 2.4e-5 0.2145 2.6e-5 0.2145 2.8e-5 0.2145 3e-5 0.2145 3.2e-5 0.42899 7.1e-5 0.2145 3.9e-5 0.2145 4.1e-5 0.2145 4.3e-5 0.2145 4.5e-5 0.2145 4.7e-5 0.2145 4.9e-5 0.2145 5.1e-5 6.435 0.002738 1.5015 5.05e-4 4.0754 4.92e-4 0.2145 2.7e-5 0.2145 3.8e-5 0.2145 4.7e-5 0.2145 5.8e-5 0.2145 6.5e-5 0.2145 6.9e-5 0.2145 7.3e-5 0.2145 7.8e-5 0.2145 8.3e-5 0.2145 8.7e-5 0.2145 9.1e-5 0.2145 9.5e-5 0.2145 9.9e-5 0.2145 1.01e-4 0.2145 1.03e-4 0.2145 1.06e-4 0.2145 1.09e-4 0.2145 1.11e-4 0.2145 1.13e-4 0.2145 1.16e-4 0.2145 1.19e-4 0.2145 1.21e-4 0.2145 1.23e-4 0.2145 1.26e-4 0.2145 1.29e-4 0.2145 1.33e-4 0.2145 1.36e-4 0.2145 1.4e-4 0.2145 1.44e-4 0.2145 1.47e-4 0.2145 1.51e-4 0.2145 1.54e-4 0.2145 1.58e-4 0.2145 1.72e-4 0.2145 1.98e-4 0.2145 2.24e-4 0.2145 2.5e-4 0.42899 5.4e-4 1.716 0.001945 2.574 0.002685 1.5015 0.001428 0.85798 7.49e-4 0.2145 1.7e-4 0.2145 1.44e-4 0.2145 1.18e-4 0.2145 9.3e-5 2.7885 7.91e-4 0.2145 6.2e-5 0.2145 6.5e-5 0.2145 6.8e-5 0.2145 7.1e-5 0.2145 7.6e-5 0.2145 1.12e-4 0.2145 1.15e-4 0.2145 1.18e-4 0.2145 1.2e-4 0.2145 1.23e-4 0.2145 1.26e-4 0.2145 1.29e-4 0.2145 1.31e-4 0.2145 1.34e-4 0.2145 1.37e-4 0.2145 1.39e-4 0.2145 1.41e-4 0.42899 2.87e-4 0.42899 2.93e-4 0.42899 3.01e-4 0.2145 1.52e-4 0.42899 3.1e-4 0.42899 3.17e-4 0.2145 1.61e-4 0.2145 1.79e-4 2.574 0.002337 1.0725 7.32e-4 0.42899 2.96e-4 0.42899 3.03e-4 3.2174 0.002249 0.2145 1.26e-4 1.5015 7.22e-4 0.2145 1.07e-4 0.2145 1.16e-4 0.2145 1.27e-4 1.716 0.001026 3.4319 0.001644 0.2145 1.04e-4 0.2145 1.08e-4 0.2145 1.11e-4 0.2145 1.15e-4 0.2145 1.19e-4 0.2145 1.21e-4 0.2145 1.26e-4 0.2145 1.29e-4 0.85799 5.35e-4 0.2145 1.22e-4 0.2145 3.16e-4 0.2145 3.24e-4 0.2145 3.32e-4 0.2145 3.38e-4 0.2145 3.46e-4 0.42899 7.77e-4 0.42899 7.85e-4 0.42899 7.93e-4 0.42899 8.01e-4 2.574 0.004842 0.85798 0.001541 0.85798 0.00147 0.85798 0.001396 0.42899 2.71e-4 0.42899 2.39e-4 0.2145 1.08e-4 1.5015 4.05e-4 1.0725 2.21e-4 0.2145 4.7e-5 0.2145 4.9e-5 0.2145 5.1e-5 0.2145 5.4e-5 0.2145 5.6e-5 0.2145 5.8e-5 0.2145 6e-5 0.2145 6.3e-5 0.2145 6.5e-5 0.2145 7.3e-5 0.2145 1.12e-4 0.2145 1.51e-4 0.2145 1.82e-4 0.2145 2.81e-4 0.2145 3.58e-4 0.2145 4.21e-4 0.2145 4.37e-4 0.2145 4.52e-4 0.2145 4.65e-4 0.2145 4.78e-4 0.2145 4.9e-4 0.2145 5.02e-4 0.2145 5.13e-4 0.2145 5.24e-4 0.2145 6.07e-4 0.2145 6.26e-4 0.2145 6.61e-4 0.2145 7.43e-4 0.2145 8.86e-4 0.2145 9.31e-4 0.2145 9.53e-4 0.2145 0.001028 0.2145 0.001065 0.2145 0.001121 0.2145 0.001189 0.2145 0.001222 0.2145 0.001229 0.2145 0.001235 0.2145 0.001241 1.5015 0.008704 0.2145 0.001232 0.2145 0.001195 0.2145 0.001156 0.2145 0.001126 0.2145 0.001028 0.2145 9.51e-4 0.2145 8.89e-4 0.2145 8.75e-4 0.2145 8.59e-4 0.2145 8.48e-4 0.2145 8.36e-4 0.42899 0.001638 0.2145 8.04e-4 0.2145 7.93e-4 0.2145 7.13e-4 0.2145 6.96e-4 0.2145 6.63e-4 0.2145 5.84e-4 0.2145 4.41e-4 0.2145 3.99e-4 0.2145 3.79e-4 0.2145 3.05e-4 0.2145 2.71e-4 0.2145 2.17e-4 0.2145 1.51e-4 0.2145 1.26e-4 0.2145 1.61e-4 0.2145 1.95e-4 0.2145 2.3e-4 0.2145 2.66e-4 0.2145 3.08e-4 0.2145 3.5e-4 0.2145 3.93e-4 0.2145 4.35e-4 0.2145 4.78e-4 0.2145 5.2e-4 0.2145 5.63e-4 0.2145 6.05e-4 0.2145 6.48e-4 0.2145 6.9e-4 0.2145 7.32e-4 0.2145 7.76e-4 0.2145 8.17e-4 0.2145 8.61e-4 0.2145 9.02e-4 0.2145 9.46e-4 0.2145 9.88e-4 0.2145 0.00103 0.2145 0.001074 0.2145 0.001115 0.64349 0.010706 0.64349 0.010714 0.42899 0.007147 1.0725 0.017874 0.2145 0.003529 0.2145 0.003489 0.2145 0.004056 0.2145 0.006965 0.2145 0.008706 0.2145 0.008881 0.2145 0.009053 0.2145 0.012659 0.2145 0.027314 0.2145 0.029148 0.2145 0.029404 0.2145 0.031506 0.2145 0.03291 0.2145 0.048894 0.2145 0.058882 0.2145 0.060656 0.2145 0.062866 0.2145 0.063256 0.2145 0.063614 0.2145 0.063976 0.2145 0.066617 0.2145 0.072347 0.2145 0.072972 0.2145 0.073553 0.2145 0.076131 0.2145 0.077895 0.2145 0.078775 0.2145 0.084546 0.2145 0.085364 0.2145 0.0905 0.2145 0.091343 0.2145 0.098463 0.2145 0.099693 0.2145 0.10723 0.2145 0.10852 0.2145 0.11091 0.2145 0.12008 0.2145 0.12378 0.2145 0.12533 0.2145 0.12618 0.2145 0.12404 0.2145 0.12582 0.2145 0.13204 0.2145 0.13584 0.2145 0.13758 0.2145 0.12446 0.2145 0.13094 0.2145 0.13513 0.2145 0.13416 0.2145 0.13414 0.2145 0.11799 0.2145 0.10527 0.2145 0.10928 0.2145 0.13011 0.2145 0.14534 0.2145 0.158 0.2145 0.16046 0.2145 0.15957 0.2145 0.15397 0.2145 0.15609 0.2145 0.1588 0.2145 0.16327 0.2145 0.16661 0.2145 0.17142 0.2145 0.16608 0.2145 0.16863 0.2145 0.16428 0.2145 0.1702 0.2145 0.164 0.2145 0.16908 0.2145 0.16181 0.2145 0.16603 0.2145 0.16681 0.2145 0.15634 0.2145 0.15517 0.2145 0.1607 0.2145 0.16315 0.2145 0.16564 0.2145 0.16495 0.2145 0.16048 0.2145 0.16167 0.2145 0.15824 0.2145 0.15332 0.2145 0.14592 0.2145 0.14318 0.2145 0.145 0.2145 0.14686 0.2145 0.14037 0.2145 0.14228 0.2145 0.13537 0.2145 0.097705 0.2145 0.08899 0.2145 0.072302 0.2145 0.073702 0.2145 0.082325 0.2145 0.083393 0.2145 0.084481 0.2145 0.08483 0.2145 0.077152 0.2145 0.085138 0.2145 0.091888 0.2145 0.098249 0.2145 0.1083 0.2145 0.11074 0.2145 0.10671 0.2145 0.10579 0.2145 0.1024 0.2145 0.10216 0.2145 0.11141 0.2145 0.11744 0.2145 0.11841 0.2145 0.1194 0.2145 0.11589 0.2145 0.11718 0.2145 0.11849 0.2145 0.1183 0.2145 0.118 0.2145 0.1175 0.2145 0.1191 0.2145 0.11917 0.2145 0.11668 0.2145 0.1189 0.2145 0.12118 0.2145 0.12582 0.2145 0.13173 0.2145 0.16306 0.2145 0.20633 0.2145 0.21094 0.2145 0.19426 0.2145 0.19704 0.2145 0.2115 0.2145 0.22012 0.2145 0.24739 0.2145 0.25303 0.2145 0.33947 0.2145 0.33914 0.2145 0.33068 0.2145 0.32388 0.2145 0.36089 0.2145 0.37518 0.2145 0.38686 0.2145 0.40192 0.2145 0.41821 0.2145 0.43587 0.2145 0.4551 0.2145 0.45072 0.2145 0.45964 0.2145 0.48114 0.2145 0.50477 0.2145 0.53083 0.2145 0.55974 0.2145 0.59198 0.2145 0.62817 0.2145 0.66789 0.2145 0.70693 0.2145 0.74545 0.2145 0.80033 0.2145 0.86421 0.2145 0.93951 0.2145 1.0296 0.2145 1.1271 0.2145 1.24 0.2145 1.2114 0.2145 1.0746 0.2145 1.1971 0.2145 1.3517 0.2145 1.5528 0.2145 1.688 0.2145 1.7864 0.2145 1.7893 0.2145 2.164 0.2145 0.94893 0.2145 1.0376 0.2145 1.1454 0.2145 1.2793 0.2145 0.45593 0.2145 0.003832 0.42899 0.007669 0.42899 0.007675 0.2145 0.003839 0.42899 0.007683 0.42899 0.007689 0.42899 0.007695 0.42899 0.007701 0.2145 0.003852 0.42899 0.007709 0.64349 0.045295 0.64349 0.045244 0.64349 0.045192 0.64349 0.045139 0.64349 0.045083 0.64349 0.045027 0.42899 0.029986 0.64349 0.044928 0.64349 0.044867 0.64349 0.044805 0.42899 0.029834 0.64349 0.044696 0.42899 0.02976 0.2145 0.014868 0.64349 0.008973 0.64349 0.008981 0.64349 0.008989 0.42899 0.005997 0.64349 0.009002 0.64349 0.00901 0.42899 0.006011 0.42899 0.006014 0.42899 0.006018 0.64349 0.009034 0.42899 0.006027 0.42899 0.00603 0.42899 0.006034 0.64349 0.009058 0.64349 0.009065 0.42899 0.006048 0.64349 0.009079 0.42899 0.006057 0.42899 0.006061 0.42899 0.006064 0.64349 0.009103 0.85798 0.01215 0.64349 0.009122 0.64349 0.00913 0.85798 0.012186 0.64349 0.009149 0.42899 0.006104 0.64349 0.009163 0.42899 0.006113 0.64349 0.009176 0.42899 0.006122 0.64349 0.00919 0.2145 0.003065 0.64349 0.009201 0.42899 0.006139 0.42899 0.006142 0.42899 0.006146 0.64349 0.009226 0.42899 0.006155 0.42899 0.006159 0.42899 0.006162 0.64349 0.009251 0.64349 0.009259 0.2145 0.003088 0.64349 0.009271 0.42899 0.006184 0.42899 0.006189 0.42899 0.006192 0.42899 0.006196 0.64349 0.009301 0.2145 0.003102 0.64349 0.009313 0.42899 0.006212 0.42899 0.006217 0.42899 0.00622 0.64349 0.009338 0.64349 0.009346 0.64349 0.009355 0.42899 0.006241 0.42899 0.006245 0.42899 0.006249 0.64349 0.00938 0.64349 0.009389 0.42899 0.006264 0.64349 0.009403 0.64349 0.009412 0.64349 0.009421 0.42899 0.006285 0.42899 0.006289 0.42899 0.006293 0.64349 0.009446 0.42899 0.006303 0.42899 0.006306 0.42899 0.00631 0.64349 0.009473 0.2145 0.003268 0.2145 0.003408 0.2145 0.003548 0.2145 0.003688 0.2145 0.003828 0.2145 0.003968 0.2145 0.00411 0.2145 0.004249 0.2145 0.004391 0.2145 0.004532 0.2145 0.004674 0.2145 0.004814 0.2145 0.004957 0.2145 0.005098 0.2145 0.00524 0.2145 0.005383 0.2145 0.005525 0.2145 0.005668 0.2145 0.005811 0.2145 0.005955 0.2145 0.006097 0.2145 0.006242 0.2145 0.006385 0.2145 0.00653 0.2145 0.006674 0.2145 0.006819 0.2145 0.006965 0.2145 0.007109 0.2145 0.007256 0.2145 0.007401 0.2145 0.007547 0.2145 0.007695 0.2145 0.007841 0.2145 0.007988 0.2145 0.008137 0.2145 0.008284 0.2145 0.008432 0.2145 0.00847 0.2145 0.008478 0.2145 0.008484 0.2145 0.008491 0.2145 0.008499 0.2145 0.008505 0.2145 0.008512 0.2145 0.00852 0.2145 0.008526 0.2145 0.008534 0.2145 0.008541 0.2145 0.008548 0.2145 0.008555 0.2145 0.008562 0.2145 0.008569 0.2145 0.008576 0.2145 0.008584 0.2145 0.008591 0.2145 0.008598 0.2145 0.008605 0.2145 0.008612 0.2145 0.00862 0.2145 0.008627 0.2145 0.008634 0.2145 0.008641 0.2145 0.008649 0.2145 0.008656 0.2145 0.008663 0.2145 0.008671 0.2145 0.008678 0.2145 0.008685 0.2145 0.008693 0.2145 0.0087 0.2145 0.008707 0.2145 0.008715 0.2145 0.008722 0.2145 0.00873 0.2145 0.008737 0.2145 0.008744 0.2145 0.008752 0.2145 0.008759 0.2145 0.008767 0.2145 0.008775 0.2145 0.008781 0.2145 0.00879 0.2145 0.008797 0.2145 0.008804 0.2145 0.008812 0.2145 0.00882 0.2145 0.008827 0.2145 0.008835 0.2145 0.008842 0.2145 0.00885 0.2145 0.008858 0.2145 0.008865 0.2145 0.008873 0.2145 0.00888 0.2145 0.008889 0.2145 0.008896 0.2145 0.008903 0.2145 0.008912 0.2145 0.008919 0.2145 0.008927 0.2145 0.008935 0.2145 0.008942 0.2145 0.00895 0.2145 0.008959 0.2145 0.008965 0.2145 0.008974 0.2145 0.008982 0.2145 0.008989 0.2145 0.008998 0.2145 0.009005 0.2145 0.009013 0.2145 0.009021 0.2145 0.009029 0.2145 0.009037 0.2145 0.009045 0.2145 0.009053 0.2145 0.009061 0.2145 0.009069 0.2145 0.009077 0.2145 0.009085 0.2145 0.009093 0.2145 0.009101 0.2145 0.009109 0.2145 0.009117 0.2145 0.009125 0.2145 0.009134 0.2145 0.009141 0.2145 0.00915 0.2145 0.009158 0.2145 0.009166 0.2145 0.009174 0.2145 0.009183 0.2145 0.00919 0.2145 0.009199 0.2145 0.009208 0.2145 0.009215 0.2145 0.009224 0.2145 0.009232 0.2145 0.00924 0.2145 0.009249 0.2145 0.009257 0.2145 0.009265 0.2145 0.009274 0.2145 0.009282 0.2145 0.00929 0.2145 0.009299 0.2145 0.009307 0.2145 0.009316 0.2145 0.009324 0.2145 0.009333 0.2145 0.009341 0.2145 0.00935 0.2145 0.009358 0.2145 0.009367 0.2145 0.009376 0.2145 0.009383 0.2145 0.009393 0.2145 0.009401 0.2145 0.00941 0.2145 0.009418 0.2145 0.009427 0.2145 0.009436 0.2145 0.009444 0.2145 0.009453 0.2145 0.009462 0.2145 0.00947 0.2145 0.00948 0.2145 0.009488 0.2145 0.009496 0.2145 0.009506 0.2145 0.009514 0.2145 0.009523 0.2145 0.009532 0.2145 0.009541 0.2145 0.00955 0.2145 0.009559 0.2145 0.009567 0.2145 0.009577 0.2145 0.009585 0.2145 0.009595 0.2145 0.009603 0.2145 0.009612 0.2145 0.009622 0.2145 0.00963 0.2145 0.00964 0.2145 0.009648 0.2145 0.009658 0.2145 0.009666 0.2145 0.009676 0.2145 0.009685 0.2145 0.009694 0.2145 0.009703 0.2145 0.009713 0.2145 0.009721 0.2145 0.009731 0.2145 0.00974 0.2145 0.009749 0.2145 0.009759 0.2145 0.009768 0.2145 0.009777 0.2145 0.009786 0.2145 0.009796 0.2145 0.009805 0.2145 0.009815 0.2145 0.009824 0.2145 0.009833 0.2145 0.009843 0.2145 0.009852 0.2145 0.009862 0.2145 0.009871 0.2145 0.009881 0.2145 0.00989 0.2145 0.009899 0.2145 0.00991 0.2145 0.009919 0.2145 0.009928 0.2145 0.009938 0.2145 0.009948 0.2145 0.009957 0.2145 0.009967 0.2145 0.009977 0.2145 0.009986 0.2145 0.009996 0.2145 0.010006 0.2145 0.010016 0.2145 0.010025 0.2145 0.010035 0.2145 0.010045 0.2145 0.010055 0.2145 0.010065 0.2145 0.010075 0.2145 0.010084 0.2145 0.010094 0.2145 0.010105 0.2145 0.010114 0.2145 0.010124 0.2145 0.010135 0.2145 0.010144 0.2145 0.010154 0.2145 0.010165 0.2145 0.010174 0.2145 0.010184 0.2145 0.010195 0.2145 0.010205 0.2145 0.010215 0.2145 0.010225 0.2145 0.010235 0.2145 0.010246 0.2145 0.010256 0.2145 0.010266 0.2145 0.010276 0.2145 0.010286 0.2145 0.010297 0.2145 0.010308 0.2145 0.010317 0.2145 0.010328 0.2145 0.010339 0.2145 0.010348 0.2145 0.01036 0.2145 0.010369 0.2145 0.010381 0.2145 0.01039 0.2145 0.010401 0.2145 0.010412 0.2145 0.010423 0.2145 0.010433 0.2145 0.010443 0.2145 0.010454 0.2145 0.010465 0.2145 0.010476 0.2145 0.010486 0.2145 0.010497 0.2145 0.010508 0.2145 0.010518 0.2145 0.010529 0.2145 0.01054 0.2145 0.010551 0.2145 0.010562 0.2145 0.010573 0.2145 0.010583 0.2145 0.010595 0.2145 0.010605 0.2145 0.010616 0.2145 0.010628 0.2145 0.010638 0.2145 0.010649 0.2145 0.010661 0.2145 0.010671 0.2145 0.010683 0.2145 0.010694 0.2145 0.010705 0.2145 0.010716 0.2145 0.010727 0.2145 0.010739 0.2145 0.010749 0.2145 0.010761 0.2145 0.010773 0.2145 0.010783 0.2145 0.010795 0.2145 0.010807 0.2145 0.010817 0.2145 0.01083 0.2145 0.01084 0.2145 0.010852 0.2145 0.010864 0.2145 0.010875 0.2145 0.010886 0.2145 0.010898 0.2145 0.01091 0.2145 0.010921 0.2145 0.010933 0.2145 0.010945 0.2145 0.010956 0.2145 0.010968 0.2145 0.01098 0.2145 0.010991 0.2145 0.011004 0.2145 0.011015 0.2145 0.011026 0.2145 0.011039 0.2145 0.011051 0.2145 0.011062 0.2145 0.011075 0.2145 0.011086 0.2145 0.011099 0.2145 0.01111 0.2145 0.011123 0.2145 0.011134 0.2145 0.011147 0.2145 0.011158 0.2145 0.011171 0.2145 0.011183 0.2145 0.011196 0.2145 0.011207 0.2145 0.01122 0.2145 0.011232 0.2145 0.011244 0.2145 0.011257 0.2145 0.011269 0.2145 0.011281 0.2145 0.011294 0.2145 0.011306 0.2145 0.011319 0.2145 0.011331 0.2145 0.011343 0.2145 0.011357 0.2145 0.011368 0.2145 0.011382 0.2145 0.011394 0.2145 0.011407 0.2145 0.011419 0.2145 0.011432 0.2145 0.011445 0.2145 0.011458 0.2145 0.01147 0.2145 0.011483 0.2145 0.011496 0.2145 0.011509 0.2145 0.011522 0.2145 0.011535 0.2145 0.011548 0.2145 0.011561 0.2145 0.011574 0.2145 0.011587v35.463h-421.06z" stroke="#0766aa" stroke-opacity=".2"/>
</defs>
<g clip-path="url(#h)">
<use y="413.19625" fill="#0766aa" fill-opacity=".2" stroke="#0766aa" stroke-opacity=".2" xlink:href="#ag"/>
</g>
<path d="m40.603 170.63v-141.83" clip-path="url(#h)" fill="none" stroke="#b0b0b0" stroke-linecap="square" stroke-width=".8"/>
<defs>
<path id="c" d="m0 0v3.5" stroke="#000" stroke-width=".8"/>
</defs>
<use x="40.603125" y="170.627393" stroke="#000000" stroke-width=".8" xlink:href="#c"/>
<path d="m128.52 170.63v-141.83" clip-path="url(#h)" fill="none" stroke="#b0b0b0" stroke-linecap="square" stroke-width=".8"/>
<use x="128.518461" y="170.627393" stroke="#000000" stroke-width=".8" xlink:href="#c"/>
<path d="m216.43 170.63v-141.83" clip-path="url(#h)" fill="none" stroke="#b0b0b0" stroke-linecap="square" stroke-width=".8"/>
<use x="216.433797" y="170.627393" stroke="#000000" stroke-width=".8" xlink:href="#c"/>
<path d="m304.35 170.63v-141.83" clip-path="url(#h)" fill="none" stroke="#b0b0b0" stroke-linecap="square" stroke-width=".8"/>
<use x="304.349134" y="170.627393" stroke="#000000" stroke-width=".8" xlink:href="#c"/>
<path d="m392.26 170.63v-141.83" clip-path="url(#h)" fill="none" stroke="#b0b0b0" stroke-linecap="square" stroke-width=".8"/>
<use x="392.26447" y="170.627393" stroke="#000000" stroke-width=".8" xlink:href="#c"/>
<path d="m480.18 170.63v-141.83" clip-path="url(#h)" fill="none" stroke="#b0b0b0" stroke-linecap="square" stroke-width=".8"/>
<use x="480.179806" y="170.627393" stroke="#000000" stroke-width=".8" xlink:href="#c"/>
<defs>
<path id="d" d="m0 0h-3.5" stroke="#000" stroke-width=".8"/>
</defs>
<use x="40.603125" y="154.105211" stroke="#000000" stroke-width=".8" xlink:href="#d"/>
<defs>
<path id="g" d="m12.406 8.2969h16.109v55.625l-17.531-3.5156v8.9844l17.438 3.5156h9.8594v-64.609h16.109v-8.2969h-41.984z"/>
<path id="f" d="m31.781 66.406q-7.6094 0-11.453-7.5-3.8281-7.4844-3.8281-22.531 0-14.984 3.8281-22.484 3.8438-7.5 11.453-7.5 7.6719 0 11.5 7.5 3.8438 7.5 3.8438 22.484 0 15.047-3.8438 22.531-3.8281 7.5-11.5 7.5zm0 7.8125q12.266 0 18.734-9.7031 6.4688-9.6875 6.4688-28.141 0-18.406-6.4688-28.109-6.4688-9.6875-18.734-9.6875-12.25 0-18.719 9.6875-6.4688 9.7031-6.4688 28.109 0 18.453 6.4688 28.141 6.4688 9.7031 18.719 9.7031z"/>
</defs>
<g transform="translate(16.003 157.9) scale(.1 -.1)">
<use transform="translate(0 .68438)" xlink:href="#g"/>
<use transform="translate(63.623 .68438)" xlink:href="#f"/>
<use transform="translate(128.2 38.966) scale(.7)" xlink:href="#g"/>
</g>
<use x="40.603125" y="130.467312" stroke="#000000" stroke-width=".8" xlink:href="#d"/>
<defs>
<path id="t" d="m19.188 8.2969h34.422v-8.2969h-46.281v8.2969q5.6094 5.8125 15.297 15.594 9.7031 9.7969 12.188 12.641 4.7344 5.3125 6.6094 9 1.8906 3.6875 1.8906 7.25 0 5.8125-4.0781 9.4688-4.0781 3.6719-10.625 3.6719-4.6406 0-9.7969-1.6094-5.1406-1.6094-11-4.8906v9.9688q5.9531 2.3906 11.125 3.6094 5.1875 1.2188 9.4844 1.2188 11.328 0 18.062-5.6719 6.7344-5.6562 6.7344-15.125 0-4.5-1.6875-8.5312-1.6719-4.0156-6.125-9.4844-1.2188-1.4219-7.7656-8.1875-6.5312-6.7656-18.453-18.922z"/>
</defs>
<g transform="translate(16.003 134.27) scale(.1 -.1)">
<use transform="translate(0 .76562)" xlink:href="#g"/>
<use transform="translate(63.623 .76562)" xlink:href="#f"/>
<use transform="translate(128.2 39.047) scale(.7)" xlink:href="#t"/>
</g>
<use x="40.603125" y="106.829413" stroke="#000000" stroke-width=".8" xlink:href="#d"/>
<defs>
<path id="ae" d="m40.578 39.312q7.0781-1.5156 11.047-6.3125 3.9844-4.7812 3.9844-11.812 0-10.781-7.4219-16.703-7.4219-5.9062-21.094-5.9062-4.5781 0-9.4375 0.90625t-10.031 2.7188v9.5156q4.0938-2.3906 8.9688-3.6094 4.8906-1.2188 10.219-1.2188 9.2656 0 14.125 3.6562t4.8594 10.641q0 6.4531-4.5156 10.078-4.5156 3.6406-12.562 3.6406h-8.5v8.1094h8.8906q7.2656 0 11.125 2.9062t3.8594 8.375q0 5.6094-3.9844 8.6094-3.9688 3.0156-11.391 3.0156-4.0625 0-8.7031-0.89062-4.6406-0.875-10.203-2.7188v8.7812q5.625 1.5625 10.531 2.3438t9.25 0.78125q11.234 0 17.766-5.1094 6.5469-5.0938 6.5469-13.781 0-6.0625-3.4688-10.234t-9.8594-5.7812z"/>
</defs>
<g transform="translate(16.003 110.63) scale(.1 -.1)">
<use transform="translate(0 .76562)" xlink:href="#g"/>
<use transform="translate(63.623 .76562)" xlink:href="#f"/>
<use transform="translate(128.2 39.047) scale(.7)" xlink:href="#ae"/>
</g>
<use x="40.603125" y="83.191514" stroke="#000000" stroke-width=".8" xlink:href="#d"/>
<defs>
<path id="l" d="m37.797 64.312-24.906-38.922h24.906zm-2.5938 8.5938h12.406v-47.516h10.406v-8.2031h-10.406v-17.188h-9.8125v17.188h-32.906v9.5156z"/>
</defs>
<g transform="translate(16.003 86.991) scale(.1 -.1)">
<use transform="translate(0 .68438)" xlink:href="#g"/>
<use transform="translate(63.623 .68438)" xlink:href="#f"/>
<use transform="translate(128.2 38.966) scale(.7)" xlink:href="#l"/>
</g>
<use x="40.603125" y="59.553615" stroke="#000000" stroke-width=".8" xlink:href="#d"/>
<defs>
<path id="s" d="m10.797 72.906h38.719v-8.3125h-29.688v-17.859q2.1406 0.73438 4.2812 1.0938 2.1562 0.35938 4.3125 0.35938 12.203 0 19.328-6.6875 7.1406-6.6875 7.1406-18.109 0-11.766-7.3281-18.297-7.3281-6.5156-20.656-6.5156-4.5938 0-9.3594 0.78125-4.75 0.78125-9.8281 2.3438v9.9219q4.3906-2.3906 9.0781-3.5625t9.9062-1.1719q8.4531 0 13.375 4.4375 4.9375 4.4375 4.9375 12.062 0 7.6094-4.9375 12.047-4.9219 4.4531-13.375 4.4531-3.9531 0-7.8906-0.875-3.9219-0.875-8.0156-2.7344z"/>
</defs>
<g transform="translate(16.003 63.353) scale(.1 -.1)">
<use transform="translate(0 .68438)" xlink:href="#g"/>
<use transform="translate(63.623 .68438)" xlink:href="#f"/>
<use transform="translate(128.2 38.966) scale(.7)" xlink:href="#s"/>
</g>
<use x="40.603125" y="35.915717" stroke="#000000" stroke-width=".8" xlink:href="#d"/>
<defs>
<path id="r" d="m33.016 40.375q-6.6406 0-10.531-4.5469-3.875-4.5312-3.875-12.438 0-7.8594 3.875-12.438 3.8906-4.5625 10.531-4.5625t10.516 4.5625q3.875 4.5781 3.875 12.438 0 7.9062-3.875 12.438-3.875 4.5469-10.516 4.5469zm19.578 30.922v-8.9844q-3.7188 1.75-7.5 2.6719-3.7812 0.9375-7.5 0.9375-9.7656 0-14.922-6.5938-5.1406-6.5938-5.875-19.922 2.875 4.25 7.2188 6.5156 4.3594 2.2656 9.5781 2.2656 10.984 0 17.359-6.6719 6.375-6.6562 6.375-18.125 0-11.234-6.6406-18.031-6.6406-6.7812-17.672-6.7812-12.656 0-19.344 9.6875-6.6875 9.7031-6.6875 28.109 0 17.281 8.2031 27.562t22.016 10.281q3.7188 0 7.5-0.73438t7.8906-2.1875z"/>
</defs>
<g transform="translate(16.003 39.715) scale(.1 -.1)">
<use transform="translate(0 .76562)" xlink:href="#g"/>
<use transform="translate(63.623 .76562)" xlink:href="#f"/>
<use transform="translate(128.2 39.047) scale(.7)" xlink:href="#r"/>
</g>
<defs>
<path id="a" d="m0 0h-2" stroke="#000" stroke-width=".6"/>
</defs>
<use x="40.603125" y="170.627393" stroke="#000000" stroke-width=".6" xlink:href="#a"/>
<use x="40.603125" y="166.464966" stroke="#000000" stroke-width=".6" xlink:href="#a"/>
<use x="40.603125" y="163.511677" stroke="#000000" stroke-width=".6" xlink:href="#a"/>
<use x="40.603125" y="161.220927" stroke="#000000" stroke-width=".6" xlink:href="#a"/>
<use x="40.603125" y="159.349249" stroke="#000000" stroke-width=".6" xlink:href="#a"/>
<use x="40.603125" y="157.766768" stroke="#000000" stroke-width=".6" xlink:href="#a"/>
<use x="40.603125" y="156.39596" stroke="#000000" stroke-width=".6" xlink:href="#a"/>
<use x="40.603125" y="155.186822" stroke="#000000" stroke-width=".6" xlink:href="#a"/>
<use x="40.603125" y="146.989494" stroke="#000000" stroke-width=".6" xlink:href="#a"/>
<use x="40.603125" y="142.827067" stroke="#000000" stroke-width=".6" xlink:href="#a"/>
<use x="40.603125" y="139.873778" stroke="#000000" stroke-width=".6" xlink:href="#a"/>
<use x="40.603125" y="137.583029" stroke="#000000" stroke-width=".6" xlink:href="#a"/>
<use x="40.603125" y="135.71135" stroke="#000000" stroke-width=".6" xlink:href="#a"/>
<use x="40.603125" y="134.128869" stroke="#000000" stroke-width=".6" xlink:href="#a"/>
<use x="40.603125" y="132.758061" stroke="#000000" stroke-width=".6" xlink:href="#a"/>
<use x="40.603125" y="131.548923" stroke="#000000" stroke-width=".6" xlink:href="#a"/>
<use x="40.603125" y="123.351595" stroke="#000000" stroke-width=".6" xlink:href="#a"/>
<use x="40.603125" y="119.189168" stroke="#000000" stroke-width=".6" xlink:href="#a"/>
<use x="40.603125" y="116.235879" stroke="#000000" stroke-width=".6" xlink:href="#a"/>
<use x="40.603125" y="113.94513" stroke="#000000" stroke-width=".6" xlink:href="#a"/>
<use x="40.603125" y="112.073451" stroke="#000000" stroke-width=".6" xlink:href="#a"/>
<use x="40.603125" y="110.49097" stroke="#000000" stroke-width=".6" xlink:href="#a"/>
<use x="40.603125" y="109.120162" stroke="#000000" stroke-width=".6" xlink:href="#a"/>
<use x="40.603125" y="107.911024" stroke="#000000" stroke-width=".6" xlink:href="#a"/>
<use x="40.603125" y="99.713697" stroke="#000000" stroke-width=".6" xlink:href="#a"/>
<use x="40.603125" y="95.551269" stroke="#000000" stroke-width=".6" xlink:href="#a"/>
<use x="40.603125" y="92.59798" stroke="#000000" stroke-width=".6" xlink:href="#a"/>
<use x="40.603125" y="90.307231" stroke="#000000" stroke-width=".6" xlink:href="#a"/>
<use x="40.603125" y="88.435553" stroke="#000000" stroke-width=".6" xlink:href="#a"/>
<use x="40.603125" y="86.853071" stroke="#000000" stroke-width=".6" xlink:href="#a"/>
<use x="40.603125" y="85.482263" stroke="#000000" stroke-width=".6" xlink:href="#a"/>
<use x="40.603125" y="84.273125" stroke="#000000" stroke-width=".6" xlink:href="#a"/>
<use x="40.603125" y="76.075798" stroke="#000000" stroke-width=".6" xlink:href="#a"/>
<use x="40.603125" y="71.91337" stroke="#000000" stroke-width=".6" xlink:href="#a"/>
<use x="40.603125" y="68.960081" stroke="#000000" stroke-width=".6" xlink:href="#a"/>
<use x="40.603125" y="66.669332" stroke="#000000" stroke-width=".6" xlink:href="#a"/>
<use x="40.603125" y="64.797654" stroke="#000000" stroke-width=".6" xlink:href="#a"/>
<use x="40.603125" y="63.215172" stroke="#000000" stroke-width=".6" xlink:href="#a"/>
<use x="40.603125" y="61.844365" stroke="#000000" stroke-width=".6" xlink:href="#a"/>
<use x="40.603125" y="60.635226" stroke="#000000" stroke-width=".6" xlink:href="#a"/>
<use x="40.603125" y="52.437899" stroke="#000000" stroke-width=".6" xlink:href="#a"/>
<use x="40.603125" y="48.275471" stroke="#000000" stroke-width=".6" xlink:href="#a"/>
<use x="40.603125" y="45.322182" stroke="#000000" stroke-width=".6" xlink:href="#a"/>
<use x="40.603125" y="43.031433" stroke="#000000" stroke-width=".6" xlink:href="#a"/>
<use x="40.603125" y="41.159755" stroke="#000000" stroke-width=".6" xlink:href="#a"/>
<use x="40.603125" y="39.577273" stroke="#000000" stroke-width=".6" xlink:href="#a"/>
<use x="40.603125" y="38.206466" stroke="#000000" stroke-width=".6" xlink:href="#a"/>
<use x="40.603125" y="36.997328" stroke="#000000" stroke-width=".6" xlink:href="#a"/>
<use x="40.603125" y="28.8" stroke="#000000" stroke-width=".6" xlink:href="#a"/>
<path d="m44.514 126.09 1.0725 1.7999 0.42899 0.86264 0.64349 0.86441 1.9305 3.3627 0.64349 2.0081 1.0725 4.9088 0.2145 1.0034 0.2145 0.25948 0.42899-0.11625 1.0725-0.78948 0.85798-0.88754 0.42899-1.0564 0.64349-1.9811 0.64349-1.3997 0.64349-0.94685 0.64349-0.57309 1.287-0.88871 0.64349-0.88461 0.64349-0.74432 1.5015-2.3635 1.716-2.5642 0.64349-0.48597 0.85798-0.20847 0.42899-0.016958 0.42899 0.2036 0.42899 0.42201 1.287 1.8776 1.0725 2.2941 0.42899 0.86391 0.85798 1.2279 1.0725 0.090813 0.64349-0.062141 0.64349-0.7393 1.5015-1.6213 0.42899-0.13844 0.42899 0.046242 0.42899 0.23043 0.64349 0.67114 0.64349 1.0211 1.5015 3.2428 0.85798 2.0205 0.64349 0.76822 0.2145 0.14919 0.2145-0.21776 0.42899-1.0591 0.64349-1.8573 0.64349-1.2186 0.64349-0.74811 0.64349-0.38311 0.64349-0.13208 1.0725 0.1152 0.42899 0.17762 0.42899 0.39848 0.64349 0.88658 1.0725 2.0213 1.5015 3.002 0.64349 1.0882 0.64349 1.1152 0.2145 0.21241 0.2145 0.023746 0.85798-1.0583 1.287-1.513 0.64349-0.83717 0.64349-0.48217 0.64349-0.16933 0.64349 0.13573 0.64349 0.46623 0.64349 0.85886 0.42899 0.84778 0.2145 0.013526 0.85798-2.6112 0.64349-2.2483 1.0725-4.4086 0.64349-1.5687 1.287-2.6455 0.42899-0.43307 0.42899-0.17702 0.42899 0.070269 0.42899 0.3208 0.42899 0.59389 0.42899 0.91508 0.42899 1.3256 0.64349 2.2738 0.64349 2.2504 0.64349 3.1793 1.5015 8.5462 0.42899 4.3232 0.64349 2.056 0.42899 0.62731 0.42899-0.1379 0.85798-0.69534 1.5015-1.6333 1.287-1.348 0.85798-0.58428 0.85798-0.2998 0.64349-0.033395 0.64349 0.14398 1.0725 0.55354 0.85798 0.44926 0.2145-0.31523 1.5015-4.4774 1.287-3.4107 1.5015-5.0532 0.64349-1.2944 0.64349-0.67496 0.42899-0.1637 0.42899 0.051232 0.42899 0.26992 0.42899 0.50707 1.287 2.3046 0.64349 1.6212 0.64349 2.3558 1.716 7.7546 2.145-0.081818 0.64349 0.24149 0.85798 0.60674 0.85798 0.90013 1.0725 1.4799 3.0029 4.5524 0.64349 0.44483 0.64349 0.049497h2.3595l0.2145-0.38315 0.42899-1.766 1.0725-5.4579 0.85798-3.0606 0.85798-2.2516 0.64349-1.212 0.64349-0.84447 0.64349-0.51916 0.64349-0.20561 0.64349 0.024068 0.2145-0.22547 1.287-2.2293 1.5015-1.7662 0.64349-0.35817 0.64349-0.072752 0.64349 0.20081 0.64349 0.52804 0.64349 0.91109 0.64349 1.0426 0.42899-0.20482 1.0725-1.1537 0.64349-1.0926 0.64349-0.56772 0.42899-0.14529 0.42899 0.019652 0.42899 0.17584 0.42899 0.35572 0.64349 0.92648 0.64349 1.5051 0.64349 2.3411 0.42899 2.3074 0.42899 3.3899 0.42899 5.7749 0.42899 5.7638 0.2145 1.8417 0.2145 0.79594 8.5798-0.043466 0.64349-0.37587 0.85798-0.92515 1.716-2.411 1.5015-1.915 1.0725-1.0066 0.85798-0.52084 0.64349-0.1962 0.2145-0.023895 0.2145-0.35257 1.5015-8.9218 0.64349-2.056 0.64349-1.3048 0.64349-0.7752 0.64349-0.34694 0.42899-0.013893 0.42899 0.15936 0.42899 0.34218 0.64349 0.90447 0.64349 1.5055 0.42899 1.4777 0.42899 2.0477 0.64349 3.4349 0.42899 0.92684 0.2145 0.083525 1.0725-1.0372 1.287-1.4755 0.42899-1.01 0.85798-2.4293 0.64349-1.0477 0.64349-0.51805 0.42899-0.098922 0.42899 0.084406 0.42899 0.26739 0.64349 0.73425 0.64349 1.0734 0.64349 1.4615 0.64349 1.9581 0.64349 2.6671 0.64349 3.8485 0.64349 3.9153 0.2145 0.55459h6.4349l0.2145-0.14642 0.42899-0.69319 0.64349-1.7285 1.716-5.5201 0.42899-3.1849 0.64349-2.945 0.64349-1.7688 0.64349-1.0378 0.42899-0.38219 0.42899-0.16601 0.42899 0.040503 0.42899 0.25016 0.42899 0.47641 0.64349 1.1855 0.64349 1.647 0.64349 2.2211 0.64349 3.0938 0.42899 2.87 0.42899 4.0853 4.2899-0.071075 0.2145-0.6769 0.42899-2.589 0.85798-5.2988 0.85798-3.9251 0.64349-2.1422 0.64349-1.5651 0.64349-1.1306 0.64349-0.76829 0.64349-0.48852 0.64349-0.24475 0.64349 0.036095 0.42899 0.24836 0.42899 0.51127 0.64349 0.9384 1.0725 0.92292 2.145 1.8036 0.85798 1.2571 2.574 4.3375 2.145 2.2881 0.42899 0.32145 0.2145 0.018055 0.42899-0.33639 0.42899-0.76331 0.85798-2.1703 0.64349-3.558 0.64349-2.482 0.85798-2.3171 0.64349-1.1851 0.64349-0.76391 0.64349-0.40274 0.64349-0.060053 0.64349 0.15685 0.42899-0.17569 0.64349 0.12522 0.64349 0.44104 0.64349 0.77284 0.2145 0.31653 0.85798 0.095884 0.85798 0.041266 1.287-0.092501 0.64349 0.37377 0.64349 0.73273 0.64349 1.1547 0.42899 0.82899 0.85798 0.44387 0.85798 0.67114 0.2145-0.013798 1.0725-0.6763 0.64349 0.00705 0.85798-0.064149 1.287-0.29707 0.64349 0.17117 0.64349 0.41709 0.64349 0.76921 0.64349 1.2698 0.64349 1.9375 1.0725 4.0916 1.0725 1.8374 1.5015 3.1299 1.287 2.5095 0.64349 0.74691 0.42899 0.15666 6.6494-0.069022 0.85798-0.3836 1.0725-0.78825 3.2174-2.603 1.0725-0.53474 0.85798-0.21075 1.9305-0.15838 0.64349-0.48863 0.85798-1.009 3.2174-4.4939 1.9305-2.8659 0.42899-0.3615 0.42899-0.14316 0.64349 0.054416 0.64349 0.32163 0.64349 0.5793 0.64349 0.84414 0.85798 1.5841 0.85798 2.2335 1.716 5.0868 0.42899 0.81499 0.42899 0.35844h3.4319l0.2145-0.5613 1.5015-11.218 0.64349-2.4711 0.64349-1.6033 0.64349-1.0202 0.64349-0.56654 0.42899-0.15456 0.42899 0.018569 0.42899 0.19712 0.42899 0.39091 0.42899 0.62658 0.42899 0.97504 0.42899 1.4336 0.42899 2.096 0.85798 5.3123 0.42899 1.76 0.85798 2.5573 0.64349 2.5446 0.64349 3.272 0.64349 4.3195 0.64349 6.0156 0.42899 5.6639 0.42899 8.2876 0.42899 15.032 0.2145 16.938 0.1457 197.66v0" clip-path="url(#h)" fill="none" stroke="#dc143c" stroke-linecap="square" stroke-width="1.5"/>
<path d="m40.603 170.63v-141.83" fill="none" stroke="#000" stroke-linecap="square" stroke-width=".8"/>
<path d="m486.62 170.63v-141.83" fill="none" stroke="#000" stroke-linecap="square" stroke-width=".8"/>
<path d="m40.603 170.63h446.02" fill="none" stroke="#000" stroke-linecap="square" stroke-width=".8"/>
<path d="m40.603 28.8h446.02" fill="none" stroke="#000" stroke-linecap="square" stroke-width=".8"/>
<path d="m324.59 66.156h155.04q2 0 2-2v-28.356q0-2-2-2h-155.04q-2 0-2 2v28.356q0 2 2 2z" fill="#fff" opacity=".8" stroke="#ccc"/>
<path d="m326.59 41.898h20" fill="none" stroke="#dc143c" stroke-linecap="square" stroke-width="1.5"/>
<defs>
<path id="i" d="m41.109 46.297q-1.5156 0.875-3.2969 1.2812-1.7812 0.42188-3.9219 0.42188-7.625 0-11.703-4.9531t-4.0781-14.234v-28.812h-9.0312v54.688h9.0312v-8.5q2.8438 4.9844 7.375 7.3906 4.5469 2.4219 11.047 2.4219 0.92188 0 2.0469-0.125 1.125-0.10938 2.4844-0.35938z"/>
<path id="k" d="m34.281 27.484q-10.891 0-15.094-2.4844t-4.2031-8.5q0-4.7812 3.1562-7.5938 3.1562-2.7969 8.5625-2.7969 7.4844 0 12 5.2969t4.5156 14.078v2zm17.922 3.7188v-31.203h-8.9844v8.2969q-3.0781-4.9688-7.6719-7.3438t-11.234-2.375q-8.3906 0-13.359 4.7188-4.9531 4.7188-4.9531 12.625 0 9.2188 6.1719 13.906 6.1875 4.6875 18.438 4.6875h12.609v0.89062q0 6.2031-4.0781 9.5938t-11.453 3.3906q-4.6875 0-9.1406-1.125-4.4375-1.125-8.5312-3.375v8.3125q4.9219 1.9062 9.5625 2.8438 4.6406 0.95312 9.0312 0.95312 11.875 0 17.734-6.1562 5.8594-6.1406 5.8594-18.641z"/>
<path id="x" d="m18.312 70.219v-15.531h18.5v-6.9844h-18.5v-29.688q0-6.6875 1.8281-8.5938t7.4531-1.9062h9.2188v-7.5156h-9.2188q-10.406 0-14.359 3.875-3.9531 3.8906-3.9531 14.141v29.688h-6.5938v6.9844h6.5938v15.531z"/>
<path id="e" d="m56.203 29.594v-4.3906h-41.312q0.59375-9.2812 5.5938-14.141t13.938-4.8594q5.1719 0 10.031 1.2656t9.6562 3.8125v-8.5q-4.8438-2.0469-9.9219-3.125t-10.297-1.0781q-13.094 0-20.734 7.6094-7.6406 7.625-7.6406 20.625 0 13.422 7.25 21.297 7.25 7.8906 19.562 7.8906 11.031 0 17.453-7.1094 6.4219-7.0938 6.4219-19.297zm-8.9844 2.6406q-0.09375 7.3594-4.125 11.75-4.0312 4.4062-10.672 4.4062-7.5156 0-12.031-4.25t-5.2031-11.969z"/>
<path id="m" d="m30.609 48.391q-7.2188 0-11.422-5.6406t-4.2031-15.453 4.1719-15.453q4.1875-5.6406 11.453-5.6406 7.1875 0 11.375 5.6562 4.2031 5.6719 4.2031 15.438 0 9.7188-4.2031 15.406-4.1875 5.6875-11.375 5.6875zm0 7.6094q11.719 0 18.406-7.625 6.7031-7.6094 6.7031-21.078 0-13.422-6.7031-21.078-6.6875-7.6406-18.406-7.6406-11.766 0-18.438 7.6406-6.6562 7.6562-6.6562 21.078 0 13.469 6.6562 21.078 6.6719 7.625 18.438 7.625z"/>
<path id="z" d="m37.109 75.984v-7.4844h-8.5938q-4.8281 0-6.7188-1.9531-1.875-1.9531-1.875-7.0312v-4.8281h14.797v-6.9844h-14.797v-47.703h-9.0312v47.703h-8.5938v6.9844h8.5938v3.8125q0 9.125 4.25 13.297 4.25 4.1875 13.469 4.1875z"/>
<path id="n" d="m9.4219 54.688h8.9844v-54.688h-8.9844zm0 21.297h8.9844v-11.391h-8.9844z"/>
<path id="q" d="m9.4219 75.984h8.9844v-75.984h-8.9844z"/>
<path id="w" d="m8.5 21.578v33.109h8.9844v-32.766q0-7.7656 3.0156-11.656 3.0312-3.875 9.0938-3.875 7.2656 0 11.484 4.6406 4.2344 4.6406 4.2344 12.656v31h8.9844v-54.688h-8.9844v8.4062q-3.2656-4.9844-7.5938-7.4062-4.3125-2.4219-10.031-2.4219-9.4219 0-14.312 5.8594-4.875 5.8594-4.875 17.141zm22.609 34.422z"/>
<path id="j" d="m44.281 53.078v-8.5q-3.7969 1.9531-7.9062 2.9219-4.0938 0.98438-8.5 0.98438-6.6875 0-10.031-2.0469t-3.3438-6.1562q0-3.125 2.3906-4.9062t9.625-3.3906l3.0781-0.6875q9.5625-2.0469 13.594-5.7812t4.0312-10.422q0-7.625-6.0312-12.078-6.0312-4.4375-16.578-4.4375-4.3906 0-9.1562 0.85938t-10.031 2.5625v9.2812q4.9844-2.5938 9.8125-3.8906 4.8281-1.2812 9.5781-1.2812 6.3438 0 9.75 2.1719 3.4219 2.1719 3.4219 6.125 0 3.6562-2.4688 5.6094-2.4531 1.9531-10.812 3.7656l-3.125 0.73438q-8.3438 1.75-12.062 5.3906-3.7031 3.6406-3.7031 9.9844 0 7.7188 5.4688 11.906 5.4688 4.2031 15.531 4.2031 4.9688 0 9.3594-0.73438 4.4062-0.71875 8.1094-2.1875z"/>
<path id="v" d="m31 75.875q-6.5312-11.219-9.7188-22.219-3.1719-10.984-3.1719-22.266 0-11.266 3.2031-22.328t9.6875-22.25h-7.8125q-7.3125 11.484-10.953 22.562t-3.6406 22.016q0 10.891 3.6094 21.922 3.625 11.047 10.984 22.562z"/>
<path id="o" d="m45.406 46.391v29.594h8.9844v-75.984h-8.9844v8.2031q-2.8281-4.875-7.1562-7.25-4.3125-2.375-10.375-2.375-9.9062 0-16.141 7.9062-6.2188 7.9219-6.2188 20.812t6.2188 20.797q6.2344 7.9062 16.141 7.9062 6.0625 0 10.375-2.375 4.3281-2.3594 7.1562-7.2344zm-30.609-19.094q0-9.9062 4.0781-15.547t11.203-5.6406 11.219 5.6406q4.1094 5.6406 4.1094 15.547t-4.1094 15.547q-4.0938 5.6406-11.219 5.6406t-11.203-5.6406-4.0781-15.547z"/>
<path id="y" d="m9.0781 75.984h9.0312v-44.875l26.812 23.578h11.469l-29-25.578 30.234-29.109h-11.719l-27.797 26.703v-26.703h-9.0312z"/>
<path id="af" d="m25.391 72.906h8.2969l-25.391-82.188h-8.2969z"/>
<path id="p" d="m32.172-5.0781q-3.7969-9.7656-7.4219-12.734-3.6094-2.9844-9.6562-2.9844h-7.1875v7.5156h5.2812q3.7031 0 5.75 1.7656 2.0625 1.75 4.5469 8.2969l1.6094 4.0938-22.109 53.812h9.5156l17.094-42.766 17.094 42.766h9.5156z"/>
<path id="u" d="m8.0156 75.875h7.8125q7.3125-11.516 10.953-22.562 3.6406-11.031 3.6406-21.922 0-10.938-3.6406-22.016t-10.953-22.562h-7.8125q6.4844 11.188 9.6875 22.25t3.2031 22.328q0 11.281-3.2031 22.266-3.2031 11-9.6875 22.219z"/>
</defs>
<g transform="translate(354.59 45.398) scale(.1 -.1)">
<use xlink:href="#i"/>
<use x="41.113281" xlink:href="#k"/>
<use x="102.392578" xlink:href="#x"/>
<use x="141.601562" xlink:href="#e"/>
<use x="203.125" xlink:href="#DejaVuSans-20"/>
<use x="234.912109" xlink:href="#m"/>
<use x="296.09375" xlink:href="#z"/>
<use x="331.298828" xlink:href="#DejaVuSans-20"/>
<use x="363.085938" xlink:href="#z"/>
<use x="398.291016" xlink:href="#k"/>
<use x="459.570312" xlink:href="#n"/>
<use x="487.353516" xlink:href="#q"/>
<use x="515.136719" xlink:href="#w"/>
<use x="578.515625" xlink:href="#i"/>
<use x="619.597656" xlink:href="#e"/>
<use x="681.121094" xlink:href="#j"/>
<use x="733.220703" xlink:href="#DejaVuSans-20"/>
<use x="765.007812" xlink:href="#v"/>
<use x="804.021484" xlink:href="#o"/>
<use x="867.498047" xlink:href="#n"/>
<use x="895.28125" xlink:href="#j"/>
<use x="947.380859" xlink:href="#y"/>
<use x="1005.291016" xlink:href="#j"/>
<use x="1057.390625" xlink:href="#af"/>
<use x="1091.082031" xlink:href="#p"/>
<use x="1150.261719" xlink:href="#i"/>
<use x="1191.375" xlink:href="#u"/>
</g>
<path d="m326.59 60.077h20v-7h-20z" fill="#0766aa" fill-opacity=".2" stroke="#0766aa" stroke-opacity=".2"/>
<defs>
<path id="am" d="m48.688 27.297q0 9.9062-4.0781 15.547t-11.203 5.6406q-7.1406 0-11.219-5.6406t-4.0781-15.547 4.0781-15.547 11.219-5.6406q7.125 0 11.203 5.6406t4.0781 15.547zm-30.578 19.094q2.8438 4.875 7.1562 7.2344 4.3281 2.375 10.328 2.375 9.9688 0 16.188-7.9062 6.2344-7.9062 6.2344-20.797t-6.2344-20.812q-6.2188-7.9062-16.188-7.9062-6 0-10.328 2.375-4.3125 2.375-7.1562 7.25v-8.2031h-9.0312v75.984h9.0312z"/>
<path id="ai" d="m2.9844 54.688h9.5156l17.094-45.891 17.094 45.891h9.5156l-20.516-54.688h-12.203z"/>
</defs>
<g transform="translate(354.59 60.077) scale(.1 -.1)">
<use xlink:href="#o"/>
<use x="63.476562" xlink:href="#n"/>
<use x="91.259766" xlink:href="#j"/>
<use x="143.359375" xlink:href="#y"/>
<use x="201.269531" xlink:href="#j"/>
<use x="253.369141" xlink:href="#DejaVuSans-20"/>
<use x="285.15625" xlink:href="#m"/>
<use x="346.337891" xlink:href="#am"/>
<use x="409.814453" xlink:href="#j"/>
<use x="461.914062" xlink:href="#e"/>
<use x="523.4375" xlink:href="#i"/>
<use x="564.550781" xlink:href="#ai"/>
<use x="623.730469" xlink:href="#e"/>
<use x="685.253906" xlink:href="#o"/>
</g>
<path d="m40.603 375.64h446.02v-189.1h-446.02z" fill="#fff"/>
<path d="m40.603 375.64v-189.1" clip-path="url(#b)" fill="none" stroke="#b0b0b0" stroke-linecap="square" stroke-width=".8"/>
<use x="40.603125" y="375.64" stroke="#000000" stroke-width=".8" xlink:href="#c"/>
<g transform="translate(37.422 390.24) scale(.1 -.1)">
<use xlink:href="#f"/>
</g>
<path d="m128.52 375.64v-189.1" clip-path="url(#b)" fill="none" stroke="#b0b0b0" stroke-linecap="square" stroke-width=".8"/>
<use x="128.518461" y="375.64" stroke="#000000" stroke-width=".8" xlink:href="#c"/>
<g transform="translate(125.34 390.24) scale(.1 -.1)">
<use xlink:href="#g"/>
</g>
<path d="m216.43 375.64v-189.1" clip-path="url(#b)" fill="none" stroke="#b0b0b0" stroke-linecap="square" stroke-width=".8"/>
<use x="216.433797" y="375.64" stroke="#000000" stroke-width=".8" xlink:href="#c"/>
<g transform="translate(213.25 390.24) scale(.1 -.1)">
<use xlink:href="#t"/>
</g>
<path d="m304.35 375.64v-189.1" clip-path="url(#b)" fill="none" stroke="#b0b0b0" stroke-linecap="square" stroke-width=".8"/>
<use x="304.349134" y="375.64" stroke="#000000" stroke-width=".8" xlink:href="#c"/>
<g transform="translate(301.17 390.24) scale(.1 -.1)">
<use xlink:href="#ae"/>
</g>
<path d="m392.26 375.64v-189.1" clip-path="url(#b)" fill="none" stroke="#b0b0b0" stroke-linecap="square" stroke-width=".8"/>
<use x="392.26447" y="375.64" stroke="#000000" stroke-width=".8" xlink:href="#c"/>
<g transform="translate(389.08 390.24) scale(.1 -.1)">
<use xlink:href="#l"/>
</g>
<path d="m480.18 375.64v-189.1" clip-path="url(#b)" fill="none" stroke="#b0b0b0" stroke-linecap="square" stroke-width=".8"/>
<use x="480.179806" y="375.64" stroke="#000000" stroke-width=".8" xlink:href="#c"/>
<g transform="translate(477 390.24) scale(.1 -.1)">
<use xlink:href="#s"/>
</g>
<defs>
<path id="ad" d="m34.188 63.188-13.391-36.281h26.812zm-5.5781 9.7188h11.188l27.781-72.906h-10.25l-6.6406 18.703h-32.859l-6.6406-18.703h-10.406z"/>
<path id="al" d="m45.406 27.984q0 9.7656-4.0312 15.125-4.0156 5.375-11.297 5.375-7.2188 0-11.25-5.375-4.0312-5.3594-4.0312-15.125 0-9.7188 4.0312-15.094t11.25-5.375q7.2812 0 11.297 5.375 4.0312 5.375 4.0312 15.094zm8.9844-21.203q0-13.953-6.2031-20.766-6.1875-6.8125-18.984-6.8125-4.7344 0-8.9375 0.70312t-8.1562 2.1719v8.7344q3.9531-2.1406 7.8125-3.1562 3.8594-1.0312 7.8594-1.0312 8.8438 0 13.234 4.6094t4.3906 13.938v4.4531q-2.7812-4.8438-7.125-7.2344t-10.406-2.3906q-10.047 0-16.203 7.6562-6.1562 7.6719-6.1562 20.328 0 12.688 6.1562 20.344 6.1562 7.6719 16.203 7.6719 6.0625 0 10.406-2.3906t7.125-7.2188v8.2969h8.9844z"/>
<path id="aj" d="m18.109 8.2031v-29h-9.0312v75.484h9.0312v-8.2969q2.8438 4.875 7.1562 7.2344 4.3281 2.375 10.328 2.375 9.9688 0 16.188-7.9062 6.2344-7.9062 6.2344-20.797t-6.2344-20.812q-6.2188-7.9062-16.188-7.9062-6 0-10.328 2.375-4.3125 2.375-7.1562 7.25zm30.578 19.094q0 9.9062-4.0781 15.547t-11.203 5.6406q-7.1406 0-11.219-5.6406t-4.0781-15.547 4.0781-15.547 11.219-5.6406q7.125 0 11.203 5.6406t4.0781 15.547z"/>
<path id="ah" d="m4.2031 54.688h8.9844l11.234-42.672 11.172 42.672h10.594l11.234-42.672 11.188 42.672h8.9844l-14.312-54.688h-10.594l-11.766 44.828-11.812-44.828h-10.609z"/>
<path id="aw" d="m4.8906 31.391h26.312v-8h-26.312z"/>
<path id="ak" d="m54.891 33.016v-33.016h-8.9844v32.719q0 7.7656-3.0312 11.609-3.0312 3.8594-9.0781 3.8594-7.2812 0-11.484-4.6406-4.2031-4.625-4.2031-12.641v-30.906h-9.0312v54.688h9.0312v-8.5q3.2344 4.9375 7.5938 7.375 4.375 2.4375 10.094 2.4375 9.4219 0 14.25-5.8281 4.8438-5.8281 4.8438-17.156z"/>
</defs>
<g transform="translate(209.62 403.92) scale(.1 -.1)">
<use xlink:href="#ad"/>
<use x="68.408203" xlink:href="#al"/>
<use x="131.884766" xlink:href="#e"/>
<use x="193.408203" xlink:href="#DejaVuSans-20"/>
<use x="225.195312" xlink:href="#v"/>
<use x="264.208984" xlink:href="#aj"/>
<use x="327.685547" xlink:href="#m"/>
<use x="388.867188" xlink:href="#ah"/>
<use x="470.654297" xlink:href="#e"/>
<use x="532.177734" xlink:href="#i"/>
<use x="573.197266" xlink:href="#aw"/>
<use x="609.296875" xlink:href="#m"/>
<use x="670.478516" xlink:href="#ak"/>
<use x="733.857422" xlink:href="#DejaVuSans-20"/>
<use x="765.644531" xlink:href="#p"/>
<use x="824.824219" xlink:href="#e"/>
<use x="886.347656" xlink:href="#k"/>
<use x="947.626953" xlink:href="#i"/>
<use x="988.740234" xlink:href="#j"/>
<use x="1040.839844" xlink:href="#u"/>
</g>
<path d="m40.603 375.64h446.02" clip-path="url(#b)" fill="none" stroke="#b0b0b0" stroke-linecap="square" stroke-width=".8"/>
<use x="40.603125" y="375.64" stroke="#000000" stroke-width=".8" xlink:href="#d"/>
<g transform="translate(27.241 379.44) scale(.1 -.1)">
<use xlink:href="#f"/>
</g>
<path d="m40.603 328.36h446.02" clip-path="url(#b)" fill="none" stroke="#b0b0b0" stroke-linecap="square" stroke-width=".8"/>
<use x="40.603125" y="328.364202" stroke="#000000" stroke-width=".8" xlink:href="#d"/>
<g transform="translate(27.241 332.16) scale(.1 -.1)">
<use xlink:href="#l"/>
</g>
<path d="m40.603 281.09h446.02" clip-path="url(#b)" fill="none" stroke="#b0b0b0" stroke-linecap="square" stroke-width=".8"/>
<use x="40.603125" y="281.088405" stroke="#000000" stroke-width=".8" xlink:href="#d"/>
<defs>
<path id="av" d="m31.781 34.625q-7.0312 0-11.062-3.7656-4.0156-3.7656-4.0156-10.344 0-6.5938 4.0156-10.359 4.0312-3.7656 11.062-3.7656t11.078 3.7812q4.0625 3.7969 4.0625 10.344 0 6.5781-4.0312 10.344-4.0156 3.7656-11.109 3.7656zm-9.8594 4.1875q-6.3438 1.5625-9.8906 5.9062-3.5312 4.3594-3.5312 10.609 0 8.7344 6.2188 13.812 6.2344 5.0781 17.062 5.0781 10.891 0 17.094-5.0781t6.2031-13.812q0-6.25-3.5469-10.609-3.5312-4.3438-9.8281-5.9062 7.125-1.6562 11.094-6.5 3.9844-4.8281 3.9844-11.797 0-10.609-6.4688-16.281-6.4688-5.6562-18.531-5.6562-12.047 0-18.531 5.6562-6.4688 5.6719-6.4688 16.281 0 6.9688 4 11.797 4.0156 4.8438 11.141 6.5zm-3.6094 15.578q0-5.6562 3.5312-8.8281 3.5469-3.1719 9.9375-3.1719 6.3594 0 9.9375 3.1719 3.5938 3.1719 3.5938 8.8281 0 5.6719-3.5938 8.8438-3.5781 3.1719-9.9375 3.1719-6.3906 0-9.9375-3.1719-3.5312-3.1719-3.5312-8.8438z"/>
</defs>
<g transform="translate(27.241 284.89) scale(.1 -.1)">
<use xlink:href="#av"/>
</g>
<path d="m40.603 233.81h446.02" clip-path="url(#b)" fill="none" stroke="#b0b0b0" stroke-linecap="square" stroke-width=".8"/>
<use x="40.603125" y="233.812607" stroke="#000000" stroke-width=".8" xlink:href="#d"/>
<g transform="translate(20.878 237.61) scale(.1 -.1)">
<use xlink:href="#g"/>
<use x="63.623047" xlink:href="#t"/>
</g>
<path d="m40.603 186.54h446.02" clip-path="url(#b)" fill="none" stroke="#b0b0b0" stroke-linecap="square" stroke-width=".8"/>
<use x="40.603125" y="186.536809" stroke="#000000" stroke-width=".8" xlink:href="#d"/>
<g transform="translate(20.878 190.34) scale(.1 -.1)">
<use xlink:href="#g"/>
<use x="63.623047" xlink:href="#r"/>
</g>
<defs>
<path id="ar" d="m9.8125 72.906h41.891v-8.3125h-32.031v-21.484h28.906v-8.2969h-28.906v-34.812h-9.8594z"/>
<path id="ao" d="m44.391 34.188q3.1719-1.0781 6.1719-4.5938t6.0312-9.6719l10.016-19.922h-10.609l-9.3125 18.703q-3.625 7.3281-7.0156 9.7188t-9.25 2.3906h-10.75v-30.812h-9.8594v72.906h22.266q12.5 0 18.656-5.2344 6.1562-5.2188 6.1562-15.766 0-6.8906-3.2031-11.438-3.2031-4.5312-9.2969-6.2812zm-24.719 30.609v-25.875h12.406q7.125 0 10.766 3.2969t3.6406 9.6875-3.6406 9.6406-10.766 3.25z"/>
<path id="ax" d="m72.703 32.078q-4.25 0-6.6719-3.6094-2.4062-3.6094-2.4062-10.062 0-6.3438 2.4062-9.9844 2.4219-3.6406 6.6719-3.6406 4.1562 0 6.5625 3.6406 2.4219 3.6406 2.4219 9.9844 0 6.4062-2.4219 10.031-2.4062 3.6406-6.5625 3.6406zm0 6.2031q7.7188 0 12.25-5.375 4.5469-5.3594 4.5469-14.5 0-9.125-4.5625-14.484-4.5625-5.3438-12.234-5.3438-7.8125 0-12.359 5.3438-4.5312 5.3594-4.5312 14.484 0 9.1875 4.5625 14.531t12.328 5.3438zm-50.391 29.734q-4.2031 0-6.625-3.6406-2.4062-3.625-2.4062-9.9844 0-6.4375 2.3906-10.062 2.3906-3.6094 6.6406-3.6094t6.6562 3.6094q2.4219 3.625 2.4219 10.062 0 6.2969-2.4375 9.9531-2.4375 3.6719-6.6406 3.6719zm44.094 6.2031h7.8125l-45.609-75.641h-7.8125zm-44.094 0q7.7188 0 12.297-5.3438 4.5938-5.3438 4.5938-14.484 0-9.2188-4.5625-14.547t-12.328-5.3281-12.281 5.3438q-4.5156 5.3594-4.5156 14.531 0 9.0938 4.5312 14.453 4.5469 5.375 12.266 5.375z"/>
</defs>
<g transform="translate(14.798 334.34) rotate(-90) scale(.1 -.1)">
<use xlink:href="#ar"/>
<use x="57.378906" xlink:href="#k"/>
<use x="118.658203" xlink:href="#n"/>
<use x="146.441406" xlink:href="#q"/>
<use x="174.224609" xlink:href="#w"/>
<use x="237.603516" xlink:href="#i"/>
<use x="278.685547" xlink:href="#e"/>
<use x="340.208984" xlink:href="#DejaVuSans-20"/>
<use x="371.996094" xlink:href="#ao"/>
<use x="441.447266" xlink:href="#k"/>
<use x="502.726562" xlink:href="#x"/>
<use x="541.935547" xlink:href="#e"/>
<use x="603.458984" xlink:href="#DejaVuSans-20"/>
<use x="635.246094" xlink:href="#v"/>
<use x="674.259766" xlink:href="#ax"/>
<use x="769.279297" xlink:href="#af"/>
<use x="802.970703" xlink:href="#p"/>
<use x="862.150391" xlink:href="#e"/>
<use x="923.673828" xlink:href="#k"/>
<use x="984.953125" xlink:href="#i"/>
<use x="1026.066406" xlink:href="#u"/>
</g>
<path d="m44.514 349.32 0.42899 2.8537 1.0725 5.2949 0.85798 2.3083 0.64349 1.7753 0.64349 1.3893 0.85798 2.491 1.5015 4.9166 0.2145 0.13652 0.64349-0.11505 1.287-0.55675 0.42899-0.28604 0.42899-0.66081 1.0725-2.2686 0.85798-1.2829 0.64349-0.59275 1.287-0.98735 0.85798-1.3519 0.42899-0.69606 0.85798-1.9378 2.574-7.1298 0.42899-0.64143 0.64349-0.40204 0.42899-0.1838 0.2145 0.051999 0.42899 0.47194 0.42899 0.95185 2.145 6.8198 0.64349 1.9945 0.85798 1.5695 1.0725 0.10272 0.64349-0.079056 0.42899-0.58615 1.716-2.6264 0.42899-0.20762 0.42899 0.077106 0.42899 0.35534 0.64349 0.99477 0.64349 1.4083 1.5015 3.6065 0.85798 1.7158 0.64349 0.58232 0.2145 0.11224 0.2145-0.13781 0.42899-0.74427 0.85798-1.9251 0.64349-1.0019 0.64349-0.6163 0.64349-0.28888 0.64349-0.033717 1.0725 0.20179 0.42899 0.31471 0.64349 0.81916 1.716 2.7781 0.64349 0.9965 1.0725 0.9398 0.64349 0.55892 0.42899 0.10177 3.8609-2.6609 0.64349-0.012826 0.64349 0.22092 0.64349 0.46734 0.85798 0.70522 1.287-3.1256 0.42899-1.8606 1.0725-5.7915 1.9305-8.4367 0.42899-0.88146 0.2145-0.20424 0.2145-0.046014 0.2145 0.11263 0.42899 0.70291 0.42899 1.3427 0.64349 3.2212 0.85798 5.3034 1.0725 5.3505 0.64349 2.8293 1.716 5.2326 0.64349 0.3818 0.42899 0.039664 1.5015-0.26997 4.0754-0.93209 1.287 0.035034 2.145 0.21012 1.0725-1.1679 1.5015-1.8525 1.0725-2.6052 0.64349-2.0522 0.64349-1.4407 0.64349-0.82715 0.42899-0.20944 0.42899 0.064904 0.42899 0.33989 0.42899 0.61553 1.9305 3.8659 1.9305 4.6528 0.42899 0.54978 2.574 0.017072 1.5015 0.31994 4.9334 1.3497 1.9305 0.022818 1.5015-0.051356 0.42899-0.27061 1.0725-1.2014 2.145-2.3948 0.85798-0.66147 0.85798-0.37383 0.64349-0.061786 0.42899 0.012994 0.42899-0.40462 0.64349-0.91678 2.574-2.2768 0.64349-0.071597 0.64349 0.19447 0.64349 0.4944 0.64349 0.79585 0.64349 0.82818 0.42899-0.1566 1.0725-0.94182 0.64349-0.99446 0.64349-0.56036 0.42899-0.14868 0.42899 0.01983 0.42899 0.17857 0.64349 0.59616 0.64349 0.99284 0.64349 1.3695 0.85798 2.3774 1.287 3.8472 0.42899 0.2657 9.8668-0.10072 2.574-0.41671 2.7885-0.40439 1.0725-0.10495 0.64349-0.98033 1.5015-2.7204 0.85798-0.96047 0.64349-0.4142 0.64349-0.14857 0.64349 0.11994 0.64349 0.39134 0.64349 0.66562 0.64349 0.9428 1.5015 2.4546 0.42899 0.10665 1.716-0.4565 0.85798-0.37201 0.64349-0.67378 0.85798-0.78615 0.64349-0.32669 0.64349-0.11041 0.64349 0.097686 0.85798 0.42428 1.0725 0.82809 1.287 1.2865 1.287 1.3562 0.42899 0.17321 7.0784-0.088404 1.0725-0.39771 1.287-0.75647 0.85798-1.5457 0.85798-1.0948 0.64349-0.52346 0.64349-0.26698 0.64349-0.009282 0.64349 0.24963 0.64349 0.50976 1.0725 1.1699 1.716 2.2659 0.2145 0.29998 4.5044-0.092574 0.42899-0.37765 1.0725-1.463 1.9305-2.8139 0.85798-0.88924 0.85798-0.57483 0.85798-0.28225 0.64349 0.02674 0.42899 0.18355 0.64349 0.607 0.64349 0.51189 1.716 0.78379 1.0725 0.47939 1.287 0.85983 1.5015 1.021 1.0725 0.41128 2.145 0.55059 0.64349 0.012717 0.64349-0.23005 0.85798-0.58854 1.5015-2.8483 1.0725-1.6302 0.85798-0.86255 0.64349-0.33764 0.64349-0.051837 0.64349 0.1333 0.42899-0.15026 0.64349 0.10661 0.64349 0.3666 1.0725 0.84192 1.9305 0.045008 0.64349-0.050513 0.64349 0.18827 0.64349 0.42197 0.85798 0.90578 0.42899 0.46609 1.0725 0.31629 0.85798 0.24716 1.287-0.35276 1.5015-0.051125 0.85798-0.12547 0.85798 0.093264 0.85798 0.31909 0.85798 0.62614 0.85798 0.9402 0.85798 1.0417 0.85798 0.34928 2.7885 0.90957 1.287 0.17782 6.0059 0.003327 2.3595-0.095902 6.8639-0.50191 1.287-0.10531 1.5015-0.35831 2.3595-0.79443 3.0029-1.263 0.85798 0.052963 1.0725 0.31584 1.287 0.66446 2.7885 1.6595 0.85798 0.15754 3.4319-0.041592 0.2145-0.084915 0.42899-0.62233 0.64349-1.436 1.0725-2.3607 1.0725-1.8152 0.85798-1.0076 0.64349-0.45295 0.42899-0.12992 0.42899 0.037435 0.42899 0.20404 0.42899 0.45134 0.42899 0.73574 0.64349 1.6906 0.64349 1.9259 0.42899 0.67593 0.64349 0.47563 1.5015 1.1591 1.9305 1.4993 0.85798 0.36855 0.85798 0.045525h149.07v0" clip-path="url(#b)" fill="none" stroke="#d2691e" stroke-linecap="square" stroke-width="1.5"/>
<path d="m40.603 375.64v-189.1" fill="none" stroke="#000" stroke-linecap="square" stroke-width=".8"/>
<path d="m486.62 375.64v-189.1" fill="none" stroke="#000" stroke-linecap="square" stroke-width=".8"/>
<path d="m40.603 375.64h446.02" fill="none" stroke="#000" stroke-linecap="square" stroke-width=".8"/>
<path d="m40.603 186.54h446.02" fill="none" stroke="#000" stroke-linecap="square" stroke-width=".8"/>
<defs>
<path id="ab" d="m9.8125 72.906h14.703l18.594-49.609 18.703 49.609h14.703v-72.906h-9.625v64.016l-18.797-50h-9.9062l-18.797 50v-64.016h-9.5781z"/>
<path id="au" d="m11.719 12.406h10.297v-12.406h-10.297zm0 39.297h10.297v-12.391h-10.297z"/>
<path id="ac" d="m9.8125 72.906h9.8594v-29.891h35.844v29.891h9.8594v-72.906h-9.8594v34.719h-35.844v-34.719h-9.8594z"/>
<path id="aq" d="m59.516 10.406v19.578h-16.109v8.1094h25.875v-31.312q-5.7031-4.0469-12.594-6.125-6.875-2.0781-14.688-2.0781-17.094 0-26.75 9.9844-9.6406 10-9.6406 27.812 0 17.875 9.6406 27.859 9.6562 9.9844 26.75 9.9844 7.125 0 13.547-1.7656 6.4219-1.75 11.844-5.1719v-10.5q-5.4688 4.6406-11.625 6.9844t-12.938 2.3438q-13.391 0-20.109-7.4688-6.7031-7.4688-6.7031-22.266 0-14.75 6.7031-22.219 6.7188-7.4688 20.109-7.4688 5.2188 0 9.3125 0.90625 4.1094 0.90625 7.375 2.8125z"/>
<path id="aa" d="m53.516 70.516v-9.625q-5.6094 2.6875-10.594 4-4.9844 1.3281-9.625 1.3281-8.0469 0-12.422-3.125t-4.375-8.8906q0-4.8438 2.9062-7.3125 2.9062-2.4531 11.016-3.9688l5.9531-1.2188q11.031-2.1094 16.281-7.4062t5.25-14.172q0-10.609-7.1094-16.078-7.0938-5.4688-20.812-5.4688-5.1719 0-11.016 1.1719-5.8281 1.1719-12.078 3.4688v10.156q6-3.3594 11.766-5.0781 5.7656-1.7031 11.328-1.7031 8.4375 0 13.031 3.3125 4.5938 3.3281 4.5938 9.4844 0 5.3594-3.2969 8.3906t-10.812 4.5469l-6.0156 1.1719q-11.031 2.1875-15.969 6.875-4.9219 4.6875-4.9219 13.047 0 9.6719 6.8125 15.234t18.766 5.5625q5.1406 0 10.453-0.9375 5.3281-0.92188 10.891-2.7656z"/>
<path id="an" d="m-0.29688 72.906h61.672v-8.3125h-25.875v-64.594h-9.9062v64.594h-25.891z"/>
<path id="at" d="m64.406 67.281v-10.391q-4.9844 4.6406-10.625 6.9219-5.6406 2.2969-11.984 2.2969-12.5 0-19.141-7.6406t-6.6406-22.094q0-14.406 6.6406-22.047t19.141-7.6406q6.3438 0 11.984 2.2969t10.625 6.9375v-10.312q-5.1719-3.5156-10.969-5.2812-5.7812-1.75-12.219-1.75-16.562 0-26.094 10.125-9.5156 10.141-9.5156 27.672 0 17.578 9.5156 27.703 9.5312 10.141 26.094 10.141 6.5312 0 12.312-1.7344 5.7969-1.7344 10.875-5.2031z"/>
<path id="ap" d="m9.8125 72.906h9.8594v-64.609h35.5v-8.2969h-45.359z"/>
<path id="as" d="m9.8125 72.906h46.094v-8.3125h-36.234v-21.578h34.719v-8.2969h-34.719v-26.422h37.109v-8.2969h-46.969z"/>
</defs>
<g transform="translate(147.99 16.318) scale(.12 -.12)">
<use xlink:href="#ab"/>
<use x="86.279297" xlink:href="#m"/>
<use x="147.460938" xlink:href="#o"/>
<use x="210.9375" xlink:href="#e"/>
<use x="272.460938" xlink:href="#q"/>
<use x="300.244141" xlink:href="#au"/>
<use x="333.935547" xlink:href="#DejaVuSans-20"/>
<use x="365.722656" xlink:href="#ac"/>
<use x="440.917969" xlink:href="#aq"/>
<use x="518.408203" xlink:href="#aa"/>
<use x="581.884766" xlink:href="#an"/>
<use x="642.96875" xlink:href="#DejaVuSans-20"/>
<use x="674.755859" xlink:href="#ac"/>
<use x="749.951172" xlink:href="#ab"/>
<use x="836.230469" xlink:href="#aa"/>
<use x="899.707031" xlink:href="#s"/>
<use x="963.330078" xlink:href="#at"/>
<use x="1033.154297" xlink:href="#l"/>
<use x="1096.777344" xlink:href="#f"/>
<use x="1160.400391" xlink:href="#l"/>
<use x="1224.023438" xlink:href="#f"/>
<use x="1287.646484" xlink:href="#ad"/>
<use x="1356.054688" xlink:href="#ap"/>
<use x="1411.767578" xlink:href="#as"/>
<use x="1474.951172" xlink:href="#r"/>
<use x="1538.574219" xlink:href="#l"/>
<use x="1602.197266" xlink:href="#f"/>
</g>
<defs>
<clipPath id="h">
<rect x="40.603" y="28.8" width="446.02" height="141.83"/>
</clipPath>
<clipPath id="b">
<rect x="40.603" y="186.54" width="446.02" height="189.1"/>
</clipPath>
</defs>
</svg>
