<?xml version="1.0" encoding="UTF-8"?>
<!DOCTYPE svg  PUBLIC '-//W3C//DTD SVG 1.1//EN'  'http://www.w3.org/Graphics/SVG/1.1/DTD/svg11.dtd'>
<svg width="497pt" height="413pt" version="1.1" viewBox="0 0 497 413" xmlns="http://www.w3.org/2000/svg" xmlns:xlink="http://www.w3.org/1999/xlink">
<defs>
<style type="text/css">*{stroke-linecap:butt;stroke-linejoin:round;}</style>
</defs>
<path d="m0 413.2h497.32v-413.2h-497.32z" fill="#fff"/>
<path d="m40.603 170.63h446.02v-141.83h-446.02z" fill="#fff"/>
<defs>
<path id="ae" d="m47.691-235.45v-84.997l0.21581-0.35878 0.21581-0.38708 0.21581-0.37271 0.21581-0.35949 0.21581-0.34731 0.21581-0.33584 0.21581-0.32502 0.21581-0.31487 0.21581-0.30385 0.21581-0.29351 0.21581-0.28532 0.21581-0.2673 0.21581-0.22466 0.21581-0.21982 0.21581-0.21518 0.21581-0.21074 0.21581-0.2049 0.21581-0.20088 0.21581-0.19702 0.21581-0.1933 0.21581-0.18972 0.21581-0.18626 0.21581-0.18291 0.21581-0.17969 0.21581-0.17658 0.21581-0.17357 0.21581-0.1706 0.21581-0.16776 0.21581-0.16208 0.21581-0.10501 0.21581-0.103 0.21581-0.10198 0.21581-0.099284 0.21581-0.094751 0.21581-0.09388 0.21581-0.093027 0.21581-0.09219 0.21581-0.091368 0.21581-0.090566 0.21581-0.089788 0.21581-0.088472 0.21581-0.087728 0.21581-0.086997 0.21581-0.086438 0.21581-0.085705 0.21581-0.084976 0.21581-0.084263 0.21581-0.083053 0.21581-0.061516 0.21581-0.058433 0.21581-0.057979 0.21581-0.056406 0.21581-0.040871 0.21581-0.040057 0.21581-0.039359 0.21581-0.038503 0.21581-0.037657 0.21581-0.019332 0.21581-0.019108 0.21581-0.018884 0.21581-0.018574 0.21581-0.018142 0.21581-0.017828 0.21581-0.017517 0.21581-2.1e-5 0.21581-1.6e-5 0.21581 4e-6 0.21581 7e-6 0.21581 1.2e-5 0.21581 1.4e-5 0.21581 1.9e-5 0.21581 2.2e-5 0.21581 2.6e-5 0.21581 2.9e-5 0.21581 3.8e-5 0.21581 4.8e-5 3.453 8.01e-4 0.21581 5.5e-5 0.21581 6.1e-5 0.43163 1.42e-4 1.2949 3.25e-4 0.21581 6.7e-5 0.21581 8e-5 0.21581 9.2e-5 0.21581 1.04e-4 0.43163 5.12e-4 0.21581 2.34e-4 3.2372 0.003273 1.0791 0.001006 1.2949 0.0011 0.21581 2.02e-4 0.86325 8.47e-4 0.43163 3.93e-4 0.43163 3.65e-4 0.21581 1.69e-4 0.64744 4.05e-4 0.86326 4.23e-4 0.21581 1.1e-4 0.86325 4.57e-4 1.9423 8.66e-4 0.21581 1.04e-4 0.21581 1.08e-4 0.21581 1.12e-4 0.21581 1.15e-4 0.21581 1.31e-4 0.21581 1.37e-4 2.1581 0.00139 3.453 0.002283 0.21581 1.15e-4 1.0791 4.76e-4 0.21581 1.01e-4 0.21581 1.05e-4 0.21581 1.09e-4 0.21581 1.21e-4 0.21581 1.47e-4 0.21581 1.53e-4 0.21581 1.6e-4 1.5107 0.001252 2.3739 0.001759 0.86326 5.47e-4 2.5898 0.00119 3.0214 0.001142 0.21581 9.1e-5 5.6112 0.002399 0.21581 9.4e-5 0.43163 2.25e-4 0.43163 2.29e-4 0.21581 1.16e-4 0.43163 2.36e-4 0.21581 1.21e-4 0.21581 1.23e-4 0.21581 1.27e-4 0.21581 1.29e-4 0.21581 1.31e-4 0.21581 1.35e-4 0.21581 1.37e-4 0.21581 1.4e-4 0.21581 1.44e-4 0.21581 1.48e-4 0.21581 1.53e-4 0.21581 1.57e-4 0.21581 1.62e-4 0.21581 1.66e-4 0.21581 1.7e-4 0.21581 1.73e-4 0.21581 1.76e-4 0.21581 1.81e-4 0.21581 1.85e-4 0.21581 1.9e-4 0.21581 1.93e-4 0.21581 1.96e-4 0.21581 1.98e-4 1.0791 0.001009 2.1581 0.001872 0.43163 3.77e-4 0.21581 2.04e-4 0.21581 2.09e-4 0.21581 2.14e-4 0.21581 2.18e-4 0.43163 4.73e-4 0.21581 2.38e-4 1.9423 0.002162 3.2372 0.003141 0.86325 7.58e-4 1.0791 8.48e-4 1.7265 0.001176 0.21581 1.59e-4 0.21581 1.72e-4 0.86326 7.15e-4 0.86325 7.21e-4 0.64744 5.46e-4 0.21581 1.86e-4 0.21581 1.99e-4 0.86325 7.06e-4 4.9637 0.003372 1.0791 6.59e-4 0.43163 2.66e-4 2.8055 0.001764 0.21581 1.23e-4 0.21581 1.1e-4 2.8056 0.001121 0.21581 6.7e-5 0.21581 7e-5 13.596 0.004152 0.86325 2.03e-4 0.21581 5.2e-5 0.21581 5.6e-5 0.21581 6e-5 0.21581 6.4e-5 0.21581 7.6e-5 0.21581 8.1e-5 0.21581 8.6e-5 0.21581 9e-5 0.21581 9.4e-5 0.21581 9.8e-5 0.21581 1.01e-4 0.21581 1.06e-4 0.43163 2.16e-4 0.64744 3.3e-4 0.64744 3.37e-4 0.43163 2.28e-4 0.64744 3.48e-4 0.21581 1.22e-4 0.21581 1.26e-4 0.21581 1.3e-4 0.21581 1.32e-4 0.43163 2.69e-4 0.43163 2.77e-4 0.21581 1.42e-4 0.21581 1.47e-4 0.21581 1.52e-4 0.21581 1.54e-4 0.21581 1.57e-4 0.21581 1.59e-4 0.21581 1.62e-4 0.21581 1.68e-4 0.21581 1.76e-4 0.21581 1.83e-4 0.21581 1.9e-4 0.21581 1.96e-4 0.21581 1.99e-4 0.21581 2.01e-4 0.21581 2.05e-4 0.21581 2.08e-4 0.21581 2.12e-4 0.21581 2.17e-4 0.21581 2.2e-4 0.21581 2.24e-4 0.21581 2.29e-4 0.21581 2.33e-4 0.21581 2.4e-4 0.21581 2.51e-4 0.21581 2.57e-4 0.21581 2.62e-4 0.21581 2.67e-4 0.21581 2.7e-4 0.21581 2.74e-4 0.86325 0.00111 2.8056 0.003432 0.21581 2.68e-4 2.1581 0.00269 1.5107 0.001745 1.5107 0.00158 0.64744 6.12e-4 1.2949 0.001121 1.0791 8.36e-4 0.21581 1.53e-4 1.0791 6.56e-4 0.86325 4.57e-4 0.21581 1.01e-4 0.43163 1.71e-4 0.43163 1.31e-4 0.21581 5.1e-5 0.21581 3.6e-5 0.21581 2.2e-5 0.21581 8e-6 0.21581-4e-6 1.9423-3e-4 0.21581-3.2e-5 0.21581-2.9e-5 0.21581-2.4e-5 0.21581-2.1e-5 0.21581-1.8e-5 0.21581-1.5e-5 0.21581-1.1e-5 0.21581-7e-6 0.21581 1e-6 0.21581 2e-5 0.21581 2.3e-5 0.43163 5.1e-5 3.453 4.69e-4 0.21581 3.1e-5 0.43163 7.1e-5 0.21581 3.9e-5 0.21581 4.1e-5 0.21581 4.8e-5 0.43163 1.13e-4 0.43163 1.21e-4 0.21581 6.3e-5 0.43163 1.31e-4 0.43163 1.36e-4 0.21581 7.1e-5 0.21581 7.9e-5 0.21581 8.6e-5 0.21581 9.4e-5 0.21581 1e-4 0.21581 1.09e-4 0.21581 1.2e-4 0.21581 1.33e-4 0.21581 1.45e-4 0.21581 1.55e-4 2.3739 0.001889 1.0791 7.59e-4 0.43163 2.73e-4 1.2949 6.59e-4 0.21581 1.13e-4 0.21581 1.16e-4 0.21581 1.21e-4 0.21581 1.24e-4 0.21581 1.3e-4 0.21581 1.42e-4 0.21581 1.67e-4 0.21581 1.81e-4 2.1581 0.001848 4.7479 0.003404 1.0791 7.81e-4 1.0791 7.92e-4 0.21581 1.61e-4 0.21581 1.64e-4 0.21581 1.66e-4 0.21581 1.69e-4 0.43163 3.43e-4 0.43163 3.48e-4 1.0791 8.84e-4 0.21581 1.82e-4 0.64744 5.54e-4 0.43163 3.74e-4 0.21581 1.89e-4 1.5107 0.001194 10.575 0.008221 0.86325 5.43e-4 0.21581 1.2e-4 0.21581 1.08e-4 3.0214 0.001081 0.43163 1.59e-4 0.43163 1.63e-4 0.43163 1.68e-4 0.43163 1.73e-4 0.43163 1.77e-4 0.21581 1.16e-4 0.21581 1.27e-4 0.21581 1.33e-4 0.21581 1.41e-4 0.21581 1.51e-4 0.43163 3.09e-4 0.21581 1.57e-4 0.43163 3.19e-4 2.8056 0.002095 0.43163 3.37e-4 0.43163 3.43e-4 0.21581 1.74e-4 0.21581 1.76e-4 0.86325 7.14e-4 0.64744 5.42e-4 0.43163 3.65e-4 0.64744 5.52e-4 0.21581 2.44e-4 0.21581 3.18e-4 0.21581 0.002929 0.21581 0.004091 0.21581 0.004833 0.21581 0.013409 0.21581 0.014995 0.21581 0.020048 0.21581 0.020091 0.21581 0.020133 0.21581 0.020176 0.21581 0.020214 0.21581 0.020254 0.21581 0.020293 0.21581 0.020332 0.21581 0.02037 0.21581 0.02041 0.21581 0.020449 0.21581 0.020489 0.21581 0.020528 0.21581 0.020568 0.21581 0.020609 0.21581 0.02062 0.21581 0.020652 0.21581 0.020687 0.21581 0.02072 0.21581 0.020751 0.21581 0.020791 0.21581 0.020831 0.21581 0.020871 0.21581 0.020911 0.21581 0.020953 0.21581 0.020992 0.21581 0.021051 0.21581 0.021096 0.21581 0.021141 0.21581 0.021184 0.21581 0.021229 0.21581 0.021273 0.21581 0.021318 0.21581 0.021363 0.21581 0.021408 0.21581 0.021453 0.21581 0.021497 0.21581 0.02154 0.21581 0.021567 0.21581 0.021611 0.21581 0.021654 0.21581 0.021698 0.21581 0.021741 0.21581 0.021786 0.21581 0.02183 0.21581 0.021876 0.21581 0.021921 0.21581 0.021967 0.21581 0.022013 0.21581 0.02206 0.21581 0.022106 0.21581 0.022153 0.21581 0.0222 0.21581 0.022247 0.21581 0.022295 0.21581 0.022342 0.21581 0.022324 0.21581 0.022287 0.21581 0.019376 0.21581 0.018094 0.21581 0.017284 0.21581 0.007564 0.21581 0.00579 1.2949 5.15e-4 0.43163 1.75e-4 0.21581 9e-5 0.21581 9.3e-5 0.21581 9.5e-5 0.21581 9.8e-5 0.21581 1.01e-4 0.21581 1.03e-4 0.43163 2.13e-4 0.43163 2.21e-4 0.21581 1.13e-4 0.43163 2.31e-4 0.21581 1.19e-4 0.21581 1.22e-4 0.21581 1.25e-4 0.21581 1.27e-4 0.21581 1.29e-4 0.43163 2.33e-4 0.21581 1.2e-4 0.21581 1.22e-4 0.43163 2.49e-4 0.43163 2.54e-4 0.43163 2.59e-4 0.21581 1.33e-4 0.21581 1.4e-4 0.21581 1.46e-4 0.21581 1.74e-4 0.21581 1.91e-4 0.21581 2.06e-4 0.21581 2.09e-4 0.21581 2.14e-4 0.21581 2.16e-4 1.0791 0.001103 1.0791 0.001112 3.6688 0.003778 1.9423 0.001802 1.7265 0.00145 2.3739 0.001823 0.43163 2.96e-4 0.21581 1.18e-4 0.21581 1.02e-4 1.2949 4.81e-4 0.21581 8.6e-5 0.21581 9.1e-5 0.21581 9.4e-5 0.43163 1.93e-4 0.21581 9.9e-5 0.43163 2.03e-4 0.64744 3.14e-4 0.86326 4.26e-4 0.64744 3.26e-4 0.43163 2.21e-4 0.21581 1.15e-4 0.21581 1.21e-4 0.21581 1.26e-4 0.21581 1.3e-4 0.21581 1.33e-4 0.21581 1.36e-4 0.21581 1.38e-4 0.21581 1.41e-4 0.21581 1.63e-4 0.21581 2.62e-4 0.21581 3.62e-4 0.21581 0.005799 0.21581 0.01259 0.21581 0.021173 0.21581 0.021606 0.21581 0.021651 0.21581 0.021697 0.21581 0.021742 0.21581 0.021789 0.21581 0.021834 0.21581 0.021881 0.21581 0.021927 0.21581 0.021974 0.21581 0.022017 0.21581 0.022059 0.21581 0.022101 0.21581 0.022146 0.21581 0.022192 0.21581 0.02224 0.21581 0.022288 0.21581 0.022335 0.21581 0.022383 0.21581 0.022432 0.21581 0.022479 0.21581 0.022529 0.21581 0.022577 0.21581 0.022626 0.21581 0.022676 0.21581 0.022725 0.21581 0.022774 0.21581 0.022825 0.21581 0.022875 0.21581 0.022921 0.21581 0.022964 0.21581 0.023009 0.21581 0.023058 0.21581 0.023107 0.21581 0.023157 0.21581 0.023207 0.21581 0.023257 0.21581 0.023307 0.21581 0.023358 0.21581 0.02341 0.21581 0.023464 0.21581 0.023517 0.21581 0.023571 0.21581 0.023625 0.21581 0.023679 0.21581 0.023733 0.21581 0.023788 0.21581 0.023843 0.21581 0.023899 0.21581 0.023953 0.21581 0.024007 0.21581 0.024056 0.21581 0.024107 0.21581 0.02416 0.21581 0.024236 0.21581 0.024293 0.21581 0.024353 0.21581 0.02441 0.21581 0.024448 0.21581 0.024415 0.21581 0.024363 0.21581 0.018166 0.21581 0.010394 0.21581 5.7e-4 0.21581 1.26e-4 0.21581 1.29e-4 0.21581 1.32e-4 0.21581 1.35e-4 0.21581 1.38e-4 0.21581 1.4e-4 0.21581 1.43e-4 0.21581 1.46e-4 0.21581 1.49e-4 0.21581 1.51e-4 0.21581 1.53e-4 0.21581 1.56e-4 0.43163 3.19e-4 0.43163 3.29e-4 0.21581 1.69e-4 0.21581 1.71e-4 0.21581 1.74e-4 0.21581 1.77e-4 0.21581 1.79e-4 0.21581 1.82e-4 0.21581 1.84e-4 0.21581 1.86e-4 0.21581 1.88e-4 0.21581 1.9e-4 0.21581 1.92e-4 0.43163 3.89e-4 0.43163 3.97e-4 0.43163 4.05e-4 0.21581 2.05e-4 0.21581 2.07e-4 0.21581 2.09e-4 0.21581 2.11e-4 0.21581 2.13e-4 0.86325 8.63e-4 1.0791 0.001088 0.86325 8.78e-4 0.21581 2.27e-4 0.21581 2.43e-4 0.21581 4.11e-4 0.21581 5.97e-4 0.21581 7.82e-4 0.21581 9.69e-4 0.21581 0.001443 0.21581 0.003482 0.21581 0.016785 0.21581 0.019495 0.21581 0.025982 0.21581 0.026051 0.21581 0.02612 0.21581 0.02619 0.21581 0.026256 0.21581 0.026325 0.21581 0.026392 0.21581 0.02646 0.21581 0.026529 0.21581 0.026598 0.21581 0.026675 0.21581 0.026752 0.21581 0.02683 0.21581 0.026908 0.21581 0.026979 0.21581 0.02705 0.21581 0.027121 0.21581 0.027193 0.21581 0.027264 0.21581 0.027337 0.21581 0.02741 0.21581 0.027482 0.21581 0.027557 0.21581 0.02763 0.21581 0.027705 0.21581 0.02778 0.21581 0.027857 0.21581 0.027933 0.21581 0.02801 0.21581 0.028087 0.21581 0.028164 0.21581 0.028241 0.21581 0.02832 0.21581 0.028398 0.21581 0.028477 0.21581 0.028556 0.21581 0.028636 0.21581 0.028716 0.21581 0.028797 0.21581 0.028877 0.21581 0.02896 0.21581 0.029041 0.21581 0.029125 0.21581 0.029208 0.21581 0.029292 0.21581 0.029648 0.21581 0.029735 0.21581 0.029822 0.21581 0.029909 0.21581 0.029997 0.21581 0.030086 0.21581 0.030174 0.21581 0.030264 0.21581 0.030346 0.21581 0.030418 0.21581 0.030313 0.21581 0.03018 0.21581 0.030046 0.21581 0.02991 0.21581 0.029432 0.21581 0.027069 0.21581 0.011344 0.21581 0.008175 0.64744 0.00164 1.2949 0.003167 0.43163 0.001024 0.21581 4.97e-4 0.21581 4.86e-4 3.0214 0.00651 0.21581 4.7e-4 0.21581 4.72e-4 0.21581 4.74e-4 0.21581 4.76e-4 0.21581 4.78e-4 0.21581 4.8e-4 0.21581 4.86e-4 0.21581 4.91e-4 0.21581 4.95e-4 0.21581 5.47e-4 0.21581 6.03e-4 0.21581 6.6e-4 0.21581 7.16e-4 0.21581 7.73e-4 0.21581 8.3e-4 0.21581 8.86e-4 0.21581 9.43e-4 0.21581 1e-3 0.21581 7.71e-4 0.21581 8.29e-4 0.21581 8.85e-4 0.21581 9.42e-4 0.21581 1e-3 0.21581 0.001056 0.21581 0.017646 0.21581 0.018845 0.21581 0.029687 0.21581 0.029772 0.21581 0.029832 0.21581 0.02992 0.21581 0.030008 0.21581 0.030095 0.21581 0.030185 0.21581 0.030273 0.21581 0.030363 0.21581 0.030454 0.21581 0.030544 0.21581 0.030635 0.21581 0.030728 0.21581 0.03082 0.21581 0.030912 0.21581 0.031007 0.21581 0.031238 0.21581 0.031576 0.21581 0.031916 0.21581 0.032259 0.21581 0.032769 0.21581 0.033253 0.21581 0.03336 0.21581 0.033468 0.21581 0.033577 0.21581 0.033687 0.21581 0.033797 0.21581 0.033908 0.21581 0.034019 0.21581 0.034133 0.21581 0.034245 0.21581 0.034359 0.21581 0.034475 0.21581 0.034589 0.21581 0.034704 0.21581 0.034814 0.21581 0.034925 0.21581 0.035036 0.21581 0.035151 0.21581 0.035268 0.21581 0.035384 0.21581 0.035503 0.21581 0.035621 0.21581 0.035738 0.21581 0.035859 0.21581 0.035979 0.21581 0.036047 0.21581 0.036109 0.21581 0.03617 0.21581 0.036233 0.21581 0.036291 0.21581 0.036351 0.21581 0.036409 0.21581 0.036469 0.21581 0.036527 0.21581 0.036587 0.21581 0.036647 0.21581 0.036706 0.21581 0.036767 0.21581 0.036826 0.21581 0.036886 0.21581 0.016641 0.21581 0.015232 3.453 0.032348 0.21581 0.001854 0.21581 0.001571 0.21581 0.001288 0.21581 0.001006 0.21581 5.32e-4 0.21581 9.5e-5 0.21581 1.02e-4 0.21581 1.08e-4 0.21581 1.15e-4 0.21581 1.22e-4 0.43163 2.49e-4 0.43163 2.57e-4 0.21581 1.31e-4 0.21581 1.33e-4 0.43163 2.73e-4 0.21581 1.39e-4 0.21581 1.41e-4 0.21581 1.43e-4 0.43163 2.93e-4 0.43163 3.03e-4 2.3739 0.001692 0.43163 3.15e-4 0.43163 3.23e-4 0.21581 1.63e-4 0.21581 1.65e-4 0.43163 3.35e-4 0.21581 1.7e-4 0.43163 3.45e-4 0.43163 3.51e-4 0.21581 1.78e-4 0.21581 1.83e-4 0.21581 1.87e-4 0.21581 1.93e-4 0.21581 1.97e-4 0.21581 2.02e-4 0.21581 2.3e-4 0.21581 2.42e-4 0.21581 2.48e-4 0.21581 2.53e-4 0.21581 2.6e-4 0.21581 2.65e-4 0.21581 2.71e-4 0.21581 2.77e-4 0.21581 2.83e-4 0.21581 2.88e-4 0.21581 2.94e-4 0.21581 2.97e-4 2.1581 0.002921 2.1581 0.00272 3.2372 0.00379 0.21581 2.58e-4 2.374 0.003359 0.86325 0.001137 0.21581 2.5e-4 0.64744 6.97e-4 0.64744 6.47e-4 0.64744 5.97e-4 4.9637 0.003956 0.21581 1.83e-4 0.21581 1.95e-4 0.21581 2.12e-4 0.21581 2.29e-4 0.21581 2.46e-4 0.21581 2.63e-4 0.21581 2.78e-4 0.21581 0.001154 0.21581 0.001158 0.21581 0.001162 0.21581 0.001166 0.21581 0.002816 0.21581 0.020647 0.21581 0.027351 0.21581 0.038597 0.21581 0.038726 0.21581 0.038912 0.21581 0.0391 0.21581 0.03929 0.21581 0.039481 0.21581 0.039674 0.21581 0.039869 0.21581 0.040065 0.21581 0.040263 0.21581 0.040462 0.21581 0.040664 0.21581 0.040867 0.21581 0.041072 0.21581 0.041279 0.21581 0.041487 0.21581 0.041698 0.21581 0.04191 0.21581 0.042124 0.21581 0.042341 0.21581 0.042558 0.21581 0.042779 0.21581 0.043001 0.21581 0.043226 0.21581 0.043467 0.21581 0.043802 0.21581 0.044141 0.21581 0.044484 0.21581 0.044829 0.21581 0.045179 0.21581 0.045533 0.21581 0.046681 0.21581 0.048703 0.21581 0.049404 0.21581 0.065901 0.21581 0.075088 0.21581 0.089121 0.21581 0.09079 0.21581 0.091601 0.21581 0.092426 0.21581 0.093266 0.21581 0.094122 0.21581 0.094993 0.21581 0.095881 0.21581 0.096786 0.21581 0.097708 0.21581 0.098647 0.21581 0.099605 0.21581 0.10058 0.21581 0.10156 0.21581 0.10256 0.21581 0.10357 0.21581 0.1046 0.21581 0.10566 0.21581 0.10673 0.21581 0.10783 0.21581 0.10772 0.21581 0.10886 0.21581 0.11002 0.21581 0.1112 0.21581 0.10995 0.21581 0.084225 0.21581 0.074834 0.21581 0.058458 0.21581 0.058737 0.21581 0.059018 0.21581 0.059303 0.21581 0.05959 0.21581 0.05988 0.21581 0.060173 0.21581 0.06047 0.21581 0.06077 0.21581 0.061073 0.21581 0.061379 0.21581 0.06169 0.21581 0.062003 0.21581 0.06232 0.21581 0.06264 0.21581 0.062964 0.21581 0.063292 0.21581 0.063619 0.21581 0.06395 0.21581 0.064283 0.21581 0.06462 0.21581 0.064962 0.21581 0.065306 0.21581 0.065657 0.21581 0.065984 0.21581 0.066172 0.21581 0.066359 0.21581 0.066547 0.21581 0.066736 0.21581 0.066927 0.21581 0.067117 0.21581 0.066028 0.21581 0.063526 0.21581 0.063159 0.21581 0.037212 0.21581 0.023235 0.21581 0.001751 3.453 0.005338 1.9423 0.002806 0.21581 3e-4 0.43163 4.71e-4 0.21581 2.6e-4 0.21581 3.06e-4 0.21581 3.46e-4 0.21581 3.85e-4 0.21581 4.24e-4 0.21581 4.64e-4 0.21581 5.03e-4 0.21581 5.43e-4 0.21581 0.006666 0.21581 0.006947 0.21581 0.007429 0.21581 0.035589 0.21581 0.039795 0.21581 0.054548 0.21581 0.054849 0.21581 0.055156 0.21581 0.05547 0.21581 0.055776 0.21581 0.056086 0.21581 0.056397 0.21581 0.056713 0.21581 0.057033 0.21581 0.057355 0.21581 0.057681 0.21581 0.058012 0.21581 0.058345 0.21581 0.058683 0.21581 0.059155 0.21581 0.059677 0.21581 0.061599 0.21581 0.064321 0.21581 0.093049 0.21581 0.099101 0.21581 0.12311 0.21581 0.12475 0.21581 0.12639 0.21581 0.12798 0.21581 0.12961 0.21581 0.13128 0.21581 0.13299 0.21581 0.13474 0.21581 0.13654 0.21581 0.13839 0.21581 0.14029 0.21581 0.14224 0.21581 0.14425 0.21581 0.14631 0.21581 0.14843 0.21581 0.15062 0.21581 0.15287 0.21581 0.15518 0.21581 0.15757 0.21581 0.16003 0.21581 0.16258 0.21581 0.1652 0.21581 0.16791 0.21581 0.1707 0.21581 0.1736 0.21581 0.17659 0.21581 0.17969 0.21581 0.1829 0.21581 0.18622 0.21581 0.18967 0.21581 0.1932 0.21581 0.19682 0.21581 0.20059 0.21581 0.20451 0.21581 0.20858 0.21581 0.21282 0.21581 0.21724 0.21581 0.22185 0.21581 0.2137 0.21581 0.21764 0.21581 0.22129 0.21581 0.16269 0.21581 0.15603 0.21581 0.12499 0.21581 0.1265 0.21581 0.12805 0.21581 0.12964 0.21581 0.13128 0.21581 0.13298 0.21581 0.13472 0.21581 0.13651 0.21581 0.13834 0.21581 0.14022 0.21581 0.14216 0.21581 0.14415 0.21581 0.1462 0.21581 0.14831 0.21581 0.15014 0.21581 0.15192 0.21581 0.15012 0.21581 0.1462 0.21581 0.073931 0.21581 0.060922 0.21581 0.001772 0.21581 0.0014 0.21581 0.001131 0.21581 0.001109 0.21581 0.00109 0.21581 0.001069 0.21581 0.00105 0.21581 0.001028 0.21581 0.001014 0.21581 0.001001 0.21581 9.9e-4 0.21581 9.79e-4 0.21581 9.67e-4 0.21581 9.55e-4 0.21581 9.44e-4 0.43163 0.001856 0.43163 0.001817 0.43163 0.00178 0.43163 0.001743 0.43163 0.001705 0.43163 0.001667 0.43163 0.001629 0.43163 0.001592 2.3739 0.008548 0.21581 8.33e-4 0.21581 0.001421 0.21581 0.036553 0.21581 0.097902 0.21581 0.10232 0.21581 0.11595 0.21581 0.1198 0.21581 0.13885 0.21581 0.17067 0.21581 0.17355 0.21581 0.17654 0.21581 0.17963 0.21581 0.18283 0.21581 0.18614 0.21581 0.18958 0.21581 0.19315 0.21581 0.19686 0.21581 0.2007 0.21581 0.20471 0.21581 0.20887 0.21581 0.21321 0.21581 0.21774 0.21581 0.22246v66.315h-418.02z" stroke="#0766aa" stroke-opacity=".2"/>
</defs>
<g clip-path="url(#k)">
<use y="413.19625" fill="#0766aa" fill-opacity=".2" stroke="#0766aa" stroke-opacity=".2" xlink:href="#ae"/>
</g>
<path d="m40.603 170.63v-141.83" clip-path="url(#k)" fill="none" stroke="#b0b0b0" stroke-linecap="square" stroke-width=".8"/>
<defs>
<path id="l" d="m0 0v3.5" stroke="#000" stroke-width=".8"/>
</defs>
<use x="40.603125" y="170.627393" stroke="#000000" stroke-width=".8" xlink:href="#l"/>
<path d="m357.06 170.63v-141.83" clip-path="url(#k)" fill="none" stroke="#b0b0b0" stroke-linecap="square" stroke-width=".8"/>
<use x="357.062927" y="170.627393" stroke="#000000" stroke-width=".8" xlink:href="#l"/>
<defs>
<path id="d" d="m0 0h-3.5" stroke="#000" stroke-width=".8"/>
</defs>
<use x="40.603125" y="154.105211" stroke="#000000" stroke-width=".8" xlink:href="#d"/>
<defs>
<path id="e" d="m12.406 8.2969h16.109v55.625l-17.531-3.5156v8.9844l17.438 3.5156h9.8594v-64.609h16.109v-8.2969h-41.984z"/>
<path id="c" d="m31.781 66.406q-7.6094 0-11.453-7.5-3.8281-7.4844-3.8281-22.531 0-14.984 3.8281-22.484 3.8438-7.5 11.453-7.5 7.6719 0 11.5 7.5 3.8438 7.5 3.8438 22.484 0 15.047-3.8438 22.531-3.8281 7.5-11.5 7.5zm0 7.8125q12.266 0 18.734-9.7031 6.4688-9.6875 6.4688-28.141 0-18.406-6.4688-28.109-6.4688-9.6875-18.734-9.6875-12.25 0-18.719 9.6875-6.4688 9.7031-6.4688 28.109 0 18.453 6.4688 28.141 6.4688 9.7031 18.719 9.7031z"/>
</defs>
<g transform="translate(16.003 157.9) scale(.1 -.1)">
<use transform="translate(0 .68438)" xlink:href="#e"/>
<use transform="translate(63.623 .68438)" xlink:href="#c"/>
<use transform="translate(128.2 38.966) scale(.7)" xlink:href="#e"/>
</g>
<use x="40.603125" y="130.467312" stroke="#000000" stroke-width=".8" xlink:href="#d"/>
<defs>
<path id="r" d="m19.188 8.2969h34.422v-8.2969h-46.281v8.2969q5.6094 5.8125 15.297 15.594 9.7031 9.7969 12.188 12.641 4.7344 5.3125 6.6094 9 1.8906 3.6875 1.8906 7.25 0 5.8125-4.0781 9.4688-4.0781 3.6719-10.625 3.6719-4.6406 0-9.7969-1.6094-5.1406-1.6094-11-4.8906v9.9688q5.9531 2.3906 11.125 3.6094 5.1875 1.2188 9.4844 1.2188 11.328 0 18.062-5.6719 6.7344-5.6562 6.7344-15.125 0-4.5-1.6875-8.5312-1.6719-4.0156-6.125-9.4844-1.2188-1.4219-7.7656-8.1875-6.5312-6.7656-18.453-18.922z"/>
</defs>
<g transform="translate(16.003 134.27) scale(.1 -.1)">
<use transform="translate(0 .76562)" xlink:href="#e"/>
<use transform="translate(63.623 .76562)" xlink:href="#c"/>
<use transform="translate(128.2 39.047) scale(.7)" xlink:href="#r"/>
</g>
<use x="40.603125" y="106.829413" stroke="#000000" stroke-width=".8" xlink:href="#d"/>
<defs>
<path id="ar" d="m40.578 39.312q7.0781-1.5156 11.047-6.3125 3.9844-4.7812 3.9844-11.812 0-10.781-7.4219-16.703-7.4219-5.9062-21.094-5.9062-4.5781 0-9.4375 0.90625t-10.031 2.7188v9.5156q4.0938-2.3906 8.9688-3.6094 4.8906-1.2188 10.219-1.2188 9.2656 0 14.125 3.6562t4.8594 10.641q0 6.4531-4.5156 10.078-4.5156 3.6406-12.562 3.6406h-8.5v8.1094h8.8906q7.2656 0 11.125 2.9062t3.8594 8.375q0 5.6094-3.9844 8.6094-3.9688 3.0156-11.391 3.0156-4.0625 0-8.7031-0.89062-4.6406-0.875-10.203-2.7188v8.7812q5.625 1.5625 10.531 2.3438t9.25 0.78125q11.234 0 17.766-5.1094 6.5469-5.0938 6.5469-13.781 0-6.0625-3.4688-10.234t-9.8594-5.7812z"/>
</defs>
<g transform="translate(16.003 110.63) scale(.1 -.1)">
<use transform="translate(0 .76562)" xlink:href="#e"/>
<use transform="translate(63.623 .76562)" xlink:href="#c"/>
<use transform="translate(128.2 39.047) scale(.7)" xlink:href="#ar"/>
</g>
<use x="40.603125" y="83.191514" stroke="#000000" stroke-width=".8" xlink:href="#d"/>
<defs>
<path id="ac" d="m37.797 64.312-24.906-38.922h24.906zm-2.5938 8.5938h12.406v-47.516h10.406v-8.2031h-10.406v-17.188h-9.8125v17.188h-32.906v9.5156z"/>
</defs>
<g transform="translate(16.003 86.991) scale(.1 -.1)">
<use transform="translate(0 .68438)" xlink:href="#e"/>
<use transform="translate(63.623 .68438)" xlink:href="#c"/>
<use transform="translate(128.2 38.966) scale(.7)" xlink:href="#ac"/>
</g>
<use x="40.603125" y="59.553615" stroke="#000000" stroke-width=".8" xlink:href="#d"/>
<defs>
<path id="aq" d="m10.797 72.906h38.719v-8.3125h-29.688v-17.859q2.1406 0.73438 4.2812 1.0938 2.1562 0.35938 4.3125 0.35938 12.203 0 19.328-6.6875 7.1406-6.6875 7.1406-18.109 0-11.766-7.3281-18.297-7.3281-6.5156-20.656-6.5156-4.5938 0-9.3594 0.78125-4.75 0.78125-9.8281 2.3438v9.9219q4.3906-2.3906 9.0781-3.5625t9.9062-1.1719q8.4531 0 13.375 4.4375 4.9375 4.4375 4.9375 12.062 0 7.6094-4.9375 12.047-4.9219 4.4531-13.375 4.4531-3.9531 0-7.8906-0.875-3.9219-0.875-8.0156-2.7344z"/>
</defs>
<g transform="translate(16.003 63.353) scale(.1 -.1)">
<use transform="translate(0 .68438)" xlink:href="#e"/>
<use transform="translate(63.623 .68438)" xlink:href="#c"/>
<use transform="translate(128.2 38.966) scale(.7)" xlink:href="#aq"/>
</g>
<use x="40.603125" y="35.915717" stroke="#000000" stroke-width=".8" xlink:href="#d"/>
<defs>
<path id="ab" d="m33.016 40.375q-6.6406 0-10.531-4.5469-3.875-4.5312-3.875-12.438 0-7.8594 3.875-12.438 3.8906-4.5625 10.531-4.5625t10.516 4.5625q3.875 4.5781 3.875 12.438 0 7.9062-3.875 12.438-3.875 4.5469-10.516 4.5469zm19.578 30.922v-8.9844q-3.7188 1.75-7.5 2.6719-3.7812 0.9375-7.5 0.9375-9.7656 0-14.922-6.5938-5.1406-6.5938-5.875-19.922 2.875 4.25 7.2188 6.5156 4.3594 2.2656 9.5781 2.2656 10.984 0 17.359-6.6719 6.375-6.6562 6.375-18.125 0-11.234-6.6406-18.031-6.6406-6.7812-17.672-6.7812-12.656 0-19.344 9.6875-6.6875 9.7031-6.6875 28.109 0 17.281 8.2031 27.562t22.016 10.281q3.7188 0 7.5-0.73438t7.8906-2.1875z"/>
</defs>
<g transform="translate(16.003 39.715) scale(.1 -.1)">
<use transform="translate(0 .76562)" xlink:href="#e"/>
<use transform="translate(63.623 .76562)" xlink:href="#c"/>
<use transform="translate(128.2 39.047) scale(.7)" xlink:href="#ab"/>
</g>
<defs>
<path id="a" d="m0 0h-2" stroke="#000" stroke-width=".6"/>
</defs>
<use x="40.603125" y="170.627393" stroke="#000000" stroke-width=".6" xlink:href="#a"/>
<use x="40.603125" y="166.464966" stroke="#000000" stroke-width=".6" xlink:href="#a"/>
<use x="40.603125" y="163.511677" stroke="#000000" stroke-width=".6" xlink:href="#a"/>
<use x="40.603125" y="161.220927" stroke="#000000" stroke-width=".6" xlink:href="#a"/>
<use x="40.603125" y="159.349249" stroke="#000000" stroke-width=".6" xlink:href="#a"/>
<use x="40.603125" y="157.766768" stroke="#000000" stroke-width=".6" xlink:href="#a"/>
<use x="40.603125" y="156.39596" stroke="#000000" stroke-width=".6" xlink:href="#a"/>
<use x="40.603125" y="155.186822" stroke="#000000" stroke-width=".6" xlink:href="#a"/>
<use x="40.603125" y="146.989494" stroke="#000000" stroke-width=".6" xlink:href="#a"/>
<use x="40.603125" y="142.827067" stroke="#000000" stroke-width=".6" xlink:href="#a"/>
<use x="40.603125" y="139.873778" stroke="#000000" stroke-width=".6" xlink:href="#a"/>
<use x="40.603125" y="137.583029" stroke="#000000" stroke-width=".6" xlink:href="#a"/>
<use x="40.603125" y="135.71135" stroke="#000000" stroke-width=".6" xlink:href="#a"/>
<use x="40.603125" y="134.128869" stroke="#000000" stroke-width=".6" xlink:href="#a"/>
<use x="40.603125" y="132.758061" stroke="#000000" stroke-width=".6" xlink:href="#a"/>
<use x="40.603125" y="131.548923" stroke="#000000" stroke-width=".6" xlink:href="#a"/>
<use x="40.603125" y="123.351595" stroke="#000000" stroke-width=".6" xlink:href="#a"/>
<use x="40.603125" y="119.189168" stroke="#000000" stroke-width=".6" xlink:href="#a"/>
<use x="40.603125" y="116.235879" stroke="#000000" stroke-width=".6" xlink:href="#a"/>
<use x="40.603125" y="113.94513" stroke="#000000" stroke-width=".6" xlink:href="#a"/>
<use x="40.603125" y="112.073451" stroke="#000000" stroke-width=".6" xlink:href="#a"/>
<use x="40.603125" y="110.49097" stroke="#000000" stroke-width=".6" xlink:href="#a"/>
<use x="40.603125" y="109.120162" stroke="#000000" stroke-width=".6" xlink:href="#a"/>
<use x="40.603125" y="107.911024" stroke="#000000" stroke-width=".6" xlink:href="#a"/>
<use x="40.603125" y="99.713697" stroke="#000000" stroke-width=".6" xlink:href="#a"/>
<use x="40.603125" y="95.551269" stroke="#000000" stroke-width=".6" xlink:href="#a"/>
<use x="40.603125" y="92.59798" stroke="#000000" stroke-width=".6" xlink:href="#a"/>
<use x="40.603125" y="90.307231" stroke="#000000" stroke-width=".6" xlink:href="#a"/>
<use x="40.603125" y="88.435553" stroke="#000000" stroke-width=".6" xlink:href="#a"/>
<use x="40.603125" y="86.853071" stroke="#000000" stroke-width=".6" xlink:href="#a"/>
<use x="40.603125" y="85.482263" stroke="#000000" stroke-width=".6" xlink:href="#a"/>
<use x="40.603125" y="84.273125" stroke="#000000" stroke-width=".6" xlink:href="#a"/>
<use x="40.603125" y="76.075798" stroke="#000000" stroke-width=".6" xlink:href="#a"/>
<use x="40.603125" y="71.91337" stroke="#000000" stroke-width=".6" xlink:href="#a"/>
<use x="40.603125" y="68.960081" stroke="#000000" stroke-width=".6" xlink:href="#a"/>
<use x="40.603125" y="66.669332" stroke="#000000" stroke-width=".6" xlink:href="#a"/>
<use x="40.603125" y="64.797654" stroke="#000000" stroke-width=".6" xlink:href="#a"/>
<use x="40.603125" y="63.215172" stroke="#000000" stroke-width=".6" xlink:href="#a"/>
<use x="40.603125" y="61.844365" stroke="#000000" stroke-width=".6" xlink:href="#a"/>
<use x="40.603125" y="60.635226" stroke="#000000" stroke-width=".6" xlink:href="#a"/>
<use x="40.603125" y="52.437899" stroke="#000000" stroke-width=".6" xlink:href="#a"/>
<use x="40.603125" y="48.275471" stroke="#000000" stroke-width=".6" xlink:href="#a"/>
<use x="40.603125" y="45.322182" stroke="#000000" stroke-width=".6" xlink:href="#a"/>
<use x="40.603125" y="43.031433" stroke="#000000" stroke-width=".6" xlink:href="#a"/>
<use x="40.603125" y="41.159755" stroke="#000000" stroke-width=".6" xlink:href="#a"/>
<use x="40.603125" y="39.577273" stroke="#000000" stroke-width=".6" xlink:href="#a"/>
<use x="40.603125" y="38.206466" stroke="#000000" stroke-width=".6" xlink:href="#a"/>
<use x="40.603125" y="36.997328" stroke="#000000" stroke-width=".6" xlink:href="#a"/>
<use x="40.603125" y="28.8" stroke="#000000" stroke-width=".6" xlink:href="#a"/>
<path d="m47.691 123.85 0.43163 0.23687 0.86326 0.39577 0.86325 0.60527 0.86325 0.83796 0.86325 1.173 0.86325 1.6386 0.64744 1.6616 0.64744 2.2243 1.0791 4.4841 0.43163 0.34059 0.43163-0.012041 0.43163-0.348 0.21581-0.26255 1.7265-4.5867 0.86325-1.6414 1.0791-1.5323 1.2949-1.63 1.2949-1.9724 1.0791-1.2312 0.86326-0.63554 0.86325-0.29877 0.64744-0.016944 0.64744 0.16217 0.64744 0.35318 0.86325 0.5191 1.7265 0.37687 1.0791 0.4412 0.86325 0.53142 0.86326 0.8041 0.86325 1.1404 1.5107 2.2477 0.86325 0.607 0.86325 0.34319 0.21581-0.056691 0.43163-0.45217 1.2949-1.6317 1.0791-0.91713 1.2949-0.97695 0.64744-0.64967 0.86325-0.95081 0.86325-0.68305 0.86326-0.62588 0.86325-0.9864 0.86325-0.69946 1.2949-0.69448 0.86326-0.21201 0.86325 0.030549 0.86325 0.27912 1.2949 0.57697 0.86326 0.32682 0.86325 0.57962 0.86325 0.86705 2.1581 2.6864 0.86325 1.5953 1.2949 2.5504 1.2949 1.1252 0.64744 0.40492 0.43163 0.096731 0.64744-0.13091 1.0791-0.45522 1.2949-0.82042 0.86325-0.50245 0.86325-0.29631 0.86326-0.10779 0.86325 0.074236 0.86325 0.25967 0.86325 0.45904 0.86326 0.65962 1.5107-0.61275 1.0791-0.59361 0.64744-0.62237 1.9423-2.0728 1.0791-0.88684 1.0791-0.59127 0.86326-0.2846 0.86325-0.062607 0.86325 0.1627 0.86325 0.38382 1.0791 0.7352 0.86325 0.84477 1.5107 1.6683 2.5898 1.9597 1.0791 0.053748 0.86325-0.17066 1.5107-0.56268 0.21581-0.20379 1.2949-1.9451 0.86325-0.80025 0.86325-0.47876 0.86325-0.22104 1.0791-0.067294 1.2949 0.16983 1.2949 0.41735 1.2949 0.65124 1.0791 0.75651 0.86325 0.8441 0.86325 1.1396 0.86325 1.5187 1.0791 2.1393 0.43163 0.089789 1.5107 0.17439 1.5107 0.2864 0.43163-0.27074 0.86325-0.70043 0.86326-0.46974 1.0791-0.32763 2.5898-0.48132 2.8056-0.56323 1.2949-0.34781 0.86325-0.018287 0.86325 0.17327 0.86325 0.38064 1.2949 0.73837 0.64744-0.10311 0.43163-0.25524 0.64744-0.71265 1.0791-1.6413 1.2949-2.1897 0.86325-1.01 0.86326-0.70501 1.0791-0.55113 1.0791-0.69601 1.0791-1.1664 0.86325-0.85041 0.86325-0.49146 0.86326-0.1725 0.64744 0.068833 0.64744 0.24138 0.64744 0.42612 0.86325 0.86547 2.5898 2.6592 0.86326 0.91839 0.86325 1.226 0.86325 1.6312 0.86325 2.1844 1.5107 3.9121 0.43163 0.53196 0.43163 0.080176 0.64744-0.34642 2.8056-2.1105 1.2949-0.46884 1.2949-0.21778 1.0791 0.024406 1.0791 0.22501 1.0791 0.4333 0.86326 0.36296 0.86325 0.10292 2.3739-0.18618 0.64744-0.23901 0.64744-0.44128 1.7265-1.6041 3.0214-3.9333 0.86326-0.69112 0.86325-0.46258 0.86325-0.24944 0.86325-0.014355 1.7265 0.42234 1.2949 0.46048 1.0791 0.65743 0.43163 0.32925 0.21581 0.004657 0.43163-0.39556 0.86325-1.075 1.5107-1.2263 1.2949-0.91883 1.2949-0.65573 1.0791-0.23108 1.0791 0.039943 0.86325 0.22617 0.86325 0.44492 1.0791 0.88056 0.86325 0.97762 0.86326 1.3111 0.43163 0.68889 0.86325 0.94266 0.21581 0.034331 0.43163-0.35813 0.86325-1.1306 0.86325-0.79546 0.86325-0.53412 0.86325-0.31711 0.86326-0.12637 0.86325 0.065436 0.86325 0.26396 0.86325 0.48348 0.86326 0.75733 0.86325 1.0853 0.86325 1.4886 0.86325 1.9299 0.86325 2.5549 1.0791 3.7331 0.43163 0.75461 0.43163 0.36586 4.5321 2.7714 0.86325 0.32715 0.43163-0.091441 0.43163-0.38622 0.64744-1.0259 1.9423-3.6079 1.0791-1.402 1.0791-1.0653 1.0791-0.78672 1.0791-0.53991 1.0791-0.30434 0.86325-0.036409 0.86325 0.16657 0.86326 0.38399 0.86325 0.63148 0.86325 0.93213 1.7265 2.1839 0.64744 0.45026 3.2372 1.1388 1.0791 0.081936 1.0791-0.14222 1.0791-0.35228 2.5898-1.2181 1.9423-1.2335 5.3953-3.7948 0.43163-0.83277 2.1581-6.3414 0.86325-1.3327 0.86325-0.86263 0.86326-0.49846 0.86325-0.19222 0.86325 0.068887 0.86325 0.32352 0.86326 0.59414 0.86325 0.90456 0.86325 1.2853 0.86325 1.7645 0.64744 1.7683 0.64744 2.3526 0.64744 3.3366 1.2949 8.0689 0.43163 0.87667 0.21581 0.17623h0.21581l0.21581-0.19813 0.43163-1.3827 0.86326-2.7761 1.0791-2.6798 1.0791-2.0809 1.0791-1.6336 0.86325-0.91315 0.86325-0.58018 0.86326-0.29918 0.86325-0.042835 0.86325 0.20919 0.86325 0.47606 0.86326 0.781 0.86325 1.159 0.64744 1.1953 0.64744 1.5834 0.64744 2.1556 0.43163 1.3307 2.1581 3.4722 0.86326 0.9937 0.64744 0.41926 0.64744 0.080143 2.1581-0.083618 0.64744-0.38658 0.86325-0.89903 1.2949-1.8282 1.5107-2.4198 0.86325-2.0264 1.7265-4.3015 1.0791-2.1389 0.86325-1.1517 0.86325-0.76665 0.86326-0.45202 0.86325-0.17197 0.86325 0.098308 0.86325 0.38079 1.0791 0.8127 1.0791 1.1512 0.86325 1.2208 0.86325 1.572 1.0791 2.5752 1.0791 2.3992 0.86325 1.4789 0.64744 0.68655 7.7693 4.1373 1.0791 0.28487 1.0791 0.064523 5.3953 0.099828 12.086 0.55542 2.3739-0.083786 1.2949-0.36355 1.5107-0.67601 7.3377-3.8379 0.64744-0.9976 2.5898-4.6613 1.2949-1.6899 1.2949-1.3433 1.2949-1.0261 1.2949-0.72249 3.6688-1.4551 0.86325-0.005584 1.2949 0.064629 1.5107-0.20678 3.2372-0.52223 0.86326 0.22397 0.86325 0.42533 0.86325 0.63596 0.86325 0.86901 2.5898 2.9453 1.2949 1.4652 1.2949 1.8032 1.2949 2.1924 1.0791 1.7331 0.64744 0.68796 0.64744 0.29654 1.9423 0.68297 2.5898 1.1795 3.2372 1.4527 1.5107 0.43144 1.2949 0.12352 3.0214-0.070443 0.43163-0.27756 0.64744-0.73874 0.86325-1.4002 3.0214-5.3135 1.2949-1.5597 1.2949-1.1694 1.0791-0.70625 1.2949-0.56166 1.2949-0.32012 1.0791-0.047438 1.0791 0.19701 0.86326 0.14581 0.64744-0.1064 0.86325-0.43343 1.5107-0.96745 0.86326-0.19212 0.86325 0.071 0.86325 0.31564 0.86325 0.55851 0.86325 0.81568 0.86326 1.1065 0.86325 1.4429 0.86325 1.8054 0.86325 2.2767 0.86325 2.9538 0.64744 2.9033 0.64744 3.9171 0.64744 5.6911 0.64744 8.3638 0.43163 8.7133 0.43163 16.119 0.21581 20.382 0.14673 202.97v0" clip-path="url(#k)" fill="none" stroke="#dc143c" stroke-linecap="square" stroke-width="1.5"/>
<path d="m40.603 170.63v-141.83" fill="none" stroke="#000" stroke-linecap="square" stroke-width=".8"/>
<path d="m486.62 170.63v-141.83" fill="none" stroke="#000" stroke-linecap="square" stroke-width=".8"/>
<path d="m40.603 170.63h446.02" fill="none" stroke="#000" stroke-linecap="square" stroke-width=".8"/>
<path d="m40.603 28.8h446.02" fill="none" stroke="#000" stroke-linecap="square" stroke-width=".8"/>
<path d="m324.59 66.156h155.04q2 0 2-2v-28.356q0-2-2-2h-155.04q-2 0-2 2v28.356q0 2 2 2z" fill="#fff" opacity=".8" stroke="#ccc"/>
<path d="m326.59 41.898h20" fill="none" stroke="#dc143c" stroke-linecap="square" stroke-width="1.5"/>
<defs>
<path id="g" d="m41.109 46.297q-1.5156 0.875-3.2969 1.2812-1.7812 0.42188-3.9219 0.42188-7.625 0-11.703-4.9531t-4.0781-14.234v-28.812h-9.0312v54.688h9.0312v-8.5q2.8438 4.9844 7.375 7.3906 4.5469 2.4219 11.047 2.4219 0.92188 0 2.0469-0.125 1.125-0.10938 2.4844-0.35938z"/>
<path id="h" d="m34.281 27.484q-10.891 0-15.094-2.4844t-4.2031-8.5q0-4.7812 3.1562-7.5938 3.1562-2.7969 8.5625-2.7969 7.4844 0 12 5.2969t4.5156 14.078v2zm17.922 3.7188v-31.203h-8.9844v8.2969q-3.0781-4.9688-7.6719-7.3438t-11.234-2.375q-8.3906 0-13.359 4.7188-4.9531 4.7188-4.9531 12.625 0 9.2188 6.1719 13.906 6.1875 4.6875 18.438 4.6875h12.609v0.89062q0 6.2031-4.0781 9.5938t-11.453 3.3906q-4.6875 0-9.1406-1.125-4.4375-1.125-8.5312-3.375v8.3125q4.9219 1.9062 9.5625 2.8438 4.6406 0.95312 9.0312 0.95312 11.875 0 17.734-6.1562 5.8594-6.1406 5.8594-18.641z"/>
<path id="p" d="m18.312 70.219v-15.531h18.5v-6.9844h-18.5v-29.688q0-6.6875 1.8281-8.5938t7.4531-1.9062h9.2188v-7.5156h-9.2188q-10.406 0-14.359 3.875-3.9531 3.8906-3.9531 14.141v29.688h-6.5938v6.9844h6.5938v15.531z"/>
<path id="b" d="m56.203 29.594v-4.3906h-41.312q0.59375-9.2812 5.5938-14.141t13.938-4.8594q5.1719 0 10.031 1.2656t9.6562 3.8125v-8.5q-4.8438-2.0469-9.9219-3.125t-10.297-1.0781q-13.094 0-20.734 7.6094-7.6406 7.625-7.6406 20.625 0 13.422 7.25 21.297 7.25 7.8906 19.562 7.8906 11.031 0 17.453-7.1094 6.4219-7.0938 6.4219-19.297zm-8.9844 2.6406q-0.09375 7.3594-4.125 11.75-4.0312 4.4062-10.672 4.4062-7.5156 0-12.031-4.25t-5.2031-11.969z"/>
<path id="j" d="m30.609 48.391q-7.2188 0-11.422-5.6406t-4.2031-15.453 4.1719-15.453q4.1875-5.6406 11.453-5.6406 7.1875 0 11.375 5.6562 4.2031 5.6719 4.2031 15.438 0 9.7188-4.2031 15.406-4.1875 5.6875-11.375 5.6875zm0 7.6094q11.719 0 18.406-7.625 6.7031-7.6094 6.7031-21.078 0-13.422-6.7031-21.078-6.6875-7.6406-18.406-7.6406-11.766 0-18.438 7.6406-6.6562 7.6562-6.6562 21.078 0 13.469 6.6562 21.078 6.6719 7.625 18.438 7.625z"/>
<path id="x" d="m37.109 75.984v-7.4844h-8.5938q-4.8281 0-6.7188-1.9531-1.875-1.9531-1.875-7.0312v-4.8281h14.797v-6.9844h-14.797v-47.703h-9.0312v47.703h-8.5938v6.9844h8.5938v3.8125q0 9.125 4.25 13.297 4.25 4.1875 13.469 4.1875z"/>
<path id="m" d="m9.4219 54.688h8.9844v-54.688h-8.9844zm0 21.297h8.9844v-11.391h-8.9844z"/>
<path id="q" d="m9.4219 75.984h8.9844v-75.984h-8.9844z"/>
<path id="u" d="m8.5 21.578v33.109h8.9844v-32.766q0-7.7656 3.0156-11.656 3.0312-3.875 9.0938-3.875 7.2656 0 11.484 4.6406 4.2344 4.6406 4.2344 12.656v31h8.9844v-54.688h-8.9844v8.4062q-3.2656-4.9844-7.5938-7.4062-4.3125-2.4219-10.031-2.4219-9.4219 0-14.312 5.8594-4.875 5.8594-4.875 17.141zm22.609 34.422z"/>
<path id="i" d="m44.281 53.078v-8.5q-3.7969 1.9531-7.9062 2.9219-4.0938 0.98438-8.5 0.98438-6.6875 0-10.031-2.0469t-3.3438-6.1562q0-3.125 2.3906-4.9062t9.625-3.3906l3.0781-0.6875q9.5625-2.0469 13.594-5.7812t4.0312-10.422q0-7.625-6.0312-12.078-6.0312-4.4375-16.578-4.4375-4.3906 0-9.1562 0.85938t-10.031 2.5625v9.2812q4.9844-2.5938 9.8125-3.8906 4.8281-1.2812 9.5781-1.2812 6.3438 0 9.75 2.1719 3.4219 2.1719 3.4219 6.125 0 3.6562-2.4688 5.6094-2.4531 1.9531-10.812 3.7656l-3.125 0.73438q-8.3438 1.75-12.062 5.3906-3.7031 3.6406-3.7031 9.9844 0 7.7188 5.4688 11.906 5.4688 4.2031 15.531 4.2031 4.9688 0 9.3594-0.73438 4.4062-0.71875 8.1094-2.1875z"/>
<path id="t" d="m31 75.875q-6.5312-11.219-9.7188-22.219-3.1719-10.984-3.1719-22.266 0-11.266 3.2031-22.328t9.6875-22.25h-7.8125q-7.3125 11.484-10.953 22.562t-3.6406 22.016q0 10.891 3.6094 21.922 3.625 11.047 10.984 22.562z"/>
<path id="n" d="m45.406 46.391v29.594h8.9844v-75.984h-8.9844v8.2031q-2.8281-4.875-7.1562-7.25-4.3125-2.375-10.375-2.375-9.9062 0-16.141 7.9062-6.2188 7.9219-6.2188 20.812t6.2188 20.797q6.2344 7.9062 16.141 7.9062 6.0625 0 10.375-2.375 4.3281-2.3594 7.1562-7.2344zm-30.609-19.094q0-9.9062 4.0781-15.547t11.203-5.6406 11.219 5.6406q4.1094 5.6406 4.1094 15.547t-4.1094 15.547q-4.0938 5.6406-11.219 5.6406t-11.203-5.6406-4.0781-15.547z"/>
<path id="v" d="m9.0781 75.984h9.0312v-44.875l26.812 23.578h11.469l-29-25.578 30.234-29.109h-11.719l-27.797 26.703v-26.703h-9.0312z"/>
<path id="ad" d="m25.391 72.906h8.2969l-25.391-82.188h-8.2969z"/>
<path id="o" d="m32.172-5.0781q-3.7969-9.7656-7.4219-12.734-3.6094-2.9844-9.6562-2.9844h-7.1875v7.5156h5.2812q3.7031 0 5.75 1.7656 2.0625 1.75 4.5469 8.2969l1.6094 4.0938-22.109 53.812h9.5156l17.094-42.766 17.094 42.766h9.5156z"/>
<path id="s" d="m8.0156 75.875h7.8125q7.3125-11.516 10.953-22.562 3.6406-11.031 3.6406-21.922 0-10.938-3.6406-22.016t-10.953-22.562h-7.8125q6.4844 11.188 9.6875 22.25t3.2031 22.328q0 11.281-3.2031 22.266-3.2031 11-9.6875 22.219z"/>
</defs>
<g transform="translate(354.59 45.398) scale(.1 -.1)">
<use xlink:href="#g"/>
<use x="41.113281" xlink:href="#h"/>
<use x="102.392578" xlink:href="#p"/>
<use x="141.601562" xlink:href="#b"/>
<use x="203.125" xlink:href="#DejaVuSans-20"/>
<use x="234.912109" xlink:href="#j"/>
<use x="296.09375" xlink:href="#x"/>
<use x="331.298828" xlink:href="#DejaVuSans-20"/>
<use x="363.085938" xlink:href="#x"/>
<use x="398.291016" xlink:href="#h"/>
<use x="459.570312" xlink:href="#m"/>
<use x="487.353516" xlink:href="#q"/>
<use x="515.136719" xlink:href="#u"/>
<use x="578.515625" xlink:href="#g"/>
<use x="619.597656" xlink:href="#b"/>
<use x="681.121094" xlink:href="#i"/>
<use x="733.220703" xlink:href="#DejaVuSans-20"/>
<use x="765.007812" xlink:href="#t"/>
<use x="804.021484" xlink:href="#n"/>
<use x="867.498047" xlink:href="#m"/>
<use x="895.28125" xlink:href="#i"/>
<use x="947.380859" xlink:href="#v"/>
<use x="1005.291016" xlink:href="#i"/>
<use x="1057.390625" xlink:href="#ad"/>
<use x="1091.082031" xlink:href="#o"/>
<use x="1150.261719" xlink:href="#g"/>
<use x="1191.375" xlink:href="#s"/>
</g>
<path d="m326.59 60.077h20v-7h-20z" fill="#0766aa" fill-opacity=".2" stroke="#0766aa" stroke-opacity=".2"/>
<defs>
<path id="aj" d="m48.688 27.297q0 9.9062-4.0781 15.547t-11.203 5.6406q-7.1406 0-11.219-5.6406t-4.0781-15.547 4.0781-15.547 11.219-5.6406q7.125 0 11.203 5.6406t4.0781 15.547zm-30.578 19.094q2.8438 4.875 7.1562 7.2344 4.3281 2.375 10.328 2.375 9.9688 0 16.188-7.9062 6.2344-7.9062 6.2344-20.797t-6.2344-20.812q-6.2188-7.9062-16.188-7.9062-6 0-10.328 2.375-4.3125 2.375-7.1562 7.25v-8.2031h-9.0312v75.984h9.0312z"/>
<path id="ag" d="m2.9844 54.688h9.5156l17.094-45.891 17.094 45.891h9.5156l-20.516-54.688h-12.203z"/>
</defs>
<g transform="translate(354.59 60.077) scale(.1 -.1)">
<use xlink:href="#n"/>
<use x="63.476562" xlink:href="#m"/>
<use x="91.259766" xlink:href="#i"/>
<use x="143.359375" xlink:href="#v"/>
<use x="201.269531" xlink:href="#i"/>
<use x="253.369141" xlink:href="#DejaVuSans-20"/>
<use x="285.15625" xlink:href="#j"/>
<use x="346.337891" xlink:href="#aj"/>
<use x="409.814453" xlink:href="#i"/>
<use x="461.914062" xlink:href="#b"/>
<use x="523.4375" xlink:href="#g"/>
<use x="564.550781" xlink:href="#ag"/>
<use x="623.730469" xlink:href="#b"/>
<use x="685.253906" xlink:href="#n"/>
</g>
<path d="m40.603 375.64h446.02v-189.1h-446.02z" fill="#fff"/>
<path d="m40.603 375.64v-189.1" clip-path="url(#f)" fill="none" stroke="#b0b0b0" stroke-linecap="square" stroke-width=".8"/>
<use x="40.603125" y="375.64" stroke="#000000" stroke-width=".8" xlink:href="#l"/>
<g transform="translate(37.422 390.24) scale(.1 -.1)">
<use xlink:href="#c"/>
</g>
<path d="m357.06 375.64v-189.1" clip-path="url(#f)" fill="none" stroke="#b0b0b0" stroke-linecap="square" stroke-width=".8"/>
<use x="357.062927" y="375.64" stroke="#000000" stroke-width=".8" xlink:href="#l"/>
<g transform="translate(353.88 390.24) scale(.1 -.1)">
<use xlink:href="#e"/>
</g>
<defs>
<path id="ao" d="m34.188 63.188-13.391-36.281h26.812zm-5.5781 9.7188h11.188l27.781-72.906h-10.25l-6.6406 18.703h-32.859l-6.6406-18.703h-10.406z"/>
<path id="w" d="m45.406 27.984q0 9.7656-4.0312 15.125-4.0156 5.375-11.297 5.375-7.2188 0-11.25-5.375-4.0312-5.3594-4.0312-15.125 0-9.7188 4.0312-15.094t11.25-5.375q7.2812 0 11.297 5.375 4.0312 5.375 4.0312 15.094zm8.9844-21.203q0-13.953-6.2031-20.766-6.1875-6.8125-18.984-6.8125-4.7344 0-8.9375 0.70312t-8.1562 2.1719v8.7344q3.9531-2.1406 7.8125-3.1562 3.8594-1.0312 7.8594-1.0312 8.8438 0 13.234 4.6094t4.3906 13.938v4.4531q-2.7812-4.8438-7.125-7.2344t-10.406-2.3906q-10.047 0-16.203 7.6562-6.1562 7.6719-6.1562 20.328 0 12.688 6.1562 20.344 6.1562 7.6719 16.203 7.6719 6.0625 0 10.406-2.3906t7.125-7.2188v8.2969h8.9844z"/>
<path id="ah" d="m18.109 8.2031v-29h-9.0312v75.484h9.0312v-8.2969q2.8438 4.875 7.1562 7.2344 4.3281 2.375 10.328 2.375 9.9688 0 16.188-7.9062 6.2344-7.9062 6.2344-20.797t-6.2344-20.812q-6.2188-7.9062-16.188-7.9062-6 0-10.328 2.375-4.3125 2.375-7.1562 7.25zm30.578 19.094q0 9.9062-4.0781 15.547t-11.203 5.6406q-7.1406 0-11.219-5.6406t-4.0781-15.547 4.0781-15.547 11.219-5.6406q7.125 0 11.203 5.6406t4.0781 15.547z"/>
<path id="af" d="m4.2031 54.688h8.9844l11.234-42.672 11.172 42.672h10.594l11.234-42.672 11.188 42.672h8.9844l-14.312-54.688h-10.594l-11.766 44.828-11.812-44.828h-10.609z"/>
<path id="as" d="m4.8906 31.391h26.312v-8h-26.312z"/>
<path id="ai" d="m54.891 33.016v-33.016h-8.9844v32.719q0 7.7656-3.0312 11.609-3.0312 3.8594-9.0781 3.8594-7.2812 0-11.484-4.6406-4.2031-4.625-4.2031-12.641v-30.906h-9.0312v54.688h9.0312v-8.5q3.2344 4.9375 7.5938 7.375 4.375 2.4375 10.094 2.4375 9.4219 0 14.25-5.8281 4.8438-5.8281 4.8438-17.156z"/>
</defs>
<g transform="translate(209.62 403.92) scale(.1 -.1)">
<use xlink:href="#ao"/>
<use x="68.408203" xlink:href="#w"/>
<use x="131.884766" xlink:href="#b"/>
<use x="193.408203" xlink:href="#DejaVuSans-20"/>
<use x="225.195312" xlink:href="#t"/>
<use x="264.208984" xlink:href="#ah"/>
<use x="327.685547" xlink:href="#j"/>
<use x="388.867188" xlink:href="#af"/>
<use x="470.654297" xlink:href="#b"/>
<use x="532.177734" xlink:href="#g"/>
<use x="573.197266" xlink:href="#as"/>
<use x="609.296875" xlink:href="#j"/>
<use x="670.478516" xlink:href="#ai"/>
<use x="733.857422" xlink:href="#DejaVuSans-20"/>
<use x="765.644531" xlink:href="#o"/>
<use x="824.824219" xlink:href="#b"/>
<use x="886.347656" xlink:href="#h"/>
<use x="947.626953" xlink:href="#g"/>
<use x="988.740234" xlink:href="#i"/>
<use x="1040.839844" xlink:href="#s"/>
</g>
<path d="m40.603 375.64h446.02" clip-path="url(#f)" fill="none" stroke="#b0b0b0" stroke-linecap="square" stroke-width=".8"/>
<use x="40.603125" y="375.64" stroke="#000000" stroke-width=".8" xlink:href="#d"/>
<g transform="translate(27.241 379.44) scale(.1 -.1)">
<use xlink:href="#c"/>
</g>
<path d="m40.603 328.36h446.02" clip-path="url(#f)" fill="none" stroke="#b0b0b0" stroke-linecap="square" stroke-width=".8"/>
<use x="40.603125" y="328.364202" stroke="#000000" stroke-width=".8" xlink:href="#d"/>
<g transform="translate(27.241 332.16) scale(.1 -.1)">
<use xlink:href="#ac"/>
</g>
<path d="m40.603 281.09h446.02" clip-path="url(#f)" fill="none" stroke="#b0b0b0" stroke-linecap="square" stroke-width=".8"/>
<use x="40.603125" y="281.088405" stroke="#000000" stroke-width=".8" xlink:href="#d"/>
<defs>
<path id="aa" d="m31.781 34.625q-7.0312 0-11.062-3.7656-4.0156-3.7656-4.0156-10.344 0-6.5938 4.0156-10.359 4.0312-3.7656 11.062-3.7656t11.078 3.7812q4.0625 3.7969 4.0625 10.344 0 6.5781-4.0312 10.344-4.0156 3.7656-11.109 3.7656zm-9.8594 4.1875q-6.3438 1.5625-9.8906 5.9062-3.5312 4.3594-3.5312 10.609 0 8.7344 6.2188 13.812 6.2344 5.0781 17.062 5.0781 10.891 0 17.094-5.0781t6.2031-13.812q0-6.25-3.5469-10.609-3.5312-4.3438-9.8281-5.9062 7.125-1.6562 11.094-6.5 3.9844-4.8281 3.9844-11.797 0-10.609-6.4688-16.281-6.4688-5.6562-18.531-5.6562-12.047 0-18.531 5.6562-6.4688 5.6719-6.4688 16.281 0 6.9688 4 11.797 4.0156 4.8438 11.141 6.5zm-3.6094 15.578q0-5.6562 3.5312-8.8281 3.5469-3.1719 9.9375-3.1719 6.3594 0 9.9375 3.1719 3.5938 3.1719 3.5938 8.8281 0 5.6719-3.5938 8.8438-3.5781 3.1719-9.9375 3.1719-6.3906 0-9.9375-3.1719-3.5312-3.1719-3.5312-8.8438z"/>
</defs>
<g transform="translate(27.241 284.89) scale(.1 -.1)">
<use xlink:href="#aa"/>
</g>
<path d="m40.603 233.81h446.02" clip-path="url(#f)" fill="none" stroke="#b0b0b0" stroke-linecap="square" stroke-width=".8"/>
<use x="40.603125" y="233.812607" stroke="#000000" stroke-width=".8" xlink:href="#d"/>
<g transform="translate(20.878 237.61) scale(.1 -.1)">
<use xlink:href="#e"/>
<use x="63.623047" xlink:href="#r"/>
</g>
<path d="m40.603 186.54h446.02" clip-path="url(#f)" fill="none" stroke="#b0b0b0" stroke-linecap="square" stroke-width=".8"/>
<use x="40.603125" y="186.536809" stroke="#000000" stroke-width=".8" xlink:href="#d"/>
<g transform="translate(20.878 190.34) scale(.1 -.1)">
<use xlink:href="#e"/>
<use x="63.623047" xlink:href="#ab"/>
</g>
<defs>
<path id="am" d="m9.8125 72.906h41.891v-8.3125h-32.031v-21.484h28.906v-8.2969h-28.906v-34.812h-9.8594z"/>
<path id="al" d="m44.391 34.188q3.1719-1.0781 6.1719-4.5938t6.0312-9.6719l10.016-19.922h-10.609l-9.3125 18.703q-3.625 7.3281-7.0156 9.7188t-9.25 2.3906h-10.75v-30.812h-9.8594v72.906h22.266q12.5 0 18.656-5.2344 6.1562-5.2188 6.1562-15.766 0-6.8906-3.2031-11.438-3.2031-4.5312-9.2969-6.2812zm-24.719 30.609v-25.875h12.406q7.125 0 10.766 3.2969t3.6406 9.6875-3.6406 9.6406-10.766 3.25z"/>
<path id="at" d="m72.703 32.078q-4.25 0-6.6719-3.6094-2.4062-3.6094-2.4062-10.062 0-6.3438 2.4062-9.9844 2.4219-3.6406 6.6719-3.6406 4.1562 0 6.5625 3.6406 2.4219 3.6406 2.4219 9.9844 0 6.4062-2.4219 10.031-2.4062 3.6406-6.5625 3.6406zm0 6.2031q7.7188 0 12.25-5.375 4.5469-5.3594 4.5469-14.5 0-9.125-4.5625-14.484-4.5625-5.3438-12.234-5.3438-7.8125 0-12.359 5.3438-4.5312 5.3594-4.5312 14.484 0 9.1875 4.5625 14.531t12.328 5.3438zm-50.391 29.734q-4.2031 0-6.625-3.6406-2.4062-3.625-2.4062-9.9844 0-6.4375 2.3906-10.062 2.3906-3.6094 6.6406-3.6094t6.6562 3.6094q2.4219 3.625 2.4219 10.062 0 6.2969-2.4375 9.9531-2.4375 3.6719-6.6406 3.6719zm44.094 6.2031h7.8125l-45.609-75.641h-7.8125zm-44.094 0q7.7188 0 12.297-5.3438 4.5938-5.3438 4.5938-14.484 0-9.2188-4.5625-14.547t-12.328-5.3281-12.281 5.3438q-4.5156 5.3594-4.5156 14.531 0 9.0938 4.5312 14.453 4.5469 5.375 12.266 5.375z"/>
</defs>
<g transform="translate(14.798 334.34) rotate(-90) scale(.1 -.1)">
<use xlink:href="#am"/>
<use x="57.378906" xlink:href="#h"/>
<use x="118.658203" xlink:href="#m"/>
<use x="146.441406" xlink:href="#q"/>
<use x="174.224609" xlink:href="#u"/>
<use x="237.603516" xlink:href="#g"/>
<use x="278.685547" xlink:href="#b"/>
<use x="340.208984" xlink:href="#DejaVuSans-20"/>
<use x="371.996094" xlink:href="#al"/>
<use x="441.447266" xlink:href="#h"/>
<use x="502.726562" xlink:href="#p"/>
<use x="541.935547" xlink:href="#b"/>
<use x="603.458984" xlink:href="#DejaVuSans-20"/>
<use x="635.246094" xlink:href="#t"/>
<use x="674.259766" xlink:href="#at"/>
<use x="769.279297" xlink:href="#ad"/>
<use x="802.970703" xlink:href="#o"/>
<use x="862.150391" xlink:href="#b"/>
<use x="923.673828" xlink:href="#h"/>
<use x="984.953125" xlink:href="#g"/>
<use x="1026.066406" xlink:href="#s"/>
</g>
<path d="m47.691 318.54 0.64744 7.4503 1.0791 9.8649 1.0791 8.0069 2.374 14.548 1.5107 8.3902 0.21581 0.98549 0.43163 0.60038 0.43163 0.24496 0.43163-0.003233 0.43163-0.20264 0.86326-1.6491 1.7265-3.2334 1.2949-1.9951 0.86326-1.3594 3.0214-7.1188 0.64744-0.84678 0.64744-0.4468 0.43163-0.072173 0.43163 0.11081 0.43163 0.29589 0.64744 0.7954 0.64744 1.0337 1.9423 0.86495 0.86326 0.67088 0.86325 0.91946 0.86325 1.3203 0.86325 1.7393 1.5107 3.3222 0.64744 0.6766 0.86325 0.53831 0.43163 0.15675 0.21581-0.063863 0.43163-0.52084 1.5107-2.3798 1.0791-1.2407 0.64744-0.66953 1.0791-1.7761 1.0791-2.1414 1.7265-2.9457 1.0791-2.6114 0.86325-1.4989 0.86325-1.1787 0.64744-0.51124 0.43163-0.12842 0.43163 0.042355 0.43163 0.21386 0.64744 0.64872 1.0791 1.3989 0.64744 0.48709 0.64744 0.7934 0.64744 1.1181 0.86325 1.9791 0.86325 1.9396 1.0791 2.6444 1.5107 4.4054 0.64744 1.6881 1.0791 1.092 0.86326 0.64512 0.64744 0.19785 0.64744-0.12684 1.0791-0.4534 1.0791-0.7031 1.0791-0.73432 0.86325-0.3484 0.86326-0.12955 0.86325 0.088612 0.86325 0.30607 0.86325 0.52284 0.86326 0.7117 1.2949-0.54742 1.2949-0.7923 0.64744-0.7549 3.2372-4.5238 1.0791-0.94053 0.64744-0.35275 0.64744-0.12475 0.64744 0.10479 0.64744 0.33588 0.86325 0.74998 0.86325 1.0159 0.86325 1.3067 1.2949 2.0729 2.5898 2.4045 0.86325 0.1274 0.86326-0.076027 1.5107-0.44178 0.43163-0.2865 0.21581-0.2298 1.5107-2.7643 0.86325-1.0416 0.64744-0.50867 0.86325-0.34936 0.86325-0.11274 0.86326 0.086802 0.86325 0.27141 1.0791 0.55791 1.2949 0.95418 1.2949 1.2793 1.0791 1.4519 1.0791 1.8165 1.2949 2.2165 0.43163 0.067987 1.7265 0.16391 1.2949 0.17573 0.43163-0.19833 1.0791-0.6481 1.0791-0.40462 2.1581-0.40711 3.8846-0.68274 1.5107-0.35846 0.86325 0.028063 0.86326 0.21669 0.86325 0.41076 1.0791 0.54352 0.64744-0.09015 0.43163-0.22686 0.64744-0.66404 0.86325-1.3073 0.86325-1.8305 1.0791-2.1289 0.86325-1.3099 0.86326-0.94339 1.2949-1.1863 0.64744-0.97046 2.3739-4.7145 0.64744-0.51815 0.43163-0.11754 0.43163 0.064504 0.43163 0.2463 0.64744 0.70976 0.64744 1.1175 2.5898 5.3597 2.1581 3.6116 1.2949 2.9425 1.5107 3.6188 0.43163 0.7169 0.64744 0.55692 0.43163 0.046274 0.86326-0.3067 2.3739-1.2223 1.5107-0.43094 1.5107-0.17861 1.2949 0.079199 1.2949 0.30055 1.7265 0.46837 1.0791-0.03494 2.5898-0.34764 0.86325-0.53417 1.0791-0.79762 0.86325-1.0947 3.0214-4.1512 0.86325-0.73447 0.86325-0.44651 0.64744-0.12634 0.64744 0.097425 1.7265 0.65594 1.0791 0.55669 1.0791 0.87908 0.43163 0.4196 0.21581 0.005665 0.43163-0.50637 0.86325-1.4787 2.3739-2.9669 1.2949-1.3726 0.86325-0.5711 0.64744-0.20382 0.64744-0.015834 0.64744 0.16817 0.64744 0.35624 0.64744 0.58033 0.86325 1.1095 1.0791 1.8027 1.0791 2.2814 0.43163 0.88844 0.86325 1.1228 0.21581 0.038798 0.21581-0.14043 0.43163-0.65522 1.0791-1.6052 0.86325-0.93049 0.86325-0.62858 0.86326-0.33818 0.86325-0.051275 0.64744 0.16117 0.86326 0.47719 0.86325 0.79655 0.86325 1.134 1.0791 1.8701 1.5107 3.1715 1.5107 3.3422 0.64744 0.57851 0.64744 0.2136 3.453 0.81847 1.9423 0.24356 0.64744-0.14976 0.64744-0.35097 1.2949-1.0475 1.9423-1.4152 1.5107-0.85215 1.5107-0.58601 1.2949-0.25058 1.0791 0.006473 1.0791 0.20696 1.0791 0.46621 1.0791 0.73953 1.0791 0.78871 0.86326 0.36875 1.5107 0.23753 2.1581 0.21748 1.5107-0.077646 1.5107-0.28932 3.453-1.0358 2.3739-1.0394 2.1581-1.1159 1.7265-1.0268 0.43163-0.58384 0.43163-1.1769 2.3739-9.6818 0.86325-2.313 0.64744-1.2441 0.64744-0.82915 0.64744-0.42202 0.43163-0.073809 0.43163 0.085178 0.64744 0.42016 0.64744 0.76322 0.64744 1.0975 0.86325 1.968 0.86325 2.5152 1.0791 3.7907 1.2949 5.4015 1.2949 5.4682 0.43163 0.70584 0.43163 0.28663 0.43163 0.054687 0.21581-0.061627 0.43163-0.46472 4.3163-5.558 0.86325-0.77227 0.86325-0.50719 1.0791-0.32656 0.86325-0.004578 0.86325 0.26311 0.86325 0.53661 0.86326 0.81607 0.86325 1.1017 1.0791 1.7885 0.86325 1.4936 1.5107 0.99419 1.0791 0.48895 1.0791 0.2365 1.5107-0.02709 1.7265-0.15286 1.0791-0.36108 1.2949-0.71731 1.2949-0.95395 0.64744-0.75442 0.86325-1.4684 1.2949-2.7366 1.5107-3.1938 0.86325-1.3066 0.86326-0.89749 0.64744-0.40074 0.64744-0.16423 0.64744 0.074988 0.64744 0.31531 0.86325 0.74427 1.0791 1.158 1.0791 1.5127 1.2949 2.2659 1.7265 3.2022 0.86325 0.99659 0.64744 0.4898 0.64744 0.23121 3.2372 0.61785 4.3163 0.78666 1.7265 0.12789 14.46-0.10156 5.6112-0.37005 1.7265-0.33052 3.0214-0.75946 5.6112-1.7463 0.64744-0.72045 0.86325-1.4347 3.2372-5.5813 1.7265-2.578 1.2949-1.5454 1.0791-0.9406 1.5107-1.126 1.2949-1.3069 0.64744-0.27422 0.64744 0.042236 0.86325 0.15451 0.86325-0.10719 1.9423-0.79161 1.5107-0.82437 0.64744-0.011543 0.64744 0.25821 0.64744 0.51333 0.86325 1.0561 0.86326 1.4491 1.0791 2.3108 1.0791 2.274 0.86325 1.2925 1.9423 2.929 2.8056 4.2918 0.64744 0.6432 0.64744 0.34489 1.7265 0.17464 3.453 0.53412 2.5898 0.3347 1.7265-0.10699 1.5107-0.30674 3.2372-1.0278 0.64744-0.57623 0.64744-0.88934 0.86325-1.6421 1.0791-2.7048 4.1005-10.875 1.0791-1.701 1.0791-1.2376 0.86325-0.71578 0.86325-0.4205 0.64744-0.081951 0.64744 0.14902 0.86325 0.54515 0.43163 0.21465 0.43163-0.010369 0.43163-0.24958 0.43163-0.48082 0.64744-1.1915 1.2949-3.3079 0.64744-1.0821 0.64744-0.62096 0.43163-0.16236 0.43163 0.035572 0.43163 0.22902 1.2949 1.19 0.64744 0.95826 0.64744 1.392 0.86325 2.5098 1.0791 3.9794 1.0791 4.8502 1.2949 6.8678 1.7265 9.4029 0.64744 2.0908 0.43163 0.63461 0.86325 0.037564h17.913v0" clip-path="url(#f)" fill="none" stroke="#d2691e" stroke-linecap="square" stroke-width="1.5"/>
<path d="m40.603 375.64v-189.1" fill="none" stroke="#000" stroke-linecap="square" stroke-width=".8"/>
<path d="m486.62 375.64v-189.1" fill="none" stroke="#000" stroke-linecap="square" stroke-width=".8"/>
<path d="m40.603 375.64h446.02" fill="none" stroke="#000" stroke-linecap="square" stroke-width=".8"/>
<path d="m40.603 186.54h446.02" fill="none" stroke="#000" stroke-linecap="square" stroke-width=".8"/>
<defs>
<path id="z" d="m9.8125 72.906h14.703l18.594-49.609 18.703 49.609h14.703v-72.906h-9.625v64.016l-18.797-50h-9.9062l-18.797 50v-64.016h-9.5781z"/>
<path id="ap" d="m11.719 12.406h10.297v-12.406h-10.297zm0 39.297h10.297v-12.391h-10.297z"/>
<path id="y" d="m53.516 70.516v-9.625q-5.6094 2.6875-10.594 4-4.9844 1.3281-9.625 1.3281-8.0469 0-12.422-3.125t-4.375-8.8906q0-4.8438 2.9062-7.3125 2.9062-2.4531 11.016-3.9688l5.9531-1.2188q11.031-2.1094 16.281-7.4062t5.25-14.172q0-10.609-7.1094-16.078-7.0938-5.4688-20.812-5.4688-5.1719 0-11.016 1.1719-5.8281 1.1719-12.078 3.4688v10.156q6-3.3594 11.766-5.0781 5.7656-1.7031 11.328-1.7031 8.4375 0 13.031 3.3125 4.5938 3.3281 4.5938 9.4844 0 5.3594-3.2969 8.3906t-10.812 4.5469l-6.0156 1.1719q-11.031 2.1875-15.969 6.875-4.9219 4.6875-4.9219 13.047 0 9.6719 6.8125 15.234t18.766 5.5625q5.1406 0 10.453-0.9375 5.3281-0.92188 10.891-2.7656z"/>
<path id="ak" d="m-0.29688 72.906h61.672v-8.3125h-25.875v-64.594h-9.9062v64.594h-25.891z"/>
<path id="an" d="m19.672 64.797v-56.688h11.922q15.094 0 22.094 6.8281 7 6.8438 7 21.594 0 14.641-7 21.453t-22.094 6.8125zm-9.8594 8.1094h20.266q21.188 0 31.094-8.8125 9.9219-8.8125 9.9219-27.562 0-18.859-9.9688-27.703-9.9531-8.8281-31.047-8.8281h-20.266z"/>
</defs>
<g transform="translate(155.39 16.318) scale(.12 -.12)">
<use xlink:href="#z"/>
<use x="86.279297" xlink:href="#j"/>
<use x="147.460938" xlink:href="#n"/>
<use x="210.9375" xlink:href="#b"/>
<use x="272.460938" xlink:href="#q"/>
<use x="300.244141" xlink:href="#ap"/>
<use x="333.935547" xlink:href="#DejaVuSans-20"/>
<use x="365.722656" xlink:href="#y"/>
<use x="429.199219" xlink:href="#b"/>
<use x="490.722656" xlink:href="#h"/>
<use x="552.001953" xlink:href="#w"/>
<use x="615.478516" xlink:href="#h"/>
<use x="676.757812" xlink:href="#p"/>
<use x="715.966797" xlink:href="#b"/>
<use x="777.490234" xlink:href="#DejaVuSans-20"/>
<use x="809.277344" xlink:href="#y"/>
<use x="872.753906" xlink:href="#ak"/>
<use x="933.837891" xlink:href="#aa"/>
<use x="997.460938" xlink:href="#c"/>
<use x="1061.083984" xlink:href="#c"/>
<use x="1124.707031" xlink:href="#c"/>
<use x="1188.330078" xlink:href="#an"/>
<use x="1265.332031" xlink:href="#z"/>
<use x="1351.611328" xlink:href="#c"/>
<use x="1415.234375" xlink:href="#c"/>
<use x="1478.857422" xlink:href="#r"/>
</g>
<defs>
<clipPath id="k">
<rect x="40.603" y="28.8" width="446.02" height="141.83"/>
</clipPath>
<clipPath id="f">
<rect x="40.603" y="186.54" width="446.02" height="189.1"/>
</clipPath>
</defs>
</svg>
