<?xml version="1.0" encoding="UTF-8"?>
<!DOCTYPE svg  PUBLIC '-//W3C//DTD SVG 1.1//EN'  'http://www.w3.org/Graphics/SVG/1.1/DTD/svg11.dtd'>
<svg width="497pt" height="413pt" version="1.1" viewBox="0 0 497 413" xmlns="http://www.w3.org/2000/svg" xmlns:xlink="http://www.w3.org/1999/xlink">
<defs>
<style type="text/css">*{stroke-linecap:butt;stroke-linejoin:round;}</style>
</defs>
<path d="m0 413.2h497.32v-413.2h-497.32z" fill="#fff"/>
<path d="m40.603 170.63h446.02v-141.83h-446.02z" fill="#fff"/>
<defs>
<path id="ae" d="m60.877-235.45v-31.155l0.21352-0.012655 0.21352-0.012747 0.21352-0.012839 0.21352-0.012931 0.21352-0.013021 0.21352-0.013112 0.21352-0.013203 0.21352-0.013292 0.21352-0.013381 0.21352-0.013471 0.21352-0.01356 0.21352-0.013648 0.21352-0.013736 0.21352-0.018425 0.21352-0.023454 0.21352-0.023657 0.21352-0.023856 0.21352-0.024055 0.21352-0.024252 0.21352-0.024447 0.21352-0.024642 0.21352-0.024834 0.21352-0.025025 0.21352-0.025214 0.21352-0.025402 0.21352-0.025588 0.21352-0.025773 0.21352-0.025957 0.21352-0.026138 0.21352-0.026367 0.21352-0.026621 0.21352-0.026874 0.21352-0.027123 0.21352-0.02737 0.21352-0.027617 0.21352-0.027859 0.21352-0.0281 0.21352-0.02834 0.21352-0.028576 0.21352-0.028811 0.21352-0.029043 0.21352-0.029297 0.21352-0.029581 0.21352-0.029862 0.21352-0.030141 0.21352-0.030417 0.21352-0.03069 0.21352-0.03096 0.21352-0.031227 0.21352-0.031493 0.21352-0.031755 0.21352-0.032015 0.21352-0.032942 0.21352-0.033991 0.21352-0.035027 0.21352-0.035774 0.21352-0.035733 0.21352-0.035693 0.21352-0.035653 0.21352-0.035613 0.21352-0.035573 0.21352-0.035533 0.21352-0.035492 0.21352-0.035452 0.21352-0.035412 0.21352-0.035372 0.21352-0.035332 0.21352-0.035291 0.21352-0.035251 0.21352-0.035211 0.21352-0.035171 0.21352-0.035131 0.21352-0.03509 0.21352-0.03505 0.21352-0.03501 0.21352-0.03497 0.21352-0.03493 0.21352-0.034889 0.21352-0.034849 0.21352-0.034809 0.21352-0.034769 0.21352-0.034729 0.21352-0.034688 0.21352-0.034649 0.21352-0.030706 0.21352-0.030606 0.21352-0.030506 0.21352-0.03177 0.21352-0.033555 0.21352-0.033936 0.21352-0.034007 0.21352-0.034076 0.21352-0.034143 0.21352-0.03421 0.21352-0.034275 0.21352-0.03434 0.21352-0.034403 0.21352-0.034467 0.21352-0.034527 0.21352-0.034588 0.21352-0.034648 0.21352-0.030869 0.21352-0.030761 0.21352-0.030653 0.21352-0.030547 0.21352-0.03044 0.21352-0.030335 0.21352-0.030231 0.21352-0.030126 0.21352-0.030023 0.21352-0.02992 0.21352-0.029818 0.21352-0.029716 0.21352-0.029616 0.21352-0.026132 0.21352-0.022406 0.21352-0.022232 0.21352-0.02206 0.21352-0.021887 0.21352-0.021717 0.21352-0.021547 0.21352-0.021378 0.21352-0.02121 0.21352-0.021043 0.21352-0.020878 0.21352-0.020712 0.21352-0.020548 0.21352-0.020384 0.21352-0.020222 0.21352-0.020061 0.21352-0.019864 0.21352-0.019647 0.21352-0.019434 0.21352-0.019219 0.21352-0.019008 0.21352-0.018807 0.21352-0.01862 0.21352-0.018433 0.21352-0.018249 0.21352-0.018064 0.21352-0.01788 0.21352-0.017698 0.21352-0.017499 0.21352-0.017275 0.21352-0.017054 0.21352-0.016834 0.21352-0.016613 0.21352-0.016396 0.21352-0.016178 0.21352-0.015961 0.21352-0.015746 0.21352-0.015531 0.21352-0.015317 0.21352-0.014594 0.21352-0.013776 0.21352-0.012962 1.2811-0.074199 0.21352-0.012394 0.21352-0.012574 0.21352-0.012753 0.21352-0.012931 0.21352-0.013108 0.21352-0.013286 0.21352-0.013462 0.21352-0.013637 0.21352-0.013812 0.21352-0.013985 0.21352-0.014159 0.21352-0.014281 0.21352-0.01423 0.21352-0.014178 0.21352-0.014128 0.21352-0.014077 0.21352-0.014027 0.21352-0.013977 0.21352-0.013927 0.21352-0.013877 0.21352-0.013827 0.21352-0.013778 0.21352-0.013728 0.21352-0.01368 0.21352-0.01363 0.21352-0.013582 0.21352-0.012419 0.21352-0.010824 0.21352-0.010371 0.21352-0.010173 0.21352-0.009976 0.21352-0.009779 0.21352-0.009583 0.21352-0.009387 0.21352-0.009192 0.21352-0.008998 0.21352-0.008803 0.21352-0.00861 0.21352-0.008417 0.21352-0.008224 0.21352-0.011276 0.21352-0.011239 0.21352-0.011203 0.21352-0.011166 0.21352-0.01113 0.21352-0.011093 0.21352-0.011057 0.21352-0.011022 0.21352-0.010985 0.21352-0.010949 0.21352-0.010914 0.21352-0.010878 0.21352-0.010843 0.21352-0.010807 0.21352-0.010771 0.21352-0.010737 0.21352-0.010701 0.21352-0.010718 0.21352-0.010766 0.21352-0.010815 0.21352-0.010863 0.21352-0.010912 0.21352-0.01096 0.21352-0.011008 0.21352-0.011056 0.21352-0.011104 0.21352-0.011151 0.21352-0.011198 0.21352-0.011246 0.21352-0.011292 0.21352-0.01134 0.21352-0.011386 0.21352-0.011433 0.21352-0.011479 0.21352-0.011516 0.21352-0.011541 0.21352-0.011567 0.21352-0.1447 0.21352-0.14318 0.21352-0.14168 0.21352-0.14022 0.21352-0.13879 0.21352-0.13728 0.21352-0.13552 0.21352-0.13382 0.21352-0.13216 0.21352-0.13054 0.21352-0.12895 0.21352-0.12741 0.21352-0.1259 0.21352-0.12444 0.21352-0.123 0.21352-0.1216 0.21352-0.12023 0.21352-0.11889 0.21352-0.11758 0.21352-0.1163 0.21352-0.11505 0.21352-0.11383 0.21352-0.11515 0.21352-0.11479 0.21352-0.11428 0.21352-0.11269 0.21352-0.11113 0.21352-0.10962 0.21352-0.10814 0.21352-0.10669 0.21352-0.10528 0.21352-0.10389 0.21352-0.10254 0.21352-0.10122 0.21352-0.099928 0.21352-0.098696 0.21352-0.097591 0.21352-0.096511 0.21352-0.095452 0.21352-0.094413 0.21352-0.094574 0.21352-0.094856 0.21352-0.09448 0.21352-0.094106 0.21352-0.093838 0.21352-0.093683 0.21352-0.093525 0.21352-0.093363 0.21352-0.093198 0.21352-0.09303 0.21352-0.092859 0.21352-0.092685 0.21352-0.092508 0.21352-0.092329 0.21352-0.092147 0.21352-0.091962 0.21352-0.091775 0.21352-0.091586 0.21352-0.091394 0.21352-0.091201 0.21352-0.091005 0.21352-0.14916 0.21352-0.14765 0.21352-0.14614 0.21352-0.1442 0.21352-0.14232 0.21352-0.14049 0.21352-0.13871 0.21352-0.13697 0.21352-0.13528 0.21352-0.13363 0.21352-0.13202 0.21352-0.13045 0.21352-0.12892 0.21352-0.12742 0.21352-0.12596 0.21352-0.12453 0.21352-0.12314 0.21352-0.12178 0.21352-0.12045 0.21352-0.11915 0.21352-0.11786 0.21352-0.11658 0.21352-0.11681 0.21352-0.1166 0.21352-0.11781 0.21352-0.11897 0.21352-0.15372 0.21352-0.24209 0.21352-0.2386 0.21352-0.23359 0.21352-0.26986 0.21352-0.26324 0.21352-0.25693 0.21352-0.2907 0.21352-0.28282 0.21352-0.27537 0.21352-0.26829 0.21352-0.26158 0.21352-0.25531 0.21352-0.24968 0.21352-0.20936 0.21352-0.20559 0.21352-0.23406 0.21352-0.35085 0.21352-0.3392 0.21352-0.32832 0.21352-0.31818 0.21352-0.30865 0.21352-0.29967 0.21352-0.29121 0.21352-0.28321 0.21352-0.27563 0.21352-0.26904 0.21352-0.26397 0.21352-0.25912 0.21352-0.25446 0.21352-0.24998 0.21352-0.24567 0.21352-0.27349 0.21352-0.26614 0.21352-0.2593 0.21352-0.25291 0.21352-0.24634 0.21352-0.24041 0.21352-0.23477 0.21352-0.22957 0.21352-0.2246 0.21352-0.21984 0.21352-0.21528 0.21352-0.2109 0.21352-0.2067 0.21352-0.20267 0.21352-0.19879 0.21352-0.19506 0.21352-0.19146 0.21352-0.188 0.21352-0.21236 0.21352-0.20804 0.21352-0.20388 0.21352-0.19989 0.21352-0.19586 0.21352-0.19197 0.21352-0.18833 0.21352-0.18482 0.21352-0.18239 0.21352-0.1808 0.21352-0.17924 0.21352-0.17771 0.21352-0.17621 0.21352-0.17473 0.21352-0.17327 0.21352-0.1712 0.21352-0.16823 0.21352-0.16535 0.21352-0.16258 0.21352-0.15989 0.21352-0.1573 0.21352-0.15479 0.21352-0.15235 0.21352-0.14999 0.21352-0.14771 0.21352-0.1375 0.21352-0.13557 0.21352-0.13369 0.21352-0.13193 0.21352-0.13021 0.21352-0.12853 0.21352-0.1269 0.21352-0.12531 0.21352-0.12376 0.21352-0.12225 0.21352-0.12078 0.21352-0.11934 0.21352-0.11793 0.21352-0.11656 0.21352-0.11522 0.21352-0.11391 0.21352-0.11262 0.21352-0.11137 0.21352-0.11014 0.21352-0.10898 0.21352-0.10783 0.21352-0.10671 0.21352-0.1054 0.21352-0.10418 0.21352-0.10279 0.21352-0.10143 0.21352-0.095314 0.21352-0.081409 0.21352-0.080467 0.21352-0.07978 0.21352-0.072879 0.21352-0.07232 0.21352-0.071769 0.21352-0.064835 0.21352-0.064405 0.21352-0.063982 0.21352-0.063564 0.21352-0.063151 0.21352-0.062723 0.21352-0.062239 0.21352-0.061763 0.21352-0.061293 0.21352-0.054748 0.21352-0.030714 0.21352-0.030612 0.21352-0.030511 0.21352-0.030411 0.21352-0.030311 0.21352-0.030211 0.21352-0.030113 0.21352-0.030015 0.21352-0.029919 0.21352-0.029688 0.21352-0.029153 0.21352-0.028621 0.21352-0.028094 0.21352-0.027571 0.21352-0.027051 0.21352-0.017467 0.21352-0.017519 0.21352-0.017533 0.21352-0.017511 0.21352-0.017488 0.21352-0.017467 0.21352-0.017446 0.21352-0.017423 0.21352-0.017402 0.21352-0.017381 0.21352-0.017342 0.21352-0.017301 0.21352-0.017259 0.21352-0.017218 0.21352-0.017177 0.21352-0.017135 0.21352-0.017095 0.21352-0.017054 0.42704-0.011498 0.42704-0.011538 0.42704-0.011578 0.21352-0.005803 0.21352-0.005814 0.21352-0.005363 0.21352-0.004536 0.21352-0.003708 0.21352-0.002881 0.21352-0.002056 0.21352-0.001231 0.21352-4.05e-4 0.21352 8e-5 0.21352 4.9e-5 0.21352 2e-5 0.21352-1.1e-5 0.21352-3.7e-5 0.21352-6e-5 0.21352-8.2e-5 0.21352-1.06e-4 0.21352-1.28e-4 0.85408-6.1e-4 2.3487-0.001962 1.0676-9.99e-4 0.21352-1.86e-4 0.21352-1.65e-4 0.21352-1.45e-4 0.21352-1.25e-4 0.21352-1.04e-4 0.21352-8.4e-5 0.21352-6.3e-5 0.21352-4.3e-5 0.21352-2.2e-5 0.21352-4e-6 0.21352 4e-6 0.85408-3.5e-5 0.85408-1.17e-4 0.64056-1.41e-4 0.21352-0.004803 0.21352-0.02135 0.21352-0.021221 0.21352-0.021147 0.21352-0.021075 0.21352-0.021001 0.21352-0.020928 0.21352-0.020857 0.21352-0.02091 0.21352-0.021025 0.21352-0.021135 0.21352-0.021238 0.21352-0.021338 0.21352-0.021439 0.21352-0.021539 0.21352-0.021637 0.21352-0.02551 0.21352-0.025411 0.21352-0.025314 0.21352-0.025217 0.21352-0.02512 0.21352-0.025023 0.21352-0.024938 0.21352-0.024875 0.21352-0.024813 0.21352-0.024752 0.21352-0.02469 0.21352-0.024644 0.21352-0.024603 0.21352-0.02456 0.21352-0.024518 0.21352-0.024477 0.21352-0.024435 0.21352-0.024394 0.21352-0.024353 0.21352-0.024311 0.21352-0.024271 0.21352-0.02423 0.21352-0.024189 0.21352-0.024149 0.21352-0.024108 0.21352-0.029039 0.21352-0.028953 0.21352-0.028865 0.21352-0.02878 0.21352-0.028695 0.21352-0.028609 0.21352-0.028525 0.21352-0.028441 0.21352-0.028358 0.21352-0.028275 0.21352-0.028192 0.21352-0.02811 0.21352-0.028029 0.21352-0.027947 0.21352-0.027833 0.21352-0.027708 0.21352-0.027605 0.21352-0.027517 0.21352-0.027429 0.21352-0.027346 0.21352-0.027265 0.21352-0.027186 0.21352-0.027108 0.21352-0.027033 0.21352-0.02696 0.21352-0.026886 0.21352-0.026812 0.21352-0.02674 0.21352-0.026668 0.21352-0.026596 0.21352-0.026522 0.21352-0.026447 0.21352-0.026373 0.21352-0.026299 0.21352-0.026225 0.21352-0.026151 0.21352-0.026079 0.21352-0.026005 0.21352-0.025934 0.21352-0.025862 0.21352-0.025795 0.21352-0.025729 0.21352-0.025663 0.21352-0.025597 0.21352-0.025532 0.21352-0.025468 0.21352-0.025402 0.21352-0.025339 0.21352-0.025271 0.21352-0.025193 0.21352-0.025115 0.21352-0.025038 0.21352-0.024962 0.21352-0.024885 0.21352-0.024812 0.21352-0.02474 0.21352-0.024669 0.21352-0.024599 0.21352-0.024528 0.21352-0.024458 0.21352-0.020689 0.21352-0.007738 0.42704-0.01559 0.42704-0.015629 0.42704-0.01567 0.21352-0.00775 0.21352-0.007614 0.21352-0.007478 0.21352-0.007342 0.21352-0.007206 0.21352-0.007071 0.21352-0.006937 0.21352-0.006801 0.42704-0.00733 0.21352-0.003682 0.21352-0.003694 0.21352-0.003705 0.42704-0.007436 0.21352-0.003704 0.21352-0.00369 0.21352-0.003674 0.21352-0.003659 0.21352-0.003623 0.21352-0.003586 0.21352-0.003549 0.21352-0.003511 0.21352-0.003473 0.21352-0.003436 0.21352-0.003397 0.21352-0.003361 0.21352-0.003332 0.21352-0.003302 0.21352-0.003273 0.21352-0.003244 0.21352-0.003215 0.21352-0.003186 0.21352 0.001017 0.21352 0.001028 0.21352 0.001037 0.21352 0.001048 0.21352 0.001058 0.21352 0.001065 0.21352 0.001071 0.21352 0.001075 0.21352 0.001081 0.21352 0.001086 0.21352 0.001091 0.21352 0.001097 0.21352 0.001102 0.21352 0.001107 0.21352 0.001083 0.21352 0.001048 1.0676 0.005134 0.21352 0.001045 0.42704 0.002185 0.64056 0.003222 0.42704 0.002112 0.64056 0.003114 0.42704 0.002039 0.42704 0.00201 0.42704 0.001981 1.4946 0.00677 0.42704 0.001911 0.21352 9.96e-4 0.21352 0.001036 1.0676 0.005192 0.21352 0.001041 0.21352 0.001044 0.21352 0.001048 0.21352 0.001052 0.21352 0.001056 0.21352 0.001059 0.21352 0.001063 0.21352 0.001067 0.21352 0.001071 0.42704 0.002151 0.21352 0.001078 0.21352 0.00108 0.42704 0.002165 0.42704 0.002173 0.42704 0.002179 0.42704 0.002187 0.42704 0.002195 0.21352 0.001099 0.42704 0.002205 0.42704 0.002213 0.42704 0.002219 0.21352 0.001113 0.21352 0.001116 0.21352 0.00112 0.21352 0.001104 0.21352 0.001084 0.21352 0.001066 0.21352 0.001047 0.21352 0.001027 0.21352 0.001008 0.21352 9.89e-4 0.21352 9.71e-4 0.21352 9.6e-4 0.21352 9.49e-4 0.42704 0.001866 0.21352 9.16e-4 0.21352 9.04e-4 0.21352 8.89e-4 0.21352 8.76e-4 0.21352 8.63e-4 0.21352 8.49e-4 0.42704 0.001662 0.42704 0.001627 0.42704 0.001593 0.42704 0.001559 0.42704 0.001527 0.42704 0.001492 0.42704 0.001459 0.42704 0.001426 0.21352 7e-4 0.21352 6.64e-4 0.21352 6.02e-4 0.21352 6.04e-4 0.21352 6.17e-4 0.21352 6.3e-4 0.21352 6.43e-4 0.21352 6.56e-4 0.21352 6.69e-4 0.21352 6.88e-4 0.21352 7.17e-4 0.21352 7.47e-4 0.21352 7.71e-4 0.21352 7.82e-4 0.21352 7.93e-4 0.21352 8.05e-4 0.21352 8.17e-4 0.21352 8.28e-4 0.21352 8.4e-4 0.42704 0.001887 0.21352 9.46e-4 0.42704 0.001899 0.42704 0.001907 0.21352 9.55e-4 0.21352 9.13e-4 1.9217 0.007805 0.21352 8.71e-4 0.21352 8.73e-4 0.21352 8.76e-4 0.21352 8.78e-4 0.21352 8.81e-4 0.21352 8.84e-4 0.21352 8.86e-4 0.21352 8.91e-4 0.21352 8.95e-4 0.21352 9.02e-4 0.21352 9.11e-4 0.21352 9.19e-4 0.21352 9.28e-4 0.21352 9.37e-4 0.21352 9.46e-4 0.21352 9.55e-4 0.21352 9.64e-4 0.21352 0.001004 0.21352 0.001047 0.64056 0.003167 3.6298 0.017894 0.85408 0.004112 1.4946 0.00706 1.4946 0.006919 1.4946 0.006779 0.85408 0.003808 0.21352 9.3e-4 0.21352 9.14e-4 0.21352 8.97e-4 0.21352 8.81e-4 0.21352 8.65e-4 0.21352 8.44e-4 0.21352 8.1e-4 0.21352 7.78e-4 0.21352 7.51e-4 0.21352 7.36e-4 0.21352 7.21e-4 0.21352 7.07e-4 0.21352 6.92e-4 0.21352 6.78e-4 0.21352 6.62e-4 0.85408 0.002195 0.85408 0.002114 0.85408 0.002032 0.85408 0.001952 0.42704 9.4e-4 0.42704 9.07e-4 0.42704 8.74e-4 0.42704 8.42e-4 0.42704 8.08e-4 0.21352 3.92e-4 0.21352 3.81e-4 0.21352 3.69e-4 0.21352 3.57e-4 0.21352 3.44e-4 0.21352 3.32e-4 0.21352 3.19e-4 0.21352 3.06e-4 0.21352 2.94e-4 0.21352 2.5e-4 0.21352 2.03e-4 0.85408 7.39e-4 1.7082 0.001295 2.1352 0.001438 0.42704 2.93e-4 0.21352 1.5e-4 0.21352 1.52e-4 0.21352 1.54e-4 0.42704 3.15e-4 0.42704 3.25e-4 0.21352 1.65e-4 0.21352 1.68e-4 0.21352 1.7e-4 0.42704 3.47e-4 0.21352 1.77e-4 0.21352 1.79e-4 0.42704 3.65e-4 0.21352 1.84e-4 0.42704 3.73e-4 0.21352 1.88e-4 0.42704 3.81e-4 0.42704 3.85e-4 0.42704 3.91e-4 0.21352 1.97e-4 0.42704 3.99e-4 0.21352 2.01e-4 0.42704 4.07e-4 0.42704 4.11e-4 0.42704 4.17e-4 0.42704 4.22e-4 0.42704 4.27e-4 0.42704 4.33e-4 0.21352 2.18e-4 0.42704 4.4e-4 0.21352 2.22e-4 0.64056 6.74e-4 0.42704 4.56e-4 0.42704 4.61e-4 0.42704 4.67e-4 0.42704 4.71e-4 0.21352 3.4e-4 0.21352 3.43e-4 0.21352 3.46e-4 0.21352 3.51e-4 0.21352 3.53e-4 0.21352 3.58e-4 0.21352 3.61e-4 0.21352 3.65e-4 0.21352 3.68e-4 0.21352 3.72e-4 0.21352 3.75e-4 0.21352 3.79e-4 0.21352 3.83e-4 0.21352 3.86e-4 0.21352 3.9e-4 0.21352 3.93e-4 0.21352 3.97e-4 0.21352 4.01e-4 0.21352 4.04e-4 0.21352 4.08e-4 0.21352 4.11e-4 0.21352 4.15e-4 0.21352 4.21e-4 0.21352 4.3e-4 0.21352 4.39e-4 0.21352 4.48e-4 0.21352 4.56e-4 0.21352 4.65e-4 0.21352 4.74e-4 0.21352 4.8e-4 0.21352 4.88e-4 0.21352 4.93e-4 0.21352 5.06e-4 0.21352 5.51e-4 0.21352 5.95e-4 0.21352 5.99e-4 0.21352 6.02e-4 0.21352 6.06e-4 0.21352 6.1e-4 0.21352 6.13e-4 0.21352 6.18e-4 0.21352 6.2e-4 0.21352 6.25e-4 0.21352 6.28e-4 0.21352 6.32e-4 0.21352 6.36e-4 0.21352 6.4e-4 0.21352 6.43e-4 0.21352 6.47e-4 0.85408 0.002598 0.64056 0.001954 0.42704 0.001305 0.42704 0.001308 0.21352 6.56e-4 0.42704 0.001317 0.21352 6.6e-4 0.42704 0.001325 0.42704 0.001331 0.42704 0.001337 0.42704 0.001343 0.42704 0.001349 0.21352 6.76e-4 0.42704 0.001357 0.42704 0.00136 0.85408 0.00273 0.64056 0.002056 0.64056 0.002063 0.21352 6.89e-4 0.64056 0.002073 0.64056 0.00208 0.42704 0.001391 0.64056 0.002092 1.7082 0.004736 0.21352 5.94e-4 0.21352 5.96e-4 0.21352 6e-4 0.21352 6.02e-4 0.21352 6.06e-4 0.21352 6.09e-4 0.21352 6.12e-4 0.21352 6.15e-4 0.21352 6.18e-4 0.21352 6.21e-4 1.2811 0.003739 0.64056 0.001804 0.64056 0.001743 0.42704 0.001129 0.21352 5.49e-4 0.21352 5.03e-4 1.0676 0.002254 1.0676 0.002157 1.9217 0.003666 0.21352 4.12e-4 0.21352 4.2e-4 0.21352 4.28e-4 0.21352 4.36e-4 0.21352 4.45e-4 0.21352 4.52e-4 0.21352 4.61e-4 0.21352 4.69e-4 0.21352 5.86e-4 0.21352 6.01e-4 0.21352 6.16e-4 0.21352 6.31e-4 0.21352 6.46e-4 0.21352 6.71e-4 0.21352 7.14e-4 0.21352 7.52e-4 0.21352 7.7e-4 0.21352 7.89e-4 0.21352 8.06e-4 5.1244 0.019776 2.7757 0.01051 0.64056 0.002366 0.64056 0.002317 0.64056 0.002268 0.21352 7.86e-4 0.21352 8.27e-4 0.21352 8.5e-4 0.21352 8.68e-4 0.21352 8.89e-4 0.21352 9.09e-4 6.1921 0.026544 0.42704 0.0018 0.42704 0.001762 0.42704 0.001724 0.42704 0.001687 0.21352 8.29e-4 0.42704 0.001415 0.21352 7.12e-4 0.21352 7.19e-4 0.21352 7.25e-4 0.85408 0.003289 0.42704 0.001613 0.42704 0.001591 0.21352 8.08e-4 0.21352 8.21e-4 0.21352 8.42e-4 0.21352 8.71e-4 0.21352 8.99e-4 0.21352 9.31e-4 0.21352 9.71e-4 0.21352 0.001009 0.21352 0.001143 0.21352 0.001201 0.21352 0.001228 0.21352 0.001236 0.21352 0.001243 0.21352 0.001249 0.21352 0.001257 0.21352 0.001263 0.21352 0.00127 0.21352 0.001277 0.21352 0.001284 0.21352 0.00129 0.21352 0.001298 0.21352 0.001313 0.21352 0.001411 0.21352 0.001505 0.21352 0.001514 0.21352 0.00152 0.21352 0.001527 0.21352 0.001533 0.21352 0.00154 0.21352 0.001546 0.21352 0.001552 0.21352 0.001558 0.21352 0.001565 0.21352 0.001571 0.21352 0.001578 0.21352 0.001584 0.21352 0.001589 0.21352 0.001593 0.21352 0.001597 0.21352 0.001602 0.21352 0.001606 0.21352 0.00161 0.21352 0.001615 0.21352 0.001619 0.21352 0.001581 0.21352 0.001539 0.21352 0.001516 0.21352 0.001498 0.21352 0.001481 0.64056 0.004376 0.21352 0.001464 0.21352 0.001473 0.21352 0.001484 0.21352 0.001494 0.21352 0.001504 0.21352 0.001514 0.21352 0.001524 0.21352 0.001535 0.21352 0.001544 0.21352 0.001571 0.21352 0.001597 0.21352 0.001625 0.21352 0.001646 0.21352 0.001656 0.21352 0.001667 0.21352 0.001676 0.21352 0.001687 0.21352 0.001697 0.21352 0.001708 0.21352 0.001718 0.21352 0.001731 0.21352 0.001785 0.64056 0.005485 0.85408 0.007322 0.64056 0.005498 1.2811 0.011 0.21352 0.001803 0.21352 0.00178 0.21352 0.001756 0.21352 0.001624 0.21352 0.001588 0.21352 0.001552 0.21352 0.001534 0.21352 0.001522 0.21352 0.001511 0.21352 0.001499 0.21352 0.001487 0.21352 0.001476 0.21352 0.001464 0.21352 0.001443 0.21352 0.001415 0.21352 0.001387 0.21352 0.001356 0.21352 0.001316 0.21352 0.001278 0.21352 0.001143 0.21352 0.00109 0.42704 0.002139 0.85408 0.004286 1.0676 0.005367 0.21352 0.001055 0.21352 9.57e-4 0.64056 0.002562 0.85408 0.003332 0.64056 0.002439 1.0676 0.003957 1.0676 0.003858 1.2811 0.004511 0.85408 0.002934 0.21352 7.18e-4 0.42704 0.001405 0.42704 0.001369 0.21352 6.86e-4 0.21352 6.91e-4 0.21352 6.97e-4 0.21352 6.86e-4 0.21352 6.74e-4 0.21352 6.6e-4 1.9217 0.005811 0.21352 6.01e-4 0.21352 5.72e-4 0.21352 5.85e-4 0.21352 5.99e-4 0.21352 6.11e-4 0.21352 6.25e-4 0.21352 6.61e-4 0.21352 6.97e-4 0.64056 0.002174 0.64056 0.00218 0.64056 0.002186 0.64056 0.002191 0.85408 0.002931 0.85408 0.002941 0.64056 0.002213 0.64056 0.002218 0.85408 0.002963 0.21352 8.09e-4 0.21352 9.06e-4 0.21352 9.96e-4 0.21352 0.001053 0.21352 0.001093 0.21352 0.001114 0.21352 0.001119 0.21352 0.001122 0.21352 0.001126 0.21352 0.001131 0.21352 0.001141 0.21352 0.001152 0.21352 0.001162 0.21352 0.001191 0.21352 0.001223 0.21352 0.001254 0.21352 0.001279 0.21352 0.0013 0.21352 0.001322 0.21352 0.001343 0.21352 0.001366 0.21352 0.001393 0.21352 0.00142 0.21352 0.001447 0.21352 0.00146 0.21352 0.001468 0.21352 0.001474 0.21352 0.00148 0.21352 0.001488 0.21352 0.001494 0.21352 0.001501 0.21352 0.001508 0.21352 0.001515 0.21352 0.001522 0.21352 0.001528 0.21352 0.001641 0.21352 0.001657 0.21352 0.001672 0.21352 0.001689 0.21352 0.001705 0.21352 0.001721 0.21352 0.001797 0.21352 0.001997 0.21352 0.006048 0.21352 0.006097 0.21352 0.006131 0.21352 0.006145 1.4946 0.043055 0.21352 0.006155 0.21352 0.006162 0.21352 0.006169 0.21352 0.006177 0.21352 0.006183 0.85408 0.024762 0.42704 0.012351 0.42704 0.012321 0.42704 0.012291 0.21352 0.006112 0.21352 0.00608 0.21352 0.006059 0.21352 0.006064 0.21352 0.006069 0.21352 0.006076 0.21352 0.00608 0.21352 0.006086 0.21352 0.006092 0.21352 0.006097 0.21352 0.006102 0.21352 0.006116 0.21352 0.006136 0.21352 0.006157 0.21352 0.006178 0.21352 0.006198 0.21352 0.006219 0.21352 0.006242 0.21352 0.006266 0.21352 0.006288 0.21352 0.006311 0.21352 0.006395 0.21352 0.006571 0.21352 0.006747 0.21352 0.006923 0.21352 0.007099 0.21352 0.007277 0.21352 0.007454 0.21352 0.011212 0.21352 0.011233 0.21352 0.011253 0.21352 0.011275 0.21352 0.011215 0.21352 0.011127 0.21352 0.011047 0.21352 0.011002 0.42704 0.021942 0.21352 0.010984 0.21352 0.011003 0.21352 0.011019 0.21352 0.011038 0.21352 0.011055 0.21352 0.011069 0.64056 0.033231 0.42704 0.022121 0.21352 0.011063 0.21352 0.011382 0.21352 0.011581 0.21352 0.011779 0.21352 0.011972 0.21352 0.015472 0.21352 0.023664 0.21352 0.023946 0.21352 0.028606 0.21352 0.037999 0.21352 0.038229 0.21352 0.038461 0.21352 0.043182 0.21352 0.043376 0.21352 0.043571 0.21352 0.043767 0.21352 0.043966 0.21352 0.044165 0.21352 0.044448 0.21352 0.044763 0.21352 0.045083 0.21352 0.051211 0.21352 0.06003 0.21352 0.062985 0.21352 0.071351 0.21352 0.071621 0.21352 0.067389 0.21352 0.067784 0.21352 0.068203 0.21352 0.068652 0.21352 0.069106 0.21352 0.069567 0.21352 0.070034 0.21352 0.070506 0.21352 0.070986 0.21352 0.071472 0.21352 0.071964 0.21352 0.072461 0.21352 0.072965 0.21352 0.073475 0.21352 0.073993 0.21352 0.085655 0.21352 0.086358 0.21352 0.087077 0.21352 0.087818 0.21352 0.088571 0.21352 0.089339 0.21352 0.090118 0.21352 0.090913 0.21352 0.091721 0.21352 0.092544 0.21352 0.093381 0.21352 0.094234 0.21352 0.095103 0.21352 0.095988 0.21352 0.096889 0.21352 0.097808 0.21352 0.098745 0.21352 0.099699 0.21352 0.10067 0.21352 0.10166 0.21352 0.10268 0.21352 0.10371 0.21352 0.10475 0.21352 0.1058 0.21352 0.10688 0.21352 0.10797 0.21352 0.10909 0.21352 0.11023 0.21352 0.11139 0.21352 0.11258 0.21352 0.1138 0.21352 0.11504 0.21352 0.1162 0.21352 0.11723 0.21352 0.11828 0.21352 0.11935 0.21352 0.12044 0.21352 0.12155 0.21352 0.12269 0.21352 0.11718 0.21352 0.11852 0.21352 0.11988 0.21352 0.12128 0.21352 0.12271 0.21352 0.12421 0.21352 0.12575 0.21352 0.12734 0.21352 0.12896 0.21352 0.13062 0.21352 0.13231 0.21352 0.13405 0.21352 0.13583 0.21352 0.13766 0.21352 0.13954 0.21352 0.14148 0.21352 0.14348 0.21352 0.14553 0.21352 0.14764 0.21352 0.14982 0.21352 0.15206 0.21352 0.15436 0.21352 0.15597 0.21352 0.15791 0.21352 0.15991 0.21352 0.16196 0.21352 0.15556 0.21352 0.13664 0.21352 0.14755 0.21352 0.13744 0.21352 0.11429 0.21352 0.11534 0.21352 0.11642 0.21352 0.10521 0.21352 0.10628 0.21352 0.10737 0.21352 0.10848 0.21352 0.10964 0.21352 0.11085 0.21352 0.11152 0.21352 0.11242 0.21352 0.11334 0.21352 0.097437 0.21352 0.07352 0.21352 0.066525 0.21352 0.043605 0.21352 0.043774 0.21352 0.043946 0.21352 0.044117 0.21352 0.044291 0.21352 0.044466 0.21352 0.044643 0.21352 0.04482 0.21352 0.045 0.21352 0.04518 0.21352 0.045363 0.21352 0.045547 0.21352 0.045733 0.21352 0.045919 0.21352 0.046109 0.21352 0.046298 0.21352 0.046491 0.21352 0.015859 0.21352 0.01588 0.21352 0.015901 0.21352 0.015923 0.21352 0.015943 0.21352 0.015964 0.21352 0.015986 0.21352 0.016006 0.21352 0.016028 0.21352 0.01605 0.21352 0.016071 0.21352 0.016092 0.21352 0.016114 0.21352 0.016136 0.21352 0.016157 0.21352 0.016179 0.21352 0.016201 0.21352 0.016222 0.21352 0.016245 0.21352 0.016267 0.21352 0.016288 0.21352 0.016311 0.21352 0.016333 0.21352 0.016355 0.21352 0.016378 0.21352 0.0164 0.21352 0.016422 0.21352 0.016445 0.21352 0.016468 0.21352 0.01649 0.21352 0.016513 0.21352 0.016535 0.21352 0.016559 0.21352 0.016581 0.21352 0.016605 0.21352 0.016627 0.21352 0.016651 0.21352 0.016674 0.21352 0.016697 0.21352 0.01672 0.21352 0.016744 0.21352 0.016767 0.21352 0.016791 0.21352 0.016815 0.21352 0.016782 0.21352 0.016725 0.21352 0.01667 0.21352 0.016612 0.21352 0.016554 0.21352 0.016497 0.21352 0.01644 0.21352 0.016381 0.21352 0.016322 0.21352 0.016263 0.21352 0.016204 0.21352 0.016145 0.21352 0.016084 0.21352 0.030662 0.21352 0.064738 0.21352 0.06511 0.21352 0.065485 0.21352 0.065866 0.21352 0.066249 0.21352 0.066639 0.21352 0.067034 0.21352 0.067432 0.21352 0.084427 0.21352 0.070911 0.21352 0.071653 0.21352 0.072408 0.21352 0.073174 0.21352 0.073954 0.21352 0.088321 0.21352 0.092797 0.21352 0.093606 0.21352 0.094429 0.21352 0.09523 0.21352 0.096011 0.21352 0.096805 0.21352 0.097615 0.21352 0.098438 0.21352 0.099277 0.21352 0.10013 0.21352 0.101 0.21352 0.10198 0.21352 0.10301 0.21352 0.10406 0.21352 0.10514 0.21352 0.10624 0.21352 0.10736 0.21352 0.1085 0.21352 0.10967 0.21352 0.11087 0.21352 0.11209 0.21352 0.11334 0.21352 0.11461 0.21352 0.11592 0.21352 0.11725 0.21352 0.11862 0.21352 0.12002 0.21352 0.12145 0.21352 0.12291 0.21352 0.12441 0.21352 0.12595 0.21352 0.12882 0.21352 0.13544 0.21352 0.1423v51.498h-405.47z" stroke="#0766aa" stroke-opacity=".2"/>
</defs>
<g clip-path="url(#h)">
<use y="413.19625" fill="#0766aa" fill-opacity=".2" stroke="#0766aa" stroke-opacity=".2" xlink:href="#ae"/>
</g>
<path d="m60.154 170.63v-141.83" clip-path="url(#h)" fill="none" stroke="#b0b0b0" stroke-linecap="square" stroke-width=".8"/>
<defs>
<path id="c" d="m0 0v3.5" stroke="#000" stroke-width=".8"/>
</defs>
<use x="60.15438" y="170.627393" stroke="#000000" stroke-width=".8" xlink:href="#c"/>
<path d="m144.81 170.63v-141.83" clip-path="url(#h)" fill="none" stroke="#b0b0b0" stroke-linecap="square" stroke-width=".8"/>
<use x="144.808061" y="170.627393" stroke="#000000" stroke-width=".8" xlink:href="#c"/>
<path d="m229.46 170.63v-141.83" clip-path="url(#h)" fill="none" stroke="#b0b0b0" stroke-linecap="square" stroke-width=".8"/>
<use x="229.461743" y="170.627393" stroke="#000000" stroke-width=".8" xlink:href="#c"/>
<path d="m314.12 170.63v-141.83" clip-path="url(#h)" fill="none" stroke="#b0b0b0" stroke-linecap="square" stroke-width=".8"/>
<use x="314.115424" y="170.627393" stroke="#000000" stroke-width=".8" xlink:href="#c"/>
<path d="m398.77 170.63v-141.83" clip-path="url(#h)" fill="none" stroke="#b0b0b0" stroke-linecap="square" stroke-width=".8"/>
<use x="398.769105" y="170.627393" stroke="#000000" stroke-width=".8" xlink:href="#c"/>
<path d="m483.42 170.63v-141.83" clip-path="url(#h)" fill="none" stroke="#b0b0b0" stroke-linecap="square" stroke-width=".8"/>
<use x="483.422787" y="170.627393" stroke="#000000" stroke-width=".8" xlink:href="#c"/>
<defs>
<path id="d" d="m0 0h-3.5" stroke="#000" stroke-width=".8"/>
</defs>
<use x="40.603125" y="154.105211" stroke="#000000" stroke-width=".8" xlink:href="#d"/>
<defs>
<path id="f" d="m12.406 8.2969h16.109v55.625l-17.531-3.5156v8.9844l17.438 3.5156h9.8594v-64.609h16.109v-8.2969h-41.984z"/>
<path id="g" d="m31.781 66.406q-7.6094 0-11.453-7.5-3.8281-7.4844-3.8281-22.531 0-14.984 3.8281-22.484 3.8438-7.5 11.453-7.5 7.6719 0 11.5 7.5 3.8438 7.5 3.8438 22.484 0 15.047-3.8438 22.531-3.8281 7.5-11.5 7.5zm0 7.8125q12.266 0 18.734-9.7031 6.4688-9.6875 6.4688-28.141 0-18.406-6.4688-28.109-6.4688-9.6875-18.734-9.6875-12.25 0-18.719 9.6875-6.4688 9.7031-6.4688 28.109 0 18.453 6.4688 28.141 6.4688 9.7031 18.719 9.7031z"/>
</defs>
<g transform="translate(16.003 157.9) scale(.1 -.1)">
<use transform="translate(0 .68438)" xlink:href="#f"/>
<use transform="translate(63.623 .68438)" xlink:href="#g"/>
<use transform="translate(128.2 38.966) scale(.7)" xlink:href="#f"/>
</g>
<use x="40.603125" y="130.467312" stroke="#000000" stroke-width=".8" xlink:href="#d"/>
<defs>
<path id="r" d="m19.188 8.2969h34.422v-8.2969h-46.281v8.2969q5.6094 5.8125 15.297 15.594 9.7031 9.7969 12.188 12.641 4.7344 5.3125 6.6094 9 1.8906 3.6875 1.8906 7.25 0 5.8125-4.0781 9.4688-4.0781 3.6719-10.625 3.6719-4.6406 0-9.7969-1.6094-5.1406-1.6094-11-4.8906v9.9688q5.9531 2.3906 11.125 3.6094 5.1875 1.2188 9.4844 1.2188 11.328 0 18.062-5.6719 6.7344-5.6562 6.7344-15.125 0-4.5-1.6875-8.5312-1.6719-4.0156-6.125-9.4844-1.2188-1.4219-7.7656-8.1875-6.5312-6.7656-18.453-18.922z"/>
</defs>
<g transform="translate(16.003 134.27) scale(.1 -.1)">
<use transform="translate(0 .76562)" xlink:href="#f"/>
<use transform="translate(63.623 .76562)" xlink:href="#g"/>
<use transform="translate(128.2 39.047) scale(.7)" xlink:href="#r"/>
</g>
<use x="40.603125" y="106.829413" stroke="#000000" stroke-width=".8" xlink:href="#d"/>
<defs>
<path id="q" d="m40.578 39.312q7.0781-1.5156 11.047-6.3125 3.9844-4.7812 3.9844-11.812 0-10.781-7.4219-16.703-7.4219-5.9062-21.094-5.9062-4.5781 0-9.4375 0.90625t-10.031 2.7188v9.5156q4.0938-2.3906 8.9688-3.6094 4.8906-1.2188 10.219-1.2188 9.2656 0 14.125 3.6562t4.8594 10.641q0 6.4531-4.5156 10.078-4.5156 3.6406-12.562 3.6406h-8.5v8.1094h8.8906q7.2656 0 11.125 2.9062t3.8594 8.375q0 5.6094-3.9844 8.6094-3.9688 3.0156-11.391 3.0156-4.0625 0-8.7031-0.89062-4.6406-0.875-10.203-2.7188v8.7812q5.625 1.5625 10.531 2.3438t9.25 0.78125q11.234 0 17.766-5.1094 6.5469-5.0938 6.5469-13.781 0-6.0625-3.4688-10.234t-9.8594-5.7812z"/>
</defs>
<g transform="translate(16.003 110.63) scale(.1 -.1)">
<use transform="translate(0 .76562)" xlink:href="#f"/>
<use transform="translate(63.623 .76562)" xlink:href="#g"/>
<use transform="translate(128.2 39.047) scale(.7)" xlink:href="#q"/>
</g>
<use x="40.603125" y="83.191514" stroke="#000000" stroke-width=".8" xlink:href="#d"/>
<defs>
<path id="p" d="m37.797 64.312-24.906-38.922h24.906zm-2.5938 8.5938h12.406v-47.516h10.406v-8.2031h-10.406v-17.188h-9.8125v17.188h-32.906v9.5156z"/>
</defs>
<g transform="translate(16.003 86.991) scale(.1 -.1)">
<use transform="translate(0 .68438)" xlink:href="#f"/>
<use transform="translate(63.623 .68438)" xlink:href="#g"/>
<use transform="translate(128.2 38.966) scale(.7)" xlink:href="#p"/>
</g>
<use x="40.603125" y="59.553615" stroke="#000000" stroke-width=".8" xlink:href="#d"/>
<defs>
<path id="ac" d="m10.797 72.906h38.719v-8.3125h-29.688v-17.859q2.1406 0.73438 4.2812 1.0938 2.1562 0.35938 4.3125 0.35938 12.203 0 19.328-6.6875 7.1406-6.6875 7.1406-18.109 0-11.766-7.3281-18.297-7.3281-6.5156-20.656-6.5156-4.5938 0-9.3594 0.78125-4.75 0.78125-9.8281 2.3438v9.9219q4.3906-2.3906 9.0781-3.5625t9.9062-1.1719q8.4531 0 13.375 4.4375 4.9375 4.4375 4.9375 12.062 0 7.6094-4.9375 12.047-4.9219 4.4531-13.375 4.4531-3.9531 0-7.8906-0.875-3.9219-0.875-8.0156-2.7344z"/>
</defs>
<g transform="translate(16.003 63.353) scale(.1 -.1)">
<use transform="translate(0 .68438)" xlink:href="#f"/>
<use transform="translate(63.623 .68438)" xlink:href="#g"/>
<use transform="translate(128.2 38.966) scale(.7)" xlink:href="#ac"/>
</g>
<use x="40.603125" y="35.915717" stroke="#000000" stroke-width=".8" xlink:href="#d"/>
<defs>
<path id="o" d="m33.016 40.375q-6.6406 0-10.531-4.5469-3.875-4.5312-3.875-12.438 0-7.8594 3.875-12.438 3.8906-4.5625 10.531-4.5625t10.516 4.5625q3.875 4.5781 3.875 12.438 0 7.9062-3.875 12.438-3.875 4.5469-10.516 4.5469zm19.578 30.922v-8.9844q-3.7188 1.75-7.5 2.6719-3.7812 0.9375-7.5 0.9375-9.7656 0-14.922-6.5938-5.1406-6.5938-5.875-19.922 2.875 4.25 7.2188 6.5156 4.3594 2.2656 9.5781 2.2656 10.984 0 17.359-6.6719 6.375-6.6562 6.375-18.125 0-11.234-6.6406-18.031-6.6406-6.7812-17.672-6.7812-12.656 0-19.344 9.6875-6.6875 9.7031-6.6875 28.109 0 17.281 8.2031 27.562t22.016 10.281q3.7188 0 7.5-0.73438t7.8906-2.1875z"/>
</defs>
<g transform="translate(16.003 39.715) scale(.1 -.1)">
<use transform="translate(0 .76562)" xlink:href="#f"/>
<use transform="translate(63.623 .76562)" xlink:href="#g"/>
<use transform="translate(128.2 39.047) scale(.7)" xlink:href="#o"/>
</g>
<defs>
<path id="a" d="m0 0h-2" stroke="#000" stroke-width=".6"/>
</defs>
<use x="40.603125" y="170.627393" stroke="#000000" stroke-width=".6" xlink:href="#a"/>
<use x="40.603125" y="166.464966" stroke="#000000" stroke-width=".6" xlink:href="#a"/>
<use x="40.603125" y="163.511677" stroke="#000000" stroke-width=".6" xlink:href="#a"/>
<use x="40.603125" y="161.220927" stroke="#000000" stroke-width=".6" xlink:href="#a"/>
<use x="40.603125" y="159.349249" stroke="#000000" stroke-width=".6" xlink:href="#a"/>
<use x="40.603125" y="157.766768" stroke="#000000" stroke-width=".6" xlink:href="#a"/>
<use x="40.603125" y="156.39596" stroke="#000000" stroke-width=".6" xlink:href="#a"/>
<use x="40.603125" y="155.186822" stroke="#000000" stroke-width=".6" xlink:href="#a"/>
<use x="40.603125" y="146.989494" stroke="#000000" stroke-width=".6" xlink:href="#a"/>
<use x="40.603125" y="142.827067" stroke="#000000" stroke-width=".6" xlink:href="#a"/>
<use x="40.603125" y="139.873778" stroke="#000000" stroke-width=".6" xlink:href="#a"/>
<use x="40.603125" y="137.583029" stroke="#000000" stroke-width=".6" xlink:href="#a"/>
<use x="40.603125" y="135.71135" stroke="#000000" stroke-width=".6" xlink:href="#a"/>
<use x="40.603125" y="134.128869" stroke="#000000" stroke-width=".6" xlink:href="#a"/>
<use x="40.603125" y="132.758061" stroke="#000000" stroke-width=".6" xlink:href="#a"/>
<use x="40.603125" y="131.548923" stroke="#000000" stroke-width=".6" xlink:href="#a"/>
<use x="40.603125" y="123.351595" stroke="#000000" stroke-width=".6" xlink:href="#a"/>
<use x="40.603125" y="119.189168" stroke="#000000" stroke-width=".6" xlink:href="#a"/>
<use x="40.603125" y="116.235879" stroke="#000000" stroke-width=".6" xlink:href="#a"/>
<use x="40.603125" y="113.94513" stroke="#000000" stroke-width=".6" xlink:href="#a"/>
<use x="40.603125" y="112.073451" stroke="#000000" stroke-width=".6" xlink:href="#a"/>
<use x="40.603125" y="110.49097" stroke="#000000" stroke-width=".6" xlink:href="#a"/>
<use x="40.603125" y="109.120162" stroke="#000000" stroke-width=".6" xlink:href="#a"/>
<use x="40.603125" y="107.911024" stroke="#000000" stroke-width=".6" xlink:href="#a"/>
<use x="40.603125" y="99.713697" stroke="#000000" stroke-width=".6" xlink:href="#a"/>
<use x="40.603125" y="95.551269" stroke="#000000" stroke-width=".6" xlink:href="#a"/>
<use x="40.603125" y="92.59798" stroke="#000000" stroke-width=".6" xlink:href="#a"/>
<use x="40.603125" y="90.307231" stroke="#000000" stroke-width=".6" xlink:href="#a"/>
<use x="40.603125" y="88.435553" stroke="#000000" stroke-width=".6" xlink:href="#a"/>
<use x="40.603125" y="86.853071" stroke="#000000" stroke-width=".6" xlink:href="#a"/>
<use x="40.603125" y="85.482263" stroke="#000000" stroke-width=".6" xlink:href="#a"/>
<use x="40.603125" y="84.273125" stroke="#000000" stroke-width=".6" xlink:href="#a"/>
<use x="40.603125" y="76.075798" stroke="#000000" stroke-width=".6" xlink:href="#a"/>
<use x="40.603125" y="71.91337" stroke="#000000" stroke-width=".6" xlink:href="#a"/>
<use x="40.603125" y="68.960081" stroke="#000000" stroke-width=".6" xlink:href="#a"/>
<use x="40.603125" y="66.669332" stroke="#000000" stroke-width=".6" xlink:href="#a"/>
<use x="40.603125" y="64.797654" stroke="#000000" stroke-width=".6" xlink:href="#a"/>
<use x="40.603125" y="63.215172" stroke="#000000" stroke-width=".6" xlink:href="#a"/>
<use x="40.603125" y="61.844365" stroke="#000000" stroke-width=".6" xlink:href="#a"/>
<use x="40.603125" y="60.635226" stroke="#000000" stroke-width=".6" xlink:href="#a"/>
<use x="40.603125" y="52.437899" stroke="#000000" stroke-width=".6" xlink:href="#a"/>
<use x="40.603125" y="48.275471" stroke="#000000" stroke-width=".6" xlink:href="#a"/>
<use x="40.603125" y="45.322182" stroke="#000000" stroke-width=".6" xlink:href="#a"/>
<use x="40.603125" y="43.031433" stroke="#000000" stroke-width=".6" xlink:href="#a"/>
<use x="40.603125" y="41.159755" stroke="#000000" stroke-width=".6" xlink:href="#a"/>
<use x="40.603125" y="39.577273" stroke="#000000" stroke-width=".6" xlink:href="#a"/>
<use x="40.603125" y="38.206466" stroke="#000000" stroke-width=".6" xlink:href="#a"/>
<use x="40.603125" y="36.997328" stroke="#000000" stroke-width=".6" xlink:href="#a"/>
<use x="40.603125" y="28.8" stroke="#000000" stroke-width=".6" xlink:href="#a"/>
<path d="m60.877 173.13 23.701-0.1083 2.3487-0.34708 3.4163-0.76261 7.4732-1.7539 2.9893-0.45244 2.5622-0.18356 4.9109-0.010235 13.452-0.11059 1.2811-0.33509 1.7082-0.71006 2.3487-1.2646 5.765-3.2112 2.5622-1.1203 2.1352-0.70756 1.9217-0.62559 3.4163-1.4446 3.4163-1.7173 0.64056-0.504 0.85408-1.0582 3.6298-5.2379 1.0676-1.0207 1.0676-0.74991 1.2811-0.6125 1.2811-0.34647 1.2811-0.10701 1.2811 0.12396 1.2811 0.35365 1.4946 0.66052 1.2811 0.79625 1.2811 1.0497 1.2811 1.3692 1.0676 1.4649 1.0676 1.8787 2.3487 4.6537 0.85408 1.1281 0.42704 0.31641 0.42704 0.085253 0.42704-0.15425 0.85408-0.74526 1.2811-1.4756 1.9217-2.2985 1.7082-1.6898 1.7082-1.4006 1.7082-1.1445 1.9217-1.0139 1.9217-0.7492 1.7082-0.44128 1.7082-0.21814 0.42704-0.075339 1.7082-0.98317 1.0676-0.29553 1.4946-0.11138 3.2028-0.001087 1.7082 0.19034 1.7082 0.42371 1.7082 0.66044 1.7082 0.91568 1.2811 0.75238 0.64056 0.039521 0.42704-0.17045 1.0676-0.86061 2.5622-1.9791 1.4946-1.1555 3.6298-4.2644 1.2811-0.96983 1.2811-0.69185 1.4946-0.52671 1.4946-0.28506 1.4946-0.039362 1.2811 0.1982 1.2811 0.44352 1.0676 0.58868 2.1352 1.3786 1.7082 0.5114 2.3487 0.82973 2.7757 1.0152 0.85408-0.13345 0.64056-0.25201 1.0676-0.77883 0.85408-0.78259 1.2811-1.3436 1.4946-1.1818 1.7082-1.0424 2.1352-1.0567 3.8433-1.6366 1.4946-0.21898 1.2811 0.03264 1.0676 0.23058 1.0676 0.43074 1.0676 0.653 1.0676 0.91501 1.2811 1.4766 2.9893 3.6746 1.2811 1.3947 1.2811 1.761 1.2811 2.2309 1.2811 2.7308 1.7082 4.3856 0.42704 1.0122 1.0676 1.258 1.2811 1.2127 0.64056 0.35101 0.64056 0.1011 0.64056-0.16108 1.2811-0.7577 1.9217-1.4575 3.2028-2.5059 1.9217-1.1947 1.9217-0.9571 1.9217-0.7256 1.0676-0.30288 1.2811-1.5637 1.4946-1.4649 1.4946-1.1483 1.4946-0.85995 1.7082-0.67974 2.1352-0.62034 2.1352-0.40054 2.1352-0.17709 1.7082 0.087143 1.4946 0.27506 1.4946 0.51764 1.2811 0.67296 1.2811 0.93505 0.64056 0.42511 2.1352 0.338 1.2811-0.093872 3.4163-0.55859 1.9217 0.034783 1.9217 0.25257 2.1352 0.49529 2.3487 0.76405 2.5622 1.0515 2.3487 1.2166 2.1352 1.3427 1.7082 1.0597 0.85408 0.25485 0.21352 0.026378 0.21352-0.10541 0.42704-0.56812 2.7757-4.5987 1.2811-1.3519 1.2811-1.0157 1.2811-0.75414 1.4946-0.60811 2.5622-0.88353 1.4946-0.87841 0.85408-0.75666 2.5622-2.7743 1.0676-0.65231 1.0676-0.40406 1.0676-0.18297 1.0676 0.026734 2.9893 0.31819 1.2811 0.16361 1.2811 0.42118 1.0676 0.56714 1.0676 0.79571 1.0676 1.0757 1.0676 1.4424 0.85408 1.5182 1.2811 2.8779 1.0676 2.9612 1.2811 4.401 0.64056 1.875 0.42704 0.61692 5.9785 4.0848 1.2811 0.56099 1.0676 0.26534 1.2811 0.05263 1.9217-0.02111 0.42704-0.24671 0.42704-0.49275 0.64056-1.1038 0.85408-1.9824 1.9217-4.8953 1.0676-1.9252 1.0676-1.5209 1.2811-1.4421 1.2811-1.1252 1.2811-0.97815 0.42704-0.82106 1.4946-3.2945 1.0676-1.6936 1.0676-1.3014 2.1352-2.1401 1.2811-0.89764 1.0676-0.49125 1.0676-0.2502 1.0676-0.02502 1.2811 0.22757 1.9217 0.58386 1.4946 0.59607 1.0676 0.65167 1.0676 0.89349 1.0676 1.1982 1.0676 1.6004 0.85408 1.6577 0.85408 2.1606 0.64056 1.353 0.64056 0.69202 3.6298 3.2026 0.64056 0.059798 0.85408-0.11884 0.85408-0.32824 1.4946-0.6859 1.2811-0.28174 1.2811-0.029273 1.2811 0.20612 1.2811 0.44068 1.2811 0.69037 1.2811 0.97487 1.0676 1.0747 1.0676 1.3788 1.0676 1.7715 1.2811 2.5732 1.2811 3.1336 1.0676 3.1792 1.0676 3.8886 0.85408 3.8979 0.85408 4.9994 0.64056 4.9071 0.64056 6.6387 0.42704 6.1655 0.42704 9.0366 0.21352 6.766 0.21352 10.411 0.21352 26.547 0.001485 163.98v0" clip-path="url(#h)" fill="none" stroke="#dc143c" stroke-linecap="square" stroke-width="1.5"/>
<path d="m40.603 170.63v-141.83" fill="none" stroke="#000" stroke-linecap="square" stroke-width=".8"/>
<path d="m486.62 170.63v-141.83" fill="none" stroke="#000" stroke-linecap="square" stroke-width=".8"/>
<path d="m40.603 170.63h446.02" fill="none" stroke="#000" stroke-linecap="square" stroke-width=".8"/>
<path d="m40.603 28.8h446.02" fill="none" stroke="#000" stroke-linecap="square" stroke-width=".8"/>
<path d="m324.59 66.156h155.04q2 0 2-2v-28.356q0-2-2-2h-155.04q-2 0-2 2v28.356q0 2 2 2z" fill="#fff" opacity=".8" stroke="#ccc"/>
<path d="m326.59 41.898h20" fill="none" stroke="#dc143c" stroke-linecap="square" stroke-width="1.5"/>
<defs>
<path id="i" d="m41.109 46.297q-1.5156 0.875-3.2969 1.2812-1.7812 0.42188-3.9219 0.42188-7.625 0-11.703-4.9531t-4.0781-14.234v-28.812h-9.0312v54.688h9.0312v-8.5q2.8438 4.9844 7.375 7.3906 4.5469 2.4219 11.047 2.4219 0.92188 0 2.0469-0.125 1.125-0.10938 2.4844-0.35938z"/>
<path id="k" d="m34.281 27.484q-10.891 0-15.094-2.4844t-4.2031-8.5q0-4.7812 3.1562-7.5938 3.1562-2.7969 8.5625-2.7969 7.4844 0 12 5.2969t4.5156 14.078v2zm17.922 3.7188v-31.203h-8.9844v8.2969q-3.0781-4.9688-7.6719-7.3438t-11.234-2.375q-8.3906 0-13.359 4.7188-4.9531 4.7188-4.9531 12.625 0 9.2188 6.1719 13.906 6.1875 4.6875 18.438 4.6875h12.609v0.89062q0 6.2031-4.0781 9.5938t-11.453 3.3906q-4.6875 0-9.1406-1.125-4.4375-1.125-8.5312-3.375v8.3125q4.9219 1.9062 9.5625 2.8438 4.6406 0.95312 9.0312 0.95312 11.875 0 17.734-6.1562 5.8594-6.1406 5.8594-18.641z"/>
<path id="t" d="m18.312 70.219v-15.531h18.5v-6.9844h-18.5v-29.688q0-6.6875 1.8281-8.5938t7.4531-1.9062h9.2188v-7.5156h-9.2188q-10.406 0-14.359 3.875-3.9531 3.8906-3.9531 14.141v29.688h-6.5938v6.9844h6.5938v15.531z"/>
<path id="e" d="m56.203 29.594v-4.3906h-41.312q0.59375-9.2812 5.5938-14.141t13.938-4.8594q5.1719 0 10.031 1.2656t9.6562 3.8125v-8.5q-4.8438-2.0469-9.9219-3.125t-10.297-1.0781q-13.094 0-20.734 7.6094-7.6406 7.625-7.6406 20.625 0 13.422 7.25 21.297 7.25 7.8906 19.562 7.8906 11.031 0 17.453-7.1094 6.4219-7.0938 6.4219-19.297zm-8.9844 2.6406q-0.09375 7.3594-4.125 11.75-4.0312 4.4062-10.672 4.4062-7.5156 0-12.031-4.25t-5.2031-11.969z"/>
<path id="m" d="m30.609 48.391q-7.2188 0-11.422-5.6406t-4.2031-15.453 4.1719-15.453q4.1875-5.6406 11.453-5.6406 7.1875 0 11.375 5.6562 4.2031 5.6719 4.2031 15.438 0 9.7188-4.2031 15.406-4.1875 5.6875-11.375 5.6875zm0 7.6094q11.719 0 18.406-7.625 6.7031-7.6094 6.7031-21.078 0-13.422-6.7031-21.078-6.6875-7.6406-18.406-7.6406-11.766 0-18.438 7.6406-6.6562 7.6562-6.6562 21.078 0 13.469 6.6562 21.078 6.6719 7.625 18.438 7.625z"/>
<path id="aa" d="m37.109 75.984v-7.4844h-8.5938q-4.8281 0-6.7188-1.9531-1.875-1.9531-1.875-7.0312v-4.8281h14.797v-6.9844h-14.797v-47.703h-9.0312v47.703h-8.5938v6.9844h8.5938v3.8125q0 9.125 4.25 13.297 4.25 4.1875 13.469 4.1875z"/>
<path id="l" d="m9.4219 54.688h8.9844v-54.688h-8.9844zm0 21.297h8.9844v-11.391h-8.9844z"/>
<path id="u" d="m9.4219 75.984h8.9844v-75.984h-8.9844z"/>
<path id="y" d="m8.5 21.578v33.109h8.9844v-32.766q0-7.7656 3.0156-11.656 3.0312-3.875 9.0938-3.875 7.2656 0 11.484 4.6406 4.2344 4.6406 4.2344 12.656v31h8.9844v-54.688h-8.9844v8.4062q-3.2656-4.9844-7.5938-7.4062-4.3125-2.4219-10.031-2.4219-9.4219 0-14.312 5.8594-4.875 5.8594-4.875 17.141zm22.609 34.422z"/>
<path id="j" d="m44.281 53.078v-8.5q-3.7969 1.9531-7.9062 2.9219-4.0938 0.98438-8.5 0.98438-6.6875 0-10.031-2.0469t-3.3438-6.1562q0-3.125 2.3906-4.9062t9.625-3.3906l3.0781-0.6875q9.5625-2.0469 13.594-5.7812t4.0312-10.422q0-7.625-6.0312-12.078-6.0312-4.4375-16.578-4.4375-4.3906 0-9.1562 0.85938t-10.031 2.5625v9.2812q4.9844-2.5938 9.8125-3.8906 4.8281-1.2812 9.5781-1.2812 6.3438 0 9.75 2.1719 3.4219 2.1719 3.4219 6.125 0 3.6562-2.4688 5.6094-2.4531 1.9531-10.812 3.7656l-3.125 0.73438q-8.3438 1.75-12.062 5.3906-3.7031 3.6406-3.7031 9.9844 0 7.7188 5.4688 11.906 5.4688 4.2031 15.531 4.2031 4.9688 0 9.3594-0.73438 4.4062-0.71875 8.1094-2.1875z"/>
<path id="x" d="m31 75.875q-6.5312-11.219-9.7188-22.219-3.1719-10.984-3.1719-22.266 0-11.266 3.2031-22.328t9.6875-22.25h-7.8125q-7.3125 11.484-10.953 22.562t-3.6406 22.016q0 10.891 3.6094 21.922 3.625 11.047 10.984 22.562z"/>
<path id="n" d="m45.406 46.391v29.594h8.9844v-75.984h-8.9844v8.2031q-2.8281-4.875-7.1562-7.25-4.3125-2.375-10.375-2.375-9.9062 0-16.141 7.9062-6.2188 7.9219-6.2188 20.812t6.2188 20.797q6.2344 7.9062 16.141 7.9062 6.0625 0 10.375-2.375 4.3281-2.3594 7.1562-7.2344zm-30.609-19.094q0-9.9062 4.0781-15.547t11.203-5.6406 11.219 5.6406q4.1094 5.6406 4.1094 15.547t-4.1094 15.547q-4.0938 5.6406-11.219 5.6406t-11.203-5.6406-4.0781-15.547z"/>
<path id="z" d="m9.0781 75.984h9.0312v-44.875l26.812 23.578h11.469l-29-25.578 30.234-29.109h-11.719l-27.797 26.703v-26.703h-9.0312z"/>
<path id="ad" d="m25.391 72.906h8.2969l-25.391-82.188h-8.2969z"/>
<path id="s" d="m32.172-5.0781q-3.7969-9.7656-7.4219-12.734-3.6094-2.9844-9.6562-2.9844h-7.1875v7.5156h5.2812q3.7031 0 5.75 1.7656 2.0625 1.75 4.5469 8.2969l1.6094 4.0938-22.109 53.812h9.5156l17.094-42.766 17.094 42.766h9.5156z"/>
<path id="w" d="m8.0156 75.875h7.8125q7.3125-11.516 10.953-22.562 3.6406-11.031 3.6406-21.922 0-10.938-3.6406-22.016t-10.953-22.562h-7.8125q6.4844 11.188 9.6875 22.25t3.2031 22.328q0 11.281-3.2031 22.266-3.2031 11-9.6875 22.219z"/>
</defs>
<g transform="translate(354.59 45.398) scale(.1 -.1)">
<use xlink:href="#i"/>
<use x="41.113281" xlink:href="#k"/>
<use x="102.392578" xlink:href="#t"/>
<use x="141.601562" xlink:href="#e"/>
<use x="203.125" xlink:href="#DejaVuSans-20"/>
<use x="234.912109" xlink:href="#m"/>
<use x="296.09375" xlink:href="#aa"/>
<use x="331.298828" xlink:href="#DejaVuSans-20"/>
<use x="363.085938" xlink:href="#aa"/>
<use x="398.291016" xlink:href="#k"/>
<use x="459.570312" xlink:href="#l"/>
<use x="487.353516" xlink:href="#u"/>
<use x="515.136719" xlink:href="#y"/>
<use x="578.515625" xlink:href="#i"/>
<use x="619.597656" xlink:href="#e"/>
<use x="681.121094" xlink:href="#j"/>
<use x="733.220703" xlink:href="#DejaVuSans-20"/>
<use x="765.007812" xlink:href="#x"/>
<use x="804.021484" xlink:href="#n"/>
<use x="867.498047" xlink:href="#l"/>
<use x="895.28125" xlink:href="#j"/>
<use x="947.380859" xlink:href="#z"/>
<use x="1005.291016" xlink:href="#j"/>
<use x="1057.390625" xlink:href="#ad"/>
<use x="1091.082031" xlink:href="#s"/>
<use x="1150.261719" xlink:href="#i"/>
<use x="1191.375" xlink:href="#w"/>
</g>
<path d="m326.59 60.077h20v-7h-20z" fill="#0766aa" fill-opacity=".2" stroke="#0766aa" stroke-opacity=".2"/>
<defs>
<path id="am" d="m48.688 27.297q0 9.9062-4.0781 15.547t-11.203 5.6406q-7.1406 0-11.219-5.6406t-4.0781-15.547 4.0781-15.547 11.219-5.6406q7.125 0 11.203 5.6406t4.0781 15.547zm-30.578 19.094q2.8438 4.875 7.1562 7.2344 4.3281 2.375 10.328 2.375 9.9688 0 16.188-7.9062 6.2344-7.9062 6.2344-20.797t-6.2344-20.812q-6.2188-7.9062-16.188-7.9062-6 0-10.328 2.375-4.3125 2.375-7.1562 7.25v-8.2031h-9.0312v75.984h9.0312z"/>
<path id="ag" d="m2.9844 54.688h9.5156l17.094-45.891 17.094 45.891h9.5156l-20.516-54.688h-12.203z"/>
</defs>
<g transform="translate(354.59 60.077) scale(.1 -.1)">
<use xlink:href="#n"/>
<use x="63.476562" xlink:href="#l"/>
<use x="91.259766" xlink:href="#j"/>
<use x="143.359375" xlink:href="#z"/>
<use x="201.269531" xlink:href="#j"/>
<use x="253.369141" xlink:href="#DejaVuSans-20"/>
<use x="285.15625" xlink:href="#m"/>
<use x="346.337891" xlink:href="#am"/>
<use x="409.814453" xlink:href="#j"/>
<use x="461.914062" xlink:href="#e"/>
<use x="523.4375" xlink:href="#i"/>
<use x="564.550781" xlink:href="#ag"/>
<use x="623.730469" xlink:href="#e"/>
<use x="685.253906" xlink:href="#n"/>
</g>
<path d="m40.603 375.64h446.02v-189.1h-446.02z" fill="#fff"/>
<path d="m60.154 375.64v-189.1" clip-path="url(#b)" fill="none" stroke="#b0b0b0" stroke-linecap="square" stroke-width=".8"/>
<use x="60.15438" y="375.64" stroke="#000000" stroke-width=".8" xlink:href="#c"/>
<g transform="translate(56.973 390.24) scale(.1 -.1)">
<use xlink:href="#f"/>
</g>
<path d="m144.81 375.64v-189.1" clip-path="url(#b)" fill="none" stroke="#b0b0b0" stroke-linecap="square" stroke-width=".8"/>
<use x="144.808061" y="375.64" stroke="#000000" stroke-width=".8" xlink:href="#c"/>
<g transform="translate(141.63 390.24) scale(.1 -.1)">
<use xlink:href="#r"/>
</g>
<path d="m229.46 375.64v-189.1" clip-path="url(#b)" fill="none" stroke="#b0b0b0" stroke-linecap="square" stroke-width=".8"/>
<use x="229.461743" y="375.64" stroke="#000000" stroke-width=".8" xlink:href="#c"/>
<g transform="translate(226.28 390.24) scale(.1 -.1)">
<use xlink:href="#q"/>
</g>
<path d="m314.12 375.64v-189.1" clip-path="url(#b)" fill="none" stroke="#b0b0b0" stroke-linecap="square" stroke-width=".8"/>
<use x="314.115424" y="375.64" stroke="#000000" stroke-width=".8" xlink:href="#c"/>
<g transform="translate(310.93 390.24) scale(.1 -.1)">
<use xlink:href="#p"/>
</g>
<path d="m398.77 375.64v-189.1" clip-path="url(#b)" fill="none" stroke="#b0b0b0" stroke-linecap="square" stroke-width=".8"/>
<use x="398.769105" y="375.64" stroke="#000000" stroke-width=".8" xlink:href="#c"/>
<g transform="translate(395.59 390.24) scale(.1 -.1)">
<use xlink:href="#ac"/>
</g>
<path d="m483.42 375.64v-189.1" clip-path="url(#b)" fill="none" stroke="#b0b0b0" stroke-linecap="square" stroke-width=".8"/>
<use x="483.422787" y="375.64" stroke="#000000" stroke-width=".8" xlink:href="#c"/>
<g transform="translate(480.24 390.24) scale(.1 -.1)">
<use xlink:href="#o"/>
</g>
<defs>
<path id="v" d="m34.188 63.188-13.391-36.281h26.812zm-5.5781 9.7188h11.188l27.781-72.906h-10.25l-6.6406 18.703h-32.859l-6.6406-18.703h-10.406z"/>
<path id="ak" d="m45.406 27.984q0 9.7656-4.0312 15.125-4.0156 5.375-11.297 5.375-7.2188 0-11.25-5.375-4.0312-5.3594-4.0312-15.125 0-9.7188 4.0312-15.094t11.25-5.375q7.2812 0 11.297 5.375 4.0312 5.375 4.0312 15.094zm8.9844-21.203q0-13.953-6.2031-20.766-6.1875-6.8125-18.984-6.8125-4.7344 0-8.9375 0.70312t-8.1562 2.1719v8.7344q3.9531-2.1406 7.8125-3.1562 3.8594-1.0312 7.8594-1.0312 8.8438 0 13.234 4.6094t4.3906 13.938v4.4531q-2.7812-4.8438-7.125-7.2344t-10.406-2.3906q-10.047 0-16.203 7.6562-6.1562 7.6719-6.1562 20.328 0 12.688 6.1562 20.344 6.1562 7.6719 16.203 7.6719 6.0625 0 10.406-2.3906t7.125-7.2188v8.2969h8.9844z"/>
<path id="ah" d="m18.109 8.2031v-29h-9.0312v75.484h9.0312v-8.2969q2.8438 4.875 7.1562 7.2344 4.3281 2.375 10.328 2.375 9.9688 0 16.188-7.9062 6.2344-7.9062 6.2344-20.797t-6.2344-20.812q-6.2188-7.9062-16.188-7.9062-6 0-10.328 2.375-4.3125 2.375-7.1562 7.25zm30.578 19.094q0 9.9062-4.0781 15.547t-11.203 5.6406q-7.1406 0-11.219-5.6406t-4.0781-15.547 4.0781-15.547 11.219-5.6406q7.125 0 11.203 5.6406t4.0781 15.547z"/>
<path id="af" d="m4.2031 54.688h8.9844l11.234-42.672 11.172 42.672h10.594l11.234-42.672 11.188 42.672h8.9844l-14.312-54.688h-10.594l-11.766 44.828-11.812-44.828h-10.609z"/>
<path id="aw" d="m4.8906 31.391h26.312v-8h-26.312z"/>
<path id="ai" d="m54.891 33.016v-33.016h-8.9844v32.719q0 7.7656-3.0312 11.609-3.0312 3.8594-9.0781 3.8594-7.2812 0-11.484-4.6406-4.2031-4.625-4.2031-12.641v-30.906h-9.0312v54.688h9.0312v-8.5q3.2344 4.9375 7.5938 7.375 4.375 2.4375 10.094 2.4375 9.4219 0 14.25-5.8281 4.8438-5.8281 4.8438-17.156z"/>
</defs>
<g transform="translate(209.62 403.92) scale(.1 -.1)">
<use xlink:href="#v"/>
<use x="68.408203" xlink:href="#ak"/>
<use x="131.884766" xlink:href="#e"/>
<use x="193.408203" xlink:href="#DejaVuSans-20"/>
<use x="225.195312" xlink:href="#x"/>
<use x="264.208984" xlink:href="#ah"/>
<use x="327.685547" xlink:href="#m"/>
<use x="388.867188" xlink:href="#af"/>
<use x="470.654297" xlink:href="#e"/>
<use x="532.177734" xlink:href="#i"/>
<use x="573.197266" xlink:href="#aw"/>
<use x="609.296875" xlink:href="#m"/>
<use x="670.478516" xlink:href="#ai"/>
<use x="733.857422" xlink:href="#DejaVuSans-20"/>
<use x="765.644531" xlink:href="#s"/>
<use x="824.824219" xlink:href="#e"/>
<use x="886.347656" xlink:href="#k"/>
<use x="947.626953" xlink:href="#i"/>
<use x="988.740234" xlink:href="#j"/>
<use x="1040.839844" xlink:href="#w"/>
</g>
<path d="m40.603 375.64h446.02" clip-path="url(#b)" fill="none" stroke="#b0b0b0" stroke-linecap="square" stroke-width=".8"/>
<use x="40.603125" y="375.64" stroke="#000000" stroke-width=".8" xlink:href="#d"/>
<g transform="translate(27.241 379.44) scale(.1 -.1)">
<use xlink:href="#g"/>
</g>
<path d="m40.603 328.36h446.02" clip-path="url(#b)" fill="none" stroke="#b0b0b0" stroke-linecap="square" stroke-width=".8"/>
<use x="40.603125" y="328.364202" stroke="#000000" stroke-width=".8" xlink:href="#d"/>
<g transform="translate(27.241 332.16) scale(.1 -.1)">
<use xlink:href="#p"/>
</g>
<path d="m40.603 281.09h446.02" clip-path="url(#b)" fill="none" stroke="#b0b0b0" stroke-linecap="square" stroke-width=".8"/>
<use x="40.603125" y="281.088405" stroke="#000000" stroke-width=".8" xlink:href="#d"/>
<defs>
<path id="au" d="m31.781 34.625q-7.0312 0-11.062-3.7656-4.0156-3.7656-4.0156-10.344 0-6.5938 4.0156-10.359 4.0312-3.7656 11.062-3.7656t11.078 3.7812q4.0625 3.7969 4.0625 10.344 0 6.5781-4.0312 10.344-4.0156 3.7656-11.109 3.7656zm-9.8594 4.1875q-6.3438 1.5625-9.8906 5.9062-3.5312 4.3594-3.5312 10.609 0 8.7344 6.2188 13.812 6.2344 5.0781 17.062 5.0781 10.891 0 17.094-5.0781t6.2031-13.812q0-6.25-3.5469-10.609-3.5312-4.3438-9.8281-5.9062 7.125-1.6562 11.094-6.5 3.9844-4.8281 3.9844-11.797 0-10.609-6.4688-16.281-6.4688-5.6562-18.531-5.6562-12.047 0-18.531 5.6562-6.4688 5.6719-6.4688 16.281 0 6.9688 4 11.797 4.0156 4.8438 11.141 6.5zm-3.6094 15.578q0-5.6562 3.5312-8.8281 3.5469-3.1719 9.9375-3.1719 6.3594 0 9.9375 3.1719 3.5938 3.1719 3.5938 8.8281 0 5.6719-3.5938 8.8438-3.5781 3.1719-9.9375 3.1719-6.3906 0-9.9375-3.1719-3.5312-3.1719-3.5312-8.8438z"/>
</defs>
<g transform="translate(27.241 284.89) scale(.1 -.1)">
<use xlink:href="#au"/>
</g>
<path d="m40.603 233.81h446.02" clip-path="url(#b)" fill="none" stroke="#b0b0b0" stroke-linecap="square" stroke-width=".8"/>
<use x="40.603125" y="233.812607" stroke="#000000" stroke-width=".8" xlink:href="#d"/>
<g transform="translate(20.878 237.61) scale(.1 -.1)">
<use xlink:href="#f"/>
<use x="63.623047" xlink:href="#r"/>
</g>
<path d="m40.603 186.54h446.02" clip-path="url(#b)" fill="none" stroke="#b0b0b0" stroke-linecap="square" stroke-width=".8"/>
<use x="40.603125" y="186.536809" stroke="#000000" stroke-width=".8" xlink:href="#d"/>
<g transform="translate(20.878 190.34) scale(.1 -.1)">
<use xlink:href="#f"/>
<use x="63.623047" xlink:href="#o"/>
</g>
<defs>
<path id="ar" d="m9.8125 72.906h41.891v-8.3125h-32.031v-21.484h28.906v-8.2969h-28.906v-34.812h-9.8594z"/>
<path id="ao" d="m44.391 34.188q3.1719-1.0781 6.1719-4.5938t6.0312-9.6719l10.016-19.922h-10.609l-9.3125 18.703q-3.625 7.3281-7.0156 9.7188t-9.25 2.3906h-10.75v-30.812h-9.8594v72.906h22.266q12.5 0 18.656-5.2344 6.1562-5.2188 6.1562-15.766 0-6.8906-3.2031-11.438-3.2031-4.5312-9.2969-6.2812zm-24.719 30.609v-25.875h12.406q7.125 0 10.766 3.2969t3.6406 9.6875-3.6406 9.6406-10.766 3.25z"/>
<path id="ax" d="m72.703 32.078q-4.25 0-6.6719-3.6094-2.4062-3.6094-2.4062-10.062 0-6.3438 2.4062-9.9844 2.4219-3.6406 6.6719-3.6406 4.1562 0 6.5625 3.6406 2.4219 3.6406 2.4219 9.9844 0 6.4062-2.4219 10.031-2.4062 3.6406-6.5625 3.6406zm0 6.2031q7.7188 0 12.25-5.375 4.5469-5.3594 4.5469-14.5 0-9.125-4.5625-14.484-4.5625-5.3438-12.234-5.3438-7.8125 0-12.359 5.3438-4.5312 5.3594-4.5312 14.484 0 9.1875 4.5625 14.531t12.328 5.3438zm-50.391 29.734q-4.2031 0-6.625-3.6406-2.4062-3.625-2.4062-9.9844 0-6.4375 2.3906-10.062 2.3906-3.6094 6.6406-3.6094t6.6562 3.6094q2.4219 3.625 2.4219 10.062 0 6.2969-2.4375 9.9531-2.4375 3.6719-6.6406 3.6719zm44.094 6.2031h7.8125l-45.609-75.641h-7.8125zm-44.094 0q7.7188 0 12.297-5.3438 4.5938-5.3438 4.5938-14.484 0-9.2188-4.5625-14.547t-12.328-5.3281-12.281 5.3438q-4.5156 5.3594-4.5156 14.531 0 9.0938 4.5312 14.453 4.5469 5.375 12.266 5.375z"/>
</defs>
<g transform="translate(14.798 334.34) rotate(-90) scale(.1 -.1)">
<use xlink:href="#ar"/>
<use x="57.378906" xlink:href="#k"/>
<use x="118.658203" xlink:href="#l"/>
<use x="146.441406" xlink:href="#u"/>
<use x="174.224609" xlink:href="#y"/>
<use x="237.603516" xlink:href="#i"/>
<use x="278.685547" xlink:href="#e"/>
<use x="340.208984" xlink:href="#DejaVuSans-20"/>
<use x="371.996094" xlink:href="#ao"/>
<use x="441.447266" xlink:href="#k"/>
<use x="502.726562" xlink:href="#t"/>
<use x="541.935547" xlink:href="#e"/>
<use x="603.458984" xlink:href="#DejaVuSans-20"/>
<use x="635.246094" xlink:href="#x"/>
<use x="674.259766" xlink:href="#ax"/>
<use x="769.279297" xlink:href="#ad"/>
<use x="802.970703" xlink:href="#s"/>
<use x="862.150391" xlink:href="#e"/>
<use x="923.673828" xlink:href="#k"/>
<use x="984.953125" xlink:href="#i"/>
<use x="1026.066406" xlink:href="#w"/>
</g>
<path d="m60.877 286.57 2.9893 1.6335 3.4163 3.3304 3.2028 3.4125 2.5622 3.0233 3.6298 4.4188 2.7757 3.074 4.0569 4.0151 0.85408 0.37681 0.85408 0.15359 0.64056-0.12642 1.0676-0.47395 1.0676-0.71507 1.2811-1.1152 1.7082-1.8166 2.5622-3.1136 3.4163-4.2093 1.4946-1.393 1.2811-0.90627 1.0676-0.52003 1.4946-0.43975 1.0676-0.033012 0.85408 0.20589 7.6867 3.0595 1.4946 7.0407 1.4946 5.9114 1.4946 5.0075 1.9217 5.5341 1.4946 3.5865 1.2811 2.5966 0.85408 1.1329 0.64056 0.53821 0.64056 0.31201 0.64056 0.11895 0.85408-0.089586 0.21352-0.059852 0.85408 0.63584 0.85408 0.37249 1.0676 0.19338 1.2811-0.024947 1.4946-0.13575 0.21352 0.15162 1.2811 3.398 1.0676 3.243 0.64056 1.4945 0.42704 0.86839 0.85408 3.2161 1.0676 3.1447 1.7082 4.0737 0.85408 1.7362 1.0676 1.6006 1.0676 1.1823 2.5622 2.2595 1.4946 0.82428 1.4946 0.55016 0.42704-0.030888 0.42704-0.26322 0.64056-0.74764 1.0676-1.8167 2.9893-5.4646 1.2811-1.3651 0.85408-0.6116 0.85408-0.3263 1.2811-0.12082 0.85408 0.065308 0.85408 0.33391 0.85408 0.58051 1.2811 1.1851 1.2811 1.5671 1.2811 1.9183 2.1352 3.7135 1.7082 3.5242 2.7757 6.0548 0.85408 1.0908 0.64056 0.57181 0.64056 0.2589 0.42704-0.022268 0.64056-0.29979 1.0676-0.79412 1.2811-1.3101 3.4163-3.6312 2.1352-1.8856 1.9217-1.3601 1.7082-0.94064 1.4946-0.57762 1.0676-0.21944 1.2811-0.062346 1.0676 0.017801 1.7082-1.3739 0.85408-0.27773 0.85408-0.003018 1.9217 0.32271 2.7757 0.71762 1.2811 0.59096 2.7757 1.6303 1.9217 1.5308 1.4946 1.2392 0.42704 0.086136 0.42704-0.099462 0.42704-0.32665 2.3487-2.7708 2.3487-2.9985 1.2811-3.0305 0.64056-2.0466 1.4946-4.5842 1.2811-3.2434 1.0676-2.1939 1.0676-1.7113 1.0676-1.2798 0.85408-0.72595 0.85408-0.44421 0.85408-0.14636 0.64056 0.11425 0.64056 0.32352 0.64056 0.53781 0.85408 1.0591 0.85408 1.461 0.85408 1.8745 1.0676 2.3392 0.64056 0.97988 0.85408 0.75752 2.3487 2.0436 2.1352 2.2308 1.0676 1.1141 0.85408-0.10813 0.64056-0.37232 0.42704-0.45925 0.64056-1.124 1.0676-2.2652 1.4946-4.8382 1.4946-4.0795 1.9217-4.4944 2.3487-4.9303 0.64056-1.5714 1.0676-2.7154 0.85408-1.6388 0.85408-1.2174 0.85408-0.83053 0.64056-0.37087 0.64056-0.091754 0.42704 0.11533 0.64056 0.47623 0.64056 0.83659 0.64056 1.193 0.85408 2.1381 0.85408 2.7551 1.0676 4.297 2.7757 12.24 1.0676 3.7334 1.7082 4.5392 2.5622 7.5868 1.9217 5.3681 1.0676 2.3829 0.42704 0.51596 1.2811 0.90392 1.0676 0.51783 0.85408 0.16293 0.85408-0.083622 1.4946-0.50862 1.7082-0.82093 2.9893-1.7693 3.2028-1.7574 2.3487-1.0425 1.4946-0.50654 2.5622-3.8054 1.9217-2.4411 1.2811-1.3227 1.4946-1.1891 1.7082-1.1137 1.7082-0.85054 1.7082-0.58146 1.2811-0.21853 1.0676 0.019629 1.0676 0.21421 1.0676 0.42958 1.0676 0.68444 1.0676 0.94643 1.0676 1.2138 1.2811 1.8171 0.21352 0.34169 2.1352 0.61996 0.85408-0.010694 0.85408-0.20596 2.3487-0.79711 1.2811-0.14303 1.4946 0.079369 1.4946 0.31065 1.7082 0.58787 2.1352 0.99713 2.7757 1.5657 2.7757 1.8142 4.4839 3.0074 0.85408 0.18548 0.21352-0.10153 0.42704-0.56309 0.64056-1.2876 1.7082-3.7765 1.4946-2.7982 1.4946-2.311 1.2811-1.5823 1.2811-1.2047 1.0676-0.70832 0.64056-0.44061 0.85408-0.88635 1.0676-1.4916 0.85408-1.5354 0.64056-1.705 0.64056-2.4314 1.0676-4.2374 1.0676-3.3413 0.85408-2.0275 0.85408-1.4533 0.64056-0.71115 0.64056-0.38577 0.64056-0.05977 0.64056 0.26691 0.64056 0.59424 0.42704 0.46432 0.64056 0.18205 1.4946 0.006802 0.64056 0.36792 0.64056 0.62666 0.85408 1.2336 0.85408 1.6843 1.0676 2.7316 1.0676 3.4177 1.2811 4.9952 1.7082 7.8682 1.9217 8.2861 0.85408 3.0677 0.64056 1.5013 0.42704 0.43644 3.2028 1.418 2.1352 0.72437 1.9217 0.41868 1.7082 0.13507 2.7757-0.051634 0.64056-0.28995 0.64056-0.53658 0.64056-0.78947 0.85408-1.5245 2.3487-4.8329 1.9217-3.4633 1.7082-2.6259 1.2811-1.8575 0.42704-1.6984 3.8433-19.633 2.5622-11.058 1.0676-3.4364 0.85408-1.8892 0.64056-0.93512 0.64056-0.50129 0.42704-0.077872 0.42704 0.12867 0.64056 0.53285 0.85408 1.0222 1.0676 1.6633 1.4946 2.6484 0.85408 2.1095 0.85408 2.6879 1.0676 4.1717 1.0676 5.0718 1.2811 7.1708 1.9217 11.077 0.42704 0.96548 1.9217 3.0487 1.4946 2.0764 0.42704 0.30517 0.64056-0.023845 0.64056-0.27007 0.85408-0.68083 3.4163-3.5196 1.0676-0.63234 1.0676-0.37534 0.85408-0.16497 0.85408 0.025173 0.85408 0.22679 0.85408 0.44168 0.85408 0.67195 0.85408 0.92038 1.0676 1.5329 1.2811 2.3546 2.5622 5.2262 2.3487 4.6057 1.4946 2.485 0.85408 1.1119 0.64056 0.59297 0.64056 0.32537 0.64056 0.043784h27.544v0" clip-path="url(#b)" fill="none" stroke="#d2691e" stroke-linecap="square" stroke-width="1.5"/>
<path d="m40.603 375.64v-189.1" fill="none" stroke="#000" stroke-linecap="square" stroke-width=".8"/>
<path d="m486.62 375.64v-189.1" fill="none" stroke="#000" stroke-linecap="square" stroke-width=".8"/>
<path d="m40.603 375.64h446.02" fill="none" stroke="#000" stroke-linecap="square" stroke-width=".8"/>
<path d="m40.603 186.54h446.02" fill="none" stroke="#000" stroke-linecap="square" stroke-width=".8"/>
<defs>
<path id="ap" d="m9.8125 72.906h14.703l18.594-49.609 18.703 49.609h14.703v-72.906h-9.625v64.016l-18.797-50h-9.9062l-18.797 50v-64.016h-9.5781z"/>
<path id="at" d="m11.719 12.406h10.297v-12.406h-10.297zm0 39.297h10.297v-12.391h-10.297z"/>
<path id="ab" d="m9.8125 72.906h9.8594v-29.891h35.844v29.891h9.8594v-72.906h-9.8594v34.719h-35.844v-34.719h-9.8594z"/>
<path id="al" d="m48.781 52.594v-8.4062q-3.8125 2.1094-7.6406 3.1562t-7.7344 1.0469q-8.75 0-13.594-5.5469-4.8281-5.5312-4.8281-15.547t4.8281-15.562q4.8438-5.5312 13.594-5.5312 3.9062 0 7.7344 1.0469t7.6406 3.1562v-8.3125q-3.7656-1.75-7.7969-2.625-4.0156-0.89062-8.5625-0.89062-12.359 0-19.641 7.7656-7.2656 7.7656-7.2656 20.953 0 13.375 7.3438 21.031 7.3594 7.6719 20.156 7.6719 4.1406 0 8.0938-0.85938 3.9531-0.84375 7.6719-2.5469z"/>
<path id="aj" d="m54.891 33.016v-33.016h-8.9844v32.719q0 7.7656-3.0312 11.609-3.0312 3.8594-9.0781 3.8594-7.2812 0-11.484-4.6406-4.2031-4.625-4.2031-12.641v-30.906h-9.0312v75.984h9.0312v-29.797q3.2344 4.9375 7.5938 7.375 4.375 2.4375 10.094 2.4375 9.4219 0 14.25-5.8281 4.8438-5.8281 4.8438-17.156z"/>
<path id="as" d="m19.672 64.797v-56.688h11.922q15.094 0 22.094 6.8281 7 6.8438 7 21.594 0 14.641-7 21.453t-22.094 6.8125zm-9.8594 8.1094h20.266q21.188 0 31.094-8.8125 9.9219-8.8125 9.9219-27.562 0-18.859-9.9688-27.703-9.9531-8.8281-31.047-8.8281h-20.266z"/>
<path id="an" d="m53.516 70.516v-9.625q-5.6094 2.6875-10.594 4-4.9844 1.3281-9.625 1.3281-8.0469 0-12.422-3.125t-4.375-8.8906q0-4.8438 2.9062-7.3125 2.9062-2.4531 11.016-3.9688l5.9531-1.2188q11.031-2.1094 16.281-7.4062t5.25-14.172q0-10.609-7.1094-16.078-7.0938-5.4688-20.812-5.4688-5.1719 0-11.016 1.1719-5.8281 1.1719-12.078 3.4688v10.156q6-3.3594 11.766-5.0781 5.7656-1.7031 11.328-1.7031 8.4375 0 13.031 3.3125 4.5938 3.3281 4.5938 9.4844 0 5.3594-3.2969 8.3906t-10.812 4.5469l-6.0156 1.1719q-11.031 2.1875-15.969 6.875-4.9219 4.6875-4.9219 13.047 0 9.6719 6.8125 15.234t18.766 5.5625q5.1406 0 10.453-0.9375 5.3281-0.92188 10.891-2.7656z"/>
<path id="av" d="m8.2031 72.906h46.875v-4.2031l-26.469-68.703h-10.297l24.906 64.594h-35.016z"/>
<path id="aq" d="m9.8125 72.906h9.8594v-64.609h35.5v-8.2969h-45.359z"/>
</defs>
<g transform="translate(144.26 16.318) scale(.12 -.12)">
<use xlink:href="#ap"/>
<use x="86.279297" xlink:href="#m"/>
<use x="147.460938" xlink:href="#n"/>
<use x="210.9375" xlink:href="#e"/>
<use x="272.460938" xlink:href="#u"/>
<use x="300.244141" xlink:href="#at"/>
<use x="333.935547" xlink:href="#DejaVuSans-20"/>
<use x="365.722656" xlink:href="#ab"/>
<use x="440.917969" xlink:href="#l"/>
<use x="468.701172" xlink:href="#t"/>
<use x="507.910156" xlink:href="#k"/>
<use x="569.189453" xlink:href="#al"/>
<use x="624.169922" xlink:href="#aj"/>
<use x="687.548828" xlink:href="#l"/>
<use x="715.332031" xlink:href="#DejaVuSans-20"/>
<use x="747.119141" xlink:href="#ab"/>
<use x="822.314453" xlink:href="#as"/>
<use x="899.316406" xlink:href="#an"/>
<use x="962.792969" xlink:href="#av"/>
<use x="1026.416016" xlink:href="#r"/>
<use x="1090.039062" xlink:href="#q"/>
<use x="1153.662109" xlink:href="#g"/>
<use x="1217.285156" xlink:href="#q"/>
<use x="1280.908203" xlink:href="#g"/>
<use x="1344.53125" xlink:href="#v"/>
<use x="1412.939453" xlink:href="#aq"/>
<use x="1468.683594" xlink:href="#v"/>
<use x="1537.091797" xlink:href="#o"/>
<use x="1600.714844" xlink:href="#p"/>
<use x="1664.337891" xlink:href="#g"/>
</g>
<defs>
<clipPath id="h">
<rect x="40.603" y="28.8" width="446.02" height="141.83"/>
</clipPath>
<clipPath id="b">
<rect x="40.603" y="186.54" width="446.02" height="189.1"/>
</clipPath>
</defs>
</svg>
