<?xml version="1.0" encoding="UTF-8"?>
<!DOCTYPE svg  PUBLIC '-//W3C//DTD SVG 1.1//EN'  'http://www.w3.org/Graphics/SVG/1.1/DTD/svg11.dtd'>
<svg width="497pt" height="413pt" version="1.1" viewBox="0 0 497 413" xmlns="http://www.w3.org/2000/svg" xmlns:xlink="http://www.w3.org/1999/xlink">
<defs>
<style type="text/css">*{stroke-linecap:butt;stroke-linejoin:round;}</style>
</defs>
<path d="m0 413.2h497.02v-413.2h-497.02z" fill="#fff"/>
<path d="m40.603 170.63h445.72v-141.83h-445.72z" fill="#fff"/>
<defs>
<path id="af" d="m60.863-235.45v-38.656l0.21542-0.088035 0.21542-0.083511 0.21542-0.082465 0.21542-0.081441 0.21542-0.080436 0.21542-0.077385 0.21542-0.07552 0.21542-0.073979 0.21542-0.07259 0.21542-0.071677 0.21542-0.075423 0.21542-0.077428 0.21542-0.077052 0.21542-0.076757 0.21542-0.076576 0.21542-0.076654 0.21542-0.081806 0.21542-0.081325 0.21542-0.080851 0.21542-0.080383 0.21542-0.079386 0.21542-0.081831 0.21542-0.081265 0.21542-0.080339 0.21542-0.07952 0.21542-0.078773 0.21542-0.07804 0.21542-0.077318 0.21542-0.076715 0.21542-0.075832 0.21542-0.074892 0.21542-0.073968 0.21542-0.073061 0.21542-0.071765 0.21542-0.069906 0.21542-0.068011 0.21542-0.067203 0.21542-0.066408 0.21542-0.065625 0.21542-0.064855 0.21542-0.064096 0.21542-0.063842 0.21542-0.063935 0.21542-0.063964 0.21542-0.063106 0.21542-0.062429 0.21542-0.06193 0.21542-0.059616 0.21542-0.053799 0.21542-0.053101 0.21542-0.053231 0.21542-0.053336 0.21542-0.053429 0.21542-0.053519 0.21542-0.053608 0.21542-0.053692 0.21542-0.053775 0.21542-0.053465 0.21542-0.052198 0.21542-0.050189 0.21542-0.047403 0.21542-0.045349 0.21542-0.046642 0.21542-0.047629 0.21542-0.04789 0.21542-0.048146 0.21542-0.047792 0.21542-0.047027 0.21542-0.042952 0.21542-0.042844 0.21542-0.042739 0.21542-0.042693 0.21542-0.042681 0.21542-0.042671 0.21542-0.042658 0.21542-0.042646 0.21542-0.042994 0.21542-0.043862 0.21542-0.045298 0.21542-0.044689 0.21542-0.044088 0.21542-0.043495 0.21542-0.043579 0.21542-0.043662 0.21542-0.044854 0.21542-0.045934 0.21542-0.04621 0.21542-0.045209 0.21542-0.048499 0.21542-0.048813 0.21542-0.048107 0.21542-0.047411 0.21542-0.046724 0.21542-0.045403 0.21542-0.044718 0.21542-0.044211 0.21542-0.043712 0.21542-0.044374 0.21542-0.046338 0.21542-0.046069 0.21542-0.045803 0.21542-0.045157 0.21542-0.044512 0.21542-0.04175 0.21542-0.041159 0.21542-0.040753 0.21542-0.040389 0.21542-0.040028 0.21542-0.039839 0.21542-0.041175 0.21542-0.041445 0.21542-0.041581 0.21542-0.041109 0.21542-0.04064 0.21542-0.039757 0.21542-0.037848 0.21542-0.036044 0.21542-0.035926 0.21542-0.035808 0.21542-0.035691 0.21542-0.035575 0.21542-0.034839 0.21542-0.034936 0.21542-0.0352 0.21542-0.03523 0.21542-0.035261 0.21542-0.035289 0.21542-0.034975 0.21542-0.034142 0.21542-0.030863 0.21542-0.028548 0.21542-0.027949 0.21542-0.027356 0.21542-0.026703 0.21542-0.025912 0.21542-0.021842 0.21542-0.021637 0.21542-0.02197 0.21542-0.021415 0.21542-0.02081 0.21542-0.01819 0.21542-0.017564 0.21542-0.017161 0.21542-0.016898 0.21542-0.016637 0.21542-0.016375 0.21542-0.016117 0.21542-0.015858 0.21542-0.015782 0.21542-0.015748 0.21542-0.015715 0.21542-0.015682 0.21542-0.01565 0.21542-0.015616 0.21542-0.015584 0.21542-0.016494 0.21542-0.016823 0.21542-0.017098 0.21542-0.017373 0.21542-0.018955 0.21542-0.019568 0.21542-0.019628 0.21542-0.019687 0.21542-0.019745 0.21542-0.019693 0.21542-0.019533 0.21542-0.019374 0.21542-0.019216 0.21542-0.019058 0.21542-0.018902 0.21542-0.018759 0.21542-0.018624 0.21542-0.018489 0.21542-0.018355 0.21542-0.018221 0.21542-0.018088 0.21542-0.018015 0.21542-0.018243 0.21542-0.018468 0.21542-0.018693 0.21542-0.018847 0.21542-0.017684 0.21542-0.017078 0.21542-0.016982 0.21542-0.017148 0.21542-0.017313 0.21542-0.01829 0.21542-0.017693 0.21542-0.017173 0.21542-0.017532 0.21542-0.01692 0.21542-0.017177 0.21542-0.017054 0.21542-0.016426 0.21542-0.016038 0.21542-0.015769 0.21542-0.015124 0.21542-0.014064 0.21542-0.014472 0.21542-0.016533 0.21542-0.016827 0.21542-0.01655 0.21542-0.016276 0.21542-0.015188 0.21542-0.014177 0.21542-0.01375 0.21542-0.013326 0.21542-0.010325 0.21542-0.008951 0.21542-0.00894 0.21542-0.009291 0.21542-0.009643 0.21542-0.009987 0.21542-0.010285 0.21542-0.010583 0.21542-0.010881 0.21542-0.01029 0.21542-0.009115 0.21542-0.00978 0.21542-0.00998 0.21542-0.009664 0.21542-0.009352 0.21542-0.009039 0.21542-0.008519 0.21542-0.00868 0.21542-0.00839 0.21542-0.008101 0.21542-0.007814 0.21542-0.007216 0.21542-0.007748 0.21542-0.007969 0.21542-0.008192 0.21542-0.008043 0.21542-0.007834 0.21542-0.007625 0.21542-0.007417 0.21542-0.007209 0.21542-0.007002 0.21542-0.006599 0.21542-0.005953 0.21542-0.006243 0.21542-0.005861 0.21542-0.00534 0.21542-0.005012 0.21542-0.004685 0.21542-0.004357 0.21542-0.003663 0.21542-0.003376 0.21542-0.004003 0.21542-0.004599 0.21542-0.004942 0.21542-0.005285 0.21542-0.005628 0.21542-0.006032 0.21542-0.006848 0.21542-0.007022 0.21542-0.006731 0.21542-0.007088 0.21542-0.00749 0.21542-0.007859 0.21542-0.008022 0.21542-0.008182 0.21542-0.008345 0.21542-0.008505 0.21542-0.009596 0.21542-0.01006 0.21542-0.010453 0.21542-0.010699 0.21542-0.010946 0.21542-0.011192 0.21542-0.011618 0.21542-0.013735 0.21542-0.013308 0.21542-0.01326 0.21542-0.012606 0.21542-0.012454 0.21542-0.012347 0.21542-0.012242 0.21542-0.010996 0.21542-0.010592 0.21542-0.010711 0.21542-0.010834 0.21542-0.010957 0.21542-0.01108 0.21542-0.01118 0.21542-0.010994 0.21542-0.010809 0.21542-0.010624 0.21542-0.010439 0.21542-0.010256 0.21542-0.010765 0.21542-0.01137 0.21542-0.011393 0.21542-0.010801 0.21542-0.010776 0.21542-0.010958 0.21542-0.011141 0.21542-0.011323 0.21542-0.011612 0.21542-0.011957 0.21542-0.01121 0.21542-0.011032 0.21542-0.010845 0.21542-0.010425 0.21542-0.010008 0.21542-0.008868 0.21542-0.009966 0.21542-0.012061 0.21542-0.011803 0.21542-0.012373 0.21542-0.012135 0.21542-0.011876 0.21542-0.012068 0.21542-0.012049 0.21542-0.011693 0.21542-0.011301 0.21542-0.010802 0.21542-0.010304 0.21542-0.007927 0.21542-0.008156 0.21542-0.009619 0.21542-0.00896 0.21542-0.008669 0.21542-0.008378 0.21542-0.00809 0.21542-0.008498 0.21542-0.008366 0.21542-0.008637 0.21542-0.008481 0.21542-0.007837 0.21542-0.007218 0.21542-0.007362 0.21542-0.007545 0.21542-0.007622 0.21542-0.00789 0.21542-0.007396 0.21542-0.006522 0.21542-0.005986 0.21542-0.00601 0.21542-0.00651 0.21542-0.007167 0.21542-0.007739 0.21542-0.008369 0.21542-0.008387 0.21542-0.008691 0.21542-0.008673 0.21542-0.008654 0.21542-0.008164 0.21542-0.00752 0.21542-0.007391 0.21542-0.007261 0.21542-0.007465 0.21542-0.007723 0.21542-0.008137 0.21542-0.009172 0.21542-0.009623 0.21542-0.009263 0.21542-0.009593 0.21542-0.010392 0.21542-0.011176 0.21542-0.013168 0.21542-0.013637 0.21542-0.014104 0.21542-0.014615 0.21542-0.015126 0.21542-0.01622 0.21542-0.017125 0.21542-0.016715 0.21542-0.016307 0.21542-0.015931 0.21542-0.015603 0.21542-0.015276 0.21542-0.014896 0.21542-0.014891 0.21542-0.0157 0.21542-0.015314 0.21542-0.015031 0.21542-0.014748 0.21542-0.014466 0.21542-0.014154 0.21542-0.013843 0.21542-0.013532 0.21542-0.013351 0.21542-0.012646 0.21542-0.012494 0.21542-0.013787 0.21542-0.013217 0.21542-0.016227 0.21542-0.015417 0.21542-0.014964 0.21542-0.013027 0.21542-0.013328 0.21542-0.013294 0.21542-0.013076 0.21542-0.012859 0.21542-0.012642 0.21542-0.012572 0.21542-0.012602 0.21542-0.01263 0.21542-0.012621 0.21542-0.012607 0.21542-0.015411 0.21542-0.015349 0.21542-0.015305 0.21542-0.015513 0.21542-0.015719 0.21542-0.015925 0.21542-0.015496 0.21542-0.015888 0.21542-0.015692 0.21542-0.014998 0.21542-0.014815 0.21542-0.015167 0.21542-0.015027 0.21542-0.014705 0.21542-0.014383 0.21542-0.013923 0.21542-0.012933 0.21542-0.01209 0.21542-0.012736 0.21542-0.012978 0.21542-0.013219 0.21542-0.013459 0.21542-0.013698 0.21542-0.014097 0.21542-0.013771 0.21542-0.012544 0.21542-0.012694 0.21542-0.012064 0.21542-0.012322 0.21542-0.012746 0.21542-0.013131 0.21542-0.014127 0.21542-0.013884 0.21542-0.014465 0.21542-0.014817 0.21542-0.015169 0.21542-0.015867 0.21542-0.015665 0.21542-0.01439 0.21542-0.014959 0.21542-0.014973 0.21542-0.014664 0.21542-0.014578 0.21542-0.013903 0.21542-0.013699 0.21542-0.013632 0.21542-0.013556 0.21542-0.013621 0.21542-0.013665 0.21542-0.013057 0.21542-0.012358 0.21542-0.011612 0.21542-0.010065 0.21542-0.010211 0.21542-0.010358 0.21542-0.010112 0.21542-0.009744 0.21542-0.009365 0.21542-0.008838 0.21542-0.008284 0.21542-0.007842 0.21542-0.007326 0.21542-0.006447 0.21542-0.006322 0.21542-0.006803 0.21542-0.007892 0.21542-0.008186 0.21542-0.008277 0.21542-0.008025 0.21542-0.007427 0.21542-0.007101 0.21542-0.006642 0.21542-0.005649 0.21542-0.004398 0.21542-0.004349 0.21542-0.004178 0.21542-0.003788 0.21542-0.003085 0.21542-0.001324 0.21542-8.24e-4 0.21542-2.99e-4 0.21542 2.66e-4 0.21542 5.39e-4 0.21542 5.85e-4 0.21542 3.5e-5 0.21542 4e-4 0.21542 4.27e-4 0.21542 4.82e-4 0.21542 5.53e-4 0.21542 6.05e-4 0.21542 6.58e-4 0.21542 0.001138 0.21542 0.002441 0.21542 0.001833 0.21542 0.001732 0.21542 0.001748 0.21542 0.001762 0.21542 0.001748 0.21542 0.002121 0.21542 0.001527 0.21542 8.2e-4 0.21542 0.001162 0.21542 0.001506 0.21542 0.00309 0.21542 0.002891 0.21542 0.006083 0.21542 0.005846 0.21542 0.005168 0.21542 0.005274 0.21542 0.005381 0.21542 0.005488 0.21542 0.00568 0.21542 0.005927 0.21542 0.005857 0.21542 0.005713 0.21542 0.005658 0.21542 0.00584 0.21542 0.00597 0.21542 0.006316 0.21542 0.008398 0.21542 0.008365 0.21542 0.006481 0.21542 0.007003 0.21542 0.006977 0.21542 0.00695 0.21542 0.00633 0.21542 0.006476 0.21542 0.006434 0.21542 0.005725 0.21542 0.005459 0.21542 0.005191 0.21542 0.004291 0.21542 0.003705 0.21542 0.004144 0.21542 0.004005 0.21542 0.003448 0.21542 0.003076 0.21542 0.003216 0.21542 0.003444 0.21542 0.003673 0.21542 0.003608 0.21542 0.002743 0.21542 0.00319 0.21542 0.003644 0.21542 0.004124 0.21542 0.00483 0.21542 0.00432 0.21542 0.004118 0.21542 0.004427 0.21542 0.004955 0.21542 0.005972 0.21542 0.005486 0.21542 0.005775 0.21542 0.005749 0.43083 0.011442 0.21542 0.00598 0.21542 0.006241 0.21542 0.006504 0.21542 0.006533 0.21542 0.006199 0.21542 0.006079 0.21542 0.005971 0.21542 0.005865 0.21542 0.005708 0.21542 0.005542 0.21542 0.004933 0.21542 0.003992 0.21542 0.002115 0.21542 0.001912 0.21542 0.001567 0.21542 5.69e-4 0.21542-3.15e-4 0.21542-9.5e-4 0.21542-0.001586 0.21542-0.003004 0.21542-0.002855 0.21542-0.002779 0.21542-0.003478 0.21542-0.005179 0.21542-0.005994 0.21542-0.006545 0.21542-0.006606 0.21542-0.005919 0.21542-0.004502 0.21542-0.003855 0.21542-0.003822 0.21542-0.00414 0.21542-0.004718 0.21542-0.004434 0.21542-0.003771 0.21542-0.00373 0.21542-0.004469 0.21542-0.004347 0.21542-0.003049 0.21542-0.004917 0.21542-0.004641 0.21542-0.004503 0.21542-0.004425 0.21542-0.004384 0.21542-0.004458 0.21542-0.004232 0.21542-0.003776 0.21542-0.002898 0.21542-0.003493 0.21542-0.004148 0.21542-0.003866 0.21542-0.003949 0.21542-0.004012 0.21542-0.004076 0.21542-0.004219 0.21542-0.003885 0.21542-0.003004 0.21542-0.003664 0.21542-0.004245 0.21542-0.004257 0.21542-0.004268 0.21542-0.004671 0.21542-0.004121 0.21542-0.004443 0.21542-0.007227 0.21542-0.008559 0.21542-0.009031 0.21542-0.008904 0.21542-0.009454 0.21542-0.009363 0.21542-0.008932 0.21542-0.009293 0.21542-0.009652 0.21542-0.00997 0.21542-0.010371 0.21542-0.010824 0.21542-0.01096 0.21542-0.011541 0.21542-0.011831 0.21542-0.012744 0.21542-0.013019 0.21542-0.013374 0.21542-0.012346 0.21542-0.012517 0.21542-0.010866 0.21542-0.011587 0.21542-0.011922 0.21542-0.012224 0.21542-0.012352 0.21542-0.012478 0.21542-0.0124 0.21542-0.012055 0.21542-0.013627 0.21542-0.013807 0.21542-0.013157 0.21542-0.012811 0.21542-0.013455 0.21542-0.013369 0.21542-0.013749 0.21542-0.01743 0.21542-0.018857 0.21542-0.018652 0.21542-0.018448 0.21542-0.018761 0.21542-0.017518 0.21542-0.017461 0.21542-0.01978 0.21542-0.020381 0.21542-0.020153 0.21542-0.019881 0.21542-0.019741 0.21542-0.020061 0.21542-0.020923 0.21542-0.020599 0.21542-0.020154 0.21542-0.019722 0.21542-0.019233 0.21542-0.018709 0.21542-0.020472 0.21542-0.021902 0.21542-0.021876 0.21542-0.022371 0.21542-0.022853 0.21542-0.023615 0.21542-0.022814 0.21542-0.024339 0.21542-0.025391 0.21542-0.025623 0.21542-0.025852 0.21542-0.026351 0.21542-0.027205 0.21542-0.026126 0.21542-0.02743 0.21542-0.027954 0.21542-0.028323 0.21542-0.02719 0.21542-0.02729 0.21542-0.027186 0.21542-0.027298 0.21542-0.029092 0.43083-0.059154 0.21542-0.02894 0.21542-0.029545 0.21542-0.030341 0.21542-0.031221 0.21542-0.03235 0.21542-0.033315 0.21542-0.033948 0.21542-0.033989 0.21542-0.034168 0.21542-0.035183 0.21542-0.037068 0.21542-0.038729 0.21542-0.042111 0.21542-0.041755 0.21542-0.042379 0.21542-0.044145 0.21542-0.042958 0.21542-0.043214 0.21542-0.044704 0.21542-0.047688 0.21542-0.048134 0.21542-0.048667 0.21542-0.04894 0.21542-0.050478 0.21542-0.053036 0.21542-0.055419 0.21542-0.055349 0.21542-0.056111 0.21542-0.056443 0.21542-0.056484 0.21542-0.056318 0.21542-0.056406 0.21542-0.057467 0.21542-0.057991 0.21542-0.057815 0.21542-0.057986 0.21542-0.058214 0.21542-0.058663 0.21542-0.058619 0.21542-0.059981 0.21542-0.059268 0.21542-0.05739 0.21542-0.057082 0.21542-0.058016 0.21542-0.060552 0.21542-0.060465 0.21542-0.060822 0.21542-0.06045 0.21542-0.060081 0.21542-0.059718 0.21542-0.059386 0.21542-0.06035 0.21542-0.060226 0.21542-0.060081 0.21542-0.059505 0.21542-0.059337 0.21542-0.0588 0.21542-0.058518 0.21542-0.057632 0.21542-0.057227 0.21542-0.057624 0.21542-0.057425 0.21542-0.057773 0.21542-0.05714 0.21542-0.055858 0.21542-0.054583 0.21542-0.054143 0.21542-0.054393 0.21542-0.054191 0.21542-0.053309 0.21542-0.054318 0.21542-0.053692 0.21542-0.053355 0.21542-0.053189 0.21542-0.052761 0.21542-0.052085 0.21542-0.049427 0.21542-0.048319 0.21542-0.048411 0.21542-0.048501 0.21542-0.047597 0.21542-0.047162 0.21542-0.047256 0.21542-0.045747 0.21542-0.045018 0.21542-0.045458 0.21542-0.046535 0.21542-0.046823 0.21542-0.046942 0.21542-0.046671 0.21542-0.047043 0.21542-0.047597 0.21542-0.047801 0.21542-0.047881 0.21542-0.048012 0.21542-0.046809 0.21542-0.046021 0.21542-0.047003 0.21542-0.046171 0.21542-0.046352 0.21542-0.045995 0.21542-0.048198 0.21542-0.047328 0.21542-0.047187 0.21542-0.046724 0.21542-0.046316 0.21542-0.047677 0.21542-0.047228 0.21542-0.046862 0.21542-0.048024 0.21542-0.048574 0.21542-0.052844 0.21542-0.053045 0.21542-0.055668 0.21542-0.063405 0.21542-0.066063 0.21542-0.064924 0.21542-0.065572 0.21542-0.065761 0.21542-0.064593 0.21542-0.063797 0.21542-0.063253 0.21542-0.063076 0.21542-0.061778 0.21542-0.061414 0.21542-0.062057 0.21542-0.062431 0.21542-0.062341 0.21542-0.061953 0.21542-0.060491 0.21542-0.05939 0.21542-0.057144 0.21542-0.05691 0.21542-0.056489 0.21542-0.058174 0.21542-0.069423 0.21542-0.068827 0.21542-0.067527 0.21542-0.065446 0.21542-0.064796 0.21542-0.064242 0.21542-0.063289 0.21542-0.062065 0.21542-0.059898 0.21542-0.058717 0.21542-0.058361 0.21542-0.057849 0.21542-0.060201 0.21542-0.065192 0.21542-0.071163 0.21542-0.070656 0.21542-0.068561 0.21542-0.068044 0.21542-0.067735 0.21542-0.074157 0.21542-0.073281 0.21542-0.072505 0.21542-0.071992 0.21542-0.070897 0.21542-0.068505 0.21542-0.067938 0.21542-0.067119 0.21542-0.065993 0.21542-0.064375 0.21542-0.06354 0.21542-0.062865 0.21542-0.062364 0.21542-0.061872 0.21542-0.061483 0.21542-0.06118 0.21542-0.064904 0.21542-0.075565 0.21542-0.074765 0.21542-0.073975 0.21542-0.073393 0.21542-0.072585 0.21542-0.071863 0.21542-0.071418 0.21542-0.071101 0.21542-0.070301 0.21542-0.069617 0.21542-0.069207 0.21542-0.074862 0.21542-0.078181 0.21542-0.078216 0.21542-0.081903 0.21542-0.081142 0.21542-0.080513 0.21542-0.079833 0.21542-0.080763 0.21542-0.090492 0.21542-0.089771 0.21542-0.088978 0.21542-0.08843 0.21542-0.086467 0.21542-0.085732 0.21542-0.085126 0.21542-0.083968 0.21542-0.088715 0.21542-0.093904 0.21542-0.093064 0.21542-0.092383 0.21542-0.091462 0.21542-0.091653 0.21542-0.090765 0.21542-0.08948 0.21542-0.088288 0.21542-0.093139 0.21542-0.092308 0.21542-0.091488 0.21542-0.090365 0.21542-0.10712 0.21542-0.10519 0.21542-0.10393 0.21542-0.10276 0.21542-0.10159 0.21542-0.099907 0.21542-0.09897 0.21542-0.097726 0.21542-0.097146 0.21542-0.095703 0.21542-0.094698 0.21542-0.093105 0.21542-0.097804 0.21542-0.10305 0.21542-0.10102 0.21542-0.099682 0.21542-0.098499 0.21542-0.096642 0.21542-0.095259 0.21542-0.0923 0.21542-0.091372 0.21542-0.089334 0.21542-0.085125 0.21542-0.083145 0.21542-0.082714 0.21542-0.084217 0.21542-0.088793 0.21542-0.092794 0.21542-0.1005 0.21542-0.099472 0.21542-0.098308 0.21542-0.097775 0.21542-0.096858 0.21542-0.095532 0.21542-0.094662 0.21542-0.09736 0.21542-0.1012 0.21542-0.10018 0.21542-0.09924 0.21542-0.098294 0.21542-0.097242 0.21542-0.097263 0.21542-0.098281 0.21542-0.09328 0.21542-0.092517 0.21542-0.091827 0.21542-0.093629 0.21542-0.096863 0.21542-0.10598 0.21542-0.10505 0.21542-0.10379 0.21542-0.10271 0.21542-0.10536 0.21542-0.10735 0.21542-0.10607 0.21542-0.10411 0.21542-0.10584 0.21542-0.10426 0.21542-0.10316 0.21542-0.10258 0.21542-0.10162 0.21542-0.10611 0.21542-0.10304 0.21542-0.10188 0.21542-0.10079 0.21542-0.099828 0.21542-0.098747 0.21542-0.099924 0.21542-0.10076 0.21542-0.099709 0.21542-0.098706 0.21542-0.097683 0.21542-0.096816 0.21542-0.095915 0.21542-0.095002 0.21542-0.094004 0.21542-0.09292 0.21542-0.092021 0.21542-0.089545 0.21542-0.084927 0.21542-0.084175 0.21542-0.0835 0.21542-0.082734 0.21542-0.082078 0.21542-0.081388 0.21542-0.080764 0.21542-0.080099 0.21542-0.079391 0.21542-0.078739 0.21542-0.07792 0.21542-0.075227 0.21542-0.073456 0.21542-0.072824 0.21542-0.070826 0.21542-0.070231 0.21542-0.069688 0.21542-0.069131 0.21542-0.067868 0.21542-0.063729 0.21542-0.063265 0.21542-0.062805 0.21542-0.062349 0.21542-0.061571 0.21542-0.061193 0.21542-0.060774 0.21542-0.060506 0.21542-0.058174 0.21542-0.055797 0.21542-0.055531 0.21542-0.055126 0.21542-0.054841 0.21542-0.054189 0.21542-0.053816 0.21542-0.053474 0.21542-0.053188 0.21542-0.050789 0.21542-0.050386 0.21542-0.050036 0.21542-0.049772 0.21542-0.042997 0.21542-0.043054 0.21542-0.0429 0.21542-0.042721 0.21542-0.042554 0.21542-0.042441 0.21542-0.042309 0.21542-0.042137 0.21542-0.041779 0.21542-0.041483 0.21542-0.041311 0.21542-0.041304 0.21542-0.038982 0.21542-0.03637 0.21542-0.036208 0.21542-0.03604 0.21542-0.03582 0.21542-0.03565 0.21542-0.035476 0.21542-0.035358 0.21542-0.035214 0.21542-0.035031 0.21542-0.034872 0.21542-0.034612 0.21542-0.034281 0.21542-0.03302 0.21542-0.030522 0.21542-0.028419 0.21542-0.024606 0.21542-0.024505 0.21542-0.024383 0.21542-0.024154 0.21542-0.024011 0.21542-0.023915 0.21542-0.02368 0.21542-0.021913 0.21542-0.019522 0.21542-0.019515 0.21542-0.019461 0.21542-0.019383 0.21542-0.019355 0.21542-0.018603 0.21542-0.017149 0.21542-0.016733 0.21542-0.01656 0.21542-0.016391 0.21542-0.015054 0.21542-0.012983 0.21542-0.00791 0.21542-0.00788 0.21542-0.007956 0.21542-0.008027 0.21542-0.005991 0.43083-0.008609 0.21542-0.004165 0.21542-0.001531 0.21542-4.75e-4 0.21542-4.54e-4 0.21542-4.28e-4 0.21542-2.12e-4 0.21542 0.003062 0.21542 0.003444 0.43083 0.006734 0.21542 0.003423 0.21542 0.003425 0.21542 0.004358 0.21542 0.00555 0.21542 0.005585 0.21542 0.005655 0.21542 0.005787 0.21542 0.005882 0.21542 0.005901 0.21542 0.005972 0.21542 0.005939 0.21542 0.005922 0.21542 0.005926 0.21542 0.005928 0.21542 0.005937 0.21542 0.005977 0.21542 0.005987 0.21542 0.005991 0.21542 0.005997 0.21542 0.006019 0.21542 0.006093 0.43083 0.012254 0.21542 0.006109 0.64625 0.018264 0.43083 0.012365 0.21542 0.006187 0.21542 0.006213 0.21542 0.006282 0.21542 0.006309 0.21542 0.006251 0.21542 0.006317 0.43083 0.012637 0.21542 0.005681 0.21542 0.005691 0.21542 0.005698 0.21542 0.005791 0.21542 0.00581 0.21542 0.005838 0.21542 0.005861 0.21542 0.005876 0.21542 0.00591 0.21542 0.005967 0.43083 0.01215 0.21542 0.006124 0.21542 0.006196 0.64625 0.018461 0.21542 0.006102 0.21542 0.006399 0.21542 0.006423 0.21542 0.00647 0.21542 0.006546 0.21542 0.006588 0.21542 0.006629 0.21542 0.007117 0.21542 0.007249 0.21542 0.007298 0.21542 0.007518 0.21542 0.007539 0.21542 0.007564 0.21542 0.007587 0.21542 0.007619 0.21542 0.007621 0.64625 0.02253 0.21542 0.007571 0.21542 0.007591 0.21542 0.007603 0.21542 0.007585 0.21542 0.007686 0.21542 0.007749 0.21542 0.007845 0.21542 0.007915 0.64625 0.023704 0.21542 0.007885 0.21542 0.007987 0.21542 0.00804 0.21542 0.00809 0.21542 0.008268 0.21542 0.008423 0.21542 0.008514 0.21542 0.008597 0.21542 0.008749 0.21542 0.008703 0.21542 0.00865 0.21542 0.00839 0.21542 0.008342 0.21542 0.008179 0.21542 0.008085 0.21542 0.008063 0.21542 0.008147 0.21542 0.00816 0.21542 0.008218 0.21542 0.008286 0.21542 0.008404 0.21542 0.008484 0.21542 0.00853 0.21542 0.008885 0.21542 0.008862 0.21542 0.008964 0.21542 0.008944 0.21542 9e-3 0.21542 0.009063 0.43083 0.01818 0.21542 0.009063 0.21542 0.009167 0.21542 0.009179 0.21542 0.009246 0.21542 0.009278 0.21542 0.009342 0.21542 0.00943 0.21542 0.009386 0.43083 0.018728 0.21542 0.009392 0.21542 0.009413 0.21542 0.009421 0.43083 0.018696 0.21542 0.00925 0.21542 0.009269 0.21542 0.009414 0.21542 0.009499 0.21542 0.009558 0.21542 0.009586 0.21542 0.009629 0.21542 0.009724 0.21542 0.010125 0.21542 0.010163 0.21542 0.010387 0.21542 0.010587 0.21542 0.010672 0.21542 0.010713 0.21542 0.010832 0.21542 0.010882 0.21542 0.011088 0.21542 0.011122 0.21542 0.011178 0.43083 0.022554 0.21542 0.011437 0.21542 0.011583 0.21542 0.011548 0.21542 0.011886 0.21542 0.011925 0.21542 0.012013 0.21542 0.012628 0.21542 0.012794 0.21542 0.012755 0.21542 0.012728 0.21542 0.012844 0.21542 0.012929 0.21542 0.012948 0.21542 0.013006 0.21542 0.012952 0.21542 0.012892 0.21542 0.012948 0.21542 0.012975 0.21542 0.013311 0.21542 0.013318 0.21542 0.013351 0.21542 0.013379 0.21542 0.013388 0.43083 0.026098 0.21542 0.013033 0.21542 0.01311 0.21542 0.013405 0.21542 0.013456 0.21542 0.013021 0.21542 0.012983 0.21542 0.013055 0.21542 0.012881 0.21542 0.012916 0.21542 0.012976 0.21542 0.013029 0.21542 0.013321 0.21542 0.013353 0.21542 0.013518 0.21542 0.014061 0.21542 0.01425 0.21542 0.014211 0.21542 0.014618 0.21542 0.014757 0.21542 0.014794 0.21542 0.014742 0.21542 0.014658 0.21542 0.014586 0.21542 0.014725 0.21542 0.014795 0.21542 0.014946 0.21542 0.015005 0.21542 0.01506 0.21542 0.014923 0.21542 0.014899 0.21542 0.014968 0.21542 0.014955 0.21542 0.01486 0.21542 0.01481 0.21542 0.014773 0.21542 0.014669 0.21542 0.01473 0.21542 0.01477 0.21542 0.014879 0.21542 0.015005 0.21542 0.015142 0.21542 0.0152 0.21542 0.015225 0.21542 0.01527 0.21542 0.015275 0.21542 0.015234 0.21542 0.015278 0.21542 0.01523 0.21542 0.015309 0.21542 0.015292 0.21542 0.015068 0.21542 0.015299 0.21542 0.015218 0.21542 0.015613 0.21542 0.015635 0.21542 0.015604 0.21542 0.015708 0.21542 0.015618 0.21542 0.015637 0.21542 0.015595 0.43083 0.031302 0.21542 0.01575 0.21542 0.015986 0.21542 0.015997 0.21542 0.016255 0.43083 0.03259 0.21542 0.016206 0.21542 0.016264 0.21542 0.016598 0.21542 0.016866 0.21542 0.016929 0.21542 0.016948 0.21542 0.016974 0.21542 0.01701 0.21542 0.016972 0.21542 0.01685 0.21542 0.016901 0.21542 0.017534 0.21542 0.017545 0.21542 0.017077 0.21542 0.017038 0.21542 0.017054 0.21542 0.016895 0.21542 0.016853 0.21542 0.016862 0.21542 0.016831 0.21542 0.016808 0.43083 0.03293 0.21542 0.01645 0.21542 0.016355 0.21542 0.016313 0.21542 0.016129 0.21542 0.015877 0.21542 0.015882 0.21542 0.015551 0.21542 0.015582 0.21542 0.015556 0.21542 0.014991 0.21542 0.014929 0.21542 0.015148 0.21542 0.01526 0.21542 0.015153 0.21542 0.015164 0.21542 0.015188 0.21542 0.015208 0.21542 0.015224 0.21542 0.015157 0.43083 0.030632 0.21542 0.014977 0.21542 0.015029 0.43083 0.030098 0.21542 0.015068 0.21542 0.015087 0.43083 0.030459 0.21542 0.015078 0.21542 0.014722 0.21542 0.014657 0.21542 0.014593 0.21542 0.014533 0.21542 0.01467 0.43083 0.02949 0.21542 0.014799 0.21542 0.014814 0.21542 0.014497 0.21542 0.014591 0.21542 0.014621 0.21542 0.013949 0.21542 0.013712 0.21542 0.01367 0.21542 0.013321 0.21542 0.013235 0.21542 0.01324 0.21542 0.013299 0.21542 0.013411 0.21542 0.013522 0.21542 0.013319 0.21542 0.013418 0.21542 0.013288 0.21542 0.013319 0.21542 0.013349 0.21542 0.013475 0.21542 0.013493 0.21542 0.013408 0.21542 0.01329 0.21542 0.01335 0.21542 0.013278 0.21542 0.013355 0.21542 0.013392 0.21542 0.013376 0.21542 0.013388 0.21542 0.013488 0.21542 0.013501 0.43083 0.026823 0.21542 0.013454 0.21542 0.013364 0.21542 0.013611 0.21542 0.013685 0.21542 0.013607 0.21542 0.013568 0.21542 0.013527 0.21542 0.013602 0.21542 0.013477 0.21542 0.013226 0.21542 0.013215 0.21542 0.012757 0.21542 0.013124 0.21542 0.013945 0.21542 0.013974 0.21542 0.013986 0.21542 0.01404 0.21542 0.013996 0.21542 0.013967 0.21542 0.01397 0.21542 0.014084 0.21542 0.015287 0.21542 0.016776 0.64625 0.049556 0.21542 0.016496 0.21542 0.016673 0.21542 0.016333 0.21542 0.01609 0.21542 0.01645 0.21542 0.019322 0.21542 0.02065 0.21542 0.022046 0.21542 0.022187 0.21542 0.022338 0.21542 0.022621 0.43083 0.044104 0.21542 0.022374 0.21542 0.024787 0.21542 0.028308 0.21542 0.02869 0.21542 0.02914 0.21542 0.029297 0.21542 0.02932 0.21542 0.029412 0.21542 0.029503 0.21542 0.0302 0.21542 0.034015 0.21542 0.03534 0.21542 0.04289 0.21542 0.043213 0.21542 0.043459 0.21542 0.043832 0.21542 0.047039 0.21542 0.049693 0.21542 0.050232 0.21542 0.052945 0.21542 0.053398 0.21542 0.055414 0.21542 0.056491 0.21542 0.056817 0.21542 0.058598 0.21542 0.060289 0.21542 0.060537 0.21542 0.060884 0.21542 0.061253 0.21542 0.061427 0.21542 0.061943 0.21542 0.062192 0.21542 0.062608 0.21542 0.062934 0.21542 0.063322 0.21542 0.063714 0.21542 0.064209 0.21542 0.064499 0.21542 0.064993 0.21542 0.065723 0.21542 0.066187 0.21542 0.066638 0.21542 0.067317 0.21542 0.067802 0.21542 0.068021 0.21542 0.068322 0.21542 0.068744 0.21542 0.069042 0.21542 0.069346 0.21542 0.06964 0.21542 0.069908 0.21542 0.070073 0.21542 0.070655 0.21542 0.071135 0.21542 0.071614 0.21542 0.071928 0.21542 0.072378 0.21542 0.072891 0.21542 0.073295 0.21542 0.073877 0.21542 0.075013 0.21542 0.076632 0.21542 0.076945 0.21542 0.077477 0.21542 0.077946 0.21542 0.078434 0.21542 0.078837 0.21542 0.079459 0.21542 0.080151 0.21542 0.080815 0.21542 0.081503 0.21542 0.082159 0.21542 0.082658 0.21542 0.083245 0.21542 0.084039 0.21542 0.084794 0.21542 0.087177 0.21542 0.08802 0.21542 0.088865 0.21542 0.08957 0.21542 0.09017 0.21542 0.09084 0.21542 0.091215 0.21542 0.092123 0.21542 0.093579 0.21542 0.10177 0.21542 0.10259 0.21542 0.10349 0.21542 0.1044 0.21542 0.1055 0.21542 0.10668 0.21542 0.10802 0.21542 0.11083 0.21542 0.11051 0.21542 0.11189 0.21542 0.11784 0.21542 0.11904 0.21542 0.12039 0.21542 0.12178 0.21542 0.12312 0.21542 0.1241 0.21542 0.12246 0.21542 0.12373 0.21542 0.12576 0.21542 0.12986 0.21542 0.13167 0.21542 0.13344 0.21542 0.13459 0.21542 0.13644 0.21542 0.13825 0.21542 0.13922 0.21542 0.13446 0.21542 0.13321 0.21542 0.13374 0.21542 0.13519 0.21542 0.1367 0.21542 0.1378 0.21542 0.13936 0.21542 0.14176 0.21542 0.14873 0.21542 0.14451 0.21542 0.13654 0.21542 0.13774 0.21542 0.14053 0.21542 0.14516 0.21542 0.14713 0.21542 0.14921 0.21542 0.15135 0.21542 0.15182 0.21542 0.14318 0.21542 0.14159 0.21542 0.12173 0.21542 0.12281 0.21542 0.12408 0.21542 0.12489 0.21542 0.117 0.21542 0.11066 0.21542 0.11059 0.21542 0.10352 0.21542 0.10357 0.21542 0.098084 0.21542 0.096119 0.21542 0.096778 0.21542 0.092635 0.21542 0.089069 0.21542 0.089795 0.21542 0.090534 0.21542 0.098799 0.21542 0.099596 0.21542 0.099849 0.21542 0.10067 0.21542 0.10129 0.21542 0.10226 0.21542 0.10325 0.21542 0.10423 0.21542 0.10491 0.21542 0.10568 0.43084 0.21288 0.21542 0.10737 0.21542 0.10838 0.21542 0.10857 0.21542 0.10943 0.21542 0.11021 0.21542 0.11131 0.21542 0.11248 0.21542 0.11368 0.21542 0.1149 0.21542 0.11615 0.21542 0.11743 0.21542 0.11876 0.21542 0.1247 0.21542 0.13208 0.21542 0.13383 0.21542 0.13563 0.21542 0.13732 0.21542 0.13888 0.21542 0.14054 0.21542 0.14141 0.21542 0.14044 0.21542 0.13822 0.21542 0.14002 0.21542 0.14188 0.21542 0.1438 0.21542 0.14576 0.21542 0.14778 0.21542 0.1497 0.21542 0.15144 0.21542 0.15312 0.21542 0.15447 0.21542 0.15655 0.21542 0.1588 0.21542 0.16084 0.21542 0.16274 0.21542 0.16491 0.21542 0.15924 0.21542 0.16039 0.21542 0.1622 0.21542 0.1647 0.21542 0.16728 0.21542 0.16995 0.21542 0.1727 0.21542 0.17458 0.21542 0.17462 0.21542 0.14495 0.21542 0.14687 0.21542 0.14884 0.21542 0.15087 0.21542 0.15283 0.21542 0.15459 0.21542 0.15575 0.21542 0.14611 0.21542 0.14774 0.21542 0.14754 0.21542 0.12766 0.21542 0.12915 0.21542 0.13069 0.21542 0.13226 0.21542 0.13387 0.21542 0.13552 0.21542 0.13683 0.21542 0.12396 0.21542 0.12263 0.21542 0.11206 0.21542 0.11227 0.21542 0.11263 0.21542 0.11292 0.21542 0.11352 0.21542 0.11439 0.21542 0.11523 0.21542 0.11603 0.21542 0.11684 0.21542 0.10655 0.21542 0.10754 0.21542 0.10856 0.21542 0.10958 0.21542 0.11022 0.21542 0.10858 0.21542 0.083823 0.21542 0.08422 0.21542 0.084588 0.21542 0.083744 0.21542 0.075633 0.21542 0.063296 0.21542 0.063635 0.21542 0.063977 0.21542 0.065363 0.21542 0.065825 0.21542 0.066293 0.43083 0.13352 0.21542 0.068999 0.21542 0.069585 0.21542 0.070179 0.21542 0.070783 0.21542 0.071514 0.21542 0.072467 0.21542 0.07311 0.21542 0.073559 0.21542 0.074022 0.21542 0.07449 0.21542 0.074967 0.21542 0.075448 0.21542 0.075937 0.21542 0.076433 0.21542 0.076934 0.21542 0.048035 0.21542 0.04778 0.21542 0.047885 0.21542 0.047992 0.21542 0.048099 0.21542 0.048205 0.21542 0.048347 0.21542 0.048655 0.21542 0.048964 0.21542 0.049277 0.21542 0.049593 0.21542 0.049914 0.21542 0.050237 0.21542 0.050564 0.21542 0.080288 0.21542 0.080992 0.21542 0.081708 0.21542 0.082435 0.21542 0.083175 0.21542 0.083927 0.21542 0.084693 0.21542 0.085473 0.21542 0.085913 0.21542 0.086367 0.21542 0.069765 0.21542 0.049915 0.21542 0.049998 0.21542 0.050081 0.21542 0.050186 0.21542 0.050418 0.21542 0.050653 0.21542 0.05089 0.21542 0.05113 0.21542 0.051372 0.21542 0.051616 0.21542 0.051863 0.21542 0.052112 0.21542 0.052363 0.21542 0.052617 0.21542 0.052874 0.21542 0.053134 0.21542 0.053395 0.21542 0.053659 0.21542 0.053927 0.21542 0.054196 0.21542 0.05447 0.21542 0.054744 0.21542 0.055024 0.21542 0.055304 0.21542 0.055589 0.21542 0.055876 0.21542 0.056167 0.21542 0.05646 0.21542 0.056756 0.21542 0.057057 0.21542 0.057359 0.21542 0.057666 0.21542 0.057976 0.21542 0.058289 0.21542 0.058605 0.21542 0.058926 0.21542 0.05925 0.21542 0.059577 0.21542 0.059909 0.21542 0.060244 0.21542 0.060582 0.21542 0.060926 0.21542 0.061272 0.21542 0.061623 0.21542 0.061978 0.21542 0.062337 0.21542 0.062701 0.21542 0.063069 0.21542 0.063441 0.21542 0.063818 0.21542 0.064199 0.21542 0.064585 0.21542 0.064977 0.21542 0.065372 0.21542 0.065773 0.21542 0.066179 0.21542 0.066495 0.21542 0.066694 0.21542 0.066896 0.21542 0.067097 0.21542 0.067299 0.21542 0.067504 0.21542 0.067708 0.21542 0.067921 0.21542 0.068203 0.21542 0.068491 0.21542 0.06878 0.21542 0.069072 0.21542 0.069366 0.21542 0.069665 0.21542 0.069965 0.21542 0.070268 0.21542 0.070575 0.21542 0.070884 0.21542 0.069046 0.21542 0.069129 0.21542 0.069211 0.21542 0.06929 0.21542 0.06937 0.21542 0.065209 0.21542 0.065085 0.21542 0.064957 0.21542 0.064823 0.21542 0.064439 0.21542 0.063614 0.21542 0.063442 0.21542 0.06371 0.21542 0.063979 0.21542 0.064251 0.21542 0.064525 0.21542 0.064804 0.21542 0.065083 0.21542 0.065366 0.21542 0.065652 0.21542 0.065941 0.21542 0.066232 0.21542 0.066526 0.21542 0.066823 0.21542 0.067124 0.21542 0.067427 0.21542 0.067665 0.21542 0.067813 0.21542 0.067961 0.21542 0.068108 0.21542 0.068256 0.21542 0.068403 0.21542 0.06855 0.21542 0.068697 0.21542 0.007426 0.21542 0.007139 0.21542 0.006852 0.21542 0.006563 0.21542 0.006274 0.21542 0.005985 0.21542 0.005694 0.21542 0.005404 0.21542 0.005101 0.21542 0.006697 0.21542 0.015379 0.21542 0.037266v36.001h-405.21z" stroke="#0766aa" stroke-opacity=".2"/>
</defs>
<g clip-path="url(#h)">
<use y="413.19625" fill="#0766aa" fill-opacity=".2" stroke="#0766aa" stroke-opacity=".2" xlink:href="#af"/>
</g>
<path d="m108.04 170.63v-141.83" clip-path="url(#h)" fill="none" stroke="#b0b0b0" stroke-linecap="square" stroke-width=".8"/>
<defs>
<path id="d" d="m0 0v3.5" stroke="#000" stroke-width=".8"/>
</defs>
<use x="108.04043" y="170.627393" stroke="#000000" stroke-width=".8" xlink:href="#d"/>
<path d="m183.62 170.63v-141.83" clip-path="url(#h)" fill="none" stroke="#b0b0b0" stroke-linecap="square" stroke-width=".8"/>
<use x="183.621774" y="170.627393" stroke="#000000" stroke-width=".8" xlink:href="#d"/>
<path d="m259.2 170.63v-141.83" clip-path="url(#h)" fill="none" stroke="#b0b0b0" stroke-linecap="square" stroke-width=".8"/>
<use x="259.203118" y="170.627393" stroke="#000000" stroke-width=".8" xlink:href="#d"/>
<path d="m334.78 170.63v-141.83" clip-path="url(#h)" fill="none" stroke="#b0b0b0" stroke-linecap="square" stroke-width=".8"/>
<use x="334.784461" y="170.627393" stroke="#000000" stroke-width=".8" xlink:href="#d"/>
<path d="m410.37 170.63v-141.83" clip-path="url(#h)" fill="none" stroke="#b0b0b0" stroke-linecap="square" stroke-width=".8"/>
<use x="410.365805" y="170.627393" stroke="#000000" stroke-width=".8" xlink:href="#d"/>
<path d="m485.95 170.63v-141.83" clip-path="url(#h)" fill="none" stroke="#b0b0b0" stroke-linecap="square" stroke-width=".8"/>
<use x="485.947149" y="170.627393" stroke="#000000" stroke-width=".8" xlink:href="#d"/>
<defs>
<path id="e" d="m0 0h-3.5" stroke="#000" stroke-width=".8"/>
</defs>
<use x="40.603125" y="154.105211" stroke="#000000" stroke-width=".8" xlink:href="#e"/>
<defs>
<path id="f" d="m12.406 8.2969h16.109v55.625l-17.531-3.5156v8.9844l17.438 3.5156h9.8594v-64.609h16.109v-8.2969h-41.984z"/>
<path id="g" d="m31.781 66.406q-7.6094 0-11.453-7.5-3.8281-7.4844-3.8281-22.531 0-14.984 3.8281-22.484 3.8438-7.5 11.453-7.5 7.6719 0 11.5 7.5 3.8438 7.5 3.8438 22.484 0 15.047-3.8438 22.531-3.8281 7.5-11.5 7.5zm0 7.8125q12.266 0 18.734-9.7031 6.4688-9.6875 6.4688-28.141 0-18.406-6.4688-28.109-6.4688-9.6875-18.734-9.6875-12.25 0-18.719 9.6875-6.4688 9.7031-6.4688 28.109 0 18.453 6.4688 28.141 6.4688 9.7031 18.719 9.7031z"/>
</defs>
<g transform="translate(16.003 157.9) scale(.1 -.1)">
<use transform="translate(0 .68438)" xlink:href="#f"/>
<use transform="translate(63.623 .68438)" xlink:href="#g"/>
<use transform="translate(128.2 38.966) scale(.7)" xlink:href="#f"/>
</g>
<use x="40.603125" y="130.467312" stroke="#000000" stroke-width=".8" xlink:href="#e"/>
<defs>
<path id="w" d="m19.188 8.2969h34.422v-8.2969h-46.281v8.2969q5.6094 5.8125 15.297 15.594 9.7031 9.7969 12.188 12.641 4.7344 5.3125 6.6094 9 1.8906 3.6875 1.8906 7.25 0 5.8125-4.0781 9.4688-4.0781 3.6719-10.625 3.6719-4.6406 0-9.7969-1.6094-5.1406-1.6094-11-4.8906v9.9688q5.9531 2.3906 11.125 3.6094 5.1875 1.2188 9.4844 1.2188 11.328 0 18.062-5.6719 6.7344-5.6562 6.7344-15.125 0-4.5-1.6875-8.5312-1.6719-4.0156-6.125-9.4844-1.2188-1.4219-7.7656-8.1875-6.5312-6.7656-18.453-18.922z"/>
</defs>
<g transform="translate(16.003 134.27) scale(.1 -.1)">
<use transform="translate(0 .76562)" xlink:href="#f"/>
<use transform="translate(63.623 .76562)" xlink:href="#g"/>
<use transform="translate(128.2 39.047) scale(.7)" xlink:href="#w"/>
</g>
<use x="40.603125" y="106.829413" stroke="#000000" stroke-width=".8" xlink:href="#e"/>
<defs>
<path id="v" d="m40.578 39.312q7.0781-1.5156 11.047-6.3125 3.9844-4.7812 3.9844-11.812 0-10.781-7.4219-16.703-7.4219-5.9062-21.094-5.9062-4.5781 0-9.4375 0.90625t-10.031 2.7188v9.5156q4.0938-2.3906 8.9688-3.6094 4.8906-1.2188 10.219-1.2188 9.2656 0 14.125 3.6562t4.8594 10.641q0 6.4531-4.5156 10.078-4.5156 3.6406-12.562 3.6406h-8.5v8.1094h8.8906q7.2656 0 11.125 2.9062t3.8594 8.375q0 5.6094-3.9844 8.6094-3.9688 3.0156-11.391 3.0156-4.0625 0-8.7031-0.89062-4.6406-0.875-10.203-2.7188v8.7812q5.625 1.5625 10.531 2.3438t9.25 0.78125q11.234 0 17.766-5.1094 6.5469-5.0938 6.5469-13.781 0-6.0625-3.4688-10.234t-9.8594-5.7812z"/>
</defs>
<g transform="translate(16.003 110.63) scale(.1 -.1)">
<use transform="translate(0 .76562)" xlink:href="#f"/>
<use transform="translate(63.623 .76562)" xlink:href="#g"/>
<use transform="translate(128.2 39.047) scale(.7)" xlink:href="#v"/>
</g>
<use x="40.603125" y="83.191514" stroke="#000000" stroke-width=".8" xlink:href="#e"/>
<defs>
<path id="p" d="m37.797 64.312-24.906-38.922h24.906zm-2.5938 8.5938h12.406v-47.516h10.406v-8.2031h-10.406v-17.188h-9.8125v17.188h-32.906v9.5156z"/>
</defs>
<g transform="translate(16.003 86.991) scale(.1 -.1)">
<use transform="translate(0 .68438)" xlink:href="#f"/>
<use transform="translate(63.623 .68438)" xlink:href="#g"/>
<use transform="translate(128.2 38.966) scale(.7)" xlink:href="#p"/>
</g>
<use x="40.603125" y="59.553615" stroke="#000000" stroke-width=".8" xlink:href="#e"/>
<defs>
<path id="o" d="m10.797 72.906h38.719v-8.3125h-29.688v-17.859q2.1406 0.73438 4.2812 1.0938 2.1562 0.35938 4.3125 0.35938 12.203 0 19.328-6.6875 7.1406-6.6875 7.1406-18.109 0-11.766-7.3281-18.297-7.3281-6.5156-20.656-6.5156-4.5938 0-9.3594 0.78125-4.75 0.78125-9.8281 2.3438v9.9219q4.3906-2.3906 9.0781-3.5625t9.9062-1.1719q8.4531 0 13.375 4.4375 4.9375 4.4375 4.9375 12.062 0 7.6094-4.9375 12.047-4.9219 4.4531-13.375 4.4531-3.9531 0-7.8906-0.875-3.9219-0.875-8.0156-2.7344z"/>
</defs>
<g transform="translate(16.003 63.353) scale(.1 -.1)">
<use transform="translate(0 .68438)" xlink:href="#f"/>
<use transform="translate(63.623 .68438)" xlink:href="#g"/>
<use transform="translate(128.2 38.966) scale(.7)" xlink:href="#o"/>
</g>
<use x="40.603125" y="35.915717" stroke="#000000" stroke-width=".8" xlink:href="#e"/>
<defs>
<path id="u" d="m33.016 40.375q-6.6406 0-10.531-4.5469-3.875-4.5312-3.875-12.438 0-7.8594 3.875-12.438 3.8906-4.5625 10.531-4.5625t10.516 4.5625q3.875 4.5781 3.875 12.438 0 7.9062-3.875 12.438-3.875 4.5469-10.516 4.5469zm19.578 30.922v-8.9844q-3.7188 1.75-7.5 2.6719-3.7812 0.9375-7.5 0.9375-9.7656 0-14.922-6.5938-5.1406-6.5938-5.875-19.922 2.875 4.25 7.2188 6.5156 4.3594 2.2656 9.5781 2.2656 10.984 0 17.359-6.6719 6.375-6.6562 6.375-18.125 0-11.234-6.6406-18.031-6.6406-6.7812-17.672-6.7812-12.656 0-19.344 9.6875-6.6875 9.7031-6.6875 28.109 0 17.281 8.2031 27.562t22.016 10.281q3.7188 0 7.5-0.73438t7.8906-2.1875z"/>
</defs>
<g transform="translate(16.003 39.715) scale(.1 -.1)">
<use transform="translate(0 .76562)" xlink:href="#f"/>
<use transform="translate(63.623 .76562)" xlink:href="#g"/>
<use transform="translate(128.2 39.047) scale(.7)" xlink:href="#u"/>
</g>
<defs>
<path id="a" d="m0 0h-2" stroke="#000" stroke-width=".6"/>
</defs>
<use x="40.603125" y="170.627393" stroke="#000000" stroke-width=".6" xlink:href="#a"/>
<use x="40.603125" y="166.464966" stroke="#000000" stroke-width=".6" xlink:href="#a"/>
<use x="40.603125" y="163.511677" stroke="#000000" stroke-width=".6" xlink:href="#a"/>
<use x="40.603125" y="161.220927" stroke="#000000" stroke-width=".6" xlink:href="#a"/>
<use x="40.603125" y="159.349249" stroke="#000000" stroke-width=".6" xlink:href="#a"/>
<use x="40.603125" y="157.766768" stroke="#000000" stroke-width=".6" xlink:href="#a"/>
<use x="40.603125" y="156.39596" stroke="#000000" stroke-width=".6" xlink:href="#a"/>
<use x="40.603125" y="155.186822" stroke="#000000" stroke-width=".6" xlink:href="#a"/>
<use x="40.603125" y="146.989494" stroke="#000000" stroke-width=".6" xlink:href="#a"/>
<use x="40.603125" y="142.827067" stroke="#000000" stroke-width=".6" xlink:href="#a"/>
<use x="40.603125" y="139.873778" stroke="#000000" stroke-width=".6" xlink:href="#a"/>
<use x="40.603125" y="137.583029" stroke="#000000" stroke-width=".6" xlink:href="#a"/>
<use x="40.603125" y="135.71135" stroke="#000000" stroke-width=".6" xlink:href="#a"/>
<use x="40.603125" y="134.128869" stroke="#000000" stroke-width=".6" xlink:href="#a"/>
<use x="40.603125" y="132.758061" stroke="#000000" stroke-width=".6" xlink:href="#a"/>
<use x="40.603125" y="131.548923" stroke="#000000" stroke-width=".6" xlink:href="#a"/>
<use x="40.603125" y="123.351595" stroke="#000000" stroke-width=".6" xlink:href="#a"/>
<use x="40.603125" y="119.189168" stroke="#000000" stroke-width=".6" xlink:href="#a"/>
<use x="40.603125" y="116.235879" stroke="#000000" stroke-width=".6" xlink:href="#a"/>
<use x="40.603125" y="113.94513" stroke="#000000" stroke-width=".6" xlink:href="#a"/>
<use x="40.603125" y="112.073451" stroke="#000000" stroke-width=".6" xlink:href="#a"/>
<use x="40.603125" y="110.49097" stroke="#000000" stroke-width=".6" xlink:href="#a"/>
<use x="40.603125" y="109.120162" stroke="#000000" stroke-width=".6" xlink:href="#a"/>
<use x="40.603125" y="107.911024" stroke="#000000" stroke-width=".6" xlink:href="#a"/>
<use x="40.603125" y="99.713697" stroke="#000000" stroke-width=".6" xlink:href="#a"/>
<use x="40.603125" y="95.551269" stroke="#000000" stroke-width=".6" xlink:href="#a"/>
<use x="40.603125" y="92.59798" stroke="#000000" stroke-width=".6" xlink:href="#a"/>
<use x="40.603125" y="90.307231" stroke="#000000" stroke-width=".6" xlink:href="#a"/>
<use x="40.603125" y="88.435553" stroke="#000000" stroke-width=".6" xlink:href="#a"/>
<use x="40.603125" y="86.853071" stroke="#000000" stroke-width=".6" xlink:href="#a"/>
<use x="40.603125" y="85.482263" stroke="#000000" stroke-width=".6" xlink:href="#a"/>
<use x="40.603125" y="84.273125" stroke="#000000" stroke-width=".6" xlink:href="#a"/>
<use x="40.603125" y="76.075798" stroke="#000000" stroke-width=".6" xlink:href="#a"/>
<use x="40.603125" y="71.91337" stroke="#000000" stroke-width=".6" xlink:href="#a"/>
<use x="40.603125" y="68.960081" stroke="#000000" stroke-width=".6" xlink:href="#a"/>
<use x="40.603125" y="66.669332" stroke="#000000" stroke-width=".6" xlink:href="#a"/>
<use x="40.603125" y="64.797654" stroke="#000000" stroke-width=".6" xlink:href="#a"/>
<use x="40.603125" y="63.215172" stroke="#000000" stroke-width=".6" xlink:href="#a"/>
<use x="40.603125" y="61.844365" stroke="#000000" stroke-width=".6" xlink:href="#a"/>
<use x="40.603125" y="60.635226" stroke="#000000" stroke-width=".6" xlink:href="#a"/>
<use x="40.603125" y="52.437899" stroke="#000000" stroke-width=".6" xlink:href="#a"/>
<use x="40.603125" y="48.275471" stroke="#000000" stroke-width=".6" xlink:href="#a"/>
<use x="40.603125" y="45.322182" stroke="#000000" stroke-width=".6" xlink:href="#a"/>
<use x="40.603125" y="43.031433" stroke="#000000" stroke-width=".6" xlink:href="#a"/>
<use x="40.603125" y="41.159755" stroke="#000000" stroke-width=".6" xlink:href="#a"/>
<use x="40.603125" y="39.577273" stroke="#000000" stroke-width=".6" xlink:href="#a"/>
<use x="40.603125" y="38.206466" stroke="#000000" stroke-width=".6" xlink:href="#a"/>
<use x="40.603125" y="36.997328" stroke="#000000" stroke-width=".6" xlink:href="#a"/>
<use x="40.603125" y="28.8" stroke="#000000" stroke-width=".6" xlink:href="#a"/>
<path d="m60.863 152.67 1.5079 0.33441 1.5079 0.54386 1.5079 0.78329 1.2925 0.90039 1.2925 1.1671 1.0771 1.2377 1.0771 1.5659 3.8775 6.4445 0.43083 0.35623 0.43083 0.079604 0.64625-0.30472 0.86166-0.67858 1.0771-1.1367 2.3696-2.6617 1.7233-1.5073 1.7233-1.2202 1.9387-1.0936 1.9387-0.84098 3.4466-1.3311 1.9387-1.3731 2.8004-1.9103 1.5079-0.68772 1.5079-0.43543 1.5079-0.20107 6.8933-0.38161 1.7233 0.26214 1.7233 0.48175 1.5079 0.6283 1.7233 0.7459 2.1542 0.64618 1.0771 0.10502 1.5079-0.1316 1.5079-0.37624 3.4466-1.0633 3.6621-1.0868 8.1858-4.4384 1.2925-0.35153 1.2925-0.13992 3.6621-0.041222 1.7233 0.24484 2.1542 0.36974 1.5079 0.22345 1.5079 0.45404 1.5079 0.70832 1.2925 0.84362 2.1542 1.5215 4.3083 2.7885 0.64625 0.14098 0.64624-0.19808 1.0771-0.64468 1.5079-0.94179 1.5079-0.66448 1.5079-0.43054 1.5079-0.22036 1.5079-0.01987 1.7233 0.20909 1.0771 0.086398 3.4466-0.93741 1.9387-0.23567 1.9387 0.008238 2.1542 0.25964 1.9387 0.45478 2.585 0.69046 1.0771 0.053728 3.4466-0.19231 0.43083-0.036561 2.585-1.8651 1.7233-0.88241 1.5079-0.49483 2.3696-0.53648 1.7233-0.20258 1.7233 0.010276 2.3696 0.28124 1.9387 0.090439 2.1542-0.20597 2.1542-0.11016 1.5079 0.13822 1.5079 0.38683 1.2925 0.55181 1.2925 0.59909 4.0929-0.16619 1.7233 0.12315 1.7233 0.33967 1.7233 0.57704 1.2925 0.36419 0.86166 0.057899 0.64625-0.14203 0.86166-0.49726 1.7233-1.3409 1.9387-1.6918 1.5079-1.5393 1.7233-1.451 1.5079-1.0135 3.6621-1.9914 1.5079-0.58565 2.1542-0.76158 0.86166-0.50298 1.2925-1.0896 1.2925-0.99264 1.2925-0.69258 1.2925-0.40089 1.5079-0.19578 2.1542-0.21208 4.3083-0.91078 4.0929-1.2729 1.9387-0.46977 1.7233-0.1609 1.9387 0.057943 1.2925-0.062419 1.7233-0.41978 1.0771-0.55437 1.5079-0.82121 3.0158-1.2898 1.2925-0.20516 3.6621-0.24532 4.0929 0.1491 1.2925-0.050451 2.1542-0.044059 1.5079 0.18946 2.3696 0.46564 1.9387-0.064725 2.3696-0.48569 3.0158-1.0172 2.8004-0.98319 4.0929-0.6363 3.0158-0.15804 1.5079-0.11724 2.8004-0.26077 1.5079 0.0556 2.585 0.24253 2.1542 0.17486 3.8775 0.33934 4.7391-0.006687 2.585 0.39393 2.1542 0.57173 2.8004 0.86898 2.1542 0.1106 2.8004-0.26532 2.585-0.43065 1.7233 0.088418 1.5079 0.25141 2.3696 0.53735 2.1542 0.48789 2.3696 0.85565 1.5079 0.73341 1.2925 0.65687 1.5079 0.65955 1.5079 0.89637 1.7233 1.0842 1.0771 0.40165 1.0771 0.10677 1.7233-0.15851 1.9387-0.53922 1.5079-0.47564 1.5079-0.22079 1.5079 0.023059 1.5079 0.069845 2.1542-0.024741 1.2925 0.20325 1.2925 0.40617 1.2925 0.63068 1.2925 0.90357 1.9387 1.5051 1.5079 0.96635 2.585 2.0971 1.0771 0.86304 1.0771 0.38432 2.1542 0.53167 2.3696-0.22451 1.2925 0.060428 1.2925 0.30399 1.2925 0.5637 1.2925 0.63722 4.0929 1.3509 1.2925 0.7744 1.2925 1.0433 1.0771 1.1284 2.1542 2.7595 1.2925 1.8926 1.5079 2.6478 1.2925 2.6906 1.0771 2.7183 1.0771 3.3357 0.86166 3.2727 0.64625 2.6971 1.2925 2.7847 0.64625 0.99718 0.43083 0.42272 0.43083 0.18637 22.188 0.09075 1.7233 0.34254 1.7233 0.58384 1.7233 0.82367 1.7233 1.0737 1.7233 1.3465 1.7233 1.6572 1.5079 1.7506 1.5079 2.0925 1.5079 2.5229 1.2925 2.6077 1.2925 3.1613 1.0771 3.2164 1.0771 3.977 0.86166 3.9882 0.86166 5.109 0.64625 5.0173 0.64625 6.8073 0.43083 6.3597 0.43083 9.4331 0.21542 7.2039 0.21542 11.52 0.12503 160.8v0" clip-path="url(#h)" fill="none" stroke="#dc143c" stroke-linecap="square" stroke-width="1.5"/>
<path d="m40.603 170.63v-141.83" fill="none" stroke="#000" stroke-linecap="square" stroke-width=".8"/>
<path d="m486.32 170.63v-141.83" fill="none" stroke="#000" stroke-linecap="square" stroke-width=".8"/>
<path d="m40.603 170.63h445.72" fill="none" stroke="#000" stroke-linecap="square" stroke-width=".8"/>
<path d="m40.603 28.8h445.72" fill="none" stroke="#000" stroke-linecap="square" stroke-width=".8"/>
<path d="m324.28 66.156h155.04q2 0 2-2v-28.356q0-2-2-2h-155.04q-2 0-2 2v28.356q0 2 2 2z" fill="#fff" opacity=".8" stroke="#ccc"/>
<path d="m326.28 41.898h20" fill="none" stroke="#dc143c" stroke-linecap="square" stroke-width="1.5"/>
<defs>
<path id="i" d="m41.109 46.297q-1.5156 0.875-3.2969 1.2812-1.7812 0.42188-3.9219 0.42188-7.625 0-11.703-4.9531t-4.0781-14.234v-28.812h-9.0312v54.688h9.0312v-8.5q2.8438 4.9844 7.375 7.3906 4.5469 2.4219 11.047 2.4219 0.92188 0 2.0469-0.125 1.125-0.10938 2.4844-0.35938z"/>
<path id="j" d="m34.281 27.484q-10.891 0-15.094-2.4844t-4.2031-8.5q0-4.7812 3.1562-7.5938 3.1562-2.7969 8.5625-2.7969 7.4844 0 12 5.2969t4.5156 14.078v2zm17.922 3.7188v-31.203h-8.9844v8.2969q-3.0781-4.9688-7.6719-7.3438t-11.234-2.375q-8.3906 0-13.359 4.7188-4.9531 4.7188-4.9531 12.625 0 9.2188 6.1719 13.906 6.1875 4.6875 18.438 4.6875h12.609v0.89062q0 6.2031-4.0781 9.5938t-11.453 3.3906q-4.6875 0-9.1406-1.125-4.4375-1.125-8.5312-3.375v8.3125q4.9219 1.9062 9.5625 2.8438 4.6406 0.95312 9.0312 0.95312 11.875 0 17.734-6.1562 5.8594-6.1406 5.8594-18.641z"/>
<path id="r" d="m18.312 70.219v-15.531h18.5v-6.9844h-18.5v-29.688q0-6.6875 1.8281-8.5938t7.4531-1.9062h9.2188v-7.5156h-9.2188q-10.406 0-14.359 3.875-3.9531 3.8906-3.9531 14.141v29.688h-6.5938v6.9844h6.5938v15.531z"/>
<path id="b" d="m56.203 29.594v-4.3906h-41.312q0.59375-9.2812 5.5938-14.141t13.938-4.8594q5.1719 0 10.031 1.2656t9.6562 3.8125v-8.5q-4.8438-2.0469-9.9219-3.125t-10.297-1.0781q-13.094 0-20.734 7.6094-7.6406 7.625-7.6406 20.625 0 13.422 7.25 21.297 7.25 7.8906 19.562 7.8906 11.031 0 17.453-7.1094 6.4219-7.0938 6.4219-19.297zm-8.9844 2.6406q-0.09375 7.3594-4.125 11.75-4.0312 4.4062-10.672 4.4062-7.5156 0-12.031-4.25t-5.2031-11.969z"/>
<path id="l" d="m30.609 48.391q-7.2188 0-11.422-5.6406t-4.2031-15.453 4.1719-15.453q4.1875-5.6406 11.453-5.6406 7.1875 0 11.375 5.6562 4.2031 5.6719 4.2031 15.438 0 9.7188-4.2031 15.406-4.1875 5.6875-11.375 5.6875zm0 7.6094q11.719 0 18.406-7.625 6.7031-7.6094 6.7031-21.078 0-13.422-6.7031-21.078-6.6875-7.6406-18.406-7.6406-11.766 0-18.438 7.6406-6.6562 7.6562-6.6562 21.078 0 13.469 6.6562 21.078 6.6719 7.625 18.438 7.625z"/>
<path id="ac" d="m37.109 75.984v-7.4844h-8.5938q-4.8281 0-6.7188-1.9531-1.875-1.9531-1.875-7.0312v-4.8281h14.797v-6.9844h-14.797v-47.703h-9.0312v47.703h-8.5938v6.9844h8.5938v3.8125q0 9.125 4.25 13.297 4.25 4.1875 13.469 4.1875z"/>
<path id="m" d="m9.4219 54.688h8.9844v-54.688h-8.9844zm0 21.297h8.9844v-11.391h-8.9844z"/>
<path id="s" d="m9.4219 75.984h8.9844v-75.984h-8.9844z"/>
<path id="z" d="m8.5 21.578v33.109h8.9844v-32.766q0-7.7656 3.0156-11.656 3.0312-3.875 9.0938-3.875 7.2656 0 11.484 4.6406 4.2344 4.6406 4.2344 12.656v31h8.9844v-54.688h-8.9844v8.4062q-3.2656-4.9844-7.5938-7.4062-4.3125-2.4219-10.031-2.4219-9.4219 0-14.312 5.8594-4.875 5.8594-4.875 17.141zm22.609 34.422z"/>
<path id="k" d="m44.281 53.078v-8.5q-3.7969 1.9531-7.9062 2.9219-4.0938 0.98438-8.5 0.98438-6.6875 0-10.031-2.0469t-3.3438-6.1562q0-3.125 2.3906-4.9062t9.625-3.3906l3.0781-0.6875q9.5625-2.0469 13.594-5.7812t4.0312-10.422q0-7.625-6.0312-12.078-6.0312-4.4375-16.578-4.4375-4.3906 0-9.1562 0.85938t-10.031 2.5625v9.2812q4.9844-2.5938 9.8125-3.8906 4.8281-1.2812 9.5781-1.2812 6.3438 0 9.75 2.1719 3.4219 2.1719 3.4219 6.125 0 3.6562-2.4688 5.6094-2.4531 1.9531-10.812 3.7656l-3.125 0.73438q-8.3438 1.75-12.062 5.3906-3.7031 3.6406-3.7031 9.9844 0 7.7188 5.4688 11.906 5.4688 4.2031 15.531 4.2031 4.9688 0 9.3594-0.73438 4.4062-0.71875 8.1094-2.1875z"/>
<path id="y" d="m31 75.875q-6.5312-11.219-9.7188-22.219-3.1719-10.984-3.1719-22.266 0-11.266 3.2031-22.328t9.6875-22.25h-7.8125q-7.3125 11.484-10.953 22.562t-3.6406 22.016q0 10.891 3.6094 21.922 3.625 11.047 10.984 22.562z"/>
<path id="n" d="m45.406 46.391v29.594h8.9844v-75.984h-8.9844v8.2031q-2.8281-4.875-7.1562-7.25-4.3125-2.375-10.375-2.375-9.9062 0-16.141 7.9062-6.2188 7.9219-6.2188 20.812t6.2188 20.797q6.2344 7.9062 16.141 7.9062 6.0625 0 10.375-2.375 4.3281-2.3594 7.1562-7.2344zm-30.609-19.094q0-9.9062 4.0781-15.547t11.203-5.6406 11.219 5.6406q4.1094 5.6406 4.1094 15.547t-4.1094 15.547q-4.0938 5.6406-11.219 5.6406t-11.203-5.6406-4.0781-15.547z"/>
<path id="aa" d="m9.0781 75.984h9.0312v-44.875l26.812 23.578h11.469l-29-25.578 30.234-29.109h-11.719l-27.797 26.703v-26.703h-9.0312z"/>
<path id="ae" d="m25.391 72.906h8.2969l-25.391-82.188h-8.2969z"/>
<path id="q" d="m32.172-5.0781q-3.7969-9.7656-7.4219-12.734-3.6094-2.9844-9.6562-2.9844h-7.1875v7.5156h5.2812q3.7031 0 5.75 1.7656 2.0625 1.75 4.5469 8.2969l1.6094 4.0938-22.109 53.812h9.5156l17.094-42.766 17.094 42.766h9.5156z"/>
<path id="x" d="m8.0156 75.875h7.8125q7.3125-11.516 10.953-22.562 3.6406-11.031 3.6406-21.922 0-10.938-3.6406-22.016t-10.953-22.562h-7.8125q6.4844 11.188 9.6875 22.25t3.2031 22.328q0 11.281-3.2031 22.266-3.2031 11-9.6875 22.219z"/>
</defs>
<g transform="translate(354.28 45.398) scale(.1 -.1)">
<use xlink:href="#i"/>
<use x="41.113281" xlink:href="#j"/>
<use x="102.392578" xlink:href="#r"/>
<use x="141.601562" xlink:href="#b"/>
<use x="203.125" xlink:href="#DejaVuSans-20"/>
<use x="234.912109" xlink:href="#l"/>
<use x="296.09375" xlink:href="#ac"/>
<use x="331.298828" xlink:href="#DejaVuSans-20"/>
<use x="363.085938" xlink:href="#ac"/>
<use x="398.291016" xlink:href="#j"/>
<use x="459.570312" xlink:href="#m"/>
<use x="487.353516" xlink:href="#s"/>
<use x="515.136719" xlink:href="#z"/>
<use x="578.515625" xlink:href="#i"/>
<use x="619.597656" xlink:href="#b"/>
<use x="681.121094" xlink:href="#k"/>
<use x="733.220703" xlink:href="#DejaVuSans-20"/>
<use x="765.007812" xlink:href="#y"/>
<use x="804.021484" xlink:href="#n"/>
<use x="867.498047" xlink:href="#m"/>
<use x="895.28125" xlink:href="#k"/>
<use x="947.380859" xlink:href="#aa"/>
<use x="1005.291016" xlink:href="#k"/>
<use x="1057.390625" xlink:href="#ae"/>
<use x="1091.082031" xlink:href="#q"/>
<use x="1150.261719" xlink:href="#i"/>
<use x="1191.375" xlink:href="#x"/>
</g>
<path d="m326.28 60.077h20v-7h-20z" fill="#0766aa" fill-opacity=".2" stroke="#0766aa" stroke-opacity=".2"/>
<defs>
<path id="ak" d="m48.688 27.297q0 9.9062-4.0781 15.547t-11.203 5.6406q-7.1406 0-11.219-5.6406t-4.0781-15.547 4.0781-15.547 11.219-5.6406q7.125 0 11.203 5.6406t4.0781 15.547zm-30.578 19.094q2.8438 4.875 7.1562 7.2344 4.3281 2.375 10.328 2.375 9.9688 0 16.188-7.9062 6.2344-7.9062 6.2344-20.797t-6.2344-20.812q-6.2188-7.9062-16.188-7.9062-6 0-10.328 2.375-4.3125 2.375-7.1562 7.25v-8.2031h-9.0312v75.984h9.0312z"/>
<path id="ah" d="m2.9844 54.688h9.5156l17.094-45.891 17.094 45.891h9.5156l-20.516-54.688h-12.203z"/>
</defs>
<g transform="translate(354.28 60.077) scale(.1 -.1)">
<use xlink:href="#n"/>
<use x="63.476562" xlink:href="#m"/>
<use x="91.259766" xlink:href="#k"/>
<use x="143.359375" xlink:href="#aa"/>
<use x="201.269531" xlink:href="#k"/>
<use x="253.369141" xlink:href="#DejaVuSans-20"/>
<use x="285.15625" xlink:href="#l"/>
<use x="346.337891" xlink:href="#ak"/>
<use x="409.814453" xlink:href="#k"/>
<use x="461.914062" xlink:href="#b"/>
<use x="523.4375" xlink:href="#i"/>
<use x="564.550781" xlink:href="#ah"/>
<use x="623.730469" xlink:href="#b"/>
<use x="685.253906" xlink:href="#n"/>
</g>
<path d="m40.603 375.64h445.72v-189.1h-445.72z" fill="#fff"/>
<path d="m108.04 375.64v-189.1" clip-path="url(#c)" fill="none" stroke="#b0b0b0" stroke-linecap="square" stroke-width=".8"/>
<use x="108.04043" y="375.64" stroke="#000000" stroke-width=".8" xlink:href="#d"/>
<g transform="translate(104.86 390.24) scale(.1 -.1)">
<use xlink:href="#w"/>
</g>
<path d="m183.62 375.64v-189.1" clip-path="url(#c)" fill="none" stroke="#b0b0b0" stroke-linecap="square" stroke-width=".8"/>
<use x="183.621774" y="375.64" stroke="#000000" stroke-width=".8" xlink:href="#d"/>
<g transform="translate(180.44 390.24) scale(.1 -.1)">
<use xlink:href="#v"/>
</g>
<path d="m259.2 375.64v-189.1" clip-path="url(#c)" fill="none" stroke="#b0b0b0" stroke-linecap="square" stroke-width=".8"/>
<use x="259.203118" y="375.64" stroke="#000000" stroke-width=".8" xlink:href="#d"/>
<g transform="translate(256.02 390.24) scale(.1 -.1)">
<use xlink:href="#p"/>
</g>
<path d="m334.78 375.64v-189.1" clip-path="url(#c)" fill="none" stroke="#b0b0b0" stroke-linecap="square" stroke-width=".8"/>
<use x="334.784461" y="375.64" stroke="#000000" stroke-width=".8" xlink:href="#d"/>
<g transform="translate(331.6 390.24) scale(.1 -.1)">
<use xlink:href="#o"/>
</g>
<path d="m410.37 375.64v-189.1" clip-path="url(#c)" fill="none" stroke="#b0b0b0" stroke-linecap="square" stroke-width=".8"/>
<use x="410.365805" y="375.64" stroke="#000000" stroke-width=".8" xlink:href="#d"/>
<g transform="translate(407.18 390.24) scale(.1 -.1)">
<use xlink:href="#u"/>
</g>
<path d="m485.95 375.64v-189.1" clip-path="url(#c)" fill="none" stroke="#b0b0b0" stroke-linecap="square" stroke-width=".8"/>
<use x="485.947149" y="375.64" stroke="#000000" stroke-width=".8" xlink:href="#d"/>
<defs>
<path id="ar" d="m8.2031 72.906h46.875v-4.2031l-26.469-68.703h-10.297l24.906 64.594h-35.016z"/>
</defs>
<g transform="translate(482.77 390.24) scale(.1 -.1)">
<use xlink:href="#ar"/>
</g>
<defs>
<path id="ad" d="m34.188 63.188-13.391-36.281h26.812zm-5.5781 9.7188h11.188l27.781-72.906h-10.25l-6.6406 18.703h-32.859l-6.6406-18.703h-10.406z"/>
<path id="ab" d="m45.406 27.984q0 9.7656-4.0312 15.125-4.0156 5.375-11.297 5.375-7.2188 0-11.25-5.375-4.0312-5.3594-4.0312-15.125 0-9.7188 4.0312-15.094t11.25-5.375q7.2812 0 11.297 5.375 4.0312 5.375 4.0312 15.094zm8.9844-21.203q0-13.953-6.2031-20.766-6.1875-6.8125-18.984-6.8125-4.7344 0-8.9375 0.70312t-8.1562 2.1719v8.7344q3.9531-2.1406 7.8125-3.1562 3.8594-1.0312 7.8594-1.0312 8.8438 0 13.234 4.6094t4.3906 13.938v4.4531q-2.7812-4.8438-7.125-7.2344t-10.406-2.3906q-10.047 0-16.203 7.6562-6.1562 7.6719-6.1562 20.328 0 12.688 6.1562 20.344 6.1562 7.6719 16.203 7.6719 6.0625 0 10.406-2.3906t7.125-7.2188v8.2969h8.9844z"/>
<path id="ai" d="m18.109 8.2031v-29h-9.0312v75.484h9.0312v-8.2969q2.8438 4.875 7.1562 7.2344 4.3281 2.375 10.328 2.375 9.9688 0 16.188-7.9062 6.2344-7.9062 6.2344-20.797t-6.2344-20.812q-6.2188-7.9062-16.188-7.9062-6 0-10.328 2.375-4.3125 2.375-7.1562 7.25zm30.578 19.094q0 9.9062-4.0781 15.547t-11.203 5.6406q-7.1406 0-11.219-5.6406t-4.0781-15.547 4.0781-15.547 11.219-5.6406q7.125 0 11.203 5.6406t4.0781 15.547z"/>
<path id="ag" d="m4.2031 54.688h8.9844l11.234-42.672 11.172 42.672h10.594l11.234-42.672 11.188 42.672h8.9844l-14.312-54.688h-10.594l-11.766 44.828-11.812-44.828h-10.609z"/>
<path id="as" d="m4.8906 31.391h26.312v-8h-26.312z"/>
<path id="aj" d="m54.891 33.016v-33.016h-8.9844v32.719q0 7.7656-3.0312 11.609-3.0312 3.8594-9.0781 3.8594-7.2812 0-11.484-4.6406-4.2031-4.625-4.2031-12.641v-30.906h-9.0312v54.688h9.0312v-8.5q3.2344 4.9375 7.5938 7.375 4.375 2.4375 10.094 2.4375 9.4219 0 14.25-5.8281 4.8438-5.8281 4.8438-17.156z"/>
</defs>
<g transform="translate(209.47 403.92) scale(.1 -.1)">
<use xlink:href="#ad"/>
<use x="68.408203" xlink:href="#ab"/>
<use x="131.884766" xlink:href="#b"/>
<use x="193.408203" xlink:href="#DejaVuSans-20"/>
<use x="225.195312" xlink:href="#y"/>
<use x="264.208984" xlink:href="#ai"/>
<use x="327.685547" xlink:href="#l"/>
<use x="388.867188" xlink:href="#ag"/>
<use x="470.654297" xlink:href="#b"/>
<use x="532.177734" xlink:href="#i"/>
<use x="573.197266" xlink:href="#as"/>
<use x="609.296875" xlink:href="#l"/>
<use x="670.478516" xlink:href="#aj"/>
<use x="733.857422" xlink:href="#DejaVuSans-20"/>
<use x="765.644531" xlink:href="#q"/>
<use x="824.824219" xlink:href="#b"/>
<use x="886.347656" xlink:href="#j"/>
<use x="947.626953" xlink:href="#i"/>
<use x="988.740234" xlink:href="#k"/>
<use x="1040.839844" xlink:href="#x"/>
</g>
<path d="m40.603 375.64h445.72" clip-path="url(#c)" fill="none" stroke="#b0b0b0" stroke-linecap="square" stroke-width=".8"/>
<use x="40.603125" y="375.64" stroke="#000000" stroke-width=".8" xlink:href="#e"/>
<g transform="translate(27.241 379.44) scale(.1 -.1)">
<use xlink:href="#g"/>
</g>
<path d="m40.603 328.36h445.72" clip-path="url(#c)" fill="none" stroke="#b0b0b0" stroke-linecap="square" stroke-width=".8"/>
<use x="40.603125" y="328.364202" stroke="#000000" stroke-width=".8" xlink:href="#e"/>
<g transform="translate(27.241 332.16) scale(.1 -.1)">
<use xlink:href="#p"/>
</g>
<path d="m40.603 281.09h445.72" clip-path="url(#c)" fill="none" stroke="#b0b0b0" stroke-linecap="square" stroke-width=".8"/>
<use x="40.603125" y="281.088405" stroke="#000000" stroke-width=".8" xlink:href="#e"/>
<defs>
<path id="aq" d="m31.781 34.625q-7.0312 0-11.062-3.7656-4.0156-3.7656-4.0156-10.344 0-6.5938 4.0156-10.359 4.0312-3.7656 11.062-3.7656t11.078 3.7812q4.0625 3.7969 4.0625 10.344 0 6.5781-4.0312 10.344-4.0156 3.7656-11.109 3.7656zm-9.8594 4.1875q-6.3438 1.5625-9.8906 5.9062-3.5312 4.3594-3.5312 10.609 0 8.7344 6.2188 13.812 6.2344 5.0781 17.062 5.0781 10.891 0 17.094-5.0781t6.2031-13.812q0-6.25-3.5469-10.609-3.5312-4.3438-9.8281-5.9062 7.125-1.6562 11.094-6.5 3.9844-4.8281 3.9844-11.797 0-10.609-6.4688-16.281-6.4688-5.6562-18.531-5.6562-12.047 0-18.531 5.6562-6.4688 5.6719-6.4688 16.281 0 6.9688 4 11.797 4.0156 4.8438 11.141 6.5zm-3.6094 15.578q0-5.6562 3.5312-8.8281 3.5469-3.1719 9.9375-3.1719 6.3594 0 9.9375 3.1719 3.5938 3.1719 3.5938 8.8281 0 5.6719-3.5938 8.8438-3.5781 3.1719-9.9375 3.1719-6.3906 0-9.9375-3.1719-3.5312-3.1719-3.5312-8.8438z"/>
</defs>
<g transform="translate(27.241 284.89) scale(.1 -.1)">
<use xlink:href="#aq"/>
</g>
<path d="m40.603 233.81h445.72" clip-path="url(#c)" fill="none" stroke="#b0b0b0" stroke-linecap="square" stroke-width=".8"/>
<use x="40.603125" y="233.812607" stroke="#000000" stroke-width=".8" xlink:href="#e"/>
<g transform="translate(20.878 237.61) scale(.1 -.1)">
<use xlink:href="#f"/>
<use x="63.623047" xlink:href="#w"/>
</g>
<path d="m40.603 186.54h445.72" clip-path="url(#c)" fill="none" stroke="#b0b0b0" stroke-linecap="square" stroke-width=".8"/>
<use x="40.603125" y="186.536809" stroke="#000000" stroke-width=".8" xlink:href="#e"/>
<g transform="translate(20.878 190.34) scale(.1 -.1)">
<use xlink:href="#f"/>
<use x="63.623047" xlink:href="#u"/>
</g>
<defs>
<path id="ao" d="m9.8125 72.906h41.891v-8.3125h-32.031v-21.484h28.906v-8.2969h-28.906v-34.812h-9.8594z"/>
<path id="am" d="m44.391 34.188q3.1719-1.0781 6.1719-4.5938t6.0312-9.6719l10.016-19.922h-10.609l-9.3125 18.703q-3.625 7.3281-7.0156 9.7188t-9.25 2.3906h-10.75v-30.812h-9.8594v72.906h22.266q12.5 0 18.656-5.2344 6.1562-5.2188 6.1562-15.766 0-6.8906-3.2031-11.438-3.2031-4.5312-9.2969-6.2812zm-24.719 30.609v-25.875h12.406q7.125 0 10.766 3.2969t3.6406 9.6875-3.6406 9.6406-10.766 3.25z"/>
<path id="at" d="m72.703 32.078q-4.25 0-6.6719-3.6094-2.4062-3.6094-2.4062-10.062 0-6.3438 2.4062-9.9844 2.4219-3.6406 6.6719-3.6406 4.1562 0 6.5625 3.6406 2.4219 3.6406 2.4219 9.9844 0 6.4062-2.4219 10.031-2.4062 3.6406-6.5625 3.6406zm0 6.2031q7.7188 0 12.25-5.375 4.5469-5.3594 4.5469-14.5 0-9.125-4.5625-14.484-4.5625-5.3438-12.234-5.3438-7.8125 0-12.359 5.3438-4.5312 5.3594-4.5312 14.484 0 9.1875 4.5625 14.531t12.328 5.3438zm-50.391 29.734q-4.2031 0-6.625-3.6406-2.4062-3.625-2.4062-9.9844 0-6.4375 2.3906-10.062 2.3906-3.6094 6.6406-3.6094t6.6562 3.6094q2.4219 3.625 2.4219 10.062 0 6.2969-2.4375 9.9531-2.4375 3.6719-6.6406 3.6719zm44.094 6.2031h7.8125l-45.609-75.641h-7.8125zm-44.094 0q7.7188 0 12.297-5.3438 4.5938-5.3438 4.5938-14.484 0-9.2188-4.5625-14.547t-12.328-5.3281-12.281 5.3438q-4.5156 5.3594-4.5156 14.531 0 9.0938 4.5312 14.453 4.5469 5.375 12.266 5.375z"/>
</defs>
<g transform="translate(14.798 334.34) rotate(-90) scale(.1 -.1)">
<use xlink:href="#ao"/>
<use x="57.378906" xlink:href="#j"/>
<use x="118.658203" xlink:href="#m"/>
<use x="146.441406" xlink:href="#s"/>
<use x="174.224609" xlink:href="#z"/>
<use x="237.603516" xlink:href="#i"/>
<use x="278.685547" xlink:href="#b"/>
<use x="340.208984" xlink:href="#DejaVuSans-20"/>
<use x="371.996094" xlink:href="#am"/>
<use x="441.447266" xlink:href="#j"/>
<use x="502.726562" xlink:href="#r"/>
<use x="541.935547" xlink:href="#b"/>
<use x="603.458984" xlink:href="#DejaVuSans-20"/>
<use x="635.246094" xlink:href="#y"/>
<use x="674.259766" xlink:href="#at"/>
<use x="769.279297" xlink:href="#ae"/>
<use x="802.970703" xlink:href="#q"/>
<use x="862.150391" xlink:href="#b"/>
<use x="923.673828" xlink:href="#j"/>
<use x="984.953125" xlink:href="#i"/>
<use x="1026.066406" xlink:href="#x"/>
</g>
<path d="m60.863 61.02 2.8004 50.696 1.9387 40.81 6.247 136.48 1.0771 16.367 0.64625 7.7129 0.64625 5.2223 0.43083 1.7319 0.21542 0.28055 0.21542-0.10736 0.43083-0.77122 0.64625-1.9923 0.64625-2.8305 0.86166-4.918 2.8004-17.515 1.7233-8.7984 1.5079-6.4513 1.2925-4.6635 1.5079-4.4014 1.0771-2.4785 0.86166-1.4862 0.86166-1.4316 0.43083-1.343 0.64625-3.0476 0.64625-4.1009 1.2925-10.217 3.4466-28.738 0.86166-4.8094 0.86166-3.611 0.64625-1.9187 0.64625-1.2355 0.43083-0.43367 0.43083-0.10236 0.64625 0.13518 1.2925-0.023432 0.86166-0.2551 0.86166-0.45012 0.64625-0.41779 0.43083-0.008138 0.64625 0.30154 0.64625 0.62516 0.64625 0.9137 0.64625 1.4181 0.86166 2.6159 0.86166 3.3866 1.0771 5.2688 1.0771 6.4592 2.585 16.993 1.5079 6.6656 0.64625 2.1934 0.43083 0.99722 0.43083 0.58385 0.43083 0.18426 0.43083-0.08086 0.43083-0.31118 0.43083-0.5211 0.64625-1.2201 0.64625-1.7458 1.5079-5.2498 1.9387-6.4074 1.7233-4.9947 1.2925-3.5713 0.43083-2.1643 0.64625-4.5812 1.9387-15.659 3.0158-26.339 0.64625-6.7076 1.2925-15.82 0.86166-7.8831 0.86166-5.6178 0.64625-2.8703 0.43083-1.2658 0.43083-0.71252 0.21542-0.13059 0.64625 0.094127 0.64625 0.30973 1.0771 0.83509 0.43083 0.59903 0.64625 1.4311 0.64625 2.0675 0.86166 3.8235 0.86166 4.8709 1.2925 8.1118 0.64625 1.5081 0.64625 2.2545 0.64624 3.0391 0.86166 5.284 0.86166 6.8679 1.0771 10.443 1.2925 14.98 2.1542 26.047 2.8004 26.993 1.2925 10.54 0.64625 3.5257 0.43083 1.5754 0.21542 0.2694 0.21542-0.16602 0.43083-1.5015 0.64625-3.4097 2.8004-17.518 1.0771-4.6089 0.86166-2.8493 0.86166-2.1695 0.64625-1.103 0.64624-0.62047 0.43083-0.14637 0.43083 0.063271 0.43083 0.24953 0.43083 0.48092 0.64625 1.1132 1.2925 2.2813 0.21542-0.49673 3.2312-13.521 0.86166-2.5112 0.86166-1.8205 0.64625-0.85999 0.64625-0.41373 0.43083-0.026463 0.43083 0.15894 0.64625 0.56617 0.86166 1.1584 0.86166 1.6557 0.86166 2.1604 0.86166 2.784 2.3696 8.3748 0.64625 1.413 0.43083 0.42845 0.43083-0.035795 0.43083-0.53111 0.64625-0.71159 0.64625-0.3866 0.64625-0.20955 0.64625 0.07536 0.64625 0.33003 0.21542-0.51476 3.2312-32.083 1.0771-8.3847 0.86166-5.0317 0.86166-4.0014 1.0771-3.9421 1.0771-3.109 0.64625-1.2744 0.43083-0.46734 0.43083-0.21062 0.43083-0.001694 0.43083 0.24991 0.43083 0.51525 0.64625 1.2249 0.64625 1.8216 0.86166 3.1459 1.0771 4.0155 1.0771 2.9605 0.43083 0.74287 0.43083 0.4367 0.43083 0.11985 1.2925-0.31984 0.64625 0.12683 0.43083 0.27249 0.64625 0.81164 0.64625 1.2405 0.64624 1.9531 0.64625 2.6387 0.64625 3.4142 0.86166 5.6751 1.0771 8.9923 1.0771 11.027 0.43083 4.4067 0.43083 0.99941 0.86166 1.7677 1.0771 2.7151 1.7233 5.1423 1.0771 4.0435 1.2925 5.9748 1.5079 8.4279 2.585 15.357 0.64625 2.4197 0.43083 0.9961 0.21542 0.28662 0.21542 0.059228 0.21542-0.17399 0.43083-0.9639 0.64625-2.5547 0.86166-4.4261 1.5079-9.3074 0.86166-6.1642 3.6621-32.711 0.86166-5.6573 0.64625-3.0627 1.0771-3.7596 0.86166-3.5703 1.2925-5.673 0.64625-2.052 0.43083-0.73802 0.43083-0.27999 0.43083-0.079486 0.21542 0.059532 0.21542-0.066501 1.0771-1.924 0.43083-0.54657 0.21542-0.42013 0.21542-0.67951 0.64625-4.3658 2.585-23.059 0.64625-3.4703 0.43083-1.4494 0.43083-0.29354 0.21542 0.070739 0.43083 0.56894 0.43083 1.0974 0.64625 2.2895 0.43083 2.0098 1.0771 6.7994 0.43083 2.4454 0.86166 3.943 3.2312 12.817 0.64624 2.784 0.64625 1.3621 0.86166 2.3793 0.86166 2.3418 0.43083 0.59982 0.64625 1.2073 1.0771 2.3711 0.86166 1.3664 0.43083 1.2771 1.0771 4.7714 0.86166 4.5566 3.6621 22.771 1.2925 4.2993 0.43083 0.78969 0.21542 0.11868 0.21542-0.065237 0.64625-0.65835 0.64625-1.0417 0.43083-0.39548 0.43083-0.16742 0.43083-0.068655 0.64625-0.80004 0.86166-0.84391 0.43083 0.01292 0.43083 0.33869 0.43083 0.64766 0.64625 1.4534 1.9387 5.0168 0.86166 2.1569 3.6621 9.6847 0.86166 2.0587 1.2925 3.4588 2.585 3.0678 0.86166 1.5364 0.86166 2.0076 0.86166 2.7282 0.86166 3.0153 0.43083 0.65935 0.86166 0.59901 1.2925 0.15108 0.86166-1.0771 1.0771-1.7252 0.86166-2.4009 1.0771-3.3452 1.5079-5.5913 2.585-11.094 0.64625-1.7066 1.9387-4.5837 1.0771-2.2482 0.86166-1.4211 1.5079-1.9712 2.1542-1.5992 0.86166-1.5359 1.7233-3.382 1.5079-1.5625 0.43083-0.061221 0.43083 0.19576 1.5079 1.4382 0.43083 0.66705 0.43083 0.071958 0.64625-0.16265 0.43083 0.098146 0.86166 0.56402 1.5079 1.356 0.43083 0.55513 0.43083 0.22086 0.64625 0.32202 0.86166 0.50467 0.21542 0.032615 0.43083-0.27693 0.64625-0.56558 0.64625-0.777 1.5079-1.2191 0.43083-0.53684 0.43083-0.24791 0.43083 0.044795 1.0771 0.74941 1.0771 1.0826 1.2925 2.1634 1.0771 2.5439 0.86166 2.4413 1.0771 4.0982 0.64625 2.2984 0.43083 1.2746 0.43083 0.36537 0.64625 0.25726 0.43083 0.19994 0.64625 0.035433 1.0771-1.3495 1.0771-2.2167 1.5079-3.1263 0.86166-3.3295 0.64625-1.852 0.64625-1.226 0.43083-0.46384 0.43083-0.20159 1.2925 0.060513 0.43083 0.2969 0.43083 0.56242 0.64625 1.3542 1.2925 2.2906 1.7233 2.7612 0.64625 1.0774 0.64624 1.4785 1.5079 4.2887 0.86166 3.1775 1.0771 4.4251 1.7233 7.669 0.86166 2.6956 1.0771 4.2819 1.0771 5.149 1.0771 5.1979 0.86166 3.2249 0.64625 1.5215 0.43083 0.49794 0.64625 0.24583 0.86166-0.79073 1.0771-1.3689 1.2925-2.894 0.64624-2.2943 1.0771-3.59 0.86166-2.1659 0.64625-1.1775 0.64625-0.78986 0.64625-0.39517 0.43083-0.049518 1.0771 0.12918 0.43083-0.1672 0.43083-0.39667 0.86166-0.98418 0.64625-0.38027 0.43083-0.06247 0.43083 0.11749 0.64625 0.43546 0.64625 0.83602 0.64625 1.2908 0.86166 2.235 0.86166 3.038 1.0771 4.7551 1.5079 6.9948 1.5079 3.3963 0.86166 2.6411 1.9387 6.3136 1.2925 3.6863 0.43083 0.26488 0.43083-0.018544 1.5079-0.20666 0.43083-0.11371 0.43083-0.83983 3.0158-8.2511 0.86166-1.7122 0.64625-0.87869 0.86166-0.7026 0.43083-0.13979 0.43083 0.04381 0.43083 0.22241 0.21542 0.19173 0.43083-0.37472 0.64625-1.1237 2.8004-6.2458 0.64625-0.9 0.64625-0.58226 0.64625-0.29563 0.43083 0.19733 0.64625 0.57864 0.64625 1.0177 0.43083 1.1621 0.86166 3.7973 3.4466 19.605 3.6621 23.803 2.1542 13.855 0.43083 1.4271 0.86166 1.6595 0.64625 0.77493 0.43083 0.24653 0.43083-0.002969 0.43083-0.2848 1.9387-1.7865 2.8004-2.8123 4.3083-4.2233 1.2925-1.1825 1.0771-0.74594 2.1542-1.5276 3.2312-2.3986 1.9387-1.1557 2.8004-2.6792 1.0771-0.31164 1.0771-0.044682 1.0771 0.21388 1.0771 0.46351 1.0771 0.70315 1.2925 1.1443 1.2925 1.4514 1.5079 2.0475 1.7233 2.7491 1.9387 3.5216 3.0158 6.0413 3.2312 6.4 1.5079 2.4923 1.0771 1.4336 1.0771 1.0542 0.86166 0.50065 0.64625 0.13735h0.86166v0" clip-path="url(#c)" fill="none" stroke="#d2691e" stroke-linecap="square" stroke-width="1.5"/>
<path d="m40.603 375.64v-189.1" fill="none" stroke="#000" stroke-linecap="square" stroke-width=".8"/>
<path d="m486.32 375.64v-189.1" fill="none" stroke="#000" stroke-linecap="square" stroke-width=".8"/>
<path d="m40.603 375.64h445.72" fill="none" stroke="#000" stroke-linecap="square" stroke-width=".8"/>
<path d="m40.603 186.54h445.72" fill="none" stroke="#000" stroke-linecap="square" stroke-width=".8"/>
<defs>
<path id="an" d="m9.8125 72.906h14.703l18.594-49.609 18.703 49.609h14.703v-72.906h-9.625v64.016l-18.797-50h-9.9062l-18.797 50v-64.016h-9.5781z"/>
<path id="ap" d="m11.719 12.406h10.297v-12.406h-10.297zm0 39.297h10.297v-12.391h-10.297z"/>
<path id="t" d="m53.516 70.516v-9.625q-5.6094 2.6875-10.594 4-4.9844 1.3281-9.625 1.3281-8.0469 0-12.422-3.125t-4.375-8.8906q0-4.8438 2.9062-7.3125 2.9062-2.4531 11.016-3.9688l5.9531-1.2188q11.031-2.1094 16.281-7.4062t5.25-14.172q0-10.609-7.1094-16.078-7.0938-5.4688-20.812-5.4688-5.1719 0-11.016 1.1719-5.8281 1.1719-12.078 3.4688v10.156q6-3.3594 11.766-5.0781 5.7656-1.7031 11.328-1.7031 8.4375 0 13.031 3.3125 4.5938 3.3281 4.5938 9.4844 0 5.3594-3.2969 8.3906t-10.812 4.5469l-6.0156 1.1719q-11.031 2.1875-15.969 6.875-4.9219 4.6875-4.9219 13.047 0 9.6719 6.8125 15.234t18.766 5.5625q5.1406 0 10.453-0.9375 5.3281-0.92188 10.891-2.7656z"/>
<path id="al" d="m-0.29688 72.906h61.672v-8.3125h-25.875v-64.594h-9.9062v64.594h-25.891z"/>
</defs>
<g transform="translate(153.46 16.318) scale(.12 -.12)">
<use xlink:href="#an"/>
<use x="86.279297" xlink:href="#l"/>
<use x="147.460938" xlink:href="#n"/>
<use x="210.9375" xlink:href="#b"/>
<use x="272.460938" xlink:href="#s"/>
<use x="300.244141" xlink:href="#ap"/>
<use x="333.935547" xlink:href="#DejaVuSans-20"/>
<use x="365.722656" xlink:href="#t"/>
<use x="429.199219" xlink:href="#b"/>
<use x="490.722656" xlink:href="#j"/>
<use x="552.001953" xlink:href="#ab"/>
<use x="615.478516" xlink:href="#j"/>
<use x="676.757812" xlink:href="#r"/>
<use x="715.966797" xlink:href="#b"/>
<use x="777.490234" xlink:href="#DejaVuSans-20"/>
<use x="809.277344" xlink:href="#t"/>
<use x="872.753906" xlink:href="#al"/>
<use x="933.837891" xlink:href="#v"/>
<use x="997.460938" xlink:href="#f"/>
<use x="1061.083984" xlink:href="#o"/>
<use x="1124.707031" xlink:href="#g"/>
<use x="1188.330078" xlink:href="#g"/>
<use x="1251.953125" xlink:href="#o"/>
<use x="1315.576172" xlink:href="#p"/>
<use x="1379.199219" xlink:href="#f"/>
<use x="1442.822266" xlink:href="#ad"/>
<use x="1511.230469" xlink:href="#t"/>
</g>
<defs>
<clipPath id="h">
<rect x="40.603" y="28.8" width="445.72" height="141.83"/>
</clipPath>
<clipPath id="c">
<rect x="40.603" y="186.54" width="445.72" height="189.1"/>
</clipPath>
</defs>
</svg>
