<?xml version="1.0" encoding="UTF-8"?>
<!DOCTYPE svg  PUBLIC '-//W3C//DTD SVG 1.1//EN'  'http://www.w3.org/Graphics/SVG/1.1/DTD/svg11.dtd'>
<svg width="497pt" height="413pt" version="1.1" viewBox="0 0 497 413" xmlns="http://www.w3.org/2000/svg" xmlns:xlink="http://www.w3.org/1999/xlink">
<defs>
<style type="text/css">*{stroke-linecap:butt;stroke-linejoin:round;}</style>
</defs>
<path d="m0 413.2h497.32v-413.2h-497.32z" fill="#fff"/>
<path d="m40.603 170.63h446.02v-141.83h-446.02z" fill="#fff"/>
<defs>
<path id="ag" d="m60.877-235.45v-33.28l0.23316-0.075422 0.23316-0.074622 0.23316-0.074026 0.23316-0.073472 0.23316-0.072927 0.23316-0.072389 0.23316-0.071859 0.23316-0.071337 0.23316-0.070821 0.23316-0.070313 0.23316-0.069813 0.23316-0.069318 0.23316-0.068831 0.23316-0.068351 0.23316-0.067876 0.23316-0.067409 0.23316-0.066948 0.23316-0.066492 0.23316-0.066043 0.23316-0.065599 0.23316-0.065162 0.23316-0.064535 0.23316-0.063839 0.23316-0.063151 0.23316-0.062474 0.23316-0.062153 0.23316-0.061892 0.23316-0.061634 0.23316-0.06097 0.23316-0.059905 0.23316-0.059549 0.23316-0.059311 0.23316-0.059076 0.23316-0.058843 0.23316-0.058612 0.23316-0.058382 0.23316-0.058155 0.23316-0.057931 0.23316-0.057706 0.23316-0.057486 0.23316-0.057266 0.23316-0.057049 0.23316-0.056833 0.23316-0.056619 0.23316-0.066843 0.23316-0.071545 0.23316-0.074038 0.23316-0.074002 0.23316-0.073965 0.23316-0.073745 0.23316-0.073418 0.23316-0.073094 0.23316-0.072773 0.23316-0.072456 0.23316-0.072142 0.23316-0.07183 0.23316-0.072446 0.23316-0.071937 0.23316-0.071432 0.23316-0.070937 0.23316-0.070372 0.23316-0.069812 0.23316-0.069261 0.23316-0.068717 0.23316-0.068181 0.23316-0.067654 0.23316-0.067132 0.23316-0.066619 0.23316-0.066113 0.23316-0.065614 0.23316-0.06512 0.23316-0.064636 0.23316-0.064155 0.23316-0.063683 0.23316-0.063217 0.23316-0.062756 0.23316-0.062301 0.23316-0.061853 0.23316-0.061411 0.23316-0.060973 0.23316-0.060543 0.23316-0.060116 0.23316-0.059696 0.23316-0.059586 0.23316-0.05974 0.23316-0.059252 0.23316-0.058772 0.23316-0.058299 0.23316-0.05783 0.23316-0.057368 0.23316-0.056912 0.23316-0.056462 0.23316-0.056095 0.23316-0.055784 0.23316-0.055476 0.23316-0.055172 0.23316-0.054871 0.23316-0.054574 0.23316-0.054279 0.23316-0.053988 0.23316-0.053699 0.23316-0.053414 0.23316-0.053132 0.23316-0.052853 0.23316-0.052576 0.23316-0.052302 0.23316-0.052032 0.23316-0.051764 0.23316-0.051498 0.23316-0.051236 0.23316-0.050976 0.23316-0.050718 0.23316-0.050542 0.23316-0.050366 0.23316-0.050192 0.23316-0.05002 0.23316-0.049847 0.23316-0.049678 0.23316-0.049508 0.23316-0.049342 0.23316-0.049174 0.23316-0.04901 0.23316-0.048846 0.23316-0.048683 0.23316-0.048522 0.23316-0.048361 0.23316-0.048576 0.23316-0.049089 0.23316-0.049771 0.23316-0.049435 0.23316-0.049101 0.23316-0.048771 0.23316-0.048445 0.23316-0.048123 0.23316-0.047804 0.23316-0.047488 0.23316-0.047175 0.23316-0.046734 0.23316-0.04628 0.23316-0.045832 0.23316-0.045545 0.23316-0.045299 0.23316-0.045057 0.23316-0.044817 0.23316-0.044579 0.23316-0.044343 0.23316-0.04411 0.23316-0.043879 0.23316-0.04365 0.23316-0.043423 0.23316-0.043198 0.23316-0.042975 0.23316-0.042754 0.23316-0.042536 0.23316-0.042319 0.23316-0.042105 0.23316-0.041891 0.23316-0.04168 0.23316-0.041472 0.23316-0.0412 0.23316-0.040926 0.23316-0.040654 0.23316-0.040384 0.23316-0.040117 0.23316-0.039853 0.23316-0.040201 0.23316-0.039909 0.23316-0.03962 0.23316-0.039334 0.23316-0.03905 0.23316-0.038769 0.23316-0.037574 0.23316-0.035868 0.23316-0.034374 0.23316-0.03335 0.23316-0.033104 0.23316-0.032862 0.23316-0.03262 0.23316-0.032382 0.23316-0.031883 0.23316-0.030853 0.23316-0.030687 0.23316-0.030523 0.23316-0.030359 0.23316-0.030197 0.23316-0.030035 0.23316-0.029876 0.23316-0.029717 0.23316-0.029516 0.23316-0.029312 0.23316-0.029112 0.23316-0.028911 0.23316-0.028713 0.23316-0.028516 0.23316-0.028293 0.23316-0.028058 0.23316-0.027826 0.23316-0.027594 0.23316-0.026004 0.23316-0.025444 0.23316-0.025051 0.23316-0.024643 0.23316-0.024232 0.23316-0.023959 0.23316-0.023739 0.23316-0.023519 0.23316-0.023349 0.23316-0.023263 0.23316-0.023176 0.23316-0.022881 0.23316-0.022506 0.23316-0.02232 0.23316-0.022135 0.23316-0.022275 0.23316-0.020712 0.23316-0.020394 0.23316-0.020229 0.23316-0.019817 0.23316-0.019589 0.23316-0.018963 0.23316-0.018372 0.23316-0.016646 0.23316-0.016462 0.23316-0.01628 0.23316-0.016097 0.23316-0.015917 0.23316-0.015736 0.23316-0.015406 0.23316-0.009854 0.23316-0.008042 0.23316-0.006832 0.23316-0.006281 0.23316-0.006228 0.23316-0.005565 0.23316-0.005439 0.23316-0.005313 0.23316-0.005188 0.23316-0.005063 0.23316-0.004938 0.23316-0.004812 0.23316-0.004687 0.23316-0.00456 0.23316-0.004436 0.23316-0.00431 0.23316-0.004362 0.23316-0.00458 0.23316-4.17e-4 0.23316 0.005372 0.23316 0.008488 0.23316 0.008827 0.23316 0.009003 0.23316 0.00918 0.23316 0.009356 0.23316 0.009532 0.23316 0.00983 0.23316 0.010238 0.23316 0.011478 0.23316 0.015442 0.23316 0.016679 0.23316 0.01633 0.23316 0.016206 0.23316 0.016082 0.23316 0.015956 0.23316 0.015898 0.23316 0.015849 0.23316 0.015801 0.23316 0.015753 0.23316 0.015704 0.23316 0.015655 0.23316 0.015605 0.23316 0.015524 0.23316 0.01539 0.23316 0.015256 0.23316 0.015121 0.23316 0.014963 0.23316 0.014758 0.23316 0.014551 0.23316 0.014386 0.23316 0.014244 0.23316 0.014099 0.23316 0.013956 0.23316 0.013595 0.23316 0.01305 0.23316 0.012647 0.23316 0.012577 0.23316 0.012506 0.23316 0.012579 0.23316 0.012677 0.23316 0.012774 0.23316 0.012872 0.23316 0.01297 0.23316 0.013068 0.23316 0.013168 0.23316 0.013642 0.23316 0.013885 0.23316 0.01399 0.23316 0.014095 0.23316 0.0142 0.23316 0.014307 0.23316 0.014414 0.23316 0.01452 0.23316 0.014628 0.23316 0.014736 0.23316 0.014827 0.23316 0.014899 0.23316 0.019949 0.23316 0.022463 0.23316 0.023969 0.23316 0.024273 0.23316 0.024578 0.23316 0.024797 0.23316 0.024961 0.23316 0.025128 0.23316 0.025294 0.23316 0.025463 0.23316 0.025632 0.23316 0.025803 0.23316 0.026469 0.23316 0.026541 0.23316 0.026612 0.23316 0.026685 0.23316 0.026757 0.23316 0.02683 0.23316 0.026904 0.23316 0.026977 0.23316 0.027052 0.23316 0.027127 0.23316 0.027182 0.23316 0.027199 0.23316 0.027217 0.23316 0.027234 0.23316 0.027252 0.23316 0.027268 0.23316 0.027286 0.23316 0.027304 0.23316 0.02732 0.23316 0.027337 0.23316 0.027354 0.23316 0.027371 0.23316 0.027388 0.23316 0.027405 0.23316 0.027422 0.23316 0.027438 0.23316 0.027455 0.23316 0.027471 0.23316 0.027347 0.23316 0.027199 0.23316 0.027049 0.23316 0.026898 0.23316 0.02691 0.23316 0.026992 0.23316 0.027072 0.23316 0.027154 0.23316 0.027293 0.23316 0.027471 0.23316 0.02765 0.23316 0.02778 0.23316 0.027861 0.23316 0.027942 0.23316 0.028024 0.23316 0.028106 0.23316 0.028189 0.23316 0.028271 0.23316 0.028355 0.23316 0.028439 0.23316 0.028523 0.23316 0.028609 0.23316 0.028694 0.23316 0.028779 0.23316 0.028867 0.23316 0.028953 0.23316 0.02904 0.23316 0.029129 0.23316 0.029217 0.23316 0.029306 0.23316 0.029396 0.23316 0.029485 0.23316 0.029576 0.23316 0.029668 0.23316 0.029759 0.23316 0.029851 0.23316 0.029944 0.23316 0.030037 0.23316 0.030131 0.23316 0.030226 0.23316 0.030321 0.23316 0.030416 0.23316 0.030871 0.23316 0.031233 0.23316 0.031241 0.23316 0.031249 0.23316 0.031259 0.23316 0.031266 0.23316 0.031275 0.23316 0.031282 0.23316 0.03129 0.23316 0.031298 0.23316 0.031304 0.23316 0.031173 0.23316 0.031022 0.23316 0.030869 0.23316 0.030881 0.23316 0.030936 0.23316 0.030992 0.23316 0.031938 0.23316 0.032529 0.23316 0.033043 0.23316 0.032806 0.23316 0.032502 0.23316 0.032249 0.23316 0.032314 0.23316 0.032471 0.23316 0.032631 0.23316 0.032792 0.23316 0.032953 0.23316 0.033117 0.23316 0.03328 0.23316 0.033446 0.23316 0.033613 0.23316 0.033909 0.23316 0.034342 0.23316 0.034985 0.23316 0.035562 0.23316 0.03569 0.23316 0.035819 0.23316 0.035948 0.23316 0.036078 0.23316 0.036209 0.23316 0.036341 0.23316 0.036474 0.23316 0.036609 0.23316 0.036743 0.23316 0.036604 0.23316 0.036005 0.23316 0.034739 0.23316 0.034759 0.23316 0.03478 0.23316 0.0348 0.23316 0.034819 0.23316 0.034839 0.23316 0.034489 0.23316 0.033369 0.23316 0.033465 0.23316 0.033562 0.23316 0.03366 0.23316 0.033759 0.23316 0.033858 0.23316 0.033957 0.23316 0.034058 0.23316 0.034998 0.23316 0.035122 0.23316 0.035247 0.23316 0.035373 0.23316 0.0355 0.23316 0.035627 0.23316 0.035756 0.23316 0.035885 0.23316 0.036016 0.23316 0.036147 0.23316 0.036279 0.23316 0.036397 0.23316 0.036448 0.23316 0.036498 0.23316 0.036548 0.23316 0.036599 0.23316 0.03665 0.23316 0.0367 0.23316 0.036844 0.23316 0.037132 0.23316 0.037423 0.23316 0.037717 0.23316 0.038012 0.23316 0.038312 0.23316 0.038614 0.23316 0.038919 0.23316 0.039226 0.23316 0.039537 0.23316 0.039851 0.23316 0.039723 0.23316 0.039563 0.23316 0.038364 0.23316 0.03715 0.23316 0.033947 0.23316 0.033839 0.23316 0.033729 0.23316 0.033617 0.23316 0.033504 0.23316 0.033389 0.23316 0.032991 0.23316 0.022762 0.23316 0.020048 0.23316 0.018354 0.23316 0.01785 0.23316 0.018467 0.23316 0.018288 0.23316 0.017379 0.23316 0.017293 0.23316 0.017208 0.23316 0.01712 0.23316 0.017034 0.23316 0.016945 0.23316 0.016856 0.23316 0.016765 0.23316 0.016675 0.23316 0.016583 0.23316 0.016491 0.23316 0.016398 0.23316 0.015061 0.23316 0.011276 0.23316 0.006427 0.23316 0.006334 0.23316 0.00624 0.23316 0.006147 0.23316 0.006053 0.23316 0.005959 0.23316 0.005865 0.23316 0.00577 0.23316 0.004132 0.23316 0.003103 0.23316 0.002306 0.23316 0.002868 0.23316 0.002987 0.23316 0.003107 0.23316 0.003226 0.23316 0.003346 0.23316 0.003466 0.23316 0.003586 0.23316 0.003706 0.23316 0.00393 0.23316 0.004266 0.23316 0.004601 0.23316 0.004998 0.23316 0.006446 0.23316 0.006786 0.23316 0.007127 0.23316 0.007511 0.23316 0.007986 0.23316 0.008463 0.23316 0.008858 0.23316 0.009211 0.23316 0.009567 0.23316 0.009922 0.23316 0.01069 0.23316 0.011662 0.23316 0.012166 0.23316 0.011977 0.23316 0.011788 0.23316 0.011599 0.23316 0.011408 0.23316 0.011217 0.23316 0.011025 0.23316 0.010833 0.23316 0.01064 0.23316 0.010447 0.23316 0.009448 0.23316 0.008798 0.23316 0.008409 0.23316 0.008019 0.23316 0.007976 0.23316 0.007991 0.23316 0.008008 0.23316 0.008023 0.23316 0.00804 0.23316 0.008055 0.23316 0.008104 0.23316 0.008188 1.399 0.049464 1.399 0.049339 1.399 0.049211 0.93266 0.032734 0.23316 0.00821 0.23316 0.008311 0.23316 0.008413 0.23316 0.008515 0.23316 0.008617 0.23316 0.00872 0.23316 0.008822 0.23316 0.008925 0.23316 0.009029 0.23316 0.009132 0.23316 0.009323 0.23316 0.009539 0.23316 0.009754 0.23316 0.009972 0.23316 0.010188 0.23316 0.010406 0.46633 0.021251 0.23316 0.010484 0.23316 0.010357 0.23316 0.010613 0.23316 0.011067 0.23316 0.01123 0.23316 0.011276 0.23316 0.011323 0.23316 0.01137 0.23316 0.012273 0.23316 0.012009 0.23316 0.011743 0.23316 0.011565 0.23316 0.011472 0.23316 0.01138 0.23316 0.011287 0.23316 0.011193 0.23316 0.011107 0.23316 0.011056 0.23316 0.011007 0.23316 0.010956 0.23316 0.010906 0.23316 0.010856 0.23316 0.010804 0.23316 0.010754 0.23316 0.010702 0.23316 0.010651 0.23316 0.0106 0.23316 0.010548 0.23316 0.010496 0.23316 0.010672 0.23316 0.011577 0.23316 0.011363 0.23316 0.011149 0.23316 0.010934 0.46633 0.021435 0.23316 0.010823 0.23316 0.010928 0.23316 0.011034 0.23316 0.011139 0.23316 0.011246 0.23316 0.011353 0.23316 0.01146 0.23316 0.011567 0.23316 0.011675 0.23316 0.011783 0.23316 0.011892 0.23316 0.012 0.23316 0.01211 0.23316 0.012219 0.23316 0.012329 0.23316 0.011819 0.23316 0.012241 0.23316 0.012025 0.23316 0.011809 0.23316 0.011592 0.23316 0.011574 0.23316 0.012246 0.23316 0.01261 0.23316 0.011115 0.23316 0.010193 0.23316 0.0094 0.23316 0.009796 0.23316 0.010293 0.23316 0.01071 0.23316 0.010625 0.23316 0.010391 0.23316 0.010159 0.23316 0.010456 0.23316 0.010945 0.23316 0.009769 0.23316 0.009795 0.23316 0.009818 0.23316 0.009844 0.23316 0.009672 0.23316 0.009293 0.23316 0.008599 0.23316 0.008011 0.23316 0.008116 0.23316 0.006735 0.23316 0.006413 0.23316 0.006091 0.23316 0.005768 0.23316 0.005773 0.23316 0.006039 0.23316 0.006307 0.23316 0.006573 0.23316 0.006158 0.46633 0.010928 0.23316 0.005533 0.23316 0.005604 0.23316 0.005676 0.23316 0.005748 0.23316 0.00582 0.23316 0.005892 0.23316 0.005965 0.23316 0.006037 0.23316 0.00611 0.23316 0.006077 0.23316 0.005872 0.23316 0.005665 0.23316 0.005457 0.23316 0.00525 0.23316 0.003857 0.23316 0.003624 0.23316 0.003416 0.23316 0.003302 0.23316 0.003189 0.23316 0.003075 0.23316 0.002961 0.23316 0.002847 0.23316 0.002734 0.23316 0.002619 0.23316 0.002505 0.23316 0.002391 0.23316 0.002276 0.23316 0.002162 0.23316 0.002048 0.23316 0.001933 0.23316 0.001818 0.23316 0.001704 0.23316 0.001574 0.23316 0.001435 0.23316 0.001296 0.23316 0.001158 0.23316 0.001019 0.23316 8.81e-4 0.23316 7.41e-4 0.23316 6.03e-4 0.23316 4.64e-4 0.23316 3.25e-4 0.23316 1.45e-4 0.23316-4.8e-5 0.23316-2.41e-4 0.23316-3.31e-4 0.23316-3.5e-4 0.23316-3.68e-4 0.23316-3.87e-4 0.23316-4.05e-4 0.23316-4.23e-4 0.23316-4.42e-4 0.23316-4.61e-4 0.23316-4.79e-4 0.23316-9.98e-4 0.23316-0.00231 0.23316-0.010177 0.23316-0.011899 0.23316-0.010628 0.23316-0.009839 0.23316-0.008372 0.23316-0.008939 0.23316-0.009565 0.23316-0.009662 0.23316-0.009734 0.23316-0.009804 0.23316-0.009874 0.23316-0.009946 0.23316-0.010015 0.23316-0.010085 0.23316-0.010155 0.23316-0.010225 0.23316-0.010293 0.23316-0.010363 0.23316-0.010432 0.23316-0.010501 0.23316-0.010569 0.23316-0.010637 0.23316-0.010705 0.23316-0.010773 0.23316-0.01084 0.23316-0.010908 0.23316-0.010975 0.23316-0.011042 0.23316-0.011108 0.23316-0.011175 0.23316-0.011241 0.23316-0.011307 0.23316-0.011372 0.23316-0.011439 0.23316-0.012832 0.23316-0.013309 0.23316-0.013784 0.23316-0.016773 0.23316-0.020174 0.23316-0.027201 0.23316-0.030587 0.23316-0.037793 0.23316-0.038791 0.23316-0.039685 0.23316-0.039023 0.23316-0.038479 0.23316-0.038148 0.23316-0.03782 0.23316-0.037495 0.23316-0.037373 0.23316-0.037535 0.23316-0.037697 0.23316-0.037855 0.23316-0.037872 0.23316-0.037823 0.23316-0.037532 0.23316-0.037243 0.23316-0.036956 0.23316-0.036674 0.23316-0.036392 0.23316-0.036114 0.23316-0.035838 0.23316-0.035565 0.23316-0.035203 0.23316-0.03475 0.23316-0.0343 0.23316-0.033853 0.23316-0.033758 0.23316-0.033722 0.23316-0.033687 0.23316-0.033651 0.23316-0.033615 0.23316-0.033579 0.23316-0.033544 0.23316-0.033507 0.23316-0.033453 0.23316-0.033332 0.23316-0.033212 0.23316-0.033617 0.23316-0.034029 0.23316-0.034491 0.23316-0.03495 0.23316-0.035382 0.23316-0.035653 0.23316-0.035404 0.23316-0.035157 0.23316-0.034911 0.23316-0.034669 0.23316-0.034428 0.23316-0.034189 0.23316-0.035216 0.23316-0.035361 0.23316-0.035504 0.23316-0.035645 0.23316-0.035891 0.23316-0.036214 0.23316-0.036919 0.23316-0.037746 0.23316-0.037308 0.23316-0.037504 0.23316-0.037695 0.23316-0.037885 0.23316-0.038072 0.23316-0.038256 0.23316-0.039071 0.23316-0.042354 0.23316-0.0454 0.23316-0.057784 0.23316-0.070799 0.23316-0.086217 0.23316-0.095105 0.23316-0.10331 0.23316-0.11069 0.23316-0.11816 0.23316-0.12043 0.23316-0.12127 0.23316-0.11925 0.23316-0.11756 0.23316-0.11679 0.23316-0.11649 0.23316-0.11712 0.23316-0.11977 0.23316-0.13085 0.23316-0.13797 0.23316-0.14495 0.23316-0.15518 0.23316-0.15522 0.23316-0.15791 0.23316-0.1564 0.23316-0.15454 0.23316-0.15253 0.23316-0.15127 0.23316-0.15032 0.23316-0.14946 0.23316-0.15401 0.23316-0.15665 0.23316-0.15747 0.23316-0.15833 0.23316-0.15678 0.23316-0.15494 0.23316-0.1565 0.23316-0.16003 0.23316-0.16054 0.23316-0.16053 0.23316-0.1617 0.23316-0.16315 0.23316-0.16538 0.23316-0.16872 0.23316-0.16941 0.23316-0.16727 0.23316-0.16581 0.23316-0.16355 0.23316-0.16154 0.23316-0.15924 0.23316-0.157 0.23316-0.15481 0.23316-0.15262 0.23316-0.1505 0.23316-0.14843 0.23316-0.14642 0.23316-0.14446 0.23316-0.14312 0.23316-0.14181 0.23316-0.1416 0.23316-0.14318 0.23316-0.14379 0.23316-0.14371 0.23316-0.14234 0.23316-0.14109 0.23316-0.14111 0.23316-0.1396 0.23316-0.1379 0.23316-0.13641 0.23316-0.13483 0.23316-0.13315 0.23316-0.13157 0.23316-0.13012 0.23316-0.12841 0.23316-0.12674 0.23316-0.12512 0.23316-0.12354 0.23316-0.12199 0.23316-0.12048 0.23316-0.11915 0.23316-0.11848 0.23316-0.11739 0.23316-0.1167 0.23316-0.11632 0.23316-0.11524 0.23316-0.11397 0.23316-0.11274 0.23316-0.11153 0.23316-0.11035 0.23316-0.10919 0.23316-0.1077 0.23316-0.1065 0.23316-0.10532 0.23316-0.10417 0.23316-0.10312 0.23316-0.10214 0.23316-0.10119 0.23316-0.10025 0.23316-0.099182 0.23316-0.098074 0.23316-0.097139 0.23316-0.096237 0.23316-0.095352 0.23316-0.094484 0.23316-0.09363 0.23316-0.092794 0.23316-0.09197 0.23316-0.091163 0.23316-0.090369 0.23316-0.089588 0.23316-0.088802 0.23316-0.087994 0.23316-0.0872 0.23316-0.086422 0.23316-0.085655 0.23316-0.084902 0.23316-0.084162 0.23316-0.083362 0.23316-0.082576 0.23316-0.081825 0.23316-0.081091 0.23316-0.080369 0.23316-0.079628 0.23316-0.078906 0.23316-0.078281 0.23316-0.077666 0.23316-0.07706 0.23316-0.076463 0.23316-0.075876 0.23316-0.075297 0.23316-0.074726 0.23316-0.074165 0.23316-0.073611 0.23316-0.073065 0.23316-0.072528 0.23316-0.071997 0.23316-0.071475 0.23316-0.070953 0.23316-0.070372 0.23316-0.0698 0.23316-0.069298 0.23316-0.06881 0.23316-0.068326 0.23316-0.067844 0.23316-0.067367 0.23316-0.066895 0.23316-0.06643 0.23316-0.065971 0.23316-0.065519 0.23316-0.065071 0.23316-0.064613 0.23316-0.064126 0.23316-0.063647 0.23316-0.063155 0.23316-0.062666 0.23316-0.062176 0.23316-0.061589 0.23316-0.060101 0.23316-0.059483 0.23316-0.059285 0.23316-0.058996 0.23316-0.058708 0.23316-0.058286 0.23316-0.057859 0.23316-0.057504 0.23316-0.057095 0.23316-0.056681 0.23316-0.05623 0.23316-0.055896 0.23316-0.055566 0.23316-0.05524 0.23316-0.054918 0.23316-0.054599 0.23316-0.054284 0.23316-0.053972 0.23316-0.053673 0.23316-0.053381 0.23316-0.053092 0.23316-0.052805 0.23316-0.052522 0.23316-0.052243 0.23316-0.051964 0.23316-0.051691 0.23316-0.051419 0.23316-0.05115 0.23316-0.050884 0.23316-0.05062 0.23316-0.05036 0.23316-0.050102 0.23316-0.049846 0.23316-0.049593 0.23316-0.049183 0.23316-0.048886 0.23316-0.048593 0.23316-0.048017 0.23316-0.047156 0.23316-0.046117 0.23316-0.045525 0.23316-0.044609 0.23316-0.044284 0.23316-0.043974 0.23316-0.043847 0.23316-0.04371 0.23316-0.043549 0.23316-0.043389 0.23316-0.04323 0.23316-0.043049 0.23316-0.042837 0.23316-0.042625 0.23316-0.042416 0.23316-0.042212 0.23316-0.042011 0.23316-0.041842 0.23316-0.041672 0.23316-0.041504 0.23316-0.041338 0.23316-0.041173 0.23316-0.041009 0.23316-0.040847 0.23316-0.040685 0.23316-0.040526 0.23316-0.040367 0.23316-0.04021 0.23316-0.040054 0.23316-0.039899 0.23316-0.039745 0.23316-0.039592 0.23316-0.039441 0.23316-0.039291 0.23316-0.039142 0.23316-0.038994 0.23316-0.038847 0.23316-0.038702 0.23316-0.038556 0.23316-0.038413 0.23316-0.03821 0.23316-0.038007 0.23316-0.03779 0.23316-0.037574 0.23316-0.037363 0.23316-0.037172 0.23316-0.037042 0.23316-0.036913 0.23316-0.036784 0.23316-0.036658 0.23316-0.036472 0.23316-0.036318 0.23316-0.036056 0.23316-0.035898 0.23316-0.035741 0.23316-0.035585 0.23316-0.035419 0.23316-0.035243 0.23316-0.035026 0.23316-0.034794 0.23316-0.03471 0.23316-0.034554 0.23316-0.034399 0.23316-0.034244 0.23316-0.034092 0.23316-0.03394 0.23316-0.033716 0.23316-0.033206 0.23316-0.032722 0.23316-0.031158 0.23316-0.02951 0.23316-0.027561 0.23316-0.026358 0.23316-0.025215 0.23316-0.024149 0.23316-0.023046 0.23316-0.022536 0.23316-0.022163 0.23316-0.022147 0.23316-0.02213 0.23316-0.02202 0.23316-0.021853 0.23316-0.021564 0.23316-0.021008 0.23316-0.019322 0.23316-0.018198 0.23316-0.01695 0.23316-0.015215 0.23316-0.014815 0.23316-0.014006 0.23316-0.013822 0.23316-0.013695 0.23316-0.013597 0.23316-0.013371 0.23316-0.013077 0.23316-0.012837 0.23316-0.011756 0.23316-0.010943 0.23316-0.0104 0.23316-0.00984 0.23316-0.009668 0.23316-0.00955 0.23316-0.008864 0.23316-0.007821 0.23316-0.007276 0.23316-0.006811 0.23316-0.006149 0.23316-0.005484 0.23316-0.004456 0.23316-0.003282 0.23316-0.002577 0.23316-0.002411 0.23316-0.002026 0.23316-0.00186 0.23316-0.001722 0.23316-0.001654 0.23316-0.001499 0.23316-0.001424 0.23316-0.00136 0.23316-0.001231 0.23316-0.001197 0.23316-0.001165 0.23316-0.001133 0.23316-9.7e-4 0.23316-8.05e-4 0.23316-3.81e-4 0.23316 5.26e-4 0.23316 0.001234 0.23316 0.001832 0.23316 0.001986 0.23316 0.002223 0.23316 0.002765 0.23316 0.002898 0.23316 0.002958 0.23316 0.003001 0.23316 0.003035 0.23316 0.00307 0.23316 0.003123 0.69949 0.009577 0.69949 0.009514 0.46633 0.006307 0.23316 0.003324 0.23316 0.003505 0.23316 0.003703 0.23316 0.004004 0.23316 0.00409 0.23316 0.004134 0.23316 0.004274 0.23316 0.004329 5.5959 0.10434 0.23316 0.004409 0.23316 0.004521 0.23316 0.004555 0.23316 0.004574 0.23316 0.004591 0.23316 0.004574 0.23316 0.004557 0.46633 0.009157 0.23316 0.004558 0.23316 0.004521 0.23316 0.004488 0.23316 0.004495 0.23316 0.004502 0.23316 0.004511 0.23316 0.004518 0.23316 0.004524 0.23316 0.004528 0.23316 0.004532 0.23316 0.004537 0.23316 0.004541 0.23316 0.004546 0.23316 0.00455 0.23316 0.004554 0.46633 0.009118 0.23316 0.004526 0.23316 0.004497 0.23316 0.004502 0.23316 0.004511 0.23316 0.004519 0.23316 0.004528 0.23316 0.004536 0.23316 0.004568 0.23316 0.004601 0.23316 0.004635 0.23316 0.004669 0.23316 0.004704 0.23316 0.005034 0.23316 0.005163 0.23316 0.005141 0.23316 0.005107 0.23316 0.005071 0.23316 0.005073 0.23316 0.005081 0.23316 0.005087 0.23316 0.005094 0.23316 0.0051 0.23316 0.005105 0.23316 0.005111 0.23316 0.005117 0.23316 0.005122 0.23316 0.005125 0.23316 0.005087 0.23316 0.005045 0.23316 0.004977 0.23316 0.004981 0.23316 0.004985 1.6322 0.034933 0.23316 0.004995 0.23316 0.004999 0.23316 0.005003 0.23316 0.005007 0.23316 0.005011 0.23316 0.005016 0.23316 0.005019 0.23316 0.005024 0.23316 0.005028 0.23316 0.005032 0.23316 0.005046 0.23316 0.005066 0.23316 0.005086 0.23316 0.005105 0.23316 0.005126 0.23316 0.005174 0.23316 0.005223 0.23316 0.005239 0.23316 0.00506 0.23316 0.005066 0.23316 0.005081 0.23316 0.005094 0.23316 0.005105 0.23316 0.005111 0.23316 0.005117 0.23316 0.005123 0.23316 0.005129 0.23316 0.005135 0.23316 0.005142 0.23316 0.005147 0.23316 0.005153 0.23316 0.00516 0.23316 0.005209 0.23316 0.005363 0.23316 0.00543 0.23316 0.005668 0.23316 0.005704 0.23316 0.00573 0.23316 0.005756 0.23316 0.005782 0.23316 0.005812 0.23316 0.005841 0.23316 0.005871 0.23316 0.00593 0.23316 0.006005 0.23316 0.006056 0.23316 0.006101 0.23316 0.006125 0.23316 0.006149 0.23316 0.006174 0.23316 0.006199 0.23316 0.006329 0.23316 0.006362 0.23316 0.006397 0.23316 0.006476 0.23316 0.006593 0.23316 0.006648 0.23316 0.00668 0.23316 0.006711 0.23316 0.00677 0.23316 0.006845 0.23316 0.006862 0.23316 0.00688 0.23316 0.006898 0.23316 0.006991 0.23316 0.00702 0.23316 0.007029 0.23316 0.007037 0.23316 0.006988 0.23316 0.006968 0.23316 0.006985 0.23316 0.007009 0.23316 0.00704 0.23316 0.007071 0.23316 0.007103 0.23316 0.007382 0.23316 0.007723 0.23316 0.007851 0.23316 0.008291 0.23316 0.008954 0.23316 0.009126 0.23316 0.009347 0.23316 0.009445 0.23316 0.009529 0.23316 0.00967 0.23316 0.009744 0.23316 0.009776 0.23316 0.009809 0.23316 0.009841 0.23316 0.009877 0.23316 0.00992 0.23316 0.009961 0.23316 0.010001 0.23316 0.010033 0.23316 0.010065 0.23316 0.010097 0.23316 0.010144 0.23316 0.010197 0.23316 0.010281 0.23316 0.010337 0.23316 0.010351 0.23316 0.010366 0.23316 0.01038 0.23316 0.010394 0.23316 0.010408 0.23316 0.010423 0.23316 0.010404 0.23316 0.010353 0.23316 0.010359 0.23316 0.010381 0.23316 0.010403 0.23316 0.010601 0.23316 0.010556 0.23316 0.010583 0.23316 0.010609 0.23316 0.01067 0.23316 0.010728 0.23316 0.010761 0.23316 0.010794 0.23316 0.010853 0.23316 0.010957 0.23316 0.011063 0.23316 0.011183 0.23316 0.011257 0.23316 0.01138 0.23316 0.011444 0.23316 0.011608 0.23316 0.011721 0.23316 0.011822 0.23316 0.011992 0.23316 0.011866 0.69949 0.035348 0.23316 0.011672 0.23316 0.011653 0.23316 0.01164 0.23316 0.011548 0.23316 0.01157 0.23316 0.011593 0.23316 0.011611 0.23316 0.01163 0.23316 0.011647 0.23316 0.011659 0.23316 0.011627 0.46633 0.023153 0.23316 0.011609 0.23316 0.011647 0.23316 0.01176 0.23316 0.011811 0.23316 0.011846 0.23316 0.011881 0.23316 0.011916 0.23316 0.012296 0.23316 0.01234 0.23316 0.012383 0.23316 0.012428 0.23316 0.012569 0.23316 0.012607 0.23316 0.012642 0.23316 0.012679 0.23316 0.012729 0.23316 0.012918 0.23316 0.01334 0.23316 0.013406 0.23316 0.01347 0.23316 0.013515 0.69949 0.040591 0.23316 0.013546 0.23316 0.013601 0.23316 0.013678 0.23316 0.013757 0.23316 0.013838 0.23316 0.013946 0.23316 0.014053 0.23316 0.014143 0.23316 0.014202 0.23316 0.014262 0.23316 0.014351 0.23316 0.014554 0.23316 0.014592 0.23316 0.014628 0.23316 0.014665 0.23316 0.014703 0.23316 0.01474 0.23316 0.015076 0.23316 0.015281 0.23316 0.015334 0.23316 0.015387 0.23316 0.015441 0.23316 0.01563 0.23316 0.015719 0.23316 0.015911 0.23316 0.015945 0.23316 0.016772 0.23316 0.017447 0.23316 0.018009 0.23316 0.018469 0.23316 0.019044 0.23316 0.019282 0.23316 0.019523 0.23316 0.019597 0.23316 0.01994 0.23316 0.02025 0.23316 0.02034 0.23316 0.020415 0.23316 0.020486 0.23316 0.020571 0.23316 0.020725 0.23316 0.020817 0.23316 0.020922 0.23316 0.02106 0.23316 0.021175 0.23316 0.021312 0.23316 0.021572 0.23316 0.021754 0.23316 0.02218 0.23316 0.022343 0.23316 0.022589 0.23316 0.022717 0.23316 0.023091 0.23316 0.023395 0.23316 0.023539 0.23316 0.02362 0.23316 0.0237 0.23316 0.023907 0.23316 0.023962 0.23316 0.024014 0.23316 0.024081 0.23316 0.024177 0.23316 0.024341 0.23316 0.024008 0.23316 0.023963 0.23316 0.02419 0.23316 0.024292 0.23316 0.02442 0.23316 0.024737 0.23316 0.02501 0.23316 0.025112 0.23316 0.02524 0.23316 0.025519 0.23316 0.025604 0.23316 0.025678 0.23316 0.025754 0.23316 0.025831 0.23316 0.025943 0.23316 0.026159 0.23316 0.026413 0.23316 0.026487 0.23316 0.026562 0.23316 0.026636 0.23316 0.026712 0.23316 0.026952 0.23316 0.02735 0.23316 0.027652 0.23316 0.027822 0.23316 0.027958 0.23316 0.028096 0.23316 0.028191 0.23316 0.028286 0.23316 0.028381 0.23316 0.028476 0.23316 0.028573 0.23316 0.028815 0.23316 0.028986 0.23316 0.029157 0.23316 0.029373 0.23316 0.029555 0.23316 0.029642 0.23316 0.029723 0.23316 0.029804 0.23316 0.029886 0.23316 0.030021 0.23316 0.030194 0.23316 0.030316 0.23316 0.030679 0.23316 0.030915 0.23316 0.03136 0.23316 0.031718 0.23316 0.032338 0.23316 0.032533 0.23316 0.032694 0.23316 0.032858 0.23316 0.033176 0.23316 0.033936 0.23316 0.034507 0.23316 0.035595 0.23316 0.036107 0.23316 0.037283 0.23316 0.038227 0.23316 0.038396 0.23316 0.038351 0.23316 0.038441 0.23316 0.038332 0.23316 0.038533 0.23316 0.038717 0.23316 0.038974 0.23316 0.039258 0.23316 0.039526 0.23316 0.04001 0.23316 0.040155 0.23316 0.040255 0.23316 0.04033 0.23316 0.040445 0.23316 0.040561 0.23316 0.040711 0.23316 0.040861 0.23316 0.041012 0.23316 0.041164 0.23316 0.041147 0.23316 0.041318 0.23316 0.041514 0.23316 0.041642 0.23316 0.041709 0.23316 0.042025 0.23316 0.042218 0.23316 0.042414 0.23316 0.042585 0.23316 0.042716 0.23316 0.042904 0.23316 0.043094 0.23316 0.043284 0.23316 0.043343 0.23316 0.043506 0.23316 0.043705 0.23316 0.043907 0.23316 0.044115 0.23316 0.044334 0.23316 0.044554 0.23316 0.044845 0.23316 0.04565 0.23316 0.045915 0.23316 0.046169 0.23316 0.045977 0.23316 0.045673 0.23316 0.045754 0.23316 0.045298 0.23316 0.044455 0.23316 0.044666 0.23316 0.045101 0.23316 0.046197 0.23316 0.046833 0.23316 0.047054 0.23316 0.047563 0.23316 0.048092 0.23316 0.048503 0.23316 0.04941 0.23316 0.050187 0.23316 0.050814 0.23316 0.051511 0.23316 0.051906 0.23316 0.05262 0.23316 0.053126 0.23316 0.053505 0.23316 0.053813 0.23316 0.054114 0.23316 0.054377 0.23316 0.054776 0.23316 0.055106 0.23316 0.05544 0.23316 0.055777 0.23316 0.056261 0.23316 0.057026 0.23316 0.057377 0.23316 0.057734 0.23316 0.058095 0.23316 0.058467 0.23316 0.058835 0.23316 0.059391 0.23316 0.059286 0.23316 0.059615 0.23316 0.059948 0.23316 0.060298 0.23316 0.06076 0.23316 0.061039 0.23316 0.061373 0.23316 0.061711 0.23316 0.061998 0.23316 0.062193 0.23316 0.062386 0.23316 0.062552 0.23316 0.062814 0.23316 0.062977 0.23316 0.06339 0.23316 0.063268 0.23316 0.063402 0.23316 0.063563 0.23316 0.06357 0.23316 0.063948 0.23316 0.064332 0.23316 0.064718 0.23316 0.065112 0.23316 0.065508 0.23316 0.06591 0.23316 0.066301 0.23316 0.066738 0.23316 0.067186 0.23316 0.06764 0.23316 0.068096 0.23316 0.068516 0.23316 0.068941 0.23316 0.069373 0.23316 0.06981 0.23316 0.070223 0.23316 0.070568 0.23316 0.070916 0.23316 0.071269 0.23316 0.071489 0.23316 0.071902 0.23316 0.072357 0.23316 0.07282 0.23316 0.073288 0.23316 0.072884 0.23316 0.073333 0.23316 0.07379 0.23316 0.074273 0.23316 0.074504 0.23316 0.075018 0.23316 0.075539 0.23316 0.076068 0.23316 0.076567 0.23316 0.076701 0.23316 0.076237 0.23316 0.076807 0.23316 0.077376 0.23316 0.077935 0.23316 0.078503 0.23316 0.07908 0.23316 0.07933 0.23316 0.079798 0.23316 0.080501 0.23316 0.081051 0.23316 0.081537 0.23316 0.082029 0.23316 0.082445 0.23316 0.082869 0.23316 0.083354 0.23316 0.083936 0.23316 0.084526 0.23316 0.085033 0.23316 0.085207 0.23316 0.085888v47.757h-405.47z" stroke="#0766aa" stroke-opacity=".2"/>
</defs>
<g clip-path="url(#i)">
<use y="413.19625" fill="#0766aa" fill-opacity=".2" stroke="#0766aa" stroke-opacity=".2" xlink:href="#ag"/>
</g>
<path d="m49.826 170.63v-141.83" clip-path="url(#i)" fill="none" stroke="#b0b0b0" stroke-linecap="square" stroke-width=".8"/>
<defs>
<path id="e" d="m0 0v3.5" stroke="#000" stroke-width=".8"/>
</defs>
<use x="49.826226" y="170.627393" stroke="#000000" stroke-width=".8" xlink:href="#e"/>
<path d="m140.15 170.63v-141.83" clip-path="url(#i)" fill="none" stroke="#b0b0b0" stroke-linecap="square" stroke-width=".8"/>
<use x="140.150005" y="170.627393" stroke="#000000" stroke-width=".8" xlink:href="#e"/>
<path d="m230.47 170.63v-141.83" clip-path="url(#i)" fill="none" stroke="#b0b0b0" stroke-linecap="square" stroke-width=".8"/>
<use x="230.473784" y="170.627393" stroke="#000000" stroke-width=".8" xlink:href="#e"/>
<path d="m320.8 170.63v-141.83" clip-path="url(#i)" fill="none" stroke="#b0b0b0" stroke-linecap="square" stroke-width=".8"/>
<use x="320.797563" y="170.627393" stroke="#000000" stroke-width=".8" xlink:href="#e"/>
<path d="m411.12 170.63v-141.83" clip-path="url(#i)" fill="none" stroke="#b0b0b0" stroke-linecap="square" stroke-width=".8"/>
<use x="411.121342" y="170.627393" stroke="#000000" stroke-width=".8" xlink:href="#e"/>
<defs>
<path id="c" d="m0 0h-3.5" stroke="#000" stroke-width=".8"/>
</defs>
<use x="40.603125" y="154.105211" stroke="#000000" stroke-width=".8" xlink:href="#c"/>
<defs>
<path id="f" d="m12.406 8.2969h16.109v55.625l-17.531-3.5156v8.9844l17.438 3.5156h9.8594v-64.609h16.109v-8.2969h-41.984z"/>
<path id="g" d="m31.781 66.406q-7.6094 0-11.453-7.5-3.8281-7.4844-3.8281-22.531 0-14.984 3.8281-22.484 3.8438-7.5 11.453-7.5 7.6719 0 11.5 7.5 3.8438 7.5 3.8438 22.484 0 15.047-3.8438 22.531-3.8281 7.5-11.5 7.5zm0 7.8125q12.266 0 18.734-9.7031 6.4688-9.6875 6.4688-28.141 0-18.406-6.4688-28.109-6.4688-9.6875-18.734-9.6875-12.25 0-18.719 9.6875-6.4688 9.7031-6.4688 28.109 0 18.453 6.4688 28.141 6.4688 9.7031 18.719 9.7031z"/>
</defs>
<g transform="translate(16.003 157.9) scale(.1 -.1)">
<use transform="translate(0 .68438)" xlink:href="#f"/>
<use transform="translate(63.623 .68438)" xlink:href="#g"/>
<use transform="translate(128.2 38.966) scale(.7)" xlink:href="#f"/>
</g>
<use x="40.603125" y="130.467312" stroke="#000000" stroke-width=".8" xlink:href="#c"/>
<defs>
<path id="p" d="m19.188 8.2969h34.422v-8.2969h-46.281v8.2969q5.6094 5.8125 15.297 15.594 9.7031 9.7969 12.188 12.641 4.7344 5.3125 6.6094 9 1.8906 3.6875 1.8906 7.25 0 5.8125-4.0781 9.4688-4.0781 3.6719-10.625 3.6719-4.6406 0-9.7969-1.6094-5.1406-1.6094-11-4.8906v9.9688q5.9531 2.3906 11.125 3.6094 5.1875 1.2188 9.4844 1.2188 11.328 0 18.062-5.6719 6.7344-5.6562 6.7344-15.125 0-4.5-1.6875-8.5312-1.6719-4.0156-6.125-9.4844-1.2188-1.4219-7.7656-8.1875-6.5312-6.7656-18.453-18.922z"/>
</defs>
<g transform="translate(16.003 134.27) scale(.1 -.1)">
<use transform="translate(0 .76562)" xlink:href="#f"/>
<use transform="translate(63.623 .76562)" xlink:href="#g"/>
<use transform="translate(128.2 39.047) scale(.7)" xlink:href="#p"/>
</g>
<use x="40.603125" y="106.829413" stroke="#000000" stroke-width=".8" xlink:href="#c"/>
<defs>
<path id="u" d="m40.578 39.312q7.0781-1.5156 11.047-6.3125 3.9844-4.7812 3.9844-11.812 0-10.781-7.4219-16.703-7.4219-5.9062-21.094-5.9062-4.5781 0-9.4375 0.90625t-10.031 2.7188v9.5156q4.0938-2.3906 8.9688-3.6094 4.8906-1.2188 10.219-1.2188 9.2656 0 14.125 3.6562t4.8594 10.641q0 6.4531-4.5156 10.078-4.5156 3.6406-12.562 3.6406h-8.5v8.1094h8.8906q7.2656 0 11.125 2.9062t3.8594 8.375q0 5.6094-3.9844 8.6094-3.9688 3.0156-11.391 3.0156-4.0625 0-8.7031-0.89062-4.6406-0.875-10.203-2.7188v8.7812q5.625 1.5625 10.531 2.3438t9.25 0.78125q11.234 0 17.766-5.1094 6.5469-5.0938 6.5469-13.781 0-6.0625-3.4688-10.234t-9.8594-5.7812z"/>
</defs>
<g transform="translate(16.003 110.63) scale(.1 -.1)">
<use transform="translate(0 .76562)" xlink:href="#f"/>
<use transform="translate(63.623 .76562)" xlink:href="#g"/>
<use transform="translate(128.2 39.047) scale(.7)" xlink:href="#u"/>
</g>
<use x="40.603125" y="83.191514" stroke="#000000" stroke-width=".8" xlink:href="#c"/>
<defs>
<path id="m" d="m37.797 64.312-24.906-38.922h24.906zm-2.5938 8.5938h12.406v-47.516h10.406v-8.2031h-10.406v-17.188h-9.8125v17.188h-32.906v9.5156z"/>
</defs>
<g transform="translate(16.003 86.991) scale(.1 -.1)">
<use transform="translate(0 .68438)" xlink:href="#f"/>
<use transform="translate(63.623 .68438)" xlink:href="#g"/>
<use transform="translate(128.2 38.966) scale(.7)" xlink:href="#m"/>
</g>
<use x="40.603125" y="59.553615" stroke="#000000" stroke-width=".8" xlink:href="#c"/>
<defs>
<path id="ae" d="m10.797 72.906h38.719v-8.3125h-29.688v-17.859q2.1406 0.73438 4.2812 1.0938 2.1562 0.35938 4.3125 0.35938 12.203 0 19.328-6.6875 7.1406-6.6875 7.1406-18.109 0-11.766-7.3281-18.297-7.3281-6.5156-20.656-6.5156-4.5938 0-9.3594 0.78125-4.75 0.78125-9.8281 2.3438v9.9219q4.3906-2.3906 9.0781-3.5625t9.9062-1.1719q8.4531 0 13.375 4.4375 4.9375 4.4375 4.9375 12.062 0 7.6094-4.9375 12.047-4.9219 4.4531-13.375 4.4531-3.9531 0-7.8906-0.875-3.9219-0.875-8.0156-2.7344z"/>
</defs>
<g transform="translate(16.003 63.353) scale(.1 -.1)">
<use transform="translate(0 .68438)" xlink:href="#f"/>
<use transform="translate(63.623 .68438)" xlink:href="#g"/>
<use transform="translate(128.2 38.966) scale(.7)" xlink:href="#ae"/>
</g>
<use x="40.603125" y="35.915717" stroke="#000000" stroke-width=".8" xlink:href="#c"/>
<defs>
<path id="t" d="m33.016 40.375q-6.6406 0-10.531-4.5469-3.875-4.5312-3.875-12.438 0-7.8594 3.875-12.438 3.8906-4.5625 10.531-4.5625t10.516 4.5625q3.875 4.5781 3.875 12.438 0 7.9062-3.875 12.438-3.875 4.5469-10.516 4.5469zm19.578 30.922v-8.9844q-3.7188 1.75-7.5 2.6719-3.7812 0.9375-7.5 0.9375-9.7656 0-14.922-6.5938-5.1406-6.5938-5.875-19.922 2.875 4.25 7.2188 6.5156 4.3594 2.2656 9.5781 2.2656 10.984 0 17.359-6.6719 6.375-6.6562 6.375-18.125 0-11.234-6.6406-18.031-6.6406-6.7812-17.672-6.7812-12.656 0-19.344 9.6875-6.6875 9.7031-6.6875 28.109 0 17.281 8.2031 27.562t22.016 10.281q3.7188 0 7.5-0.73438t7.8906-2.1875z"/>
</defs>
<g transform="translate(16.003 39.715) scale(.1 -.1)">
<use transform="translate(0 .76562)" xlink:href="#f"/>
<use transform="translate(63.623 .76562)" xlink:href="#g"/>
<use transform="translate(128.2 39.047) scale(.7)" xlink:href="#t"/>
</g>
<defs>
<path id="a" d="m0 0h-2" stroke="#000" stroke-width=".6"/>
</defs>
<use x="40.603125" y="170.627393" stroke="#000000" stroke-width=".6" xlink:href="#a"/>
<use x="40.603125" y="166.464966" stroke="#000000" stroke-width=".6" xlink:href="#a"/>
<use x="40.603125" y="163.511677" stroke="#000000" stroke-width=".6" xlink:href="#a"/>
<use x="40.603125" y="161.220927" stroke="#000000" stroke-width=".6" xlink:href="#a"/>
<use x="40.603125" y="159.349249" stroke="#000000" stroke-width=".6" xlink:href="#a"/>
<use x="40.603125" y="157.766768" stroke="#000000" stroke-width=".6" xlink:href="#a"/>
<use x="40.603125" y="156.39596" stroke="#000000" stroke-width=".6" xlink:href="#a"/>
<use x="40.603125" y="155.186822" stroke="#000000" stroke-width=".6" xlink:href="#a"/>
<use x="40.603125" y="146.989494" stroke="#000000" stroke-width=".6" xlink:href="#a"/>
<use x="40.603125" y="142.827067" stroke="#000000" stroke-width=".6" xlink:href="#a"/>
<use x="40.603125" y="139.873778" stroke="#000000" stroke-width=".6" xlink:href="#a"/>
<use x="40.603125" y="137.583029" stroke="#000000" stroke-width=".6" xlink:href="#a"/>
<use x="40.603125" y="135.71135" stroke="#000000" stroke-width=".6" xlink:href="#a"/>
<use x="40.603125" y="134.128869" stroke="#000000" stroke-width=".6" xlink:href="#a"/>
<use x="40.603125" y="132.758061" stroke="#000000" stroke-width=".6" xlink:href="#a"/>
<use x="40.603125" y="131.548923" stroke="#000000" stroke-width=".6" xlink:href="#a"/>
<use x="40.603125" y="123.351595" stroke="#000000" stroke-width=".6" xlink:href="#a"/>
<use x="40.603125" y="119.189168" stroke="#000000" stroke-width=".6" xlink:href="#a"/>
<use x="40.603125" y="116.235879" stroke="#000000" stroke-width=".6" xlink:href="#a"/>
<use x="40.603125" y="113.94513" stroke="#000000" stroke-width=".6" xlink:href="#a"/>
<use x="40.603125" y="112.073451" stroke="#000000" stroke-width=".6" xlink:href="#a"/>
<use x="40.603125" y="110.49097" stroke="#000000" stroke-width=".6" xlink:href="#a"/>
<use x="40.603125" y="109.120162" stroke="#000000" stroke-width=".6" xlink:href="#a"/>
<use x="40.603125" y="107.911024" stroke="#000000" stroke-width=".6" xlink:href="#a"/>
<use x="40.603125" y="99.713697" stroke="#000000" stroke-width=".6" xlink:href="#a"/>
<use x="40.603125" y="95.551269" stroke="#000000" stroke-width=".6" xlink:href="#a"/>
<use x="40.603125" y="92.59798" stroke="#000000" stroke-width=".6" xlink:href="#a"/>
<use x="40.603125" y="90.307231" stroke="#000000" stroke-width=".6" xlink:href="#a"/>
<use x="40.603125" y="88.435553" stroke="#000000" stroke-width=".6" xlink:href="#a"/>
<use x="40.603125" y="86.853071" stroke="#000000" stroke-width=".6" xlink:href="#a"/>
<use x="40.603125" y="85.482263" stroke="#000000" stroke-width=".6" xlink:href="#a"/>
<use x="40.603125" y="84.273125" stroke="#000000" stroke-width=".6" xlink:href="#a"/>
<use x="40.603125" y="76.075798" stroke="#000000" stroke-width=".6" xlink:href="#a"/>
<use x="40.603125" y="71.91337" stroke="#000000" stroke-width=".6" xlink:href="#a"/>
<use x="40.603125" y="68.960081" stroke="#000000" stroke-width=".6" xlink:href="#a"/>
<use x="40.603125" y="66.669332" stroke="#000000" stroke-width=".6" xlink:href="#a"/>
<use x="40.603125" y="64.797654" stroke="#000000" stroke-width=".6" xlink:href="#a"/>
<use x="40.603125" y="63.215172" stroke="#000000" stroke-width=".6" xlink:href="#a"/>
<use x="40.603125" y="61.844365" stroke="#000000" stroke-width=".6" xlink:href="#a"/>
<use x="40.603125" y="60.635226" stroke="#000000" stroke-width=".6" xlink:href="#a"/>
<use x="40.603125" y="52.437899" stroke="#000000" stroke-width=".6" xlink:href="#a"/>
<use x="40.603125" y="48.275471" stroke="#000000" stroke-width=".6" xlink:href="#a"/>
<use x="40.603125" y="45.322182" stroke="#000000" stroke-width=".6" xlink:href="#a"/>
<use x="40.603125" y="43.031433" stroke="#000000" stroke-width=".6" xlink:href="#a"/>
<use x="40.603125" y="41.159755" stroke="#000000" stroke-width=".6" xlink:href="#a"/>
<use x="40.603125" y="39.577273" stroke="#000000" stroke-width=".6" xlink:href="#a"/>
<use x="40.603125" y="38.206466" stroke="#000000" stroke-width=".6" xlink:href="#a"/>
<use x="40.603125" y="36.997328" stroke="#000000" stroke-width=".6" xlink:href="#a"/>
<use x="40.603125" y="28.8" stroke="#000000" stroke-width=".6" xlink:href="#a"/>
<path d="m60.877 165.09 4.4301-2.0129 4.4301-1.965 3.4975-1.2552 3.7306-1.1012 10.026-2.8108 3.2643-0.69026 3.7306-0.55022 3.7306-0.3289 3.9638-0.12278 3.4975 0.10765 3.4975 0.32822 3.2643 0.52432 3.0311 0.7048 2.798 0.87586 3.4975 1.1538 9.3266 2.4146 3.9638 0.86724 4.4301 0.716 3.4975 0.48393 1.6322-0.15158 13.99-1.6655 3.7306-1.2068 11.425-3.6694 3.0311-0.6121 3.2643-0.41364 3.2643-0.18891 3.2643 0.021441 3.2643 0.23084 4.6633 0.60004 6.2954 1.0052 3.4975 0.79852 3.2643 0.97809 2.798 1.0598 2.5648 1.2004 2.3316 1.3393 2.0985 1.4742 2.3316 1.6285 7.4613 4.4297 1.399 0.63512 1.399 0.38299 1.1658 0.093778 27.98-0.32486 2.0985-0.34355 2.3316-0.63888 2.798-1.0268 3.7306-1.3825 3.9638-1.2334 4.4301-1.1408 4.6633-0.97335 4.8964-0.79922 2.798-0.4988 2.3316-0.66994 0.93266-0.53141 5.5959-3.3955 2.5648-1.1627 3.0311-1.1149 1.399-0.50593 3.7306-2.166 2.3316-1.0666 2.5648-0.93713 2.798-0.79463 3.7306-0.80325 4.197-0.68443 4.4301-0.504 10.259-0.79071 3.0311 0.0154 3.0311 0.23074 3.0311 0.46197 6.9949 1.2482 2.3316-0.21696 4.8965-0.41946 3.0311-0.020931 0.69949-0.053469 4.197-0.6737 7.4613-1.7174 9.0934-1.2614 5.5959-0.48531 9.5597-0.35235 3.7306 0.13478 3.2643 0.34011 10.259 1.3459 4.197 0.47572 3.0311 0.56471 3.0311 0.79701 1.8653 0.45739 2.5648 0.2854 3.2643 0.49641 3.0311 0.66936 3.0311 0.68818 4.8964 0.81503 6.9949 1.4875 2.798 0.89048 2.5648 1.0307 4.6633 2.0942v0" clip-path="url(#i)" fill="none" stroke="#dc143c" stroke-linecap="square" stroke-width="1.5"/>
<path d="m40.603 170.63v-141.83" fill="none" stroke="#000" stroke-linecap="square" stroke-width=".8"/>
<path d="m486.62 170.63v-141.83" fill="none" stroke="#000" stroke-linecap="square" stroke-width=".8"/>
<path d="m40.603 170.63h446.02" fill="none" stroke="#000" stroke-linecap="square" stroke-width=".8"/>
<path d="m40.603 28.8h446.02" fill="none" stroke="#000" stroke-linecap="square" stroke-width=".8"/>
<path d="m324.59 66.156h155.04q2 0 2-2v-28.356q0-2-2-2h-155.04q-2 0-2 2v28.356q0 2 2 2z" fill="#fff" opacity=".8" stroke="#ccc"/>
<path d="m326.59 41.898h20" fill="none" stroke="#dc143c" stroke-linecap="square" stroke-width="1.5"/>
<defs>
<path id="h" d="m41.109 46.297q-1.5156 0.875-3.2969 1.2812-1.7812 0.42188-3.9219 0.42188-7.625 0-11.703-4.9531t-4.0781-14.234v-28.812h-9.0312v54.688h9.0312v-8.5q2.8438 4.9844 7.375 7.3906 4.5469 2.4219 11.047 2.4219 0.92188 0 2.0469-0.125 1.125-0.10938 2.4844-0.35938z"/>
<path id="k" d="m34.281 27.484q-10.891 0-15.094-2.4844t-4.2031-8.5q0-4.7812 3.1562-7.5938 3.1562-2.7969 8.5625-2.7969 7.4844 0 12 5.2969t4.5156 14.078v2zm17.922 3.7188v-31.203h-8.9844v8.2969q-3.0781-4.9688-7.6719-7.3438t-11.234-2.375q-8.3906 0-13.359 4.7188-4.9531 4.7188-4.9531 12.625 0 9.2188 6.1719 13.906 6.1875 4.6875 18.438 4.6875h12.609v0.89062q0 6.2031-4.0781 9.5938t-11.453 3.3906q-4.6875 0-9.1406-1.125-4.4375-1.125-8.5312-3.375v8.3125q4.9219 1.9062 9.5625 2.8438 4.6406 0.95312 9.0312 0.95312 11.875 0 17.734-6.1562 5.8594-6.1406 5.8594-18.641z"/>
<path id="y" d="m18.312 70.219v-15.531h18.5v-6.9844h-18.5v-29.688q0-6.6875 1.8281-8.5938t7.4531-1.9062h9.2188v-7.5156h-9.2188q-10.406 0-14.359 3.875-3.9531 3.8906-3.9531 14.141v29.688h-6.5938v6.9844h6.5938v15.531z"/>
<path id="d" d="m56.203 29.594v-4.3906h-41.312q0.59375-9.2812 5.5938-14.141t13.938-4.8594q5.1719 0 10.031 1.2656t9.6562 3.8125v-8.5q-4.8438-2.0469-9.9219-3.125t-10.297-1.0781q-13.094 0-20.734 7.6094-7.6406 7.625-7.6406 20.625 0 13.422 7.25 21.297 7.25 7.8906 19.562 7.8906 11.031 0 17.453-7.1094 6.4219-7.0938 6.4219-19.297zm-8.9844 2.6406q-0.09375 7.3594-4.125 11.75-4.0312 4.4062-10.672 4.4062-7.5156 0-12.031-4.25t-5.2031-11.969z"/>
<path id="l" d="m30.609 48.391q-7.2188 0-11.422-5.6406t-4.2031-15.453 4.1719-15.453q4.1875-5.6406 11.453-5.6406 7.1875 0 11.375 5.6562 4.2031 5.6719 4.2031 15.438 0 9.7188-4.2031 15.406-4.1875 5.6875-11.375 5.6875zm0 7.6094q11.719 0 18.406-7.625 6.7031-7.6094 6.7031-21.078 0-13.422-6.7031-21.078-6.6875-7.6406-18.406-7.6406-11.766 0-18.438 7.6406-6.6562 7.6562-6.6562 21.078 0 13.469 6.6562 21.078 6.6719 7.625 18.438 7.625z"/>
<path id="aa" d="m37.109 75.984v-7.4844h-8.5938q-4.8281 0-6.7188-1.9531-1.875-1.9531-1.875-7.0312v-4.8281h14.797v-6.9844h-14.797v-47.703h-9.0312v47.703h-8.5938v6.9844h8.5938v3.8125q0 9.125 4.25 13.297 4.25 4.1875 13.469 4.1875z"/>
<path id="n" d="m9.4219 54.688h8.9844v-54.688h-8.9844zm0 21.297h8.9844v-11.391h-8.9844z"/>
<path id="r" d="m9.4219 75.984h8.9844v-75.984h-8.9844z"/>
<path id="x" d="m8.5 21.578v33.109h8.9844v-32.766q0-7.7656 3.0156-11.656 3.0312-3.875 9.0938-3.875 7.2656 0 11.484 4.6406 4.2344 4.6406 4.2344 12.656v31h8.9844v-54.688h-8.9844v8.4062q-3.2656-4.9844-7.5938-7.4062-4.3125-2.4219-10.031-2.4219-9.4219 0-14.312 5.8594-4.875 5.8594-4.875 17.141zm22.609 34.422z"/>
<path id="j" d="m44.281 53.078v-8.5q-3.7969 1.9531-7.9062 2.9219-4.0938 0.98438-8.5 0.98438-6.6875 0-10.031-2.0469t-3.3438-6.1562q0-3.125 2.3906-4.9062t9.625-3.3906l3.0781-0.6875q9.5625-2.0469 13.594-5.7812t4.0312-10.422q0-7.625-6.0312-12.078-6.0312-4.4375-16.578-4.4375-4.3906 0-9.1562 0.85938t-10.031 2.5625v9.2812q4.9844-2.5938 9.8125-3.8906 4.8281-1.2812 9.5781-1.2812 6.3438 0 9.75 2.1719 3.4219 2.1719 3.4219 6.125 0 3.6562-2.4688 5.6094-2.4531 1.9531-10.812 3.7656l-3.125 0.73438q-8.3438 1.75-12.062 5.3906-3.7031 3.6406-3.7031 9.9844 0 7.7188 5.4688 11.906 5.4688 4.2031 15.531 4.2031 4.9688 0 9.3594-0.73438 4.4062-0.71875 8.1094-2.1875z"/>
<path id="w" d="m31 75.875q-6.5312-11.219-9.7188-22.219-3.1719-10.984-3.1719-22.266 0-11.266 3.2031-22.328t9.6875-22.25h-7.8125q-7.3125 11.484-10.953 22.562t-3.6406 22.016q0 10.891 3.6094 21.922 3.625 11.047 10.984 22.562z"/>
<path id="o" d="m45.406 46.391v29.594h8.9844v-75.984h-8.9844v8.2031q-2.8281-4.875-7.1562-7.25-4.3125-2.375-10.375-2.375-9.9062 0-16.141 7.9062-6.2188 7.9219-6.2188 20.812t6.2188 20.797q6.2344 7.9062 16.141 7.9062 6.0625 0 10.375-2.375 4.3281-2.3594 7.1562-7.2344zm-30.609-19.094q0-9.9062 4.0781-15.547t11.203-5.6406 11.219 5.6406q4.1094 5.6406 4.1094 15.547t-4.1094 15.547q-4.0938 5.6406-11.219 5.6406t-11.203-5.6406-4.0781-15.547z"/>
<path id="z" d="m9.0781 75.984h9.0312v-44.875l26.812 23.578h11.469l-29-25.578 30.234-29.109h-11.719l-27.797 26.703v-26.703h-9.0312z"/>
<path id="af" d="m25.391 72.906h8.2969l-25.391-82.188h-8.2969z"/>
<path id="q" d="m32.172-5.0781q-3.7969-9.7656-7.4219-12.734-3.6094-2.9844-9.6562-2.9844h-7.1875v7.5156h5.2812q3.7031 0 5.75 1.7656 2.0625 1.75 4.5469 8.2969l1.6094 4.0938-22.109 53.812h9.5156l17.094-42.766 17.094 42.766h9.5156z"/>
<path id="v" d="m8.0156 75.875h7.8125q7.3125-11.516 10.953-22.562 3.6406-11.031 3.6406-21.922 0-10.938-3.6406-22.016t-10.953-22.562h-7.8125q6.4844 11.188 9.6875 22.25t3.2031 22.328q0 11.281-3.2031 22.266-3.2031 11-9.6875 22.219z"/>
</defs>
<g transform="translate(354.59 45.398) scale(.1 -.1)">
<use xlink:href="#h"/>
<use x="41.113281" xlink:href="#k"/>
<use x="102.392578" xlink:href="#y"/>
<use x="141.601562" xlink:href="#d"/>
<use x="203.125" xlink:href="#DejaVuSans-20"/>
<use x="234.912109" xlink:href="#l"/>
<use x="296.09375" xlink:href="#aa"/>
<use x="331.298828" xlink:href="#DejaVuSans-20"/>
<use x="363.085938" xlink:href="#aa"/>
<use x="398.291016" xlink:href="#k"/>
<use x="459.570312" xlink:href="#n"/>
<use x="487.353516" xlink:href="#r"/>
<use x="515.136719" xlink:href="#x"/>
<use x="578.515625" xlink:href="#h"/>
<use x="619.597656" xlink:href="#d"/>
<use x="681.121094" xlink:href="#j"/>
<use x="733.220703" xlink:href="#DejaVuSans-20"/>
<use x="765.007812" xlink:href="#w"/>
<use x="804.021484" xlink:href="#o"/>
<use x="867.498047" xlink:href="#n"/>
<use x="895.28125" xlink:href="#j"/>
<use x="947.380859" xlink:href="#z"/>
<use x="1005.291016" xlink:href="#j"/>
<use x="1057.390625" xlink:href="#af"/>
<use x="1091.082031" xlink:href="#q"/>
<use x="1150.261719" xlink:href="#h"/>
<use x="1191.375" xlink:href="#v"/>
</g>
<path d="m326.59 60.077h20v-7h-20z" fill="#0766aa" fill-opacity=".2" stroke="#0766aa" stroke-opacity=".2"/>
<defs>
<path id="am" d="m48.688 27.297q0 9.9062-4.0781 15.547t-11.203 5.6406q-7.1406 0-11.219-5.6406t-4.0781-15.547 4.0781-15.547 11.219-5.6406q7.125 0 11.203 5.6406t4.0781 15.547zm-30.578 19.094q2.8438 4.875 7.1562 7.2344 4.3281 2.375 10.328 2.375 9.9688 0 16.188-7.9062 6.2344-7.9062 6.2344-20.797t-6.2344-20.812q-6.2188-7.9062-16.188-7.9062-6 0-10.328 2.375-4.3125 2.375-7.1562 7.25v-8.2031h-9.0312v75.984h9.0312z"/>
<path id="ai" d="m2.9844 54.688h9.5156l17.094-45.891 17.094 45.891h9.5156l-20.516-54.688h-12.203z"/>
</defs>
<g transform="translate(354.59 60.077) scale(.1 -.1)">
<use xlink:href="#o"/>
<use x="63.476562" xlink:href="#n"/>
<use x="91.259766" xlink:href="#j"/>
<use x="143.359375" xlink:href="#z"/>
<use x="201.269531" xlink:href="#j"/>
<use x="253.369141" xlink:href="#DejaVuSans-20"/>
<use x="285.15625" xlink:href="#l"/>
<use x="346.337891" xlink:href="#am"/>
<use x="409.814453" xlink:href="#j"/>
<use x="461.914062" xlink:href="#d"/>
<use x="523.4375" xlink:href="#h"/>
<use x="564.550781" xlink:href="#ai"/>
<use x="623.730469" xlink:href="#d"/>
<use x="685.253906" xlink:href="#o"/>
</g>
<path d="m40.603 375.64h446.02v-189.1h-446.02z" fill="#fff"/>
<path d="m49.826 375.64v-189.1" clip-path="url(#b)" fill="none" stroke="#b0b0b0" stroke-linecap="square" stroke-width=".8"/>
<use x="49.826226" y="375.64" stroke="#000000" stroke-width=".8" xlink:href="#e"/>
<g transform="translate(46.645 390.24) scale(.1 -.1)">
<use xlink:href="#p"/>
</g>
<path d="m140.15 375.64v-189.1" clip-path="url(#b)" fill="none" stroke="#b0b0b0" stroke-linecap="square" stroke-width=".8"/>
<use x="140.150005" y="375.64" stroke="#000000" stroke-width=".8" xlink:href="#e"/>
<g transform="translate(136.97 390.24) scale(.1 -.1)">
<use xlink:href="#u"/>
</g>
<path d="m230.47 375.64v-189.1" clip-path="url(#b)" fill="none" stroke="#b0b0b0" stroke-linecap="square" stroke-width=".8"/>
<use x="230.473784" y="375.64" stroke="#000000" stroke-width=".8" xlink:href="#e"/>
<g transform="translate(227.29 390.24) scale(.1 -.1)">
<use xlink:href="#m"/>
</g>
<path d="m320.8 375.64v-189.1" clip-path="url(#b)" fill="none" stroke="#b0b0b0" stroke-linecap="square" stroke-width=".8"/>
<use x="320.797563" y="375.64" stroke="#000000" stroke-width=".8" xlink:href="#e"/>
<g transform="translate(317.62 390.24) scale(.1 -.1)">
<use xlink:href="#ae"/>
</g>
<path d="m411.12 375.64v-189.1" clip-path="url(#b)" fill="none" stroke="#b0b0b0" stroke-linecap="square" stroke-width=".8"/>
<use x="411.121342" y="375.64" stroke="#000000" stroke-width=".8" xlink:href="#e"/>
<g transform="translate(407.94 390.24) scale(.1 -.1)">
<use xlink:href="#t"/>
</g>
<defs>
<path id="ac" d="m34.188 63.188-13.391-36.281h26.812zm-5.5781 9.7188h11.188l27.781-72.906h-10.25l-6.6406 18.703h-32.859l-6.6406-18.703h-10.406z"/>
<path id="al" d="m45.406 27.984q0 9.7656-4.0312 15.125-4.0156 5.375-11.297 5.375-7.2188 0-11.25-5.375-4.0312-5.3594-4.0312-15.125 0-9.7188 4.0312-15.094t11.25-5.375q7.2812 0 11.297 5.375 4.0312 5.375 4.0312 15.094zm8.9844-21.203q0-13.953-6.2031-20.766-6.1875-6.8125-18.984-6.8125-4.7344 0-8.9375 0.70312t-8.1562 2.1719v8.7344q3.9531-2.1406 7.8125-3.1562 3.8594-1.0312 7.8594-1.0312 8.8438 0 13.234 4.6094t4.3906 13.938v4.4531q-2.7812-4.8438-7.125-7.2344t-10.406-2.3906q-10.047 0-16.203 7.6562-6.1562 7.6719-6.1562 20.328 0 12.688 6.1562 20.344 6.1562 7.6719 16.203 7.6719 6.0625 0 10.406-2.3906t7.125-7.2188v8.2969h8.9844z"/>
<path id="aj" d="m18.109 8.2031v-29h-9.0312v75.484h9.0312v-8.2969q2.8438 4.875 7.1562 7.2344 4.3281 2.375 10.328 2.375 9.9688 0 16.188-7.9062 6.2344-7.9062 6.2344-20.797t-6.2344-20.812q-6.2188-7.9062-16.188-7.9062-6 0-10.328 2.375-4.3125 2.375-7.1562 7.25zm30.578 19.094q0 9.9062-4.0781 15.547t-11.203 5.6406q-7.1406 0-11.219-5.6406t-4.0781-15.547 4.0781-15.547 11.219-5.6406q7.125 0 11.203 5.6406t4.0781 15.547z"/>
<path id="ah" d="m4.2031 54.688h8.9844l11.234-42.672 11.172 42.672h10.594l11.234-42.672 11.188 42.672h8.9844l-14.312-54.688h-10.594l-11.766 44.828-11.812-44.828h-10.609z"/>
<path id="au" d="m4.8906 31.391h26.312v-8h-26.312z"/>
<path id="ak" d="m54.891 33.016v-33.016h-8.9844v32.719q0 7.7656-3.0312 11.609-3.0312 3.8594-9.0781 3.8594-7.2812 0-11.484-4.6406-4.2031-4.625-4.2031-12.641v-30.906h-9.0312v54.688h9.0312v-8.5q3.2344 4.9375 7.5938 7.375 4.375 2.4375 10.094 2.4375 9.4219 0 14.25-5.8281 4.8438-5.8281 4.8438-17.156z"/>
</defs>
<g transform="translate(209.62 403.92) scale(.1 -.1)">
<use xlink:href="#ac"/>
<use x="68.408203" xlink:href="#al"/>
<use x="131.884766" xlink:href="#d"/>
<use x="193.408203" xlink:href="#DejaVuSans-20"/>
<use x="225.195312" xlink:href="#w"/>
<use x="264.208984" xlink:href="#aj"/>
<use x="327.685547" xlink:href="#l"/>
<use x="388.867188" xlink:href="#ah"/>
<use x="470.654297" xlink:href="#d"/>
<use x="532.177734" xlink:href="#h"/>
<use x="573.197266" xlink:href="#au"/>
<use x="609.296875" xlink:href="#l"/>
<use x="670.478516" xlink:href="#ak"/>
<use x="733.857422" xlink:href="#DejaVuSans-20"/>
<use x="765.644531" xlink:href="#q"/>
<use x="824.824219" xlink:href="#d"/>
<use x="886.347656" xlink:href="#k"/>
<use x="947.626953" xlink:href="#h"/>
<use x="988.740234" xlink:href="#j"/>
<use x="1040.839844" xlink:href="#v"/>
</g>
<path d="m40.603 375.64h446.02" clip-path="url(#b)" fill="none" stroke="#b0b0b0" stroke-linecap="square" stroke-width=".8"/>
<use x="40.603125" y="375.64" stroke="#000000" stroke-width=".8" xlink:href="#c"/>
<g transform="translate(27.241 379.44) scale(.1 -.1)">
<use xlink:href="#g"/>
</g>
<path d="m40.603 344.12h446.02" clip-path="url(#b)" fill="none" stroke="#b0b0b0" stroke-linecap="square" stroke-width=".8"/>
<use x="40.603125" y="344.122802" stroke="#000000" stroke-width=".8" xlink:href="#c"/>
<defs>
<path id="ad" d="m31.781 34.625q-7.0312 0-11.062-3.7656-4.0156-3.7656-4.0156-10.344 0-6.5938 4.0156-10.359 4.0312-3.7656 11.062-3.7656t11.078 3.7812q4.0625 3.7969 4.0625 10.344 0 6.5781-4.0312 10.344-4.0156 3.7656-11.109 3.7656zm-9.8594 4.1875q-6.3438 1.5625-9.8906 5.9062-3.5312 4.3594-3.5312 10.609 0 8.7344 6.2188 13.812 6.2344 5.0781 17.062 5.0781 10.891 0 17.094-5.0781t6.2031-13.812q0-6.25-3.5469-10.609-3.5312-4.3438-9.8281-5.9062 7.125-1.6562 11.094-6.5 3.9844-4.8281 3.9844-11.797 0-10.609-6.4688-16.281-6.4688-5.6562-18.531-5.6562-12.047 0-18.531 5.6562-6.4688 5.6719-6.4688 16.281 0 6.9688 4 11.797 4.0156 4.8438 11.141 6.5zm-3.6094 15.578q0-5.6562 3.5312-8.8281 3.5469-3.1719 9.9375-3.1719 6.3594 0 9.9375 3.1719 3.5938 3.1719 3.5938 8.8281 0 5.6719-3.5938 8.8438-3.5781 3.1719-9.9375 3.1719-6.3906 0-9.9375-3.1719-3.5312-3.1719-3.5312-8.8438z"/>
</defs>
<g transform="translate(27.241 347.92) scale(.1 -.1)">
<use xlink:href="#ad"/>
</g>
<path d="m40.603 312.61h446.02" clip-path="url(#b)" fill="none" stroke="#b0b0b0" stroke-linecap="square" stroke-width=".8"/>
<use x="40.603125" y="312.605603" stroke="#000000" stroke-width=".8" xlink:href="#c"/>
<g transform="translate(20.878 316.4) scale(.1 -.1)">
<use xlink:href="#f"/>
<use x="63.623047" xlink:href="#t"/>
</g>
<path d="m40.603 281.09h446.02" clip-path="url(#b)" fill="none" stroke="#b0b0b0" stroke-linecap="square" stroke-width=".8"/>
<use x="40.603125" y="281.088405" stroke="#000000" stroke-width=".8" xlink:href="#c"/>
<g transform="translate(20.878 284.89) scale(.1 -.1)">
<use xlink:href="#p"/>
<use x="63.623047" xlink:href="#m"/>
</g>
<path d="m40.603 249.57h446.02" clip-path="url(#b)" fill="none" stroke="#b0b0b0" stroke-linecap="square" stroke-width=".8"/>
<use x="40.603125" y="249.571206" stroke="#000000" stroke-width=".8" xlink:href="#c"/>
<g transform="translate(20.878 253.37) scale(.1 -.1)">
<use xlink:href="#u"/>
<use x="63.623047" xlink:href="#p"/>
</g>
<path d="m40.603 218.05h446.02" clip-path="url(#b)" fill="none" stroke="#b0b0b0" stroke-linecap="square" stroke-width=".8"/>
<use x="40.603125" y="218.054008" stroke="#000000" stroke-width=".8" xlink:href="#c"/>
<g transform="translate(20.878 221.85) scale(.1 -.1)">
<use xlink:href="#m"/>
<use x="63.623047" xlink:href="#g"/>
</g>
<path d="m40.603 186.54h446.02" clip-path="url(#b)" fill="none" stroke="#b0b0b0" stroke-linecap="square" stroke-width=".8"/>
<use x="40.603125" y="186.536809" stroke="#000000" stroke-width=".8" xlink:href="#c"/>
<g transform="translate(20.878 190.34) scale(.1 -.1)">
<use xlink:href="#m"/>
<use x="63.623047" xlink:href="#ad"/>
</g>
<defs>
<path id="aq" d="m9.8125 72.906h41.891v-8.3125h-32.031v-21.484h28.906v-8.2969h-28.906v-34.812h-9.8594z"/>
<path id="ao" d="m44.391 34.188q3.1719-1.0781 6.1719-4.5938t6.0312-9.6719l10.016-19.922h-10.609l-9.3125 18.703q-3.625 7.3281-7.0156 9.7188t-9.25 2.3906h-10.75v-30.812h-9.8594v72.906h22.266q12.5 0 18.656-5.2344 6.1562-5.2188 6.1562-15.766 0-6.8906-3.2031-11.438-3.2031-4.5312-9.2969-6.2812zm-24.719 30.609v-25.875h12.406q7.125 0 10.766 3.2969t3.6406 9.6875-3.6406 9.6406-10.766 3.25z"/>
<path id="av" d="m72.703 32.078q-4.25 0-6.6719-3.6094-2.4062-3.6094-2.4062-10.062 0-6.3438 2.4062-9.9844 2.4219-3.6406 6.6719-3.6406 4.1562 0 6.5625 3.6406 2.4219 3.6406 2.4219 9.9844 0 6.4062-2.4219 10.031-2.4062 3.6406-6.5625 3.6406zm0 6.2031q7.7188 0 12.25-5.375 4.5469-5.3594 4.5469-14.5 0-9.125-4.5625-14.484-4.5625-5.3438-12.234-5.3438-7.8125 0-12.359 5.3438-4.5312 5.3594-4.5312 14.484 0 9.1875 4.5625 14.531t12.328 5.3438zm-50.391 29.734q-4.2031 0-6.625-3.6406-2.4062-3.625-2.4062-9.9844 0-6.4375 2.3906-10.062 2.3906-3.6094 6.6406-3.6094t6.6562 3.6094q2.4219 3.625 2.4219 10.062 0 6.2969-2.4375 9.9531-2.4375 3.6719-6.6406 3.6719zm44.094 6.2031h7.8125l-45.609-75.641h-7.8125zm-44.094 0q7.7188 0 12.297-5.3438 4.5938-5.3438 4.5938-14.484 0-9.2188-4.5625-14.547t-12.328-5.3281-12.281 5.3438q-4.5156 5.3594-4.5156 14.531 0 9.0938 4.5312 14.453 4.5469 5.375 12.266 5.375z"/>
</defs>
<g transform="translate(14.798 334.34) rotate(-90) scale(.1 -.1)">
<use xlink:href="#aq"/>
<use x="57.378906" xlink:href="#k"/>
<use x="118.658203" xlink:href="#n"/>
<use x="146.441406" xlink:href="#r"/>
<use x="174.224609" xlink:href="#x"/>
<use x="237.603516" xlink:href="#h"/>
<use x="278.685547" xlink:href="#d"/>
<use x="340.208984" xlink:href="#DejaVuSans-20"/>
<use x="371.996094" xlink:href="#ao"/>
<use x="441.447266" xlink:href="#k"/>
<use x="502.726562" xlink:href="#y"/>
<use x="541.935547" xlink:href="#d"/>
<use x="603.458984" xlink:href="#DejaVuSans-20"/>
<use x="635.246094" xlink:href="#w"/>
<use x="674.259766" xlink:href="#av"/>
<use x="769.279297" xlink:href="#af"/>
<use x="802.970703" xlink:href="#q"/>
<use x="862.150391" xlink:href="#d"/>
<use x="923.673828" xlink:href="#k"/>
<use x="984.953125" xlink:href="#h"/>
<use x="1026.066406" xlink:href="#v"/>
</g>
<path d="m60.877 322.83 1.1658-0.71259 1.399-1.0949 1.8653-1.7796 4.8965-4.989 1.1658-0.83959 0.93266-0.20836 1.6322-0.15795 2.3316 0.080277 2.5648 0.29878 2.3316 0.30125 0.69949-0.25753 3.4975-1.9747 1.399-0.39159 1.399-0.17124 1.399 0.042351 1.399 0.26079 1.8653 0.65173 2.0985 0.98174 2.0985 1.2577 2.3316 1.689 4.197 3.504 2.0985 2.0186 3.0311 3.2798 2.5648 3.0806 5.3628 6.9029 3.0311 4.0127 1.1658 1.0871 3.2643 2.2243 3.7306 2.2978 4.197 2.3484 1.399 0.4608 2.0985 0.46375 2.3316 0.26226 4.4301 0.38812 0.69949-0.26958 2.3316-1.4971 4.197-2.9215 3.7306-2.8612 3.0311-2.5277 0.93266-1.0777 0.93266-1.3963 1.399-2.6025 2.0985-4.4315 3.0311-7.0779 2.0985-5.4395 1.6322-4.8752 2.0985-7.0546 3.0311-10.071 1.6322-4.6815 1.399-3.0392 1.6322-3.07 1.399-2.1933 1.399-1.3404 0.93266-0.6405 1.399-0.56264 1.1658-0.23219 1.6322-0.083486 1.399 0.15347 1.1658 0.29578 0.93266 0.45006 0.93266 0.65887 2.3316 2.0553 3.0311 2.9513 3.2643 3.4749 1.8653 2.3886 1.8653 2.7518 1.8653 3.1306 1.8653 3.6014 1.8653 4.0814 2.0985 5.122 2.3316 6.337 2.3316 7.0083 3.4975 10.807 1.399 3.1699 2.5648 5.2486 1.8653 3.3513 1.8653 2.8766 1.1658 1.4558 0.93266 0.83197 0.93266 0.52295 0.69949 0.1825 1.1658-0.004166 5.1296-0.075692 5.8291 0.47477 3.2643 0.37828 1.6322 0.56433 4.8965 1.5706 6.0623 1.6361 1.399 0.11194 2.798 0.092635 3.7306 1.3454 4.197 2.1806 3.2643 1.8374 3.9638 1.7627 3.0311 1.0529 3.2643 0.92219 4.4301 1.0085 1.8653 0.26724 2.0985 0.086104 0.93266-0.1045 2.0985-0.70604 3.0311-1.087 2.798-0.76434 3.0311-0.59189 2.0985-0.37243 5.5959-2.7995 2.3316-0.78622 2.3316-0.5586 2.5648-0.38708 5.1296-0.48195 11.891-1.3157 2.5648-0.54092 2.3316-0.24922 2.3316-0.024061 2.0985 0.18892 2.0985 0.3926 2.3316 0.66738 5.1296 1.5831 1.6322 0.18896 2.798-0.57635 3.7306-0.70666 2.3316-0.19775 1.8653-0.14086 3.4975-1.1174 1.399-0.72427 4.6633-2.7699 2.5648-1.1889 4.4301-1.9243 2.798-1.4357 3.0311-1.2836 3.7306-1.4253 4.4301-1.4544 2.0985-0.63848 2.798-0.56746 2.5648-0.35206 1.8653-0.036602 2.0985 0.18598 6.2954 0.94188 2.0985 0.46858 7.2281-0.2347 1.8653 0.29964 1.8653 0.51809 2.0985 0.81484 1.1658 0.39423 0.93266 0.038273 1.1658-0.22781 2.0985-0.36479 2.0985-0.14298 1.8653 0.076584 1.8653 0.28006 1.6322 0.2871 1.1658-0.19845 10.026-2.1439 2.0985-0.15277 1.8653 0.087564 1.6322 0.2907 1.6322 0.51213 2.3316 0.72616 2.0985 0.62041v0" clip-path="url(#b)" fill="none" stroke="#d2691e" stroke-linecap="square" stroke-width="1.5"/>
<path d="m40.603 375.64v-189.1" fill="none" stroke="#000" stroke-linecap="square" stroke-width=".8"/>
<path d="m486.62 375.64v-189.1" fill="none" stroke="#000" stroke-linecap="square" stroke-width=".8"/>
<path d="m40.603 375.64h446.02" fill="none" stroke="#000" stroke-linecap="square" stroke-width=".8"/>
<path d="m40.603 186.54h446.02" fill="none" stroke="#000" stroke-linecap="square" stroke-width=".8"/>
<defs>
<path id="ap" d="m9.8125 72.906h14.703l18.594-49.609 18.703 49.609h14.703v-72.906h-9.625v64.016l-18.797-50h-9.9062l-18.797 50v-64.016h-9.5781z"/>
<path id="at" d="m11.719 12.406h10.297v-12.406h-10.297zm0 39.297h10.297v-12.391h-10.297z"/>
<path id="ab" d="m3.3281 72.906h9.9531l15.328-61.625 15.281 61.625h11.094l15.328-61.625 15.281 61.625h10.016l-18.312-72.906h-12.406l-15.375 63.281-15.531-63.281h-12.406z"/>
<path id="s" d="m19.672 64.797v-56.688h11.922q15.094 0 22.094 6.8281 7 6.8438 7 21.594 0 14.641-7 21.453t-22.094 6.8125zm-9.8594 8.1094h20.266q21.188 0 31.094-8.8125 9.9219-8.8125 9.9219-27.562 0-18.859-9.9688-27.703-9.9531-8.8281-31.047-8.8281h-20.266z"/>
<path id="as" d="m64.406 67.281v-10.391q-4.9844 4.6406-10.625 6.9219-5.6406 2.2969-11.984 2.2969-12.5 0-19.141-7.6406t-6.6406-22.094q0-14.406 6.6406-22.047t19.141-7.6406q6.3438 0 11.984 2.2969t10.625 6.9375v-10.312q-5.1719-3.5156-10.969-5.2812-5.7812-1.75-12.219-1.75-16.562 0-26.094 10.125-9.5156 10.141-9.5156 27.672 0 17.578 9.5156 27.703 9.5312 10.141 26.094 10.141 6.5312 0 12.312-1.7344 5.7969-1.7344 10.875-5.2031z"/>
<path id="ar" d="m9.8125 72.906h46.094v-8.3125h-36.234v-21.578h34.719v-8.2969h-34.719v-26.422h37.109v-8.2969h-46.969z"/>
<path id="an" d="m53.516 70.516v-9.625q-5.6094 2.6875-10.594 4-4.9844 1.3281-9.625 1.3281-8.0469 0-12.422-3.125t-4.375-8.8906q0-4.8438 2.9062-7.3125 2.9062-2.4531 11.016-3.9688l5.9531-1.2188q11.031-2.1094 16.281-7.4062t5.25-14.172q0-10.609-7.1094-16.078-7.0938-5.4688-20.812-5.4688-5.1719 0-11.016 1.1719-5.8281 1.1719-12.078 3.4688v10.156q6-3.3594 11.766-5.0781 5.7656-1.7031 11.328-1.7031 8.4375 0 13.031 3.3125 4.5938 3.3281 4.5938 9.4844 0 5.3594-3.2969 8.3906t-10.812 4.5469l-6.0156 1.1719q-11.031 2.1875-15.969 6.875-4.9219 4.6875-4.9219 13.047 0 9.6719 6.8125 15.234t18.766 5.5625q5.1406 0 10.453-0.9375 5.3281-0.92188 10.891-2.7656z"/>
</defs>
<g transform="translate(174.84 16.318) scale(.12 -.12)">
<use xlink:href="#ap"/>
<use x="86.279297" xlink:href="#l"/>
<use x="147.460938" xlink:href="#o"/>
<use x="210.9375" xlink:href="#d"/>
<use x="272.460938" xlink:href="#r"/>
<use x="300.244141" xlink:href="#at"/>
<use x="333.935547" xlink:href="#DejaVuSans-20"/>
<use x="365.722656" xlink:href="#ab"/>
<use x="464.599609" xlink:href="#s"/>
<use x="541.601562" xlink:href="#as"/>
<use x="611.425781" xlink:href="#DejaVuSans-20"/>
<use x="643.212891" xlink:href="#ab"/>
<use x="742.089844" xlink:href="#s"/>
<use x="819.091797" xlink:href="#f"/>
<use x="882.714844" xlink:href="#g"/>
<use x="946.337891" xlink:href="#ar"/>
<use x="1009.521484" xlink:href="#ac"/>
<use x="1077.929688" xlink:href="#s"/>
<use x="1154.931641" xlink:href="#an"/>
</g>
<defs>
<clipPath id="i">
<rect x="40.603" y="28.8" width="446.02" height="141.83"/>
</clipPath>
<clipPath id="b">
<rect x="40.603" y="186.54" width="446.02" height="189.1"/>
</clipPath>
</defs>
</svg>
