<?xml version="1.0" encoding="UTF-8"?>
<!DOCTYPE svg  PUBLIC '-//W3C//DTD SVG 1.1//EN'  'http://www.w3.org/Graphics/SVG/1.1/DTD/svg11.dtd'>
<svg width="497pt" height="413pt" version="1.1" viewBox="0 0 497 413" xmlns="http://www.w3.org/2000/svg" xmlns:xlink="http://www.w3.org/1999/xlink">
<defs>
<style type="text/css">*{stroke-linecap:butt;stroke-linejoin:round;}</style>
</defs>
<path d="m0 413.2h497.32v-413.2h-497.32z" fill="#fff"/>
<path d="m40.603 170.63h446.02v-141.83h-446.02z" fill="#fff"/>
<defs>
<path id="ag" d="m60.877-235.45v-35.443l0.23754-0.055192 0.23754-0.054382 0.23754-0.053583 0.23754-0.052795 0.23754-0.051959 0.23754-0.051204 0.23754-0.0508 0.23754-0.050285 0.23754-0.04977 0.23754-0.049111 0.23754-0.048581 0.23754-0.048518 0.23754-0.048456 0.23754-0.048392 0.23754-0.048329 0.23754-0.048265 0.23754-0.048202 0.23754-0.048138 0.23754-0.048075 0.23754-0.047772 0.23754-0.047463 0.23754-0.047158 0.23754-0.046855 0.23754-0.046556 0.23754-0.046259 0.23754-0.045966 0.23754-0.045676 0.23754-0.045387 0.23754-0.045102 0.23754-0.044773 0.23754-0.044423 0.23754-0.044077 0.23754-0.043733 0.23754-0.042548 0.23754-0.042308 0.23754-0.042073 0.23754-0.041838 0.23754-0.041605 0.23754-0.041376 0.23754-0.041148 0.23754-0.040922 0.23754-0.040699 0.23754-0.040476 0.23754-0.040257 0.23754-0.040039 0.23754-0.039822 0.23754-0.039609 0.23754-0.039397 0.23754-0.039186 0.23754-0.038978 0.23754-0.038772 0.23754-0.038566 0.23754-0.038363 0.23754-0.038162 0.23754-0.037962 0.23754-0.037761 0.23754-0.037559 0.23754-0.037359 0.23754-0.03716 0.23754-0.036965 0.23754-0.036769 0.23754-0.036575 0.23754-0.036384 0.23754-0.036194 0.23754-0.036005 0.23754-0.035818 0.23754-0.035632 0.23754-0.035449 0.23754-0.035265 0.23754-0.035085 0.23754-0.034905 0.23754-0.034726 0.23754-0.03455 0.23754-0.034374 0.23754-0.034244 0.23754-0.034145 0.23754-0.034047 0.23754-0.033139 0.23754-0.033007 0.23754-0.032876 0.23754-0.032746 0.23754-0.032617 0.23754-0.032488 0.23754-0.032361 0.23754-0.032235 0.23754-0.032109 0.23754-0.031984 0.23754-0.03186 0.23754-0.031736 0.23754-0.031615 0.23754-0.031493 0.23754-0.031344 0.23754-0.031014 0.23754-0.030686 0.23754-0.03042 0.23754-0.030343 0.23754-0.030265 0.23754-0.030188 0.23754-0.030112 0.23754-0.030774 0.23754-0.030623 0.23754-0.030475 0.23754-0.030326 0.23754-0.030179 0.23754-0.030032 0.23754-0.029888 0.23754-0.029744 0.23754-0.0296 0.23754-0.029459 0.23754-0.029317 0.23754-0.029178 0.23754-0.029038 0.23754-0.0289 0.23754-0.028762 0.23754-0.028627 0.23754-0.02849 0.23754-0.028356 0.23754-0.028223 0.23754-0.028087 0.23754-0.027951 0.23754-0.027816 0.23754-0.027682 0.23754-0.027549 0.23754-0.027417 0.23754-0.027286 0.23754-0.027155 0.23754-0.027026 0.23754-0.026897 0.23754-0.026769 0.23754-0.026642 0.23754-0.026515 0.23754-0.02639 0.23754-0.026265 0.23754-0.026141 0.23754-0.026008 0.23754-0.02576 0.23754-0.025514 0.23754-0.025233 0.23754-0.024912 0.23754-0.024572 0.23754-0.024234 0.23754-0.0239 0.23754-0.023763 0.23754-0.024009 0.23754-0.023589 0.23754-0.023805 0.23754-0.023798 0.23754-0.023779 0.23754-0.02376 0.23754-0.023739 0.23754-0.023492 0.23754-0.02315 0.23754-0.022811 0.23754-0.022473 0.23754-0.022161 0.23754-0.021822 0.23754-0.021408 0.23754-0.020997 0.23754-0.020685 0.23754-0.020565 0.23754-0.020448 0.23754-0.02033 0.23754-0.020214 0.23754-0.020099 0.23754-0.019983 0.23754-0.019869 0.23754-0.019755 0.23754-0.019641 0.23754-0.019529 0.23754-0.019417 0.23754-0.019305 0.23754-0.019193 0.23754-0.019084 0.23754-0.018787 0.23754-0.018274 0.23754-0.017947 0.23754-0.017623 0.23754-0.017447 0.23754-0.016784 0.23754-0.016755 0.23754-0.016724 0.23754-0.016696 0.23754-0.016666 0.23754-0.016637 0.23754-0.016608 0.23754-0.016579 0.23754-0.01655 0.23754-0.016522 0.23754-0.016492 0.23754-0.016464 0.23754-0.016358 0.23754-0.016116 0.23754-0.015792 0.23754-0.015678 0.23754-0.015564 0.23754-0.01545 0.23754-0.015336 0.23754-0.015225 0.23754-0.015112 0.23754-0.015 0.23754-0.014889 0.23754-0.014779 0.23754-0.014668 0.23754-0.014577 0.23754-0.014502 0.23754-0.014429 0.23754-0.014354 0.23754-0.01428 0.23754-0.014207 0.23754-0.013531 0.23754-0.013394 0.23754-0.013257 0.23754-0.013121 0.23754-0.012986 0.23754-0.01285 0.23754-0.012808 0.23754-0.012904 0.23754-0.013 0.23754-0.013095 0.23754-0.01319 0.23754-0.013751 0.23754-0.013696 0.23754-0.013641 0.23754-0.013586 0.23754-0.013531 0.23754-0.013476 0.23754-0.013421 0.23754-0.013368 0.23754-0.013313 0.23754-0.013259 0.23754-0.013205 0.23754-0.013152 0.23754-0.013098 0.23754-0.013045 0.23754-0.012992 0.23754-0.012939 0.23754-0.012607 0.23754-0.012377 0.23754-0.012451 0.23754-0.012526 0.23754-0.012598 0.23754-0.012672 0.23754-0.012641 0.23754-0.012542 0.23754-0.012445 0.23754-0.012347 0.23754-0.01225 0.23754-0.012152 0.23754-0.012056 0.23754-0.01196 0.47507-0.023823 0.23754-0.011927 0.23754-0.011942 0.23754-0.011955 0.23754-0.01197 0.23754-0.011984 0.23754-0.011998 0.23754-0.012012 0.23754-0.012026 0.23754-0.01264 0.23754-0.012723 0.23754-0.012807 0.23754-0.01289 0.23754-0.01284 0.23754-0.012512 0.23754-0.012215 0.23754-0.011975 0.23754-0.011734 0.23754-0.011804 0.23754-0.012083 0.23754-0.012053 0.23754-0.012002 0.23754-0.011949 0.23754-0.011899 0.23754-0.011847 0.23754-0.011796 0.23754-0.011745 0.23754-0.011069 0.23754-0.010482 0.23754-0.009854 0.23754-0.007597 0.23754 0.004992 0.23754 0.00479 0.23754 0.004588 0.23754 0.004477 0.23754 0.004519 0.23754 0.00456 0.23754 0.004663 0.23754 0.00527 0.23754 0.005837 0.23754 0.00578 0.23754 0.005724 0.23754 0.005558 0.23754 0.005328 0.23754 0.005139 0.23754 0.004955 0.23754 0.004771 0.23754 0.004659 0.23754 0.00472 0.23754 0.004783 0.23754 0.004874 0.23754 0.005008 0.23754 0.005095 0.23754 0.005182 0.23754 0.005269 0.23754 0.005357 0.23754 0.005444 0.23754 0.005531 0.23754 0.005619 0.23754 0.005707 0.23754 0.005795 0.23754 0.005753 0.23754 0.005704 0.23754 0.005656 0.23754 0.005607 0.23754 0.005559 0.23754 0.00551 0.23754 0.005462 0.23754 0.005413 0.23754 0.005363 0.23754 0.005314 0.23754 0.00527 0.23754 0.005233 0.23754 0.005196 0.23754 0.00516 0.23754 0.004624 0.23754 0.00464 0.23754 0.004655 0.23754 0.004672 0.23754 0.004688 0.23754 0.004703 0.23754 0.00472 0.23754 0.004735 0.23754 0.004752 0.23754 0.004768 0.23754 0.00485 0.23754 0.005042 0.23754 0.005235 0.23754 0.005794 0.23754 0.005738 0.23754 0.005681 0.23754 0.005624 0.23754 0.005568 0.23754 0.005512 0.23754 0.005454 0.23754 0.005397 0.23754 0.005341 0.23754 0.005281 0.23754 0.00522 0.23754 0.005159 0.23754 0.005099 0.23754 0.005037 0.23754 0.004977 0.23754 0.004915 2.6129 0.053345 0.23754 0.004837 0.23754 0.004865 0.23754 0.004916 0.23754 0.004965 0.23754 0.005016 0.23754 0.005066 0.23754 0.005117 0.23754 0.005167 0.23754 0.005217 0.23754 0.005268 0.23754 0.005319 0.23754 0.005369 0.23754 0.005433 0.23754 0.005503 0.23754 0.005571 0.23754 0.005642 0.23754 0.005711 0.23754 0.00578 0.23754 0.005851 0.23754 0.00592 0.23754 0.005991 0.23754 0.00606 0.23754 0.006131 0.23754 0.006202 0.23754 0.006272 0.23754 0.006124 0.23754 0.006427 0.23754 0.006363 0.23754 0.006427 0.23754 0.006491 0.23754 0.006556 0.23754 0.006621 0.23754 0.006685 0.23754 0.006954 0.23754 0.007209 0.23754 0.007058 0.23754 0.006906 0.23754 0.006755 0.47507 0.013201 0.23754 0.006627 0.23754 0.006654 0.23754 0.006683 0.23754 0.006711 0.23754 0.006738 0.23754 0.006764 0.23754 0.006789 0.23754 0.006814 0.23754 0.006839 0.23754 0.006869 0.23754 0.006909 0.23754 0.006949 0.23754 0.006989 0.23754 0.00703 0.23754 0.007071 0.23754 0.007111 0.23754 0.007152 0.23754 0.007195 0.23754 0.007586 0.23754 0.007647 0.23754 0.007495 0.23754 0.007336 0.23754 0.007075 0.23754 0.006813 0.23754 0.006721 0.23754 0.006681 0.23754 0.006622 0.23754 0.006564 0.23754 0.006505 0.23754 0.006622 0.23754 0.006933 0.23754 0.007217 0.23754 0.0075 0.23754 0.007584 0.23754 0.007659 0.23754 0.007733 0.23754 0.007808 0.23754 0.007705 0.23754 0.007579 0.23754 0.007495 0.23754 0.007412 0.23754 0.007327 0.23754 0.007212 0.23754 0.007024 0.23754 0.006836 0.23754 0.006737 0.23754 0.006724 0.23754 0.006711 0.23754 0.006696 0.23754 0.006683 0.23754 0.006669 0.23754 0.006655 0.23754 0.006642 0.23754 0.006627 0.23754 0.006614 0.23754 0.006599 0.23754 0.006586 0.23754 0.006571 0.23754 0.006558 0.23754 0.006543 0.23754 0.006351 0.23754 0.005944 0.23754 0.005717 0.23754 0.005489 0.23754 0.005404 0.23754 0.005384 0.23754 0.005386 0.23754 0.005391 0.23754 0.005397 0.23754 0.005403 0.23754 0.005408 0.23754 0.005414 0.23754 0.005419 0.23754 0.005425 0.23754 0.00543 0.23754 0.005436 0.23754 0.005442 0.23754 0.00537 0.23754 0.00518 0.23754 0.005043 0.23754 0.005125 0.23754 0.005207 0.23754 0.00529 0.23754 0.00536 0.23754 0.005205 0.23754 0.005051 0.23754 0.004895 0.23754 0.00474 0.23754 0.004584 0.23754 0.004653 0.23754 0.004729 0.23754 0.004806 0.23754 0.004884 0.23754 0.004961 0.23754 0.004927 0.23754 0.004765 0.23754 0.003979 0.23754 0.003749 0.23754 0.003519 0.23754 0.003377 0.23754 0.003301 0.23754 0.003224 0.23754 0.003245 0.23754 0.00341 0.23754 0.003575 0.23754 0.003742 0.23754 0.003907 0.23754 0.004568 0.23754 0.004577 0.23754 0.004587 0.23754 0.004597 0.23754 0.004606 0.23754 0.004617 0.23754 0.004626 0.23754 0.004635 0.23754 0.004646 0.23754 0.004655 0.23754 0.004665 0.23754 0.004675 0.23754 0.004685 0.23754 0.004695 0.23754 0.004705 0.23754 0.004714 0.23754 0.004725 0.23754 0.004735 0.23754 0.004745 0.23754 0.004754 0.23754 0.004765 0.23754 0.004775 0.23754 0.004786 0.23754 0.004795 0.23754 0.004805 0.23754 0.004816 0.23754 0.004825 0.23754 0.004836 0.23754 0.004846 0.23754 0.004856 0.23754 0.004918 0.23754 0.005012 0.23754 0.005108 0.23754 0.005203 0.23754 0.005299 0.47507 0.010751 0.47507 0.010717 0.23754 0.005345 0.23754 0.006015 0.23754 0.006088 0.23754 0.006161 0.23754 0.006235 0.23754 0.006816 0.23754 0.007216 0.23754 0.006992 0.23754 0.006829 0.23754 0.006666 0.23754 0.006856 0.23754 0.007305 0.23754 0.00743 0.23754 0.00753 0.23754 0.007631 0.23754 0.007731 0.23754 0.007193 0.23754 0.007354 0.23754 0.007514 0.23754 0.007675 0.23754 0.007836 0.23754 0.007998 0.23754 0.00813 0.23754 0.008253 0.23754 0.008375 0.23754 0.008498 0.23754 0.00862 0.23754 0.008744 0.23754 0.008868 0.23754 0.00892 0.23754 0.008259 0.23754 0.00759 0.23754 0.007656 0.23754 0.007723 0.23754 0.007789 0.23754 0.007857 0.23754 0.007875 0.23754 0.007383 0.23754 0.007295 0.23754 0.007268 0.23754 0.007242 0.23754 0.007216 0.23754 0.007153 0.23754 0.006641 0.23754 0.006086 0.23754 0.005525 0.23754 0.004863 0.23754 0.00427 0.23754 0.004016 0.23754 0.00376 0.23754 0.001779 0.23754 0.00211 0.23754 0.001109 0.23754 0.001705 0.23754 0.002037 0.23754 0.002118 0.23754 0.001923 0.23754 0.001729 0.23754 0.001534 0.23754 0.001993 0.23754 0.001861 0.23754 0.001637 0.23754 0.001414 0.23754 5.27e-4 0.23754 1.68e-4 0.23754-2.41e-4 0.23754-8.11e-4 0.23754-4.12e-4 0.23754-8.5e-4 0.23754-0.001064 0.23754-0.001225 0.23754-0.001388 0.23754-0.00155 0.23754-0.001711 0.23754-0.002074 0.23754-0.002126 0.23754-0.002631 0.23754-0.002908 0.23754-0.003312 0.23754-0.003716 0.23754-0.004748 0.23754-0.004805 0.23754-0.005164 0.23754-0.00581 0.23754-0.005886 0.23754-0.00596 0.23754-0.006036 0.23754-0.006109 0.23754-0.006976 0.23754-0.006924 0.23754-0.006838 0.23754-0.006977 0.23754-0.007116 0.23754-0.00832 0.23754-0.008611 0.23754-0.008699 0.23754-0.008795 0.23754-0.008951 0.23754-0.009095 0.23754-0.009194 0.23754-0.009292 0.23754-0.009391 0.23754-0.009489 0.23754-0.009586 0.23754-0.009684 0.23754-0.00978 0.23754-0.009878 0.23754-0.009138 0.23754-0.008628 0.23754-0.006941 0.23754 0.004119 0.23754 0.004604 0.23754 0.004333 0.23754 0.003998 0.23754 0.004105 0.23754 0.004211 0.23754 0.004318 0.23754 0.004424 0.23754 0.005138 0.23754 0.005228 0.23754 0.005313 0.23754 0.005398 0.23754 0.005482 0.23754 0.005353 0.23754 0.004999 0.23754 0.005199 0.23754 0.0054 0.23754 0.005024 0.23754 0.004627 0.23754 0.004112 0.23754 0.003594 0.23754 0.003191 0.23754 0.003251 0.23754 0.003439 0.23754 0.003346 0.23754 0.003108 0.23754 0.003971 0.23754 0.003228 0.23754 0.001026 0.23754 0.001299 0.23754 8.72e-4 0.23754 4.64e-4 0.23754 5.08e-4 0.23754 5.52e-4 0.23754 5.96e-4 0.23754 6.39e-4 0.23754 9.6e-5 0.23754-8.25e-4 0.23754-9.96e-4 0.23754-0.001167 0.23754-0.001337 0.23754-0.001508 0.23754-0.001678 0.23754-0.003169 0.23754-0.004921 0.23754-0.00574 0.23754-0.006011 0.23754-0.006281 0.23754-0.006549 0.23754-0.008379 0.23754-0.024938 0.23754-0.028013 0.23754-0.077646 0.23754-0.084101 0.23754-0.082753 0.23754-0.081709 0.23754-0.080452 0.23754-0.079245 0.23754-0.078217 0.23754-0.077206 0.23754-0.076207 0.23754-0.075464 0.23754-0.074882 0.23754-0.07431 0.23754-0.073746 0.23754-0.07319 0.23754-0.072661 0.23754-0.072008 0.23754-0.071335 0.23754-0.070674 0.23754-0.070022 0.23754-0.069385 0.23754-0.06876 0.23754-0.068147 0.23754-0.067542 0.23754-0.066991 0.23754-0.066487 0.23754-0.066159 0.23754-0.066119 0.23754-0.065195 0.23754-0.064216 0.23754-0.063252 0.23754-0.049041 0.23754-0.04836 0.23754-0.047963 0.23754-0.04757 0.23754-0.047607 0.23754-0.047566 0.23754-0.047304 0.23754-0.047043 0.23754-0.046785 0.23754-0.046529 0.23754-0.046277 0.23754-0.046026 0.23754-0.045778 0.23754-0.045504 0.23754-0.045204 0.23754-0.044907 0.23754-0.044613 0.23754-0.044164 0.23754-0.043538 0.23754-0.042877 0.23754-0.030577 0.23754-0.029019 0.23754-0.029303 0.23754-0.029578 0.23754-0.029284 0.23754-0.029038 0.23754-0.029139 0.23754-0.029237 0.23754-0.029334 0.23754-0.029264 0.23754-0.029177 0.23754-0.029093 0.23754-0.029008 0.23754-0.028939 0.23754-0.028906 0.23754-0.028873 0.23754-0.028839 0.23754-0.028807 0.23754-0.028764 0.23754-0.028558 0.23754-0.028353 0.23754-0.028133 0.23754-0.027916 0.23754-0.0277 0.23754-0.027645 0.23754-0.027598 0.23754-0.027551 0.23754-0.027503 0.23754-0.027456 0.23754-0.027343 0.23754-0.027145 0.23754-0.026948 0.23754-0.026751 0.23754-0.026558 0.23754-0.026425 0.23754-0.026341 0.23754-0.026256 0.23754-0.026172 0.23754-0.026088 0.23754-0.026005 0.23754-0.025805 0.23754-0.025433 0.23754-0.025302 0.23754-0.025173 0.23754-0.025044 0.23754-0.024916 0.23754-0.024789 0.23754-0.024662 0.23754-0.024537 0.23754-0.024412 0.23754-0.024288 0.23754-0.014346 0.23754-0.014369 0.23754-0.014392 0.23754-0.014415 0.23754-0.014437 0.23754-0.01446 0.23754-0.014482 0.23754-0.014505 0.23754-0.014527 0.23754-0.01455 0.23754-0.014571 0.23754-0.014593 0.23754-0.014615 0.23754-0.014636 0.23754-0.014658 0.23754-0.014679 0.23754-0.014701 0.23754-0.014667 0.23754-0.014248 0.23754-0.014137 0.23754-0.014025 0.23754-0.013914 0.23754-0.013803 0.23754-0.013693 0.23754-0.013584 0.23754-0.00316 0.23754-0.003044 0.23754-0.002871 0.23754-0.002698 0.23754-0.013587 0.23754-0.013337 0.23754-0.013312 0.23754-0.013329 0.23754-0.013348 0.23754-0.013365 0.23754-0.013774 0.23754-0.01414 0.23754-0.014095 0.23754-0.014048 0.23754-0.014004 0.23754-0.013958 0.23754-0.013913 0.23754-0.01381 0.23754-0.013703 0.23754-0.013595 0.23754-0.013181 0.23754-0.012689 0.23754-0.012624 0.23754-0.012561 0.23754-0.012519 0.23754-0.01248 0.23754-0.012441 0.71261-0.037167 0.71261-0.037234 0.47507-0.02486 0.23754-0.01237 0.23754-0.012275 0.23754-0.012181 0.23754-0.012086 0.23754-0.011993 0.23754-0.011899 0.23754-0.011806 0.23754-0.011418 0.23754-0.011164 0.23754-0.010908 0.23754-0.010691 0.23754-0.010517 0.23754-0.010343 0.23754-0.009964 0.23754-0.00956 0.23754-0.009147 0.23754-0.008677 0.23754-0.00825 0.23754-0.008022 0.23754-0.007808 0.23754-0.006603 0.23754-0.006728 0.23754-0.00609 0.23754-0.006019 0.23754-0.006182 0.23754-0.006199 0.23754-0.00606 0.23754-0.005922 0.23754-0.005783 0.23754-0.006017 0.23754-0.005914 0.23754-0.00576 0.23754-0.005603 0.23754-0.005071 0.23754-0.004847 0.23754-0.004591 0.23754-0.004247 0.23754-0.004452 0.23754-0.004183 0.23754-0.00404 0.23754-0.003937 0.23754-0.003846 0.23754-0.003756 0.23754-0.003666 0.23754-0.003463 0.23754-0.003434 0.23754-0.00315 0.23754-0.003039 0.23754-0.002928 0.23754-0.002816 0.23754-0.002591 0.23754-0.002513 0.23754-0.002261 0.23754-0.001847 0.23754-0.001757 0.23754-0.001667 0.23754-0.001577 0.23754-0.001485 0.23754-9.46e-4 0.47507-0.001852 0.23754-7.98e-4 0.23754-6.7e-4 0.23754 6.5e-5 0.23754 2.8e-4 0.23754 3.82e-4 0.23754 4.82e-4 0.23754 5.84e-4 0.23754 6.78e-4 0.23754 7.47e-4 0.23754 8.16e-4 0.23754 9.2e-4 0.23754 0.001189 0.23754 0.001356 0.23754 0.001434 0.23754 0.001511 0.23754 0.001588 0.23754 0.001184 0.23754 9.09e-4 0.23754-4.7e-5 0.23754-0.006428 0.23754-0.006687 0.23754-0.00651 0.23754-0.006295 0.23754-0.006353 0.23754-0.006479 0.23754-0.006605 0.23754-0.00673 0.23754-0.007204 0.23754-0.007328 0.23754-0.00745 0.23754-0.007574 0.47507-0.015391 0.23754-0.007568 0.23754-0.007757 0.23754-0.007944 0.23754-0.007805 0.23754-0.013357 0.23754-0.013749 0.23754-0.013602 0.23754-0.013337 0.23754-0.013198 0.23754-0.013059 0.23754-0.01292 0.23754-0.012782 0.23754-0.013259 0.23754-0.012838 0.23754-0.011698 0.23754-0.012052 0.23754-0.012146 0.23754-0.012239 0.23754-0.012332 0.23754-0.012425 0.23754-0.012517 0.23754-0.012608 0.23754-0.012467 0.23754-0.01623 0.23754-0.020709 0.23754-0.020431 0.23754-0.020356 0.23754-0.020333 0.23754-0.020309 0.23754-0.019568 0.23754-0.018778 0.23754-0.018851 0.23754-0.027419 0.23754-0.026942 0.23754-0.026597 0.23754-0.02545 0.23754-0.01657 0.23754-0.014955 0.23754 0.011941 0.23754 0.015718 0.23754 0.015267 0.23754 0.014763 0.23754 0.014323 0.23754 0.014019 0.23754 0.013806 0.23754 0.013588 0.23754 0.01215 0.23754 0.011119 0.23754 0.011002 0.23754 0.010884 0.23754 0.010766 0.23754 0.010647 0.23754 0.01054 0.23754 0.008525 0.23754 0.005375 0.23754 0.005203 0.23754 0.005031 0.23754 0.004575 0.23754 0.004545 0.23754 0.004514 0.23754 0.004484 0.23754 0.004454 0.23754 0.004424 0.23754 0.004506 0.23754 0.004779 0.23754 0.004458 0.23754 0.004086 0.23754 0.003715 0.23754-0.005789 0.23754-0.006081 0.23754-0.006253 0.23754-0.006682 0.23754-0.006812 0.23754-0.011537 0.23754-0.012 0.23754-0.011952 0.23754-0.011904 0.23754-0.011857 0.23754-0.011809 0.23754-0.011764 0.23754-0.011718 0.23754-0.011693 0.23754-0.011689 0.23754-0.011334 0.23754-0.011319 0.23754-0.011421 0.23754-0.011655 0.23754-0.011912 0.23754-0.020727 0.23754-0.021689 0.23754-0.02129 0.47507-0.041677 0.23754-0.021099 0.23754-0.021096 0.23754-0.020926 0.23754-0.020726 0.23754-0.020651 0.23754-0.020589 0.23754-0.020526 0.23754-0.020463 0.23754-0.020475 0.23754-0.021416 0.23754-0.02899 0.23754-0.028698 0.23754-0.028407 0.23754-0.028391 0.23754-0.02848 0.23754-0.028571 0.23754-0.02867 0.23754-0.028769 0.23754-0.035975 0.23754-0.035945 0.23754-0.035914 0.23754-0.035883 0.23754-0.035853 0.23754-0.035821 0.23754-0.036059 0.23754-0.036586 0.23754-0.050838 0.23754-0.050485 0.23754-0.050137 0.23754-0.050212 0.23754-0.050117 0.23754-0.050023 0.23754-0.049929 0.23754-0.049834 0.23754-0.04974 0.23754-0.050059 0.23754-0.049896 0.23754-0.049664 0.23754-0.049434 0.23754-0.049207 0.23754-0.048981 0.23754-0.048758 0.23754-0.048521 0.23754-0.048275 0.23754-0.048031 0.23754-0.04779 0.23754-0.05455 0.23754-0.054286 0.23754-0.054025 0.23754-0.053767 0.23754-0.053512 0.23754-0.053258 0.23754-0.053007 0.23754-0.057049 0.23754-0.059632 0.23754-0.059304 0.23754-0.058979 0.23754-0.058657 0.23754-0.058339 0.23754-0.058026 0.23754-0.057714 0.23754-0.057407 0.23754-0.057103 0.23754-0.056732 0.23754-0.056569 0.23754-0.056118 0.23754-0.055503 0.23754-0.055132 0.23754-0.054748 0.23754-0.054342 0.23754-0.054364 0.23754-0.060669 0.23754-0.060373 0.23754-0.060083 0.23754-0.059794 0.23754-0.05265 0.23754-0.052479 0.23754-0.052172 0.23754-0.051842 0.23754-0.051514 0.23754-0.051192 0.23754-0.050883 0.23754-0.050655 0.23754-0.050429 0.23754-0.050204 0.23754-0.049894 0.23754-0.049551 0.23754-0.049304 0.23754-0.049093 0.23754-0.048887 0.23754-0.048684 0.23754-0.048658 0.23754-0.048414 0.23754-0.048172 0.23754-0.047738 0.23754-0.047528 0.23754-0.047319 0.23754-0.047111 0.23754-0.046906 0.23754-0.046214 0.23754-0.045866 0.23754-0.045616 0.23754-0.045401 0.23754-0.045189 0.23754-0.044978 0.23754-0.04477 0.23754-0.044562 0.23754-0.044357 0.23754-0.044155 0.23754-0.043947 0.23754-0.04374 0.23754-0.043534 0.23754-0.043331 0.23754-0.043128 0.23754-0.042986 0.23754-0.042871 0.23754-0.04274 0.23754-0.04259 0.23754-0.042439 0.23754-0.04229 0.23754-0.042143 0.23754-0.042001 0.23754-0.04186 0.23754-0.04172 0.23754-0.041577 0.23754-0.04137 0.23754-0.041165 0.23754-0.040802 0.47507-0.081238 0.23754-0.040415 0.23754-0.040117 0.23754-0.039934 0.23754-0.039773 0.23754-0.039613 0.23754-0.039453 0.23754-0.039297 0.23754-0.039139 0.23754-0.038963 0.23754-0.038598 0.23754-0.038329 0.23754-0.038039 0.23754-0.037881 0.23754-0.037723 0.23754-0.037567 0.23754-0.037413 0.23754-0.037259 0.23754-0.037102 0.23754-0.036945 0.23754-0.03679 0.23754-0.036636 0.23754-0.036312 0.23754-0.03613 0.23754-0.035949 0.23754-0.035781 0.23754-0.035623 0.23754-0.035466 0.23754-0.03531 0.23754-0.035037 0.23754-0.03474 0.23754-0.034452 0.23754-0.034309 0.23754-0.034169 0.23754-0.03403 0.23754-0.033891 0.23754-0.033716 0.23754-0.033497 0.23754-0.033321 0.23754-0.033145 0.23754-0.032966 0.23754-0.032788 0.23754-0.032656 0.23754-0.032529 0.23754-0.032405 0.23754-0.03228 0.23754-0.032157 0.23754-0.032022 0.23754-0.031902 0.23754-0.031857 0.23754-0.031749 0.23754-0.031573 0.23754-0.031412 0.23754-0.031262 0.23754-0.031116 0.23754-0.03098 0.23754-0.030845 0.23754-0.030689 0.23754-0.030505 0.23754-0.030337 0.23754-0.030163 0.23754-0.029946 0.23754-0.029758 0.23754-0.029567 0.23754-0.029312 0.23754-0.029161 0.23754-0.029015 0.23754-0.028868 0.23754-0.028709 0.23754-0.028519 0.23754-0.028355 0.23754-0.028214 0.23754-0.028073 0.23754-0.027934 0.23754-0.02775 0.23754-0.025201 0.23754-0.024832 0.23754-0.024689 0.23754-0.024621 0.23754-0.024554 0.23754-0.024488 0.23754-0.024433 0.23754-0.024382 0.23754-0.024332 0.23754-0.024281 0.23754-0.024196 0.23754-0.024061 0.23754-0.023927 0.23754-0.023796 0.23754-0.023663 0.23754-0.023533 0.23754-0.023402 0.23754-0.023273 0.23754-0.023144 0.23754-0.021328 0.23754-0.019374 0.23754-0.019362 0.23754-0.01929 0.23754-0.019215 0.23754-0.019139 0.23754-0.019065 0.23754-0.018953 0.23754-0.018698 0.23754-0.015099 0.23754-0.015191 0.23754-0.015229 0.23754-0.015253 0.23754-0.015197 0.23754-0.015139 0.23754-0.015084 0.23754-0.015028 0.23754-0.014972 0.23754-0.014916 0.23754-0.014862 0.23754-0.014807 0.23754-0.014736 0.23754-0.014661 0.23754-0.0141 0.23754-0.013689 0.23754-0.013622 0.23754-0.013546 0.23754-0.013469 0.23754-0.013392 0.23754-0.013304 0.23754-0.012428 0.23754-0.011156 0.23754-0.011076 0.23754-0.010998 0.23754-0.010807 0.23754-0.010782 0.23754-0.010758 0.23754-0.010676 0.23754-0.010594 0.23754-0.010531 0.23754-0.01047 0.23754-0.010432 0.23754-0.010391 0.23754-0.010353 0.23754-0.01032 0.23754-0.01029 0.23754-0.010261 0.23754-0.010203 0.23754-0.010048 0.23754-0.009882 0.23754-0.007971 0.23754-0.007759 0.23754-0.007737 0.23754-0.007713 0.23754-0.007688 0.23754-0.007668 0.23754-0.007648 0.23754-0.007627 0.23754-0.007602 0.23754-0.007574 0.23754-0.00768 0.23754-0.007651 0.47507-0.015249 0.23754-0.007646 0.23754-0.007668 0.23754-0.00769 0.23754-0.007715 0.23754-0.007765 0.23754-0.007796 0.23754-0.00772 0.23754-0.007643 0.47507-0.015267 0.23754-0.007609 0.23754-0.007584 0.23754-0.007559 0.23754-0.007535 0.23754-0.007482 0.23754-0.007062 0.23754-0.004024 0.23754-0.004093 0.23754-0.004161 0.23754-0.004122 0.23754-0.00404 0.23754-0.003958 0.23754-0.003881 0.23754-0.003807 0.23754-8.69e-4 0.23754-8.28e-4 0.23754-7.89e-4 0.23754-7.49e-4 0.23754-7.09e-4 0.23754-6.09e-4 0.23754-2.38e-4 0.23754 7.2e-5 0.23754 0.006076 0.23754 0.006054 0.23754 0.006031 0.23754 0.006186 0.23754 0.006271 0.23754 0.006517 0.23754 0.006669 0.23754 0.006733 0.23754 0.006798 0.23754 0.007005 0.47507 0.013888 0.23754 0.006928 0.47507 0.013822 0.23754 0.006895 0.23754 0.006877 0.23754 0.006853 0.23754 0.00683 0.23754 0.006807 0.23754 0.006829 0.23754 0.00686 0.23754 0.006892 0.23754 0.006928 0.23754 0.006968 0.23754 0.007011 0.23754 0.007052 0.23754 0.009166 0.23754 0.01061 0.23754 0.010654 0.23754 0.010698 0.23754 0.010757 0.23754 0.010825 0.23754 0.010893 0.23754 0.010962 0.23754 0.011027 0.23754 0.011092 0.47507 0.022204 0.23754 0.011053 0.23754 0.010953 0.23754 0.010994 0.23754 0.010938 0.23754 0.010866 0.23754 0.011024 0.23754 0.011043 0.23754 0.011064 0.23754 0.011083 0.23754 0.011103 0.23754 0.011138 0.23754 0.011178 0.23754 0.01122 0.23754 0.011267 0.23754 0.011403 0.23754 0.011418 0.23754 0.011433 0.23754 0.011447 0.23754 0.011463 0.23754 0.011477 0.23754 0.011439 1.1877 0.056863 0.23754 0.011357 0.23754 0.011333 0.23754 0.011307 1.1877 0.055792 0.23754 0.010865 0.23754 0.01079 0.23754 0.010797 0.23754 0.010826 0.23754 0.010855 0.23754 0.010885 0.23754 0.010898 0.23754 0.01091 0.23754 0.010922 0.23754 0.010934 0.23754 0.010942 0.23754 0.010948 0.23754 0.010956 0.23754 0.010961 0.23754 0.011023 0.23754 0.011092 0.23754 0.011224 0.23754 0.011266 0.23754 0.011305 0.23754 0.011346 0.23754 0.011532 0.23754 0.011582 0.23754 0.011632 0.23754 0.011654 0.23754 0.011672 0.23754 0.011689 0.23754 0.011663 0.23754 0.011636 0.23754 0.011491 0.23754 0.011478 0.23754 0.011777 0.23754 0.01182 0.23754 0.011825 0.23754 0.011903 0.23754 0.011962 0.23754 0.012021 0.23754 0.012079 0.23754 0.012138 0.23754 0.012202 0.23754 0.012249 0.23754 0.01214 0.23754 0.012104 0.23754 0.012869 0.23754 0.01438 0.23754 0.01441 0.23754 0.01444 0.23754 0.014468 0.23754 0.014486 0.23754 0.014503 0.23754 0.014521 0.23754 0.014538 0.23754 0.014556 0.23754 0.014434 0.23754 0.014437 0.23754 0.014439 0.23754 0.014451 0.23754 0.014522 0.23754 0.014638 0.23754 0.014711 0.23754 0.017657 0.23754 0.017593 0.23754 0.017891 0.23754 0.019397 0.23754 0.019464 0.23754 0.019532 0.23754 0.019614 0.23754 0.019655 0.47507 0.039207 0.23754 0.019589 0.23754 0.019574 0.23754 0.019559 0.23754 0.019586 0.23754 0.019605 0.23754 0.019625 0.23754 0.019644 0.23754 0.019663 0.23754 0.019671 0.23754 0.019678 0.47507 0.039358 0.23754 0.019635 0.23754 0.019608 0.23754 0.019592 0.23754 0.01958 0.23754 0.019585 0.23754 0.019591 0.23754 0.019576 0.23754 0.019531 0.23754 0.0195 0.23754 0.019461 0.23754 0.019386 0.23754 0.019368 0.23754 0.019347 0.23754 0.019257 0.23754 0.019273 0.23754 0.019293 0.47507 0.038619 0.47507 0.038543 0.23754 0.019283 0.23754 0.019299 0.23754 0.019313 0.47507 0.038569 0.23754 0.01933 0.23754 0.01938 0.23754 0.019437 0.23754 0.019498 0.23754 0.01956 0.23754 0.019817 0.23754 0.019963 0.23754 0.020012 0.23754 0.020062 0.23754 0.020111 0.23754 0.020161 0.23754 0.02021 0.23754 0.020261 0.23754 0.020311 0.23754 0.02038 0.23754 0.02046 0.23754 0.020539 0.23754 0.020609 0.23754 0.020635 0.23754 0.020641 0.23754 0.020647 0.23754 0.020682 0.23754 0.020736 0.23754 0.020792 0.23754 0.020847 0.23754 0.02092 0.23754 0.021003 0.23754 0.021084 0.23754 0.021163 0.23754 0.021216 0.23754 0.021269 0.23754 0.021323 0.23754 0.021377 0.23754 0.021432 0.23754 0.021485 0.23754 0.02154 0.23754 0.021596 0.23754 0.021651 0.23754 0.021733 0.23754 0.021794 0.23754 0.021849 0.23754 0.021901 0.23754 0.021921 0.23754 0.021943 0.23754 0.021953 0.23754 0.02196 0.47507 0.04393 0.47507 0.043807 0.23754 0.02193 0.23754 0.021956 0.23754 0.021983 0.23754 0.02201 0.23754 0.022037 0.23754 0.021986 0.23754 0.021936 0.23754 0.021946 0.23754 0.022141 0.23754 0.023232 0.23754 0.025071 0.23754 0.025099 0.23754 0.025137 0.23754 0.025178 0.23754 0.02522 0.23754 0.025262 0.23754 0.025303 0.23754 0.02533 0.23754 0.025358 0.23754 0.027791 0.23754 0.030014 0.23754 0.030049 0.23754 0.030084 0.23754 0.030124 0.23754 0.030166 0.23754 0.030207 0.23754 0.030239 0.23754 0.030271 0.23754 0.0303 0.23754 0.030321 0.23754 0.030342 0.23754 0.030418 0.23754 0.030509 0.23754 0.03061 0.23754 0.030713 0.23754 0.030815 0.23754 0.030918 0.23754 0.031023 0.23754 0.031127 0.23754 0.031238 0.23754 0.03136 0.23754 0.03148 0.23754 0.031564 0.23754 0.031647 0.23754 0.032329 0.23754 0.032402 0.23754 0.032475 0.23754 0.032549 0.23754 0.032627 0.23754 0.032724 0.23754 0.032822 0.23754 0.035018 0.23754 0.035116 0.23754 0.035215 0.23754 0.035324 0.23754 0.035435 0.23754 0.035548 0.23754 0.035661 0.23754 0.035775 0.23754 0.03589 0.23754 0.036005 0.23754 0.036022 0.23754 0.035776 0.23754 0.035865 0.23754 0.035984 0.23754 0.036139 0.23754 0.03628 0.23754 0.036415 0.23754 0.036548 0.23754 0.036408 0.23754 0.036614 0.23754 0.038578 0.23754 0.038937 0.23754 0.039082 0.23754 0.039228 0.23754 0.039374 0.23754 0.039522 0.23754 0.03967 0.23754 0.039821 0.23754 0.039972 0.23754 0.040125 0.23754 0.040278 0.23754 0.040432 0.23754 0.040589 0.23754 0.040746 0.23754 0.040904 0.23754 0.041064 0.23754 0.04122 0.23754 0.041364 0.23754 0.041511 0.23754 0.041658 0.23754 0.041806 0.23754 0.041955 0.23754 0.042107 0.23754 0.042257 0.23754 0.042386 0.23754 0.050025v50.686h-405.48z" stroke="#0766aa" stroke-opacity=".2"/>
</defs>
<g clip-path="url(#k)">
<use y="413.19625" fill="#0766aa" fill-opacity=".2" stroke="#0766aa" stroke-opacity=".2" xlink:href="#ag"/>
</g>
<path d="m76.765 170.63v-141.83" clip-path="url(#k)" fill="none" stroke="#b0b0b0" stroke-linecap="square" stroke-width=".8"/>
<defs>
<path id="g" d="m0 0v3.5" stroke="#000" stroke-width=".8"/>
</defs>
<use x="76.764507" y="170.627393" stroke="#000000" stroke-width=".8" xlink:href="#g"/>
<path d="m180.65 170.63v-141.83" clip-path="url(#k)" fill="none" stroke="#b0b0b0" stroke-linecap="square" stroke-width=".8"/>
<use x="180.651651" y="170.627393" stroke="#000000" stroke-width=".8" xlink:href="#g"/>
<path d="m284.54 170.63v-141.83" clip-path="url(#k)" fill="none" stroke="#b0b0b0" stroke-linecap="square" stroke-width=".8"/>
<use x="284.538794" y="170.627393" stroke="#000000" stroke-width=".8" xlink:href="#g"/>
<path d="m388.43 170.63v-141.83" clip-path="url(#k)" fill="none" stroke="#b0b0b0" stroke-linecap="square" stroke-width=".8"/>
<use x="388.425938" y="170.627393" stroke="#000000" stroke-width=".8" xlink:href="#g"/>
<defs>
<path id="b" d="m0 0h-3.5" stroke="#000" stroke-width=".8"/>
</defs>
<use x="40.603125" y="154.105211" stroke="#000000" stroke-width=".8" xlink:href="#b"/>
<defs>
<path id="e" d="m12.406 8.2969h16.109v55.625l-17.531-3.5156v8.9844l17.438 3.5156h9.8594v-64.609h16.109v-8.2969h-41.984z"/>
<path id="f" d="m31.781 66.406q-7.6094 0-11.453-7.5-3.8281-7.4844-3.8281-22.531 0-14.984 3.8281-22.484 3.8438-7.5 11.453-7.5 7.6719 0 11.5 7.5 3.8438 7.5 3.8438 22.484 0 15.047-3.8438 22.531-3.8281 7.5-11.5 7.5zm0 7.8125q12.266 0 18.734-9.7031 6.4688-9.6875 6.4688-28.141 0-18.406-6.4688-28.109-6.4688-9.6875-18.734-9.6875-12.25 0-18.719 9.6875-6.4688 9.7031-6.4688 28.109 0 18.453 6.4688 28.141 6.4688 9.7031 18.719 9.7031z"/>
</defs>
<g transform="translate(16.003 157.9) scale(.1 -.1)">
<use transform="translate(0 .68438)" xlink:href="#e"/>
<use transform="translate(63.623 .68438)" xlink:href="#f"/>
<use transform="translate(128.2 38.966) scale(.7)" xlink:href="#e"/>
</g>
<use x="40.603125" y="130.467312" stroke="#000000" stroke-width=".8" xlink:href="#b"/>
<defs>
<path id="q" d="m19.188 8.2969h34.422v-8.2969h-46.281v8.2969q5.6094 5.8125 15.297 15.594 9.7031 9.7969 12.188 12.641 4.7344 5.3125 6.6094 9 1.8906 3.6875 1.8906 7.25 0 5.8125-4.0781 9.4688-4.0781 3.6719-10.625 3.6719-4.6406 0-9.7969-1.6094-5.1406-1.6094-11-4.8906v9.9688q5.9531 2.3906 11.125 3.6094 5.1875 1.2188 9.4844 1.2188 11.328 0 18.062-5.6719 6.7344-5.6562 6.7344-15.125 0-4.5-1.6875-8.5312-1.6719-4.0156-6.125-9.4844-1.2188-1.4219-7.7656-8.1875-6.5312-6.7656-18.453-18.922z"/>
</defs>
<g transform="translate(16.003 134.27) scale(.1 -.1)">
<use transform="translate(0 .76562)" xlink:href="#e"/>
<use transform="translate(63.623 .76562)" xlink:href="#f"/>
<use transform="translate(128.2 39.047) scale(.7)" xlink:href="#q"/>
</g>
<use x="40.603125" y="106.829413" stroke="#000000" stroke-width=".8" xlink:href="#b"/>
<defs>
<path id="n" d="m40.578 39.312q7.0781-1.5156 11.047-6.3125 3.9844-4.7812 3.9844-11.812 0-10.781-7.4219-16.703-7.4219-5.9062-21.094-5.9062-4.5781 0-9.4375 0.90625t-10.031 2.7188v9.5156q4.0938-2.3906 8.9688-3.6094 4.8906-1.2188 10.219-1.2188 9.2656 0 14.125 3.6562t4.8594 10.641q0 6.4531-4.5156 10.078-4.5156 3.6406-12.562 3.6406h-8.5v8.1094h8.8906q7.2656 0 11.125 2.9062t3.8594 8.375q0 5.6094-3.9844 8.6094-3.9688 3.0156-11.391 3.0156-4.0625 0-8.7031-0.89062-4.6406-0.875-10.203-2.7188v8.7812q5.625 1.5625 10.531 2.3438t9.25 0.78125q11.234 0 17.766-5.1094 6.5469-5.0938 6.5469-13.781 0-6.0625-3.4688-10.234t-9.8594-5.7812z"/>
</defs>
<g transform="translate(16.003 110.63) scale(.1 -.1)">
<use transform="translate(0 .76562)" xlink:href="#e"/>
<use transform="translate(63.623 .76562)" xlink:href="#f"/>
<use transform="translate(128.2 39.047) scale(.7)" xlink:href="#n"/>
</g>
<use x="40.603125" y="83.191514" stroke="#000000" stroke-width=".8" xlink:href="#b"/>
<defs>
<path id="l" d="m37.797 64.312-24.906-38.922h24.906zm-2.5938 8.5938h12.406v-47.516h10.406v-8.2031h-10.406v-17.188h-9.8125v17.188h-32.906v9.5156z"/>
</defs>
<g transform="translate(16.003 86.991) scale(.1 -.1)">
<use transform="translate(0 .68438)" xlink:href="#e"/>
<use transform="translate(63.623 .68438)" xlink:href="#f"/>
<use transform="translate(128.2 38.966) scale(.7)" xlink:href="#l"/>
</g>
<use x="40.603125" y="59.553615" stroke="#000000" stroke-width=".8" xlink:href="#b"/>
<defs>
<path id="v" d="m10.797 72.906h38.719v-8.3125h-29.688v-17.859q2.1406 0.73438 4.2812 1.0938 2.1562 0.35938 4.3125 0.35938 12.203 0 19.328-6.6875 7.1406-6.6875 7.1406-18.109 0-11.766-7.3281-18.297-7.3281-6.5156-20.656-6.5156-4.5938 0-9.3594 0.78125-4.75 0.78125-9.8281 2.3438v9.9219q4.3906-2.3906 9.0781-3.5625t9.9062-1.1719q8.4531 0 13.375 4.4375 4.9375 4.4375 4.9375 12.062 0 7.6094-4.9375 12.047-4.9219 4.4531-13.375 4.4531-3.9531 0-7.8906-0.875-3.9219-0.875-8.0156-2.7344z"/>
</defs>
<g transform="translate(16.003 63.353) scale(.1 -.1)">
<use transform="translate(0 .68438)" xlink:href="#e"/>
<use transform="translate(63.623 .68438)" xlink:href="#f"/>
<use transform="translate(128.2 38.966) scale(.7)" xlink:href="#v"/>
</g>
<use x="40.603125" y="35.915717" stroke="#000000" stroke-width=".8" xlink:href="#b"/>
<defs>
<path id="ae" d="m33.016 40.375q-6.6406 0-10.531-4.5469-3.875-4.5312-3.875-12.438 0-7.8594 3.875-12.438 3.8906-4.5625 10.531-4.5625t10.516 4.5625q3.875 4.5781 3.875 12.438 0 7.9062-3.875 12.438-3.875 4.5469-10.516 4.5469zm19.578 30.922v-8.9844q-3.7188 1.75-7.5 2.6719-3.7812 0.9375-7.5 0.9375-9.7656 0-14.922-6.5938-5.1406-6.5938-5.875-19.922 2.875 4.25 7.2188 6.5156 4.3594 2.2656 9.5781 2.2656 10.984 0 17.359-6.6719 6.375-6.6562 6.375-18.125 0-11.234-6.6406-18.031-6.6406-6.7812-17.672-6.7812-12.656 0-19.344 9.6875-6.6875 9.7031-6.6875 28.109 0 17.281 8.2031 27.562t22.016 10.281q3.7188 0 7.5-0.73438t7.8906-2.1875z"/>
</defs>
<g transform="translate(16.003 39.715) scale(.1 -.1)">
<use transform="translate(0 .76562)" xlink:href="#e"/>
<use transform="translate(63.623 .76562)" xlink:href="#f"/>
<use transform="translate(128.2 39.047) scale(.7)" xlink:href="#ae"/>
</g>
<defs>
<path id="a" d="m0 0h-2" stroke="#000" stroke-width=".6"/>
</defs>
<use x="40.603125" y="170.627393" stroke="#000000" stroke-width=".6" xlink:href="#a"/>
<use x="40.603125" y="166.464966" stroke="#000000" stroke-width=".6" xlink:href="#a"/>
<use x="40.603125" y="163.511677" stroke="#000000" stroke-width=".6" xlink:href="#a"/>
<use x="40.603125" y="161.220927" stroke="#000000" stroke-width=".6" xlink:href="#a"/>
<use x="40.603125" y="159.349249" stroke="#000000" stroke-width=".6" xlink:href="#a"/>
<use x="40.603125" y="157.766768" stroke="#000000" stroke-width=".6" xlink:href="#a"/>
<use x="40.603125" y="156.39596" stroke="#000000" stroke-width=".6" xlink:href="#a"/>
<use x="40.603125" y="155.186822" stroke="#000000" stroke-width=".6" xlink:href="#a"/>
<use x="40.603125" y="146.989494" stroke="#000000" stroke-width=".6" xlink:href="#a"/>
<use x="40.603125" y="142.827067" stroke="#000000" stroke-width=".6" xlink:href="#a"/>
<use x="40.603125" y="139.873778" stroke="#000000" stroke-width=".6" xlink:href="#a"/>
<use x="40.603125" y="137.583029" stroke="#000000" stroke-width=".6" xlink:href="#a"/>
<use x="40.603125" y="135.71135" stroke="#000000" stroke-width=".6" xlink:href="#a"/>
<use x="40.603125" y="134.128869" stroke="#000000" stroke-width=".6" xlink:href="#a"/>
<use x="40.603125" y="132.758061" stroke="#000000" stroke-width=".6" xlink:href="#a"/>
<use x="40.603125" y="131.548923" stroke="#000000" stroke-width=".6" xlink:href="#a"/>
<use x="40.603125" y="123.351595" stroke="#000000" stroke-width=".6" xlink:href="#a"/>
<use x="40.603125" y="119.189168" stroke="#000000" stroke-width=".6" xlink:href="#a"/>
<use x="40.603125" y="116.235879" stroke="#000000" stroke-width=".6" xlink:href="#a"/>
<use x="40.603125" y="113.94513" stroke="#000000" stroke-width=".6" xlink:href="#a"/>
<use x="40.603125" y="112.073451" stroke="#000000" stroke-width=".6" xlink:href="#a"/>
<use x="40.603125" y="110.49097" stroke="#000000" stroke-width=".6" xlink:href="#a"/>
<use x="40.603125" y="109.120162" stroke="#000000" stroke-width=".6" xlink:href="#a"/>
<use x="40.603125" y="107.911024" stroke="#000000" stroke-width=".6" xlink:href="#a"/>
<use x="40.603125" y="99.713697" stroke="#000000" stroke-width=".6" xlink:href="#a"/>
<use x="40.603125" y="95.551269" stroke="#000000" stroke-width=".6" xlink:href="#a"/>
<use x="40.603125" y="92.59798" stroke="#000000" stroke-width=".6" xlink:href="#a"/>
<use x="40.603125" y="90.307231" stroke="#000000" stroke-width=".6" xlink:href="#a"/>
<use x="40.603125" y="88.435553" stroke="#000000" stroke-width=".6" xlink:href="#a"/>
<use x="40.603125" y="86.853071" stroke="#000000" stroke-width=".6" xlink:href="#a"/>
<use x="40.603125" y="85.482263" stroke="#000000" stroke-width=".6" xlink:href="#a"/>
<use x="40.603125" y="84.273125" stroke="#000000" stroke-width=".6" xlink:href="#a"/>
<use x="40.603125" y="76.075798" stroke="#000000" stroke-width=".6" xlink:href="#a"/>
<use x="40.603125" y="71.91337" stroke="#000000" stroke-width=".6" xlink:href="#a"/>
<use x="40.603125" y="68.960081" stroke="#000000" stroke-width=".6" xlink:href="#a"/>
<use x="40.603125" y="66.669332" stroke="#000000" stroke-width=".6" xlink:href="#a"/>
<use x="40.603125" y="64.797654" stroke="#000000" stroke-width=".6" xlink:href="#a"/>
<use x="40.603125" y="63.215172" stroke="#000000" stroke-width=".6" xlink:href="#a"/>
<use x="40.603125" y="61.844365" stroke="#000000" stroke-width=".6" xlink:href="#a"/>
<use x="40.603125" y="60.635226" stroke="#000000" stroke-width=".6" xlink:href="#a"/>
<use x="40.603125" y="52.437899" stroke="#000000" stroke-width=".6" xlink:href="#a"/>
<use x="40.603125" y="48.275471" stroke="#000000" stroke-width=".6" xlink:href="#a"/>
<use x="40.603125" y="45.322182" stroke="#000000" stroke-width=".6" xlink:href="#a"/>
<use x="40.603125" y="43.031433" stroke="#000000" stroke-width=".6" xlink:href="#a"/>
<use x="40.603125" y="41.159755" stroke="#000000" stroke-width=".6" xlink:href="#a"/>
<use x="40.603125" y="39.577273" stroke="#000000" stroke-width=".6" xlink:href="#a"/>
<use x="40.603125" y="38.206466" stroke="#000000" stroke-width=".6" xlink:href="#a"/>
<use x="40.603125" y="36.997328" stroke="#000000" stroke-width=".6" xlink:href="#a"/>
<use x="40.603125" y="28.8" stroke="#000000" stroke-width=".6" xlink:href="#a"/>
<path d="m60.877 172.16 1.9003-0.34902 2.1378-0.61247 2.6129-0.98529 2.6129-1.2088 2.3754-1.3866 3.563-2.3559 4.5132-3.0077 2.6129-1.3762 2.8504-1.235 3.088-1.0969 3.563-1.0207 3.8006-0.85462 5.7008-1.1894 8.3137-3.0135 5.2258-1.7085 2.8504-0.62123 3.088-0.45544 3.3255-0.2672 3.3255-0.051745 4.2756 0.18544 4.2756 0.40141 5.4633 0.77154 9.2639 1.5381 7.3636 1.4603 4.2756 0.74803 3.088 0.76837 6.651 1.8086 2.8504 0.20494 2.8504-0.010559 2.1378-0.17851 2.8504-0.58899 5.2258-0.935 6.1759-0.88329 2.3754-0.38356 4.9882-0.99168 4.7507-0.72817 4.5132-0.46838 4.0381-0.21611 3.563 0.026741 3.563 0.24381 3.3255 0.23737 4.0381 0.018073 1.1877-0.15408 3.563-0.92006 5.2258-1.2059 5.2258-0.96372 13.54-2.0923 6.1759-0.77324 1.6627-0.50025 3.563-1.1742 4.7507-1.301 3.563-0.72229 3.8006-0.53621 7.3636-0.73449 3.8006-0.1829 4.0381 0.036054 4.2756 0.06947 4.5132-0.003966 4.2756 0.22791 4.9882 0.29117 6.4135 0.22029 9.9765 9.92e-4 2.8504-0.048203 2.1378-0.37611 8.0762-1.734 9.2639-2.2051 5.7008-1.2268 5.4633-1.1579 3.563-0.47397 3.563-0.30646 6.651-0.29008 8.0762-0.068202 5.7008 0.1318 5.2258 0.32705 4.9882 0.44034 12.352 1.0811 15.44-0.064425 4.7507-0.13423 4.5132 0.11198 4.2756 0.36124 6.8885 0.70364 5.9384 0.87602 4.7507 0.89045 3.088 0.83729 0.95014 0.29947v0" clip-path="url(#k)" fill="none" stroke="#dc143c" stroke-linecap="square" stroke-width="1.5"/>
<path d="m40.603 170.63v-141.83" fill="none" stroke="#000" stroke-linecap="square" stroke-width=".8"/>
<path d="m486.62 170.63v-141.83" fill="none" stroke="#000" stroke-linecap="square" stroke-width=".8"/>
<path d="m40.603 170.63h446.02" fill="none" stroke="#000" stroke-linecap="square" stroke-width=".8"/>
<path d="m40.603 28.8h446.02" fill="none" stroke="#000" stroke-linecap="square" stroke-width=".8"/>
<path d="m324.59 66.156h155.04q2 0 2-2v-28.356q0-2-2-2h-155.04q-2 0-2 2v28.356q0 2 2 2z" fill="#fff" opacity=".8" stroke="#ccc"/>
<path d="m326.59 41.898h20" fill="none" stroke="#dc143c" stroke-linecap="square" stroke-width="1.5"/>
<defs>
<path id="h" d="m41.109 46.297q-1.5156 0.875-3.2969 1.2812-1.7812 0.42188-3.9219 0.42188-7.625 0-11.703-4.9531t-4.0781-14.234v-28.812h-9.0312v54.688h9.0312v-8.5q2.8438 4.9844 7.375 7.3906 4.5469 2.4219 11.047 2.4219 0.92188 0 2.0469-0.125 1.125-0.10938 2.4844-0.35938z"/>
<path id="i" d="m34.281 27.484q-10.891 0-15.094-2.4844t-4.2031-8.5q0-4.7812 3.1562-7.5938 3.1562-2.7969 8.5625-2.7969 7.4844 0 12 5.2969t4.5156 14.078v2zm17.922 3.7188v-31.203h-8.9844v8.2969q-3.0781-4.9688-7.6719-7.3438t-11.234-2.375q-8.3906 0-13.359 4.7188-4.9531 4.7188-4.9531 12.625 0 9.2188 6.1719 13.906 6.1875 4.6875 18.438 4.6875h12.609v0.89062q0 6.2031-4.0781 9.5938t-11.453 3.3906q-4.6875 0-9.1406-1.125-4.4375-1.125-8.5312-3.375v8.3125q4.9219 1.9062 9.5625 2.8438 4.6406 0.95312 9.0312 0.95312 11.875 0 17.734-6.1562 5.8594-6.1406 5.8594-18.641z"/>
<path id="s" d="m18.312 70.219v-15.531h18.5v-6.9844h-18.5v-29.688q0-6.6875 1.8281-8.5938t7.4531-1.9062h9.2188v-7.5156h-9.2188q-10.406 0-14.359 3.875-3.9531 3.8906-3.9531 14.141v29.688h-6.5938v6.9844h6.5938v15.531z"/>
<path id="c" d="m56.203 29.594v-4.3906h-41.312q0.59375-9.2812 5.5938-14.141t13.938-4.8594q5.1719 0 10.031 1.2656t9.6562 3.8125v-8.5q-4.8438-2.0469-9.9219-3.125t-10.297-1.0781q-13.094 0-20.734 7.6094-7.6406 7.625-7.6406 20.625 0 13.422 7.25 21.297 7.25 7.8906 19.562 7.8906 11.031 0 17.453-7.1094 6.4219-7.0938 6.4219-19.297zm-8.9844 2.6406q-0.09375 7.3594-4.125 11.75-4.0312 4.4062-10.672 4.4062-7.5156 0-12.031-4.25t-5.2031-11.969z"/>
<path id="m" d="m30.609 48.391q-7.2188 0-11.422-5.6406t-4.2031-15.453 4.1719-15.453q4.1875-5.6406 11.453-5.6406 7.1875 0 11.375 5.6562 4.2031 5.6719 4.2031 15.438 0 9.7188-4.2031 15.406-4.1875 5.6875-11.375 5.6875zm0 7.6094q11.719 0 18.406-7.625 6.7031-7.6094 6.7031-21.078 0-13.422-6.7031-21.078-6.6875-7.6406-18.406-7.6406-11.766 0-18.438 7.6406-6.6562 7.6562-6.6562 21.078 0 13.469 6.6562 21.078 6.6719 7.625 18.438 7.625z"/>
<path id="ab" d="m37.109 75.984v-7.4844h-8.5938q-4.8281 0-6.7188-1.9531-1.875-1.9531-1.875-7.0312v-4.8281h14.797v-6.9844h-14.797v-47.703h-9.0312v47.703h-8.5938v6.9844h8.5938v3.8125q0 9.125 4.25 13.297 4.25 4.1875 13.469 4.1875z"/>
<path id="o" d="m9.4219 54.688h8.9844v-54.688h-8.9844zm0 21.297h8.9844v-11.391h-8.9844z"/>
<path id="t" d="m9.4219 75.984h8.9844v-75.984h-8.9844z"/>
<path id="y" d="m8.5 21.578v33.109h8.9844v-32.766q0-7.7656 3.0156-11.656 3.0312-3.875 9.0938-3.875 7.2656 0 11.484 4.6406 4.2344 4.6406 4.2344 12.656v31h8.9844v-54.688h-8.9844v8.4062q-3.2656-4.9844-7.5938-7.4062-4.3125-2.4219-10.031-2.4219-9.4219 0-14.312 5.8594-4.875 5.8594-4.875 17.141zm22.609 34.422z"/>
<path id="j" d="m44.281 53.078v-8.5q-3.7969 1.9531-7.9062 2.9219-4.0938 0.98438-8.5 0.98438-6.6875 0-10.031-2.0469t-3.3438-6.1562q0-3.125 2.3906-4.9062t9.625-3.3906l3.0781-0.6875q9.5625-2.0469 13.594-5.7812t4.0312-10.422q0-7.625-6.0312-12.078-6.0312-4.4375-16.578-4.4375-4.3906 0-9.1562 0.85938t-10.031 2.5625v9.2812q4.9844-2.5938 9.8125-3.8906 4.8281-1.2812 9.5781-1.2812 6.3438 0 9.75 2.1719 3.4219 2.1719 3.4219 6.125 0 3.6562-2.4688 5.6094-2.4531 1.9531-10.812 3.7656l-3.125 0.73438q-8.3438 1.75-12.062 5.3906-3.7031 3.6406-3.7031 9.9844 0 7.7188 5.4688 11.906 5.4688 4.2031 15.531 4.2031 4.9688 0 9.3594-0.73438 4.4062-0.71875 8.1094-2.1875z"/>
<path id="x" d="m31 75.875q-6.5312-11.219-9.7188-22.219-3.1719-10.984-3.1719-22.266 0-11.266 3.2031-22.328t9.6875-22.25h-7.8125q-7.3125 11.484-10.953 22.562t-3.6406 22.016q0 10.891 3.6094 21.922 3.625 11.047 10.984 22.562z"/>
<path id="p" d="m45.406 46.391v29.594h8.9844v-75.984h-8.9844v8.2031q-2.8281-4.875-7.1562-7.25-4.3125-2.375-10.375-2.375-9.9062 0-16.141 7.9062-6.2188 7.9219-6.2188 20.812t6.2188 20.797q6.2344 7.9062 16.141 7.9062 6.0625 0 10.375-2.375 4.3281-2.3594 7.1562-7.2344zm-30.609-19.094q0-9.9062 4.0781-15.547t11.203-5.6406 11.219 5.6406q4.1094 5.6406 4.1094 15.547t-4.1094 15.547q-4.0938 5.6406-11.219 5.6406t-11.203-5.6406-4.0781-15.547z"/>
<path id="z" d="m9.0781 75.984h9.0312v-44.875l26.812 23.578h11.469l-29-25.578 30.234-29.109h-11.719l-27.797 26.703v-26.703h-9.0312z"/>
<path id="af" d="m25.391 72.906h8.2969l-25.391-82.188h-8.2969z"/>
<path id="r" d="m32.172-5.0781q-3.7969-9.7656-7.4219-12.734-3.6094-2.9844-9.6562-2.9844h-7.1875v7.5156h5.2812q3.7031 0 5.75 1.7656 2.0625 1.75 4.5469 8.2969l1.6094 4.0938-22.109 53.812h9.5156l17.094-42.766 17.094 42.766h9.5156z"/>
<path id="w" d="m8.0156 75.875h7.8125q7.3125-11.516 10.953-22.562 3.6406-11.031 3.6406-21.922 0-10.938-3.6406-22.016t-10.953-22.562h-7.8125q6.4844 11.188 9.6875 22.25t3.2031 22.328q0 11.281-3.2031 22.266-3.2031 11-9.6875 22.219z"/>
</defs>
<g transform="translate(354.59 45.398) scale(.1 -.1)">
<use xlink:href="#h"/>
<use x="41.113281" xlink:href="#i"/>
<use x="102.392578" xlink:href="#s"/>
<use x="141.601562" xlink:href="#c"/>
<use x="203.125" xlink:href="#DejaVuSans-20"/>
<use x="234.912109" xlink:href="#m"/>
<use x="296.09375" xlink:href="#ab"/>
<use x="331.298828" xlink:href="#DejaVuSans-20"/>
<use x="363.085938" xlink:href="#ab"/>
<use x="398.291016" xlink:href="#i"/>
<use x="459.570312" xlink:href="#o"/>
<use x="487.353516" xlink:href="#t"/>
<use x="515.136719" xlink:href="#y"/>
<use x="578.515625" xlink:href="#h"/>
<use x="619.597656" xlink:href="#c"/>
<use x="681.121094" xlink:href="#j"/>
<use x="733.220703" xlink:href="#DejaVuSans-20"/>
<use x="765.007812" xlink:href="#x"/>
<use x="804.021484" xlink:href="#p"/>
<use x="867.498047" xlink:href="#o"/>
<use x="895.28125" xlink:href="#j"/>
<use x="947.380859" xlink:href="#z"/>
<use x="1005.291016" xlink:href="#j"/>
<use x="1057.390625" xlink:href="#af"/>
<use x="1091.082031" xlink:href="#r"/>
<use x="1150.261719" xlink:href="#h"/>
<use x="1191.375" xlink:href="#w"/>
</g>
<path d="m326.59 60.077h20v-7h-20z" fill="#0766aa" fill-opacity=".2" stroke="#0766aa" stroke-opacity=".2"/>
<defs>
<path id="al" d="m48.688 27.297q0 9.9062-4.0781 15.547t-11.203 5.6406q-7.1406 0-11.219-5.6406t-4.0781-15.547 4.0781-15.547 11.219-5.6406q7.125 0 11.203 5.6406t4.0781 15.547zm-30.578 19.094q2.8438 4.875 7.1562 7.2344 4.3281 2.375 10.328 2.375 9.9688 0 16.188-7.9062 6.2344-7.9062 6.2344-20.797t-6.2344-20.812q-6.2188-7.9062-16.188-7.9062-6 0-10.328 2.375-4.3125 2.375-7.1562 7.25v-8.2031h-9.0312v75.984h9.0312z"/>
<path id="ai" d="m2.9844 54.688h9.5156l17.094-45.891 17.094 45.891h9.5156l-20.516-54.688h-12.203z"/>
</defs>
<g transform="translate(354.59 60.077) scale(.1 -.1)">
<use xlink:href="#p"/>
<use x="63.476562" xlink:href="#o"/>
<use x="91.259766" xlink:href="#j"/>
<use x="143.359375" xlink:href="#z"/>
<use x="201.269531" xlink:href="#j"/>
<use x="253.369141" xlink:href="#DejaVuSans-20"/>
<use x="285.15625" xlink:href="#m"/>
<use x="346.337891" xlink:href="#al"/>
<use x="409.814453" xlink:href="#j"/>
<use x="461.914062" xlink:href="#c"/>
<use x="523.4375" xlink:href="#h"/>
<use x="564.550781" xlink:href="#ai"/>
<use x="623.730469" xlink:href="#c"/>
<use x="685.253906" xlink:href="#p"/>
</g>
<path d="m40.603 375.64h446.02v-189.1h-446.02z" fill="#fff"/>
<path d="m76.765 375.64v-189.1" clip-path="url(#d)" fill="none" stroke="#b0b0b0" stroke-linecap="square" stroke-width=".8"/>
<use x="76.764507" y="375.64" stroke="#000000" stroke-width=".8" xlink:href="#g"/>
<g transform="translate(73.583 390.24) scale(.1 -.1)">
<use xlink:href="#q"/>
</g>
<path d="m180.65 375.64v-189.1" clip-path="url(#d)" fill="none" stroke="#b0b0b0" stroke-linecap="square" stroke-width=".8"/>
<use x="180.651651" y="375.64" stroke="#000000" stroke-width=".8" xlink:href="#g"/>
<g transform="translate(177.47 390.24) scale(.1 -.1)">
<use xlink:href="#n"/>
</g>
<path d="m284.54 375.64v-189.1" clip-path="url(#d)" fill="none" stroke="#b0b0b0" stroke-linecap="square" stroke-width=".8"/>
<use x="284.538794" y="375.64" stroke="#000000" stroke-width=".8" xlink:href="#g"/>
<g transform="translate(281.36 390.24) scale(.1 -.1)">
<use xlink:href="#l"/>
</g>
<path d="m388.43 375.64v-189.1" clip-path="url(#d)" fill="none" stroke="#b0b0b0" stroke-linecap="square" stroke-width=".8"/>
<use x="388.425938" y="375.64" stroke="#000000" stroke-width=".8" xlink:href="#g"/>
<g transform="translate(385.24 390.24) scale(.1 -.1)">
<use xlink:href="#v"/>
</g>
<defs>
<path id="ac" d="m34.188 63.188-13.391-36.281h26.812zm-5.5781 9.7188h11.188l27.781-72.906h-10.25l-6.6406 18.703h-32.859l-6.6406-18.703h-10.406z"/>
<path id="aa" d="m45.406 27.984q0 9.7656-4.0312 15.125-4.0156 5.375-11.297 5.375-7.2188 0-11.25-5.375-4.0312-5.3594-4.0312-15.125 0-9.7188 4.0312-15.094t11.25-5.375q7.2812 0 11.297 5.375 4.0312 5.375 4.0312 15.094zm8.9844-21.203q0-13.953-6.2031-20.766-6.1875-6.8125-18.984-6.8125-4.7344 0-8.9375 0.70312t-8.1562 2.1719v8.7344q3.9531-2.1406 7.8125-3.1562 3.8594-1.0312 7.8594-1.0312 8.8438 0 13.234 4.6094t4.3906 13.938v4.4531q-2.7812-4.8438-7.125-7.2344t-10.406-2.3906q-10.047 0-16.203 7.6562-6.1562 7.6719-6.1562 20.328 0 12.688 6.1562 20.344 6.1562 7.6719 16.203 7.6719 6.0625 0 10.406-2.3906t7.125-7.2188v8.2969h8.9844z"/>
<path id="aj" d="m18.109 8.2031v-29h-9.0312v75.484h9.0312v-8.2969q2.8438 4.875 7.1562 7.2344 4.3281 2.375 10.328 2.375 9.9688 0 16.188-7.9062 6.2344-7.9062 6.2344-20.797t-6.2344-20.812q-6.2188-7.9062-16.188-7.9062-6 0-10.328 2.375-4.3125 2.375-7.1562 7.25zm30.578 19.094q0 9.9062-4.0781 15.547t-11.203 5.6406q-7.1406 0-11.219-5.6406t-4.0781-15.547 4.0781-15.547 11.219-5.6406q7.125 0 11.203 5.6406t4.0781 15.547z"/>
<path id="ah" d="m4.2031 54.688h8.9844l11.234-42.672 11.172 42.672h10.594l11.234-42.672 11.188 42.672h8.9844l-14.312-54.688h-10.594l-11.766 44.828-11.812-44.828h-10.609z"/>
<path id="ar" d="m4.8906 31.391h26.312v-8h-26.312z"/>
<path id="ak" d="m54.891 33.016v-33.016h-8.9844v32.719q0 7.7656-3.0312 11.609-3.0312 3.8594-9.0781 3.8594-7.2812 0-11.484-4.6406-4.2031-4.625-4.2031-12.641v-30.906h-9.0312v54.688h9.0312v-8.5q3.2344 4.9375 7.5938 7.375 4.375 2.4375 10.094 2.4375 9.4219 0 14.25-5.8281 4.8438-5.8281 4.8438-17.156z"/>
</defs>
<g transform="translate(209.62 403.92) scale(.1 -.1)">
<use xlink:href="#ac"/>
<use x="68.408203" xlink:href="#aa"/>
<use x="131.884766" xlink:href="#c"/>
<use x="193.408203" xlink:href="#DejaVuSans-20"/>
<use x="225.195312" xlink:href="#x"/>
<use x="264.208984" xlink:href="#aj"/>
<use x="327.685547" xlink:href="#m"/>
<use x="388.867188" xlink:href="#ah"/>
<use x="470.654297" xlink:href="#c"/>
<use x="532.177734" xlink:href="#h"/>
<use x="573.197266" xlink:href="#ar"/>
<use x="609.296875" xlink:href="#m"/>
<use x="670.478516" xlink:href="#ak"/>
<use x="733.857422" xlink:href="#DejaVuSans-20"/>
<use x="765.644531" xlink:href="#r"/>
<use x="824.824219" xlink:href="#c"/>
<use x="886.347656" xlink:href="#i"/>
<use x="947.626953" xlink:href="#h"/>
<use x="988.740234" xlink:href="#j"/>
<use x="1040.839844" xlink:href="#w"/>
</g>
<path d="m40.603 375.64h446.02" clip-path="url(#d)" fill="none" stroke="#b0b0b0" stroke-linecap="square" stroke-width=".8"/>
<use x="40.603125" y="375.64" stroke="#000000" stroke-width=".8" xlink:href="#b"/>
<g transform="translate(27.241 379.44) scale(.1 -.1)">
<use xlink:href="#f"/>
</g>
<path d="m40.603 344.12h446.02" clip-path="url(#d)" fill="none" stroke="#b0b0b0" stroke-linecap="square" stroke-width=".8"/>
<use x="40.603125" y="344.122802" stroke="#000000" stroke-width=".8" xlink:href="#b"/>
<defs>
<path id="ad" d="m31.781 34.625q-7.0312 0-11.062-3.7656-4.0156-3.7656-4.0156-10.344 0-6.5938 4.0156-10.359 4.0312-3.7656 11.062-3.7656t11.078 3.7812q4.0625 3.7969 4.0625 10.344 0 6.5781-4.0312 10.344-4.0156 3.7656-11.109 3.7656zm-9.8594 4.1875q-6.3438 1.5625-9.8906 5.9062-3.5312 4.3594-3.5312 10.609 0 8.7344 6.2188 13.812 6.2344 5.0781 17.062 5.0781 10.891 0 17.094-5.0781t6.2031-13.812q0-6.25-3.5469-10.609-3.5312-4.3438-9.8281-5.9062 7.125-1.6562 11.094-6.5 3.9844-4.8281 3.9844-11.797 0-10.609-6.4688-16.281-6.4688-5.6562-18.531-5.6562-12.047 0-18.531 5.6562-6.4688 5.6719-6.4688 16.281 0 6.9688 4 11.797 4.0156 4.8438 11.141 6.5zm-3.6094 15.578q0-5.6562 3.5312-8.8281 3.5469-3.1719 9.9375-3.1719 6.3594 0 9.9375 3.1719 3.5938 3.1719 3.5938 8.8281 0 5.6719-3.5938 8.8438-3.5781 3.1719-9.9375 3.1719-6.3906 0-9.9375-3.1719-3.5312-3.1719-3.5312-8.8438z"/>
</defs>
<g transform="translate(27.241 347.92) scale(.1 -.1)">
<use xlink:href="#ad"/>
</g>
<path d="m40.603 312.61h446.02" clip-path="url(#d)" fill="none" stroke="#b0b0b0" stroke-linecap="square" stroke-width=".8"/>
<use x="40.603125" y="312.605603" stroke="#000000" stroke-width=".8" xlink:href="#b"/>
<g transform="translate(20.878 316.4) scale(.1 -.1)">
<use xlink:href="#e"/>
<use x="63.623047" xlink:href="#ae"/>
</g>
<path d="m40.603 281.09h446.02" clip-path="url(#d)" fill="none" stroke="#b0b0b0" stroke-linecap="square" stroke-width=".8"/>
<use x="40.603125" y="281.088405" stroke="#000000" stroke-width=".8" xlink:href="#b"/>
<g transform="translate(20.878 284.89) scale(.1 -.1)">
<use xlink:href="#q"/>
<use x="63.623047" xlink:href="#l"/>
</g>
<path d="m40.603 249.57h446.02" clip-path="url(#d)" fill="none" stroke="#b0b0b0" stroke-linecap="square" stroke-width=".8"/>
<use x="40.603125" y="249.571206" stroke="#000000" stroke-width=".8" xlink:href="#b"/>
<g transform="translate(20.878 253.37) scale(.1 -.1)">
<use xlink:href="#n"/>
<use x="63.623047" xlink:href="#q"/>
</g>
<path d="m40.603 218.05h446.02" clip-path="url(#d)" fill="none" stroke="#b0b0b0" stroke-linecap="square" stroke-width=".8"/>
<use x="40.603125" y="218.054008" stroke="#000000" stroke-width=".8" xlink:href="#b"/>
<g transform="translate(20.878 221.85) scale(.1 -.1)">
<use xlink:href="#l"/>
<use x="63.623047" xlink:href="#f"/>
</g>
<path d="m40.603 186.54h446.02" clip-path="url(#d)" fill="none" stroke="#b0b0b0" stroke-linecap="square" stroke-width=".8"/>
<use x="40.603125" y="186.536809" stroke="#000000" stroke-width=".8" xlink:href="#b"/>
<g transform="translate(20.878 190.34) scale(.1 -.1)">
<use xlink:href="#l"/>
<use x="63.623047" xlink:href="#ad"/>
</g>
<defs>
<path id="ap" d="m9.8125 72.906h41.891v-8.3125h-32.031v-21.484h28.906v-8.2969h-28.906v-34.812h-9.8594z"/>
<path id="an" d="m44.391 34.188q3.1719-1.0781 6.1719-4.5938t6.0312-9.6719l10.016-19.922h-10.609l-9.3125 18.703q-3.625 7.3281-7.0156 9.7188t-9.25 2.3906h-10.75v-30.812h-9.8594v72.906h22.266q12.5 0 18.656-5.2344 6.1562-5.2188 6.1562-15.766 0-6.8906-3.2031-11.438-3.2031-4.5312-9.2969-6.2812zm-24.719 30.609v-25.875h12.406q7.125 0 10.766 3.2969t3.6406 9.6875-3.6406 9.6406-10.766 3.25z"/>
<path id="as" d="m72.703 32.078q-4.25 0-6.6719-3.6094-2.4062-3.6094-2.4062-10.062 0-6.3438 2.4062-9.9844 2.4219-3.6406 6.6719-3.6406 4.1562 0 6.5625 3.6406 2.4219 3.6406 2.4219 9.9844 0 6.4062-2.4219 10.031-2.4062 3.6406-6.5625 3.6406zm0 6.2031q7.7188 0 12.25-5.375 4.5469-5.3594 4.5469-14.5 0-9.125-4.5625-14.484-4.5625-5.3438-12.234-5.3438-7.8125 0-12.359 5.3438-4.5312 5.3594-4.5312 14.484 0 9.1875 4.5625 14.531t12.328 5.3438zm-50.391 29.734q-4.2031 0-6.625-3.6406-2.4062-3.625-2.4062-9.9844 0-6.4375 2.3906-10.062 2.3906-3.6094 6.6406-3.6094t6.6562 3.6094q2.4219 3.625 2.4219 10.062 0 6.2969-2.4375 9.9531-2.4375 3.6719-6.6406 3.6719zm44.094 6.2031h7.8125l-45.609-75.641h-7.8125zm-44.094 0q7.7188 0 12.297-5.3438 4.5938-5.3438 4.5938-14.484 0-9.2188-4.5625-14.547t-12.328-5.3281-12.281 5.3438q-4.5156 5.3594-4.5156 14.531 0 9.0938 4.5312 14.453 4.5469 5.375 12.266 5.375z"/>
</defs>
<g transform="translate(14.798 334.34) rotate(-90) scale(.1 -.1)">
<use xlink:href="#ap"/>
<use x="57.378906" xlink:href="#i"/>
<use x="118.658203" xlink:href="#o"/>
<use x="146.441406" xlink:href="#t"/>
<use x="174.224609" xlink:href="#y"/>
<use x="237.603516" xlink:href="#h"/>
<use x="278.685547" xlink:href="#c"/>
<use x="340.208984" xlink:href="#DejaVuSans-20"/>
<use x="371.996094" xlink:href="#an"/>
<use x="441.447266" xlink:href="#i"/>
<use x="502.726562" xlink:href="#s"/>
<use x="541.935547" xlink:href="#c"/>
<use x="603.458984" xlink:href="#DejaVuSans-20"/>
<use x="635.246094" xlink:href="#x"/>
<use x="674.259766" xlink:href="#as"/>
<use x="769.279297" xlink:href="#af"/>
<use x="802.970703" xlink:href="#r"/>
<use x="862.150391" xlink:href="#c"/>
<use x="923.673828" xlink:href="#i"/>
<use x="984.953125" xlink:href="#h"/>
<use x="1026.066406" xlink:href="#w"/>
</g>
<path d="m60.877 354.15 1.1877 0.15337 1.4252-0.074235 1.4252-0.29727 1.6627-0.58005 1.6627-0.81063 1.1877-0.7474 1.1877-0.98954 1.4252-1.4781 1.6627-2.0762 1.6627-2.4427 1.9003-3.2448 4.9882-8.9441 2.1378-3.2074 2.1378-2.7954 2.1378-2.4394 2.1378-2.1033 2.1378-1.7847 2.3754-1.6713 2.1378-1.1997 1.6627-0.95606 1.6627-1.2473 1.4252-1.3332 2.3754-4.4998 3.8006-7.7382 3.088-6.6593 2.6129-6.2024 1.6627-3.2021 1.4252-2.2994 1.4252-1.9027 1.4252-1.5054 1.1877-0.964 1.1877-0.68671 0.95014-0.33296 1.1877-0.17912 0.95014 0.024273 1.1877 0.26231 1.4252 0.40837 1.1877 0.026265 1.6627 0.25662 1.4252 0.49718 1.6627 0.83596 1.6627 1.098 1.6627 1.4022 1.9003 1.9512 4.9882 5.5548 7.1261 8.2451 1.9003 2.7928 1.6627 2.4658 1.1877 1.355 2.1378 2.0192 4.0381 3.5382 1.6627 1.9114 1.9003 2.5342 1.9003 2.9135 2.8504 4.3458 1.1877 1.6134 1.4252 0.70515 1.4252 0.44239 1.1877 0.15192 1.4252-0.051151 1.4252-0.29937 1.1877-0.45729 0.71261-0.44398 0.71261-0.66473 9.7389-11.038 5.7008-6.1049 1.4252-2.4677 3.3255-5.6658 2.1378-3.305 1.9003-2.5161 1.9003-2.221 1.6627-1.5845 1.4252-1.1089 1.1877-0.6948 1.4252-0.57172 1.1877-0.25812 1.1877 0.015295 1.1877 0.24339 2.1378 0.56996 1.4252 0.28471 1.1877 0.42568 1.1877 0.6526 2.3754 1.5157 1.1877 0.38669 1.9003 0.34117 1.9003 0.27214 0.47507 0.26223 0.71261 1.2755 0.71261 0.64407 0.71261 0.38551 3.8006 1.2634 1.1877 0.35114 2.8504-0.42795 2.1378-0.24355 1.9003-0.83708 2.1378-0.69714 2.6129-0.57297 1.6627-0.38462 1.1877-0.41894 1.4252-1.1926 1.9003-1.5212 1.6627-1.2417 1.4252-0.80329 1.6627-0.68448 0.47507-0.24006 3.8006-2.6573 0.71261-0.74013 0.71261-1.3784 0.95014-2.4608 2.6129-7.3781 5.9384-15.615 1.9003-4.3297 1.9003-3.8106 1.9003-3.2687 2.1378-3.1549 2.3754-3.1114 0.7126-1.0409 1.4252-2.1971 1.6627-1.5557 0.95014-0.61947 0.95014-0.40337 0.71261-0.16896 0.95014 0.26028 1.1877 0.55816 1.4252 0.97242 0.95014 0.87361 0.7126 1.0368 1.4252 2.3882 0.95014 1.9649 0.47507 0.55594 0.47507-0.26509 2.1378-2.2396 1.1877-0.89591 0.95014-0.26677 1.1877-0.085756 1.1877 0.15814 1.1877 1.1101 1.4252 2.0777 2.1378 3.5037 1.1877 2.3029 2.6129 4.5067 0.95014 1.7505 0.95014 1.8059 1.9003 4.4815 1.9003 5.3846 0.95014 2.1439 1.6627 3.2199 2.3754 5.0948 5.7008 13.351 1.6627 3.1322 0.95014 1.2936 0.71261 0.44464 0.95014 0.17233 1.9003-0.1198 2.6129-0.32794 1.9003-0.41098 0.71261-0.33643 2.8504-2.1023 1.6627-1.6864 1.6627-1.3502 1.9003-1.278 2.1378-1.414 1.6627-0.91134 1.4252-0.9275 1.4252-1.2008 3.088-3.2212 2.8504-3.2452 1.4252-1.1167 2.1378-1.2564 3.563-1.4397 1.6627-0.17346 2.6129-0.0953 1.1877-0.13494 1.4252 0.087671 3.088 0.42569 4.7507 1.0543 3.088 0.24404 1.4252-0.12817 1.6627 0.066128 2.3754 0.36793 5.9384 1.6614 5.7008 2.7117 1.9003 1.0838 2.3754 1.3833 3.088 1.3232 0.71261-0.0369 1.6627-0.47051 2.3754-1.145 2.6129-1.0136 1.1877-0.92008 2.6129-2.5006 3.088-2.5686 2.8504-3.3035 3.563-4.6905 1.6627-1.7648 1.9003-1.6982 1.4252-0.98401 1.1877-0.58879 1.1877-0.35456 1.1877-0.13579 2.8504-0.040097 1.1877-0.2303 2.1378-0.27472 1.9003-0.39414 1.4252-0.03686 4.5132 0.43713 3.088 0.49801 1.6627 0.71306 1.1877 0.86556 1.1877 1.1956 1.4252 1.8295 0.95014 1.3496v0" clip-path="url(#d)" fill="none" stroke="#d2691e" stroke-linecap="square" stroke-width="1.5"/>
<path d="m40.603 375.64v-189.1" fill="none" stroke="#000" stroke-linecap="square" stroke-width=".8"/>
<path d="m486.62 375.64v-189.1" fill="none" stroke="#000" stroke-linecap="square" stroke-width=".8"/>
<path d="m40.603 375.64h446.02" fill="none" stroke="#000" stroke-linecap="square" stroke-width=".8"/>
<path d="m40.603 186.54h446.02" fill="none" stroke="#000" stroke-linecap="square" stroke-width=".8"/>
<defs>
<path id="ao" d="m9.8125 72.906h14.703l18.594-49.609 18.703 49.609h14.703v-72.906h-9.625v64.016l-18.797-50h-9.9062l-18.797 50v-64.016h-9.5781z"/>
<path id="aq" d="m11.719 12.406h10.297v-12.406h-10.297zm0 39.297h10.297v-12.391h-10.297z"/>
<path id="u" d="m53.516 70.516v-9.625q-5.6094 2.6875-10.594 4-4.9844 1.3281-9.625 1.3281-8.0469 0-12.422-3.125t-4.375-8.8906q0-4.8438 2.9062-7.3125 2.9062-2.4531 11.016-3.9688l5.9531-1.2188q11.031-2.1094 16.281-7.4062t5.25-14.172q0-10.609-7.1094-16.078-7.0938-5.4688-20.812-5.4688-5.1719 0-11.016 1.1719-5.8281 1.1719-12.078 3.4688v10.156q6-3.3594 11.766-5.0781 5.7656-1.7031 11.328-1.7031 8.4375 0 13.031 3.3125 4.5938 3.3281 4.5938 9.4844 0 5.3594-3.2969 8.3906t-10.812 4.5469l-6.0156 1.1719q-11.031 2.1875-15.969 6.875-4.9219 4.6875-4.9219 13.047 0 9.6719 6.8125 15.234t18.766 5.5625q5.1406 0 10.453-0.9375 5.3281-0.92188 10.891-2.7656z"/>
<path id="am" d="m-0.29688 72.906h61.672v-8.3125h-25.875v-64.594h-9.9062v64.594h-25.891z"/>
</defs>
<g transform="translate(153.46 16.318) scale(.12 -.12)">
<use xlink:href="#ao"/>
<use x="86.279297" xlink:href="#m"/>
<use x="147.460938" xlink:href="#p"/>
<use x="210.9375" xlink:href="#c"/>
<use x="272.460938" xlink:href="#t"/>
<use x="300.244141" xlink:href="#aq"/>
<use x="333.935547" xlink:href="#DejaVuSans-20"/>
<use x="365.722656" xlink:href="#u"/>
<use x="429.199219" xlink:href="#c"/>
<use x="490.722656" xlink:href="#i"/>
<use x="552.001953" xlink:href="#aa"/>
<use x="615.478516" xlink:href="#i"/>
<use x="676.757812" xlink:href="#s"/>
<use x="715.966797" xlink:href="#c"/>
<use x="777.490234" xlink:href="#DejaVuSans-20"/>
<use x="809.277344" xlink:href="#u"/>
<use x="872.753906" xlink:href="#am"/>
<use x="933.837891" xlink:href="#n"/>
<use x="997.460938" xlink:href="#e"/>
<use x="1061.083984" xlink:href="#v"/>
<use x="1124.707031" xlink:href="#f"/>
<use x="1188.330078" xlink:href="#f"/>
<use x="1251.953125" xlink:href="#n"/>
<use x="1315.576172" xlink:href="#l"/>
<use x="1379.199219" xlink:href="#e"/>
<use x="1442.822266" xlink:href="#ac"/>
<use x="1511.230469" xlink:href="#u"/>
</g>
<defs>
<clipPath id="k">
<rect x="40.603" y="28.8" width="446.02" height="141.83"/>
</clipPath>
<clipPath id="d">
<rect x="40.603" y="186.54" width="446.02" height="189.1"/>
</clipPath>
</defs>
</svg>
