<?xml version="1.0" encoding="UTF-8"?>
<!DOCTYPE svg  PUBLIC '-//W3C//DTD SVG 1.1//EN'  'http://www.w3.org/Graphics/SVG/1.1/DTD/svg11.dtd'>
<svg width="497pt" height="413pt" version="1.1" viewBox="0 0 497 413" xmlns="http://www.w3.org/2000/svg" xmlns:xlink="http://www.w3.org/1999/xlink">
<defs>
<style type="text/css">*{stroke-linecap:butt;stroke-linejoin:round;}</style>
</defs>
<path d="m0 413.2h497.32v-413.2h-497.32z" fill="#fff"/>
<path d="m40.603 170.63h446.02v-141.83h-446.02z" fill="#fff"/>
<defs>
<path id="ag" d="m82.693-235.45v-29.732l0.23414 0.026973 0.23414 0.0396 0.23414 0.052974 0.23414 0.053611 0.23414 0.054256 0.23414 0.054911 0.23414 0.057233 0.70242 0.18218 0.23414 0.06071 0.23414 0.060698 0.23414 0.060858 0.23414 0.06153 0.23414 0.062212 0.23414 0.062905 0.23414 0.063607 0.23414 0.064309 0.23414 0.064605 0.23414 0.064904 0.23414 0.065204 0.23414 0.06551 0.23414 0.065817 0.23414 0.066128 0.23414 0.066443 0.23414 0.06676 0.23414 0.067082 0.23414 0.067406 0.23414 0.067734 0.23414 0.068066 0.23414 0.068401 0.23414 0.06874 0.23414 0.069083 0.23414 0.06943 0.23414 0.06978 0.23414 0.070135 0.23414 0.070493 0.23414 0.070033 0.23414 0.069362 0.23414 0.069591 0.23414 0.069821 0.23414 0.070052 0.23414 0.070285 0.23414 0.070519 0.23414 0.070755 0.23414 0.070992 0.23414 0.071231 0.23414 0.071471 0.23414 0.071538 0.23414 0.071597 0.23414 0.071653 0.23414 0.071708 0.23414 0.07176 0.23414 0.069565 0.23414 0.06929 0.23414 0.069008 0.23414 0.066667 0.23414 0.066906 0.23414 0.067147 0.23414 0.067388 0.23414 0.067634 0.23414 0.067879 0.23414 0.068128 0.23414 0.068378 0.23414 0.068629 0.23414 0.068884 0.23414 0.06914 0.23414 0.069399 0.23414 0.069658 0.23414 0.069916 0.23414 0.070106 0.23414 0.070295 0.23414 0.070486 0.23414 0.070678 0.23414 0.07087 0.23414 0.071062 0.23414 0.071255 0.23414 0.071449 0.23414 0.071643 0.23414 0.071542 0.23414 0.071214 0.23414 0.070876 0.23414 0.070421 0.23414 0.069594 0.23414 0.068745 0.23414 0.067877 0.23414 0.066988 0.23414 0.065492 0.23414 0.064793 0.23414 0.064897 0.23414 0.065001 0.23414 0.065103 0.23414 0.065241 0.23414 0.065395 0.23414 0.065551 0.23414 0.065705 0.23414 0.065862 0.23414 0.066018 0.23414 0.066174 0.23414 0.06633 0.23414 0.066488 0.23414 0.066644 0.23414 0.066802 0.23414 0.06696 0.23414 0.067118 0.23414 0.067275 0.23414 0.067434 0.23414 0.067593 0.23414 0.067751 0.23414 0.068003 0.23414 0.068257 0.23414 0.068511 0.23414 0.068769 0.23414 0.069029 0.23414 0.06929 0.23414 0.069553 0.23414 0.06982 0.23414 0.070088 0.23414 0.070358 0.23414 0.070631 0.23414 0.070906 0.23414 0.071184 0.23414 0.071463 0.23414 0.071189 0.23414 0.070404 0.23414 0.069598 0.23414 0.06606 0.23414 0.066284 0.23414 0.066512 0.23414 0.066741 0.23414 0.066971 0.23414 0.067203 0.23414 0.067437 0.23414 0.067672 0.23414 0.067909 0.23414 0.068148 0.23414 0.068388 0.23414 0.068631 0.23414 0.068876 0.23414 0.069121 0.23414 0.06937 0.23414 0.069619 0.23414 0.068197 0.23414 0.066379 0.23414 0.066387 0.23414 0.066394 0.93656 0.26558 0.46828 0.13275 0.23414 0.061692 0.23414 0.058859 0.23414 0.057377 0.23414 0.056216 0.23414 0.055035 0.23414 0.053833 0.23414 0.05261 0.23414 0.050331 0.23414 0.037313 0.23414 0.033754 0.23414 0.03368 0.23414 0.033604 0.23414 0.033529 0.23414 0.033452 0.23414 0.033373 0.23414 0.033293 0.23414 0.033214 0.23414 0.033131 0.23414 0.033049 0.23414 0.032965 0.23414 0.032879 0.23414 0.032793 0.23414 0.032706 0.23414 0.032618 0.23414 0.032527 0.23414 0.032436 0.23414 0.032345 0.23414 0.03225 0.23414 0.032157 0.23414 0.03206 0.23414 0.031936 0.23414 0.031811 0.23414 0.031684 0.23414 0.031555 0.23414 0.031426 0.23414 0.031294 0.23414 0.03116 0.23414 0.031027 0.23414 0.03089 0.23414 0.030753 0.23414 0.030613 0.23414 0.030474 0.23414 0.030331 0.23414 0.030187 0.23414 0.030042 0.23414 0.029896 0.23414 0.029747 0.23414 0.029597 0.23414 0.026245 0.23414 0.024746 0.23414 0.02502 0.23414 0.025297 0.23414 0.025577 0.23414 0.025857 0.23414 0.02614 0.23414 0.026425 0.23414 0.026712 0.23414 0.027001 0.23414 0.027291 0.23414 0.027585 0.23414 0.027881 0.23414 0.028178 0.23414 0.028478 0.23414 0.028779 0.23414 0.029085 0.23414 0.029391 0.23414 0.0297 0.23414 0.030012 0.23414 0.030326 0.23414 0.030643 0.23414 0.030962 0.23414 0.031175 0.23414 0.031372 0.23414 0.031569 0.23414 0.031769 0.23414 0.03197 0.23414 0.032172 0.23414 0.032376 0.23414 0.033859 0.23414 0.035783 0.23414 0.037728 0.23414 0.037747 0.23414 0.037366 0.23414 0.036982 0.23414 0.036591 0.23414 0.036196 0.23414 0.035797 0.23414 0.035393 0.23414 0.034985 0.23414 0.034571 0.23414 0.034154 0.23414 0.033731 0.23414 0.033304 0.23414 0.032873 0.23414 0.031032 0.23414 0.028845 0.23414 0.021055 0.23414 0.02087 0.23414 0.020685 0.23414 0.020498 0.23414 0.02031 0.23414 0.02012 0.23414 0.019931 0.23414 0.019739 0.23414 0.019545 0.23414 0.019352 0.23414 0.019157 0.23414 0.018961 0.23414 0.018763 0.23414 0.018565 0.23414 0.018365 0.23414 0.018164 0.23414 0.017962 0.23414 0.017759 0.23414 0.017554 0.23414 0.01735 0.23414 0.017143 0.23414 0.016935 0.23414 0.016727 0.23414 0.016518 0.23414 0.016306 0.23414 0.016095 0.23414 0.015882 0.23414 0.015669 0.23414 0.015453 0.23414 0.015238 0.23414 0.015021 0.23414 0.014803 0.23414 0.014584 0.23414 0.014365 0.23414 0.014144 0.23414 0.013922 0.23414 0.013699 0.23414 0.013476 0.23414 0.013208 0.23414 0.012929 0.23414 0.012649 0.23414 0.012367 0.23414 0.012086 0.23414 0.011802 0.23414 0.009614 0.23414 0.004916 0.23414 0.004425 0.23414 0.003933 0.23414 0.00344 0.23414 0.002947 0.23414 0.002453 0.23414 0.001959 0.23414 0.001465 0.23414 9.7e-4 0.23414 4.76e-4 0.23414-1.9e-5 0.23414-5.14e-4 0.23414-0.001008 0.23414-0.001503 0.23414-0.001997 0.23414-0.002491 0.23414-0.002985 0.23414-0.003478 0.23414-0.00397 0.23414-0.004276 0.23414-0.004578 0.23414-0.004879 0.23414-0.00518 0.23414-0.00548 0.23414-0.00578 0.23414-0.006079 0.23414-0.006378 0.23414-0.006676 0.23414-0.006973 0.23414-0.007271 0.23414-0.007567 0.23414-0.007862 0.23414-0.008158 0.23414-0.008451 0.23414-0.007865 0.23414-0.007152 0.23414-0.00644 0.23414-0.005731 0.23414-0.005023 0.23414-0.004315 0.23414-0.003608 0.23414 0.002776 0.23414 0.001985 0.23414 0.001195 0.23414 4.03e-4 0.23414-3.88e-4 0.23414-0.00118 0.23414-0.001971 0.23414-0.002761 0.23414-0.003551 0.23414-0.00434 0.23414 0.001293 0.23414 8.83e-4 0.23414 4.7e-4 0.23414 5.9e-5 0.23414-3.53e-4 0.23414-7.65e-4 0.23414-0.001176 0.23414-0.001587 0.23414-0.001999 0.23414-0.00241 0.23414-0.002647 0.23414-0.002845 0.23414-0.003042 0.23414-0.00324 0.23414-0.003437 0.23414-0.003635 0.23414-0.003831 0.23414-0.004028 0.23414-0.004225 0.23414-0.00442 0.23414-0.004617 0.23414-0.004813 0.23414-0.005007 0.23414-0.005204 0.23414-0.011439 0.23414-0.011433 0.23414-0.011426 0.23414-0.011419 0.23414-0.011412 0.23414-0.011406 0.23414-0.011399 0.23414-0.011393 0.23414-0.011385 0.23414-0.011379 0.23414-0.011373 0.23414-0.011365 0.23414-0.011359 0.23414-0.011352 0.23414-0.011346 0.23414-0.011339 0.23414-0.011332 0.23414-0.011326 0.23414-0.011319 0.23414-0.011313 0.23414-0.011306 0.23414-0.011299 0.23414-0.011293 0.23414-0.011286 0.23414-0.011279 0.23414-0.011273 0.23414-0.011267 0.23414-0.01126 0.23414-0.011253 0.23414-0.011247 0.23414-0.01124 0.23414-0.011234 0.23414-0.011227 0.23414-0.011221 0.23414-0.011215 0.23414-0.011207 0.23414-0.011202 0.23414-0.011195 0.23414-0.011188 0.23414-0.011182 0.23414-0.011176 0.23414-0.011169 0.23414-0.011163 0.23414-0.011156 0.23414-0.01115 0.23414-0.011143 0.23414-0.011137 0.23414-0.011131 0.23414-0.011124 0.23414-0.011118 0.23414-0.011112 0.23414-0.011105 0.23414-0.011099 0.23414-0.011092 0.23414-0.011086 0.23414-0.01108 0.23414-0.011074 0.23414-0.011067 0.23414-0.011061 0.23414-0.011054 0.23414-0.011049 0.23414-0.011042 0.23414-0.011036 0.23414-0.011029 0.23414-0.011023 0.23414-0.011017 0.23414-0.011011 0.23414-0.011005 0.23414-0.010998 0.23414-0.010992 0.23414-0.010986 0.23414-0.010979 0.23414-0.010974 0.23414-0.010967 0.23414-0.010961 0.23414-0.010955 0.23414-0.010949 0.23414-0.010942 0.23414-0.010937 0.23414-0.01093 0.23414-0.010924 0.23414-0.010986 0.23414-0.011082 0.23414-0.011178 0.23414-0.011273 0.23414-0.011369 0.23414-0.011464 0.23414-0.01211 0.23414-0.013306 0.23414-0.014496 0.23414-0.015683 0.23414-0.016863 0.23414-0.017332 0.23414-0.017487 0.23414-0.01764 0.23414-0.017793 0.23414-0.017945 0.23414-0.018097 0.23414-0.018246 0.23414-0.018396 0.23414-0.018544 0.23414-0.018692 0.23414-0.018839 0.23414-0.018985 0.23414-0.01913 0.23414-0.019273 0.23414-0.019418 0.23414-0.01956 0.23414-0.019701 0.23414-0.019842 0.23414-0.019981 0.23414-0.020121 0.23414-0.020259 0.23414-0.020395 0.23414-0.020532 0.23414-0.020667 0.23414-0.020802 0.23414-0.020935 0.23414-0.021068 0.23414-0.021199 0.23414-0.021331 0.23414-0.02146 0.23414-0.021589 0.23414-0.021717 0.23414-0.021844 0.23414-0.021971 0.23414-0.022096 0.23414-0.022221 0.23414-0.022344 0.23414-0.022466 0.23414-0.022589 0.23414-0.027219 0.23414-0.027981 0.23414-0.028131 0.23414-0.02828 0.23414-0.028426 0.23414-0.028572 0.23414-0.028716 0.23414-0.028858 0.23414-0.029 0.23414-0.02914 0.23414-0.029278 0.23414-0.029415 0.23414-0.02955 0.23414-0.029685 0.23414-0.029817 0.23414-0.029948 0.23414-0.030079 0.23414-0.030207 0.23414-0.030334 0.23414-0.03046 0.23414-0.030584 0.23414-0.030708 0.23414-0.030829 0.23414-0.030949 0.23414-0.031068 0.23414-0.031185 0.23414-0.031302 0.23414-0.031417 0.23414-0.031519 0.23414-0.031609 0.23414-0.031696 0.23414-0.031783 0.23414-0.031869 0.23414-0.031954 0.23414-0.032037 0.23414-0.03212 0.23414-0.032201 0.23414-0.032282 0.23414-0.03236 0.23414-0.032439 0.23414-0.032516 0.23414-0.032592 0.23414-0.032667 0.23414-0.032741 0.23414-0.032814 0.23414-0.032886 0.23414-0.032957 0.23414-0.033026 0.23414-0.033096 0.23414-0.033163 0.23414-0.03323 0.23414-0.033296 0.23414-0.033361 0.23414-0.033425 0.23414-0.033488 0.23414-0.033549 0.23414-0.033611 0.23414-0.033671 0.23414-0.033729 0.23414-0.033788 0.23414-0.034231 0.23414-0.03483 0.23414-0.035423 0.23414-0.036009 0.23414-0.036588 0.23414-0.037162 0.23414-0.037728 0.23414-0.038288 0.23414-0.038841 0.23414-0.039387 0.23414-0.039927 0.23414-0.040458 0.23414-0.040985 0.23414-0.041503 0.23414-0.042014 0.23414-0.04252 0.23414-0.043017 0.23414-0.043509 0.23414-0.043992 0.23414-0.044469 0.23414-0.044939 0.23414-0.045323 0.23414-0.045686 0.23414-0.046046 0.23414-0.046397 0.23414-0.046745 0.23414-0.047086 0.23414-0.047422 0.23414-0.047752 0.23414-0.048076 0.23414-0.048396 0.23414-0.048708 0.23414-0.049016 0.23414-0.049319 0.23414-0.049615 0.23414-0.049907 0.23414-0.050193 0.23414-0.050474 0.23414-0.050749 0.23414-0.051019 0.23414-0.051284 0.23414-0.051543 0.23414-0.051798 0.23414-0.052048 0.23414-0.052291 0.23414-0.052531 0.23414-0.052765 0.23414-0.052994 0.23414-0.053218 0.23414-0.053438 0.23414-0.053652 0.23414-0.053863 0.23414-0.054067 0.23414-0.054267 0.23414-0.054463 0.23414-0.054655 0.23414-0.05484 0.23414-0.055023 0.23414-0.0552 0.23414-0.055373 0.23414-0.055542 0.23414-0.055707 0.23414-0.055866 0.23414-0.1511 0.23414-0.14868 0.23414-0.14632 0.23414-0.14403 0.23414-0.14181 0.23414-0.13965 0.23414-0.13755 0.23414-0.13551 0.23414-0.13353 0.23414-0.1316 0.23414-0.12973 0.23414-0.1279 0.23414-0.12612 0.23414-0.12438 0.23414-0.12269 0.23414-0.12104 0.23414-0.12034 0.23414-0.12948 0.23414-0.1416 0.23414-0.21402 0.23414-0.20998 0.23414-0.20607 0.23414-0.2023 0.23414-0.19868 0.23414-0.19519 0.23414-0.19182 0.23414-0.18857 0.23414-0.18543 0.23414-0.1824 0.23414-0.17948 0.23414-0.17664 0.23414-0.1739 0.23414-0.17124 0.23414-0.16866 0.23414-0.16615 0.23414-0.16373 0.23414-0.16137 0.23414-0.15908 0.23414-0.15687 0.23414-0.15466 0.23414-0.15244 0.23414-0.15029 0.23414-0.1482 0.23414-0.14616 0.23414-0.14418 0.23414-0.14226 0.23414-0.14039 0.23414-0.13857 0.23414-0.13679 0.23414-0.13506 0.23414-0.13338 0.23414-0.13173 0.23414-0.13013 0.23414-0.12823 0.23414-0.12563 0.23414-0.12528 0.23414-0.12418 0.23414-0.12305 0.23414-0.12194 0.23414-0.12115 0.23414-0.12061 0.23414-0.11936 0.23414-0.11833 0.23414-0.11734 0.23414-0.11636 0.23414-0.11541 0.23414-0.11447 0.23414-0.11629 0.23414-0.12042 0.23414-0.12543 0.23414-0.12678 0.23414-0.12695 0.23414-0.12658 0.23414-0.12707 0.23414-0.13238 0.23414-0.13324 0.23414-0.13378 0.23414-0.134 0.23414-0.13304 0.23414-0.13334 0.23414-0.13109 0.23414-0.13044 0.23414-0.13018 0.23414-0.1299 0.23414-0.12962 0.23414-0.12933 0.23414-0.12903 0.23414-0.12872 0.23414-0.1543 0.23414-0.15191 0.23414-0.14959 0.23414-0.14734 0.23414-0.14515 0.23414-0.14303 0.23414-0.14097 0.23414-0.13896 0.23414-0.13701 0.23414-0.13511 0.23414-0.13327 0.23414-0.13147 0.23414-0.12972 0.23414-0.12801 0.23414-0.12633 0.23414-0.12395 0.23414-0.1224 0.23414-0.12089 0.23414-0.11941 0.23414-0.11796 0.23414-0.11655 0.23414-0.11517 0.23414-0.11382 0.23414-0.11251 0.23414-0.11122 0.23414-0.10996 0.23414-0.10872 0.23414-0.10751 0.23414-0.10632 0.23414-0.10516 0.23414-0.10402 0.23414-0.10291 0.23414-0.10182 0.23414-0.10075 0.23414-0.099704 0.23414-0.098707 0.23414-0.097988 0.23414-0.097279 0.23414-0.096583 0.23414-0.095897 0.23414-0.095222 0.23414-0.11294 0.23414-0.13863 0.23414-0.13673 0.23414-0.13488 0.23414-0.13307 0.23414-0.13132 0.23414-0.1296 0.23414-0.12794 0.23414-0.12631 0.23414-0.12472 0.23414-0.12318 0.23414-0.12167 0.23414-0.12033 0.23414-0.11938 0.23414-0.11845 0.23414-0.11753 0.23414-0.11663 0.23414-0.11575 0.23414-0.11488 0.23414-0.11402 0.23414-0.11318 0.23414-0.1252 0.23414-0.12368 0.23414-0.12219 0.23414-0.12074 0.23414-0.11932 0.23414-0.11794 0.23414-0.11659 0.23414-0.11527 0.23414-0.11398 0.23414-0.11271 0.23414-0.11148 0.23414-0.11027 0.23414-0.10909 0.23414-0.10793 0.23414-0.10679 0.23414-0.10568 0.23414-0.1046 0.23414-0.10353 0.23414-0.10249 0.23414-0.10146 0.23414-0.10046 0.23414-0.099475 0.23414-0.098511 0.23414-0.097564 0.23414-0.096635 0.23414-0.095724 0.23414-0.09483 0.23414-0.093953 0.23414-0.09309 0.23414-0.092245 0.23414-0.091414 0.23414-0.090597 0.23414-0.089796 0.23414-0.089008 0.23414-0.088233 0.23414-0.087473 0.23414-0.086724 0.23414-0.08599 0.23414-0.085266 0.23414-0.084554 0.23414-0.083826 0.23414-0.083079 0.23414-0.082345 0.23414-0.081623 0.23414-0.080913 0.23414-0.080251 0.23414-0.079616 0.23414-0.078992 0.23414-0.078376 0.23414-0.077771 0.23414-0.077174 0.23414-0.076586 0.23414-0.076007 0.23414-0.075437 0.23414-0.074875 0.23414-0.074321 0.23414-0.073776 0.23414-0.073238 0.23414-0.072668 0.23414-0.071927 0.23414-0.071402 0.23414-0.070884 0.23414-0.070375 0.23414-0.069872 0.23414-0.069376 0.23414-0.068886 0.23414-0.068404 0.23414-0.067929 0.23414-0.067458 0.23414-0.066996 0.23414-0.066538 0.23414-0.066087 0.23414-0.065642 0.23414-0.065203 0.23414-0.064756 0.23414-0.064285 0.23414-0.063819 0.23414-0.06336 0.23414-0.062925 0.23414-0.062531 0.23414-0.062143 0.23414-0.061759 0.23414-0.061379 0.23414-0.061005 0.23414-0.060439 0.23414-0.060047 0.23414-0.059685 0.23414-0.059329 0.23414-0.058976 0.23414-0.058626 0.23414-0.058282 0.23414-0.057942 0.23414-0.057604 0.23414-0.057271 0.23414-0.056942 0.23414-0.056616 0.23414-0.056295 0.23414-0.055976 0.23414-0.055661 0.23414-0.055349 0.23414-0.055042 0.23414-0.054737 0.23414-0.054435 0.23414-0.054138 0.23414-0.053842 0.23414-0.05355 0.23414-0.053262 0.23414-0.052976 0.23414-0.052693 0.23414-0.052414 0.23414-0.052137 0.23414-0.051862 0.23414-0.051592 0.23414-0.051324 0.23414-0.05106 0.23414-0.050797 0.23414-0.050538 0.23414-0.050281 0.23414-0.050026 0.23414-0.049775 0.23414-0.049525 0.23414-0.049278 0.23414-0.049034 0.23414-0.048791 0.23414-0.048552 0.23414-0.048314 0.23414-0.048079 0.23414-0.047846 0.23414-0.047614 0.23414-0.047387 0.23414-0.047159 0.23414-0.046936 0.23414-0.046713 0.23414-0.046362 0.23414-0.04605 0.23414-0.04576 0.23414-0.045513 0.23414-0.045303 0.23414-0.045094 0.23414-0.044888 0.23414-0.044683 0.23414-0.044479 0.23414-0.044279 0.23414-0.044079 0.23414-0.043867 0.23414-0.04365 0.23414-0.043434 0.23414-0.043222 0.23414-0.043011 0.23414-0.042802 0.23414-0.042594 0.23414-0.042389 0.23414-0.042185 0.23414-0.041983 0.23414-0.041783 0.23414-0.041585 0.23414-0.041388 0.23414-0.041193 0.23414-0.040999 0.23414-0.040808 0.23414-0.040618 0.23414-0.04043 0.23414-0.040243 0.23414-0.040057 0.23414-0.039874 0.23414-0.039692 0.23414-0.039511 0.23414-0.039332 0.23414-0.039154 0.23414-0.038978 0.23414-0.038803 0.23414-0.03863 0.23414-0.038458 0.23414-0.038287 0.23414-0.038118 0.23414-0.03795 0.23414-0.037784 0.23414-0.037618 0.23414-0.037424 0.23414-0.037227 0.23414-0.037032 0.23414-0.036839 0.23414-0.036672 0.23414-0.036506 0.23414-0.036342 0.23414-0.036177 0.23414-0.036016 0.23414-0.035855 0.23414-0.035695 0.23414-0.035536 0.23414-0.035379 0.23414-0.035223 0.23414-0.035068 0.23414-0.034925 0.23414-0.034781 0.23414-0.034639 0.23414-0.034499 0.23414-0.034359 0.23414-0.03422 0.23414-0.034082 0.23414-0.033946 0.23414-0.033809 0.23414-0.033675 0.23414-0.033541 0.23414-0.033408 0.23414-0.033276 0.23414-0.033145 0.23414-0.02909 0.23414-0.029013 0.23414-0.028937 0.23414-0.028861 0.23414-0.028785 0.23414-0.02871 0.23414-0.028636 0.23414-0.028561 0.23414-0.028487 0.23414-0.028413 0.23414-0.02834 0.23414-0.028268 0.23414-0.028195 0.23414-0.028123 0.23414-0.028051 0.23414-0.02798 0.23414-0.027865 0.23414-0.027266 0.23414-0.026505 0.23414-0.022669 0.23414-0.022597 0.23414-0.022527 0.23414-0.022457 0.23414-0.022386 0.23414-0.022317 0.23414-0.022247 0.23414-0.022179 0.23414-0.022109 0.23414-0.022042 0.23414-0.021973 0.23414-0.021906 0.23414-0.021839 0.23414-0.021772 0.23414-0.021706 0.23414-0.021641 0.23414-0.021575 0.23414-0.021511 0.23414-0.021448 0.23414-0.021386 0.23414-0.021327 0.23414-0.021273 0.23414-0.021221 0.23414-0.021168 0.23414-0.021116 0.23414-0.021063 0.23414-0.021011 0.23414-0.020959 0.23414-0.020908 0.23414-0.020856 0.23414-0.020805 0.23414-0.020755 0.23414-0.020703 0.23414-0.020653 0.23414-0.020631 0.23414-0.020669 0.23414-0.020527 0.23414-0.020449 0.23414-0.020374 0.23414-0.020302 0.23414-0.020202 0.23414-0.020083 0.23414-0.020027 0.23414-0.019971 0.23414-0.019915 0.23414-0.019859 0.23414-0.019805 0.23414-0.019749 0.23414-0.01944 0.23414-0.018906 0.23414-0.018382 0.23414-0.018062 0.23414-0.017851 0.23414-0.017693 0.23414-0.017449 0.23414-0.016719 0.23414-0.016422 0.23414-0.016153 0.23414-0.015914 0.23414-0.015797 0.23414-0.015662 0.23414-0.015691 0.23414-0.015554 0.23414-0.015374 0.23414-0.015195 0.23414-0.015017 0.23414-0.014839 0.23414-0.014663 0.23414-0.014487 0.23414-0.011267 0.23414-0.011262 0.23414-0.011257 0.23414-0.011252 0.23414-0.011247 0.23414-0.011242 0.23414-0.011237 0.23414-0.011232 0.23414-0.011227 0.23414-0.011221 0.23414-0.011217 0.23414-0.011212 0.23414-0.011206 0.23414-0.011202 0.23414-0.011198 0.23414-0.011194 0.23414-0.011191 0.23414-0.011188 0.23414-0.011185 0.23414-0.011181 0.23414-0.011178 0.23414-0.011174 0.23414-0.011171 0.23414-0.011168 0.23414-0.011165 0.46828-0.022321 0.23414-0.011157 0.23414-0.011155 0.46828-0.022303 0.23414-0.011148 0.23414-0.011146 0.23414-0.011143 0.23414-0.011141 0.23414-0.011134 0.23414-0.011082 0.23414-0.01103 0.23414-0.010979 0.23414-0.010927 0.23414-0.010875 0.23414-0.007508 0.46828-0.005164 0.70242-0.007805 0.70243-0.007877 0.70242-0.007948 0.23414-0.002636 0.23414-0.00254 0.23414-0.002443 0.23414-0.002347 0.23414-0.00225 0.23414-0.002154 0.23414-0.002057 0.23414-0.001962 0.23414-0.001865 4.6828 0.023898 4.6828 0.023442 4.2146 0.020706 0.23414 0.001124 0.70243 0.003085 0.70242 0.003027 0.70242 0.002968 0.70242 0.00291 0.70243 0.002851 0.23414 9.32e-4 0.23414 9.05e-4 0.23414 8.8e-4 0.23414 8.54e-4 2.5756 0.009127 0.23414 8.32e-4 0.23414 8.38e-4 0.23414 8.44e-4 0.23414 8.5e-4 0.23414 8.55e-4 0.23414 8.62e-4 0.23414 8.67e-4 0.23414 8.74e-4 0.23414 8.79e-4 0.23414 8.85e-4 0.23414 8.91e-4 0.23414 8.97e-4 0.23414 9.02e-4 0.23414 9.15e-4 0.23414 9.26e-4 0.23414 9.39e-4 0.23414 9.52e-4 0.23414 9.64e-4 0.23414 9.76e-4 0.23414 9.88e-4 5.6194 0.023771 0.23414 9.06e-4 0.23414 8.48e-4 0.23414 8.02e-4 4.917 0.016148 4.917 0.015698 0.23414 7.14e-4 0.23414 6.88e-4 0.23414 6.61e-4 0.93657 0.002513 0.93657 0.002423 1.639 0.004072 0.23414 5.83e-4 0.23414 5.85e-4 0.23414 5.87e-4 0.23414 5.89e-4 0.46828 0.001183 0.23414 5.95e-4 0.46828 0.001195 0.46828 0.001203 0.23414 6.04e-4 0.23414 6.11e-4 0.23414 6.24e-4 0.23414 6.35e-4 0.23414 6.47e-4 0.23414 6.59e-4 0.23414 6.72e-4 0.23414 6.83e-4 0.23414 6.96e-4 0.23414 7.2e-4 0.23414 7.45e-4 0.23414 7.71e-4 0.23414 7.96e-4 0.23414 8.22e-4 0.23414 8.47e-4 0.23414 8.73e-4 0.23414 8.97e-4 0.23414 9.24e-4 0.23414 9.49e-4 0.23414 9.74e-4 0.23414 9.99e-4 0.23414 0.001026 0.23414 0.00105 0.23414 0.001076 0.23414 0.004612 0.23414 0.004645 0.23414 0.004678 0.23414 0.004711 0.23414 0.004715 0.23414 0.004718 0.23414 0.004722 0.23414 0.004726 0.23414 0.004729 0.23414 0.004734 0.23414 0.004737 0.23414 0.00474 0.23414 0.004745 0.23414 0.00475 0.23414 0.004755 0.23414 0.004761 0.23414 0.004765 0.23414 0.004772 0.23414 0.004776 0.23414 0.004782 0.23414 0.004788 0.23414 0.004793 0.23414 0.004798 0.23414 0.004803 0.23414 0.004809 0.23414 0.004815 0.23414 0.00482 0.23414 0.004825 0.23414 0.004831 0.23414 0.004836 0.23414 0.004842 0.23414 0.004847 0.23414 0.004853 0.23414 0.004905 0.23414 0.00496 0.23414 0.007624 0.23414 0.009004 0.23414 0.009039 0.23414 0.009074 0.23414 0.00911 0.23414 0.009146 0.23414 0.009182 0.23414 0.009218 0.23414 0.009258 0.23414 0.009321 0.23414 0.009375 0.23414 0.009391 0.23414 0.009407 0.23414 0.009422 0.23414 0.009439 0.23414 0.009454 0.23414 0.00947 0.23414 0.009485 0.23414 0.009502 0.23414 0.009517 0.23414 0.009534 0.23414 0.009549 0.23414 0.009566 0.23414 0.009582 0.23414 0.009597 0.23414 0.009624 0.23414 0.009651 0.23414 0.009679 0.23414 0.009708 0.23414 0.009735 0.23414 0.009764 0.23414 0.009793 0.23414 0.009821 0.23414 0.009849 0.23414 0.009878 0.23414 0.009906 0.23414 0.009935 0.23414 0.009964 0.23414 0.009993 0.23414 0.010022 0.23414 0.010051 0.23414 0.010079 0.23414 0.010109 0.23414 0.010139 0.23414 0.010167 0.23414 0.010197 0.23414 0.010227 0.23414 0.010256 0.23414 0.010285 0.23414 0.010316 0.23414 0.010345 0.23414 0.010375 0.23414 0.010405 0.23414 0.014071 0.23414 0.014092 0.23414 0.014111 0.23414 0.014131 0.23414 0.01415 0.23414 0.014171 0.23414 0.01419 0.23414 0.01421 0.23414 0.014231 0.23414 0.01425 0.23414 0.014271 0.23414 0.014291 0.23414 0.014311 0.23414 0.014331 0.23414 0.014352 0.23414 0.014372 0.23414 0.014393 0.23414 0.014413 0.23414 0.014434 0.23414 0.014454 0.23414 0.014476 0.23414 0.014496 0.23414 0.014516 0.23414 0.014538 0.23414 0.014559 0.23414 0.01458 0.23414 0.0146 0.23414 0.014622 0.23414 0.014643 0.23414 0.014665 0.23414 0.014686 0.23414 0.014707 0.23414 0.014728 0.23414 0.01475 0.23414 0.014772 0.23414 0.014793 0.23414 0.014815 0.23414 0.014837 0.23414 0.014859 0.23414 0.01488 0.23414 0.014902 0.23414 0.014925 0.23414 0.014946 0.23414 0.014969 0.23414 0.014991 0.23414 0.015013 0.23414 0.015035 0.23414 0.015058 0.23414 0.015081 0.23414 0.015103 0.23414 0.015125 0.23414 0.015148 0.23414 0.015171 0.23414 0.015194 0.23414 0.015217 0.23414 0.015239 0.23414 0.015263 0.23414 0.015285 0.23414 0.015309 0.23414 0.015332 0.23414 0.015356 0.23414 0.015378 0.23414 0.015402 0.23414 0.015426 0.23414 0.015449 0.23414 0.015473 0.23414 0.015497 0.23414 0.01552 0.23414 0.015544 0.23414 0.015569 0.23414 0.015592 0.23414 0.015616 0.23414 0.015641 0.23414 0.015664 0.23414 0.015689 0.23414 0.015714 0.23414 0.015738 0.23414 0.015762 0.23414 0.015787 0.23414 0.015812 0.23414 0.015836 0.23414 0.015861 0.23414 0.015886 0.23414 0.015912 0.23414 0.015936 0.23414 0.015961 0.23414 0.015987 0.23414 0.016012 0.23414 0.016037 0.23414 0.016063 0.23414 0.016089 0.23414 0.016114 0.23414 0.016139 0.23414 0.016166 0.23414 0.016191 0.23414 0.016218 0.23414 0.016243 0.23414 0.016269 0.23414 0.016296 0.23414 0.016322 0.23414 0.016349 0.23414 0.016374 0.23414 0.016402 0.23414 0.016428 0.23414 0.016455 0.23414 0.016481 0.23414 0.016509 0.23414 0.016535 0.23414 0.016563 0.23414 0.016589 0.23414 0.016617 0.23414 0.016644 0.23414 0.016672 0.23414 0.016699 0.23414 0.016727 0.23414 0.016754 0.23414 0.016783 0.23414 0.01681 0.23414 0.016838 0.23414 0.016866 0.23414 0.016894 0.23414 0.016923 0.23414 0.016951 0.23414 0.016979 0.23414 0.017008 0.23414 0.017036 0.23414 0.017061 0.23414 0.017143 0.23414 0.017381 0.23414 0.022518 0.23414 0.02256 0.23414 0.022603 0.23414 0.022645 0.23414 0.022688 0.23414 0.02273 0.23414 0.022774 0.23414 0.022817 0.23414 0.02286 0.23414 0.022904 0.23414 0.022948 0.23414 0.022983 0.23414 0.023019 0.23414 0.023055 0.23414 0.02309 0.23414 0.023126 0.23414 0.023162 0.23414 0.023198 0.23414 0.023242 0.23414 0.023295 0.23414 0.02335 0.23414 0.023404 0.23414 0.023458 0.23414 0.023514 0.23414 0.023568 0.23414 0.023623 0.23414 0.023679 0.23414 0.023735 0.23414 0.02379 0.23414 0.023847 0.23414 0.023903 0.23414 0.023961 0.23414 0.024017 0.23414 0.024075 0.23414 0.024132 0.23414 0.02419 0.23414 0.024248 0.23414 0.024307 0.23414 0.024366 0.23414 0.024424 0.23414 0.024484 0.23414 0.024543 0.23414 0.024603 0.23414 0.024664 0.23414 0.024724 0.23414 0.024784 0.23414 0.024846 0.23414 0.024907 0.23414 0.024968 0.23414 0.025108 0.23414 0.028965 0.23414 0.030963 0.23414 0.031095 0.23414 0.031229 0.23414 0.031517 0.23414 0.037279 0.23414 0.037454 0.23414 0.037611 0.23414 0.03777 0.23414 0.03793 0.23414 0.038092 0.23414 0.038254 0.23414 0.038419 0.23414 0.039193 0.23414 0.039856 0.23414 0.040661v53.037h-384.69z" stroke="#0766aa" stroke-opacity=".2"/>
</defs>
<g clip-path="url(#k)">
<use y="413.19625" fill="#0766aa" fill-opacity=".2" stroke="#0766aa" stroke-opacity=".2" xlink:href="#ag"/>
</g>
<path d="m40.603 170.63v-141.83" clip-path="url(#k)" fill="none" stroke="#b0b0b0" stroke-linecap="square" stroke-width=".8"/>
<defs>
<path id="g" d="m0 0v3.5" stroke="#000" stroke-width=".8"/>
</defs>
<use x="40.603125" y="170.627393" stroke="#000000" stroke-width=".8" xlink:href="#g"/>
<path d="m165.39 170.63v-141.83" clip-path="url(#k)" fill="none" stroke="#b0b0b0" stroke-linecap="square" stroke-width=".8"/>
<use x="165.393497" y="170.627393" stroke="#000000" stroke-width=".8" xlink:href="#g"/>
<path d="m290.18 170.63v-141.83" clip-path="url(#k)" fill="none" stroke="#b0b0b0" stroke-linecap="square" stroke-width=".8"/>
<use x="290.183869" y="170.627393" stroke="#000000" stroke-width=".8" xlink:href="#g"/>
<path d="m414.97 170.63v-141.83" clip-path="url(#k)" fill="none" stroke="#b0b0b0" stroke-linecap="square" stroke-width=".8"/>
<use x="414.974241" y="170.627393" stroke="#000000" stroke-width=".8" xlink:href="#g"/>
<defs>
<path id="b" d="m0 0h-3.5" stroke="#000" stroke-width=".8"/>
</defs>
<use x="40.603125" y="154.105211" stroke="#000000" stroke-width=".8" xlink:href="#b"/>
<defs>
<path id="f" d="m12.406 8.2969h16.109v55.625l-17.531-3.5156v8.9844l17.438 3.5156h9.8594v-64.609h16.109v-8.2969h-41.984z"/>
<path id="e" d="m31.781 66.406q-7.6094 0-11.453-7.5-3.8281-7.4844-3.8281-22.531 0-14.984 3.8281-22.484 3.8438-7.5 11.453-7.5 7.6719 0 11.5 7.5 3.8438 7.5 3.8438 22.484 0 15.047-3.8438 22.531-3.8281 7.5-11.5 7.5zm0 7.8125q12.266 0 18.734-9.7031 6.4688-9.6875 6.4688-28.141 0-18.406-6.4688-28.109-6.4688-9.6875-18.734-9.6875-12.25 0-18.719 9.6875-6.4688 9.7031-6.4688 28.109 0 18.453 6.4688 28.141 6.4688 9.7031 18.719 9.7031z"/>
</defs>
<g transform="translate(16.003 157.9) scale(.1 -.1)">
<use transform="translate(0 .68438)" xlink:href="#f"/>
<use transform="translate(63.623 .68438)" xlink:href="#e"/>
<use transform="translate(128.2 38.966) scale(.7)" xlink:href="#f"/>
</g>
<use x="40.603125" y="130.467312" stroke="#000000" stroke-width=".8" xlink:href="#b"/>
<defs>
<path id="q" d="m19.188 8.2969h34.422v-8.2969h-46.281v8.2969q5.6094 5.8125 15.297 15.594 9.7031 9.7969 12.188 12.641 4.7344 5.3125 6.6094 9 1.8906 3.6875 1.8906 7.25 0 5.8125-4.0781 9.4688-4.0781 3.6719-10.625 3.6719-4.6406 0-9.7969-1.6094-5.1406-1.6094-11-4.8906v9.9688q5.9531 2.3906 11.125 3.6094 5.1875 1.2188 9.4844 1.2188 11.328 0 18.062-5.6719 6.7344-5.6562 6.7344-15.125 0-4.5-1.6875-8.5312-1.6719-4.0156-6.125-9.4844-1.2188-1.4219-7.7656-8.1875-6.5312-6.7656-18.453-18.922z"/>
</defs>
<g transform="translate(16.003 134.27) scale(.1 -.1)">
<use transform="translate(0 .76562)" xlink:href="#f"/>
<use transform="translate(63.623 .76562)" xlink:href="#e"/>
<use transform="translate(128.2 39.047) scale(.7)" xlink:href="#q"/>
</g>
<use x="40.603125" y="106.829413" stroke="#000000" stroke-width=".8" xlink:href="#b"/>
<defs>
<path id="m" d="m40.578 39.312q7.0781-1.5156 11.047-6.3125 3.9844-4.7812 3.9844-11.812 0-10.781-7.4219-16.703-7.4219-5.9062-21.094-5.9062-4.5781 0-9.4375 0.90625t-10.031 2.7188v9.5156q4.0938-2.3906 8.9688-3.6094 4.8906-1.2188 10.219-1.2188 9.2656 0 14.125 3.6562t4.8594 10.641q0 6.4531-4.5156 10.078-4.5156 3.6406-12.562 3.6406h-8.5v8.1094h8.8906q7.2656 0 11.125 2.9062t3.8594 8.375q0 5.6094-3.9844 8.6094-3.9688 3.0156-11.391 3.0156-4.0625 0-8.7031-0.89062-4.6406-0.875-10.203-2.7188v8.7812q5.625 1.5625 10.531 2.3438t9.25 0.78125q11.234 0 17.766-5.1094 6.5469-5.0938 6.5469-13.781 0-6.0625-3.4688-10.234t-9.8594-5.7812z"/>
</defs>
<g transform="translate(16.003 110.63) scale(.1 -.1)">
<use transform="translate(0 .76562)" xlink:href="#f"/>
<use transform="translate(63.623 .76562)" xlink:href="#e"/>
<use transform="translate(128.2 39.047) scale(.7)" xlink:href="#m"/>
</g>
<use x="40.603125" y="83.191514" stroke="#000000" stroke-width=".8" xlink:href="#b"/>
<defs>
<path id="p" d="m37.797 64.312-24.906-38.922h24.906zm-2.5938 8.5938h12.406v-47.516h10.406v-8.2031h-10.406v-17.188h-9.8125v17.188h-32.906v9.5156z"/>
</defs>
<g transform="translate(16.003 86.991) scale(.1 -.1)">
<use transform="translate(0 .68438)" xlink:href="#f"/>
<use transform="translate(63.623 .68438)" xlink:href="#e"/>
<use transform="translate(128.2 38.966) scale(.7)" xlink:href="#p"/>
</g>
<use x="40.603125" y="59.553615" stroke="#000000" stroke-width=".8" xlink:href="#b"/>
<defs>
<path id="ae" d="m10.797 72.906h38.719v-8.3125h-29.688v-17.859q2.1406 0.73438 4.2812 1.0938 2.1562 0.35938 4.3125 0.35938 12.203 0 19.328-6.6875 7.1406-6.6875 7.1406-18.109 0-11.766-7.3281-18.297-7.3281-6.5156-20.656-6.5156-4.5938 0-9.3594 0.78125-4.75 0.78125-9.8281 2.3438v9.9219q4.3906-2.3906 9.0781-3.5625t9.9062-1.1719q8.4531 0 13.375 4.4375 4.9375 4.4375 4.9375 12.062 0 7.6094-4.9375 12.047-4.9219 4.4531-13.375 4.4531-3.9531 0-7.8906-0.875-3.9219-0.875-8.0156-2.7344z"/>
</defs>
<g transform="translate(16.003 63.353) scale(.1 -.1)">
<use transform="translate(0 .68438)" xlink:href="#f"/>
<use transform="translate(63.623 .68438)" xlink:href="#e"/>
<use transform="translate(128.2 38.966) scale(.7)" xlink:href="#ae"/>
</g>
<use x="40.603125" y="35.915717" stroke="#000000" stroke-width=".8" xlink:href="#b"/>
<defs>
<path id="v" d="m33.016 40.375q-6.6406 0-10.531-4.5469-3.875-4.5312-3.875-12.438 0-7.8594 3.875-12.438 3.8906-4.5625 10.531-4.5625t10.516 4.5625q3.875 4.5781 3.875 12.438 0 7.9062-3.875 12.438-3.875 4.5469-10.516 4.5469zm19.578 30.922v-8.9844q-3.7188 1.75-7.5 2.6719-3.7812 0.9375-7.5 0.9375-9.7656 0-14.922-6.5938-5.1406-6.5938-5.875-19.922 2.875 4.25 7.2188 6.5156 4.3594 2.2656 9.5781 2.2656 10.984 0 17.359-6.6719 6.375-6.6562 6.375-18.125 0-11.234-6.6406-18.031-6.6406-6.7812-17.672-6.7812-12.656 0-19.344 9.6875-6.6875 9.7031-6.6875 28.109 0 17.281 8.2031 27.562t22.016 10.281q3.7188 0 7.5-0.73438t7.8906-2.1875z"/>
</defs>
<g transform="translate(16.003 39.715) scale(.1 -.1)">
<use transform="translate(0 .76562)" xlink:href="#f"/>
<use transform="translate(63.623 .76562)" xlink:href="#e"/>
<use transform="translate(128.2 39.047) scale(.7)" xlink:href="#v"/>
</g>
<defs>
<path id="a" d="m0 0h-2" stroke="#000" stroke-width=".6"/>
</defs>
<use x="40.603125" y="170.627393" stroke="#000000" stroke-width=".6" xlink:href="#a"/>
<use x="40.603125" y="166.464966" stroke="#000000" stroke-width=".6" xlink:href="#a"/>
<use x="40.603125" y="163.511677" stroke="#000000" stroke-width=".6" xlink:href="#a"/>
<use x="40.603125" y="161.220927" stroke="#000000" stroke-width=".6" xlink:href="#a"/>
<use x="40.603125" y="159.349249" stroke="#000000" stroke-width=".6" xlink:href="#a"/>
<use x="40.603125" y="157.766768" stroke="#000000" stroke-width=".6" xlink:href="#a"/>
<use x="40.603125" y="156.39596" stroke="#000000" stroke-width=".6" xlink:href="#a"/>
<use x="40.603125" y="155.186822" stroke="#000000" stroke-width=".6" xlink:href="#a"/>
<use x="40.603125" y="146.989494" stroke="#000000" stroke-width=".6" xlink:href="#a"/>
<use x="40.603125" y="142.827067" stroke="#000000" stroke-width=".6" xlink:href="#a"/>
<use x="40.603125" y="139.873778" stroke="#000000" stroke-width=".6" xlink:href="#a"/>
<use x="40.603125" y="137.583029" stroke="#000000" stroke-width=".6" xlink:href="#a"/>
<use x="40.603125" y="135.71135" stroke="#000000" stroke-width=".6" xlink:href="#a"/>
<use x="40.603125" y="134.128869" stroke="#000000" stroke-width=".6" xlink:href="#a"/>
<use x="40.603125" y="132.758061" stroke="#000000" stroke-width=".6" xlink:href="#a"/>
<use x="40.603125" y="131.548923" stroke="#000000" stroke-width=".6" xlink:href="#a"/>
<use x="40.603125" y="123.351595" stroke="#000000" stroke-width=".6" xlink:href="#a"/>
<use x="40.603125" y="119.189168" stroke="#000000" stroke-width=".6" xlink:href="#a"/>
<use x="40.603125" y="116.235879" stroke="#000000" stroke-width=".6" xlink:href="#a"/>
<use x="40.603125" y="113.94513" stroke="#000000" stroke-width=".6" xlink:href="#a"/>
<use x="40.603125" y="112.073451" stroke="#000000" stroke-width=".6" xlink:href="#a"/>
<use x="40.603125" y="110.49097" stroke="#000000" stroke-width=".6" xlink:href="#a"/>
<use x="40.603125" y="109.120162" stroke="#000000" stroke-width=".6" xlink:href="#a"/>
<use x="40.603125" y="107.911024" stroke="#000000" stroke-width=".6" xlink:href="#a"/>
<use x="40.603125" y="99.713697" stroke="#000000" stroke-width=".6" xlink:href="#a"/>
<use x="40.603125" y="95.551269" stroke="#000000" stroke-width=".6" xlink:href="#a"/>
<use x="40.603125" y="92.59798" stroke="#000000" stroke-width=".6" xlink:href="#a"/>
<use x="40.603125" y="90.307231" stroke="#000000" stroke-width=".6" xlink:href="#a"/>
<use x="40.603125" y="88.435553" stroke="#000000" stroke-width=".6" xlink:href="#a"/>
<use x="40.603125" y="86.853071" stroke="#000000" stroke-width=".6" xlink:href="#a"/>
<use x="40.603125" y="85.482263" stroke="#000000" stroke-width=".6" xlink:href="#a"/>
<use x="40.603125" y="84.273125" stroke="#000000" stroke-width=".6" xlink:href="#a"/>
<use x="40.603125" y="76.075798" stroke="#000000" stroke-width=".6" xlink:href="#a"/>
<use x="40.603125" y="71.91337" stroke="#000000" stroke-width=".6" xlink:href="#a"/>
<use x="40.603125" y="68.960081" stroke="#000000" stroke-width=".6" xlink:href="#a"/>
<use x="40.603125" y="66.669332" stroke="#000000" stroke-width=".6" xlink:href="#a"/>
<use x="40.603125" y="64.797654" stroke="#000000" stroke-width=".6" xlink:href="#a"/>
<use x="40.603125" y="63.215172" stroke="#000000" stroke-width=".6" xlink:href="#a"/>
<use x="40.603125" y="61.844365" stroke="#000000" stroke-width=".6" xlink:href="#a"/>
<use x="40.603125" y="60.635226" stroke="#000000" stroke-width=".6" xlink:href="#a"/>
<use x="40.603125" y="52.437899" stroke="#000000" stroke-width=".6" xlink:href="#a"/>
<use x="40.603125" y="48.275471" stroke="#000000" stroke-width=".6" xlink:href="#a"/>
<use x="40.603125" y="45.322182" stroke="#000000" stroke-width=".6" xlink:href="#a"/>
<use x="40.603125" y="43.031433" stroke="#000000" stroke-width=".6" xlink:href="#a"/>
<use x="40.603125" y="41.159755" stroke="#000000" stroke-width=".6" xlink:href="#a"/>
<use x="40.603125" y="39.577273" stroke="#000000" stroke-width=".6" xlink:href="#a"/>
<use x="40.603125" y="38.206466" stroke="#000000" stroke-width=".6" xlink:href="#a"/>
<use x="40.603125" y="36.997328" stroke="#000000" stroke-width=".6" xlink:href="#a"/>
<use x="40.603125" y="28.8" stroke="#000000" stroke-width=".6" xlink:href="#a"/>
<path d="m82.693 165.75 1.4049 0.43723 1.4048 0.19962 7.0243 0.69907 7.4925 0.97215 8.6632 1.3546 14.283 2.4994 8.195 1.669 11.941 2.6992 8.4291 1.8095 4.917 0.84099 3.9804 0.47299 3.7463 0.21882 5.3853 0.016822 64.857-0.11038 2.3414-0.33015 2.8097-0.63983 3.278-0.99724 4.4487-1.6104 11.239-4.4058 1.639-0.96367 6.0877-3.8974 3.278-1.6724 3.5121-1.5389 3.9804-1.4931 3.5121-1.3269 4.917-1.9328 3.9804-1.2777 4.4487-1.1813 5.1511-1.1213 5.6194-0.99298 1.8731-0.38737 6.7901-1.6435 3.5121-0.52921 4.2146-0.40898 4.4487-0.20644 4.6828 0.014091 4.4487 0.2299 4.4487 0.45137 9.834 1.3795 4.6828 0.87174 4.2146 1.0077 3.9804 1.1842 6.7901 2.011 2.5756 0.59111 7.2584 1.5072 11.005 2.3521 1.4049-0.12941 1.4048-0.34626 4.2146-1.417 2.8097-1.2865 3.278-1.3258 3.7463-1.266 4.2146-1.1746 9.834-2.3558 3.7463-0.53536 3.9804-0.34453 4.2146-0.139 4.2146 0.081545 4.2146 0.30457 3.9804 0.50814 3.7463 0.7014 3.5121 0.88447 10.068 2.7668 3.278 1.2686 2.1073 0.96364v0" clip-path="url(#k)" fill="none" stroke="#dc143c" stroke-linecap="square" stroke-width="1.5"/>
<path d="m40.603 170.63v-141.83" fill="none" stroke="#000" stroke-linecap="square" stroke-width=".8"/>
<path d="m486.62 170.63v-141.83" fill="none" stroke="#000" stroke-linecap="square" stroke-width=".8"/>
<path d="m40.603 170.63h446.02" fill="none" stroke="#000" stroke-linecap="square" stroke-width=".8"/>
<path d="m40.603 28.8h446.02" fill="none" stroke="#000" stroke-linecap="square" stroke-width=".8"/>
<path d="m324.59 66.156h155.04q2 0 2-2v-28.356q0-2-2-2h-155.04q-2 0-2 2v28.356q0 2 2 2z" fill="#fff" opacity=".8" stroke="#ccc"/>
<path d="m326.59 41.898h20" fill="none" stroke="#dc143c" stroke-linecap="square" stroke-width="1.5"/>
<defs>
<path id="h" d="m41.109 46.297q-1.5156 0.875-3.2969 1.2812-1.7812 0.42188-3.9219 0.42188-7.625 0-11.703-4.9531t-4.0781-14.234v-28.812h-9.0312v54.688h9.0312v-8.5q2.8438 4.9844 7.375 7.3906 4.5469 2.4219 11.047 2.4219 0.92188 0 2.0469-0.125 1.125-0.10938 2.4844-0.35938z"/>
<path id="i" d="m34.281 27.484q-10.891 0-15.094-2.4844t-4.2031-8.5q0-4.7812 3.1562-7.5938 3.1562-2.7969 8.5625-2.7969 7.4844 0 12 5.2969t4.5156 14.078v2zm17.922 3.7188v-31.203h-8.9844v8.2969q-3.0781-4.9688-7.6719-7.3438t-11.234-2.375q-8.3906 0-13.359 4.7188-4.9531 4.7188-4.9531 12.625 0 9.2188 6.1719 13.906 6.1875 4.6875 18.438 4.6875h12.609v0.89062q0 6.2031-4.0781 9.5938t-11.453 3.3906q-4.6875 0-9.1406-1.125-4.4375-1.125-8.5312-3.375v8.3125q4.9219 1.9062 9.5625 2.8438 4.6406 0.95312 9.0312 0.95312 11.875 0 17.734-6.1562 5.8594-6.1406 5.8594-18.641z"/>
<path id="s" d="m18.312 70.219v-15.531h18.5v-6.9844h-18.5v-29.688q0-6.6875 1.8281-8.5938t7.4531-1.9062h9.2188v-7.5156h-9.2188q-10.406 0-14.359 3.875-3.9531 3.8906-3.9531 14.141v29.688h-6.5938v6.9844h6.5938v15.531z"/>
<path id="c" d="m56.203 29.594v-4.3906h-41.312q0.59375-9.2812 5.5938-14.141t13.938-4.8594q5.1719 0 10.031 1.2656t9.6562 3.8125v-8.5q-4.8438-2.0469-9.9219-3.125t-10.297-1.0781q-13.094 0-20.734 7.6094-7.6406 7.625-7.6406 20.625 0 13.422 7.25 21.297 7.25 7.8906 19.562 7.8906 11.031 0 17.453-7.1094 6.4219-7.0938 6.4219-19.297zm-8.9844 2.6406q-0.09375 7.3594-4.125 11.75-4.0312 4.4062-10.672 4.4062-7.5156 0-12.031-4.25t-5.2031-11.969z"/>
<path id="l" d="m30.609 48.391q-7.2188 0-11.422-5.6406t-4.2031-15.453 4.1719-15.453q4.1875-5.6406 11.453-5.6406 7.1875 0 11.375 5.6562 4.2031 5.6719 4.2031 15.438 0 9.7188-4.2031 15.406-4.1875 5.6875-11.375 5.6875zm0 7.6094q11.719 0 18.406-7.625 6.7031-7.6094 6.7031-21.078 0-13.422-6.7031-21.078-6.6875-7.6406-18.406-7.6406-11.766 0-18.438 7.6406-6.6562 7.6562-6.6562 21.078 0 13.469 6.6562 21.078 6.6719 7.625 18.438 7.625z"/>
<path id="ab" d="m37.109 75.984v-7.4844h-8.5938q-4.8281 0-6.7188-1.9531-1.875-1.9531-1.875-7.0312v-4.8281h14.797v-6.9844h-14.797v-47.703h-9.0312v47.703h-8.5938v6.9844h8.5938v3.8125q0 9.125 4.25 13.297 4.25 4.1875 13.469 4.1875z"/>
<path id="n" d="m9.4219 54.688h8.9844v-54.688h-8.9844zm0 21.297h8.9844v-11.391h-8.9844z"/>
<path id="t" d="m9.4219 75.984h8.9844v-75.984h-8.9844z"/>
<path id="y" d="m8.5 21.578v33.109h8.9844v-32.766q0-7.7656 3.0156-11.656 3.0312-3.875 9.0938-3.875 7.2656 0 11.484 4.6406 4.2344 4.6406 4.2344 12.656v31h8.9844v-54.688h-8.9844v8.4062q-3.2656-4.9844-7.5938-7.4062-4.3125-2.4219-10.031-2.4219-9.4219 0-14.312 5.8594-4.875 5.8594-4.875 17.141zm22.609 34.422z"/>
<path id="j" d="m44.281 53.078v-8.5q-3.7969 1.9531-7.9062 2.9219-4.0938 0.98438-8.5 0.98438-6.6875 0-10.031-2.0469t-3.3438-6.1562q0-3.125 2.3906-4.9062t9.625-3.3906l3.0781-0.6875q9.5625-2.0469 13.594-5.7812t4.0312-10.422q0-7.625-6.0312-12.078-6.0312-4.4375-16.578-4.4375-4.3906 0-9.1562 0.85938t-10.031 2.5625v9.2812q4.9844-2.5938 9.8125-3.8906 4.8281-1.2812 9.5781-1.2812 6.3438 0 9.75 2.1719 3.4219 2.1719 3.4219 6.125 0 3.6562-2.4688 5.6094-2.4531 1.9531-10.812 3.7656l-3.125 0.73438q-8.3438 1.75-12.062 5.3906-3.7031 3.6406-3.7031 9.9844 0 7.7188 5.4688 11.906 5.4688 4.2031 15.531 4.2031 4.9688 0 9.3594-0.73438 4.4062-0.71875 8.1094-2.1875z"/>
<path id="x" d="m31 75.875q-6.5312-11.219-9.7188-22.219-3.1719-10.984-3.1719-22.266 0-11.266 3.2031-22.328t9.6875-22.25h-7.8125q-7.3125 11.484-10.953 22.562t-3.6406 22.016q0 10.891 3.6094 21.922 3.625 11.047 10.984 22.562z"/>
<path id="o" d="m45.406 46.391v29.594h8.9844v-75.984h-8.9844v8.2031q-2.8281-4.875-7.1562-7.25-4.3125-2.375-10.375-2.375-9.9062 0-16.141 7.9062-6.2188 7.9219-6.2188 20.812t6.2188 20.797q6.2344 7.9062 16.141 7.9062 6.0625 0 10.375-2.375 4.3281-2.3594 7.1562-7.2344zm-30.609-19.094q0-9.9062 4.0781-15.547t11.203-5.6406 11.219 5.6406q4.1094 5.6406 4.1094 15.547t-4.1094 15.547q-4.0938 5.6406-11.219 5.6406t-11.203-5.6406-4.0781-15.547z"/>
<path id="z" d="m9.0781 75.984h9.0312v-44.875l26.812 23.578h11.469l-29-25.578 30.234-29.109h-11.719l-27.797 26.703v-26.703h-9.0312z"/>
<path id="af" d="m25.391 72.906h8.2969l-25.391-82.188h-8.2969z"/>
<path id="r" d="m32.172-5.0781q-3.7969-9.7656-7.4219-12.734-3.6094-2.9844-9.6562-2.9844h-7.1875v7.5156h5.2812q3.7031 0 5.75 1.7656 2.0625 1.75 4.5469 8.2969l1.6094 4.0938-22.109 53.812h9.5156l17.094-42.766 17.094 42.766h9.5156z"/>
<path id="w" d="m8.0156 75.875h7.8125q7.3125-11.516 10.953-22.562 3.6406-11.031 3.6406-21.922 0-10.938-3.6406-22.016t-10.953-22.562h-7.8125q6.4844 11.188 9.6875 22.25t3.2031 22.328q0 11.281-3.2031 22.266-3.2031 11-9.6875 22.219z"/>
</defs>
<g transform="translate(354.59 45.398) scale(.1 -.1)">
<use xlink:href="#h"/>
<use x="41.113281" xlink:href="#i"/>
<use x="102.392578" xlink:href="#s"/>
<use x="141.601562" xlink:href="#c"/>
<use x="203.125" xlink:href="#DejaVuSans-20"/>
<use x="234.912109" xlink:href="#l"/>
<use x="296.09375" xlink:href="#ab"/>
<use x="331.298828" xlink:href="#DejaVuSans-20"/>
<use x="363.085938" xlink:href="#ab"/>
<use x="398.291016" xlink:href="#i"/>
<use x="459.570312" xlink:href="#n"/>
<use x="487.353516" xlink:href="#t"/>
<use x="515.136719" xlink:href="#y"/>
<use x="578.515625" xlink:href="#h"/>
<use x="619.597656" xlink:href="#c"/>
<use x="681.121094" xlink:href="#j"/>
<use x="733.220703" xlink:href="#DejaVuSans-20"/>
<use x="765.007812" xlink:href="#x"/>
<use x="804.021484" xlink:href="#o"/>
<use x="867.498047" xlink:href="#n"/>
<use x="895.28125" xlink:href="#j"/>
<use x="947.380859" xlink:href="#z"/>
<use x="1005.291016" xlink:href="#j"/>
<use x="1057.390625" xlink:href="#af"/>
<use x="1091.082031" xlink:href="#r"/>
<use x="1150.261719" xlink:href="#h"/>
<use x="1191.375" xlink:href="#w"/>
</g>
<path d="m326.59 60.077h20v-7h-20z" fill="#0766aa" fill-opacity=".2" stroke="#0766aa" stroke-opacity=".2"/>
<defs>
<path id="al" d="m48.688 27.297q0 9.9062-4.0781 15.547t-11.203 5.6406q-7.1406 0-11.219-5.6406t-4.0781-15.547 4.0781-15.547 11.219-5.6406q7.125 0 11.203 5.6406t4.0781 15.547zm-30.578 19.094q2.8438 4.875 7.1562 7.2344 4.3281 2.375 10.328 2.375 9.9688 0 16.188-7.9062 6.2344-7.9062 6.2344-20.797t-6.2344-20.812q-6.2188-7.9062-16.188-7.9062-6 0-10.328 2.375-4.3125 2.375-7.1562 7.25v-8.2031h-9.0312v75.984h9.0312z"/>
<path id="ai" d="m2.9844 54.688h9.5156l17.094-45.891 17.094 45.891h9.5156l-20.516-54.688h-12.203z"/>
</defs>
<g transform="translate(354.59 60.077) scale(.1 -.1)">
<use xlink:href="#o"/>
<use x="63.476562" xlink:href="#n"/>
<use x="91.259766" xlink:href="#j"/>
<use x="143.359375" xlink:href="#z"/>
<use x="201.269531" xlink:href="#j"/>
<use x="253.369141" xlink:href="#DejaVuSans-20"/>
<use x="285.15625" xlink:href="#l"/>
<use x="346.337891" xlink:href="#al"/>
<use x="409.814453" xlink:href="#j"/>
<use x="461.914062" xlink:href="#c"/>
<use x="523.4375" xlink:href="#h"/>
<use x="564.550781" xlink:href="#ai"/>
<use x="623.730469" xlink:href="#c"/>
<use x="685.253906" xlink:href="#o"/>
</g>
<path d="m40.603 375.64h446.02v-189.1h-446.02z" fill="#fff"/>
<path d="m40.603 375.64v-189.1" clip-path="url(#d)" fill="none" stroke="#b0b0b0" stroke-linecap="square" stroke-width=".8"/>
<use x="40.603125" y="375.64" stroke="#000000" stroke-width=".8" xlink:href="#g"/>
<g transform="translate(37.422 390.24) scale(.1 -.1)">
<use xlink:href="#e"/>
</g>
<path d="m165.39 375.64v-189.1" clip-path="url(#d)" fill="none" stroke="#b0b0b0" stroke-linecap="square" stroke-width=".8"/>
<use x="165.393497" y="375.64" stroke="#000000" stroke-width=".8" xlink:href="#g"/>
<g transform="translate(162.21 390.24) scale(.1 -.1)">
<use xlink:href="#f"/>
</g>
<path d="m290.18 375.64v-189.1" clip-path="url(#d)" fill="none" stroke="#b0b0b0" stroke-linecap="square" stroke-width=".8"/>
<use x="290.183869" y="375.64" stroke="#000000" stroke-width=".8" xlink:href="#g"/>
<g transform="translate(287 390.24) scale(.1 -.1)">
<use xlink:href="#q"/>
</g>
<path d="m414.97 375.64v-189.1" clip-path="url(#d)" fill="none" stroke="#b0b0b0" stroke-linecap="square" stroke-width=".8"/>
<use x="414.974241" y="375.64" stroke="#000000" stroke-width=".8" xlink:href="#g"/>
<g transform="translate(411.79 390.24) scale(.1 -.1)">
<use xlink:href="#m"/>
</g>
<defs>
<path id="ac" d="m34.188 63.188-13.391-36.281h26.812zm-5.5781 9.7188h11.188l27.781-72.906h-10.25l-6.6406 18.703h-32.859l-6.6406-18.703h-10.406z"/>
<path id="aa" d="m45.406 27.984q0 9.7656-4.0312 15.125-4.0156 5.375-11.297 5.375-7.2188 0-11.25-5.375-4.0312-5.3594-4.0312-15.125 0-9.7188 4.0312-15.094t11.25-5.375q7.2812 0 11.297 5.375 4.0312 5.375 4.0312 15.094zm8.9844-21.203q0-13.953-6.2031-20.766-6.1875-6.8125-18.984-6.8125-4.7344 0-8.9375 0.70312t-8.1562 2.1719v8.7344q3.9531-2.1406 7.8125-3.1562 3.8594-1.0312 7.8594-1.0312 8.8438 0 13.234 4.6094t4.3906 13.938v4.4531q-2.7812-4.8438-7.125-7.2344t-10.406-2.3906q-10.047 0-16.203 7.6562-6.1562 7.6719-6.1562 20.328 0 12.688 6.1562 20.344 6.1562 7.6719 16.203 7.6719 6.0625 0 10.406-2.3906t7.125-7.2188v8.2969h8.9844z"/>
<path id="aj" d="m18.109 8.2031v-29h-9.0312v75.484h9.0312v-8.2969q2.8438 4.875 7.1562 7.2344 4.3281 2.375 10.328 2.375 9.9688 0 16.188-7.9062 6.2344-7.9062 6.2344-20.797t-6.2344-20.812q-6.2188-7.9062-16.188-7.9062-6 0-10.328 2.375-4.3125 2.375-7.1562 7.25zm30.578 19.094q0 9.9062-4.0781 15.547t-11.203 5.6406q-7.1406 0-11.219-5.6406t-4.0781-15.547 4.0781-15.547 11.219-5.6406q7.125 0 11.203 5.6406t4.0781 15.547z"/>
<path id="ah" d="m4.2031 54.688h8.9844l11.234-42.672 11.172 42.672h10.594l11.234-42.672 11.188 42.672h8.9844l-14.312-54.688h-10.594l-11.766 44.828-11.812-44.828h-10.609z"/>
<path id="ar" d="m4.8906 31.391h26.312v-8h-26.312z"/>
<path id="ak" d="m54.891 33.016v-33.016h-8.9844v32.719q0 7.7656-3.0312 11.609-3.0312 3.8594-9.0781 3.8594-7.2812 0-11.484-4.6406-4.2031-4.625-4.2031-12.641v-30.906h-9.0312v54.688h9.0312v-8.5q3.2344 4.9375 7.5938 7.375 4.375 2.4375 10.094 2.4375 9.4219 0 14.25-5.8281 4.8438-5.8281 4.8438-17.156z"/>
</defs>
<g transform="translate(209.62 403.92) scale(.1 -.1)">
<use xlink:href="#ac"/>
<use x="68.408203" xlink:href="#aa"/>
<use x="131.884766" xlink:href="#c"/>
<use x="193.408203" xlink:href="#DejaVuSans-20"/>
<use x="225.195312" xlink:href="#x"/>
<use x="264.208984" xlink:href="#aj"/>
<use x="327.685547" xlink:href="#l"/>
<use x="388.867188" xlink:href="#ah"/>
<use x="470.654297" xlink:href="#c"/>
<use x="532.177734" xlink:href="#h"/>
<use x="573.197266" xlink:href="#ar"/>
<use x="609.296875" xlink:href="#l"/>
<use x="670.478516" xlink:href="#ak"/>
<use x="733.857422" xlink:href="#DejaVuSans-20"/>
<use x="765.644531" xlink:href="#r"/>
<use x="824.824219" xlink:href="#c"/>
<use x="886.347656" xlink:href="#i"/>
<use x="947.626953" xlink:href="#h"/>
<use x="988.740234" xlink:href="#j"/>
<use x="1040.839844" xlink:href="#w"/>
</g>
<path d="m40.603 375.64h446.02" clip-path="url(#d)" fill="none" stroke="#b0b0b0" stroke-linecap="square" stroke-width=".8"/>
<use x="40.603125" y="375.64" stroke="#000000" stroke-width=".8" xlink:href="#b"/>
<g transform="translate(27.241 379.44) scale(.1 -.1)">
<use xlink:href="#e"/>
</g>
<path d="m40.603 344.12h446.02" clip-path="url(#d)" fill="none" stroke="#b0b0b0" stroke-linecap="square" stroke-width=".8"/>
<use x="40.603125" y="344.122802" stroke="#000000" stroke-width=".8" xlink:href="#b"/>
<defs>
<path id="ad" d="m31.781 34.625q-7.0312 0-11.062-3.7656-4.0156-3.7656-4.0156-10.344 0-6.5938 4.0156-10.359 4.0312-3.7656 11.062-3.7656t11.078 3.7812q4.0625 3.7969 4.0625 10.344 0 6.5781-4.0312 10.344-4.0156 3.7656-11.109 3.7656zm-9.8594 4.1875q-6.3438 1.5625-9.8906 5.9062-3.5312 4.3594-3.5312 10.609 0 8.7344 6.2188 13.812 6.2344 5.0781 17.062 5.0781 10.891 0 17.094-5.0781t6.2031-13.812q0-6.25-3.5469-10.609-3.5312-4.3438-9.8281-5.9062 7.125-1.6562 11.094-6.5 3.9844-4.8281 3.9844-11.797 0-10.609-6.4688-16.281-6.4688-5.6562-18.531-5.6562-12.047 0-18.531 5.6562-6.4688 5.6719-6.4688 16.281 0 6.9688 4 11.797 4.0156 4.8438 11.141 6.5zm-3.6094 15.578q0-5.6562 3.5312-8.8281 3.5469-3.1719 9.9375-3.1719 6.3594 0 9.9375 3.1719 3.5938 3.1719 3.5938 8.8281 0 5.6719-3.5938 8.8438-3.5781 3.1719-9.9375 3.1719-6.3906 0-9.9375-3.1719-3.5312-3.1719-3.5312-8.8438z"/>
</defs>
<g transform="translate(27.241 347.92) scale(.1 -.1)">
<use xlink:href="#ad"/>
</g>
<path d="m40.603 312.61h446.02" clip-path="url(#d)" fill="none" stroke="#b0b0b0" stroke-linecap="square" stroke-width=".8"/>
<use x="40.603125" y="312.605603" stroke="#000000" stroke-width=".8" xlink:href="#b"/>
<g transform="translate(20.878 316.4) scale(.1 -.1)">
<use xlink:href="#f"/>
<use x="63.623047" xlink:href="#v"/>
</g>
<path d="m40.603 281.09h446.02" clip-path="url(#d)" fill="none" stroke="#b0b0b0" stroke-linecap="square" stroke-width=".8"/>
<use x="40.603125" y="281.088405" stroke="#000000" stroke-width=".8" xlink:href="#b"/>
<g transform="translate(20.878 284.89) scale(.1 -.1)">
<use xlink:href="#q"/>
<use x="63.623047" xlink:href="#p"/>
</g>
<path d="m40.603 249.57h446.02" clip-path="url(#d)" fill="none" stroke="#b0b0b0" stroke-linecap="square" stroke-width=".8"/>
<use x="40.603125" y="249.571206" stroke="#000000" stroke-width=".8" xlink:href="#b"/>
<g transform="translate(20.878 253.37) scale(.1 -.1)">
<use xlink:href="#m"/>
<use x="63.623047" xlink:href="#q"/>
</g>
<path d="m40.603 218.05h446.02" clip-path="url(#d)" fill="none" stroke="#b0b0b0" stroke-linecap="square" stroke-width=".8"/>
<use x="40.603125" y="218.054008" stroke="#000000" stroke-width=".8" xlink:href="#b"/>
<g transform="translate(20.878 221.85) scale(.1 -.1)">
<use xlink:href="#p"/>
<use x="63.623047" xlink:href="#e"/>
</g>
<path d="m40.603 186.54h446.02" clip-path="url(#d)" fill="none" stroke="#b0b0b0" stroke-linecap="square" stroke-width=".8"/>
<use x="40.603125" y="186.536809" stroke="#000000" stroke-width=".8" xlink:href="#b"/>
<g transform="translate(20.878 190.34) scale(.1 -.1)">
<use xlink:href="#p"/>
<use x="63.623047" xlink:href="#ad"/>
</g>
<defs>
<path id="ap" d="m9.8125 72.906h41.891v-8.3125h-32.031v-21.484h28.906v-8.2969h-28.906v-34.812h-9.8594z"/>
<path id="an" d="m44.391 34.188q3.1719-1.0781 6.1719-4.5938t6.0312-9.6719l10.016-19.922h-10.609l-9.3125 18.703q-3.625 7.3281-7.0156 9.7188t-9.25 2.3906h-10.75v-30.812h-9.8594v72.906h22.266q12.5 0 18.656-5.2344 6.1562-5.2188 6.1562-15.766 0-6.8906-3.2031-11.438-3.2031-4.5312-9.2969-6.2812zm-24.719 30.609v-25.875h12.406q7.125 0 10.766 3.2969t3.6406 9.6875-3.6406 9.6406-10.766 3.25z"/>
<path id="as" d="m72.703 32.078q-4.25 0-6.6719-3.6094-2.4062-3.6094-2.4062-10.062 0-6.3438 2.4062-9.9844 2.4219-3.6406 6.6719-3.6406 4.1562 0 6.5625 3.6406 2.4219 3.6406 2.4219 9.9844 0 6.4062-2.4219 10.031-2.4062 3.6406-6.5625 3.6406zm0 6.2031q7.7188 0 12.25-5.375 4.5469-5.3594 4.5469-14.5 0-9.125-4.5625-14.484-4.5625-5.3438-12.234-5.3438-7.8125 0-12.359 5.3438-4.5312 5.3594-4.5312 14.484 0 9.1875 4.5625 14.531t12.328 5.3438zm-50.391 29.734q-4.2031 0-6.625-3.6406-2.4062-3.625-2.4062-9.9844 0-6.4375 2.3906-10.062 2.3906-3.6094 6.6406-3.6094t6.6562 3.6094q2.4219 3.625 2.4219 10.062 0 6.2969-2.4375 9.9531-2.4375 3.6719-6.6406 3.6719zm44.094 6.2031h7.8125l-45.609-75.641h-7.8125zm-44.094 0q7.7188 0 12.297-5.3438 4.5938-5.3438 4.5938-14.484 0-9.2188-4.5625-14.547t-12.328-5.3281-12.281 5.3438q-4.5156 5.3594-4.5156 14.531 0 9.0938 4.5312 14.453 4.5469 5.375 12.266 5.375z"/>
</defs>
<g transform="translate(14.798 334.34) rotate(-90) scale(.1 -.1)">
<use xlink:href="#ap"/>
<use x="57.378906" xlink:href="#i"/>
<use x="118.658203" xlink:href="#n"/>
<use x="146.441406" xlink:href="#t"/>
<use x="174.224609" xlink:href="#y"/>
<use x="237.603516" xlink:href="#h"/>
<use x="278.685547" xlink:href="#c"/>
<use x="340.208984" xlink:href="#DejaVuSans-20"/>
<use x="371.996094" xlink:href="#an"/>
<use x="441.447266" xlink:href="#i"/>
<use x="502.726562" xlink:href="#s"/>
<use x="541.935547" xlink:href="#c"/>
<use x="603.458984" xlink:href="#DejaVuSans-20"/>
<use x="635.246094" xlink:href="#x"/>
<use x="674.259766" xlink:href="#as"/>
<use x="769.279297" xlink:href="#af"/>
<use x="802.970703" xlink:href="#r"/>
<use x="862.150391" xlink:href="#c"/>
<use x="923.673828" xlink:href="#i"/>
<use x="984.953125" xlink:href="#h"/>
<use x="1026.066406" xlink:href="#w"/>
</g>
<path d="m82.693 305.67 0.46828 0.70515 0.46828 0.26694 0.46828 0.075747 0.46828-0.16538 0.46828-0.37982 1.639-1.9945 3.5121-4.7184 11.473-15.991 1.639-2.1048 4.917-5.6879 2.8097-3.5597 1.8731-2.3508 2.5756-3.1393 2.1073-2.5758 1.1707-1.285 0.93657-0.64049 0.46828-0.21552 0.70242 0.24391 2.1073 1.012 2.1073 1.2544 2.1073 1.4995 2.3414 1.956 5.6194 5.7372 2.1073 1.7651 1.8731 1.3373 1.639 1.4172 9.5998 12.561 1.639 2.1333 3.9804 5.3878 2.3414 2.8037 1.639 1.6721 0.93657 0.72684 2.5756 1.1361 1.639 0.27716 3.7463 0.41838 10.068 3.254 12.175 3.8838 4.4487 2.1988 4.2146 2.299 7.2584 5.0913 10.068 7.2689 3.9804 3.3947 7.2584 6.3368 1.4048 2.9841 1.4049 2.5121 1.8731 3.1218 1.1707 2.4521 1.1707 1.9163 1.1707 1.5083 1.1707 1.1913 1.4049 1.0996 1.4048 0.81862 1.639 0.68223 1.8731 0.54476 2.1073 0.62976 5.8535 1.8264 2.3414 0.44021 2.8097 0.2985 1.1707-0.02216 0.93657-0.029279 1.1707-0.10804 1.639-0.42471 2.1073-0.4662 5.3853-0.6709 5.8535-0.49952 3.9804-0.35581 2.3414-0.53061 3.5121-0.80254 3.7463-0.63008 3.9804-0.44437 4.917-0.29861 5.3853-0.1147 2.8097-0.082527 2.3414-0.52288 2.3414-0.53437 3.278-0.47586 3.0438-0.18687 3.0438-0.046163 3.0438 0.16686 3.278 0.39823 4.4487 0.79769 5.1511 1.1631 3.7463 1.1083 3.9804 1.2052 10.068 2.5154 4.6828 1.5094 7.7267 2.5821 3.7463 1.0055 4.4487 0.76801 12.175 1.9624 3.0438 0.3249 1.8731-0.17308 2.5756-0.53517 2.8097-0.7417 4.2146-1.5806 7.7267-2.8398 4.4487-1.656 8.4291-3.3754 3.5121-1.1218 3.278-0.82478 3.278-0.59941 3.278-0.36255 3.0438-0.11369 3.0438 0.1121 2.8097 0.314 2.8097 0.52634 2.8097 0.74943 5.1511 1.4958 3.5121 0.88902 3.5121 1.1215 5.6194 2.1005v0" clip-path="url(#d)" fill="none" stroke="#d2691e" stroke-linecap="square" stroke-width="1.5"/>
<path d="m40.603 375.64v-189.1" fill="none" stroke="#000" stroke-linecap="square" stroke-width=".8"/>
<path d="m486.62 375.64v-189.1" fill="none" stroke="#000" stroke-linecap="square" stroke-width=".8"/>
<path d="m40.603 375.64h446.02" fill="none" stroke="#000" stroke-linecap="square" stroke-width=".8"/>
<path d="m40.603 186.54h446.02" fill="none" stroke="#000" stroke-linecap="square" stroke-width=".8"/>
<defs>
<path id="ao" d="m9.8125 72.906h14.703l18.594-49.609 18.703 49.609h14.703v-72.906h-9.625v64.016l-18.797-50h-9.9062l-18.797 50v-64.016h-9.5781z"/>
<path id="aq" d="m11.719 12.406h10.297v-12.406h-10.297zm0 39.297h10.297v-12.391h-10.297z"/>
<path id="u" d="m53.516 70.516v-9.625q-5.6094 2.6875-10.594 4-4.9844 1.3281-9.625 1.3281-8.0469 0-12.422-3.125t-4.375-8.8906q0-4.8438 2.9062-7.3125 2.9062-2.4531 11.016-3.9688l5.9531-1.2188q11.031-2.1094 16.281-7.4062t5.25-14.172q0-10.609-7.1094-16.078-7.0938-5.4688-20.812-5.4688-5.1719 0-11.016 1.1719-5.8281 1.1719-12.078 3.4688v10.156q6-3.3594 11.766-5.0781 5.7656-1.7031 11.328-1.7031 8.4375 0 13.031 3.3125 4.5938 3.3281 4.5938 9.4844 0 5.3594-3.2969 8.3906t-10.812 4.5469l-6.0156 1.1719q-11.031 2.1875-15.969 6.875-4.9219 4.6875-4.9219 13.047 0 9.6719 6.8125 15.234t18.766 5.5625q5.1406 0 10.453-0.9375 5.3281-0.92188 10.891-2.7656z"/>
<path id="am" d="m-0.29688 72.906h61.672v-8.3125h-25.875v-64.594h-9.9062v64.594h-25.891z"/>
</defs>
<g transform="translate(153.46 16.318) scale(.12 -.12)">
<use xlink:href="#ao"/>
<use x="86.279297" xlink:href="#l"/>
<use x="147.460938" xlink:href="#o"/>
<use x="210.9375" xlink:href="#c"/>
<use x="272.460938" xlink:href="#t"/>
<use x="300.244141" xlink:href="#aq"/>
<use x="333.935547" xlink:href="#DejaVuSans-20"/>
<use x="365.722656" xlink:href="#u"/>
<use x="429.199219" xlink:href="#c"/>
<use x="490.722656" xlink:href="#i"/>
<use x="552.001953" xlink:href="#aa"/>
<use x="615.478516" xlink:href="#i"/>
<use x="676.757812" xlink:href="#s"/>
<use x="715.966797" xlink:href="#c"/>
<use x="777.490234" xlink:href="#DejaVuSans-20"/>
<use x="809.277344" xlink:href="#u"/>
<use x="872.753906" xlink:href="#am"/>
<use x="933.837891" xlink:href="#m"/>
<use x="997.460938" xlink:href="#m"/>
<use x="1061.083984" xlink:href="#e"/>
<use x="1124.707031" xlink:href="#e"/>
<use x="1188.330078" xlink:href="#e"/>
<use x="1251.953125" xlink:href="#v"/>
<use x="1315.576172" xlink:href="#ae"/>
<use x="1379.199219" xlink:href="#f"/>
<use x="1442.822266" xlink:href="#ac"/>
<use x="1511.230469" xlink:href="#u"/>
</g>
<defs>
<clipPath id="k">
<rect x="40.603" y="28.8" width="446.02" height="141.83"/>
</clipPath>
<clipPath id="d">
<rect x="40.603" y="186.54" width="446.02" height="189.1"/>
</clipPath>
</defs>
</svg>
