<?xml version="1.0" encoding="UTF-8"?>
<!DOCTYPE svg  PUBLIC '-//W3C//DTD SVG 1.1//EN'  'http://www.w3.org/Graphics/SVG/1.1/DTD/svg11.dtd'>
<svg width="497pt" height="413pt" version="1.1" viewBox="0 0 497 413" xmlns="http://www.w3.org/2000/svg" xmlns:xlink="http://www.w3.org/1999/xlink">
<defs>
<style type="text/css">*{stroke-linecap:butt;stroke-linejoin:round;}</style>
</defs>
<path d="m0 413.2h497.32v-413.2h-497.32z" fill="#fff"/>
<path d="m40.603 170.63h446.02v-141.83h-446.02z" fill="#fff"/>
<defs>
<path id="ae" d="m65.925-235.45v-32.426l0.20728-0.056554 0.20728-0.31801 0.20728-0.30831 0.20728-0.29918 0.20728-0.29057 0.20728-0.28244 0.20728-0.27475 0.20728-0.26747 0.20728-0.26056 0.20728-0.25254 0.20728-0.24345 0.20728-0.23738 0.20728-0.23402 0.20728-0.23046 0.20728-0.22509 0.20728-0.21995 0.20728-0.21548 0.20728-0.21135 0.20728-0.20739 0.20728-0.20358 0.20728-0.19991 0.20728-0.19637 0.20728-0.19296 0.20728-0.18968 0.20728-0.1865 0.20728-0.18344 0.20728-0.18048 0.20728-0.17761 0.20728-0.17484 0.20728-0.17216 0.20728-0.16956 0.20728-0.30704 0.20728-0.29817 0.20728-0.2898 0.20728-0.2819 0.20728-0.27441 0.20728-0.26731 0.20728-0.26057 0.20728-0.25416 0.20728-0.24806 0.20728-0.24225 0.20728-0.23687 0.20728-0.23195 0.20728-0.22723 0.20728-0.22271 0.20728-0.21838 0.20728-0.21421 0.20728-0.21021 0.20728-0.20636 0.20728-0.20489 0.20728-0.20093 0.20728-0.19698 0.20728-0.19318 0.20728-0.18952 0.20728-0.186 0.20728-0.18121 0.20728-0.17898 0.20728-0.17681 0.20728-0.17418 0.20728-0.17124 0.20728-0.16833 0.20728-0.16551 0.20728-0.16353 0.20728-0.16483 0.20728-0.16619 0.20728-0.16323 0.20728-0.16038 0.20728-0.15761 0.20728-0.092102 0.20728-0.091345 0.20728-0.090599 0.20728-0.091363 0.20728-0.091136 0.20728-0.090907 0.20728-0.091876 0.20728-0.091373 0.20728-0.090875 0.20728-0.090516 0.20728-0.090233 0.20728-0.089407 0.20728-0.089028 0.20728-0.089409 0.20728-0.08876 0.20728-0.08812 0.20728-0.087489 0.20728-0.086869 0.20728-0.087048 0.20728-0.088127 0.20728-0.087607 0.20728-0.087093 0.20728-0.086587 0.20728-0.086086 0.20728-0.085593 0.20728-0.085106 0.20728-0.17535 0.20728-0.35526 0.20728-0.54794 0.20728-0.53832 0.20728-0.50265 0.20728-0.51794 0.20728-0.50451 0.20728-0.50154 0.20728-0.48121 0.20728-0.4631 0.20728-0.44639 0.20728-0.43094 0.20728-0.43069 0.20728-0.41386 0.20728-0.39906 0.20728-0.38553 0.20728-0.37411 0.20728-0.37093 0.20728-0.36875 0.20728-0.35609 0.20728-0.34428 0.20728-0.33343 0.20728-0.3228 0.20728-0.31311 0.20728-0.3064 0.20728-0.30166 0.20728-0.29708 0.20728-0.29263 0.20728-0.29587 0.20728-0.29771 0.20728-0.28906 0.20728-0.28101 0.20728-0.27346 0.20728-0.2663 0.20728-0.25951 0.20728-0.2529 0.20728-0.24597 0.20728-0.23935 0.20728-0.23388 0.20728-0.23138 0.20728-0.26387 0.20728-0.28303 0.20728-0.31336 0.20728-0.30419 0.20728-0.2968 0.20728-0.29006 0.20728-0.28364 0.20728-0.2924 0.20728-0.28424 0.20728-0.27653 0.20728-0.26921 0.20728-0.26224 0.20728-0.2556 0.20728-0.24924 0.20728-0.24315 0.20728-0.2375 0.20728-0.23211 0.20728-0.22695 0.20728-0.22202 0.20728-0.21733 0.20728-0.21273 0.20728-0.20853 0.20728-0.2045 0.20728-0.20062 0.20728-0.19688 0.20728-0.19329 0.20728-0.18982 0.20728-0.17476 0.20728-0.14797 0.20728-0.12388 0.20728-0.12117 0.20728-0.12637 0.20728-0.13205 0.20728-0.17992 0.20728-0.17345 0.20728-0.17008 0.20728-0.16676 0.20728-0.16394 0.20728-0.1613 0.20728-0.15608 0.20728-0.15415 0.20728-0.15212 0.20728-0.15011 0.20728-0.1479 0.20728-0.14415 0.20728-0.14028 0.20728-0.13883 0.20728-0.13741 0.20728-0.13597 0.20728-0.1346 0.20728-0.13284 0.20728-0.13055 0.20728-0.12814 0.20728-0.12559 0.20728-0.12306 0.20728-0.11861 0.20728-0.11449 0.20728-0.11323 0.20728-0.11199 0.20728-0.11078 0.20728-0.1096 0.20728-0.10844 0.20728-0.10731 0.20728-0.1062 0.20728-0.10511 0.20728-0.10504 0.20728-0.10766 0.20728-0.11876 0.20728-0.114 0.20728-0.1159 0.20728-0.11458 0.20728-0.11278 0.20728-0.11099 0.20728-0.10923 0.20728-0.10217 0.20728-0.10114 0.20728-0.10014 0.20728-0.099153 0.20728-0.098186 0.20728-0.097238 0.20728-0.096307 0.20728-0.096922 0.20728-0.097886 0.20728-0.10082 0.20728-0.099925 0.20728-0.099108 0.20728-0.09939 0.20728-0.098339 0.20728-0.09731 0.20728-0.096301 0.20728-0.095339 0.20728-0.094405 0.20728-0.093487 0.20728-0.092587 0.20728-0.091704 0.20728-0.090982 0.20728-0.088629 0.20728-0.087217 0.20728-0.081025 0.20728-0.074226 0.20728-0.049505 0.20728-0.049243 0.20728-0.048986 0.20728-0.048721 0.20728-0.048266 0.20728-0.04777 0.20728-0.047282 0.20728-0.046799 0.20728-0.046321 0.20728-0.045849 0.20728-0.045383 0.20728-0.044921 0.20728-0.044464 0.20728-0.044014 0.20728-0.043567 0.20728-0.043129 0.20728-0.042666 0.20728-0.04245 0.20728-0.042231 0.20728-0.041883 0.20728-0.041662 0.20728-0.041493 0.20728-0.041325 0.20728-0.041158 0.20728-0.040993 0.20728-0.04083 0.20728-0.040666 0.20728-0.040505 0.20728-0.040346 0.20728-0.040186 0.20728-0.040029 0.20728-0.039872 0.20728-0.03909 0.20728-0.036095 0.20728-0.020768 0.20728-0.017656 0.20728-0.007638 0.20728-0.007614 0.20728-0.007592 0.20728-0.00757 1.6582-0.060443 0.20728-0.00645 0.20728-0.00507 0.20728-0.002206 0.20728-0.002137 0.20728-0.00202 0.20728-0.001033 0.20728-0.001048 0.20728-0.001064 0.20728-0.00108 0.20728-0.001074 0.20728-0.001061 0.20728-0.001047 0.20728-0.001035 0.20728-0.001021 0.20728-8.88e-4 1.2437 6.46e-4 0.41455 1.79e-4 0.41455 1.47e-4 0.41455 1.13e-4 0.41455 8e-5 0.41455 4.7e-5 0.20728-1.03e-4 0.20728-6.51e-4 0.20728-9.42e-4 0.20728-0.001499 0.62183-0.004993 0.41455-0.003363 0.20728-0.001669 0.20728-0.001656 0.20728-0.001643 0.20728-0.001592 2.0728-0.015793 0.62183-0.004792 0.41455-0.003228 0.62183-0.004895 0.62183-0.004957 0.20728-0.001665 0.20728-0.001791 0.20728-0.001836 0.20728-0.001828 0.20728-0.00182 0.20728-0.001811 0.20728-0.001803 0.20728-0.001795 3.1091-0.026054 0.20728-0.00173 0.20728-0.001723 0.20728-0.001717 0.20728-0.001709 0.20728-0.001703 0.20728-0.001696 0.20728-0.001689 0.20728-0.001682 0.20728-0.001675 0.20728-0.001669 0.20728-0.001548 0.20728-0.001009 0.20728-7.22e-4 0.20728-1.72e-4 0.41455-3.7e-5 0.41455-6.8e-5 0.41455-9.7e-5 0.41455-1.26e-4 0.20728-1.12e-4 0.20728-1.24e-4 0.20728-1.18e-4 0.20728-1.1e-4 0.20728-1.05e-4 0.20728-9.7e-5 0.20728-9.1e-5 0.20728-8.5e-5 0.20728-7.8e-5 0.20728-7.1e-5 0.20728-6.5e-5 0.20728-5.8e-5 0.20728-5.2e-5 0.20728-4.5e-5 0.20728-3.9e-5 0.20728-3.2e-5 0.20728-2.6e-5 0.20728-1.9e-5 0.20728-1.2e-5 0.20728-6e-6h0.20728l0.20728 8e-6 0.20728 1.3e-5 0.20728 1.38e-4 0.41455 3.56e-4 0.41455 3.24e-4 0.41455 2.89e-4 6.2183 0.002428 0.20728-6.94e-4 0.20728-0.002488 0.20728-0.002483 0.20728-0.002478 0.20728-0.002472 0.20728-0.002466 0.20728-0.00246 0.20728-0.002456 0.20728-0.002449 0.20728-0.002444 0.41455-0.004877 0.62183-0.00731 0.62183-0.007304 0.62183-0.007298 0.41455-0.004862 0.41455-0.004859 0.62183-0.007284 0.8291-0.009702 0.62183-0.00727 0.62183-0.007264 0.62183-0.007258 0.62183-0.007252 0.62183-0.007246 0.62183-0.00724 0.62183-0.007234 0.41455-0.004819 0.20728-0.002408 0.20728-0.002403 0.20728-0.002398 0.20728-0.002393 0.20728-0.002388 0.20728-0.002383 0.20728-0.002378 0.20728-0.002373 0.20728-0.002369 0.20728-0.002363 0.20728-0.002358 0.20728-0.002336 0.20728-0.001557 2.0728 0.002272 0.20728 2.52e-4 0.20728 2.86e-4 0.41455 5.79e-4 0.20728 2.92e-4 0.41455 5.89e-4 0.41455 5.97e-4 0.41455 6.05e-4 0.20728 3.05e-4 0.41455 6.15e-4 0.41455 6.23e-4 0.20728 3.14e-4 0.20728 3.16e-4 0.20728 3.18e-4 0.20728 3.21e-4 0.20728 3.38e-4 0.20728 3.56e-4 1.4509 0.002619 1.0364 0.001879 2.6946 0.004902 1.0364 0.001791 0.62183 0.001027 0.20728 3.2e-4 0.20728 3e-4 0.8291 0.001107 0.8291 0.001035 0.41455 4.91e-4 0.20728 2.17e-4 2.28 0.00191 1.6582 0.001249 0.20728 1.32e-4 0.20728 1.13e-4 6.6328 0.00289 7.8765 0.002605 4.1455 0.001078 0.20728 6e-5 0.20728 6.6e-5 0.20728 7.3e-5 0.20728 8e-5 0.20728 8.7e-5 0.20728 9.3e-5 0.20728 1.01e-4 0.41455 2.08e-4 0.8291 4.26e-4 0.62183 3.26e-4 0.41455 2.21e-4 0.62183 3.36e-4 0.62183 3.42e-4 0.8291 4.66e-4 0.62183 3.56e-4 0.62183 3.62e-4 0.62183 3.68e-4 0.62183 3.74e-4 0.62183 3.8e-4 0.62183 3.86e-4 0.20728 1.3e-4 0.20728 1.32e-4 0.20728 1.34e-4 0.20728 1.37e-4 0.20728 1.4e-4 0.20728 1.42e-4 0.20728 1.46e-4 0.20728 1.48e-4 0.20728 1.51e-4 0.20728 1.54e-4 0.20728 1.57e-4 0.20728 1.59e-4 0.20728 1.62e-4 0.20728 1.65e-4 0.20728 1.68e-4 0.20728 1.71e-4 0.20728 1.74e-4 0.20728 1.76e-4 0.20728 1.83e-4 0.20728 1.88e-4 1.2437 0.00114 0.20728 1.98e-4 0.20728 2.39e-4 0.20728 2.41e-4 0.20728 2.47e-4 0.20728 2.53e-4 0.20728 2.59e-4 0.20728 2.65e-4 0.20728 2.71e-4 0.20728 2.77e-4 0.20728 2.82e-4 0.20728 2.87e-4 0.20728 2.9e-4 0.20728 2.95e-4 0.20728 2.99e-4 0.20728 3.03e-4 0.20728 3.07e-4 0.20728 3.12e-4 0.20728 3.16e-4 0.20728 3.2e-4 0.20728 3.25e-4 0.20728 3.31e-4 0.20728 3.37e-4 0.20728 3.42e-4 0.20728 3.48e-4 0.20728 3.54e-4 0.20728 3.59e-4 0.20728 3.66e-4 0.41455 7.39e-4 0.20728 3.71e-4 0.41455 7.46e-4 0.41455 7.51e-4 0.20728 3.77e-4 0.41455 7.58e-4 0.41455 7.63e-4 2.28 0.004214 0.20728 3.98e-4 0.20728 4.13e-4 0.20728 4.29e-4 0.20728 4.39e-4 0.20728 4.51e-4 0.20728 4.61e-4 0.20728 4.71e-4 0.20728 4.77e-4 0.20728 4.81e-4 0.20728 4.84e-4 0.20728 4.87e-4 1.2437 0.002929 0.20728 4.7e-4 1.2437 0.002505 1.6582 0.003175 1.2437 0.002269 1.0364 0.001789 0.62183 0.001032 0.20728 3.83e-4 0.20728 4e-4 0.20728 4.03e-4 0.20728 4.05e-4 0.20728 4.07e-4 0.20728 4.1e-4 0.20728 4.12e-4 0.20728 4.14e-4 0.20728 4.17e-4 0.20728 4.2e-4 0.20728 4.22e-4 0.20728 4.24e-4 1.8655 0.003847 0.20728 4.1e-4 0.20728 3.93e-4 0.20728 3.77e-4 0.20728 3.66e-4 0.20728 3.54e-4 0.20728 3.43e-4 0.62183 9.78e-4 0.62183 9.23e-4 1.6582 0.002278 2.28 0.002881 3.1091 0.003625 0.20728 1.93e-4 4.3528 0.003646 5.1819 0.003822 0.20728 1.54e-4 0.20728 1.58e-4 0.20728 1.63e-4 0.20728 1.68e-4 0.20728 1.73e-4 0.20728 1.77e-4 0.20728 1.82e-4 0.20728 1.87e-4 0.20728 1.91e-4 0.20728 1.98e-4 0.20728 2.06e-4 0.20728 2.13e-4 0.20728 2.2e-4 0.20728 2.29e-4 0.20728 2.35e-4 0.41455 4.83e-4 2.6946 0.003098 0.8291 8.99e-4 0.20728 2.26e-4 0.20728 2.3e-4 0.20728 2.46e-4 0.20728 2.61e-4 0.20728 2.77e-4 0.20728 3.38e-4 0.20728 3.4e-4 0.41455 6.89e-4 0.20728 3.49e-4 0.20728 3.51e-4 0.20728 3.54e-4 0.20728 3.57e-4 0.20728 3.59e-4 0.20728 3.62e-4 0.20728 3.65e-4 0.20728 3.67e-4 0.41455 7.43e-4 0.20728 3.8e-4 0.20728 3.88e-4 0.20728 3.95e-4 0.20728 4.02e-4 0.20728 4.1e-4 0.20728 4.17e-4 0.41455 9.59e-4 0.41455 9.67e-4 0.20728 4.86e-4 0.20728 4.88e-4 1.6582 0.003878 0.8291 0.001871 0.62183 0.001345 4.5601 0.009283 0.20728 4.1e-4 0.20728 3.95e-4 0.20728 3.78e-4 0.20728 3.61e-4 1.2437 0.001755 1.2437 0.001642 0.62183 7.74e-4 0.41455 4.8e-4 0.41455 4.48e-4 0.20728 2.13e-4 1.8655 0.001269 2.0728 0.001195 0.20728 1.09e-4 0.20728 1.12e-4 0.20728 1.24e-4 0.20728 1.35e-4 0.20728 1.47e-4 4.1455 0.003051 0.41455 3.1e-4 0.62183 4.72e-4 0.41455 3.2e-4 0.20728 1.68e-4 0.20728 1.88e-4 0.20728 2.06e-4 0.20728 2.47e-4 0.20728 2.75e-4 0.20728 2.8e-4 0.20728 2.84e-4 0.20728 2.88e-4 0.20728 2.93e-4 0.20728 2.96e-4 0.20728 3.02e-4 0.20728 3.05e-4 0.20728 3.1e-4 0.20728 3.14e-4 0.20728 3.18e-4 0.20728 3.3e-4 0.20728 3.42e-4 0.20728 3.53e-4 0.20728 3.65e-4 0.20728 3.77e-4 0.20728 3.88e-4 0.20728 4e-4 0.20728 4.12e-4 0.20728 4.23e-4 0.20728 4.51e-4 0.62183 0.001444 0.8291 0.001934 1.0364 0.002428 0.20728 4.71e-4 0.20728 4.59e-4 5.8037 0.012113 0.20728 4.17e-4 0.20728 3.98e-4 0.20728 3.79e-4 0.20728 3.39e-4 1.0364 0.001511 0.8291 0.001135 0.41455 5.42e-4 0.20728 2.58e-4 0.20728 2.47e-4 0.20728 2.35e-4 0.20728 2.24e-4 0.20728 2.12e-4 0.20728 2e-4 0.20728 1.89e-4 0.20728 1.78e-4 0.20728 1.66e-4 0.20728 1.38e-4 1.2437 6.47e-4 0.20728 1.1e-4 0.20728 1.21e-4 0.20728 1.33e-4 0.20728 1.45e-4 0.20728 1.57e-4 0.20728 1.69e-4 0.20728 1.82e-4 0.20728 1.94e-4 8.2911 0.008156 0.20728 2.32e-4 0.20728 2.6e-4 0.20728 2.62e-4 0.20728 2.64e-4 0.41455 5.35e-4 0.20728 2.71e-4 0.20728 2.73e-4 0.20728 2.75e-4 0.20728 2.77e-4 0.20728 2.79e-4 0.20728 2.81e-4 0.41455 5.69e-4 0.20728 2.88e-4 0.20728 2.9e-4 0.20728 2.92e-4 0.20728 2.94e-4 0.82911 0.001186 0.41455 5.61e-4 1.0364 0.001306 0.20728 2.67e-4 0.20728 2.74e-4 0.20728 2.81e-4 0.20728 2.89e-4 0.20728 2.96e-4 0.20728 3.02e-4 0.20728 3.08e-4 0.20728 3.15e-4 0.20728 3.22e-4 0.20728 3.28e-4 0.20728 3.42e-4 0.20728 4.06e-4 0.20728 4.23e-4 0.20728 4.4e-4 0.20728 5.25e-4 0.20728 5.71e-4 0.20728 0.001686 0.20728 0.001853 0.20728 0.001875 0.20728 0.0019 0.20728 0.001914 0.20728 0.001924 0.20728 0.001935 0.20728 0.001945 0.20728 0.001955 0.20728 0.002004 0.20728 0.003199 0.20728 0.003226 0.20728 0.003254 0.20728 0.003272 0.20728 0.003292 0.20728 0.003311 0.20728 0.003332 0.20728 0.003354 0.20728 0.003386 0.20728 0.003428 0.20728 0.003434 0.20728 0.00344 0.20728 0.003418 0.20728 0.003396 0.20728 0.0034 0.20728 0.003403 0.20728 0.003407 0.20728 0.003412 0.20728 0.003415 0.20728 0.003428 0.20728 0.003442 0.20728 0.003456 0.20728 0.003524 0.20728 0.003526 0.41455 0.007057 0.20728 0.003531 0.20728 0.003533 1.8655 0.031774 0.20728 0.003567 0.20728 0.003626 0.20728 0.00365 0.20728 0.003673 0.20728 0.003686 0.20728 0.0037 0.20728 0.003723 0.20728 0.003769 0.20728 0.003796 0.20728 0.003811 0.20728 0.003814 0.20728 0.003817 0.62183 0.011461 0.20728 0.003788 0.41455 0.00761 0.20728 0.003724 0.20728 0.003687 0.20728 0.002558 0.20728 0.002397 0.20728 0.002436 0.20728 0.002416 0.41455 0.004801 0.62183 0.00715 0.20728 0.00233 0.20728 0.001113 0.20728 0.001088 0.20728 0.001065 0.20728 0.00105 0.20728 0.001033 0.20728 0.001017 0.20728 0.001002 0.20728 0.001015 0.20728 0.001069 0.20728 0.001153 0.20728 0.001171 0.20728 0.001187 0.20728 0.001255 0.20728 0.001326 0.20728 0.001367 0.20728 0.00141 0.20728 0.001572 0.20728 0.001615 0.20728 0.001647 0.20728 0.001665 0.20728 0.001669 0.20728 0.001671 0.20728 0.001614 0.20728 0.001626 0.20728 0.001629 0.20728 0.001632 0.20728 0.001636 0.20728 0.00164 0.20728 0.001642 0.20728 0.001646 0.20728 0.00165 0.20728 0.001653 0.20728 0.002189 0.8291 0.01747 0.20728 0.00432 0.20728 0.004256 0.20728 0.004228 0.20728 0.004201 0.20728 0.004185 0.20728 0.004166 0.20728 0.00414 0.20728 0.004089 0.20728 0.004059 0.62183 0.012107 0.62183 0.012055 0.20728 0.003981 0.62183 0.011822 0.20728 0.003975 0.41455 0.007959 0.62183 0.011756 0.8291 0.015682 0.8291 0.015693 0.8291 0.015701 0.20728 0.006535 0.20728 0.006453 0.20728 0.006329 0.20728 0.006313 0.20728 0.006297 0.20728 0.006229 0.20728 0.006156 0.20728 0.006115 0.20728 0.006072 0.20728 0.005906 0.20728 0.005862 0.20728 0.005831 0.20728 0.005802 0.20728 0.005788 0.41455 0.011544 0.62183 0.017271 0.20728 0.005831 0.20728 0.005846 0.20728 0.005861 0.20728 0.005876 0.20728 0.005891 0.20728 0.005906 0.20728 0.005374 0.20728 0.003147 0.20728 0.00317 0.20728 0.003249 0.20728 0.003269 0.20728 0.003286 0.20728 0.003362 0.20728 0.003456 0.20728 0.003539 0.20728 0.003733 0.20728 0.00374 0.20728 0.003747 0.20728 0.003754 0.20728 0.003761 0.20728 0.003769 0.20728 0.003775 0.20728 0.003849 0.20728 0.003879 0.20728 0.003906 0.20728 0.003924 0.20728 0.003942 0.20728 0.003959 0.20728 0.006794 0.20728 0.006846 0.20728 0.006851 0.20728 0.006899 0.20728 0.006938 0.20728 0.006961 0.20728 0.006984 0.20728 0.007007 0.20728 0.007031 0.20728 0.007055 0.20728 0.007073 0.20728 0.007094 0.20728 0.007112 0.20728 0.007132 0.20728 0.007152 0.20728 0.007171 0.20728 0.007203 0.20728 0.013866 0.20728 0.022734 0.20728 0.029848 0.20728 0.027209 0.20728 0.0328 0.20728 0.0359 0.20728 0.036055 0.20728 0.036247 0.20728 0.036524 0.20728 0.036795 0.20728 0.037086 0.20728 0.037379 0.20728 0.042325 0.20728 0.042657 0.20728 0.042858 0.20728 0.043075 0.20728 0.043299 0.20728 0.043491 0.20728 0.043685 0.20728 0.04388 0.20728 0.044078 0.20728 0.044276 0.20728 0.044411 0.20728 0.044617 0.20728 0.044819 0.20728 0.045019 0.20728 0.04528 0.20728 0.045738 0.20728 0.051607 0.20728 0.051848 0.20728 0.052092 0.20728 0.052268 0.20728 0.05252 0.20728 0.052773 0.20728 0.052963 0.20728 0.053132 0.20728 0.053314 0.20728 0.053369 0.20728 0.053644 0.20728 0.054131 0.20728 0.064152 0.20728 0.075815 0.20728 0.081483 0.20728 0.082166 0.20728 0.082869 0.20728 0.083639 0.20728 0.086073 0.20728 0.091589 0.20728 0.092397 0.20728 0.093218 0.20728 0.090368 0.20728 0.091113 0.20728 0.091867 0.20728 0.092623 0.20728 0.093423 0.20728 0.094258 0.20728 0.095108 0.20728 0.095975 0.20728 0.096857 0.20728 0.097765 0.20728 0.098697 0.20728 0.099647 0.20728 0.10061 0.20728 0.1016 0.20728 0.10261 0.20728 0.10364 0.20728 0.10467 0.20728 0.095641 0.20728 0.083025 0.20728 0.076924 0.20728 0.077561 0.20728 0.078209 0.20728 0.087182 0.20728 0.11856 0.20728 0.11987 0.20728 0.12107 0.20728 0.12238 0.20728 0.12367 0.20728 0.12496 0.20728 0.11862 0.20728 0.11979 0.20728 0.12121 0.20728 0.12265 0.20728 0.12878 0.20728 0.13042 0.20728 0.1321 0.20728 0.13382 0.20728 0.13559 0.20728 0.13749 0.20728 0.13985 0.20728 0.14177 0.20728 0.14381 0.20728 0.14608 0.20728 0.1481 0.20728 0.14975 0.20728 0.14117 0.20728 0.14314 0.20728 0.14516 0.20728 0.14724 0.20728 0.14938 0.20728 0.15159 0.20728 0.15386 0.20728 0.1562 0.20728 0.15862 0.20728 0.16117 0.20728 0.16405 0.20728 0.18174 0.20728 0.19749 0.20728 0.18445 0.20728 0.20456 0.20728 0.20891 0.20728 0.21324 0.20728 0.21776 0.20728 0.21866 0.20728 0.21247 0.20728 0.21726 0.20728 0.22227 0.20728 0.2275 0.20728 0.23299 0.20728 0.23873 0.20728 0.24475 0.20728 0.25108 0.20728 0.26311 0.20728 0.27973 0.20728 0.28755 0.20728 0.29581 0.20728 0.30455 0.20728 0.31381 0.20728 0.32366 0.20728 0.33415 0.20728 0.34534 0.20728 0.35731 0.20728 0.37014 0.20728 0.38392 0.20728 0.39878 0.20728 0.41484 0.20728 0.41736 0.20728 0.43464 0.20728 0.41994 0.20728 0.38491 0.20728 0.27284 0.20728 0.28017 0.20728 0.28791 0.20728 0.29583 0.20728 0.30426 0.20728 0.31333 0.20728 0.32297 0.20728 0.33322 0.20728 0.34416 0.20728 0.35585 0.20728 0.34508 0.20728 0.35698 0.20728 0.36974 0.20728 0.38344 0.20728 0.39821 0.20728 0.41368 0.20728 0.42788 0.20728 0.44616 0.20728 0.4658 0.20728 0.48622 0.20728 0.50998 0.20728 0.53658 0.20728 0.5661 0.20728 0.59907 0.20728 0.63612 0.20728 0.67807 0.20728 0.72595 0.20728 0.78111 0.20728 0.84536 0.20728 0.92115 0.20728 1.0119 0.20728 1.1216 0.20728 1.2549 0.20728 1.1855 0.20728 0.77379 0.20728 0.70459 0.20728 0.25646 0.20728 0.25803 0.20728 0.25955 0.20728 0.26102 0.20728 0.26243 0.20728 0.26377 0.20728 0.26504 0.20728 0.26623 0.20728 0.26733 0.20728 0.26833 0.20728 0.26922 0.20728 0.26999 0.20728 0.27063 0.20728 0.17322 0.41455 0.006954 0.41455 0.006959 0.41455 0.006963 0.41455 0.006968 0.41455 0.006973 0.41455 0.006977 0.41455 0.006983 0.41455 0.006987 0.20728 0.003495 0.41455 0.006994 0.41455 0.006999 0.20728 0.003501 0.62183 0.010511 0.20728 0.003506 0.41455 0.007016 0.41455 0.007021 0.41455 0.007025 0.20728 0.003514 0.41455 0.007033 0.41455 0.007037 0.20728 0.00352 0.41455 0.007045 0.41455 0.007049 0.41455 0.007055 0.41455 0.007059 0.20728 0.003531 0.41455 0.007066 0.20728 0.003535 0.41455 0.007074 0.41455 0.007079 0.41455 0.007083 0.41455 0.007088 0.20728 0.003546 0.41455 0.007096 0.41455 0.007101 0.41455 0.007105 0.41455 0.007111 0.41455 0.007115 0.41455 0.00712 0.20728 0.003562 0.41455 0.007128 0.41455 0.007133 0.41455 0.007137 0.41455 0.007143 0.41455 0.007147 0.41455 0.007153 0.41455 0.007157 0.41455 0.007163 0.20728 0.003583 0.41455 0.00717 0.41455 0.007175 0.41455 0.00718 0.41455 0.007185 0.41455 0.00719 0.20728 0.003597 0.41455 0.007198 0.41455 0.007203 0.41455 0.007207 0.41455 0.007213 0.41455 0.007218 0.41455 0.007223 0.41455 0.007228 0.41455 0.007233 0.41455 0.007239 0.41455 0.007243 0.41455 0.007249 0.41455 0.007253 0.41455 0.007259 0.20728 0.003631 0.41455 0.007267 0.41455 0.007271 0.41455 0.007277 0.20728 0.00364 0.41455 0.007285 0.41455 0.007289 0.41455 0.007295 0.41455 0.0073 0.20728 0.003652 0.41455 0.007308 0.41455 0.007313 0.41455 0.007318 0.41455 0.007324 0.41455 0.007329 0.20728 0.003666 0.41455 0.007336 0.41455 0.007342 0.41455 0.007347 0.41455 0.007353 0.41455 0.007357 0.41455 0.007363 0.20728 0.003683 0.20728 0.003685 0.20728 0.064426v36.56h-400.67z" stroke="#0766aa" stroke-opacity=".2"/>
</defs>
<g clip-path="url(#h)">
<use y="413.19625" fill="#0766aa" fill-opacity=".2" stroke="#0766aa" stroke-opacity=".2" xlink:href="#ae"/>
</g>
<path d="m40.603 170.63v-141.83" clip-path="url(#h)" fill="none" stroke="#b0b0b0" stroke-linecap="square" stroke-width=".8"/>
<defs>
<path id="c" d="m0 0v3.5" stroke="#000" stroke-width=".8"/>
</defs>
<use x="40.603125" y="170.627393" stroke="#000000" stroke-width=".8" xlink:href="#c"/>
<path d="m122.45 170.63v-141.83" clip-path="url(#h)" fill="none" stroke="#b0b0b0" stroke-linecap="square" stroke-width=".8"/>
<use x="122.453683" y="170.627393" stroke="#000000" stroke-width=".8" xlink:href="#c"/>
<path d="m204.3 170.63v-141.83" clip-path="url(#h)" fill="none" stroke="#b0b0b0" stroke-linecap="square" stroke-width=".8"/>
<use x="204.304241" y="170.627393" stroke="#000000" stroke-width=".8" xlink:href="#c"/>
<path d="m286.15 170.63v-141.83" clip-path="url(#h)" fill="none" stroke="#b0b0b0" stroke-linecap="square" stroke-width=".8"/>
<use x="286.154798" y="170.627393" stroke="#000000" stroke-width=".8" xlink:href="#c"/>
<path d="m368.01 170.63v-141.83" clip-path="url(#h)" fill="none" stroke="#b0b0b0" stroke-linecap="square" stroke-width=".8"/>
<use x="368.005356" y="170.627393" stroke="#000000" stroke-width=".8" xlink:href="#c"/>
<path d="m449.86 170.63v-141.83" clip-path="url(#h)" fill="none" stroke="#b0b0b0" stroke-linecap="square" stroke-width=".8"/>
<use x="449.855914" y="170.627393" stroke="#000000" stroke-width=".8" xlink:href="#c"/>
<defs>
<path id="d" d="m0 0h-3.5" stroke="#000" stroke-width=".8"/>
</defs>
<use x="40.603125" y="154.105211" stroke="#000000" stroke-width=".8" xlink:href="#d"/>
<defs>
<path id="g" d="m12.406 8.2969h16.109v55.625l-17.531-3.5156v8.9844l17.438 3.5156h9.8594v-64.609h16.109v-8.2969h-41.984z"/>
<path id="f" d="m31.781 66.406q-7.6094 0-11.453-7.5-3.8281-7.4844-3.8281-22.531 0-14.984 3.8281-22.484 3.8438-7.5 11.453-7.5 7.6719 0 11.5 7.5 3.8438 7.5 3.8438 22.484 0 15.047-3.8438 22.531-3.8281 7.5-11.5 7.5zm0 7.8125q12.266 0 18.734-9.7031 6.4688-9.6875 6.4688-28.141 0-18.406-6.4688-28.109-6.4688-9.6875-18.734-9.6875-12.25 0-18.719 9.6875-6.4688 9.7031-6.4688 28.109 0 18.453 6.4688 28.141 6.4688 9.7031 18.719 9.7031z"/>
</defs>
<g transform="translate(16.003 157.9) scale(.1 -.1)">
<use transform="translate(0 .68438)" xlink:href="#g"/>
<use transform="translate(63.623 .68438)" xlink:href="#f"/>
<use transform="translate(128.2 38.966) scale(.7)" xlink:href="#g"/>
</g>
<use x="40.603125" y="130.467312" stroke="#000000" stroke-width=".8" xlink:href="#d"/>
<defs>
<path id="v" d="m19.188 8.2969h34.422v-8.2969h-46.281v8.2969q5.6094 5.8125 15.297 15.594 9.7031 9.7969 12.188 12.641 4.7344 5.3125 6.6094 9 1.8906 3.6875 1.8906 7.25 0 5.8125-4.0781 9.4688-4.0781 3.6719-10.625 3.6719-4.6406 0-9.7969-1.6094-5.1406-1.6094-11-4.8906v9.9688q5.9531 2.3906 11.125 3.6094 5.1875 1.2188 9.4844 1.2188 11.328 0 18.062-5.6719 6.7344-5.6562 6.7344-15.125 0-4.5-1.6875-8.5312-1.6719-4.0156-6.125-9.4844-1.2188-1.4219-7.7656-8.1875-6.5312-6.7656-18.453-18.922z"/>
</defs>
<g transform="translate(16.003 134.27) scale(.1 -.1)">
<use transform="translate(0 .76562)" xlink:href="#g"/>
<use transform="translate(63.623 .76562)" xlink:href="#f"/>
<use transform="translate(128.2 39.047) scale(.7)" xlink:href="#v"/>
</g>
<use x="40.603125" y="106.829413" stroke="#000000" stroke-width=".8" xlink:href="#d"/>
<defs>
<path id="u" d="m40.578 39.312q7.0781-1.5156 11.047-6.3125 3.9844-4.7812 3.9844-11.812 0-10.781-7.4219-16.703-7.4219-5.9062-21.094-5.9062-4.5781 0-9.4375 0.90625t-10.031 2.7188v9.5156q4.0938-2.3906 8.9688-3.6094 4.8906-1.2188 10.219-1.2188 9.2656 0 14.125 3.6562t4.8594 10.641q0 6.4531-4.5156 10.078-4.5156 3.6406-12.562 3.6406h-8.5v8.1094h8.8906q7.2656 0 11.125 2.9062t3.8594 8.375q0 5.6094-3.9844 8.6094-3.9688 3.0156-11.391 3.0156-4.0625 0-8.7031-0.89062-4.6406-0.875-10.203-2.7188v8.7812q5.625 1.5625 10.531 2.3438t9.25 0.78125q11.234 0 17.766-5.1094 6.5469-5.0938 6.5469-13.781 0-6.0625-3.4688-10.234t-9.8594-5.7812z"/>
</defs>
<g transform="translate(16.003 110.63) scale(.1 -.1)">
<use transform="translate(0 .76562)" xlink:href="#g"/>
<use transform="translate(63.623 .76562)" xlink:href="#f"/>
<use transform="translate(128.2 39.047) scale(.7)" xlink:href="#u"/>
</g>
<use x="40.603125" y="83.191514" stroke="#000000" stroke-width=".8" xlink:href="#d"/>
<defs>
<path id="n" d="m37.797 64.312-24.906-38.922h24.906zm-2.5938 8.5938h12.406v-47.516h10.406v-8.2031h-10.406v-17.188h-9.8125v17.188h-32.906v9.5156z"/>
</defs>
<g transform="translate(16.003 86.991) scale(.1 -.1)">
<use transform="translate(0 .68438)" xlink:href="#g"/>
<use transform="translate(63.623 .68438)" xlink:href="#f"/>
<use transform="translate(128.2 38.966) scale(.7)" xlink:href="#n"/>
</g>
<use x="40.603125" y="59.553615" stroke="#000000" stroke-width=".8" xlink:href="#d"/>
<defs>
<path id="t" d="m10.797 72.906h38.719v-8.3125h-29.688v-17.859q2.1406 0.73438 4.2812 1.0938 2.1562 0.35938 4.3125 0.35938 12.203 0 19.328-6.6875 7.1406-6.6875 7.1406-18.109 0-11.766-7.3281-18.297-7.3281-6.5156-20.656-6.5156-4.5938 0-9.3594 0.78125-4.75 0.78125-9.8281 2.3438v9.9219q4.3906-2.3906 9.0781-3.5625t9.9062-1.1719q8.4531 0 13.375 4.4375 4.9375 4.4375 4.9375 12.062 0 7.6094-4.9375 12.047-4.9219 4.4531-13.375 4.4531-3.9531 0-7.8906-0.875-3.9219-0.875-8.0156-2.7344z"/>
</defs>
<g transform="translate(16.003 63.353) scale(.1 -.1)">
<use transform="translate(0 .68438)" xlink:href="#g"/>
<use transform="translate(63.623 .68438)" xlink:href="#f"/>
<use transform="translate(128.2 38.966) scale(.7)" xlink:href="#t"/>
</g>
<use x="40.603125" y="35.915717" stroke="#000000" stroke-width=".8" xlink:href="#d"/>
<defs>
<path id="s" d="m33.016 40.375q-6.6406 0-10.531-4.5469-3.875-4.5312-3.875-12.438 0-7.8594 3.875-12.438 3.8906-4.5625 10.531-4.5625t10.516 4.5625q3.875 4.5781 3.875 12.438 0 7.9062-3.875 12.438-3.875 4.5469-10.516 4.5469zm19.578 30.922v-8.9844q-3.7188 1.75-7.5 2.6719-3.7812 0.9375-7.5 0.9375-9.7656 0-14.922-6.5938-5.1406-6.5938-5.875-19.922 2.875 4.25 7.2188 6.5156 4.3594 2.2656 9.5781 2.2656 10.984 0 17.359-6.6719 6.375-6.6562 6.375-18.125 0-11.234-6.6406-18.031-6.6406-6.7812-17.672-6.7812-12.656 0-19.344 9.6875-6.6875 9.7031-6.6875 28.109 0 17.281 8.2031 27.562t22.016 10.281q3.7188 0 7.5-0.73438t7.8906-2.1875z"/>
</defs>
<g transform="translate(16.003 39.715) scale(.1 -.1)">
<use transform="translate(0 .76562)" xlink:href="#g"/>
<use transform="translate(63.623 .76562)" xlink:href="#f"/>
<use transform="translate(128.2 39.047) scale(.7)" xlink:href="#s"/>
</g>
<defs>
<path id="a" d="m0 0h-2" stroke="#000" stroke-width=".6"/>
</defs>
<use x="40.603125" y="170.627393" stroke="#000000" stroke-width=".6" xlink:href="#a"/>
<use x="40.603125" y="166.464966" stroke="#000000" stroke-width=".6" xlink:href="#a"/>
<use x="40.603125" y="163.511677" stroke="#000000" stroke-width=".6" xlink:href="#a"/>
<use x="40.603125" y="161.220927" stroke="#000000" stroke-width=".6" xlink:href="#a"/>
<use x="40.603125" y="159.349249" stroke="#000000" stroke-width=".6" xlink:href="#a"/>
<use x="40.603125" y="157.766768" stroke="#000000" stroke-width=".6" xlink:href="#a"/>
<use x="40.603125" y="156.39596" stroke="#000000" stroke-width=".6" xlink:href="#a"/>
<use x="40.603125" y="155.186822" stroke="#000000" stroke-width=".6" xlink:href="#a"/>
<use x="40.603125" y="146.989494" stroke="#000000" stroke-width=".6" xlink:href="#a"/>
<use x="40.603125" y="142.827067" stroke="#000000" stroke-width=".6" xlink:href="#a"/>
<use x="40.603125" y="139.873778" stroke="#000000" stroke-width=".6" xlink:href="#a"/>
<use x="40.603125" y="137.583029" stroke="#000000" stroke-width=".6" xlink:href="#a"/>
<use x="40.603125" y="135.71135" stroke="#000000" stroke-width=".6" xlink:href="#a"/>
<use x="40.603125" y="134.128869" stroke="#000000" stroke-width=".6" xlink:href="#a"/>
<use x="40.603125" y="132.758061" stroke="#000000" stroke-width=".6" xlink:href="#a"/>
<use x="40.603125" y="131.548923" stroke="#000000" stroke-width=".6" xlink:href="#a"/>
<use x="40.603125" y="123.351595" stroke="#000000" stroke-width=".6" xlink:href="#a"/>
<use x="40.603125" y="119.189168" stroke="#000000" stroke-width=".6" xlink:href="#a"/>
<use x="40.603125" y="116.235879" stroke="#000000" stroke-width=".6" xlink:href="#a"/>
<use x="40.603125" y="113.94513" stroke="#000000" stroke-width=".6" xlink:href="#a"/>
<use x="40.603125" y="112.073451" stroke="#000000" stroke-width=".6" xlink:href="#a"/>
<use x="40.603125" y="110.49097" stroke="#000000" stroke-width=".6" xlink:href="#a"/>
<use x="40.603125" y="109.120162" stroke="#000000" stroke-width=".6" xlink:href="#a"/>
<use x="40.603125" y="107.911024" stroke="#000000" stroke-width=".6" xlink:href="#a"/>
<use x="40.603125" y="99.713697" stroke="#000000" stroke-width=".6" xlink:href="#a"/>
<use x="40.603125" y="95.551269" stroke="#000000" stroke-width=".6" xlink:href="#a"/>
<use x="40.603125" y="92.59798" stroke="#000000" stroke-width=".6" xlink:href="#a"/>
<use x="40.603125" y="90.307231" stroke="#000000" stroke-width=".6" xlink:href="#a"/>
<use x="40.603125" y="88.435553" stroke="#000000" stroke-width=".6" xlink:href="#a"/>
<use x="40.603125" y="86.853071" stroke="#000000" stroke-width=".6" xlink:href="#a"/>
<use x="40.603125" y="85.482263" stroke="#000000" stroke-width=".6" xlink:href="#a"/>
<use x="40.603125" y="84.273125" stroke="#000000" stroke-width=".6" xlink:href="#a"/>
<use x="40.603125" y="76.075798" stroke="#000000" stroke-width=".6" xlink:href="#a"/>
<use x="40.603125" y="71.91337" stroke="#000000" stroke-width=".6" xlink:href="#a"/>
<use x="40.603125" y="68.960081" stroke="#000000" stroke-width=".6" xlink:href="#a"/>
<use x="40.603125" y="66.669332" stroke="#000000" stroke-width=".6" xlink:href="#a"/>
<use x="40.603125" y="64.797654" stroke="#000000" stroke-width=".6" xlink:href="#a"/>
<use x="40.603125" y="63.215172" stroke="#000000" stroke-width=".6" xlink:href="#a"/>
<use x="40.603125" y="61.844365" stroke="#000000" stroke-width=".6" xlink:href="#a"/>
<use x="40.603125" y="60.635226" stroke="#000000" stroke-width=".6" xlink:href="#a"/>
<use x="40.603125" y="52.437899" stroke="#000000" stroke-width=".6" xlink:href="#a"/>
<use x="40.603125" y="48.275471" stroke="#000000" stroke-width=".6" xlink:href="#a"/>
<use x="40.603125" y="45.322182" stroke="#000000" stroke-width=".6" xlink:href="#a"/>
<use x="40.603125" y="43.031433" stroke="#000000" stroke-width=".6" xlink:href="#a"/>
<use x="40.603125" y="41.159755" stroke="#000000" stroke-width=".6" xlink:href="#a"/>
<use x="40.603125" y="39.577273" stroke="#000000" stroke-width=".6" xlink:href="#a"/>
<use x="40.603125" y="38.206466" stroke="#000000" stroke-width=".6" xlink:href="#a"/>
<use x="40.603125" y="36.997328" stroke="#000000" stroke-width=".6" xlink:href="#a"/>
<use x="40.603125" y="28.8" stroke="#000000" stroke-width=".6" xlink:href="#a"/>
<path d="m65.925 157.79 1.2437 1.1087 1.2437 1.4163 1.2437 1.7285 1.4509 2.403 2.0728 3.9494 1.4509 2.5644 0.8291 0.98058 0.62183 0.32152 2.0728 0.011316h32.335l0.20728-0.42272 0.41455-2.0963 0.8291-6.2916 0.8291-6.5269 0.8291-4.6277 0.8291-3.3022 0.8291-2.2992 0.8291-1.691 0.8291-1.27 1.0364-1.1437 2.0728-1.9855 0.8291-0.2727 0.62183-0.003837 0.62183 0.1693 0.62183 0.35323 0.62183 0.55901 0.62183 0.80216 0.8291 1.4703 1.6582 2.9547 1.2437 1.5496 3.1091 3.3213 0.62183 0.29396 0.20728-0.14369 0.20728-0.35975 0.8291-2.987 1.4509-4.986 0.8291-1.977 0.8291-1.3888 0.8291-0.97575 0.8291-0.65578 0.8291-0.38692 0.8291-0.14371 0.62183-0.060532 0.62183-0.11285 0.62183 0.060983 0.62183 0.23796 0.62183 0.42766 0.8291 0.88146 0.8291 1.2277 0.8291 1.679 1.4509 3.3514 1.2437 2.0296 1.0364 0.62818 1.0364 0.87962 1.0364 1.1796 1.0364 1.5643 0.8291 1.628 0.8291 2.1129 0.20728 0.63158 6.4256-0.02795 0.41455-0.22122 0.62183-0.61292 0.8291-1.1999 1.0364-1.5151 1.0364-1.0951 1.0364-0.7782 1.0364-0.52012 1.0364-0.29539 1.0364-0.087035 1.0364 0.11822 1.0364 0.33301 1.0364 0.57202 0.8291 0.45602 0.8291 0.18767 0.62183-0.00857 0.20728-0.1266 0.41455-0.65455 1.4509-2.9846 0.8291-2.0405 0.8291-2.0178 0.8291-1.4806 0.8291-1.1002 0.8291-0.80611 2.28-1.6932 0.8291-0.17142 0.8291 0.10458 0.8291 0.39028 0.8291 0.70958 1.0364 1.2678 0.8291 1.3275 1.0364 1.7012 1.0364 1.8056 1.0364 1.8741 1.2437 1.5427 1.0364 1.617 1.0364 2.0012 0.62183 1.2704 0.20728 0.19387 4.5601 0.91196 1.8655 0.69413 2.6946 1.26 3.1091 1.7783 2.0728 1.0896 1.4509 0.51232 1.0364 0.15395 1.8655-0.007393 0.41455-0.368 0.41455-0.7602 0.8291-2.2434 0.8291-1.9913 1.0364-1.8519 1.0364-1.3633 1.0364-1.0003 1.0364-0.70606 1.0364-0.44889 1.0364-0.20783 1.0364 0.034033 4.3528 0.64804 0.41455-0.2271 0.41455-0.4271 0.20728-0.35321 1.2437-3.4049 1.0364-2.2364 1.0364-1.7277 1.2437-1.5931 1.2437-1.2214 0.8291-0.50622 0.8291-0.25246 0.8291-0.012353 0.8291 0.21276 1.0364 0.52379 0.8291 0.28144 1.8655 0.20502 1.4509 0.074131 1.8655-0.3826 1.2437-0.022432 2.0728 0.25638 0.41455 0.010888 1.0364-0.17734 1.0364 0.083326 0.8291 0.28688 0.8291 0.56858 1.2437 1.0072 0.8291 0.32904 3.1091 0.9861 1.2437 0.83545 1.0364 1.0146 1.0364 1.3986 0.8291 1.4856 0.8291 1.7057 0.8291 0.66137 0.62183 0.23038 0.62183-0.017869 3.9382-1.0648 1.6582-0.2464 1.2437 0.061811 1.4509 0.12798 0.8291-0.24971 0.62183-0.35494 0.8291-0.7653 0.8291-0.76403 2.4873-1.6354 1.2437-0.6891 1.0364-0.29547 0.8291 0.001134 0.8291 0.21534 0.8291 0.43857 0.8291 0.68653 0.8291 0.98108 0.8291 1.3579 1.4509 3.1242 1.4509 3.1288 0.62183 0.7858 2.28 2.2471 1.0364 0.76145 1.0364 0.48146 1.2437 0.22493 2.0728 0.50596 2.6946 0.91681 3.9382 1.3567 1.6582 0.33863 1.4509 0.073199 3.1091-0.051517 0.41455-0.36308 0.62183-1.08 0.8291-2.0591 2.6946-7.1223 0.8291-1.485 0.8291-1.047 0.8291-0.71568 0.8291-0.44362 0.8291-0.20338 0.8291 0.023784 0.8291 0.25343 0.8291 0.5017 0.8291 0.78941 0.8291 1.1488 0.8291 1.6385 3.5237 8.2042 0.41455 0.48834 0.41455 0.2219 1.4509-0.055664 0.20728-0.26537 0.41455-1.065 0.62183-2.4802 1.0364-4.2568 0.8291-2.1663 0.8291-1.4934 0.8291-1.0388 0.8291-0.69742 0.8291-0.41857 0.8291-0.17319 0.8291 0.058328 0.8291 0.29216 0.8291 0.54505 0.8291 0.83858 0.8291 1.2064 0.8291 1.7101 0.62183 1.7665 0.62183 2.422 1.6582 7.8309 0.20728 0.3362 0.62183 0.038547 6.8401 0.081155 1.4509 0.31161 1.6582 0.59343 1.8655 0.9037 3.731 2.1453 1.8655 0.89862 1.2437 0.36416 1.0364 0.088455h19.899l0.20728-0.14846 0.20728-0.48982 0.41455-1.7673 1.2437-6.2687 0.8291-2.5936 0.8291-1.8646 0.8291-1.3879 1.0364-1.2565 1.0364-0.84739 1.0364-0.5072 0.8291-0.18179 0.8291 0.014626 0.8291 0.22063 0.8291 0.44951 0.8291 0.71977 0.8291 1.0611 0.8291 1.5282 1.2437 2.6851 0.41455 0.23959 4.7674 0.23648 7.8765 0.56332 1.0364 0.523 1.0364 0.81781 1.0364 1.1209 1.0364 1.4506 1.0364 1.829 1.0364 2.2877 1.0364 2.8771 1.0364 3.6881 0.8291 3.7986 0.8291 4.9704 0.62183 4.9688 0.62183 6.8567 0.41455 6.5185 0.41455 9.884 0.20728 7.7513 0.20728 12.838 0.001607 182.92v0" clip-path="url(#h)" fill="none" stroke="#dc143c" stroke-linecap="square" stroke-width="1.5"/>
<path d="m40.603 170.63v-141.83" fill="none" stroke="#000" stroke-linecap="square" stroke-width=".8"/>
<path d="m486.62 170.63v-141.83" fill="none" stroke="#000" stroke-linecap="square" stroke-width=".8"/>
<path d="m40.603 170.63h446.02" fill="none" stroke="#000" stroke-linecap="square" stroke-width=".8"/>
<path d="m40.603 28.8h446.02" fill="none" stroke="#000" stroke-linecap="square" stroke-width=".8"/>
<path d="m324.59 66.156h155.04q2 0 2-2v-28.356q0-2-2-2h-155.04q-2 0-2 2v28.356q0 2 2 2z" fill="#fff" opacity=".8" stroke="#ccc"/>
<path d="m326.59 41.898h20" fill="none" stroke="#dc143c" stroke-linecap="square" stroke-width="1.5"/>
<defs>
<path id="i" d="m41.109 46.297q-1.5156 0.875-3.2969 1.2812-1.7812 0.42188-3.9219 0.42188-7.625 0-11.703-4.9531t-4.0781-14.234v-28.812h-9.0312v54.688h9.0312v-8.5q2.8438 4.9844 7.375 7.3906 4.5469 2.4219 11.047 2.4219 0.92188 0 2.0469-0.125 1.125-0.10938 2.4844-0.35938z"/>
<path id="k" d="m34.281 27.484q-10.891 0-15.094-2.4844t-4.2031-8.5q0-4.7812 3.1562-7.5938 3.1562-2.7969 8.5625-2.7969 7.4844 0 12 5.2969t4.5156 14.078v2zm17.922 3.7188v-31.203h-8.9844v8.2969q-3.0781-4.9688-7.6719-7.3438t-11.234-2.375q-8.3906 0-13.359 4.7188-4.9531 4.7188-4.9531 12.625 0 9.2188 6.1719 13.906 6.1875 4.6875 18.438 4.6875h12.609v0.89062q0 6.2031-4.0781 9.5938t-11.453 3.3906q-4.6875 0-9.1406-1.125-4.4375-1.125-8.5312-3.375v8.3125q4.9219 1.9062 9.5625 2.8438 4.6406 0.95312 9.0312 0.95312 11.875 0 17.734-6.1562 5.8594-6.1406 5.8594-18.641z"/>
<path id="q" d="m18.312 70.219v-15.531h18.5v-6.9844h-18.5v-29.688q0-6.6875 1.8281-8.5938t7.4531-1.9062h9.2188v-7.5156h-9.2188q-10.406 0-14.359 3.875-3.9531 3.8906-3.9531 14.141v29.688h-6.5938v6.9844h6.5938v15.531z"/>
<path id="e" d="m56.203 29.594v-4.3906h-41.312q0.59375-9.2812 5.5938-14.141t13.938-4.8594q5.1719 0 10.031 1.2656t9.6562 3.8125v-8.5q-4.8438-2.0469-9.9219-3.125t-10.297-1.0781q-13.094 0-20.734 7.6094-7.6406 7.625-7.6406 20.625 0 13.422 7.25 21.297 7.25 7.8906 19.562 7.8906 11.031 0 17.453-7.1094 6.4219-7.0938 6.4219-19.297zm-8.9844 2.6406q-0.09375 7.3594-4.125 11.75-4.0312 4.4062-10.672 4.4062-7.5156 0-12.031-4.25t-5.2031-11.969z"/>
<path id="m" d="m30.609 48.391q-7.2188 0-11.422-5.6406t-4.2031-15.453 4.1719-15.453q4.1875-5.6406 11.453-5.6406 7.1875 0 11.375 5.6562 4.2031 5.6719 4.2031 15.438 0 9.7188-4.2031 15.406-4.1875 5.6875-11.375 5.6875zm0 7.6094q11.719 0 18.406-7.625 6.7031-7.6094 6.7031-21.078 0-13.422-6.7031-21.078-6.6875-7.6406-18.406-7.6406-11.766 0-18.438 7.6406-6.6562 7.6562-6.6562 21.078 0 13.469 6.6562 21.078 6.6719 7.625 18.438 7.625z"/>
<path id="aa" d="m37.109 75.984v-7.4844h-8.5938q-4.8281 0-6.7188-1.9531-1.875-1.9531-1.875-7.0312v-4.8281h14.797v-6.9844h-14.797v-47.703h-9.0312v47.703h-8.5938v6.9844h8.5938v3.8125q0 9.125 4.25 13.297 4.25 4.1875 13.469 4.1875z"/>
<path id="l" d="m9.4219 54.688h8.9844v-54.688h-8.9844zm0 21.297h8.9844v-11.391h-8.9844z"/>
<path id="r" d="m9.4219 75.984h8.9844v-75.984h-8.9844z"/>
<path id="y" d="m8.5 21.578v33.109h8.9844v-32.766q0-7.7656 3.0156-11.656 3.0312-3.875 9.0938-3.875 7.2656 0 11.484 4.6406 4.2344 4.6406 4.2344 12.656v31h8.9844v-54.688h-8.9844v8.4062q-3.2656-4.9844-7.5938-7.4062-4.3125-2.4219-10.031-2.4219-9.4219 0-14.312 5.8594-4.875 5.8594-4.875 17.141zm22.609 34.422z"/>
<path id="j" d="m44.281 53.078v-8.5q-3.7969 1.9531-7.9062 2.9219-4.0938 0.98438-8.5 0.98438-6.6875 0-10.031-2.0469t-3.3438-6.1562q0-3.125 2.3906-4.9062t9.625-3.3906l3.0781-0.6875q9.5625-2.0469 13.594-5.7812t4.0312-10.422q0-7.625-6.0312-12.078-6.0312-4.4375-16.578-4.4375-4.3906 0-9.1562 0.85938t-10.031 2.5625v9.2812q4.9844-2.5938 9.8125-3.8906 4.8281-1.2812 9.5781-1.2812 6.3438 0 9.75 2.1719 3.4219 2.1719 3.4219 6.125 0 3.6562-2.4688 5.6094-2.4531 1.9531-10.812 3.7656l-3.125 0.73438q-8.3438 1.75-12.062 5.3906-3.7031 3.6406-3.7031 9.9844 0 7.7188 5.4688 11.906 5.4688 4.2031 15.531 4.2031 4.9688 0 9.3594-0.73438 4.4062-0.71875 8.1094-2.1875z"/>
<path id="x" d="m31 75.875q-6.5312-11.219-9.7188-22.219-3.1719-10.984-3.1719-22.266 0-11.266 3.2031-22.328t9.6875-22.25h-7.8125q-7.3125 11.484-10.953 22.562t-3.6406 22.016q0 10.891 3.6094 21.922 3.625 11.047 10.984 22.562z"/>
<path id="o" d="m45.406 46.391v29.594h8.9844v-75.984h-8.9844v8.2031q-2.8281-4.875-7.1562-7.25-4.3125-2.375-10.375-2.375-9.9062 0-16.141 7.9062-6.2188 7.9219-6.2188 20.812t6.2188 20.797q6.2344 7.9062 16.141 7.9062 6.0625 0 10.375-2.375 4.3281-2.3594 7.1562-7.2344zm-30.609-19.094q0-9.9062 4.0781-15.547t11.203-5.6406 11.219 5.6406q4.1094 5.6406 4.1094 15.547t-4.1094 15.547q-4.0938 5.6406-11.219 5.6406t-11.203-5.6406-4.0781-15.547z"/>
<path id="z" d="m9.0781 75.984h9.0312v-44.875l26.812 23.578h11.469l-29-25.578 30.234-29.109h-11.719l-27.797 26.703v-26.703h-9.0312z"/>
<path id="ad" d="m25.391 72.906h8.2969l-25.391-82.188h-8.2969z"/>
<path id="p" d="m32.172-5.0781q-3.7969-9.7656-7.4219-12.734-3.6094-2.9844-9.6562-2.9844h-7.1875v7.5156h5.2812q3.7031 0 5.75 1.7656 2.0625 1.75 4.5469 8.2969l1.6094 4.0938-22.109 53.812h9.5156l17.094-42.766 17.094 42.766h9.5156z"/>
<path id="w" d="m8.0156 75.875h7.8125q7.3125-11.516 10.953-22.562 3.6406-11.031 3.6406-21.922 0-10.938-3.6406-22.016t-10.953-22.562h-7.8125q6.4844 11.188 9.6875 22.25t3.2031 22.328q0 11.281-3.2031 22.266-3.2031 11-9.6875 22.219z"/>
</defs>
<g transform="translate(354.59 45.398) scale(.1 -.1)">
<use xlink:href="#i"/>
<use x="41.113281" xlink:href="#k"/>
<use x="102.392578" xlink:href="#q"/>
<use x="141.601562" xlink:href="#e"/>
<use x="203.125" xlink:href="#DejaVuSans-20"/>
<use x="234.912109" xlink:href="#m"/>
<use x="296.09375" xlink:href="#aa"/>
<use x="331.298828" xlink:href="#DejaVuSans-20"/>
<use x="363.085938" xlink:href="#aa"/>
<use x="398.291016" xlink:href="#k"/>
<use x="459.570312" xlink:href="#l"/>
<use x="487.353516" xlink:href="#r"/>
<use x="515.136719" xlink:href="#y"/>
<use x="578.515625" xlink:href="#i"/>
<use x="619.597656" xlink:href="#e"/>
<use x="681.121094" xlink:href="#j"/>
<use x="733.220703" xlink:href="#DejaVuSans-20"/>
<use x="765.007812" xlink:href="#x"/>
<use x="804.021484" xlink:href="#o"/>
<use x="867.498047" xlink:href="#l"/>
<use x="895.28125" xlink:href="#j"/>
<use x="947.380859" xlink:href="#z"/>
<use x="1005.291016" xlink:href="#j"/>
<use x="1057.390625" xlink:href="#ad"/>
<use x="1091.082031" xlink:href="#p"/>
<use x="1150.261719" xlink:href="#i"/>
<use x="1191.375" xlink:href="#w"/>
</g>
<path d="m326.59 60.077h20v-7h-20z" fill="#0766aa" fill-opacity=".2" stroke="#0766aa" stroke-opacity=".2"/>
<defs>
<path id="am" d="m48.688 27.297q0 9.9062-4.0781 15.547t-11.203 5.6406q-7.1406 0-11.219-5.6406t-4.0781-15.547 4.0781-15.547 11.219-5.6406q7.125 0 11.203 5.6406t4.0781 15.547zm-30.578 19.094q2.8438 4.875 7.1562 7.2344 4.3281 2.375 10.328 2.375 9.9688 0 16.188-7.9062 6.2344-7.9062 6.2344-20.797t-6.2344-20.812q-6.2188-7.9062-16.188-7.9062-6 0-10.328 2.375-4.3125 2.375-7.1562 7.25v-8.2031h-9.0312v75.984h9.0312z"/>
<path id="ag" d="m2.9844 54.688h9.5156l17.094-45.891 17.094 45.891h9.5156l-20.516-54.688h-12.203z"/>
</defs>
<g transform="translate(354.59 60.077) scale(.1 -.1)">
<use xlink:href="#o"/>
<use x="63.476562" xlink:href="#l"/>
<use x="91.259766" xlink:href="#j"/>
<use x="143.359375" xlink:href="#z"/>
<use x="201.269531" xlink:href="#j"/>
<use x="253.369141" xlink:href="#DejaVuSans-20"/>
<use x="285.15625" xlink:href="#m"/>
<use x="346.337891" xlink:href="#am"/>
<use x="409.814453" xlink:href="#j"/>
<use x="461.914062" xlink:href="#e"/>
<use x="523.4375" xlink:href="#i"/>
<use x="564.550781" xlink:href="#ag"/>
<use x="623.730469" xlink:href="#e"/>
<use x="685.253906" xlink:href="#o"/>
</g>
<path d="m40.603 375.64h446.02v-189.1h-446.02z" fill="#fff"/>
<path d="m40.603 375.64v-189.1" clip-path="url(#b)" fill="none" stroke="#b0b0b0" stroke-linecap="square" stroke-width=".8"/>
<use x="40.603125" y="375.64" stroke="#000000" stroke-width=".8" xlink:href="#c"/>
<g transform="translate(37.422 390.24) scale(.1 -.1)">
<use xlink:href="#f"/>
</g>
<path d="m122.45 375.64v-189.1" clip-path="url(#b)" fill="none" stroke="#b0b0b0" stroke-linecap="square" stroke-width=".8"/>
<use x="122.453683" y="375.64" stroke="#000000" stroke-width=".8" xlink:href="#c"/>
<g transform="translate(119.27 390.24) scale(.1 -.1)">
<use xlink:href="#g"/>
</g>
<path d="m204.3 375.64v-189.1" clip-path="url(#b)" fill="none" stroke="#b0b0b0" stroke-linecap="square" stroke-width=".8"/>
<use x="204.304241" y="375.64" stroke="#000000" stroke-width=".8" xlink:href="#c"/>
<g transform="translate(201.12 390.24) scale(.1 -.1)">
<use xlink:href="#v"/>
</g>
<path d="m286.15 375.64v-189.1" clip-path="url(#b)" fill="none" stroke="#b0b0b0" stroke-linecap="square" stroke-width=".8"/>
<use x="286.154798" y="375.64" stroke="#000000" stroke-width=".8" xlink:href="#c"/>
<g transform="translate(282.97 390.24) scale(.1 -.1)">
<use xlink:href="#u"/>
</g>
<path d="m368.01 375.64v-189.1" clip-path="url(#b)" fill="none" stroke="#b0b0b0" stroke-linecap="square" stroke-width=".8"/>
<use x="368.005356" y="375.64" stroke="#000000" stroke-width=".8" xlink:href="#c"/>
<g transform="translate(364.82 390.24) scale(.1 -.1)">
<use xlink:href="#n"/>
</g>
<path d="m449.86 375.64v-189.1" clip-path="url(#b)" fill="none" stroke="#b0b0b0" stroke-linecap="square" stroke-width=".8"/>
<use x="449.855914" y="375.64" stroke="#000000" stroke-width=".8" xlink:href="#c"/>
<g transform="translate(446.67 390.24) scale(.1 -.1)">
<use xlink:href="#t"/>
</g>
<defs>
<path id="ac" d="m34.188 63.188-13.391-36.281h26.812zm-5.5781 9.7188h11.188l27.781-72.906h-10.25l-6.6406 18.703h-32.859l-6.6406-18.703h-10.406z"/>
<path id="ak" d="m45.406 27.984q0 9.7656-4.0312 15.125-4.0156 5.375-11.297 5.375-7.2188 0-11.25-5.375-4.0312-5.3594-4.0312-15.125 0-9.7188 4.0312-15.094t11.25-5.375q7.2812 0 11.297 5.375 4.0312 5.375 4.0312 15.094zm8.9844-21.203q0-13.953-6.2031-20.766-6.1875-6.8125-18.984-6.8125-4.7344 0-8.9375 0.70312t-8.1562 2.1719v8.7344q3.9531-2.1406 7.8125-3.1562 3.8594-1.0312 7.8594-1.0312 8.8438 0 13.234 4.6094t4.3906 13.938v4.4531q-2.7812-4.8438-7.125-7.2344t-10.406-2.3906q-10.047 0-16.203 7.6562-6.1562 7.6719-6.1562 20.328 0 12.688 6.1562 20.344 6.1562 7.6719 16.203 7.6719 6.0625 0 10.406-2.3906t7.125-7.2188v8.2969h8.9844z"/>
<path id="ah" d="m18.109 8.2031v-29h-9.0312v75.484h9.0312v-8.2969q2.8438 4.875 7.1562 7.2344 4.3281 2.375 10.328 2.375 9.9688 0 16.188-7.9062 6.2344-7.9062 6.2344-20.797t-6.2344-20.812q-6.2188-7.9062-16.188-7.9062-6 0-10.328 2.375-4.3125 2.375-7.1562 7.25zm30.578 19.094q0 9.9062-4.0781 15.547t-11.203 5.6406q-7.1406 0-11.219-5.6406t-4.0781-15.547 4.0781-15.547 11.219-5.6406q7.125 0 11.203 5.6406t4.0781 15.547z"/>
<path id="af" d="m4.2031 54.688h8.9844l11.234-42.672 11.172 42.672h10.594l11.234-42.672 11.188 42.672h8.9844l-14.312-54.688h-10.594l-11.766 44.828-11.812-44.828h-10.609z"/>
<path id="ax" d="m4.8906 31.391h26.312v-8h-26.312z"/>
<path id="ai" d="m54.891 33.016v-33.016h-8.9844v32.719q0 7.7656-3.0312 11.609-3.0312 3.8594-9.0781 3.8594-7.2812 0-11.484-4.6406-4.2031-4.625-4.2031-12.641v-30.906h-9.0312v54.688h9.0312v-8.5q3.2344 4.9375 7.5938 7.375 4.375 2.4375 10.094 2.4375 9.4219 0 14.25-5.8281 4.8438-5.8281 4.8438-17.156z"/>
</defs>
<g transform="translate(209.62 403.92) scale(.1 -.1)">
<use xlink:href="#ac"/>
<use x="68.408203" xlink:href="#ak"/>
<use x="131.884766" xlink:href="#e"/>
<use x="193.408203" xlink:href="#DejaVuSans-20"/>
<use x="225.195312" xlink:href="#x"/>
<use x="264.208984" xlink:href="#ah"/>
<use x="327.685547" xlink:href="#m"/>
<use x="388.867188" xlink:href="#af"/>
<use x="470.654297" xlink:href="#e"/>
<use x="532.177734" xlink:href="#i"/>
<use x="573.197266" xlink:href="#ax"/>
<use x="609.296875" xlink:href="#m"/>
<use x="670.478516" xlink:href="#ai"/>
<use x="733.857422" xlink:href="#DejaVuSans-20"/>
<use x="765.644531" xlink:href="#p"/>
<use x="824.824219" xlink:href="#e"/>
<use x="886.347656" xlink:href="#k"/>
<use x="947.626953" xlink:href="#i"/>
<use x="988.740234" xlink:href="#j"/>
<use x="1040.839844" xlink:href="#w"/>
</g>
<path d="m40.603 375.64h446.02" clip-path="url(#b)" fill="none" stroke="#b0b0b0" stroke-linecap="square" stroke-width=".8"/>
<use x="40.603125" y="375.64" stroke="#000000" stroke-width=".8" xlink:href="#d"/>
<g transform="translate(27.241 379.44) scale(.1 -.1)">
<use xlink:href="#f"/>
</g>
<path d="m40.603 328.36h446.02" clip-path="url(#b)" fill="none" stroke="#b0b0b0" stroke-linecap="square" stroke-width=".8"/>
<use x="40.603125" y="328.364202" stroke="#000000" stroke-width=".8" xlink:href="#d"/>
<g transform="translate(27.241 332.16) scale(.1 -.1)">
<use xlink:href="#n"/>
</g>
<path d="m40.603 281.09h446.02" clip-path="url(#b)" fill="none" stroke="#b0b0b0" stroke-linecap="square" stroke-width=".8"/>
<use x="40.603125" y="281.088405" stroke="#000000" stroke-width=".8" xlink:href="#d"/>
<defs>
<path id="aw" d="m31.781 34.625q-7.0312 0-11.062-3.7656-4.0156-3.7656-4.0156-10.344 0-6.5938 4.0156-10.359 4.0312-3.7656 11.062-3.7656t11.078 3.7812q4.0625 3.7969 4.0625 10.344 0 6.5781-4.0312 10.344-4.0156 3.7656-11.109 3.7656zm-9.8594 4.1875q-6.3438 1.5625-9.8906 5.9062-3.5312 4.3594-3.5312 10.609 0 8.7344 6.2188 13.812 6.2344 5.0781 17.062 5.0781 10.891 0 17.094-5.0781t6.2031-13.812q0-6.25-3.5469-10.609-3.5312-4.3438-9.8281-5.9062 7.125-1.6562 11.094-6.5 3.9844-4.8281 3.9844-11.797 0-10.609-6.4688-16.281-6.4688-5.6562-18.531-5.6562-12.047 0-18.531 5.6562-6.4688 5.6719-6.4688 16.281 0 6.9688 4 11.797 4.0156 4.8438 11.141 6.5zm-3.6094 15.578q0-5.6562 3.5312-8.8281 3.5469-3.1719 9.9375-3.1719 6.3594 0 9.9375 3.1719 3.5938 3.1719 3.5938 8.8281 0 5.6719-3.5938 8.8438-3.5781 3.1719-9.9375 3.1719-6.3906 0-9.9375-3.1719-3.5312-3.1719-3.5312-8.8438z"/>
</defs>
<g transform="translate(27.241 284.89) scale(.1 -.1)">
<use xlink:href="#aw"/>
</g>
<path d="m40.603 233.81h446.02" clip-path="url(#b)" fill="none" stroke="#b0b0b0" stroke-linecap="square" stroke-width=".8"/>
<use x="40.603125" y="233.812607" stroke="#000000" stroke-width=".8" xlink:href="#d"/>
<g transform="translate(20.878 237.61) scale(.1 -.1)">
<use xlink:href="#g"/>
<use x="63.623047" xlink:href="#v"/>
</g>
<path d="m40.603 186.54h446.02" clip-path="url(#b)" fill="none" stroke="#b0b0b0" stroke-linecap="square" stroke-width=".8"/>
<use x="40.603125" y="186.536809" stroke="#000000" stroke-width=".8" xlink:href="#d"/>
<g transform="translate(20.878 190.34) scale(.1 -.1)">
<use xlink:href="#g"/>
<use x="63.623047" xlink:href="#s"/>
</g>
<defs>
<path id="ar" d="m9.8125 72.906h41.891v-8.3125h-32.031v-21.484h28.906v-8.2969h-28.906v-34.812h-9.8594z"/>
<path id="ao" d="m44.391 34.188q3.1719-1.0781 6.1719-4.5938t6.0312-9.6719l10.016-19.922h-10.609l-9.3125 18.703q-3.625 7.3281-7.0156 9.7188t-9.25 2.3906h-10.75v-30.812h-9.8594v72.906h22.266q12.5 0 18.656-5.2344 6.1562-5.2188 6.1562-15.766 0-6.8906-3.2031-11.438-3.2031-4.5312-9.2969-6.2812zm-24.719 30.609v-25.875h12.406q7.125 0 10.766 3.2969t3.6406 9.6875-3.6406 9.6406-10.766 3.25z"/>
<path id="ay" d="m72.703 32.078q-4.25 0-6.6719-3.6094-2.4062-3.6094-2.4062-10.062 0-6.3438 2.4062-9.9844 2.4219-3.6406 6.6719-3.6406 4.1562 0 6.5625 3.6406 2.4219 3.6406 2.4219 9.9844 0 6.4062-2.4219 10.031-2.4062 3.6406-6.5625 3.6406zm0 6.2031q7.7188 0 12.25-5.375 4.5469-5.3594 4.5469-14.5 0-9.125-4.5625-14.484-4.5625-5.3438-12.234-5.3438-7.8125 0-12.359 5.3438-4.5312 5.3594-4.5312 14.484 0 9.1875 4.5625 14.531t12.328 5.3438zm-50.391 29.734q-4.2031 0-6.625-3.6406-2.4062-3.625-2.4062-9.9844 0-6.4375 2.3906-10.062 2.3906-3.6094 6.6406-3.6094t6.6562 3.6094q2.4219 3.625 2.4219 10.062 0 6.2969-2.4375 9.9531-2.4375 3.6719-6.6406 3.6719zm44.094 6.2031h7.8125l-45.609-75.641h-7.8125zm-44.094 0q7.7188 0 12.297-5.3438 4.5938-5.3438 4.5938-14.484 0-9.2188-4.5625-14.547t-12.328-5.3281-12.281 5.3438q-4.5156 5.3594-4.5156 14.531 0 9.0938 4.5312 14.453 4.5469 5.375 12.266 5.375z"/>
</defs>
<g transform="translate(14.798 334.34) rotate(-90) scale(.1 -.1)">
<use xlink:href="#ar"/>
<use x="57.378906" xlink:href="#k"/>
<use x="118.658203" xlink:href="#l"/>
<use x="146.441406" xlink:href="#r"/>
<use x="174.224609" xlink:href="#y"/>
<use x="237.603516" xlink:href="#i"/>
<use x="278.685547" xlink:href="#e"/>
<use x="340.208984" xlink:href="#DejaVuSans-20"/>
<use x="371.996094" xlink:href="#ao"/>
<use x="441.447266" xlink:href="#k"/>
<use x="502.726562" xlink:href="#q"/>
<use x="541.935547" xlink:href="#e"/>
<use x="603.458984" xlink:href="#DejaVuSans-20"/>
<use x="635.246094" xlink:href="#x"/>
<use x="674.259766" xlink:href="#ay"/>
<use x="769.279297" xlink:href="#ad"/>
<use x="802.970703" xlink:href="#p"/>
<use x="862.150391" xlink:href="#e"/>
<use x="923.673828" xlink:href="#k"/>
<use x="984.953125" xlink:href="#i"/>
<use x="1026.066406" xlink:href="#w"/>
</g>
<path d="m65.925 25.046 0.20728 7.4375 1.0364 72.69 1.0364 57.578 1.0364 46.372 1.0364 37.627 1.0364 30.245 1.2437 28.8 0.8291 16.442 0.8291 11.694 0.62183 6.2355 0.62183 4.3888 0.62183 2.7537 1.0364 2.6215 1.2437 2.541 1.4509 2.4591 0.41455 0.49763 2.6946 2.1911 2.6946 2.0188 0.41455 1.3476 0.8291 2.668 0.8291 2.0174 1.0364 1.8122 1.0364 1.321 1.0364 0.97337 1.4509 1.05 1.4509 0.74576 2.6946 1.2232 1.8655 0.51427 2.0728 0.35119 6.4256 0.67291 3.9382 0.18686 0.41455-0.22665 0.62183-0.69096 0.62183-1.2594 1.6582-4.4142 1.4509-3.5134 1.0364-1.978 1.0364-1.5013 1.0364-1.3218 0.8291-1.1515 0.62183-0.49881 0.62183-0.19466 0.62183 0.1011 0.8291 0.45974 0.62183 0.62241 0.62183 0.91904 0.8291 1.6893 1.4509 3.3401 0.62183 1.0403 1.0364 1.23 1.8655 1.6328 1.0364 0.67986 1.0364 0.44764 0.41455-0.066177 0.20728-0.20486 0.62183-1.4146 1.0364-3.2095 1.2437-4.4734 1.0364-2.9069 0.8291-1.7805 0.8291-1.2901 0.62183-0.64255 0.62183-0.36059 0.62183-0.077461 0.20728 0.037448 0.62183-0.36112 0.41455-0.029956 0.41455 0.13847 0.62183 0.52312 0.62183 0.90108 0.8291 1.7345 1.0364 2.7816 2.0728 5.9937 1.0364 1.7161 0.62183 0.33604 1.2437 0.70226 1.4509 1.0825 1.6582 1.5437 1.4509 1.3438 6.6328-0.089588 0.8291-0.3337 1.2437-0.82956 1.4509-0.8478 1.4509-0.59097 1.4509-0.33132 1.2437-0.075338 1.2437 0.119 1.2437 0.31497 2.0728 0.5995 0.8291 0.013875 0.41455-0.22541 0.8291-1.0137 1.0364-1.6726 0.41455-0.85973 1.2437-3.2925 1.2437-2.6406 1.0364-1.6675 1.0364-1.539 0.8291-1.1607 0.62183-0.51324 0.62183-0.20593 0.62183 0.10232 0.62183 0.41151 0.62183 0.72164 0.8291 1.4214 1.2437 2.6785 1.2437 2.793 2.28 3.9974 2.0728 2.0106 1.8655 1.9005 0.41455 0.099759 5.5965 0.52723 10.571 1.4927 2.4873-0.023413 0.62183-0.24501 0.8291-0.64544 1.8655-1.4932 1.6582-1.0298 1.4509-0.6375 1.2437-0.32859 1.2437-0.10909 1.8655 0.14519 3.3164 0.24989 0.62183-0.36873 0.20728-0.24025 1.6582-3.766 1.8655-4.1206 1.8655-3.5162 0.8291-1.2016 0.62183-0.59811 0.62183-0.33405 0.62183-0.066104 0.62183 0.20249 0.62183 0.417 1.6582 1.3601 1.2437 0.26162 1.2437 0.27756 0.41455 0.14769 1.8655-0.78686 0.8291-0.17138 1.0364 0.046018 1.8655 0.43096 0.20728 0.078556 1.6582-0.38592 0.62183 0.14802 0.62183 0.34161 0.62183 0.5988 0.8291 1.2014 0.62183 0.76188 0.62183 0.47525 1.0364 0.43306 1.4509 0.49832 1.0364 0.6464 1.2437 1.0704 1.0364 1.1889 1.2437 1.7807 1.6582 2.4902 0.8291 0.38449 0.8291 0.093531 1.0364-0.21468 2.4873-0.45147 2.4873-0.28069 1.4509 0.1008 0.8291 0.059229 0.8291-0.14033 0.8291-0.33405 0.8291-0.6178 1.0364-0.79879 4.1455-2.4689 0.8291-0.12569 0.8291 0.12374 0.8291 0.36787 0.8291 0.60667 1.0364 1.0859 1.0364 1.4404 1.6582 2.4716 1.0364 1.1746 0.62183 0.40926 2.0728 0.7926 1.6582 0.40175 1.6582 0.15131 4.1455 0.3041 6.4256 0.47776 4.3528 0.020817 0.8291-0.089063 0.8291-0.36512 0.8291-0.61257 1.0364-1.0465 1.6582-2.0897 1.0364-1.0989 1.0364-0.79772 1.0364-0.49472 0.8291-0.17658 0.8291 0.019149 0.8291 0.21573 0.8291 0.41315 1.0364 0.79535 1.0364 1.1068 2.0728 2.4651 1.0364 0.8489 0.8291 0.43205 0.8291 0.17564 1.6582-0.07818 0.41455-0.2769 0.62183-0.76794 2.28-3.6637 1.0364-1.1352 1.0364-0.78783 0.8291-0.38212 0.8291-0.16318 0.8291 0.054246 0.8291 0.27017 0.8291 0.48458 1.0364 0.90474 1.0364 1.2345 1.0364 1.5613 1.8655 3.0029 0.41455 0.28101 0.41455 0.068585 9.5347 0.10016 12.229 0.6257 18.655-0.11442 0.62183-0.40581 2.6946-2.5556 1.4509-1.0198 1.2437-0.64482 1.2437-0.40787 1.4509-0.20506 1.0364 0.038671 1.0364 0.24575 1.0364 0.48172 1.0364 0.7516 1.4509 1.175 0.62183 0.031899 3.1091-0.36744 4.9746-0.86659 2.6946-0.79069 1.8655-0.56913 1.2437-0.097462 1.4509 0.12052 1.2437 0.25597 1.4509 0.58892 1.6582 0.92891 1.4509 1.0801 0.8291 0.82881 1.6582 1.8195 0.8291 0.62835 0.62183 0.19038h42.077v0" clip-path="url(#b)" fill="none" stroke="#d2691e" stroke-linecap="square" stroke-width="1.5"/>
<path d="m40.603 375.64v-189.1" fill="none" stroke="#000" stroke-linecap="square" stroke-width=".8"/>
<path d="m486.62 375.64v-189.1" fill="none" stroke="#000" stroke-linecap="square" stroke-width=".8"/>
<path d="m40.603 375.64h446.02" fill="none" stroke="#000" stroke-linecap="square" stroke-width=".8"/>
<path d="m40.603 186.54h446.02" fill="none" stroke="#000" stroke-linecap="square" stroke-width=".8"/>
<defs>
<path id="ap" d="m9.8125 72.906h14.703l18.594-49.609 18.703 49.609h14.703v-72.906h-9.625v64.016l-18.797-50h-9.9062l-18.797 50v-64.016h-9.5781z"/>
<path id="av" d="m11.719 12.406h10.297v-12.406h-10.297zm0 39.297h10.297v-12.391h-10.297z"/>
<path id="ab" d="m9.8125 72.906h9.8594v-29.891h35.844v29.891h9.8594v-72.906h-9.8594v34.719h-35.844v-34.719h-9.8594z"/>
<path id="al" d="m48.781 52.594v-8.4062q-3.8125 2.1094-7.6406 3.1562t-7.7344 1.0469q-8.75 0-13.594-5.5469-4.8281-5.5312-4.8281-15.547t4.8281-15.562q4.8438-5.5312 13.594-5.5312 3.9062 0 7.7344 1.0469t7.6406 3.1562v-8.3125q-3.7656-1.75-7.7969-2.625-4.0156-0.89062-8.5625-0.89062-12.359 0-19.641 7.7656-7.2656 7.7656-7.2656 20.953 0 13.375 7.3438 21.031 7.3594 7.6719 20.156 7.6719 4.1406 0 8.0938-0.85938 3.9531-0.84375 7.6719-2.5469z"/>
<path id="aj" d="m54.891 33.016v-33.016h-8.9844v32.719q0 7.7656-3.0312 11.609-3.0312 3.8594-9.0781 3.8594-7.2812 0-11.484-4.6406-4.2031-4.625-4.2031-12.641v-30.906h-9.0312v75.984h9.0312v-29.797q3.2344 4.9375 7.5938 7.375 4.375 2.4375 10.094 2.4375 9.4219 0 14.25-5.8281 4.8438-5.8281 4.8438-17.156z"/>
<path id="at" d="m19.672 64.797v-56.688h11.922q15.094 0 22.094 6.8281 7 6.8438 7 21.594 0 14.641-7 21.453t-22.094 6.8125zm-9.8594 8.1094h20.266q21.188 0 31.094-8.8125 9.9219-8.8125 9.9219-27.562 0-18.859-9.9688-27.703-9.9531-8.8281-31.047-8.8281h-20.266z"/>
<path id="an" d="m53.516 70.516v-9.625q-5.6094 2.6875-10.594 4-4.9844 1.3281-9.625 1.3281-8.0469 0-12.422-3.125t-4.375-8.8906q0-4.8438 2.9062-7.3125 2.9062-2.4531 11.016-3.9688l5.9531-1.2188q11.031-2.1094 16.281-7.4062t5.25-14.172q0-10.609-7.1094-16.078-7.0938-5.4688-20.812-5.4688-5.1719 0-11.016 1.1719-5.8281 1.1719-12.078 3.4688v10.156q6-3.3594 11.766-5.0781 5.7656-1.7031 11.328-1.7031 8.4375 0 13.031 3.3125 4.5938 3.3281 4.5938 9.4844 0 5.3594-3.2969 8.3906t-10.812 4.5469l-6.0156 1.1719q-11.031 2.1875-15.969 6.875-4.9219 4.6875-4.9219 13.047 0 9.6719 6.8125 15.234t18.766 5.5625q5.1406 0 10.453-0.9375 5.3281-0.92188 10.891-2.7656z"/>
<path id="au" d="m64.406 67.281v-10.391q-4.9844 4.6406-10.625 6.9219-5.6406 2.2969-11.984 2.2969-12.5 0-19.141-7.6406t-6.6406-22.094q0-14.406 6.6406-22.047t19.141-7.6406q6.3438 0 11.984 2.2969t10.625 6.9375v-10.312q-5.1719-3.5156-10.969-5.2812-5.7812-1.75-12.219-1.75-16.562 0-26.094 10.125-9.5156 10.141-9.5156 27.672 0 17.578 9.5156 27.703 9.5312 10.141 26.094 10.141 6.5312 0 12.312-1.7344 5.7969-1.7344 10.875-5.2031z"/>
<path id="aq" d="m9.8125 72.906h9.8594v-64.609h35.5v-8.2969h-45.359z"/>
<path id="as" d="m9.8125 72.906h46.094v-8.3125h-36.234v-21.578h34.719v-8.2969h-34.719v-26.422h37.109v-8.2969h-46.969z"/>
</defs>
<g transform="translate(144.21 16.318) scale(.12 -.12)">
<use xlink:href="#ap"/>
<use x="86.279297" xlink:href="#m"/>
<use x="147.460938" xlink:href="#o"/>
<use x="210.9375" xlink:href="#e"/>
<use x="272.460938" xlink:href="#r"/>
<use x="300.244141" xlink:href="#av"/>
<use x="333.935547" xlink:href="#DejaVuSans-20"/>
<use x="365.722656" xlink:href="#ab"/>
<use x="440.917969" xlink:href="#l"/>
<use x="468.701172" xlink:href="#q"/>
<use x="507.910156" xlink:href="#k"/>
<use x="569.189453" xlink:href="#al"/>
<use x="624.169922" xlink:href="#aj"/>
<use x="687.548828" xlink:href="#l"/>
<use x="715.332031" xlink:href="#DejaVuSans-20"/>
<use x="747.119141" xlink:href="#ab"/>
<use x="822.314453" xlink:href="#at"/>
<use x="899.316406" xlink:href="#an"/>
<use x="962.792969" xlink:href="#t"/>
<use x="1026.416016" xlink:href="#au"/>
<use x="1096.240234" xlink:href="#n"/>
<use x="1159.863281" xlink:href="#f"/>
<use x="1223.486328" xlink:href="#n"/>
<use x="1287.109375" xlink:href="#f"/>
<use x="1350.732422" xlink:href="#ac"/>
<use x="1419.140625" xlink:href="#aq"/>
<use x="1474.853516" xlink:href="#as"/>
<use x="1538.037109" xlink:href="#s"/>
<use x="1601.660156" xlink:href="#u"/>
<use x="1665.283203" xlink:href="#f"/>
</g>
<defs>
<clipPath id="h">
<rect x="40.603" y="28.8" width="446.02" height="141.83"/>
</clipPath>
<clipPath id="b">
<rect x="40.603" y="186.54" width="446.02" height="189.1"/>
</clipPath>
</defs>
</svg>
