<?xml version="1.0" encoding="UTF-8"?>
<!DOCTYPE svg  PUBLIC '-//W3C//DTD SVG 1.1//EN'  'http://www.w3.org/Graphics/SVG/1.1/DTD/svg11.dtd'>
<svg width="497pt" height="413pt" version="1.1" viewBox="0 0 497 413" xmlns="http://www.w3.org/2000/svg" xmlns:xlink="http://www.w3.org/1999/xlink">
<defs>
<style type="text/css">*{stroke-linecap:butt;stroke-linejoin:round;}</style>
</defs>
<path d="m0 413.2h497.48v-413.2h-497.48z" fill="#fff"/>
<path d="m46.966 170.63h439.81v-141.83h-439.81z" fill="#fff"/>
<defs>
<path id="ae" d="m63.983-235.45v-38.489l0.21824-0.025984 0.21824 0.002265 0.21824 0.002901 0.21824 0.003538 0.21824 0.004174 0.21824 0.007358 0.21824 0.007403 0.21824 0.007448 0.21824 0.007751 0.21824 0.008125 0.21824 0.008499 0.21824 0.008754 0.21824 0.008901 0.21824 0.009048 0.21824 0.009196 0.21824 0.009343 0.21824 0.009492 0.21824 0.009767 0.21824 0.010395 0.21824 0.011008 0.21824 0.010919 0.21824 0.010831 0.21824 0.010741 0.21824 0.010652 0.21824 0.010561 0.21824 0.010472 0.21824 0.010381 0.21824 0.01029 0.21824 0.010199 0.21824 0.010108 0.21824 0.010017 0.21824 0.009924 0.21824 0.009832 0.21824 0.00974 0.21824 0.009647 0.21824 0.009554 0.21824 0.009461 0.21824 0.009368 0.21824 0.009273 0.21824 0.009212 0.21824 0.009338 0.21824 0.009465 0.21824 0.009593 0.21824 0.00972 0.21824 0.009848 0.21824 0.009977 0.21824 0.010105 0.21824 0.010235 0.21824 0.010364 0.21824 0.010494 0.21824 0.010624 0.21824 0.011339 0.21824 0.012809 0.21824 0.012644 0.21824 0.011968 0.21824 0.013329 0.21824 0.013691 0.21824 0.013307 0.21824 0.01292 0.21824 0.012534 0.21824 0.012365 0.21824 0.013034 0.21824 0.013706 0.21824 0.017482 0.21824 0.017995 0.21824 0.018511 0.21824 0.017756 0.21824 0.015006 0.21824 0.014301 0.21824 0.013681 0.21824 0.013206 0.21824 0.012728 0.21824 0.012249 0.21824 0.010914 0.21824 0.009394 0.21824 0.009631 0.21824 0.010926 0.21824 0.012068 0.21824 0.013495 0.21824 0.010428 0.21824 0.010618 0.21824 0.010806 0.21824 0.010995 0.21824 0.011186 0.21824 0.011377 0.21824 0.011567 0.21824 0.01176 0.21824 0.011952 0.21824 0.010658 0.21824 0.01149 0.21824 0.008767 0.21824 0.00919 0.21824 0.009643 0.21824 0.010221 0.21824 0.01037 0.21824 0.010154 0.21824 0.009936 0.21824 0.009718 0.21824 0.009501 0.21824 0.008842 0.21824 0.007716 0.21824 0.007346 0.21824 0.006976 0.21824 0.006623 0.21824 0.006451 0.21824 0.006263 0.21824 0.005636 0.21824 0.005009 0.21824 0.004381 0.21824 0.003657 0.21824 0.002816 0.21824 0.001952 0.21824-6.06e-4 0.21824-0.001151 0.21824-0.001695 0.21824-0.00224 0.21824-0.002775 0.21824-0.003308 0.21824-0.003842 0.21824-0.004374 0.21824-0.004905 0.21824-0.005928 0.21824-0.010591 0.21824-0.013026 0.21824-0.013743 0.21824-0.015074 0.21824-0.018076 0.21824-0.018527 0.21824-0.018973 0.21824-0.01942 0.21824-0.019861 0.43649-0.040058 0.21824-0.02029 0.21824-0.020544 0.21824-0.022919 0.21824-0.027679 0.21824-0.023618 0.21824-0.025247 0.21824-0.026167 0.21824-0.026747 0.21824-0.027231 0.21824-0.02764 0.21824-0.028046 0.21824-0.028447 0.21824-0.028846 0.21824-0.029249 0.21824-0.029672 0.21824-0.03009 0.21824-0.030527 0.21824-0.030964 0.21824-0.030583 0.21824-0.02815 0.21824-0.028416 0.21824-0.02868 0.21824-0.02894 0.21824-0.0292 0.21824-0.031143 0.21824-0.032111 0.21824-0.032757 0.21824-0.032998 0.21824-0.033237 0.21824-0.033473 0.21824-0.033965 0.21824-0.03452 0.21824-0.035069 0.21824-0.035493 0.21824-0.038263 0.21824-0.039415 0.21824-0.040042 0.21824-0.04071 0.21824-0.041825 0.21824-0.048795 0.21824-0.050315 0.21824-0.050399 0.21824-0.049803 0.21824-0.049213 0.21824-0.04863 0.21824-0.048056 0.21824-0.048989 0.21824-0.048364 0.21824-0.047747 0.21824-0.047137 0.21824-0.046607 0.21824-0.050575 0.21824-0.050468 0.21824-0.050361 0.21824-0.050255 0.21824-0.050148 0.21824-0.050043 0.21824-0.049938 0.21824-0.049992 0.21824-0.050161 0.21824-0.050325 0.21824-0.051872 0.21824-0.052648 0.21824-0.056623 0.21824-0.056877 0.21824-0.057127 0.21824-0.057371 0.21824-0.057608 0.21824-0.05784 0.21824-0.061961 0.21824-0.062582 0.21824-0.062707 0.21824-0.062564 0.21824-0.062872 0.21824-0.063752 0.21824-0.063362 0.21824-0.062588 0.43649-0.12673 0.21824-0.062818 0.21824-0.062275 0.21824-0.061415 0.21824-0.060468 0.21824-0.06014 0.21824-0.061309 0.21824-0.064683 0.21824-0.066644 0.21824-0.06603 0.21824-0.06521 0.21824-0.063035 0.21824-0.062301 0.21824-0.061637 0.21824-0.061082 0.21824-0.060534 0.21824-0.059994 0.21824-0.058899 0.21824-0.062188 0.21824-0.063446 0.21824-0.06456 0.21824-0.065036 0.21824-0.065679 0.21824-0.063474 0.21824-0.063348 0.21824-0.063223 0.21824-0.063098 0.87297-0.25208 0.21824-0.06296 0.21824-0.061958 0.21824-0.062221 0.21824-0.060406 0.21824-0.060444 0.21824-0.06048 0.21824-0.060513 0.21824-0.060484 0.21824-0.060692 0.21824-0.06071 0.21824-0.060544 0.21824-0.06007 0.21824-0.059362 0.21824-0.058409 0.21824-0.057882 0.21824-0.057363 0.21824-0.056858 0.21824-0.056458 0.21824-0.056063 0.21824-0.055672 0.21824-0.055286 0.21824-0.054905 0.21824-0.054888 0.21824-0.054874 0.21824-0.054434 0.21824-0.053145 0.21824-0.05289 0.21824-0.052638 0.21824-0.052389 0.21824-0.052141 0.21824-0.0519 0.21824-0.051724 0.21824-0.051549 0.21824-0.051375 0.21824-0.051203 0.21824-0.050125 0.21824-0.049701 0.21824-0.04928 0.21824-0.048568 0.21824-0.047065 0.21824-0.04679 0.21824-0.046518 0.21824-0.046247 0.21824-0.04598 0.21824-0.045715 0.21824-0.045433 0.21824-0.045037 0.21824-0.045438 0.21824-0.044078 0.21824-0.041614 0.21824-0.040978 0.21824-0.040348 0.21824-0.04005 0.21824-0.039907 0.21824-0.039767 0.21824-0.039662 0.21824-0.039931 0.21824-0.040427 0.21824-0.041099 0.21824-0.041783 0.21824-0.041631 0.21824-0.04148 0.21824-0.041319 0.21824-0.041159 0.21824-0.040999 0.21824-0.04084 0.21824-0.040682 0.21824-0.040712 0.21824-0.040825 0.21824-0.040817 0.21824-0.039981 0.21824-0.039588 0.21824-0.039342 0.21824-0.039278 0.21824-0.039216 0.21824-0.039152 0.21824-0.039089 0.21824-0.039177 0.21824-0.039399 0.21824-0.038938 0.21824-0.037365 0.21824-0.036528 0.21824-0.036263 0.21824-0.036 0.21824-0.035533 0.21824-0.03246 0.21824-0.032004 0.21824-0.032159 0.21824-0.032311 0.21824-0.032461 0.21824-0.03261 0.21824-0.032756 0.21824-0.032006 0.21824-0.030929 0.21824-0.031076 0.21824-0.031221 0.21824-0.031331 0.21824-0.029359 0.21824-0.029268 0.21824-0.029178 0.21824-0.029765 0.21824-0.030027 0.21824-0.029767 0.21824-0.029196 0.43649-0.05847 0.21824-0.02914 0.21824-0.02839 0.21824-0.028075 0.21824-0.025897 0.21824-0.025356 0.21824-0.024737 0.21824-0.024051 0.21824-0.024259 0.21824-0.024837 0.21824-0.022887 0.21824-0.022616 0.21824-0.023008 0.21824-0.022735 0.21824-0.022463 0.21824-0.022194 0.21824-0.021901 0.21824-0.021592 0.21824-0.021284 0.21824-0.021451 0.21824-0.023929 0.21824-0.025766 0.21824-0.025865 0.21824-0.026096 0.21824-0.026325 0.21824-0.025784 0.21824-0.025235 0.21824-0.024192 0.21824-0.024472 0.21824-0.024403 0.21824-0.024334 0.21824-0.024265 0.21824-0.025444 0.21824-0.025579 0.21824-0.02584 0.21824-0.026748 0.21824-0.026728 0.21824-0.024303 0.21824-0.023573 0.21824-0.023278 0.21824-0.023301 0.21824-0.02352 0.21824-0.025957 0.21824-0.026112 0.21824-0.026924 0.21824-0.028411 0.21824-0.029724 0.21824-0.029099 0.21824-0.028792 0.21824-0.028491 0.21824-0.028222 0.21824-0.027992 0.21824-0.027764 0.21824-0.027538 0.21824-0.027312 0.21824-0.028246 0.21824-0.028368 0.21824-0.02841 0.21824-0.028892 0.21824-0.030622 0.21824-0.030049 0.21824-0.029858 0.21824-0.02994 0.21824-0.030021 0.21824-0.03021 0.21824-0.030611 0.21824-0.031091 0.21824-0.032315 0.21824-0.032539 0.21824-0.03377 0.21824-0.034492 0.21824-0.034399 0.21824-0.034063 0.21824-0.033691 0.21824-0.033577 0.21824-0.033465 0.21824-0.033354 0.21824-0.033242 0.21824-0.033502 0.21824-0.035308 0.21824-0.037941 0.21824-0.037581 0.21824-0.037225 0.21824-0.036871 0.21824-0.036522 0.21824-0.036358 0.21824-0.037781 0.21824-0.037878 0.21824-0.086243 0.21824-0.097766 0.21824-0.099671 0.21824-0.11549 0.21824-0.11794 0.21824-0.11776 0.21824-0.11737 0.21824-0.11699 0.21824-0.1166 0.21824-0.11576 0.21824-0.12819 0.21824-0.12828 0.21824-0.13956 0.21824-0.16131 0.21824-0.16809 0.21824-0.18047 0.21824-0.18522 0.21824-0.18192 0.21824-0.17856 0.21824-0.17519 0.21824-0.17184 0.21824-0.16861 0.21824-0.16589 0.21824-0.16343 0.21824-0.16064 0.21824-0.15821 0.21824-0.15586 0.21824-0.15358 0.21824-0.15136 0.21824-0.14912 0.21824-0.14691 0.21824-0.14482 0.21824-0.14281 0.21824-0.14086 0.21824-0.13895 0.21824-0.1371 0.21824-0.13686 0.21824-0.13524 0.21824-0.13371 0.21824-0.13217 0.21824-0.13066 0.21824-0.1294 0.21824-0.12743 0.21824-0.12611 0.21824-0.12468 0.21824-0.12328 0.21824-0.13328 0.21824-0.13133 0.21824-0.12963 0.21824-0.12805 0.21824-0.1265 0.21824-0.12505 0.21824-0.12365 0.21824-0.1221 0.21824-0.12066 0.21824-0.11962 0.21824-0.11818 0.21824-0.11677 0.21824-0.11539 0.21824-0.11405 0.21824-0.1131 0.21824-0.11217 0.21824-0.11089 0.21824-0.10974 0.21824-0.10859 0.21824-0.1075 0.21824-0.10621 0.21824-0.10495 0.21824-0.10376 0.21824-0.10259 0.21824-0.10148 0.21824-0.10049 0.21824-0.099561 0.21824-0.098674 0.21824-0.097826 0.21824-0.096893 0.21824-0.095719 0.21824-0.094684 0.21824-0.093683 0.21824-0.09259 0.21824-0.091754 0.21824-0.090831 0.21824-0.089956 0.21824-0.089159 0.21824-0.08826 0.21824-0.087562 0.21824-0.086817 0.21824-0.0854 0.21824-0.083999 0.21824-0.089627 0.21824-0.088873 0.21824-0.088131 0.21824-0.087401 0.21824-0.086685 0.21824-0.085855 0.21824-0.084953 0.21824-0.084047 0.21824-0.083634 0.21824-0.083274 0.21824-0.082236 0.21824-0.081488 0.21824-0.08072 0.21824-0.079796 0.21824-0.079127 0.21824-0.078469 0.21824-0.077801 0.21824-0.07713 0.21824-0.076463 0.21824-0.07586 0.21824-0.074721 0.21824-0.074349 0.21824-0.073909 0.21824-0.072866 0.21824-0.072003 0.21824-0.071617 0.21824-0.071158 0.21824-0.070705 0.21824-0.070258 0.21824-0.069815 0.21824-0.06938 0.21824-0.068997 0.21824-0.068574 0.21824-0.067897 0.21824-0.067262 0.21824-0.066738 0.21824-0.066056 0.21824-0.065117 0.21824-0.064752 0.21824-0.064344 0.21824-0.06388 0.21824-0.063421 0.21824-0.062923 0.21824-0.062227 0.21824-0.061548 0.21824-0.060868 0.21824-0.060369 0.21824-0.059648 0.21824-0.059076 0.21824-0.058699 0.21824-0.058326 0.21824-0.057959 0.21824-0.057595 0.21824-0.057154 0.21824-0.056872 0.21824-0.056591 0.21824-0.056109 0.21824-0.055317 0.21824-0.054354 0.21824-0.054055 0.21824-0.053653 0.21824-0.053339 0.21824-0.052977 0.21824-0.05259 0.21824-0.052146 0.21824-0.05191 0.21824-0.041174 0.21824-0.038378 0.21824-0.037523 0.21824-0.033572 0.21824-0.03257 0.21824-0.032163 0.21824-0.031803 0.21824-0.031445 0.21824-0.03116 0.21824-0.030971 0.21824-0.02821 0.21824-0.027539 0.21824-0.024268 0.21824-0.019981 0.21824-0.017597 0.21824-0.013743 0.21824-0.011703 0.21824-0.0117 0.21824-0.014562 0.21824-0.014584 0.21824-0.018784 0.21824-0.018971 0.21824-0.02093 0.21824-0.023142 0.21824-0.023264 0.21824-0.023254 0.21824-0.023615 0.21824-0.023382 0.21824-0.023293 0.21824-0.02325 0.21824-0.023209 0.21824-0.023161 0.21824-0.023113 0.21824-0.023065 0.21824-0.023055 0.21824-0.027355 0.21824-0.037938 0.21824-0.042382 0.21824-0.047816 0.21824-0.050209 0.21824-0.049838 0.21824-0.050334 0.21824-0.05122 0.21824-0.058567 0.21824-0.058228 0.21824-0.057836 0.21824-0.053158 0.21824-0.053048 0.21824-0.053307 0.21824-0.053069 0.21824-0.053204 0.21824-0.055759 0.21824-0.05542 0.21824-0.055154 0.21824-0.054892 0.21824-0.054632 0.21824-0.061725 0.21824-0.061875 0.21824-0.06461 0.21824-0.064257 0.21824-0.063638 0.21824-0.063127 0.21824-0.062676 0.21824-0.06223 0.21824-0.061872 0.21824-0.061547 0.21824-0.061224 0.21824-0.060899 0.21824-0.060635 0.21824-0.060182 0.21824-0.059721 0.21824-0.059374 0.21824-0.059005 0.21824-0.058643 0.21824-0.058287 0.21824-0.057874 0.21824-0.057532 0.21824-0.057226 0.21824-0.056915 0.21824-0.056599 0.21824-0.056286 0.21824-0.056006 0.21824-0.055661 0.21824-0.055308 0.21824-0.054949 0.21824-0.054601 0.21824-0.054233 0.21824-0.0539 0.21824-0.053667 0.21824-0.050575 0.21824-0.050294 0.21824-0.050015 0.21824-0.049732 0.21824-0.049453 0.21824-0.049232 0.21824-0.049914 0.21824-0.049941 0.21824-0.05257 0.21824-0.052871 0.21824-0.058434 0.21824-0.058696 0.21824-0.058955 0.21824-0.062833 0.21824-0.06747 0.21824-0.067081 0.21824-0.068739 0.21824-0.0683 0.21824-0.070554 0.21824-0.069999 0.21824-0.069481 0.21824-0.068891 0.21824-0.068267 0.21824-0.067858 0.21824-0.067393 0.21824-0.066935 0.21824-0.066464 0.21824-0.065985 0.21824-0.065458 0.21824-0.065133 0.21824-0.064684 0.21824-0.064218 0.21824-0.063731 0.21824-0.063307 0.21824-0.062959 0.21824-0.062568 0.21824-0.063368 0.21824-0.064358 0.21824-0.063957 0.21824-0.063561 0.21824-0.06317 0.21824-0.062783 0.21824-0.062411 0.21824-0.062115 0.21824-0.061811 0.21824-0.061436 0.21824-0.063671 0.21824-0.070282 0.21824-0.072271 0.21824-0.071746 0.21824-0.071232 0.21824-0.071048 0.21824-0.07219 0.21824-0.072408 0.21824-0.071891 0.21824-0.071382 0.21824-0.070937 0.21824-0.071728 0.21824-0.072332 0.21824-0.073937 0.21824-0.078931 0.21824-0.081379 0.21824-0.081027 0.21824-0.082432 0.21824-0.085257 0.21824-0.084901 0.21824-0.084163 0.21824-0.084416 0.21824-0.084655 0.21824-0.083952 0.21824-0.083241 0.21824-0.082605 0.21824-0.081987 0.21824-0.081565 0.21824-0.080813 0.21824-0.080048 0.21824-0.079088 0.21824-0.078649 0.21824-0.079802 0.21824-0.078483 0.21824-0.077986 0.21824-0.077553 0.21824-0.076918 0.21824-0.076348 0.21824-0.074545 0.21824-0.073912 0.21824-0.071646 0.21824-0.070993 0.21824-0.069699 0.21824-0.068301 0.21824-0.067796 0.21824-0.067317 0.21824-0.066699 0.21824-0.066322 0.21824-0.067539 0.21824-0.067059 0.21824-0.068102 0.21824-0.067606 0.21824-0.067135 0.21824-0.06667 0.21824-0.066246 0.21824-0.064116 0.21824-0.059472 0.21824-0.057364 0.21824-0.054888 0.21824-0.053556 0.21824-0.053244 0.21824-0.052613 0.21824-0.051934 0.21824-0.048707 0.21824-0.048391 0.21824-0.048201 0.21824-0.04807 0.21824-0.047795 0.21824-0.047376 0.21824-0.047135 0.21824-0.046689 0.21824-0.045319 0.21824-0.045083 0.21824-0.044864 0.21824-0.044638 0.21824-0.044459 0.21824-0.041425 0.21824-0.04109 0.21824-0.039819 0.21824-0.039623 0.21824-0.039521 0.21824-0.039343 0.21824-0.03965 0.21824-0.041898 0.21824-0.04674 0.21824-0.047778 0.21824-0.04749 0.21824-0.047167 0.21824-0.046931 0.21824-0.046712 0.21824-0.046527 0.21824-0.046302 0.21824-0.046064 0.21824-0.045847 0.21824-0.045635 0.21824-0.04543 0.21824-0.045226 0.21824-0.045027 0.21824-0.044825 0.21824-0.044653 0.21824-0.044424 0.21824-0.044225 0.21824-0.044045 0.21824-0.043844 0.21824-0.043707 0.21824-0.043539 0.21824-0.043368 0.21824-0.04319 0.21824-0.04301 0.21824-0.042812 0.21824-0.042664 0.21824-0.043609 0.21824-0.043436 0.21824-0.0434 0.21824-0.044153 0.21824-0.043696 0.21824-0.045163 0.21824-0.044006 0.21824-0.043621 0.21824-0.042403 0.21824-0.043858 0.21824-0.043516 0.21824-0.043897 0.21824-0.041683 0.21824-0.041454 0.21824-0.040422 0.21824-0.040236 0.21824-0.038968 0.21824-0.038803 0.21824-0.038636 0.21824-0.038323 0.21824-0.038142 0.21824-0.03799 0.21824-0.037809 0.21824-0.037645 0.21824-0.037481 0.21824-0.037329 0.21824-0.037229 0.21824-0.037041 0.21824-0.036901 0.21824-0.036733 0.21824-0.036618 0.21824-0.036482 0.21824-0.037459 0.21824-0.038267 0.21824-0.038752 0.21824-0.038019 0.21824-0.037845 0.21824-0.037686 0.21824-0.037538 0.21824-0.037392 0.21824-0.037245 0.21824-0.037101 0.21824-0.036944 0.21824-0.03675 0.21824-0.03544 0.21824-0.032196 0.21824-0.030989 0.21824-0.030859 0.21824-0.030636 0.21824-0.030384 0.21824-0.029545 0.21824-0.029139 0.21824-0.028999 0.21824-0.028876 0.21824-0.028775 0.21824-0.028094 0.21824-0.027485 0.21824-0.026366 0.21824-0.023729 0.21824-0.022266 0.21824-0.022105 0.21824-0.021011 0.21824-0.019227 0.21824-0.018934 0.21824-0.018847 0.21824-0.018209 0.21824-0.01778 0.21824-0.019006 0.21824-0.022202 0.21824-0.021512 0.21824-0.021018 0.21824-0.020799 0.21824-0.020785 0.21824-0.020772 0.21824-0.020767 0.21824-0.020673 0.21824-0.019729 0.21824-0.019702 0.21824-0.019559 0.21824-0.019377 0.21824-0.019322 0.21824-0.019233 0.21824-0.019214 0.21824-0.019187 0.43649-0.038189 0.21824-0.019324 0.21824-0.019247 0.21824-0.01916 0.21824-0.019073 0.21824-0.019042 0.21824-0.018991 0.21824-0.018021 0.21824-0.017985 0.21824-0.017118 0.21824-0.017062 0.21824-0.017018 0.21824-0.016994 0.21824-0.016957 0.21824-0.016947 0.21824-0.017756 0.21824-0.017691 0.21824-0.018798 0.21824-0.01913 0.21824-0.020022 0.21824-0.020837 0.43649-0.041736 0.21824-0.020819 0.21824-0.020759 0.21824-0.020701 0.21824-0.02136 0.21824-0.021902 0.21824-0.022005 0.21824-0.022113 0.21824-0.022884 0.21824-0.023222 0.21824-0.023175 0.21824-0.023375 0.21824-0.023799 0.21824-0.023888 0.21824-0.023794 0.21824-0.023629 0.21824-0.023555 0.21824-0.023632 0.21824-0.023564 0.21824-0.02324 0.21824-0.021789 0.21824-0.018947 0.21824-0.018072 0.43649-0.038786 0.21824-0.019344 0.21824-0.019333 0.21824-0.019304 0.21824-0.019276 0.21824-0.019212 0.21824-0.019146 0.21824-0.019111 0.21824-0.019069 0.21824-0.019002 0.21824-0.018917 0.21824-0.018878 0.43649-0.037637 0.21824-0.018751 0.21824-0.018678 0.21824-0.018656 0.21824-0.0186 0.21824-0.018532 0.21824-0.018448 0.21824-0.018424 0.21824-0.018307 0.21824-0.018246 0.21824-0.018158 0.21824-0.017235 0.21824-0.017155 0.21824-0.016987 0.21824-0.016232 0.21824-0.016125 0.21824-0.014919 0.21824-0.014725 0.21824-0.014624 0.21824-0.013681 0.21824-0.01236 0.21824-0.01226 0.21824-0.010739 0.21824-0.011537 0.21824-0.011571 0.21824-0.012241 0.21824-0.013922 0.21824-0.013887 0.21824-0.013884 0.21824-0.013861 0.21824-0.013915 0.21824-0.013883 0.21824-0.013836 0.21824-0.013784 0.43649-0.027523 0.21824-0.013757 0.21824-0.013718 0.21824-0.013637 0.21824-0.013592 0.21824-0.013588 0.21824-0.013532 0.21824-0.013499 0.21824-0.012656 0.21824-0.011935 0.21824-0.011046 0.21824-0.010957 0.21824-0.010227 0.21824-0.010188 0.21824-0.010089 0.21824-0.010075 0.21824-0.010047 0.21824-0.010013 0.21824-0.009953 0.21824-0.009964 0.21824-0.009924 0.21824-0.009902 0.21824-0.009893 0.21824-0.009863 0.21824-0.00989 0.21824-0.00987 0.21824-0.009828 0.21824-0.009761 0.21824-0.009149 0.21824-0.009017 0.21824-0.008941 0.43649-0.017638 0.21824-0.008859 0.21824-0.008783 0.21824-0.008697 0.43649-0.017292 0.21824-0.008444 0.21824-0.008078 0.21824-0.008037 0.21824-0.008093 0.21824-0.007758 0.21824-0.006752 0.21824-0.004177 0.21824-0.004599 0.21824-0.004905 0.21824-0.004397 0.21824-0.004206 0.21824-0.003661 0.21824-0.003611 0.21824-0.003592 0.21824-0.003778 0.21824-0.003731 0.21824-0.002954 0.21824-0.002976 0.21824-0.002971 0.21824-0.002995 0.21824-0.002912 0.21824-0.002846 0.21824-0.00287 0.21824-0.002821 0.21824-0.002511 0.21824-0.002457 0.21824-0.001808 0.21824-0.001752 0.21824-0.001658 0.21824-0.001649 0.43649-0.003257 0.21824-0.001537 0.21824-0.001401 0.21824-0.001338 0.21824-0.001304 0.21824-0.001216 0.21824-0.001167 0.21824-3.88e-4 0.21824-3.99e-4 0.21824 5.87e-4 0.21824 0.001588 0.21824 0.003183 0.21824 0.003934 0.21824 0.00401 0.21824 0.004056 0.21824 0.004108 0.21824 0.0042 0.21824 0.004294 0.21824 0.00556 0.21824 0.0061 0.21824 0.006271 0.21824 0.006404 0.21824 0.007079 0.21824 0.00741 0.21824 0.007421 0.21824 0.007642 0.21824 0.008089 0.21824 0.008254 0.21824 0.009017 0.21824 0.009063 0.21824 0.009117 0.21824 0.009819 0.21824 0.010035 0.21824 0.010118 0.21824 0.010246 0.21824 0.010607 0.21824 0.010609 0.21824 0.012025 0.21824 0.012676 0.21824 0.012701 0.21824 0.012808 0.21824 0.012856 0.21824 0.012949 0.21824 0.012954 0.21824 0.012998 0.21824 0.013654 0.21824 0.013703 0.21824 0.013735 0.21824 0.013877 0.21824 0.013965 0.21824 0.014085 0.43649 0.028608 0.21824 0.014271 0.21824 0.014919 0.21824 0.015216 0.21824 0.015323 0.21824 0.015958 0.21824 0.016009 0.21824 0.015971 0.21824 0.015987 0.21824 0.016024 0.21824 0.015957 0.21824 0.017211 0.21824 0.017897 0.21824 0.017879 0.21824 0.01801 0.21824 0.018072 0.21824 0.018108 0.21824 0.018138 0.21824 0.018163 0.21824 0.018202 0.21824 0.019559 0.21824 0.01972 0.21824 0.020596 0.21824 0.020679 0.21824 0.021436 0.21824 0.023246 0.21824 0.023464 0.21824 0.023584 0.21824 0.023635 0.21824 0.023669 0.21824 0.024002 0.21824 0.024274 0.21824 0.024861 0.21824 0.024911 0.21824 0.024993 0.21824 0.025128 0.21824 0.025255 0.21824 0.025342 0.21824 0.025403 0.21824 0.025474 0.21824 0.025536 0.21824 0.025589 0.21824 0.025667 0.21824 0.025735 0.21824 0.026284 0.21824 0.026372 0.21824 0.025712 0.21824 0.026942 0.21824 0.027492 0.21824 0.027669 0.21824 0.028624 0.21824 0.028741 0.21824 0.029403 0.21824 0.030274 0.21824 0.031019 0.21824 0.031398 0.21824 0.031509 0.21824 0.031599 0.21824 0.031657 0.21824 0.031797 0.21824 0.03194 0.21824 0.032036 0.21824 0.03193 0.21824 0.033045 0.21824 0.033093 0.21824 0.033054 0.21824 0.033205 0.21824 0.033325 0.21824 0.03338 0.21824 0.03351 0.21824 0.033811 0.21824 0.034446 0.21824 0.034308 0.21824 0.03398 0.21824 0.034059 0.21824 0.034167 0.21824 0.033936 0.21824 0.034029 0.21824 0.034081 0.21824 0.034202 0.21824 0.034328 0.43649 0.069186 0.21824 0.034891 0.21824 0.035135 0.21824 0.035246 0.21824 0.036129 0.21824 0.036988 0.21824 0.036127 0.21824 0.036246 0.21824 0.037064 0.21824 0.037196 0.21824 0.03723 0.21824 0.037296 0.21824 0.037441 0.21824 0.037536 0.21824 0.037547 0.21824 0.037623 0.21824 0.036871 0.21824 0.036905 0.21824 0.036974 0.21824 0.037101 0.21824 0.03721 0.21824 0.037392 0.21824 0.038387 0.21824 0.038396 0.21824 0.038589 0.21824 0.039728 0.21824 0.039814 0.21824 0.039915 0.21824 0.039942 0.21824 0.04008 0.21824 0.040187 0.21824 0.039357 0.21824 0.038317 0.21824 0.039049 0.21824 0.039875 0.21824 0.04019 0.21824 0.040246 0.21824 0.040295 0.21824 0.040906 0.21824 0.040095 0.21824 0.040274 0.21824 0.040428 0.21824 0.040561 0.21824 0.040734 0.21824 0.040925 0.21824 0.041388 0.21824 0.04228 0.21824 0.042466 0.21824 0.042591 0.21824 0.041635 0.21824 0.041708 0.21824 0.041812 0.21824 0.04114 0.21824 0.040966 0.21824 0.041062 0.21824 0.041209 0.21824 0.04133 0.21824 0.041465 0.21824 0.042175 0.21824 0.04239 0.21824 0.042553 0.21824 0.042614 0.21824 0.042751 0.21824 0.042844 0.21824 0.042986 0.21824 0.043128 0.21824 0.042211 0.21824 0.042407 0.21824 0.042509 0.21824 0.04241 0.21824 0.042462 0.21824 0.042486 0.21824 0.042394 0.21824 0.042601 0.21824 0.042926 0.21824 0.04225 0.21824 0.042007 0.21824 0.042474 0.21824 0.041563 0.21824 0.041708 0.21824 0.041864 0.21824 0.04205 0.21824 0.042172 0.21824 0.042317 0.21824 0.040355 0.21824 0.039344 0.21824 0.039435 0.21824 0.040101 0.21824 0.040354 0.21824 0.040919 0.21824 0.04169 0.21824 0.041875 0.21824 0.043071 0.21824 0.041923 0.21824 0.042834 0.21824 0.043902 0.21824 0.044387 0.21824 0.045105 0.21824 0.045607 0.21824 0.045492 0.21824 0.045599 0.21824 0.045812 0.21824 0.045977 0.21824 0.045877 0.21824 0.046787 0.21824 0.046007 0.21824 0.046248 0.21824 0.046496 0.21824 0.046676 0.21824 0.04803 0.21824 0.048261 0.21824 0.048526 0.21824 0.048835 0.21824 0.049181 0.21824 0.049465 0.21824 0.049661 0.21824 0.049884 0.21824 0.049239 0.21824 0.049466 0.21824 0.049588 0.21824 0.047742 0.21824 0.047101 0.21824 0.04726 0.21824 0.045865 0.21824 0.047055 0.21824 0.047429 0.21824 0.046154 0.21824 0.045033 0.21824 0.044628 0.21824 0.044857 0.21824 0.044994 0.21824 0.045586 0.21824 0.046616 0.21824 0.046739 0.21824 0.046942 0.21824 0.047115 0.21824 0.045536 0.21824 0.045734 0.21824 0.046893 0.21824 0.048156 0.21824 0.049071 0.21824 0.051072 0.21824 0.052298 0.21824 0.05258 0.21824 0.051789 0.21824 0.052118 0.21824 0.052298 0.21824 0.052506 0.21824 0.052713 0.21824 0.052981 0.21824 0.053249 0.21824 0.053517 0.21824 0.05362 0.21824 0.053805 0.21824 0.052716 0.21824 0.053917 0.21824 0.053669 0.21824 0.053633 0.21824 0.054047 0.21824 0.053394 0.21824 0.053333 0.21824 0.05369 0.21824 0.054013 0.21824 0.053931 0.21824 0.054446 0.21824 0.054753 0.21824 0.054972 0.21824 0.05517 0.21824 0.05548 0.21824 0.055851 0.21824 0.056217 0.21824 0.05649 0.21824 0.056754 0.21824 0.056963 0.21824 0.057289 0.21824 0.057621 0.21824 0.057898 0.21824 0.056337 0.43649 0.11301 0.21824 0.054716 0.21824 0.054931 0.21824 0.055176 0.21824 0.055453 0.21824 0.055804 0.21824 0.056115 0.21824 0.056422 0.21824 0.056742 0.21824 0.055779 0.21824 0.054684 0.21824 0.054636 0.21824 0.054938 0.21824 0.056494 0.21824 0.05565 0.21824 0.055947 0.21824 0.056296 0.21824 0.05668 0.21824 0.05702 0.21824 0.058402 0.21824 0.060009 0.21824 0.059855 0.21824 0.0587 0.21824 0.059013 0.21824 0.059611 0.21824 0.060808 0.21824 0.061141 0.21824 0.061571 0.21824 0.06193 0.21824 0.062327 0.21824 0.064046 0.21824 0.064781 0.21824 0.06643 0.21824 0.066955 0.21824 0.065632 0.21824 0.064747 0.21824 0.065179 0.21824 0.065527 0.21824 0.065921 0.21824 0.066261 0.21824 0.066648 0.21824 0.066964 0.21824 0.067558 0.21824 0.067836 0.21824 0.070844 0.21824 0.071411 0.21824 0.071938 0.21824 0.072473 0.21824 0.072954 0.21824 0.073352 0.21824 0.073563 0.21824 0.073666 0.21824 0.074134 0.21824 0.073615 0.21824 0.074382 0.21824 0.075785 0.21824 0.07632 0.21824 0.076748 0.21824 0.077265 0.21824 0.077906 0.21824 0.078503 0.21824 0.079109 0.21824 0.079753 0.21824 0.080023 0.21824 0.081119 0.21824 0.083774 0.21824 0.083176 0.21824 0.083933 0.21824 0.083518 0.21824 0.082414 0.21824 0.081447 0.21824 0.081175 0.21824 0.08144 0.21824 0.080716 0.21824 0.080454 0.21824 0.081229 0.21824 0.082067 0.21824 0.082653 0.21824 0.083317 0.21824 0.083505 0.21824 0.084394 0.21824 0.084993 0.21824 0.085587 0.21824 0.086112 0.21824 0.086576 0.21824 0.084044 0.21824 0.084275 0.21824 0.084699 0.21824 0.085076 0.21824 0.085264 0.21824 0.085799 0.21824 0.086464 0.21824 0.08714 0.21824 0.08771 0.21824 0.088025 0.21824 0.088661 0.21824 0.089123 0.21824 0.089368 0.21824 0.089759 0.21824 0.09239 0.21824 0.090344 0.21824 0.087568 0.21824 0.088301 0.21824 0.089048 0.21824 0.089807 0.21824 0.090368 0.21824 0.091043 0.21824 0.09056 0.21824 0.088682 0.21824 0.089215 0.21824 0.089617 0.21824 0.087695 0.21824 0.087299 0.21824 0.087927 0.21824 0.085962 0.21824 0.083449 0.21824 0.082068 0.21824 0.077458 0.21824 0.07473 0.21824 0.073925 0.21824 0.074531 0.21824 0.074841 0.21824 0.075365 0.21824 0.075948 0.21824 0.076498 0.21824 0.076988 0.21824 0.077545 0.21824 0.078132 0.21824 0.078729 0.21824 0.079335 0.21824 0.079163 0.21824 0.076272 0.21824 0.073909 0.21824 0.074686 0.21824 0.078456 0.21824 0.078976 0.21824 0.076038 0.21824 0.075974 0.21824 0.076335 0.21824 0.073803 0.21824 0.074064 0.21824 0.07506 0.21824 0.079999 0.21824 0.080698 0.21824 0.081309 0.21824 0.081773 0.21824 0.082036 0.21824 0.08264 0.21824 0.083397 0.21824 0.084142 0.21824 0.084704 0.21824 0.085368 0.21824 0.085875 0.21824 0.086486 0.21824 0.086979 0.21824 0.087708 0.21824 0.088449 0.21824 0.089204 0.21824 0.089971 0.21824 0.090742 0.21824 0.091309 0.21824 0.092012 0.21824 0.093305 0.21824 0.094166 0.21824 0.094845 0.21824 0.095459 0.21824 0.095936 0.21824 0.096663 0.21824 0.094721 0.21824 0.096055 0.21824 0.096819 0.21824 0.097072 0.21824 0.097408 0.21824 0.098138 0.21824 0.095353 0.21824 0.091676 0.21824 0.092035 0.21824 0.092772 0.21824 0.093434 0.21824 0.09322 0.21824 0.090793 0.21824 0.091392 0.21824 0.091695 0.21824 0.09245 0.21824 0.093393 0.21824 0.089575 0.21824 0.089146 0.21824 0.08556 0.21824 0.085832 0.21824 0.086045 0.21824 0.083539 0.21824 0.084049 0.21824 0.084722 0.21824 0.085405 0.21824 0.0861 0.21824 0.086795 0.21824 0.08742 0.21824 0.088068 0.21824 0.088747 0.21824 0.080363 0.21824 0.080702 0.21824 0.081218 0.21824 0.081491 0.21824 0.08195 0.21824 0.082542 0.21824 0.083173 0.21824 0.083815 0.21824 0.084175 0.21824 0.084724 0.21824 0.084547 0.21824 0.082107 0.21824 0.082755 0.21824 0.083414 0.21824 0.084077 0.21824 0.084236 0.21824 0.084884 0.21824 0.085542 0.21824 0.086023 0.21824 0.081852 0.21824 0.079537 0.21824 0.069382 0.21824 0.069211 0.21824 0.069105 0.21824 0.064654 0.21824 0.063537 0.21824 0.070582 0.21824 0.066405 0.21824 0.065303 0.21824 0.065586 0.21824 0.06579 0.21824 0.065586 0.21824 0.065032 0.21824 0.065517 0.21824 0.065967 0.21824 0.065914 0.21824 0.055562 0.21824 0.055713 0.21824 0.055887 0.21824 0.05611 0.21824 0.056333 0.21824 0.0566 0.21824 0.056907 0.21824 0.057218 0.21824 0.057532 0.21824 0.057949 0.21824 0.058372 0.21824 0.058754 0.21824 0.059098 0.21824 0.059445 0.21824 0.059776 0.21824 0.06011 0.21824 0.060446 0.21824 0.060788 0.21824 0.061133 0.21824 0.054892 0.21824 0.054866 0.21824 0.054929 0.21824 0.055256 0.21824 0.055589 0.21824 0.055944 0.21824 0.056313 0.21824 0.056687 0.21824 0.057067 0.21824 0.057569 0.21824 0.058038 0.21824 0.058437 0.21824 0.058839 0.21824 0.059107 0.21824 0.059331 0.21824 0.059589 0.21824 0.05985 0.21824 0.060125 0.21824 0.060432 0.21824 0.060741 0.21824 0.063247 0.21824 0.063737 0.21824 0.06404 0.21824 0.064282 0.21824 0.065102 0.21824 0.074119 0.21824 0.074954 0.21824 0.075653 0.21824 0.076262 0.21824 0.076766 0.21824 0.077279 0.21824 0.077798 0.21824 0.078325 0.21824 0.077216 0.21824 0.076544 0.21824 0.065459 0.21824 0.065422 0.21824 0.065759 0.21824 0.066099 0.21824 0.066444 0.21824 0.066502 0.21824 0.065415 0.21824 0.063867 0.21824 0.050483 0.21824 0.05042 0.21824 0.050574 0.21824 0.050649 0.21824 0.05057 0.21824 0.050555 0.21824 0.05047 0.21824 0.055345 0.21824 0.060439 0.21824 0.060674 0.21824 0.060912 0.21824 0.061225 0.21824 0.061569 0.21824 0.061919 0.21824 0.062271 0.21824 0.062629 0.21824 0.06299 0.21824 0.063355 0.21824 0.063727 0.21824 0.0641 0.21824 0.062703 0.21824 0.062642 0.21824 0.062787 0.21824 0.063066 0.21824 0.063326 0.21824 0.063586 0.21824 0.059816 0.21824 0.058394 0.21824 0.058698 0.21824 0.059005 0.21824 0.059315 0.21824 0.059629 0.21824 0.059945 0.21824 0.060267 0.21824 0.06059 0.21824 0.060919 0.21824 0.061249 0.21824 0.061586 0.21824 0.061924 0.21824 0.062268 0.21824 0.062402 0.21824 0.062476 0.21824 0.062061 0.21824 0.0621 0.21824 0.06234 0.21824 0.062593 0.21824 0.062849 0.21824 0.063106 0.21824 0.062828 0.21824 0.063147 0.21824 0.063469 0.21824 0.063793 0.21824 0.064123 0.21824 0.064454 0.21824 0.064791 0.21824 0.065131 0.21824 0.065456 0.21824 0.065781 0.21824 0.06611 0.21824 0.066444 0.21824 0.06678 0.21824 0.067122 0.21824 0.067438 0.21824 0.067757 0.21824 0.068079 0.21824 0.068405 0.21824 0.068733 0.21824 0.069064 0.21824 0.069397 0.21824 0.069736 0.21824 0.070076 0.21824 0.070439 0.21824 0.070821 0.21824 0.071206 0.21824 0.072313 0.21824 0.072892 0.21824 0.07348 0.21824 0.074023 0.21824 0.074511 0.21824 0.074886 0.21824 0.07521 0.21824 0.075239 0.21824 0.074345 0.21824 0.054153 0.21824 0.054375 0.21824 0.054596 0.21824 0.054822 0.21824 0.055047 0.21824 0.055277 0.21824 0.055507 0.21824 0.055367 0.21824 0.055326 0.21824 0.055597 0.21824 0.055869 0.21824 0.056146 0.21824 0.056425 0.21824 0.056754 0.21824 0.057086 0.21824 0.057423 0.21824 0.057763 0.21824 0.058107 0.21824 0.058452 0.21824 0.058548 0.21824 0.058642 0.21824 0.058956 0.21824 0.059546 0.21824 0.060225 0.21824 0.061373 0.21824 0.061801 0.21824 0.062234 0.21824 0.062673 0.21824 0.063117 0.21824 0.063429 0.21824 0.063714 0.21824 0.064002 0.21824 0.064293 0.21824 0.064587 0.21824 0.064829 0.21824 0.065053 0.21824 0.065276 0.21824 0.065496 0.21824 0.065411 0.21824 0.065429 0.21824 0.065637 0.21824 0.065847 0.21824 0.066057 0.21824 0.066572 0.21824 0.086772 0.21824 0.088149 0.21824 0.088894 0.21824 0.089649 0.21824 0.09042 0.21824 0.085389 0.21824 0.084639 0.21824 0.085104 0.21824 0.085657 0.21824 0.085047 0.21824 0.062876 0.21824 0.06247 0.21824 0.062301 0.21824 0.062402 0.21824 0.062805 0.21824 0.063214 0.21824 0.063627 0.21824 0.064046 0.21824 0.064471 0.21824 0.064901 0.21824 0.065336 0.21824 0.065777 0.21824 0.069404 0.21824 0.074683v41.462h-402.65z" stroke="#0766aa" stroke-opacity=".2"/>
</defs>
<g clip-path="url(#k)">
<use y="413.19625" fill="#0766aa" fill-opacity=".2" stroke="#0766aa" stroke-opacity=".2" xlink:href="#ae"/>
</g>
<path d="m46.966 170.63v-141.83" clip-path="url(#k)" fill="none" stroke="#b0b0b0" stroke-linecap="square" stroke-width=".8"/>
<defs>
<path id="g" d="m0 0v3.5" stroke="#000" stroke-width=".8"/>
</defs>
<use x="46.965625" y="170.627393" stroke="#000000" stroke-width=".8" xlink:href="#g"/>
<path d="m179.95 170.63v-141.83" clip-path="url(#k)" fill="none" stroke="#b0b0b0" stroke-linecap="square" stroke-width=".8"/>
<use x="179.94585" y="170.627393" stroke="#000000" stroke-width=".8" xlink:href="#g"/>
<path d="m312.93 170.63v-141.83" clip-path="url(#k)" fill="none" stroke="#b0b0b0" stroke-linecap="square" stroke-width=".8"/>
<use x="312.926076" y="170.627393" stroke="#000000" stroke-width=".8" xlink:href="#g"/>
<path d="m445.91 170.63v-141.83" clip-path="url(#k)" fill="none" stroke="#b0b0b0" stroke-linecap="square" stroke-width=".8"/>
<use x="445.906301" y="170.627393" stroke="#000000" stroke-width=".8" xlink:href="#g"/>
<defs>
<path id="c" d="m0 0h-3.5" stroke="#000" stroke-width=".8"/>
</defs>
<use x="46.965625" y="154.105211" stroke="#000000" stroke-width=".8" xlink:href="#c"/>
<defs>
<path id="f" d="m12.406 8.2969h16.109v55.625l-17.531-3.5156v8.9844l17.438 3.5156h9.8594v-64.609h16.109v-8.2969h-41.984z"/>
<path id="b" d="m31.781 66.406q-7.6094 0-11.453-7.5-3.8281-7.4844-3.8281-22.531 0-14.984 3.8281-22.484 3.8438-7.5 11.453-7.5 7.6719 0 11.5 7.5 3.8438 7.5 3.8438 22.484 0 15.047-3.8438 22.531-3.8281 7.5-11.5 7.5zm0 7.8125q12.266 0 18.734-9.7031 6.4688-9.6875 6.4688-28.141 0-18.406-6.4688-28.109-6.4688-9.6875-18.734-9.6875-12.25 0-18.719 9.6875-6.4688 9.7031-6.4688 28.109 0 18.453 6.4688 28.141 6.4688 9.7031 18.719 9.7031z"/>
</defs>
<g transform="translate(22.366 157.9) scale(.1 -.1)">
<use transform="translate(0 .68438)" xlink:href="#f"/>
<use transform="translate(63.623 .68438)" xlink:href="#b"/>
<use transform="translate(128.2 38.966) scale(.7)" xlink:href="#f"/>
</g>
<use x="46.965625" y="130.467312" stroke="#000000" stroke-width=".8" xlink:href="#c"/>
<defs>
<path id="o" d="m19.188 8.2969h34.422v-8.2969h-46.281v8.2969q5.6094 5.8125 15.297 15.594 9.7031 9.7969 12.188 12.641 4.7344 5.3125 6.6094 9 1.8906 3.6875 1.8906 7.25 0 5.8125-4.0781 9.4688-4.0781 3.6719-10.625 3.6719-4.6406 0-9.7969-1.6094-5.1406-1.6094-11-4.8906v9.9688q5.9531 2.3906 11.125 3.6094 5.1875 1.2188 9.4844 1.2188 11.328 0 18.062-5.6719 6.7344-5.6562 6.7344-15.125 0-4.5-1.6875-8.5312-1.6719-4.0156-6.125-9.4844-1.2188-1.4219-7.7656-8.1875-6.5312-6.7656-18.453-18.922z"/>
</defs>
<g transform="translate(22.366 134.27) scale(.1 -.1)">
<use transform="translate(0 .76562)" xlink:href="#f"/>
<use transform="translate(63.623 .76562)" xlink:href="#b"/>
<use transform="translate(128.2 39.047) scale(.7)" xlink:href="#o"/>
</g>
<use x="46.965625" y="106.829413" stroke="#000000" stroke-width=".8" xlink:href="#c"/>
<defs>
<path id="s" d="m40.578 39.312q7.0781-1.5156 11.047-6.3125 3.9844-4.7812 3.9844-11.812 0-10.781-7.4219-16.703-7.4219-5.9062-21.094-5.9062-4.5781 0-9.4375 0.90625t-10.031 2.7188v9.5156q4.0938-2.3906 8.9688-3.6094 4.8906-1.2188 10.219-1.2188 9.2656 0 14.125 3.6562t4.8594 10.641q0 6.4531-4.5156 10.078-4.5156 3.6406-12.562 3.6406h-8.5v8.1094h8.8906q7.2656 0 11.125 2.9062t3.8594 8.375q0 5.6094-3.9844 8.6094-3.9688 3.0156-11.391 3.0156-4.0625 0-8.7031-0.89062-4.6406-0.875-10.203-2.7188v8.7812q5.625 1.5625 10.531 2.3438t9.25 0.78125q11.234 0 17.766-5.1094 6.5469-5.0938 6.5469-13.781 0-6.0625-3.4688-10.234t-9.8594-5.7812z"/>
</defs>
<g transform="translate(22.366 110.63) scale(.1 -.1)">
<use transform="translate(0 .76562)" xlink:href="#f"/>
<use transform="translate(63.623 .76562)" xlink:href="#b"/>
<use transform="translate(128.2 39.047) scale(.7)" xlink:href="#s"/>
</g>
<use x="46.965625" y="83.191514" stroke="#000000" stroke-width=".8" xlink:href="#c"/>
<defs>
<path id="ac" d="m37.797 64.312-24.906-38.922h24.906zm-2.5938 8.5938h12.406v-47.516h10.406v-8.2031h-10.406v-17.188h-9.8125v17.188h-32.906v9.5156z"/>
</defs>
<g transform="translate(22.366 86.991) scale(.1 -.1)">
<use transform="translate(0 .68438)" xlink:href="#f"/>
<use transform="translate(63.623 .68438)" xlink:href="#b"/>
<use transform="translate(128.2 38.966) scale(.7)" xlink:href="#ac"/>
</g>
<use x="46.965625" y="59.553615" stroke="#000000" stroke-width=".8" xlink:href="#c"/>
<defs>
<path id="ar" d="m10.797 72.906h38.719v-8.3125h-29.688v-17.859q2.1406 0.73438 4.2812 1.0938 2.1562 0.35938 4.3125 0.35938 12.203 0 19.328-6.6875 7.1406-6.6875 7.1406-18.109 0-11.766-7.3281-18.297-7.3281-6.5156-20.656-6.5156-4.5938 0-9.3594 0.78125-4.75 0.78125-9.8281 2.3438v9.9219q4.3906-2.3906 9.0781-3.5625t9.9062-1.1719q8.4531 0 13.375 4.4375 4.9375 4.4375 4.9375 12.062 0 7.6094-4.9375 12.047-4.9219 4.4531-13.375 4.4531-3.9531 0-7.8906-0.875-3.9219-0.875-8.0156-2.7344z"/>
</defs>
<g transform="translate(22.366 63.353) scale(.1 -.1)">
<use transform="translate(0 .68438)" xlink:href="#f"/>
<use transform="translate(63.623 .68438)" xlink:href="#b"/>
<use transform="translate(128.2 38.966) scale(.7)" xlink:href="#ar"/>
</g>
<use x="46.965625" y="35.915717" stroke="#000000" stroke-width=".8" xlink:href="#c"/>
<defs>
<path id="ab" d="m33.016 40.375q-6.6406 0-10.531-4.5469-3.875-4.5312-3.875-12.438 0-7.8594 3.875-12.438 3.8906-4.5625 10.531-4.5625t10.516 4.5625q3.875 4.5781 3.875 12.438 0 7.9062-3.875 12.438-3.875 4.5469-10.516 4.5469zm19.578 30.922v-8.9844q-3.7188 1.75-7.5 2.6719-3.7812 0.9375-7.5 0.9375-9.7656 0-14.922-6.5938-5.1406-6.5938-5.875-19.922 2.875 4.25 7.2188 6.5156 4.3594 2.2656 9.5781 2.2656 10.984 0 17.359-6.6719 6.375-6.6562 6.375-18.125 0-11.234-6.6406-18.031-6.6406-6.7812-17.672-6.7812-12.656 0-19.344 9.6875-6.6875 9.7031-6.6875 28.109 0 17.281 8.2031 27.562t22.016 10.281q3.7188 0 7.5-0.73438t7.8906-2.1875z"/>
</defs>
<g transform="translate(22.366 39.715) scale(.1 -.1)">
<use transform="translate(0 .76562)" xlink:href="#f"/>
<use transform="translate(63.623 .76562)" xlink:href="#b"/>
<use transform="translate(128.2 39.047) scale(.7)" xlink:href="#ab"/>
</g>
<defs>
<path id="a" d="m0 0h-2" stroke="#000" stroke-width=".6"/>
</defs>
<use x="46.965625" y="170.627393" stroke="#000000" stroke-width=".6" xlink:href="#a"/>
<use x="46.965625" y="166.464966" stroke="#000000" stroke-width=".6" xlink:href="#a"/>
<use x="46.965625" y="163.511677" stroke="#000000" stroke-width=".6" xlink:href="#a"/>
<use x="46.965625" y="161.220927" stroke="#000000" stroke-width=".6" xlink:href="#a"/>
<use x="46.965625" y="159.349249" stroke="#000000" stroke-width=".6" xlink:href="#a"/>
<use x="46.965625" y="157.766768" stroke="#000000" stroke-width=".6" xlink:href="#a"/>
<use x="46.965625" y="156.39596" stroke="#000000" stroke-width=".6" xlink:href="#a"/>
<use x="46.965625" y="155.186822" stroke="#000000" stroke-width=".6" xlink:href="#a"/>
<use x="46.965625" y="146.989494" stroke="#000000" stroke-width=".6" xlink:href="#a"/>
<use x="46.965625" y="142.827067" stroke="#000000" stroke-width=".6" xlink:href="#a"/>
<use x="46.965625" y="139.873778" stroke="#000000" stroke-width=".6" xlink:href="#a"/>
<use x="46.965625" y="137.583029" stroke="#000000" stroke-width=".6" xlink:href="#a"/>
<use x="46.965625" y="135.71135" stroke="#000000" stroke-width=".6" xlink:href="#a"/>
<use x="46.965625" y="134.128869" stroke="#000000" stroke-width=".6" xlink:href="#a"/>
<use x="46.965625" y="132.758061" stroke="#000000" stroke-width=".6" xlink:href="#a"/>
<use x="46.965625" y="131.548923" stroke="#000000" stroke-width=".6" xlink:href="#a"/>
<use x="46.965625" y="123.351595" stroke="#000000" stroke-width=".6" xlink:href="#a"/>
<use x="46.965625" y="119.189168" stroke="#000000" stroke-width=".6" xlink:href="#a"/>
<use x="46.965625" y="116.235879" stroke="#000000" stroke-width=".6" xlink:href="#a"/>
<use x="46.965625" y="113.94513" stroke="#000000" stroke-width=".6" xlink:href="#a"/>
<use x="46.965625" y="112.073451" stroke="#000000" stroke-width=".6" xlink:href="#a"/>
<use x="46.965625" y="110.49097" stroke="#000000" stroke-width=".6" xlink:href="#a"/>
<use x="46.965625" y="109.120162" stroke="#000000" stroke-width=".6" xlink:href="#a"/>
<use x="46.965625" y="107.911024" stroke="#000000" stroke-width=".6" xlink:href="#a"/>
<use x="46.965625" y="99.713697" stroke="#000000" stroke-width=".6" xlink:href="#a"/>
<use x="46.965625" y="95.551269" stroke="#000000" stroke-width=".6" xlink:href="#a"/>
<use x="46.965625" y="92.59798" stroke="#000000" stroke-width=".6" xlink:href="#a"/>
<use x="46.965625" y="90.307231" stroke="#000000" stroke-width=".6" xlink:href="#a"/>
<use x="46.965625" y="88.435553" stroke="#000000" stroke-width=".6" xlink:href="#a"/>
<use x="46.965625" y="86.853071" stroke="#000000" stroke-width=".6" xlink:href="#a"/>
<use x="46.965625" y="85.482263" stroke="#000000" stroke-width=".6" xlink:href="#a"/>
<use x="46.965625" y="84.273125" stroke="#000000" stroke-width=".6" xlink:href="#a"/>
<use x="46.965625" y="76.075798" stroke="#000000" stroke-width=".6" xlink:href="#a"/>
<use x="46.965625" y="71.91337" stroke="#000000" stroke-width=".6" xlink:href="#a"/>
<use x="46.965625" y="68.960081" stroke="#000000" stroke-width=".6" xlink:href="#a"/>
<use x="46.965625" y="66.669332" stroke="#000000" stroke-width=".6" xlink:href="#a"/>
<use x="46.965625" y="64.797654" stroke="#000000" stroke-width=".6" xlink:href="#a"/>
<use x="46.965625" y="63.215172" stroke="#000000" stroke-width=".6" xlink:href="#a"/>
<use x="46.965625" y="61.844365" stroke="#000000" stroke-width=".6" xlink:href="#a"/>
<use x="46.965625" y="60.635226" stroke="#000000" stroke-width=".6" xlink:href="#a"/>
<use x="46.965625" y="52.437899" stroke="#000000" stroke-width=".6" xlink:href="#a"/>
<use x="46.965625" y="48.275471" stroke="#000000" stroke-width=".6" xlink:href="#a"/>
<use x="46.965625" y="45.322182" stroke="#000000" stroke-width=".6" xlink:href="#a"/>
<use x="46.965625" y="43.031433" stroke="#000000" stroke-width=".6" xlink:href="#a"/>
<use x="46.965625" y="41.159755" stroke="#000000" stroke-width=".6" xlink:href="#a"/>
<use x="46.965625" y="39.577273" stroke="#000000" stroke-width=".6" xlink:href="#a"/>
<use x="46.965625" y="38.206466" stroke="#000000" stroke-width=".6" xlink:href="#a"/>
<use x="46.965625" y="36.997328" stroke="#000000" stroke-width=".6" xlink:href="#a"/>
<use x="46.965625" y="28.8" stroke="#000000" stroke-width=".6" xlink:href="#a"/>
<path d="m63.983 161.82 7.6385-0.37592 12.658-0.84969 0.65473-0.38157 0.87298-0.79622 1.5277-1.4276 1.5277-1.1265 1.746-1.0108 1.9642-0.86284 2.1824-0.69507 2.1824-0.47222 2.4007-0.29557 2.4007-0.080024 2.4007 0.12997 2.4007 0.34763 2.1824 0.52352 2.1824 0.75299 1.9642 0.92527 1.746 1.0871 1.5277 1.2174 1.5277 1.538 0.87298 0.7361 0.65473 0.3146 0.87298 0.11059 6.9838 0.6296 12.44 1.1571 4.1466 0.15972 1.3095-0.18889 1.5277-0.49893 1.746-0.83504 2.4007-1.4311 1.5277-1.0471 0.65473-0.76177 1.746-2.2883 1.5277-1.5408 1.5277-1.23 1.746-1.1205 1.9642-0.97734 1.9642-0.73479 2.1824-0.57579 2.1824-0.34946 1.3095-0.20841 1.3095-0.56261 2.1824-1.1666 1.0912-0.97876 2.8372-2.8859 1.746-1.352 4.1466-2.8026 1.9642-0.9807 2.4007-0.89929 2.8372-1.2043 1.3095-0.76715 3.2737-1.9086 1.9642-0.97134 2.1824-0.76574 2.1824-0.59268 3.0554-0.5037 8.2933-1.2364 4.8014-1.4365 1.746-0.28452 1.9642-0.11284 1.746 0.14005 5.2378 0.43726 2.1824 0.015851 1.0912-0.21189 2.8372-0.96409 2.1824-0.82157 2.6189-1.0316 5.4561-2.039 1.746-0.59639 7.202-2.9167 7.6385-2.8778 1.0912-0.423 7.8568-3.2374 2.6189-0.7766 3.4919-0.732 4.1466-0.87119 2.4007-0.84682 2.4007-0.66298 7.8568-1.8008 3.0554-0.83514 2.4007-0.85746 3.2737-1.5471 3.0554-1.3088 1.9642-0.62366 7.4203-1.8523 4.1466-1.1757 3.9284-0.76298 3.9284-0.33384 3.7101 0.033957 3.9284 0.30025 3.2737 0.1507 2.1824 0.34896 1.9642 0.52089 12.876 4.2075 3.2737 0.28731 2.8372 0.34251 1.9642-0.004218 1.746 0.12639 2.8372 0.26744 6.5473 0.46338 2.8372 0.4767 6.1108 1.4727 2.8372 1.1093 3.9284 1.7101 2.1824 0.72528 2.4007 1.1201 1.0912 0.44388 2.6189 1.0078 3.9284 1.9934 1.9642 1.3292 1.3095 1.1907 0.87298 0.76281 3.4919 3.0444 1.746 1.7134 1.746 1.7988 1.3095 0.92629 1.9642 1.2456 1.5277 1.1855 1.0912 0.84457 1.5277 0.84199 1.5277 0.62508 1.5277 0.76094 1.5277 1.0222 1.3095 0.90305 1.9642 0.62936 1.746 0.5328 5.2378 1.9063 1.746 0.32317 2.6189 0.30729 1.5277 0.14741 1.9642 0.31829 2.6189 0.6976 4.1466 1.2196 1.9642 0.87546 1.746 0.78193 1.9642 0.97806 1.746 1.1042 1.5277 1.2105 1.3095 1.2951 1.0912 1.1184 0.65473 0.39283 2.6189 0.6999 0.65473 0.08433 2.4007-0.38268 0.65473-0.094678v0" clip-path="url(#k)" fill="none" stroke="#dc143c" stroke-linecap="square" stroke-width="1.5"/>
<path d="m46.966 170.63v-141.83" fill="none" stroke="#000" stroke-linecap="square" stroke-width=".8"/>
<path d="m486.78 170.63v-141.83" fill="none" stroke="#000" stroke-linecap="square" stroke-width=".8"/>
<path d="m46.966 170.63h439.81" fill="none" stroke="#000" stroke-linecap="square" stroke-width=".8"/>
<path d="m46.966 28.8h439.81" fill="none" stroke="#000" stroke-linecap="square" stroke-width=".8"/>
<path d="m324.74 66.156h155.04q2 0 2-2v-28.356q0-2-2-2h-155.04q-2 0-2 2v28.356q0 2 2 2z" fill="#fff" opacity=".8" stroke="#ccc"/>
<path d="m326.74 41.898h20" fill="none" stroke="#dc143c" stroke-linecap="square" stroke-width="1.5"/>
<defs>
<path id="h" d="m41.109 46.297q-1.5156 0.875-3.2969 1.2812-1.7812 0.42188-3.9219 0.42188-7.625 0-11.703-4.9531t-4.0781-14.234v-28.812h-9.0312v54.688h9.0312v-8.5q2.8438 4.9844 7.375 7.3906 4.5469 2.4219 11.047 2.4219 0.92188 0 2.0469-0.125 1.125-0.10938 2.4844-0.35938z"/>
<path id="i" d="m34.281 27.484q-10.891 0-15.094-2.4844t-4.2031-8.5q0-4.7812 3.1562-7.5938 3.1562-2.7969 8.5625-2.7969 7.4844 0 12 5.2969t4.5156 14.078v2zm17.922 3.7188v-31.203h-8.9844v8.2969q-3.0781-4.9688-7.6719-7.3438t-11.234-2.375q-8.3906 0-13.359 4.7188-4.9531 4.7188-4.9531 12.625 0 9.2188 6.1719 13.906 6.1875 4.6875 18.438 4.6875h12.609v0.89062q0 6.2031-4.0781 9.5938t-11.453 3.3906q-4.6875 0-9.1406-1.125-4.4375-1.125-8.5312-3.375v8.3125q4.9219 1.9062 9.5625 2.8438 4.6406 0.95312 9.0312 0.95312 11.875 0 17.734-6.1562 5.8594-6.1406 5.8594-18.641z"/>
<path id="q" d="m18.312 70.219v-15.531h18.5v-6.9844h-18.5v-29.688q0-6.6875 1.8281-8.5938t7.4531-1.9062h9.2188v-7.5156h-9.2188q-10.406 0-14.359 3.875-3.9531 3.8906-3.9531 14.141v29.688h-6.5938v6.9844h6.5938v15.531z"/>
<path id="d" d="m56.203 29.594v-4.3906h-41.312q0.59375-9.2812 5.5938-14.141t13.938-4.8594q5.1719 0 10.031 1.2656t9.6562 3.8125v-8.5q-4.8438-2.0469-9.9219-3.125t-10.297-1.0781q-13.094 0-20.734 7.6094-7.6406 7.625-7.6406 20.625 0 13.422 7.25 21.297 7.25 7.8906 19.562 7.8906 11.031 0 17.453-7.1094 6.4219-7.0938 6.4219-19.297zm-8.9844 2.6406q-0.09375 7.3594-4.125 11.75-4.0312 4.4062-10.672 4.4062-7.5156 0-12.031-4.25t-5.2031-11.969z"/>
<path id="l" d="m30.609 48.391q-7.2188 0-11.422-5.6406t-4.2031-15.453 4.1719-15.453q4.1875-5.6406 11.453-5.6406 7.1875 0 11.375 5.6562 4.2031 5.6719 4.2031 15.438 0 9.7188-4.2031 15.406-4.1875 5.6875-11.375 5.6875zm0 7.6094q11.719 0 18.406-7.625 6.7031-7.6094 6.7031-21.078 0-13.422-6.7031-21.078-6.6875-7.6406-18.406-7.6406-11.766 0-18.438 7.6406-6.6562 7.6562-6.6562 21.078 0 13.469 6.6562 21.078 6.6719 7.625 18.438 7.625z"/>
<path id="y" d="m37.109 75.984v-7.4844h-8.5938q-4.8281 0-6.7188-1.9531-1.875-1.9531-1.875-7.0312v-4.8281h14.797v-6.9844h-14.797v-47.703h-9.0312v47.703h-8.5938v6.9844h8.5938v3.8125q0 9.125 4.25 13.297 4.25 4.1875 13.469 4.1875z"/>
<path id="m" d="m9.4219 54.688h8.9844v-54.688h-8.9844zm0 21.297h8.9844v-11.391h-8.9844z"/>
<path id="r" d="m9.4219 75.984h8.9844v-75.984h-8.9844z"/>
<path id="v" d="m8.5 21.578v33.109h8.9844v-32.766q0-7.7656 3.0156-11.656 3.0312-3.875 9.0938-3.875 7.2656 0 11.484 4.6406 4.2344 4.6406 4.2344 12.656v31h8.9844v-54.688h-8.9844v8.4062q-3.2656-4.9844-7.5938-7.4062-4.3125-2.4219-10.031-2.4219-9.4219 0-14.312 5.8594-4.875 5.8594-4.875 17.141zm22.609 34.422z"/>
<path id="j" d="m44.281 53.078v-8.5q-3.7969 1.9531-7.9062 2.9219-4.0938 0.98438-8.5 0.98438-6.6875 0-10.031-2.0469t-3.3438-6.1562q0-3.125 2.3906-4.9062t9.625-3.3906l3.0781-0.6875q9.5625-2.0469 13.594-5.7812t4.0312-10.422q0-7.625-6.0312-12.078-6.0312-4.4375-16.578-4.4375-4.3906 0-9.1562 0.85938t-10.031 2.5625v9.2812q4.9844-2.5938 9.8125-3.8906 4.8281-1.2812 9.5781-1.2812 6.3438 0 9.75 2.1719 3.4219 2.1719 3.4219 6.125 0 3.6562-2.4688 5.6094-2.4531 1.9531-10.812 3.7656l-3.125 0.73438q-8.3438 1.75-12.062 5.3906-3.7031 3.6406-3.7031 9.9844 0 7.7188 5.4688 11.906 5.4688 4.2031 15.531 4.2031 4.9688 0 9.3594-0.73438 4.4062-0.71875 8.1094-2.1875z"/>
<path id="u" d="m31 75.875q-6.5312-11.219-9.7188-22.219-3.1719-10.984-3.1719-22.266 0-11.266 3.2031-22.328t9.6875-22.25h-7.8125q-7.3125 11.484-10.953 22.562t-3.6406 22.016q0 10.891 3.6094 21.922 3.625 11.047 10.984 22.562z"/>
<path id="n" d="m45.406 46.391v29.594h8.9844v-75.984h-8.9844v8.2031q-2.8281-4.875-7.1562-7.25-4.3125-2.375-10.375-2.375-9.9062 0-16.141 7.9062-6.2188 7.9219-6.2188 20.812t6.2188 20.797q6.2344 7.9062 16.141 7.9062 6.0625 0 10.375-2.375 4.3281-2.3594 7.1562-7.2344zm-30.609-19.094q0-9.9062 4.0781-15.547t11.203-5.6406 11.219 5.6406q4.1094 5.6406 4.1094 15.547t-4.1094 15.547q-4.0938 5.6406-11.219 5.6406t-11.203-5.6406-4.0781-15.547z"/>
<path id="w" d="m9.0781 75.984h9.0312v-44.875l26.812 23.578h11.469l-29-25.578 30.234-29.109h-11.719l-27.797 26.703v-26.703h-9.0312z"/>
<path id="ad" d="m25.391 72.906h8.2969l-25.391-82.188h-8.2969z"/>
<path id="p" d="m32.172-5.0781q-3.7969-9.7656-7.4219-12.734-3.6094-2.9844-9.6562-2.9844h-7.1875v7.5156h5.2812q3.7031 0 5.75 1.7656 2.0625 1.75 4.5469 8.2969l1.6094 4.0938-22.109 53.812h9.5156l17.094-42.766 17.094 42.766h9.5156z"/>
<path id="t" d="m8.0156 75.875h7.8125q7.3125-11.516 10.953-22.562 3.6406-11.031 3.6406-21.922 0-10.938-3.6406-22.016t-10.953-22.562h-7.8125q6.4844 11.188 9.6875 22.25t3.2031 22.328q0 11.281-3.2031 22.266-3.2031 11-9.6875 22.219z"/>
</defs>
<g transform="translate(354.74 45.398) scale(.1 -.1)">
<use xlink:href="#h"/>
<use x="41.113281" xlink:href="#i"/>
<use x="102.392578" xlink:href="#q"/>
<use x="141.601562" xlink:href="#d"/>
<use x="203.125" xlink:href="#DejaVuSans-20"/>
<use x="234.912109" xlink:href="#l"/>
<use x="296.09375" xlink:href="#y"/>
<use x="331.298828" xlink:href="#DejaVuSans-20"/>
<use x="363.085938" xlink:href="#y"/>
<use x="398.291016" xlink:href="#i"/>
<use x="459.570312" xlink:href="#m"/>
<use x="487.353516" xlink:href="#r"/>
<use x="515.136719" xlink:href="#v"/>
<use x="578.515625" xlink:href="#h"/>
<use x="619.597656" xlink:href="#d"/>
<use x="681.121094" xlink:href="#j"/>
<use x="733.220703" xlink:href="#DejaVuSans-20"/>
<use x="765.007812" xlink:href="#u"/>
<use x="804.021484" xlink:href="#n"/>
<use x="867.498047" xlink:href="#m"/>
<use x="895.28125" xlink:href="#j"/>
<use x="947.380859" xlink:href="#w"/>
<use x="1005.291016" xlink:href="#j"/>
<use x="1057.390625" xlink:href="#ad"/>
<use x="1091.082031" xlink:href="#p"/>
<use x="1150.261719" xlink:href="#h"/>
<use x="1191.375" xlink:href="#t"/>
</g>
<path d="m326.74 60.077h20v-7h-20z" fill="#0766aa" fill-opacity=".2" stroke="#0766aa" stroke-opacity=".2"/>
<defs>
<path id="aj" d="m48.688 27.297q0 9.9062-4.0781 15.547t-11.203 5.6406q-7.1406 0-11.219-5.6406t-4.0781-15.547 4.0781-15.547 11.219-5.6406q7.125 0 11.203 5.6406t4.0781 15.547zm-30.578 19.094q2.8438 4.875 7.1562 7.2344 4.3281 2.375 10.328 2.375 9.9688 0 16.188-7.9062 6.2344-7.9062 6.2344-20.797t-6.2344-20.812q-6.2188-7.9062-16.188-7.9062-6 0-10.328 2.375-4.3125 2.375-7.1562 7.25v-8.2031h-9.0312v75.984h9.0312z"/>
<path id="ag" d="m2.9844 54.688h9.5156l17.094-45.891 17.094 45.891h9.5156l-20.516-54.688h-12.203z"/>
</defs>
<g transform="translate(354.74 60.077) scale(.1 -.1)">
<use xlink:href="#n"/>
<use x="63.476562" xlink:href="#m"/>
<use x="91.259766" xlink:href="#j"/>
<use x="143.359375" xlink:href="#w"/>
<use x="201.269531" xlink:href="#j"/>
<use x="253.369141" xlink:href="#DejaVuSans-20"/>
<use x="285.15625" xlink:href="#l"/>
<use x="346.337891" xlink:href="#aj"/>
<use x="409.814453" xlink:href="#j"/>
<use x="461.914062" xlink:href="#d"/>
<use x="523.4375" xlink:href="#h"/>
<use x="564.550781" xlink:href="#ag"/>
<use x="623.730469" xlink:href="#d"/>
<use x="685.253906" xlink:href="#n"/>
</g>
<path d="m46.966 375.64h439.81v-189.1h-439.81z" fill="#fff"/>
<path d="m46.966 375.64v-189.1" clip-path="url(#e)" fill="none" stroke="#b0b0b0" stroke-linecap="square" stroke-width=".8"/>
<use x="46.965625" y="375.64" stroke="#000000" stroke-width=".8" xlink:href="#g"/>
<g transform="translate(43.784 390.24) scale(.1 -.1)">
<use xlink:href="#b"/>
</g>
<path d="m179.95 375.64v-189.1" clip-path="url(#e)" fill="none" stroke="#b0b0b0" stroke-linecap="square" stroke-width=".8"/>
<use x="179.94585" y="375.64" stroke="#000000" stroke-width=".8" xlink:href="#g"/>
<g transform="translate(176.76 390.24) scale(.1 -.1)">
<use xlink:href="#f"/>
</g>
<path d="m312.93 375.64v-189.1" clip-path="url(#e)" fill="none" stroke="#b0b0b0" stroke-linecap="square" stroke-width=".8"/>
<use x="312.926076" y="375.64" stroke="#000000" stroke-width=".8" xlink:href="#g"/>
<g transform="translate(309.74 390.24) scale(.1 -.1)">
<use xlink:href="#o"/>
</g>
<path d="m445.91 375.64v-189.1" clip-path="url(#e)" fill="none" stroke="#b0b0b0" stroke-linecap="square" stroke-width=".8"/>
<use x="445.906301" y="375.64" stroke="#000000" stroke-width=".8" xlink:href="#g"/>
<g transform="translate(442.73 390.24) scale(.1 -.1)">
<use xlink:href="#s"/>
</g>
<defs>
<path id="ao" d="m34.188 63.188-13.391-36.281h26.812zm-5.5781 9.7188h11.188l27.781-72.906h-10.25l-6.6406 18.703h-32.859l-6.6406-18.703h-10.406z"/>
<path id="x" d="m45.406 27.984q0 9.7656-4.0312 15.125-4.0156 5.375-11.297 5.375-7.2188 0-11.25-5.375-4.0312-5.3594-4.0312-15.125 0-9.7188 4.0312-15.094t11.25-5.375q7.2812 0 11.297 5.375 4.0312 5.375 4.0312 15.094zm8.9844-21.203q0-13.953-6.2031-20.766-6.1875-6.8125-18.984-6.8125-4.7344 0-8.9375 0.70312t-8.1562 2.1719v8.7344q3.9531-2.1406 7.8125-3.1562 3.8594-1.0312 7.8594-1.0312 8.8438 0 13.234 4.6094t4.3906 13.938v4.4531q-2.7812-4.8438-7.125-7.2344t-10.406-2.3906q-10.047 0-16.203 7.6562-6.1562 7.6719-6.1562 20.328 0 12.688 6.1562 20.344 6.1562 7.6719 16.203 7.6719 6.0625 0 10.406-2.3906t7.125-7.2188v8.2969h8.9844z"/>
<path id="ah" d="m18.109 8.2031v-29h-9.0312v75.484h9.0312v-8.2969q2.8438 4.875 7.1562 7.2344 4.3281 2.375 10.328 2.375 9.9688 0 16.188-7.9062 6.2344-7.9062 6.2344-20.797t-6.2344-20.812q-6.2188-7.9062-16.188-7.9062-6 0-10.328 2.375-4.3125 2.375-7.1562 7.25zm30.578 19.094q0 9.9062-4.0781 15.547t-11.203 5.6406q-7.1406 0-11.219-5.6406t-4.0781-15.547 4.0781-15.547 11.219-5.6406q7.125 0 11.203 5.6406t4.0781 15.547z"/>
<path id="af" d="m4.2031 54.688h8.9844l11.234-42.672 11.172 42.672h10.594l11.234-42.672 11.188 42.672h8.9844l-14.312-54.688h-10.594l-11.766 44.828-11.812-44.828h-10.609z"/>
<path id="as" d="m4.8906 31.391h26.312v-8h-26.312z"/>
<path id="ai" d="m54.891 33.016v-33.016h-8.9844v32.719q0 7.7656-3.0312 11.609-3.0312 3.8594-9.0781 3.8594-7.2812 0-11.484-4.6406-4.2031-4.625-4.2031-12.641v-30.906h-9.0312v54.688h9.0312v-8.5q3.2344 4.9375 7.5938 7.375 4.375 2.4375 10.094 2.4375 9.4219 0 14.25-5.8281 4.8438-5.8281 4.8438-17.156z"/>
</defs>
<g transform="translate(212.88 403.92) scale(.1 -.1)">
<use xlink:href="#ao"/>
<use x="68.408203" xlink:href="#x"/>
<use x="131.884766" xlink:href="#d"/>
<use x="193.408203" xlink:href="#DejaVuSans-20"/>
<use x="225.195312" xlink:href="#u"/>
<use x="264.208984" xlink:href="#ah"/>
<use x="327.685547" xlink:href="#l"/>
<use x="388.867188" xlink:href="#af"/>
<use x="470.654297" xlink:href="#d"/>
<use x="532.177734" xlink:href="#h"/>
<use x="573.197266" xlink:href="#as"/>
<use x="609.296875" xlink:href="#l"/>
<use x="670.478516" xlink:href="#ai"/>
<use x="733.857422" xlink:href="#DejaVuSans-20"/>
<use x="765.644531" xlink:href="#p"/>
<use x="824.824219" xlink:href="#d"/>
<use x="886.347656" xlink:href="#i"/>
<use x="947.626953" xlink:href="#h"/>
<use x="988.740234" xlink:href="#j"/>
<use x="1040.839844" xlink:href="#t"/>
</g>
<path d="m46.966 375.64h439.81" clip-path="url(#e)" fill="none" stroke="#b0b0b0" stroke-linecap="square" stroke-width=".8"/>
<use x="46.965625" y="375.64" stroke="#000000" stroke-width=".8" xlink:href="#c"/>
<g transform="translate(33.603 379.44) scale(.1 -.1)">
<use xlink:href="#b"/>
</g>
<path d="m46.966 344.12h439.81" clip-path="url(#e)" fill="none" stroke="#b0b0b0" stroke-linecap="square" stroke-width=".8"/>
<use x="46.965625" y="344.122802" stroke="#000000" stroke-width=".8" xlink:href="#c"/>
<g transform="translate(27.241 347.92) scale(.1 -.1)">
<use xlink:href="#o"/>
<use x="63.623047" xlink:href="#b"/>
</g>
<path d="m46.966 312.61h439.81" clip-path="url(#e)" fill="none" stroke="#b0b0b0" stroke-linecap="square" stroke-width=".8"/>
<use x="46.965625" y="312.605603" stroke="#000000" stroke-width=".8" xlink:href="#c"/>
<g transform="translate(27.241 316.4) scale(.1 -.1)">
<use xlink:href="#ac"/>
<use x="63.623047" xlink:href="#b"/>
</g>
<path d="m46.966 281.09h439.81" clip-path="url(#e)" fill="none" stroke="#b0b0b0" stroke-linecap="square" stroke-width=".8"/>
<use x="46.965625" y="281.088405" stroke="#000000" stroke-width=".8" xlink:href="#c"/>
<g transform="translate(27.241 284.89) scale(.1 -.1)">
<use xlink:href="#ab"/>
<use x="63.623047" xlink:href="#b"/>
</g>
<path d="m46.966 249.57h439.81" clip-path="url(#e)" fill="none" stroke="#b0b0b0" stroke-linecap="square" stroke-width=".8"/>
<use x="46.965625" y="249.571206" stroke="#000000" stroke-width=".8" xlink:href="#c"/>
<defs>
<path id="aq" d="m31.781 34.625q-7.0312 0-11.062-3.7656-4.0156-3.7656-4.0156-10.344 0-6.5938 4.0156-10.359 4.0312-3.7656 11.062-3.7656t11.078 3.7812q4.0625 3.7969 4.0625 10.344 0 6.5781-4.0312 10.344-4.0156 3.7656-11.109 3.7656zm-9.8594 4.1875q-6.3438 1.5625-9.8906 5.9062-3.5312 4.3594-3.5312 10.609 0 8.7344 6.2188 13.812 6.2344 5.0781 17.062 5.0781 10.891 0 17.094-5.0781t6.2031-13.812q0-6.25-3.5469-10.609-3.5312-4.3438-9.8281-5.9062 7.125-1.6562 11.094-6.5 3.9844-4.8281 3.9844-11.797 0-10.609-6.4688-16.281-6.4688-5.6562-18.531-5.6562-12.047 0-18.531 5.6562-6.4688 5.6719-6.4688 16.281 0 6.9688 4 11.797 4.0156 4.8438 11.141 6.5zm-3.6094 15.578q0-5.6562 3.5312-8.8281 3.5469-3.1719 9.9375-3.1719 6.3594 0 9.9375 3.1719 3.5938 3.1719 3.5938 8.8281 0 5.6719-3.5938 8.8438-3.5781 3.1719-9.9375 3.1719-6.3906 0-9.9375-3.1719-3.5312-3.1719-3.5312-8.8438z"/>
</defs>
<g transform="translate(27.241 253.37) scale(.1 -.1)">
<use xlink:href="#aq"/>
<use x="63.623047" xlink:href="#b"/>
</g>
<path d="m46.966 218.05h439.81" clip-path="url(#e)" fill="none" stroke="#b0b0b0" stroke-linecap="square" stroke-width=".8"/>
<use x="46.965625" y="218.054008" stroke="#000000" stroke-width=".8" xlink:href="#c"/>
<g transform="translate(20.878 221.85) scale(.1 -.1)">
<use xlink:href="#f"/>
<use x="63.623047" xlink:href="#b"/>
<use x="127.246094" xlink:href="#b"/>
</g>
<path d="m46.966 186.54h439.81" clip-path="url(#e)" fill="none" stroke="#b0b0b0" stroke-linecap="square" stroke-width=".8"/>
<use x="46.965625" y="186.536809" stroke="#000000" stroke-width=".8" xlink:href="#c"/>
<g transform="translate(20.878 190.34) scale(.1 -.1)">
<use xlink:href="#f"/>
<use x="63.623047" xlink:href="#o"/>
<use x="127.246094" xlink:href="#b"/>
</g>
<defs>
<path id="am" d="m9.8125 72.906h41.891v-8.3125h-32.031v-21.484h28.906v-8.2969h-28.906v-34.812h-9.8594z"/>
<path id="al" d="m44.391 34.188q3.1719-1.0781 6.1719-4.5938t6.0312-9.6719l10.016-19.922h-10.609l-9.3125 18.703q-3.625 7.3281-7.0156 9.7188t-9.25 2.3906h-10.75v-30.812h-9.8594v72.906h22.266q12.5 0 18.656-5.2344 6.1562-5.2188 6.1562-15.766 0-6.8906-3.2031-11.438-3.2031-4.5312-9.2969-6.2812zm-24.719 30.609v-25.875h12.406q7.125 0 10.766 3.2969t3.6406 9.6875-3.6406 9.6406-10.766 3.25z"/>
<path id="at" d="m72.703 32.078q-4.25 0-6.6719-3.6094-2.4062-3.6094-2.4062-10.062 0-6.3438 2.4062-9.9844 2.4219-3.6406 6.6719-3.6406 4.1562 0 6.5625 3.6406 2.4219 3.6406 2.4219 9.9844 0 6.4062-2.4219 10.031-2.4062 3.6406-6.5625 3.6406zm0 6.2031q7.7188 0 12.25-5.375 4.5469-5.3594 4.5469-14.5 0-9.125-4.5625-14.484-4.5625-5.3438-12.234-5.3438-7.8125 0-12.359 5.3438-4.5312 5.3594-4.5312 14.484 0 9.1875 4.5625 14.531t12.328 5.3438zm-50.391 29.734q-4.2031 0-6.625-3.6406-2.4062-3.625-2.4062-9.9844 0-6.4375 2.3906-10.062 2.3906-3.6094 6.6406-3.6094t6.6562 3.6094q2.4219 3.625 2.4219 10.062 0 6.2969-2.4375 9.9531-2.4375 3.6719-6.6406 3.6719zm44.094 6.2031h7.8125l-45.609-75.641h-7.8125zm-44.094 0q7.7188 0 12.297-5.3438 4.5938-5.3438 4.5938-14.484 0-9.2188-4.5625-14.547t-12.328-5.3281-12.281 5.3438q-4.5156 5.3594-4.5156 14.531 0 9.0938 4.5312 14.453 4.5469 5.375 12.266 5.375z"/>
</defs>
<g transform="translate(14.798 334.34) rotate(-90) scale(.1 -.1)">
<use xlink:href="#am"/>
<use x="57.378906" xlink:href="#i"/>
<use x="118.658203" xlink:href="#m"/>
<use x="146.441406" xlink:href="#r"/>
<use x="174.224609" xlink:href="#v"/>
<use x="237.603516" xlink:href="#h"/>
<use x="278.685547" xlink:href="#d"/>
<use x="340.208984" xlink:href="#DejaVuSans-20"/>
<use x="371.996094" xlink:href="#al"/>
<use x="441.447266" xlink:href="#i"/>
<use x="502.726562" xlink:href="#q"/>
<use x="541.935547" xlink:href="#d"/>
<use x="603.458984" xlink:href="#DejaVuSans-20"/>
<use x="635.246094" xlink:href="#u"/>
<use x="674.259766" xlink:href="#at"/>
<use x="769.279297" xlink:href="#ad"/>
<use x="802.970703" xlink:href="#p"/>
<use x="862.150391" xlink:href="#d"/>
<use x="923.673828" xlink:href="#i"/>
<use x="984.953125" xlink:href="#h"/>
<use x="1026.066406" xlink:href="#t"/>
</g>
<path d="m63.983 358.14 0.65473-0.004598 2.6189-0.35082 5.0196-0.91076 5.0196-1.0559 6.7656-1.63 0.43649-0.42881 0.65473-1.0452 0.65473-1.5063 1.9642-4.7753 1.5277-3.1706 1.5277-2.6464 1.0912-1.4489 1.3095-1.3567 1.0912-0.8224 1.0912-0.55988 1.0912-0.32311 1.3095-0.13196 1.0912 0.11285 1.0912 0.33814 1.0912 0.57633 0.87298 0.6855 1.9642 1.961 1.3095 1.5406 1.746 2.3249 1.9642 3.0851 3.4919 6.0411 4.5831 8.4363 1.0912 1.8726 0.65473 0.76581 0.65473 0.47739 1.746 0.6497 4.1466 1.3442 4.1466 1.0776 5.0196 1.0892 3.9284 0.62283 4.3649 0.47523 1.9642 0.043588 1.746-0.2112 1.9642-0.4677 2.6189-0.89511 1.0912-0.48718 0.65473-0.55688 2.8372-2.9883 1.746-1.4578 1.5277-1.0216 0.87298-0.13533 1.5277 0.13098 0.65473 0.21942 1.3095 0.80142 2.8372 1.6055 2.6189 1.307 1.0912 0.22141 1.746 0.11423 0.87298-0.057715 0.87298-0.31783 1.0912-0.70888 1.746-1.0621 1.9642-0.90337 4.5831-1.7705 1.746-0.36377 4.5831-0.64216 1.3095-0.57905 3.2737-2.0219 3.0554-2.1229 1.746-0.87024 1.5277-0.55608 0.87298-0.15107 1.0912 0.11458 2.4007 0.56241 3.0554 0.88457 2.4007 0.57213 1.5277 0.36695 1.5277-0.19376 1.3095-0.13156 0.87298-0.17952 1.0912 0.022925 1.3095 0.27392 1.746 0.62747 1.3095 0.64747 1.9642 1.2971 2.1824 1.4084 1.746 1.1559 1.746 1.0922 1.3095 0.58469 0.87298 0.20426 1.5277 0.005457 2.4007-0.17935 1.9642-0.26191 3.9284-1.0856 1.5277-0.32986 4.3649-0.95634 4.1466-1.3958 1.0912-0.37016 5.6743-2.4387 1.5277-0.70328 2.1824-0.9357 4.8014-3.5442 2.8372-2.4602 1.746-1.2155 1.3095-0.7128 1.0912-0.42743 5.2378-1.4769 0.65473-0.14709 2.8372-2.3319 1.3095-1.1787 1.746-1.2395 1.3095-0.8253 1.746-0.88338 0.87298-0.52641 3.0554-2.353 1.9642-1.617 1.9642-2.0147 1.5277-2.1342 1.0912-1.9617 1.0912-2.3062 1.5277-3.7735 3.4919-8.7336 1.5277-3.4448 1.0912-1.9733 1.746-2.9951 2.8372-6.2057 1.5277-4.1412 1.5277-4.895 1.0912-3.6088 2.4007-7.8262 1.5277-4.8141 1.3095-4.3005 1.0912-2.9221 2.4007-5.9336 1.0912-2.6532 2.6189-5.2867 0.87298-1.1763 0.65473-0.54115 1.9642-1.4159 1.3095-1.91 2.1824-4.1178 1.3095-1.9368 0.65473-0.59412 0.65473-0.24532 1.0912-0.063272 0.65473 0.3083 0.43649 0.3981 0.87298 1.2935 1.0912 2.1262 1.746 3.8743 0.65473 1.321 0.65473 1.347 0.65473 0.89621 1.0912 1.6297 0.87298 0.78639 0.65473 1.0812 1.3095 2.3507 3.4919 4.9618 0.21824 0.19432 0.43649-0.16578 0.87298-1.7246 0.87298-1.567 0.65473-0.8679 1.0912-0.98614 0.65473-0.51832 0.65473-0.84598 0.65473-0.68291 0.87298-1.2416 2.1824-6.1062 0.87298-1.8926 1.9642-3.3186 1.0912-2.3586 1.0912-3.1601 1.5277-5.2408 1.3095-3.4873 0.87298-1.8821 1.0912-2.3043 1.3095-2.4673 2.6189-3.8801 0.65473-0.36492 0.21824-0.038052 0.87298-0.93078 2.1824-3.4617 0.43649-0.8096 0.65473-1.0941 0.43649-0.34549 0.43649-0.14684 0.43649 0.064619 0.43649 0.14357 0.43649 0.16081 0.43649 0.22771 0.43649-0.029399 0.43649 0.20405 0.65473 0.834 0.43649 0.67325 1.9642 4.183 2.1824-3.6528 0.65473-0.63184 0.43649-0.15485 0.21824 0.038176 0.43649-0.12856 0.43649 0.30269 0.43649 0.5956 0.65473 1.01 0.65473 0.85693 0.21824-0.10591 0.65473-0.6187 0.65473-0.19645 0.87298 0.48322 0.43649 0.42904 0.65473 1.0652 0.65473 1.4896 0.43649 0.31767 0.65473 1.062 0.43649 0.99015 0.87298 2.763 1.746 6.2581 0.65473 3.0003 0.87298 5.219 1.5277 9.9279 4.1466 21.277 0.87298 5.1474 1.746 11.007 0.87298 3.0846 0.87298 1.7299 0.65473 1.1193 0.87298 2.0182 1.5277 4.5501 1.3095 4.1671 0.87298 1.713 0.65473 0.98078 0.43649 0.40594 0.87298 0.56003 0.87298 1.1507 0.87298 1.5877 0.87298 2.0674 0.87298 2.5778 0.65473 2.2912 0.65473 0.54328 0.65473 0.46182 0.87298 0.13802 0.87298-0.067639 0.65473 0.15306 0.87298 0.48248 0.65473 0.2649 0.65473 0.085699 1.0912-0.033992 0.65473-0.059033 1.0912 0.46196 0.87298 0.38212 1.3095-0.30138 3.4919-3.482 0.87298-1.0795 1.0912-0.9 0.87298-0.46491 0.87298-0.22642 3.0554-0.32821 1.3095-0.25808 0.87298 0.087866 0.87298 0.32443 0.87298 0.5748 0.87298 0.82766 0.65473 0.63963 1.0912 0.62875 1.0912 1.4396 1.0912 1.8284 1.0912 2.2392 1.0912 2.6837 1.3095 3.8885 1.3095 4.739 0.43649 1.3997 0.65473 1.1536 0.43649 0.13897 0.87298-0.041703 1.0912-0.69358 0.87298-0.69719 0.65473-1.1901 2.6189-5.6386v0" clip-path="url(#e)" fill="none" stroke="#d2691e" stroke-linecap="square" stroke-width="1.5"/>
<path d="m46.966 375.64v-189.1" fill="none" stroke="#000" stroke-linecap="square" stroke-width=".8"/>
<path d="m486.78 375.64v-189.1" fill="none" stroke="#000" stroke-linecap="square" stroke-width=".8"/>
<path d="m46.966 375.64h439.81" fill="none" stroke="#000" stroke-linecap="square" stroke-width=".8"/>
<path d="m46.966 186.54h439.81" fill="none" stroke="#000" stroke-linecap="square" stroke-width=".8"/>
<defs>
<path id="aa" d="m9.8125 72.906h14.703l18.594-49.609 18.703 49.609h14.703v-72.906h-9.625v64.016l-18.797-50h-9.9062l-18.797 50v-64.016h-9.5781z"/>
<path id="ap" d="m11.719 12.406h10.297v-12.406h-10.297zm0 39.297h10.297v-12.391h-10.297z"/>
<path id="z" d="m53.516 70.516v-9.625q-5.6094 2.6875-10.594 4-4.9844 1.3281-9.625 1.3281-8.0469 0-12.422-3.125t-4.375-8.8906q0-4.8438 2.9062-7.3125 2.9062-2.4531 11.016-3.9688l5.9531-1.2188q11.031-2.1094 16.281-7.4062t5.25-14.172q0-10.609-7.1094-16.078-7.0938-5.4688-20.812-5.4688-5.1719 0-11.016 1.1719-5.8281 1.1719-12.078 3.4688v10.156q6-3.3594 11.766-5.0781 5.7656-1.7031 11.328-1.7031 8.4375 0 13.031 3.3125 4.5938 3.3281 4.5938 9.4844 0 5.3594-3.2969 8.3906t-10.812 4.5469l-6.0156 1.1719q-11.031 2.1875-15.969 6.875-4.9219 4.6875-4.9219 13.047 0 9.6719 6.8125 15.234t18.766 5.5625q5.1406 0 10.453-0.9375 5.3281-0.92188 10.891-2.7656z"/>
<path id="ak" d="m-0.29688 72.906h61.672v-8.3125h-25.875v-64.594h-9.9062v64.594h-25.891z"/>
<path id="an" d="m19.672 64.797v-56.688h11.922q15.094 0 22.094 6.8281 7 6.8438 7 21.594 0 14.641-7 21.453t-22.094 6.8125zm-9.8594 8.1094h20.266q21.188 0 31.094-8.8125 9.9219-8.8125 9.9219-27.562 0-18.859-9.9688-27.703-9.9531-8.8281-31.047-8.8281h-20.266z"/>
</defs>
<g transform="translate(155.54 16.318) scale(.12 -.12)">
<use xlink:href="#aa"/>
<use x="86.279297" xlink:href="#l"/>
<use x="147.460938" xlink:href="#n"/>
<use x="210.9375" xlink:href="#d"/>
<use x="272.460938" xlink:href="#r"/>
<use x="300.244141" xlink:href="#ap"/>
<use x="333.935547" xlink:href="#DejaVuSans-20"/>
<use x="365.722656" xlink:href="#z"/>
<use x="429.199219" xlink:href="#d"/>
<use x="490.722656" xlink:href="#i"/>
<use x="552.001953" xlink:href="#x"/>
<use x="615.478516" xlink:href="#i"/>
<use x="676.757812" xlink:href="#q"/>
<use x="715.966797" xlink:href="#d"/>
<use x="777.490234" xlink:href="#DejaVuSans-20"/>
<use x="809.277344" xlink:href="#z"/>
<use x="872.753906" xlink:href="#ak"/>
<use x="933.837891" xlink:href="#s"/>
<use x="997.460938" xlink:href="#b"/>
<use x="1061.083984" xlink:href="#b"/>
<use x="1124.707031" xlink:href="#b"/>
<use x="1188.330078" xlink:href="#an"/>
<use x="1265.332031" xlink:href="#aa"/>
<use x="1351.611328" xlink:href="#b"/>
<use x="1415.234375" xlink:href="#b"/>
<use x="1478.857422" xlink:href="#f"/>
</g>
<defs>
<clipPath id="k">
<rect x="46.966" y="28.8" width="439.81" height="141.83"/>
</clipPath>
<clipPath id="e">
<rect x="46.966" y="186.54" width="439.81" height="189.1"/>
</clipPath>
</defs>
</svg>
