<?xml version="1.0" encoding="UTF-8"?>
<!DOCTYPE svg  PUBLIC '-//W3C//DTD SVG 1.1//EN'  'http://www.w3.org/Graphics/SVG/1.1/DTD/svg11.dtd'>
<svg width="497pt" height="413pt" version="1.1" viewBox="0 0 497 413" xmlns="http://www.w3.org/2000/svg" xmlns:xlink="http://www.w3.org/1999/xlink">
<defs>
<style type="text/css">*{stroke-linecap:butt;stroke-linejoin:round;}</style>
</defs>
<path d="m0 413.2h497.32v-413.2h-497.32z" fill="#fff"/>
<path d="m40.603 170.63h446.02v-141.83h-446.02z" fill="#fff"/>
<defs>
<path id="af" d="m77.346-235.45v-63.46l0.2316-0.029613 0.2316-0.024912 0.2316-0.022504 0.2316-0.021072 0.2316-0.016812 0.2316-0.005751 0.2316-6.64e-4 0.2316 9.04e-4 5.5585 0.020834 0.2316 8.74e-4 0.2316 8.84e-4 0.2316 8.96e-4 0.2316 9.03e-4 0.2316 9.1e-4 0.46321 0.001831 0.4632 0.001837 0.2316 9.2e-4 0.4632 0.001845 0.2316 9.25e-4 0.2316 9.27e-4 0.4632 0.001861 0.2316 9.32e-4 0.2316 9.34e-4 0.46321 0.001873 0.4632 0.001877 0.4632 0.001884 0.2316 9.44e-4 0.4632 0.001893 0.2316 9.48e-4 0.4632 0.001901 0.46321 0.001907 3.9372 0.016173 0.2316 8.72e-4 0.2316 8.34e-4 0.4632 0.001604 0.46321 0.001568 0.4632 0.001533 0.2316 7.52e-4 2.316 0.00671 2.0844 0.005847 0.92641 0.00254 0.2316 6.19e-4 0.2316 6e-4 0.2316 5.81e-4 6.7165 0.0161 5.5585 0.012826 0.2316 5.41e-4 0.2316 5.53e-4 0.2316 5.64e-4 0.2316 5.75e-4 0.2316 5.87e-4 0.2316 5.9e-4 0.2316 5.92e-4 0.2316 5.94e-4 0.2316 5.96e-4 0.2316 5.98e-4 0.2316 6e-4 0.2316 6.02e-4 0.2316 6.04e-4 0.46321 0.001213 0.4632 0.001221 0.46321 0.001229 0.4632 0.001237 0.2316 6.21e-4 0.2316 6.23e-4 0.2316 6.25e-4 0.2316 6.27e-4 0.2316 6.29e-4 0.2316 6.31e-4 0.2316 6.43e-4 0.2316 6.61e-4 0.2316 6.79e-4 0.2316 6.95e-4 0.2316 6.99e-4 0.2316 7.01e-4 0.2316 7.03e-4 0.2316 7.07e-4 0.2316 7.1e-4 0.2316 7.12e-4 0.2316 7.15e-4 0.2316 7.18e-4 0.2316 7.2e-4 0.2316 7.24e-4 0.2316 7.26e-4 0.2316 7.29e-4 0.2316 7.32e-4 0.2316 7.34e-4 0.2316 7.38e-4 8.5693 0.027215 6.2533 0.019451 0.2316 7.28e-4 0.2316 7.4e-4 0.2316 7.52e-4 0.2316 7.64e-4 0.2316 7.77e-4 0.2316 8e-4 0.2316 8.41e-4 0.2316 8.79e-4 2.0844 0.008231 9.0325 0.03568 2.7792 0.01074 0.2316 9.01e-4 0.2316 9.13e-4 0.4632 0.001841 0.2316 9.23e-4 0.2316 9.27e-4 0.2316 9.33e-4 0.2316 9.39e-4 0.2316 9.51e-4 0.2316 9.64e-4 0.2316 9.75e-4 0.2316 0.001025 0.2316 0.001094 0.2316 0.001113 0.2316 0.001117 0.2316 0.001122 0.2316 0.001131 0.2316 0.001139 0.2316 0.001154 0.2316 0.001181 0.2316 0.001209 0.2316 0.001216 0.2316 0.001223 0.2316 0.00123 0.2316 0.001237 0.2316 0.001245 0.2316 0.001252 0.2316 0.00126 0.2316 0.001271 0.2316 0.001281 0.2316 0.00129 0.2316 0.001301 2.5476 0.014325 0.92641 0.005222 0.69481 0.003924 0.69481 0.003931 0.46321 0.002624 0.69481 0.003942 0.92641 0.005266 0.92641 0.005278 0.69481 0.003966 0.69481 0.003973 0.46321 0.002652 0.69481 0.003984 0.69481 0.003991 0.69481 0.003997 0.69481 0.004004 0.2316 0.001336 0.2316 0.001345 0.2316 0.001393 0.2316 0.001418 0.2316 0.001438 0.2316 0.001456 0.2316 0.001476 0.2316 0.001495 0.2316 0.001514 0.2316 0.001534 4.1688 0.027709 5.79 0.038533 0.2316 0.001528 0.2316 0.001516 0.2316 0.001504 0.2316 0.001492 2.0844 0.013217 2.0844 0.013024 1.158 0.007152 0.2316 0.001413 0.2316 0.001394 0.2316 0.001375 1.6212 0.009434 1.6212 0.009272 15.517 0.086563 0.2316 0.001272 0.2316 0.001259 0.2316 0.001247 0.2316 0.001235 0.2316 0.001209 0.2316 0.001169 0.2316 0.001128 3.2424 0.015306 2.5476 0.012044 0.2316 0.0011 0.2316 0.001121 0.2316 0.001143 7.4113 0.037148 0.2316 0.001144 0.2316 0.001131 0.2316 0.001116 0.2316 0.001103 0.2316 0.001087 0.2316 0.00107 0.2316 0.001052 0.2316 0.001034 0.2316 0.001015 0.2316 9.95e-4 0.2316 9.75e-4 0.2316 9.18e-4 0.2316 8.37e-4 0.2316 8.12e-4 0.2316 8e-4 0.4632 0.001563 0.2316 7.64e-4 0.2316 7.48e-4 0.2316 7.15e-4 0.4632 0.001362 0.4632 0.001322 0.46321 0.001283 0.4632 0.001242 0.4632 0.001193 0.2316 5.77e-4 2.7792 0.006667 0.2316 5.81e-4 0.2316 6.13e-4 0.2316 6.48e-4 0.2316 6.84e-4 0.2316 7.06e-4 0.2316 7.27e-4 0.2316 7.48e-4 0.4632 0.001515 0.69481 0.002278 0.69481 0.002284 0.69481 0.002291 0.4632 0.001531 0.92641 0.00307 0.92641 0.003082 0.69481 0.002319 0.92641 0.003102 0.92641 0.003114 0.4632 0.001561 0.92641 0.003129 0.2316 7.37e-4 0.2316 7.15e-4 0.2316 7.02e-4 0.2316 6.87e-4 0.2316 6.74e-4 0.2316 6.59e-4 0.2316 6.44e-4 0.4632 0.001261 0.2316 6.36e-4 0.2316 6.46e-4 0.2316 6.59e-4 0.2316 6.73e-4 0.2316 6.85e-4 0.2316 6.99e-4 0.2316 7.14e-4 0.2316 7.34e-4 0.2316 7.54e-4 0.2316 7.73e-4 0.2316 7.88e-4 0.2316 8.02e-4 0.2316 8.15e-4 0.2316 8.29e-4 0.2316 8.43e-4 0.2316 8.55e-4 0.2316 8.69e-4 0.2316 8.81e-4 0.2316 8.94e-4 0.2316 9.07e-4 0.2316 9.2e-4 0.2316 9.34e-4 0.2316 9.47e-4 0.2316 9.59e-4 0.2316 9.74e-4 0.2316 9.92e-4 0.2316 0.001028 0.2316 0.001066 0.2316 0.001115 0.2316 0.001139 0.2316 0.001157 0.2316 0.001177 0.2316 0.001196 0.2316 0.00124 0.2316 0.00127 0.2316 0.001283 0.2316 0.001297 0.2316 0.001311 0.2316 0.001324 0.2316 0.001342 0.2316 0.00137 0.2316 0.001398 0.2316 0.001426 0.2316 0.001454 0.2316 0.001688 0.4632 0.003381 0.46321 0.003386 0.4632 0.003391 0.4632 0.003395 0.46321 0.0034 0.4632 0.003405 0.2316 0.001704 0.4632 0.003412 0.46321 0.003417 0.4632 0.003422 0.4632 0.003427 0.46321 0.003431 0.2316 0.001717 0.46321 0.003439 0.4632 0.003443 0.4632 0.003449 0.46321 0.003453 0.2316 0.001728 0.46321 0.00346 0.2316 0.001732 0.4632 0.003468 0.4632 0.003472 0.69481 0.005218 0.46321 0.003485 0.4632 0.003489 0.2316 0.001747 0.2316 0.001776 0.2316 0.001821 0.2316 0.001831 0.2316 0.00184 0.2316 0.001851 0.2316 0.00186 0.2316 0.00187 0.2316 0.001879 0.46321 0.00378 0.4632 0.003787 0.2316 0.001895 0.4632 0.003795 0.2316 0.0019 0.4632 0.003805 0.4632 0.003811 0.2316 0.001907 0.4632 0.00382 0.46321 0.003826 0.4632 0.003833 0.2316 0.001918 0.4632 0.003841 0.46321 0.003848 0.2316 0.001926 0.69481 0.005786 0.69481 0.005795 0.46321 0.003867 0.4632 0.003871 0.4632 0.003874 0.69481 0.005818 0.4632 0.003883 0.2316 0.001955 0.2316 0.001978 0.2316 0.002001 0.2316 0.002018 0.2316 0.002026 0.2316 0.002036 0.2316 0.002045 0.2316 0.002055 0.2316 0.002064 0.2316 0.002074 0.2316 0.002082 0.2316 0.002091 0.2316 0.002098 0.2316 0.002107 0.2316 0.002115 0.2316 0.002123 0.2316 0.002131 0.2316 0.002139 0.2316 0.002147 0.2316 0.002149 0.2316 0.002152 0.2316 0.002154 0.2316 0.002158 0.2316 0.002161 0.2316 0.002164 0.2316 0.002166 0.2316 0.00217 0.2316 0.002172 0.2316 0.002175 0.2316 0.002179 0.2316 0.002181 0.2316 0.002184 0.2316 0.002187 0.2316 0.00219 0.2316 0.002193 0.2316 0.002196 0.2316 0.002199 0.2316 0.002201 0.2316 0.002231 0.2316 0.002275 0.2316 0.002321 0.4632 0.004693 0.2316 0.002325 0.2316 0.002304 0.2316 0.002284 0.2316 0.002287 0.4632 0.004579 0.46321 0.004587 0.2316 0.002296 0.2316 0.002298 0.2316 0.0023 0.2316 0.002302 0.46321 0.004609 0.4632 0.004617 0.46321 0.004625 0.2316 0.002315 0.2316 0.002317 0.4632 0.004639 0.2316 0.002323 0.4632 0.004651 0.46321 0.004659 0.2316 0.002332 0.2316 0.002334 0.4632 0.004673 0.46321 0.004678 0.4632 0.004684 0.46321 0.004689 0.2316 0.002346 0.46321 0.004697 0.4632 0.004702 0.4632 0.004708 0.46321 0.004713 0.2316 0.002358 0.46321 0.004721 0.4632 0.004726 0.4632 0.004732 0.46321 0.004737 0.2316 0.00237 0.4632 0.004745 0.4632 0.004751 0.2316 0.002377 0.4632 0.004759 0.2316 0.002381 0.4632 0.004767 0.2316 0.002385 0.4632 0.004775 0.2316 0.002389 0.2316 0.002391 0.2316 0.002398 0.2316 0.002406 0.2316 0.002414 0.2316 0.002422 0.2316 0.00243 0.2316 0.002437 0.2316 0.002416 0.2316 0.002389 0.2316 0.00236 0.2316 0.002324 0.2316 0.002301 0.2316 0.00228 3.0108 0.029281 0.92641 0.009015 2.0844 0.020299 1.6212 0.015802 1.158 0.011294 0.2316 0.00226 0.2316 0.002265 0.2316 0.002271 0.2316 0.002276 0.2316 0.002282 1.3896 0.013716 0.2316 0.002272 0.46321 0.004508 0.4632 0.004461 0.2316 0.002212 0.2316 0.002192 0.2316 0.002175 0.2316 0.002156 0.4632 0.004273 0.2316 0.002119 0.4632 0.004201 0.4632 0.004155 0.2316 0.002061 0.4632 0.004088 0.46321 0.004041 0.2316 0.002004 0.46321 0.003971 0.2316 0.001962 0.2316 0.001931 0.2316 0.001906 0.69481 0.005587 0.2316 0.001845 0.2316 0.001826 0.2316 0.001783 0.2316 0.001754 0.4632 0.003471 0.2316 0.001719 0.2316 0.001706 0.2316 0.00169 0.2316 0.001664 0.2316 0.001636 0.2316 0.001609 0.2316 0.001582 0.2316 0.001334 0.4632 0.002673 0.4632 0.002679 0.2316 0.001342 0.4632 0.002689 0.2316 0.001346 0.4632 0.002697 0.2316 0.001351 0.4632 0.002706 0.46321 0.002712 0.4632 0.002717 0.46321 0.002723 0.2316 0.001363 0.46321 0.002731 0.4632 0.002736 0.4632 0.002742 0.46321 0.002747 0.4632 0.002753 0.2316 0.001378 0.4632 0.002761 0.2316 0.001382 0.4632 0.002769 0.2316 0.001386 0.4632 0.002777 0.2316 0.001391 0.2316 0.001395 0.2316 0.001403 0.2316 0.00141 0.2316 0.001417 0.2316 0.001426 0.2316 0.001432 0.2316 0.00144 0.2316 0.001448 0.2316 0.001425 0.2316 0.001391 0.2316 0.001395 0.2316 0.001398 0.2316 0.001403 0.92641 0.005627 0.2316 0.001414 0.2316 0.001422 0.2316 0.00143 0.2316 0.001437 0.2316 0.001446 0.2316 0.001452 0.2316 0.001457 0.2316 0.001463 0.2316 0.001468 0.2316 0.001473 0.2316 0.001479 0.2316 0.001485 0.2316 0.001489 0.2316 0.001495 0.2316 0.001501 0.2316 0.001506 0.2316 0.001522 0.2316 0.001547 0.2316 0.001572 0.2316 0.001594 0.2316 0.001611 0.2316 0.00163 0.2316 0.001649 0.2316 0.001689 0.2316 0.001733 0.2316 0.001777 0.2316 0.001802 0.2316 0.001804 0.2316 0.001806 0.2316 0.001809 0.2316 0.001811 0.2316 0.001814 0.2316 0.001816 0.2316 0.001819 0.2316 0.001821 0.2316 0.001824 0.2316 0.001826 0.2316 0.001829 0.2316 0.001831 0.6948 0.005496 0.2316 0.001805 0.2316 0.001783 0.4632 0.003537 0.2316 0.001771 0.2316 0.001776 0.2316 0.001781 0.92641 0.007123 0.69481 0.005269 0.4632 0.003477 2.5476 0.018851 2.316 0.016938 0.2316 0.001656 0.2316 0.00161 0.2316 0.001562 2.7792 0.018392 0.2316 0.001536 0.2316 0.001541 0.2316 0.001546 0.2316 0.001552 0.2316 0.001558 0.2316 0.001563 0.2316 0.001568 0.2316 0.001574 9.0325 0.061261 3.474 0.023332 0.69481 0.004593 0.69481 0.004527 2.316 0.014854 0.2316 0.001487 0.4632 0.003125 0.4632 0.003131 0.46321 0.003137 0.2316 0.001571 0.46321 0.003147 0.4632 0.003153 0.2316 0.001579 0.4632 0.003163 0.46321 0.003169 0.2316 0.001587 0.46321 0.003179 0.2316 0.001591 0.46321 0.003189 0.2316 0.001596 0.2316 0.001598 0.2316 0.001683 0.2316 0.001693 0.2316 0.001702 0.2316 0.001712 0.2316 0.001722 0.2316 0.001731 0.2316 0.001741 0.2316 0.001811 0.2316 0.002009 0.2316 0.00221 0.2316 0.005065 0.2316 0.005897 0.2316 0.008251 0.2316 0.011416 0.2316 0.01457 0.2316 0.014591 0.2316 0.014612 0.2316 0.014633 0.2316 0.014655 0.2316 0.014676 0.2316 0.014697 0.2316 0.01472 0.2316 0.01474 0.2316 0.014762 0.2316 0.014784 0.2316 0.014806 0.2316 0.014828 0.2316 0.014849 0.2316 0.014872 0.2316 0.014893 0.2316 0.014916 0.2316 0.014937 0.2316 0.01496 0.2316 0.014983 0.2316 0.015004 0.2316 0.015027 0.2316 0.01505 0.2316 0.015072 0.2316 0.015094 0.2316 0.015125 0.2316 0.015171 0.2316 0.01522 0.2316 0.015264 0.2316 0.0153 0.2316 0.015333 0.2316 0.015355 0.2316 0.015376 0.2316 0.015395 0.2316 0.015408 0.2316 0.015429 0.2316 0.015457 0.2316 0.015484 0.2316 0.015511 0.2316 0.015539 0.2316 0.015566 0.2316 0.015594 0.2316 0.015622 0.2316 0.01565 0.2316 0.015678 0.2316 0.015706 0.2316 0.015735 0.2316 0.015762 0.2316 0.015791 0.2316 0.01582 0.2316 0.015847 0.2316 0.015877 0.2316 0.015905 0.2316 0.015935 0.2316 0.015963 0.2316 0.015992 0.2316 0.016021 0.2316 0.016051 0.2316 0.01608 0.2316 0.016109 0.2316 0.016139 0.2316 0.016169 0.2316 0.016198 0.2316 0.016229 0.2316 0.016258 0.2316 0.016289 0.2316 0.01632 0.2316 0.016349 0.2316 0.032888 0.2316 0.032991 0.2316 0.033095 0.2316 0.033199 0.2316 0.033304 0.2316 0.033409 0.2316 0.033516 0.2316 0.033623 0.2316 0.03373 0.2316 0.033839 0.2316 0.033947 0.2316 0.034058 0.2316 0.034168 0.2316 0.034279 0.2316 0.034391 0.2316 0.034504 0.2316 0.034617 0.2316 0.034732 0.2316 0.034846 0.2316 0.034963 0.2316 0.035078 0.2316 0.035192 0.2316 0.035303 0.2316 0.035413 0.2316 0.035526 0.2316 0.035639 0.2316 0.035751 0.2316 0.035866 0.2316 0.035981 0.2316 0.036097 0.2316 0.036207 0.2316 0.036317 0.2316 0.036429 0.2316 0.036539 0.2316 0.036652 0.2316 0.036769 0.2316 0.036889 0.2316 0.03701 0.2316 0.037133 0.2316 0.037254 0.2316 0.037379 0.2316 0.037503 0.2316 0.037628 0.2316 0.037756 0.2316 0.037887 0.2316 0.038017 0.2316 0.038151 0.2316 0.038283 0.2316 0.038418 0.2316 0.038553 0.2316 0.03869 0.2316 0.038826 0.2316 0.038965 0.2316 0.039104 0.2316 0.039229 0.2316 0.039343 0.2316 0.039457 0.2316 0.039579 0.2316 0.039704 0.2316 0.03983 0.2316 0.039957 0.2316 0.040054 0.2316 0.040147 0.2316 0.040239 0.2316 0.040361 0.2316 0.040515 0.2316 0.04067 0.2316 0.040827 0.2316 0.040984 0.2316 0.041143 0.2316 0.041303 0.2316 0.041465 0.2316 0.041627 0.2316 0.041792 0.2316 0.041956 0.2316 0.042124 0.2316 0.042291 0.2316 0.042461 0.2316 0.042631 0.2316 0.042804 0.2316 0.042978 0.2316 0.043152 0.2316 0.043329 0.2316 0.043501 0.2316 0.043664 0.2316 0.043826 0.2316 0.043992 0.2316 0.044158 0.2316 0.044329 0.2316 0.044519 0.2316 0.044711 0.2316 0.044904 0.2316 0.0451 0.2316 0.045295 0.2316 0.045495 0.2316 0.045694 0.2316 0.045897 0.2316 0.0461 0.2316 0.046306 0.2316 0.046513 0.2316 0.046723 0.2316 0.046933 0.2316 0.047147 0.2316 0.047362 0.2316 0.04758 0.2316 0.047798 0.2316 0.048019 0.2316 0.048243 0.2316 0.048468 0.2316 0.048695 0.2316 0.048925 0.2316 0.049157 0.2316 0.049391 0.2316 0.049626 0.2316 0.049866 0.2316 0.050106 0.2316 0.05035 0.2316 0.050595 0.2316 0.050843 0.2316 0.051094 0.2316 0.051346 0.2316 0.051602 0.2316 0.05186 0.2316 0.052121 0.2316 0.052384 0.2316 0.052649 0.2316 0.052919 0.2316 0.05319 0.2316 0.053465 0.2316 0.053741 0.2316 0.054022 0.2316 0.054305 0.2316 0.054579 0.2316 0.054856 0.2316 0.055137 0.2316 0.05542 0.2316 0.055706 0.2316 0.055995 0.2316 0.056288 0.2316 0.056583 0.2316 0.056882 0.2316 0.057183 0.2316 0.057502 0.2316 0.057823 0.2316 0.05815 0.2316 0.05848 0.2316 0.058812 0.2316 0.05915 0.2316 0.059492 0.2316 0.059836 0.2316 0.060185 0.2316 0.060539 0.2316 0.060896 0.2316 0.061258 0.2316 0.061624 0.2316 0.061995 0.2316 0.062369 0.2316 0.062749 0.2316 0.063134 0.2316 0.063522 0.2316 0.063916 0.2316 0.064314 0.2316 0.064718 0.2316 0.065127 0.2316 0.065541 0.2316 0.065961 0.2316 0.066385 0.2316 0.066815 0.2316 0.067252 0.2316 0.067693 0.2316 0.06814 0.2316 0.068594 0.2316 0.069053 0.2316 0.069519 0.2316 0.069992 0.2316 0.070469 0.2316 0.070955 0.2316 0.071447 0.2316 0.071945 0.2316 0.072452 0.2316 0.072964 0.2316 0.073485 0.2316 0.074012 0.2316 0.074548 0.2316 0.075091 0.2316 0.075642 0.2316 0.076202 0.2316 0.07677 0.2316 0.077345 0.2316 0.077931 0.2316 0.078525 0.2316 0.079128 0.2316 0.079741 0.2316 0.080362 0.2316 0.080995 0.2316 0.081636 0.2316 0.082288 0.2316 0.082951 0.2316 0.083625 0.2316 0.084309 0.2316 0.085005 0.2316 0.085712 0.2316 0.086431 0.2316 0.087163 0.2316 0.087907 0.2316 0.088664 0.2316 0.089434 0.2316 0.090217 0.2316 0.091015 0.2316 0.091827 0.2316 0.092634 0.2316 0.093227 0.2316 0.094072 0.2316 0.095374 0.2316 0.096561 0.2316 0.097774 0.2316 0.099013 0.2316 0.10028 0.2316 0.10157 0.2316 0.1029 0.2316 0.10425 0.2316 0.10563 0.2316 0.10705 0.2316 0.1085v48.282h-389.78z" stroke="#0766aa" stroke-opacity=".2"/>
</defs>
<g clip-path="url(#j)">
<use y="413.19625" fill="#0766aa" fill-opacity=".2" stroke="#0766aa" stroke-opacity=".2" xlink:href="#af"/>
</g>
<path d="m40.603 170.63v-141.83" clip-path="url(#j)" fill="none" stroke="#b0b0b0" stroke-linecap="square" stroke-width=".8"/>
<defs>
<path id="g" d="m0 0v3.5" stroke="#000" stroke-width=".8"/>
</defs>
<use x="40.603125" y="170.627393" stroke="#000000" stroke-width=".8" xlink:href="#g"/>
<path d="m186.69 170.63v-141.83" clip-path="url(#j)" fill="none" stroke="#b0b0b0" stroke-linecap="square" stroke-width=".8"/>
<use x="186.694771" y="170.627393" stroke="#000000" stroke-width=".8" xlink:href="#g"/>
<path d="m332.79 170.63v-141.83" clip-path="url(#j)" fill="none" stroke="#b0b0b0" stroke-linecap="square" stroke-width=".8"/>
<use x="332.786416" y="170.627393" stroke="#000000" stroke-width=".8" xlink:href="#g"/>
<path d="m478.88 170.63v-141.83" clip-path="url(#j)" fill="none" stroke="#b0b0b0" stroke-linecap="square" stroke-width=".8"/>
<use x="478.878062" y="170.627393" stroke="#000000" stroke-width=".8" xlink:href="#g"/>
<defs>
<path id="b" d="m0 0h-3.5" stroke="#000" stroke-width=".8"/>
</defs>
<use x="40.603125" y="154.105211" stroke="#000000" stroke-width=".8" xlink:href="#b"/>
<defs>
<path id="e" d="m12.406 8.2969h16.109v55.625l-17.531-3.5156v8.9844l17.438 3.5156h9.8594v-64.609h16.109v-8.2969h-41.984z"/>
<path id="f" d="m31.781 66.406q-7.6094 0-11.453-7.5-3.8281-7.4844-3.8281-22.531 0-14.984 3.8281-22.484 3.8438-7.5 11.453-7.5 7.6719 0 11.5 7.5 3.8438 7.5 3.8438 22.484 0 15.047-3.8438 22.531-3.8281 7.5-11.5 7.5zm0 7.8125q12.266 0 18.734-9.7031 6.4688-9.6875 6.4688-28.141 0-18.406-6.4688-28.109-6.4688-9.6875-18.734-9.6875-12.25 0-18.719 9.6875-6.4688 9.7031-6.4688 28.109 0 18.453 6.4688 28.141 6.4688 9.7031 18.719 9.7031z"/>
</defs>
<g transform="translate(16.003 157.9) scale(.1 -.1)">
<use transform="translate(0 .68438)" xlink:href="#e"/>
<use transform="translate(63.623 .68438)" xlink:href="#f"/>
<use transform="translate(128.2 38.966) scale(.7)" xlink:href="#e"/>
</g>
<use x="40.603125" y="130.467312" stroke="#000000" stroke-width=".8" xlink:href="#b"/>
<defs>
<path id="r" d="m19.188 8.2969h34.422v-8.2969h-46.281v8.2969q5.6094 5.8125 15.297 15.594 9.7031 9.7969 12.188 12.641 4.7344 5.3125 6.6094 9 1.8906 3.6875 1.8906 7.25 0 5.8125-4.0781 9.4688-4.0781 3.6719-10.625 3.6719-4.6406 0-9.7969-1.6094-5.1406-1.6094-11-4.8906v9.9688q5.9531 2.3906 11.125 3.6094 5.1875 1.2188 9.4844 1.2188 11.328 0 18.062-5.6719 6.7344-5.6562 6.7344-15.125 0-4.5-1.6875-8.5312-1.6719-4.0156-6.125-9.4844-1.2188-1.4219-7.7656-8.1875-6.5312-6.7656-18.453-18.922z"/>
</defs>
<g transform="translate(16.003 134.27) scale(.1 -.1)">
<use transform="translate(0 .76562)" xlink:href="#e"/>
<use transform="translate(63.623 .76562)" xlink:href="#f"/>
<use transform="translate(128.2 39.047) scale(.7)" xlink:href="#r"/>
</g>
<use x="40.603125" y="106.829413" stroke="#000000" stroke-width=".8" xlink:href="#b"/>
<defs>
<path id="ad" d="m40.578 39.312q7.0781-1.5156 11.047-6.3125 3.9844-4.7812 3.9844-11.812 0-10.781-7.4219-16.703-7.4219-5.9062-21.094-5.9062-4.5781 0-9.4375 0.90625t-10.031 2.7188v9.5156q4.0938-2.3906 8.9688-3.6094 4.8906-1.2188 10.219-1.2188 9.2656 0 14.125 3.6562t4.8594 10.641q0 6.4531-4.5156 10.078-4.5156 3.6406-12.562 3.6406h-8.5v8.1094h8.8906q7.2656 0 11.125 2.9062t3.8594 8.375q0 5.6094-3.9844 8.6094-3.9688 3.0156-11.391 3.0156-4.0625 0-8.7031-0.89062-4.6406-0.875-10.203-2.7188v8.7812q5.625 1.5625 10.531 2.3438t9.25 0.78125q11.234 0 17.766-5.1094 6.5469-5.0938 6.5469-13.781 0-6.0625-3.4688-10.234t-9.8594-5.7812z"/>
</defs>
<g transform="translate(16.003 110.63) scale(.1 -.1)">
<use transform="translate(0 .76562)" xlink:href="#e"/>
<use transform="translate(63.623 .76562)" xlink:href="#f"/>
<use transform="translate(128.2 39.047) scale(.7)" xlink:href="#ad"/>
</g>
<use x="40.603125" y="83.191514" stroke="#000000" stroke-width=".8" xlink:href="#b"/>
<defs>
<path id="ac" d="m37.797 64.312-24.906-38.922h24.906zm-2.5938 8.5938h12.406v-47.516h10.406v-8.2031h-10.406v-17.188h-9.8125v17.188h-32.906v9.5156z"/>
</defs>
<g transform="translate(16.003 86.991) scale(.1 -.1)">
<use transform="translate(0 .68438)" xlink:href="#e"/>
<use transform="translate(63.623 .68438)" xlink:href="#f"/>
<use transform="translate(128.2 38.966) scale(.7)" xlink:href="#ac"/>
</g>
<use x="40.603125" y="59.553615" stroke="#000000" stroke-width=".8" xlink:href="#b"/>
<defs>
<path id="at" d="m10.797 72.906h38.719v-8.3125h-29.688v-17.859q2.1406 0.73438 4.2812 1.0938 2.1562 0.35938 4.3125 0.35938 12.203 0 19.328-6.6875 7.1406-6.6875 7.1406-18.109 0-11.766-7.3281-18.297-7.3281-6.5156-20.656-6.5156-4.5938 0-9.3594 0.78125-4.75 0.78125-9.8281 2.3438v9.9219q4.3906-2.3906 9.0781-3.5625t9.9062-1.1719q8.4531 0 13.375 4.4375 4.9375 4.4375 4.9375 12.062 0 7.6094-4.9375 12.047-4.9219 4.4531-13.375 4.4531-3.9531 0-7.8906-0.875-3.9219-0.875-8.0156-2.7344z"/>
</defs>
<g transform="translate(16.003 63.353) scale(.1 -.1)">
<use transform="translate(0 .68438)" xlink:href="#e"/>
<use transform="translate(63.623 .68438)" xlink:href="#f"/>
<use transform="translate(128.2 38.966) scale(.7)" xlink:href="#at"/>
</g>
<use x="40.603125" y="35.915717" stroke="#000000" stroke-width=".8" xlink:href="#b"/>
<defs>
<path id="q" d="m33.016 40.375q-6.6406 0-10.531-4.5469-3.875-4.5312-3.875-12.438 0-7.8594 3.875-12.438 3.8906-4.5625 10.531-4.5625t10.516 4.5625q3.875 4.5781 3.875 12.438 0 7.9062-3.875 12.438-3.875 4.5469-10.516 4.5469zm19.578 30.922v-8.9844q-3.7188 1.75-7.5 2.6719-3.7812 0.9375-7.5 0.9375-9.7656 0-14.922-6.5938-5.1406-6.5938-5.875-19.922 2.875 4.25 7.2188 6.5156 4.3594 2.2656 9.5781 2.2656 10.984 0 17.359-6.6719 6.375-6.6562 6.375-18.125 0-11.234-6.6406-18.031-6.6406-6.7812-17.672-6.7812-12.656 0-19.344 9.6875-6.6875 9.7031-6.6875 28.109 0 17.281 8.2031 27.562t22.016 10.281q3.7188 0 7.5-0.73438t7.8906-2.1875z"/>
</defs>
<g transform="translate(16.003 39.715) scale(.1 -.1)">
<use transform="translate(0 .76562)" xlink:href="#e"/>
<use transform="translate(63.623 .76562)" xlink:href="#f"/>
<use transform="translate(128.2 39.047) scale(.7)" xlink:href="#q"/>
</g>
<defs>
<path id="a" d="m0 0h-2" stroke="#000" stroke-width=".6"/>
</defs>
<use x="40.603125" y="170.627393" stroke="#000000" stroke-width=".6" xlink:href="#a"/>
<use x="40.603125" y="166.464966" stroke="#000000" stroke-width=".6" xlink:href="#a"/>
<use x="40.603125" y="163.511677" stroke="#000000" stroke-width=".6" xlink:href="#a"/>
<use x="40.603125" y="161.220927" stroke="#000000" stroke-width=".6" xlink:href="#a"/>
<use x="40.603125" y="159.349249" stroke="#000000" stroke-width=".6" xlink:href="#a"/>
<use x="40.603125" y="157.766768" stroke="#000000" stroke-width=".6" xlink:href="#a"/>
<use x="40.603125" y="156.39596" stroke="#000000" stroke-width=".6" xlink:href="#a"/>
<use x="40.603125" y="155.186822" stroke="#000000" stroke-width=".6" xlink:href="#a"/>
<use x="40.603125" y="146.989494" stroke="#000000" stroke-width=".6" xlink:href="#a"/>
<use x="40.603125" y="142.827067" stroke="#000000" stroke-width=".6" xlink:href="#a"/>
<use x="40.603125" y="139.873778" stroke="#000000" stroke-width=".6" xlink:href="#a"/>
<use x="40.603125" y="137.583029" stroke="#000000" stroke-width=".6" xlink:href="#a"/>
<use x="40.603125" y="135.71135" stroke="#000000" stroke-width=".6" xlink:href="#a"/>
<use x="40.603125" y="134.128869" stroke="#000000" stroke-width=".6" xlink:href="#a"/>
<use x="40.603125" y="132.758061" stroke="#000000" stroke-width=".6" xlink:href="#a"/>
<use x="40.603125" y="131.548923" stroke="#000000" stroke-width=".6" xlink:href="#a"/>
<use x="40.603125" y="123.351595" stroke="#000000" stroke-width=".6" xlink:href="#a"/>
<use x="40.603125" y="119.189168" stroke="#000000" stroke-width=".6" xlink:href="#a"/>
<use x="40.603125" y="116.235879" stroke="#000000" stroke-width=".6" xlink:href="#a"/>
<use x="40.603125" y="113.94513" stroke="#000000" stroke-width=".6" xlink:href="#a"/>
<use x="40.603125" y="112.073451" stroke="#000000" stroke-width=".6" xlink:href="#a"/>
<use x="40.603125" y="110.49097" stroke="#000000" stroke-width=".6" xlink:href="#a"/>
<use x="40.603125" y="109.120162" stroke="#000000" stroke-width=".6" xlink:href="#a"/>
<use x="40.603125" y="107.911024" stroke="#000000" stroke-width=".6" xlink:href="#a"/>
<use x="40.603125" y="99.713697" stroke="#000000" stroke-width=".6" xlink:href="#a"/>
<use x="40.603125" y="95.551269" stroke="#000000" stroke-width=".6" xlink:href="#a"/>
<use x="40.603125" y="92.59798" stroke="#000000" stroke-width=".6" xlink:href="#a"/>
<use x="40.603125" y="90.307231" stroke="#000000" stroke-width=".6" xlink:href="#a"/>
<use x="40.603125" y="88.435553" stroke="#000000" stroke-width=".6" xlink:href="#a"/>
<use x="40.603125" y="86.853071" stroke="#000000" stroke-width=".6" xlink:href="#a"/>
<use x="40.603125" y="85.482263" stroke="#000000" stroke-width=".6" xlink:href="#a"/>
<use x="40.603125" y="84.273125" stroke="#000000" stroke-width=".6" xlink:href="#a"/>
<use x="40.603125" y="76.075798" stroke="#000000" stroke-width=".6" xlink:href="#a"/>
<use x="40.603125" y="71.91337" stroke="#000000" stroke-width=".6" xlink:href="#a"/>
<use x="40.603125" y="68.960081" stroke="#000000" stroke-width=".6" xlink:href="#a"/>
<use x="40.603125" y="66.669332" stroke="#000000" stroke-width=".6" xlink:href="#a"/>
<use x="40.603125" y="64.797654" stroke="#000000" stroke-width=".6" xlink:href="#a"/>
<use x="40.603125" y="63.215172" stroke="#000000" stroke-width=".6" xlink:href="#a"/>
<use x="40.603125" y="61.844365" stroke="#000000" stroke-width=".6" xlink:href="#a"/>
<use x="40.603125" y="60.635226" stroke="#000000" stroke-width=".6" xlink:href="#a"/>
<use x="40.603125" y="52.437899" stroke="#000000" stroke-width=".6" xlink:href="#a"/>
<use x="40.603125" y="48.275471" stroke="#000000" stroke-width=".6" xlink:href="#a"/>
<use x="40.603125" y="45.322182" stroke="#000000" stroke-width=".6" xlink:href="#a"/>
<use x="40.603125" y="43.031433" stroke="#000000" stroke-width=".6" xlink:href="#a"/>
<use x="40.603125" y="41.159755" stroke="#000000" stroke-width=".6" xlink:href="#a"/>
<use x="40.603125" y="39.577273" stroke="#000000" stroke-width=".6" xlink:href="#a"/>
<use x="40.603125" y="38.206466" stroke="#000000" stroke-width=".6" xlink:href="#a"/>
<use x="40.603125" y="36.997328" stroke="#000000" stroke-width=".6" xlink:href="#a"/>
<use x="40.603125" y="28.8" stroke="#000000" stroke-width=".6" xlink:href="#a"/>
<path d="m77.346 143.67 10.191 2.5933 6.4849 1.2235 3.474 0.72399 1.6212 0.03372 7.1797-0.25419 5.3269-0.24485 10.654-0.36806 2.316-0.26072 7.1797-0.89436 4.8637-0.33764 4.6321-0.11068 2.5476-0.086628 3.474-0.49472 3.7056-0.2891 4.4005-0.089502 5.7901-0.083268 2.316-0.45928 4.4005-0.85059 3.7056-0.47859 3.9372-0.27528 9.7273-0.28286 3.474 0.18649 12.275 1.1978 3.9372 0.50898 3.7056 0.70748 3.2424 0.83575 3.0108 1.0013 2.316 0.7952 3.7056 0.80822 3.474 0.98958 3.0108 1.0867 2.7792 1.2486 2.316 1.2784 2.5476 1.439 1.158 0.39574 3.9372 1.1673 5.0953 1.7926 7.1797 2.4984 0.69481-0.097158 1.3896-0.60103 1.158-0.77273 4.1688-3.5707 3.7056-3.7161 0.69481-0.90906 1.3896-1.7106 1.6212-1.6175 1.8528-1.498 2.0844-1.3656 2.316-1.2273 2.5476-1.0864 2.7792-0.94371 3.2424-0.85146 3.474-0.67174 5.0953-0.70336 4.4005-0.41499 4.4005-0.18906 4.4005 0.04036 3.9372 0.24882 3.7056 0.44246 3.474 0.63167 3.2424 0.82303 3.0108 0.99963 2.5476 1.0704 2.5476 1.3139 4.1688 2.4704 6.7165 4.1036 4.6321 0.35372 4.6321 0.56945 4.1688 0.72353 3.9372 0.90791 3.474 1.03 3.2424 1.2023 1.8528 0.55748 8.8009 2.2461 4.8637 1.0268 5.0953 0.81924 3.9372 0.42116 11.349 0.95384 8.8009 1.0062 4.4005 0.66112 4.4005 0.87936 5.3269 1.2958 5.7901 1.6403 8.3377 2.6307 5.7901 1.955 3.9372 1.6047 3.474 1.6491 3.2424 1.776 3.0108 1.8977 2.7792 2.0126 2.5476 2.1182 2.316 2.21 2.0844 2.2815 1.8528 2.3235 1.8528 2.6816v0" clip-path="url(#j)" fill="none" stroke="#dc143c" stroke-linecap="square" stroke-width="1.5"/>
<path d="m40.603 170.63v-141.83" fill="none" stroke="#000" stroke-linecap="square" stroke-width=".8"/>
<path d="m486.62 170.63v-141.83" fill="none" stroke="#000" stroke-linecap="square" stroke-width=".8"/>
<path d="m40.603 170.63h446.02" fill="none" stroke="#000" stroke-linecap="square" stroke-width=".8"/>
<path d="m40.603 28.8h446.02" fill="none" stroke="#000" stroke-linecap="square" stroke-width=".8"/>
<path d="m324.59 66.156h155.04q2 0 2-2v-28.356q0-2-2-2h-155.04q-2 0-2 2v28.356q0 2 2 2z" fill="#fff" opacity=".8" stroke="#ccc"/>
<path d="m326.59 41.898h20" fill="none" stroke="#dc143c" stroke-linecap="square" stroke-width="1.5"/>
<defs>
<path id="h" d="m41.109 46.297q-1.5156 0.875-3.2969 1.2812-1.7812 0.42188-3.9219 0.42188-7.625 0-11.703-4.9531t-4.0781-14.234v-28.812h-9.0312v54.688h9.0312v-8.5q2.8438 4.9844 7.375 7.3906 4.5469 2.4219 11.047 2.4219 0.92188 0 2.0469-0.125 1.125-0.10938 2.4844-0.35938z"/>
<path id="k" d="m34.281 27.484q-10.891 0-15.094-2.4844t-4.2031-8.5q0-4.7812 3.1562-7.5938 3.1562-2.7969 8.5625-2.7969 7.4844 0 12 5.2969t4.5156 14.078v2zm17.922 3.7188v-31.203h-8.9844v8.2969q-3.0781-4.9688-7.6719-7.3438t-11.234-2.375q-8.3906 0-13.359 4.7188-4.9531 4.7188-4.9531 12.625 0 9.2188 6.1719 13.906 6.1875 4.6875 18.438 4.6875h12.609v0.89062q0 6.2031-4.0781 9.5938t-11.453 3.3906q-4.6875 0-9.1406-1.125-4.4375-1.125-8.5312-3.375v8.3125q4.9219 1.9062 9.5625 2.8438 4.6406 0.95312 9.0312 0.95312 11.875 0 17.734-6.1562 5.8594-6.1406 5.8594-18.641z"/>
<path id="v" d="m18.312 70.219v-15.531h18.5v-6.9844h-18.5v-29.688q0-6.6875 1.8281-8.5938t7.4531-1.9062h9.2188v-7.5156h-9.2188q-10.406 0-14.359 3.875-3.9531 3.8906-3.9531 14.141v29.688h-6.5938v6.9844h6.5938v15.531z"/>
<path id="c" d="m56.203 29.594v-4.3906h-41.312q0.59375-9.2812 5.5938-14.141t13.938-4.8594q5.1719 0 10.031 1.2656t9.6562 3.8125v-8.5q-4.8438-2.0469-9.9219-3.125t-10.297-1.0781q-13.094 0-20.734 7.6094-7.6406 7.625-7.6406 20.625 0 13.422 7.25 21.297 7.25 7.8906 19.562 7.8906 11.031 0 17.453-7.1094 6.4219-7.0938 6.4219-19.297zm-8.9844 2.6406q-0.09375 7.3594-4.125 11.75-4.0312 4.4062-10.672 4.4062-7.5156 0-12.031-4.25t-5.2031-11.969z"/>
<path id="l" d="m30.609 48.391q-7.2188 0-11.422-5.6406t-4.2031-15.453 4.1719-15.453q4.1875-5.6406 11.453-5.6406 7.1875 0 11.375 5.6562 4.2031 5.6719 4.2031 15.438 0 9.7188-4.2031 15.406-4.1875 5.6875-11.375 5.6875zm0 7.6094q11.719 0 18.406-7.625 6.7031-7.6094 6.7031-21.078 0-13.422-6.7031-21.078-6.6875-7.6406-18.406-7.6406-11.766 0-18.438 7.6406-6.6562 7.6562-6.6562 21.078 0 13.469 6.6562 21.078 6.6719 7.625 18.438 7.625z"/>
<path id="x" d="m37.109 75.984v-7.4844h-8.5938q-4.8281 0-6.7188-1.9531-1.875-1.9531-1.875-7.0312v-4.8281h14.797v-6.9844h-14.797v-47.703h-9.0312v47.703h-8.5938v6.9844h8.5938v3.8125q0 9.125 4.25 13.297 4.25 4.1875 13.469 4.1875z"/>
<path id="m" d="m9.4219 54.688h8.9844v-54.688h-8.9844zm0 21.297h8.9844v-11.391h-8.9844z"/>
<path id="p" d="m9.4219 75.984h8.9844v-75.984h-8.9844z"/>
<path id="u" d="m8.5 21.578v33.109h8.9844v-32.766q0-7.7656 3.0156-11.656 3.0312-3.875 9.0938-3.875 7.2656 0 11.484 4.6406 4.2344 4.6406 4.2344 12.656v31h8.9844v-54.688h-8.9844v8.4062q-3.2656-4.9844-7.5938-7.4062-4.3125-2.4219-10.031-2.4219-9.4219 0-14.312 5.8594-4.875 5.8594-4.875 17.141zm22.609 34.422z"/>
<path id="i" d="m44.281 53.078v-8.5q-3.7969 1.9531-7.9062 2.9219-4.0938 0.98438-8.5 0.98438-6.6875 0-10.031-2.0469t-3.3438-6.1562q0-3.125 2.3906-4.9062t9.625-3.3906l3.0781-0.6875q9.5625-2.0469 13.594-5.7812t4.0312-10.422q0-7.625-6.0312-12.078-6.0312-4.4375-16.578-4.4375-4.3906 0-9.1562 0.85938t-10.031 2.5625v9.2812q4.9844-2.5938 9.8125-3.8906 4.8281-1.2812 9.5781-1.2812 6.3438 0 9.75 2.1719 3.4219 2.1719 3.4219 6.125 0 3.6562-2.4688 5.6094-2.4531 1.9531-10.812 3.7656l-3.125 0.73438q-8.3438 1.75-12.062 5.3906-3.7031 3.6406-3.7031 9.9844 0 7.7188 5.4688 11.906 5.4688 4.2031 15.531 4.2031 4.9688 0 9.3594-0.73438 4.4062-0.71875 8.1094-2.1875z"/>
<path id="t" d="m31 75.875q-6.5312-11.219-9.7188-22.219-3.1719-10.984-3.1719-22.266 0-11.266 3.2031-22.328t9.6875-22.25h-7.8125q-7.3125 11.484-10.953 22.562t-3.6406 22.016q0 10.891 3.6094 21.922 3.625 11.047 10.984 22.562z"/>
<path id="n" d="m45.406 46.391v29.594h8.9844v-75.984h-8.9844v8.2031q-2.8281-4.875-7.1562-7.25-4.3125-2.375-10.375-2.375-9.9062 0-16.141 7.9062-6.2188 7.9219-6.2188 20.812t6.2188 20.797q6.2344 7.9062 16.141 7.9062 6.0625 0 10.375-2.375 4.3281-2.3594 7.1562-7.2344zm-30.609-19.094q0-9.9062 4.0781-15.547t11.203-5.6406 11.219 5.6406q4.1094 5.6406 4.1094 15.547t-4.1094 15.547q-4.0938 5.6406-11.219 5.6406t-11.203-5.6406-4.0781-15.547z"/>
<path id="w" d="m9.0781 75.984h9.0312v-44.875l26.812 23.578h11.469l-29-25.578 30.234-29.109h-11.719l-27.797 26.703v-26.703h-9.0312z"/>
<path id="ae" d="m25.391 72.906h8.2969l-25.391-82.188h-8.2969z"/>
<path id="o" d="m32.172-5.0781q-3.7969-9.7656-7.4219-12.734-3.6094-2.9844-9.6562-2.9844h-7.1875v7.5156h5.2812q3.7031 0 5.75 1.7656 2.0625 1.75 4.5469 8.2969l1.6094 4.0938-22.109 53.812h9.5156l17.094-42.766 17.094 42.766h9.5156z"/>
<path id="s" d="m8.0156 75.875h7.8125q7.3125-11.516 10.953-22.562 3.6406-11.031 3.6406-21.922 0-10.938-3.6406-22.016t-10.953-22.562h-7.8125q6.4844 11.188 9.6875 22.25t3.2031 22.328q0 11.281-3.2031 22.266-3.2031 11-9.6875 22.219z"/>
</defs>
<g transform="translate(354.59 45.398) scale(.1 -.1)">
<use xlink:href="#h"/>
<use x="41.113281" xlink:href="#k"/>
<use x="102.392578" xlink:href="#v"/>
<use x="141.601562" xlink:href="#c"/>
<use x="203.125" xlink:href="#DejaVuSans-20"/>
<use x="234.912109" xlink:href="#l"/>
<use x="296.09375" xlink:href="#x"/>
<use x="331.298828" xlink:href="#DejaVuSans-20"/>
<use x="363.085938" xlink:href="#x"/>
<use x="398.291016" xlink:href="#k"/>
<use x="459.570312" xlink:href="#m"/>
<use x="487.353516" xlink:href="#p"/>
<use x="515.136719" xlink:href="#u"/>
<use x="578.515625" xlink:href="#h"/>
<use x="619.597656" xlink:href="#c"/>
<use x="681.121094" xlink:href="#i"/>
<use x="733.220703" xlink:href="#DejaVuSans-20"/>
<use x="765.007812" xlink:href="#t"/>
<use x="804.021484" xlink:href="#n"/>
<use x="867.498047" xlink:href="#m"/>
<use x="895.28125" xlink:href="#i"/>
<use x="947.380859" xlink:href="#w"/>
<use x="1005.291016" xlink:href="#i"/>
<use x="1057.390625" xlink:href="#ae"/>
<use x="1091.082031" xlink:href="#o"/>
<use x="1150.261719" xlink:href="#h"/>
<use x="1191.375" xlink:href="#s"/>
</g>
<path d="m326.59 60.077h20v-7h-20z" fill="#0766aa" fill-opacity=".2" stroke="#0766aa" stroke-opacity=".2"/>
<defs>
<path id="al" d="m48.688 27.297q0 9.9062-4.0781 15.547t-11.203 5.6406q-7.1406 0-11.219-5.6406t-4.0781-15.547 4.0781-15.547 11.219-5.6406q7.125 0 11.203 5.6406t4.0781 15.547zm-30.578 19.094q2.8438 4.875 7.1562 7.2344 4.3281 2.375 10.328 2.375 9.9688 0 16.188-7.9062 6.2344-7.9062 6.2344-20.797t-6.2344-20.812q-6.2188-7.9062-16.188-7.9062-6 0-10.328 2.375-4.3125 2.375-7.1562 7.25v-8.2031h-9.0312v75.984h9.0312z"/>
<path id="ah" d="m2.9844 54.688h9.5156l17.094-45.891 17.094 45.891h9.5156l-20.516-54.688h-12.203z"/>
</defs>
<g transform="translate(354.59 60.077) scale(.1 -.1)">
<use xlink:href="#n"/>
<use x="63.476562" xlink:href="#m"/>
<use x="91.259766" xlink:href="#i"/>
<use x="143.359375" xlink:href="#w"/>
<use x="201.269531" xlink:href="#i"/>
<use x="253.369141" xlink:href="#DejaVuSans-20"/>
<use x="285.15625" xlink:href="#l"/>
<use x="346.337891" xlink:href="#al"/>
<use x="409.814453" xlink:href="#i"/>
<use x="461.914062" xlink:href="#c"/>
<use x="523.4375" xlink:href="#h"/>
<use x="564.550781" xlink:href="#ah"/>
<use x="623.730469" xlink:href="#c"/>
<use x="685.253906" xlink:href="#n"/>
</g>
<path d="m40.603 375.64h446.02v-189.1h-446.02z" fill="#fff"/>
<path d="m40.603 375.64v-189.1" clip-path="url(#d)" fill="none" stroke="#b0b0b0" stroke-linecap="square" stroke-width=".8"/>
<use x="40.603125" y="375.64" stroke="#000000" stroke-width=".8" xlink:href="#g"/>
<g transform="translate(37.422 390.24) scale(.1 -.1)">
<use xlink:href="#f"/>
</g>
<path d="m186.69 375.64v-189.1" clip-path="url(#d)" fill="none" stroke="#b0b0b0" stroke-linecap="square" stroke-width=".8"/>
<use x="186.694771" y="375.64" stroke="#000000" stroke-width=".8" xlink:href="#g"/>
<g transform="translate(183.51 390.24) scale(.1 -.1)">
<use xlink:href="#e"/>
</g>
<path d="m332.79 375.64v-189.1" clip-path="url(#d)" fill="none" stroke="#b0b0b0" stroke-linecap="square" stroke-width=".8"/>
<use x="332.786416" y="375.64" stroke="#000000" stroke-width=".8" xlink:href="#g"/>
<g transform="translate(329.61 390.24) scale(.1 -.1)">
<use xlink:href="#r"/>
</g>
<path d="m478.88 375.64v-189.1" clip-path="url(#d)" fill="none" stroke="#b0b0b0" stroke-linecap="square" stroke-width=".8"/>
<use x="478.878062" y="375.64" stroke="#000000" stroke-width=".8" xlink:href="#g"/>
<g transform="translate(475.7 390.24) scale(.1 -.1)">
<use xlink:href="#ad"/>
</g>
<defs>
<path id="aq" d="m34.188 63.188-13.391-36.281h26.812zm-5.5781 9.7188h11.188l27.781-72.906h-10.25l-6.6406 18.703h-32.859l-6.6406-18.703h-10.406z"/>
<path id="ak" d="m45.406 27.984q0 9.7656-4.0312 15.125-4.0156 5.375-11.297 5.375-7.2188 0-11.25-5.375-4.0312-5.3594-4.0312-15.125 0-9.7188 4.0312-15.094t11.25-5.375q7.2812 0 11.297 5.375 4.0312 5.375 4.0312 15.094zm8.9844-21.203q0-13.953-6.2031-20.766-6.1875-6.8125-18.984-6.8125-4.7344 0-8.9375 0.70312t-8.1562 2.1719v8.7344q3.9531-2.1406 7.8125-3.1562 3.8594-1.0312 7.8594-1.0312 8.8438 0 13.234 4.6094t4.3906 13.938v4.4531q-2.7812-4.8438-7.125-7.2344t-10.406-2.3906q-10.047 0-16.203 7.6562-6.1562 7.6719-6.1562 20.328 0 12.688 6.1562 20.344 6.1562 7.6719 16.203 7.6719 6.0625 0 10.406-2.3906t7.125-7.2188v8.2969h8.9844z"/>
<path id="ai" d="m18.109 8.2031v-29h-9.0312v75.484h9.0312v-8.2969q2.8438 4.875 7.1562 7.2344 4.3281 2.375 10.328 2.375 9.9688 0 16.188-7.9062 6.2344-7.9062 6.2344-20.797t-6.2344-20.812q-6.2188-7.9062-16.188-7.9062-6 0-10.328 2.375-4.3125 2.375-7.1562 7.25zm30.578 19.094q0 9.9062-4.0781 15.547t-11.203 5.6406q-7.1406 0-11.219-5.6406t-4.0781-15.547 4.0781-15.547 11.219-5.6406q7.125 0 11.203 5.6406t4.0781 15.547z"/>
<path id="ag" d="m4.2031 54.688h8.9844l11.234-42.672 11.172 42.672h10.594l11.234-42.672 11.188 42.672h8.9844l-14.312-54.688h-10.594l-11.766 44.828-11.812-44.828h-10.609z"/>
<path id="au" d="m4.8906 31.391h26.312v-8h-26.312z"/>
<path id="aj" d="m54.891 33.016v-33.016h-8.9844v32.719q0 7.7656-3.0312 11.609-3.0312 3.8594-9.0781 3.8594-7.2812 0-11.484-4.6406-4.2031-4.625-4.2031-12.641v-30.906h-9.0312v54.688h9.0312v-8.5q3.2344 4.9375 7.5938 7.375 4.375 2.4375 10.094 2.4375 9.4219 0 14.25-5.8281 4.8438-5.8281 4.8438-17.156z"/>
</defs>
<g transform="translate(209.62 403.92) scale(.1 -.1)">
<use xlink:href="#aq"/>
<use x="68.408203" xlink:href="#ak"/>
<use x="131.884766" xlink:href="#c"/>
<use x="193.408203" xlink:href="#DejaVuSans-20"/>
<use x="225.195312" xlink:href="#t"/>
<use x="264.208984" xlink:href="#ai"/>
<use x="327.685547" xlink:href="#l"/>
<use x="388.867188" xlink:href="#ag"/>
<use x="470.654297" xlink:href="#c"/>
<use x="532.177734" xlink:href="#h"/>
<use x="573.197266" xlink:href="#au"/>
<use x="609.296875" xlink:href="#l"/>
<use x="670.478516" xlink:href="#aj"/>
<use x="733.857422" xlink:href="#DejaVuSans-20"/>
<use x="765.644531" xlink:href="#o"/>
<use x="824.824219" xlink:href="#c"/>
<use x="886.347656" xlink:href="#k"/>
<use x="947.626953" xlink:href="#h"/>
<use x="988.740234" xlink:href="#i"/>
<use x="1040.839844" xlink:href="#s"/>
</g>
<path d="m40.603 375.64h446.02" clip-path="url(#d)" fill="none" stroke="#b0b0b0" stroke-linecap="square" stroke-width=".8"/>
<use x="40.603125" y="375.64" stroke="#000000" stroke-width=".8" xlink:href="#b"/>
<g transform="translate(27.241 379.44) scale(.1 -.1)">
<use xlink:href="#f"/>
</g>
<path d="m40.603 328.36h446.02" clip-path="url(#d)" fill="none" stroke="#b0b0b0" stroke-linecap="square" stroke-width=".8"/>
<use x="40.603125" y="328.364202" stroke="#000000" stroke-width=".8" xlink:href="#b"/>
<g transform="translate(27.241 332.16) scale(.1 -.1)">
<use xlink:href="#ac"/>
</g>
<path d="m40.603 281.09h446.02" clip-path="url(#d)" fill="none" stroke="#b0b0b0" stroke-linecap="square" stroke-width=".8"/>
<use x="40.603125" y="281.088405" stroke="#000000" stroke-width=".8" xlink:href="#b"/>
<defs>
<path id="as" d="m31.781 34.625q-7.0312 0-11.062-3.7656-4.0156-3.7656-4.0156-10.344 0-6.5938 4.0156-10.359 4.0312-3.7656 11.062-3.7656t11.078 3.7812q4.0625 3.7969 4.0625 10.344 0 6.5781-4.0312 10.344-4.0156 3.7656-11.109 3.7656zm-9.8594 4.1875q-6.3438 1.5625-9.8906 5.9062-3.5312 4.3594-3.5312 10.609 0 8.7344 6.2188 13.812 6.2344 5.0781 17.062 5.0781 10.891 0 17.094-5.0781t6.2031-13.812q0-6.25-3.5469-10.609-3.5312-4.3438-9.8281-5.9062 7.125-1.6562 11.094-6.5 3.9844-4.8281 3.9844-11.797 0-10.609-6.4688-16.281-6.4688-5.6562-18.531-5.6562-12.047 0-18.531 5.6562-6.4688 5.6719-6.4688 16.281 0 6.9688 4 11.797 4.0156 4.8438 11.141 6.5zm-3.6094 15.578q0-5.6562 3.5312-8.8281 3.5469-3.1719 9.9375-3.1719 6.3594 0 9.9375 3.1719 3.5938 3.1719 3.5938 8.8281 0 5.6719-3.5938 8.8438-3.5781 3.1719-9.9375 3.1719-6.3906 0-9.9375-3.1719-3.5312-3.1719-3.5312-8.8438z"/>
</defs>
<g transform="translate(27.241 284.89) scale(.1 -.1)">
<use xlink:href="#as"/>
</g>
<path d="m40.603 233.81h446.02" clip-path="url(#d)" fill="none" stroke="#b0b0b0" stroke-linecap="square" stroke-width=".8"/>
<use x="40.603125" y="233.812607" stroke="#000000" stroke-width=".8" xlink:href="#b"/>
<g transform="translate(20.878 237.61) scale(.1 -.1)">
<use xlink:href="#e"/>
<use x="63.623047" xlink:href="#r"/>
</g>
<path d="m40.603 186.54h446.02" clip-path="url(#d)" fill="none" stroke="#b0b0b0" stroke-linecap="square" stroke-width=".8"/>
<use x="40.603125" y="186.536809" stroke="#000000" stroke-width=".8" xlink:href="#b"/>
<g transform="translate(20.878 190.34) scale(.1 -.1)">
<use xlink:href="#e"/>
<use x="63.623047" xlink:href="#q"/>
</g>
<defs>
<path id="aa" d="m9.8125 72.906h41.891v-8.3125h-32.031v-21.484h28.906v-8.2969h-28.906v-34.812h-9.8594z"/>
<path id="z" d="m44.391 34.188q3.1719-1.0781 6.1719-4.5938t6.0312-9.6719l10.016-19.922h-10.609l-9.3125 18.703q-3.625 7.3281-7.0156 9.7188t-9.25 2.3906h-10.75v-30.812h-9.8594v72.906h22.266q12.5 0 18.656-5.2344 6.1562-5.2188 6.1562-15.766 0-6.8906-3.2031-11.438-3.2031-4.5312-9.2969-6.2812zm-24.719 30.609v-25.875h12.406q7.125 0 10.766 3.2969t3.6406 9.6875-3.6406 9.6406-10.766 3.25z"/>
<path id="av" d="m72.703 32.078q-4.25 0-6.6719-3.6094-2.4062-3.6094-2.4062-10.062 0-6.3438 2.4062-9.9844 2.4219-3.6406 6.6719-3.6406 4.1562 0 6.5625 3.6406 2.4219 3.6406 2.4219 9.9844 0 6.4062-2.4219 10.031-2.4062 3.6406-6.5625 3.6406zm0 6.2031q7.7188 0 12.25-5.375 4.5469-5.3594 4.5469-14.5 0-9.125-4.5625-14.484-4.5625-5.3438-12.234-5.3438-7.8125 0-12.359 5.3438-4.5312 5.3594-4.5312 14.484 0 9.1875 4.5625 14.531t12.328 5.3438zm-50.391 29.734q-4.2031 0-6.625-3.6406-2.4062-3.625-2.4062-9.9844 0-6.4375 2.3906-10.062 2.3906-3.6094 6.6406-3.6094t6.6562 3.6094q2.4219 3.625 2.4219 10.062 0 6.2969-2.4375 9.9531-2.4375 3.6719-6.6406 3.6719zm44.094 6.2031h7.8125l-45.609-75.641h-7.8125zm-44.094 0q7.7188 0 12.297-5.3438 4.5938-5.3438 4.5938-14.484 0-9.2188-4.5625-14.547t-12.328-5.3281-12.281 5.3438q-4.5156 5.3594-4.5156 14.531 0 9.0938 4.5312 14.453 4.5469 5.375 12.266 5.375z"/>
</defs>
<g transform="translate(14.798 334.34) rotate(-90) scale(.1 -.1)">
<use xlink:href="#aa"/>
<use x="57.378906" xlink:href="#k"/>
<use x="118.658203" xlink:href="#m"/>
<use x="146.441406" xlink:href="#p"/>
<use x="174.224609" xlink:href="#u"/>
<use x="237.603516" xlink:href="#h"/>
<use x="278.685547" xlink:href="#c"/>
<use x="340.208984" xlink:href="#DejaVuSans-20"/>
<use x="371.996094" xlink:href="#z"/>
<use x="441.447266" xlink:href="#k"/>
<use x="502.726562" xlink:href="#v"/>
<use x="541.935547" xlink:href="#c"/>
<use x="603.458984" xlink:href="#DejaVuSans-20"/>
<use x="635.246094" xlink:href="#t"/>
<use x="674.259766" xlink:href="#av"/>
<use x="769.279297" xlink:href="#ae"/>
<use x="802.970703" xlink:href="#o"/>
<use x="862.150391" xlink:href="#c"/>
<use x="923.673828" xlink:href="#k"/>
<use x="984.953125" xlink:href="#h"/>
<use x="1026.066406" xlink:href="#s"/>
</g>
<path d="m77.346 308.14 1.158 2.6735 1.158 1.7819 4.8637 7.38 1.3896 1.9875 1.3896 1.4867 2.0844 1.7352 3.474 3.0543 1.8528 1.8825 1.8528 1.9501 1.3896 0.55732 0.4632 0.039835 3.7056-0.3163 2.0844-0.21256 2.5476-0.84518 2.5476-0.61657 2.5476-0.39718 2.5476-0.18702 3.2424-0.16472 5.0953-1.5426 0.69481-0.32949 7.8745-5.0535 2.316-1.0593 2.316-0.8205 2.316-0.58035 1.8528-0.24423 3.2424-0.24808 0.4632-0.31372 1.8528-1.6563 1.6212-1.1819 1.6212-0.93229 1.6212-0.68259 1.6212-0.43467 1.8528-0.27307 2.0844-0.070237 2.0844 0.1718 0.92641 0.029898 1.158-0.18938 0.4632-0.27489 0.92641-0.82686 0.69481-0.79753 3.2424-4.5163 2.0844-2.6299 1.8528-1.9759 1.6212-1.4404 1.6212-1.1693 1.6212-0.89642 1.6212-0.62177 1.3896-0.31298 1.6212-0.2991 0.92641-0.4565 1.3896-0.74256 1.3896-0.47296 1.3896-0.20288 1.158 0.037577 1.158 0.22573 1.3896 0.51962 1.3896 0.79142 2.316 1.4584 2.0844 1.3129 2.0844 1.5903 1.158 0.88594 3.2424 1.901 2.316 1.5592 1.8528 1.5717 1.8528 1.8773 1.8528 2.1812 2.0844 2.8152 2.0844 3.1979 2.316 4.0004 2.316 4.125 0.69481 0.74781 2.316 2.1719 2.316 2.4683 2.5476 3.0522 2.5476 3.4015 2.7792 4.1059 2.7792 4.5139 1.3896 2.2425 1.158 1.3293 0.69481 0.54785 4.1688 2.6994 6.2533 4.1261 4.1688 2.4311 1.3896 0.65186 0.69481 0.043862 0.69481-0.23965 1.158-0.75357 0.92641-0.90622 1.158-1.5732 1.8528-2.8933 1.158-2.1673 1.158-2.6638 1.6212-4.3494 1.158-3.6584 0.4632-1.9711 2.7792-13.132 2.7792-12.032 2.5476-10.056 2.5476-9.1175 2.316-7.475 2.316-6.6956 2.0844-5.3513 2.0844-4.7078 1.8528-3.6385 1.8528-3.1203 5.3269-7.9731 1.6212-1.8529 1.6212-1.5222 1.3896-1.0378 1.3896-0.76913 1.3896-0.49913 1.158-0.20658 1.158-0.013587 1.158 0.18193 1.158 0.38754 1.158 0.60412 1.158 0.8228 1.3896 1.279 1.3896 1.6007 1.3896 1.926 1.6212 2.6632 1.6212 3.1399 1.6212 3.6632 1.8528 4.7565 1.8528 5.3448 2.0844 6.7132 2.0844 7.4519 3.0108 11.753 2.5476 9.7363 3.9372 13.418 1.6212 4.5522 1.3896 3.3908 0.92641 1.7465 2.5476 0.58392 2.5476 0.81509 2.7792 1.135 2.7792 1.3926 2.7792 1.6525 2.7792 1.9138 2.7792 2.1748 3.0108 2.6502 3.0108 2.7144 2.7792 1.6629 3.474 1.8664 3.474 1.6043 3.2424 1.2533 3.0108 0.92217 3.474 0.83959 3.2424 0.54811 4.4005 0.4493 7.8745 0.93628 3.474 0.35283 7.6429 0.60981 4.1688 0.56697 5.3269 0.76426 7.1797 0.94944 13.896 1.8925 5.5585 0.8837 5.7901 1.1533 6.0217 1.4298 6.9481 1.8854 3.9372 1.1283v0" clip-path="url(#d)" fill="none" stroke="#d2691e" stroke-linecap="square" stroke-width="1.5"/>
<path d="m40.603 375.64v-189.1" fill="none" stroke="#000" stroke-linecap="square" stroke-width=".8"/>
<path d="m486.62 375.64v-189.1" fill="none" stroke="#000" stroke-linecap="square" stroke-width=".8"/>
<path d="m40.603 375.64h446.02" fill="none" stroke="#000" stroke-linecap="square" stroke-width=".8"/>
<path d="m40.603 186.54h446.02" fill="none" stroke="#000" stroke-linecap="square" stroke-width=".8"/>
<defs>
<path id="an" d="m9.8125 72.906h14.703l18.594-49.609 18.703 49.609h14.703v-72.906h-9.625v64.016l-18.797-50h-9.9062l-18.797 50v-64.016h-9.5781z"/>
<path id="ar" d="m11.719 12.406h10.297v-12.406h-10.297zm0 39.297h10.297v-12.391h-10.297z"/>
<path id="y" d="m3.3281 72.906h9.9531l15.328-61.625 15.281 61.625h11.094l15.328-61.625 15.281 61.625h10.016l-18.312-72.906h-12.406l-15.375 63.281-15.531-63.281h-12.406z"/>
<path id="ab" d="m19.672 64.797v-56.688h11.922q15.094 0 22.094 6.8281 7 6.8438 7 21.594 0 14.641-7 21.453t-22.094 6.8125zm-9.8594 8.1094h20.266q21.188 0 31.094-8.8125 9.9219-8.8125 9.9219-27.562 0-18.859-9.9688-27.703-9.9531-8.8281-31.047-8.8281h-20.266z"/>
<path id="ap" d="m64.406 67.281v-10.391q-4.9844 4.6406-10.625 6.9219-5.6406 2.2969-11.984 2.2969-12.5 0-19.141-7.6406t-6.6406-22.094q0-14.406 6.6406-22.047t19.141-7.6406q6.3438 0 11.984 2.2969t10.625 6.9375v-10.312q-5.1719-3.5156-10.969-5.2812-5.7812-1.75-12.219-1.75-16.562 0-26.094 10.125-9.5156 10.141-9.5156 27.672 0 17.578 9.5156 27.703 9.5312 10.141 26.094 10.141 6.5312 0 12.312-1.7344 5.7969-1.7344 10.875-5.2031z"/>
<path id="ao" d="m9.8125 72.906h46.094v-8.3125h-36.234v-21.578h34.719v-8.2969h-34.719v-26.422h37.109v-8.2969h-46.969z"/>
<path id="am" d="m6.2969 72.906h10.594l18.125-27.109 18.203 27.109h10.594l-23.438-35.016 25-37.891h-10.594l-20.5 31-20.656-31h-10.641l26.016 38.922z"/>
</defs>
<g transform="translate(175.64 16.318) scale(.12 -.12)">
<use xlink:href="#an"/>
<use x="86.279297" xlink:href="#l"/>
<use x="147.460938" xlink:href="#n"/>
<use x="210.9375" xlink:href="#c"/>
<use x="272.460938" xlink:href="#p"/>
<use x="300.244141" xlink:href="#ar"/>
<use x="333.935547" xlink:href="#DejaVuSans-20"/>
<use x="365.722656" xlink:href="#y"/>
<use x="464.599609" xlink:href="#ab"/>
<use x="541.601562" xlink:href="#ap"/>
<use x="611.425781" xlink:href="#DejaVuSans-20"/>
<use x="643.212891" xlink:href="#y"/>
<use x="742.089844" xlink:href="#ab"/>
<use x="819.091797" xlink:href="#q"/>
<use x="882.714844" xlink:href="#f"/>
<use x="946.337891" xlink:href="#ao"/>
<use x="1009.521484" xlink:href="#aa"/>
<use x="1067.041016" xlink:href="#z"/>
<use x="1136.523438" xlink:href="#am"/>
</g>
<defs>
<clipPath id="j">
<rect x="40.603" y="28.8" width="446.02" height="141.83"/>
</clipPath>
<clipPath id="d">
<rect x="40.603" y="186.54" width="446.02" height="189.1"/>
</clipPath>
</defs>
</svg>
