<?xml version="1.0" encoding="UTF-8"?>
<!DOCTYPE svg  PUBLIC '-//W3C//DTD SVG 1.1//EN'  'http://www.w3.org/Graphics/SVG/1.1/DTD/svg11.dtd'>
<svg width="531pt" height="413pt" version="1.1" viewBox="0 0 531 413" xmlns="http://www.w3.org/2000/svg" xmlns:xlink="http://www.w3.org/1999/xlink">
<defs>
<style type="text/css">*{stroke-linecap:butt;stroke-linejoin:round;}</style>
</defs>
<path d="m0 413.6h531.26v-413.6h-531.26z" fill="#fff"/>
<path d="m59.691 256.51h451.64v-227.71h-451.64z" fill="#fff"/>
<defs>
<path id="e" d="m0 0v3.5" stroke="#000" stroke-width=".8"/>
</defs>
<use x="59.690625" y="256.510091" stroke="#000000" stroke-width=".8" xlink:href="#e"/>
<use x="208.175009" y="256.510091" stroke="#000000" stroke-width=".8" xlink:href="#e"/>
<use x="360.371502" y="256.510091" stroke="#000000" stroke-width=".8" xlink:href="#e"/>
<use x="511.330625" y="256.510091" stroke="#000000" stroke-width=".8" xlink:href="#e"/>
<defs>
<path id="c" d="m0 0v2" stroke="#000" stroke-width=".6"/>
</defs>
<use x="59.690625" y="256.510091" stroke="#000000" stroke-width=".6" xlink:href="#c"/>
<use x="98.049091" y="256.510091" stroke="#000000" stroke-width=".6" xlink:href="#c"/>
<use x="132.695447" y="256.510091" stroke="#000000" stroke-width=".6" xlink:href="#c"/>
<use x="171.053913" y="256.510091" stroke="#000000" stroke-width=".6" xlink:href="#c"/>
<use x="208.175009" y="256.510091" stroke="#000000" stroke-width=".6" xlink:href="#c"/>
<use x="246.533474" y="256.510091" stroke="#000000" stroke-width=".6" xlink:href="#c"/>
<use x="283.65457" y="256.510091" stroke="#000000" stroke-width=".6" xlink:href="#c"/>
<use x="322.013036" y="256.510091" stroke="#000000" stroke-width=".6" xlink:href="#c"/>
<use x="360.371502" y="256.510091" stroke="#000000" stroke-width=".6" xlink:href="#c"/>
<use x="397.492598" y="256.510091" stroke="#000000" stroke-width=".6" xlink:href="#c"/>
<use x="435.851063" y="256.510091" stroke="#000000" stroke-width=".6" xlink:href="#c"/>
<use x="472.972159" y="256.510091" stroke="#000000" stroke-width=".6" xlink:href="#c"/>
<use x="511.330625" y="256.510091" stroke="#000000" stroke-width=".6" xlink:href="#c"/>
<defs>
<path id="d" d="m0 0h-3.5" stroke="#000" stroke-width=".8"/>
</defs>
<use x="59.690625" y="256.510091" stroke="#000000" stroke-width=".8" xlink:href="#d"/>
<defs>
<path id="b" d="m31.781 66.406q-7.6094 0-11.453-7.5-3.8281-7.4844-3.8281-22.531 0-14.984 3.8281-22.484 3.8438-7.5 11.453-7.5 7.6719 0 11.5 7.5 3.8438 7.5 3.8438 22.484 0 15.047-3.8438 22.531-3.8281 7.5-11.5 7.5zm0 7.8125q12.266 0 18.734-9.7031 6.4688-9.6875 6.4688-28.141 0-18.406-6.4688-28.109-6.4688-9.6875-18.734-9.6875-12.25 0-18.719 9.6875-6.4688 9.7031-6.4688 28.109 0 18.453 6.4688 28.141 6.4688 9.7031 18.719 9.7031z"/>
</defs>
<g transform="translate(46.328 260.31) scale(.1 -.1)">
<use xlink:href="#b"/>
</g>
<use x="59.690625" y="210.968073" stroke="#000000" stroke-width=".8" xlink:href="#d"/>
<defs>
<path id="h" d="m12.406 8.2969h16.109v55.625l-17.531-3.5156v8.9844l17.438 3.5156h9.8594v-64.609h16.109v-8.2969h-41.984z"/>
</defs>
<g transform="translate(39.966 214.77) scale(.1 -.1)">
<use xlink:href="#h"/>
<use x="63.623047" xlink:href="#b"/>
</g>
<use x="59.690625" y="165.426055" stroke="#000000" stroke-width=".8" xlink:href="#d"/>
<defs>
<path id="k" d="m19.188 8.2969h34.422v-8.2969h-46.281v8.2969q5.6094 5.8125 15.297 15.594 9.7031 9.7969 12.188 12.641 4.7344 5.3125 6.6094 9 1.8906 3.6875 1.8906 7.25 0 5.8125-4.0781 9.4688-4.0781 3.6719-10.625 3.6719-4.6406 0-9.7969-1.6094-5.1406-1.6094-11-4.8906v9.9688q5.9531 2.3906 11.125 3.6094 5.1875 1.2188 9.4844 1.2188 11.328 0 18.062-5.6719 6.7344-5.6562 6.7344-15.125 0-4.5-1.6875-8.5312-1.6719-4.0156-6.125-9.4844-1.2188-1.4219-7.7656-8.1875-6.5312-6.7656-18.453-18.922z"/>
</defs>
<g transform="translate(39.966 169.23) scale(.1 -.1)">
<use xlink:href="#k"/>
<use x="63.623047" xlink:href="#b"/>
</g>
<use x="59.690625" y="119.884036" stroke="#000000" stroke-width=".8" xlink:href="#d"/>
<defs>
<path id="v" d="m40.578 39.312q7.0781-1.5156 11.047-6.3125 3.9844-4.7812 3.9844-11.812 0-10.781-7.4219-16.703-7.4219-5.9062-21.094-5.9062-4.5781 0-9.4375 0.90625t-10.031 2.7188v9.5156q4.0938-2.3906 8.9688-3.6094 4.8906-1.2188 10.219-1.2188 9.2656 0 14.125 3.6562t4.8594 10.641q0 6.4531-4.5156 10.078-4.5156 3.6406-12.562 3.6406h-8.5v8.1094h8.8906q7.2656 0 11.125 2.9062t3.8594 8.375q0 5.6094-3.9844 8.6094-3.9688 3.0156-11.391 3.0156-4.0625 0-8.7031-0.89062-4.6406-0.875-10.203-2.7188v8.7812q5.625 1.5625 10.531 2.3438t9.25 0.78125q11.234 0 17.766-5.1094 6.5469-5.0938 6.5469-13.781 0-6.0625-3.4688-10.234t-9.8594-5.7812z"/>
</defs>
<g transform="translate(39.966 123.68) scale(.1 -.1)">
<use xlink:href="#v"/>
<use x="63.623047" xlink:href="#b"/>
</g>
<use x="59.690625" y="74.342018" stroke="#000000" stroke-width=".8" xlink:href="#d"/>
<defs>
<path id="u" d="m37.797 64.312-24.906-38.922h24.906zm-2.5938 8.5938h12.406v-47.516h10.406v-8.2031h-10.406v-17.188h-9.8125v17.188h-32.906v9.5156z"/>
</defs>
<g transform="translate(39.966 78.141) scale(.1 -.1)">
<use xlink:href="#u"/>
<use x="63.623047" xlink:href="#b"/>
</g>
<use x="59.690625" y="28.8" stroke="#000000" stroke-width=".8" xlink:href="#d"/>
<defs>
<path id="g" d="m10.797 72.906h38.719v-8.3125h-29.688v-17.859q2.1406 0.73438 4.2812 1.0938 2.1562 0.35938 4.3125 0.35938 12.203 0 19.328-6.6875 7.1406-6.6875 7.1406-18.109 0-11.766-7.3281-18.297-7.3281-6.5156-20.656-6.5156-4.5938 0-9.3594 0.78125-4.75 0.78125-9.8281 2.3438v9.9219q4.3906-2.3906 9.0781-3.5625t9.9062-1.1719q8.4531 0 13.375 4.4375 4.9375 4.4375 4.9375 12.062 0 7.6094-4.9375 12.047-4.9219 4.4531-13.375 4.4531-3.9531 0-7.8906-0.875-3.9219-0.875-8.0156-2.7344z"/>
</defs>
<g transform="translate(39.966 32.599) scale(.1 -.1)">
<use xlink:href="#g"/>
<use x="63.623047" xlink:href="#b"/>
</g>
<defs>
<path id="w" d="m51.125 44h-14.203l-4.1094-16.312h14.312zm-7.3281 27.781-5.0781-20.266h14.266l5.125 20.266h7.8125l-5.0312-20.266h15.234v-7.5156h-17.141l-4-16.312h15.531v-7.4688h-17.438l-5.0781-20.219h-7.8125l5.0312 20.219h-14.312l-5.0312-20.219h-7.8594l5.0781 20.219h-15.375v7.4688h17.188l4.0938 16.312h-15.719v7.5156h17.625l4.9844 20.266z"/>
<path id="ac" d="m37.109 75.984v-7.4844h-8.5938q-4.8281 0-6.7188-1.9531-1.875-1.9531-1.875-7.0312v-4.8281h14.797v-6.9844h-14.797v-47.703h-9.0312v47.703h-8.5938v6.9844h8.5938v3.8125q0 9.125 4.25 13.297 4.25 4.1875 13.469 4.1875z"/>
<path id="j" d="m34.281 27.484q-10.891 0-15.094-2.4844t-4.2031-8.5q0-4.7812 3.1562-7.5938 3.1562-2.7969 8.5625-2.7969 7.4844 0 12 5.2969t4.5156 14.078v2zm17.922 3.7188v-31.203h-8.9844v8.2969q-3.0781-4.9688-7.6719-7.3438t-11.234-2.375q-8.3906 0-13.359 4.7188-4.9531 4.7188-4.9531 12.625 0 9.2188 6.1719 13.906 6.1875 4.6875 18.438 4.6875h12.609v0.89062q0 6.2031-4.0781 9.5938t-11.453 3.3906q-4.6875 0-9.1406-1.125-4.4375-1.125-8.5312-3.375v8.3125q4.9219 1.9062 9.5625 2.8438 4.6406 0.95312 9.0312 0.95312 11.875 0 17.734-6.1562 5.8594-6.1406 5.8594-18.641z"/>
<path id="t" d="m9.4219 54.688h8.9844v-54.688h-8.9844zm0 21.297h8.9844v-11.391h-8.9844z"/>
<path id="o" d="m9.4219 75.984h8.9844v-75.984h-8.9844z"/>
<path id="y" d="m8.5 21.578v33.109h8.9844v-32.766q0-7.7656 3.0156-11.656 3.0312-3.875 9.0938-3.875 7.2656 0 11.484 4.6406 4.2344 4.6406 4.2344 12.656v31h8.9844v-54.688h-8.9844v8.4062q-3.2656-4.9844-7.5938-7.4062-4.3125-2.4219-10.031-2.4219-9.4219 0-14.312 5.8594-4.875 5.8594-4.875 17.141zm22.609 34.422z"/>
<path id="r" d="m41.109 46.297q-1.5156 0.875-3.2969 1.2812-1.7812 0.42188-3.9219 0.42188-7.625 0-11.703-4.9531t-4.0781-14.234v-28.812h-9.0312v54.688h9.0312v-8.5q2.8438 4.9844 7.375 7.3906 4.5469 2.4219 11.047 2.4219 0.92188 0 2.0469-0.125 1.125-0.10938 2.4844-0.35938z"/>
<path id="f" d="m56.203 29.594v-4.3906h-41.312q0.59375-9.2812 5.5938-14.141t13.938-4.8594q5.1719 0 10.031 1.2656t9.6562 3.8125v-8.5q-4.8438-2.0469-9.9219-3.125t-10.297-1.0781q-13.094 0-20.734 7.6094-7.6406 7.625-7.6406 20.625 0 13.422 7.25 21.297 7.25 7.8906 19.562 7.8906 11.031 0 17.453-7.1094 6.4219-7.0938 6.4219-19.297zm-8.9844 2.6406q-0.09375 7.3594-4.125 11.75-4.0312 4.4062-10.672 4.4062-7.5156 0-12.031-4.25t-5.2031-11.969z"/>
<path id="m" d="m44.281 53.078v-8.5q-3.7969 1.9531-7.9062 2.9219-4.0938 0.98438-8.5 0.98438-6.6875 0-10.031-2.0469t-3.3438-6.1562q0-3.125 2.3906-4.9062t9.625-3.3906l3.0781-0.6875q9.5625-2.0469 13.594-5.7812t4.0312-10.422q0-7.625-6.0312-12.078-6.0312-4.4375-16.578-4.4375-4.3906 0-9.1562 0.85938t-10.031 2.5625v9.2812q4.9844-2.5938 9.8125-3.8906 4.8281-1.2812 9.5781-1.2812 6.3438 0 9.75 2.1719 3.4219 2.1719 3.4219 6.125 0 3.6562-2.4688 5.6094-2.4531 1.9531-10.812 3.7656l-3.125 0.73438q-8.3438 1.75-12.062 5.3906-3.7031 3.6406-3.7031 9.9844 0 7.7188 5.4688 11.906 5.4688 4.2031 15.531 4.2031 4.9688 0 9.3594-0.73438 4.4062-0.71875 8.1094-2.1875z"/>
<path id="n" d="m18.109 8.2031v-29h-9.0312v75.484h9.0312v-8.2969q2.8438 4.875 7.1562 7.2344 4.3281 2.375 10.328 2.375 9.9688 0 16.188-7.9062 6.2344-7.9062 6.2344-20.797t-6.2344-20.812q-6.2188-7.9062-16.188-7.9062-6 0-10.328 2.375-4.3125 2.375-7.1562 7.25zm30.578 19.094q0 9.9062-4.0781 15.547t-11.203 5.6406q-7.1406 0-11.219-5.6406t-4.0781-15.547 4.0781-15.547 11.219-5.6406q7.125 0 11.203 5.6406t4.0781 15.547z"/>
<path id="i" d="m45.406 46.391v29.594h8.9844v-75.984h-8.9844v8.2031q-2.8281-4.875-7.1562-7.25-4.3125-2.375-10.375-2.375-9.9062 0-16.141 7.9062-6.2188 7.9219-6.2188 20.812t6.2188 20.797q6.2344 7.9062 16.141 7.9062 6.0625 0 10.375-2.375 4.3281-2.3594 7.1562-7.2344zm-30.609-19.094q0-9.9062 4.0781-15.547t11.203-5.6406 11.219 5.6406q4.1094 5.6406 4.1094 15.547t-4.1094 15.547q-4.0938 5.6406-11.219 5.6406t-11.203-5.6406-4.0781-15.547z"/>
<path id="l" d="m32.172-5.0781q-3.7969-9.7656-7.4219-12.734-3.6094-2.9844-9.6562-2.9844h-7.1875v7.5156h5.2812q3.7031 0 5.75 1.7656 2.0625 1.75 4.5469 8.2969l1.6094 4.0938-22.109 53.812h9.5156l17.094-42.766 17.094 42.766h9.5156z"/>
</defs>
<g transform="translate(33.886 187.62) rotate(-90) scale(.1 -.1)">
<use xlink:href="#w"/>
<use x="83.789062" xlink:href="#DejaVuSans-20"/>
<use x="115.576172" xlink:href="#ac"/>
<use x="150.78125" xlink:href="#j"/>
<use x="212.060547" xlink:href="#t"/>
<use x="239.84375" xlink:href="#o"/>
<use x="267.626953" xlink:href="#y"/>
<use x="331.005859" xlink:href="#r"/>
<use x="372.087891" xlink:href="#f"/>
<use x="433.611328" xlink:href="#m"/>
<use x="485.710938" xlink:href="#DejaVuSans-20"/>
<use x="517.498047" xlink:href="#n"/>
<use x="580.974609" xlink:href="#f"/>
<use x="642.498047" xlink:href="#r"/>
<use x="683.611328" xlink:href="#DejaVuSans-20"/>
<use x="715.398438" xlink:href="#i"/>
<use x="778.875" xlink:href="#j"/>
<use x="840.154297" xlink:href="#l"/>
</g>
<g fill="none" stroke="#c77" stroke-width="1.5">
<path d="m59.691 256.51v-13.663" clip-path="url(#a)"/>
<path d="m60.928 256.51v-13.663" clip-path="url(#a)"/>
<path d="m62.165 256.51" clip-path="url(#a)"/>
<path d="m63.403 256.51" clip-path="url(#a)"/>
<path d="m64.64 256.51" clip-path="url(#a)"/>
<path d="m65.877 256.51" clip-path="url(#a)"/>
<path d="m67.115 256.51v-18.217" clip-path="url(#a)"/>
<path d="m68.352 256.51v-18.217" clip-path="url(#a)"/>
<path d="m69.59 256.51v-13.663" clip-path="url(#a)"/>
<path d="m70.827 256.51" clip-path="url(#a)"/>
<path d="m72.064 256.51" clip-path="url(#a)"/>
<path d="m73.302 256.51" clip-path="url(#a)"/>
<path d="m74.539 256.51v-4.5542" clip-path="url(#a)"/>
<path d="m75.776 256.51v-45.542" clip-path="url(#a)"/>
<path d="m77.014 256.51v-13.663" clip-path="url(#a)"/>
<path d="m78.251 256.51v-4.5542" clip-path="url(#a)"/>
<path d="m79.489 256.51v-9.1084" clip-path="url(#a)"/>
<path d="m80.726 256.51v-4.5542" clip-path="url(#a)"/>
<path d="m81.963 256.51" clip-path="url(#a)"/>
<path d="m83.201 256.51" clip-path="url(#a)"/>
<path d="m84.438 256.51v-40.988" clip-path="url(#a)"/>
<path d="m85.675 256.51v-27.325" clip-path="url(#a)"/>
<path d="m86.913 256.51v-18.217" clip-path="url(#a)"/>
<path d="m88.15 256.51" clip-path="url(#a)"/>
<path d="m89.388 256.51v-13.663" clip-path="url(#a)"/>
<path d="m90.625 256.51" clip-path="url(#a)"/>
<path d="m91.862 256.51v-4.5542" clip-path="url(#a)"/>
<path d="m93.1 256.51" clip-path="url(#a)"/>
<path d="m94.337 256.51v-31.879" clip-path="url(#a)"/>
<path d="m95.574 256.51v-13.663" clip-path="url(#a)"/>
<path d="m96.812 256.51v-45.542" clip-path="url(#a)"/>
<path d="m98.049 256.51" clip-path="url(#a)"/>
<path d="m99.286 256.51" clip-path="url(#a)"/>
<path d="m100.52 256.51" clip-path="url(#a)"/>
<path d="m101.76 256.51" clip-path="url(#a)"/>
<path d="m103 256.51v-9.1084" clip-path="url(#a)"/>
<path d="m104.24 256.51" clip-path="url(#a)"/>
<path d="m105.47 256.51v-40.988" clip-path="url(#a)"/>
<path d="m106.71 256.51v-4.5542" clip-path="url(#a)"/>
<path d="m107.95 256.51" clip-path="url(#a)"/>
<path d="m109.19 256.51" clip-path="url(#a)"/>
<path d="m110.42 256.51v-18.217" clip-path="url(#a)"/>
<path d="m111.66 256.51v-9.1084" clip-path="url(#a)"/>
<path d="m112.9 256.51v-4.5542" clip-path="url(#a)"/>
<path d="m114.13 256.51" clip-path="url(#a)"/>
<path d="m115.37 256.51v-9.1084" clip-path="url(#a)"/>
<path d="m116.61 256.51" clip-path="url(#a)"/>
<path d="m117.85 256.51" clip-path="url(#a)"/>
<path d="m119.08 256.51v-9.1084" clip-path="url(#a)"/>
<path d="m120.32 256.51" clip-path="url(#a)"/>
<path d="m121.56 256.51v-27.325" clip-path="url(#a)"/>
<path d="m122.8 256.51v-36.434" clip-path="url(#a)"/>
<path d="m124.03 256.51" clip-path="url(#a)"/>
<path d="m125.27 256.51v-13.663" clip-path="url(#a)"/>
<path d="m126.51 256.51v-4.5542" clip-path="url(#a)"/>
<path d="m127.75 256.51v-13.663" clip-path="url(#a)"/>
<path d="m128.98 256.51v-27.325" clip-path="url(#a)"/>
<path d="m130.22 256.51v-13.663" clip-path="url(#a)"/>
<path d="m131.46 256.51v-27.325" clip-path="url(#a)"/>
<path d="m132.7 256.51" clip-path="url(#a)"/>
<path d="m133.93 256.51v-22.771" clip-path="url(#a)"/>
<path d="m135.17 256.51v-9.1084" clip-path="url(#a)"/>
<path d="m136.41 256.51" clip-path="url(#a)"/>
<path d="m137.64 256.51v-13.663" clip-path="url(#a)"/>
<path d="m138.88 256.51v-18.217" clip-path="url(#a)"/>
<path d="m140.12 256.51" clip-path="url(#a)"/>
<path d="m141.36 256.51v-9.1084" clip-path="url(#a)"/>
<path d="m142.59 256.51v-13.663" clip-path="url(#a)"/>
<path d="m143.83 256.51" clip-path="url(#a)"/>
<path d="m145.07 256.51v-36.434" clip-path="url(#a)"/>
<path d="m146.31 256.51v-13.663" clip-path="url(#a)"/>
<path d="m147.54 256.51" clip-path="url(#a)"/>
<path d="m148.78 256.51v-40.988" clip-path="url(#a)"/>
<path d="m150.02 256.51v-9.1084" clip-path="url(#a)"/>
<path d="m151.26 256.51" clip-path="url(#a)"/>
<path d="m152.49 256.51v-4.5542" clip-path="url(#a)"/>
<path d="m153.73 256.51v-100.19" clip-path="url(#a)"/>
<path d="m154.97 256.51v-27.325" clip-path="url(#a)"/>
<path d="m156.21 256.51" clip-path="url(#a)"/>
<path d="m157.44 256.51v-31.879" clip-path="url(#a)"/>
<path d="m158.68 256.51v-4.5542" clip-path="url(#a)"/>
<path d="m159.92 256.51v-4.5542" clip-path="url(#a)"/>
<path d="m161.15 256.51" clip-path="url(#a)"/>
<path d="m162.39 256.51v-31.879" clip-path="url(#a)"/>
<path d="m163.63 256.51" clip-path="url(#a)"/>
<path d="m164.87 256.51v-40.988" clip-path="url(#a)"/>
<path d="m166.1 256.51v-4.5542" clip-path="url(#a)"/>
<path d="m167.34 256.51" clip-path="url(#a)"/>
<path d="m168.58 256.51" clip-path="url(#a)"/>
<path d="m169.82 256.51v-9.1084" clip-path="url(#a)"/>
<path d="m171.05 256.51v-86.53" clip-path="url(#a)"/>
<path d="m172.29 256.51" clip-path="url(#a)"/>
<path d="m173.53 256.51" clip-path="url(#a)"/>
<path d="m174.77 256.51v-4.5542" clip-path="url(#a)"/>
<path d="m176 256.51" clip-path="url(#a)"/>
<path d="m177.24 256.51v-4.5542" clip-path="url(#a)"/>
<path d="m178.48 256.51" clip-path="url(#a)"/>
<path d="m179.72 256.51v-31.879" clip-path="url(#a)"/>
<path d="m180.95 256.51v-13.663" clip-path="url(#a)"/>
<path d="m182.19 256.51v-4.5542" clip-path="url(#a)"/>
<path d="m183.43 256.51v-4.5542" clip-path="url(#a)"/>
<path d="m184.66 256.51" clip-path="url(#a)"/>
<path d="m185.9 256.51" clip-path="url(#a)"/>
<path d="m187.14 256.51v-4.5542" clip-path="url(#a)"/>
<path d="m188.38 256.51v-13.663" clip-path="url(#a)"/>
<path d="m189.61 256.51v-59.205" clip-path="url(#a)"/>
<path d="m190.85 256.51v-22.771" clip-path="url(#a)"/>
<path d="m192.09 256.51v-54.65" clip-path="url(#a)"/>
<path d="m193.33 256.51v-13.663" clip-path="url(#a)"/>
<path d="m194.56 256.51v-18.217" clip-path="url(#a)"/>
<path d="m195.8 256.51" clip-path="url(#a)"/>
<path d="m197.04 256.51v-31.879" clip-path="url(#a)"/>
<path d="m198.28 256.51v-13.663" clip-path="url(#a)"/>
<path d="m199.51 256.51v-9.1084" clip-path="url(#a)"/>
<path d="m200.75 256.51" clip-path="url(#a)"/>
<path d="m201.99 256.51v-4.5542" clip-path="url(#a)"/>
<path d="m203.23 256.51" clip-path="url(#a)"/>
<path d="m204.46 256.51v-4.5542" clip-path="url(#a)"/>
<path d="m205.7 256.51v-4.5542" clip-path="url(#a)"/>
<path d="m206.94 256.51v-9.1084" clip-path="url(#a)"/>
<path d="m208.18 256.51" clip-path="url(#a)"/>
<path d="m209.41 256.51v-4.5542" clip-path="url(#a)"/>
<path d="m210.65 256.51" clip-path="url(#a)"/>
<path d="m211.89 256.51" clip-path="url(#a)"/>
<path d="m213.12 256.51v-13.663" clip-path="url(#a)"/>
<path d="m214.36 256.51v-27.325" clip-path="url(#a)"/>
<path d="m215.6 256.51" clip-path="url(#a)"/>
<path d="m216.84 256.51" clip-path="url(#a)"/>
<path d="m218.07 256.51v-27.325" clip-path="url(#a)"/>
<path d="m219.31 256.51v-4.5542" clip-path="url(#a)"/>
<path d="m220.55 256.51v-9.1084" clip-path="url(#a)"/>
<path d="m221.79 256.51v-31.879" clip-path="url(#a)"/>
<path d="m223.02 256.51v-4.5542" clip-path="url(#a)"/>
<path d="m224.26 256.51v-18.217" clip-path="url(#a)"/>
<path d="m225.5 256.51v-27.325" clip-path="url(#a)"/>
<path d="m226.74 256.51" clip-path="url(#a)"/>
<path d="m227.97 256.51v-9.1084" clip-path="url(#a)"/>
<path d="m229.21 256.51" clip-path="url(#a)"/>
<path d="m230.45 256.51v-4.5542" clip-path="url(#a)"/>
<path d="m231.69 256.51v-13.663" clip-path="url(#a)"/>
<path d="m232.92 256.51v-4.5542" clip-path="url(#a)"/>
<path d="m234.16 256.51v-13.663" clip-path="url(#a)"/>
<path d="m235.4 256.51v-4.5542" clip-path="url(#a)"/>
<path d="m236.63 256.51v-4.5542" clip-path="url(#a)"/>
<path d="m237.87 256.51v-18.217" clip-path="url(#a)"/>
<path d="m239.11 256.51" clip-path="url(#a)"/>
<path d="m240.35 256.51v-81.976" clip-path="url(#a)"/>
<path d="m241.58 256.51v-9.1084" clip-path="url(#a)"/>
<path d="m242.82 256.51v-81.976" clip-path="url(#a)"/>
<path d="m244.06 256.51v-4.5542" clip-path="url(#a)"/>
<path d="m245.3 256.51v-4.5542" clip-path="url(#a)"/>
<path d="m246.53 256.51v-13.663" clip-path="url(#a)"/>
<path d="m247.77 256.51v-13.663" clip-path="url(#a)"/>
<path d="m249.01 256.51v-13.663" clip-path="url(#a)"/>
<path d="m250.25 256.51v-45.542" clip-path="url(#a)"/>
<path d="m251.48 256.51v-40.988" clip-path="url(#a)"/>
<path d="m252.72 256.51v-13.663" clip-path="url(#a)"/>
<path d="m253.96 256.51v-13.663" clip-path="url(#a)"/>
<path d="m255.2 256.51v-4.5542" clip-path="url(#a)"/>
<path d="m256.43 256.51v-27.325" clip-path="url(#a)"/>
<path d="m257.67 256.51" clip-path="url(#a)"/>
<path d="m258.91 256.51v-9.1084" clip-path="url(#a)"/>
<path d="m260.14 256.51v-13.663" clip-path="url(#a)"/>
<path d="m261.38 256.51v-68.313" clip-path="url(#a)"/>
<path d="m262.62 256.51" clip-path="url(#a)"/>
<path d="m263.86 256.51v-9.1084" clip-path="url(#a)"/>
<path d="m265.09 256.51v-50.096" clip-path="url(#a)"/>
<path d="m266.33 256.51v-27.325" clip-path="url(#a)"/>
<path d="m267.57 256.51v-18.217" clip-path="url(#a)"/>
<path d="m268.81 256.51v-31.879" clip-path="url(#a)"/>
<path d="m270.04 256.51" clip-path="url(#a)"/>
<path d="m271.28 256.51v-4.5542" clip-path="url(#a)"/>
<path d="m272.52 256.51v-9.1084" clip-path="url(#a)"/>
<path d="m273.76 256.51v-4.5542" clip-path="url(#a)"/>
<path d="m274.99 256.51v-31.879" clip-path="url(#a)"/>
<path d="m276.23 256.51v-18.217" clip-path="url(#a)"/>
<path d="m277.47 256.51v-31.879" clip-path="url(#a)"/>
<path d="m278.71 256.51v-13.663" clip-path="url(#a)"/>
<path d="m279.94 256.51v-13.663" clip-path="url(#a)"/>
<path d="m281.18 256.51" clip-path="url(#a)"/>
<path d="m282.42 256.51v-13.663" clip-path="url(#a)"/>
<path d="m283.65 256.51v-40.988" clip-path="url(#a)"/>
<path d="m284.89 256.51v-22.771" clip-path="url(#a)"/>
<path d="m286.13 256.51v-22.771" clip-path="url(#a)"/>
<path d="m287.37 256.51v-4.5542" clip-path="url(#a)"/>
<path d="m288.6 256.51" clip-path="url(#a)"/>
<path d="m289.84 256.51v-9.1084" clip-path="url(#a)"/>
<path d="m291.08 256.51v-18.217" clip-path="url(#a)"/>
<path d="m292.32 256.51v-13.663" clip-path="url(#a)"/>
<path d="m293.55 256.51v-22.771" clip-path="url(#a)"/>
<path d="m294.79 256.51v-13.663" clip-path="url(#a)"/>
<path d="m296.03 256.51v-9.1084" clip-path="url(#a)"/>
<path d="m297.27 256.51v-13.663" clip-path="url(#a)"/>
<path d="m298.5 256.51v-9.1084" clip-path="url(#a)"/>
<path d="m299.74 256.51v-22.771" clip-path="url(#a)"/>
<path d="m300.98 256.51v-173.06" clip-path="url(#a)"/>
<path d="m302.22 256.51v-13.663" clip-path="url(#a)"/>
<path d="m303.45 256.51v-132.07" clip-path="url(#a)"/>
<path d="m304.69 256.51v-4.5542" clip-path="url(#a)"/>
<path d="m305.93 256.51v-9.1084" clip-path="url(#a)"/>
<path d="m307.16 256.51v-9.1084" clip-path="url(#a)"/>
<path d="m308.4 256.51v-36.434" clip-path="url(#a)"/>
<path d="m309.64 256.51v-4.5542" clip-path="url(#a)"/>
<path d="m310.88 256.51v-104.75" clip-path="url(#a)"/>
<path d="m312.11 256.51v-27.325" clip-path="url(#a)"/>
<path d="m313.35 256.51v-9.1084" clip-path="url(#a)"/>
<path d="m314.59 256.51v-118.41" clip-path="url(#a)"/>
<path d="m315.83 256.51v-9.1084" clip-path="url(#a)"/>
<path d="m317.06 256.51v-159.4" clip-path="url(#a)"/>
<path d="m318.3 256.51v-9.1084" clip-path="url(#a)"/>
<path d="m319.54 256.51v-13.663" clip-path="url(#a)"/>
<path d="m320.78 256.51v-54.65" clip-path="url(#a)"/>
<path d="m322.01 256.51v-13.663" clip-path="url(#a)"/>
<path d="m323.25 256.51v-72.867" clip-path="url(#a)"/>
<path d="m324.49 256.51" clip-path="url(#a)"/>
<path d="m325.73 256.51v-4.5542" clip-path="url(#a)"/>
<path d="m326.96 256.51v-4.5542" clip-path="url(#a)"/>
<path d="m328.2 256.51v-4.5542" clip-path="url(#a)"/>
<path d="m329.44 256.51v-40.988" clip-path="url(#a)"/>
<path d="m330.67 256.51v-154.84" clip-path="url(#a)"/>
<path d="m331.91 256.51v-22.771" clip-path="url(#a)"/>
<path d="m333.15 256.51v-95.638" clip-path="url(#a)"/>
<path d="m334.39 256.51v-27.325" clip-path="url(#a)"/>
<path d="m335.62 256.51v-132.07" clip-path="url(#a)"/>
<path d="m336.86 256.51v-182.17" clip-path="url(#a)"/>
<path d="m338.1 256.51v-31.879" clip-path="url(#a)"/>
<path d="m339.34 256.51v-50.096" clip-path="url(#a)"/>
<path d="m340.57 256.51" clip-path="url(#a)"/>
<path d="m341.81 256.51v-4.5542" clip-path="url(#a)"/>
<path d="m343.05 256.51v-63.759" clip-path="url(#a)"/>
<path d="m344.29 256.51v-91.084" clip-path="url(#a)"/>
<path d="m345.52 256.51" clip-path="url(#a)"/>
<path d="m346.76 256.51v-31.879" clip-path="url(#a)"/>
<path d="m348 256.51v-40.988" clip-path="url(#a)"/>
<path d="m349.24 256.51v-27.325" clip-path="url(#a)"/>
<path d="m350.47 256.51" clip-path="url(#a)"/>
<path d="m351.71 256.51v-63.759" clip-path="url(#a)"/>
<path d="m352.95 256.51" clip-path="url(#a)"/>
<path d="m354.18 256.51v-4.5542" clip-path="url(#a)"/>
<path d="m355.42 256.51v-68.313" clip-path="url(#a)"/>
<path d="m356.66 256.51" clip-path="url(#a)"/>
<path d="m357.9 256.51v-13.663" clip-path="url(#a)"/>
<path d="m359.13 256.51" clip-path="url(#a)"/>
<path d="m360.37 256.51v-22.771" clip-path="url(#a)"/>
<path d="m361.61 256.51v-9.1084" clip-path="url(#a)"/>
<path d="m362.85 256.51v-9.1084" clip-path="url(#a)"/>
<path d="m364.08 256.51v-4.5542" clip-path="url(#a)"/>
<path d="m365.32 256.51" clip-path="url(#a)"/>
<path d="m366.56 256.51" clip-path="url(#a)"/>
<path d="m367.8 256.51v-4.5542" clip-path="url(#a)"/>
<path d="m369.03 256.51v-182.17" clip-path="url(#a)"/>
<path d="m370.27 256.51v-9.1084" clip-path="url(#a)"/>
<path d="m371.51 256.51" clip-path="url(#a)"/>
<path d="m372.75 256.51v-4.5542" clip-path="url(#a)"/>
<path d="m373.98 256.51v-45.542" clip-path="url(#a)"/>
<path d="m375.22 256.51" clip-path="url(#a)"/>
<path d="m376.46 256.51" clip-path="url(#a)"/>
<path d="m377.69 256.51" clip-path="url(#a)"/>
<path d="m378.93 256.51" clip-path="url(#a)"/>
<path d="m380.17 256.51v-4.5542" clip-path="url(#a)"/>
<path d="m381.41 256.51" clip-path="url(#a)"/>
<path d="m382.64 256.51" clip-path="url(#a)"/>
<path d="m383.88 256.51" clip-path="url(#a)"/>
<path d="m385.12 256.51v-9.1084" clip-path="url(#a)"/>
<path d="m386.36 256.51v-4.5542" clip-path="url(#a)"/>
<path d="m387.59 256.51v-4.5542" clip-path="url(#a)"/>
<path d="m388.83 256.51v-40.988" clip-path="url(#a)"/>
<path d="m390.07 256.51v-95.638" clip-path="url(#a)"/>
<path d="m391.31 256.51v-45.542" clip-path="url(#a)"/>
<path d="m392.54 256.51v-4.5542" clip-path="url(#a)"/>
<path d="m393.78 256.51" clip-path="url(#a)"/>
<path d="m395.02 256.51v-13.663" clip-path="url(#a)"/>
<path d="m396.26 256.51v-77.421" clip-path="url(#a)"/>
<path d="m397.49 256.51v-40.988" clip-path="url(#a)"/>
<path d="m398.73 256.51v-109.3" clip-path="url(#a)"/>
<path d="m399.97 256.51v-63.759" clip-path="url(#a)"/>
<path d="m401.2 256.51" clip-path="url(#a)"/>
<path d="m402.44 256.51" clip-path="url(#a)"/>
<path d="m403.68 256.51v-9.1084" clip-path="url(#a)"/>
<path d="m404.92 256.51v-59.205" clip-path="url(#a)"/>
<path d="m406.15 256.51v-31.879" clip-path="url(#a)"/>
<path d="m407.39 256.51v-27.325" clip-path="url(#a)"/>
<path d="m408.63 256.51" clip-path="url(#a)"/>
<path d="m409.87 256.51" clip-path="url(#a)"/>
<path d="m411.1 256.51v-4.5542" clip-path="url(#a)"/>
<path d="m412.34 256.51v-9.1084" clip-path="url(#a)"/>
<path d="m413.58 256.51v-27.325" clip-path="url(#a)"/>
<path d="m414.82 256.51v-13.663" clip-path="url(#a)"/>
<path d="m416.05 256.51v-13.663" clip-path="url(#a)"/>
<path d="m417.29 256.51" clip-path="url(#a)"/>
<path d="m418.53 256.51" clip-path="url(#a)"/>
<path d="m419.77 256.51" clip-path="url(#a)"/>
<path d="m421 256.51v-18.217" clip-path="url(#a)"/>
<path d="m422.24 256.51v-9.1084" clip-path="url(#a)"/>
<path d="m423.48 256.51v-63.759" clip-path="url(#a)"/>
<path d="m424.71 256.51" clip-path="url(#a)"/>
<path d="m425.95 256.51v-4.5542" clip-path="url(#a)"/>
<path d="m427.19 256.51" clip-path="url(#a)"/>
<path d="m428.43 256.51" clip-path="url(#a)"/>
<path d="m429.66 256.51" clip-path="url(#a)"/>
<path d="m430.9 256.51v-9.1084" clip-path="url(#a)"/>
<path d="m432.14 256.51v-9.1084" clip-path="url(#a)"/>
<path d="m433.38 256.51" clip-path="url(#a)"/>
<path d="m434.61 256.51" clip-path="url(#a)"/>
<path d="m435.85 256.51" clip-path="url(#a)"/>
<path d="m438.33 256.51v-4.5542" clip-path="url(#a)"/>
<path d="m439.56 256.51v-36.434" clip-path="url(#a)"/>
<path d="m440.8 256.51v-13.663" clip-path="url(#a)"/>
<path d="m442.04 256.51" clip-path="url(#a)"/>
<path d="m443.28 256.51" clip-path="url(#a)"/>
<path d="m444.51 256.51" clip-path="url(#a)"/>
<path d="m445.75 256.51v-4.5542" clip-path="url(#a)"/>
<path d="m446.99 256.51v-4.5542" clip-path="url(#a)"/>
<path d="m448.22 256.51" clip-path="url(#a)"/>
<path d="m449.46 256.51v-13.663" clip-path="url(#a)"/>
<path d="m450.7 256.51v-9.1084" clip-path="url(#a)"/>
<path d="m451.94 256.51" clip-path="url(#a)"/>
<path d="m453.17 256.51v-4.5542" clip-path="url(#a)"/>
<path d="m454.41 256.51" clip-path="url(#a)"/>
<path d="m455.65 256.51" clip-path="url(#a)"/>
<path d="m456.89 256.51v-4.5542" clip-path="url(#a)"/>
<path d="m458.12 256.51v-4.5542" clip-path="url(#a)"/>
<path d="m459.36 256.51v-4.5542" clip-path="url(#a)"/>
<path d="m460.6 256.51" clip-path="url(#a)"/>
<path d="m461.84 256.51v-4.5542" clip-path="url(#a)"/>
<path d="m463.07 256.51" clip-path="url(#a)"/>
<path d="m464.31 256.51v-9.1084" clip-path="url(#a)"/>
<path d="m465.55 256.51v-4.5542" clip-path="url(#a)"/>
<path d="m466.79 256.51" clip-path="url(#a)"/>
<path d="m468.02 256.51" clip-path="url(#a)"/>
<path d="m469.26 256.51" clip-path="url(#a)"/>
<path d="m470.5 256.51" clip-path="url(#a)"/>
<path d="m471.73 256.51v-4.5542" clip-path="url(#a)"/>
<path d="m472.97 256.51v-4.5542" clip-path="url(#a)"/>
<path d="m474.21 256.51" clip-path="url(#a)"/>
<path d="m475.45 256.51v-4.5542" clip-path="url(#a)"/>
<path d="m476.68 256.51" clip-path="url(#a)"/>
<path d="m477.92 256.51" clip-path="url(#a)"/>
<path d="m479.16 256.51" clip-path="url(#a)"/>
<path d="m480.4 256.51" clip-path="url(#a)"/>
<path d="m481.63 256.51v-9.1084" clip-path="url(#a)"/>
<path d="m482.87 256.51" clip-path="url(#a)"/>
<path d="m484.11 256.51v-13.663" clip-path="url(#a)"/>
<path d="m485.35 256.51" clip-path="url(#a)"/>
<path d="m486.58 256.51v-4.5542" clip-path="url(#a)"/>
<path d="m487.82 256.51" clip-path="url(#a)"/>
<path d="m489.06 256.51" clip-path="url(#a)"/>
<path d="m490.3 256.51" clip-path="url(#a)"/>
<path d="m491.53 256.51v-4.5542" clip-path="url(#a)"/>
<path d="m492.77 256.51" clip-path="url(#a)"/>
<path d="m494.01 256.51" clip-path="url(#a)"/>
<path d="m495.24 256.51v-13.663" clip-path="url(#a)"/>
<path d="m496.48 256.51" clip-path="url(#a)"/>
<path d="m497.72 256.51" clip-path="url(#a)"/>
<path d="m498.96 256.51v-13.663" clip-path="url(#a)"/>
<path d="m500.19 256.51" clip-path="url(#a)"/>
<path d="m501.43 256.51" clip-path="url(#a)"/>
<path d="m502.67 256.51" clip-path="url(#a)"/>
<path d="m503.91 256.51v-4.5542" clip-path="url(#a)"/>
<path d="m505.14 256.51" clip-path="url(#a)"/>
<path d="m506.38 256.51" clip-path="url(#a)"/>
<path d="m507.62 256.51" clip-path="url(#a)"/>
<path d="m508.86 256.51" clip-path="url(#a)"/>
<path d="m510.09 256.51" clip-path="url(#a)"/>
<path d="m511.33 256.51" clip-path="url(#a)"/>
<path d="m512.57 256.51" clip-path="url(#a)"/>
<path d="m513.81 256.51" clip-path="url(#a)"/>
<path d="m515.04 256.51" clip-path="url(#a)"/>
<path d="m516.28 256.51v-4.5542" clip-path="url(#a)"/>
<path d="m517.52 256.51" clip-path="url(#a)"/>
<path d="m518.75 256.51v-4.5542" clip-path="url(#a)"/>
<path d="m519.99 256.51" clip-path="url(#a)"/>
<path d="m521.23 256.51v-4.5542" clip-path="url(#a)"/>
<path d="m522.47 256.51" clip-path="url(#a)"/>
<path d="m523.7 256.51" clip-path="url(#a)"/>
<path d="m524.94 256.51" clip-path="url(#a)"/>
<path d="m526.18 256.51v-4.5542" clip-path="url(#a)"/>
<path d="m527.42 256.51v-4.5542" clip-path="url(#a)"/>
<path d="m528.65 256.51" clip-path="url(#a)"/>
<path d="m529.89 256.51" clip-path="url(#a)"/>
<path d="m531.13 256.51v-4.5542" clip-path="url(#a)"/>
</g>
<path d="m59.691 256.51v-227.71" fill="none" stroke="#000" stroke-linecap="square" stroke-width=".8"/>
<path d="m511.33 256.51v-227.71" fill="none" stroke="#000" stroke-linecap="square" stroke-width=".8"/>
<path d="m59.691 256.51h451.64" fill="none" stroke="#000" stroke-linecap="square" stroke-width=".8"/>
<path d="m59.691 28.8h451.64" fill="none" stroke="#000" stroke-linecap="square" stroke-width=".8"/>
<path d="m59.691 389.72h451.64v-113.86h-451.64z" fill="#fff"/>
<use x="59.690625" y="389.72" stroke="#000000" stroke-width=".8" xlink:href="#e"/>
<g transform="translate(46.966 404.32) scale(.1 -.1)">
<use xlink:href="#k"/>
<use x="63.623047" xlink:href="#b"/>
<use x="127.246094" xlink:href="#h"/>
<use x="190.869141" xlink:href="#u"/>
</g>
<use x="208.175009" y="389.72" stroke="#000000" stroke-width=".8" xlink:href="#e"/>
<defs>
<path id="q" d="m9.8125 72.906h14.703l18.594-49.609 18.703 49.609h14.703v-72.906h-9.625v64.016l-18.797-50h-9.9062l-18.797 50v-64.016h-9.5781z"/>
</defs>
<g transform="translate(197.84 404.32) scale(.1 -.1)">
<use xlink:href="#q"/>
<use x="86.279297" xlink:href="#j"/>
<use x="147.558594" xlink:href="#l"/>
</g>
<use x="360.371502" y="389.72" stroke="#000000" stroke-width=".8" xlink:href="#e"/>
<defs>
<path id="p" d="m53.516 70.516v-9.625q-5.6094 2.6875-10.594 4-4.9844 1.3281-9.625 1.3281-8.0469 0-12.422-3.125t-4.375-8.8906q0-4.8438 2.9062-7.3125 2.9062-2.4531 11.016-3.9688l5.9531-1.2188q11.031-2.1094 16.281-7.4062t5.25-14.172q0-10.609-7.1094-16.078-7.0938-5.4688-20.812-5.4688-5.1719 0-11.016 1.1719-5.8281 1.1719-12.078 3.4688v10.156q6-3.3594 11.766-5.0781 5.7656-1.7031 11.328-1.7031 8.4375 0 13.031 3.3125 4.5938 3.3281 4.5938 9.4844 0 5.3594-3.2969 8.3906t-10.812 4.5469l-6.0156 1.1719q-11.031 2.1875-15.969 6.875-4.9219 4.6875-4.9219 13.047 0 9.6719 6.8125 15.234t18.766 5.5625q5.1406 0 10.453-0.9375 5.3281-0.92188 10.891-2.7656z"/>
</defs>
<g transform="translate(350.95 404.32) scale(.1 -.1)">
<use xlink:href="#p"/>
<use x="63.476562" xlink:href="#f"/>
<use x="125" xlink:href="#n"/>
</g>
<use x="511.330625" y="389.72" stroke="#000000" stroke-width=".8" xlink:href="#e"/>
<g transform="translate(498.61 404.32) scale(.1 -.1)">
<use xlink:href="#k"/>
<use x="63.623047" xlink:href="#b"/>
<use x="127.246094" xlink:href="#h"/>
<use x="190.869141" xlink:href="#g"/>
</g>
<use x="59.690625" y="389.72" stroke="#000000" stroke-width=".6" xlink:href="#c"/>
<use x="98.049091" y="389.72" stroke="#000000" stroke-width=".6" xlink:href="#c"/>
<use x="132.695447" y="389.72" stroke="#000000" stroke-width=".6" xlink:href="#c"/>
<use x="171.053913" y="389.72" stroke="#000000" stroke-width=".6" xlink:href="#c"/>
<use x="208.175009" y="389.72" stroke="#000000" stroke-width=".6" xlink:href="#c"/>
<use x="246.533474" y="389.72" stroke="#000000" stroke-width=".6" xlink:href="#c"/>
<use x="283.65457" y="389.72" stroke="#000000" stroke-width=".6" xlink:href="#c"/>
<use x="322.013036" y="389.72" stroke="#000000" stroke-width=".6" xlink:href="#c"/>
<use x="360.371502" y="389.72" stroke="#000000" stroke-width=".6" xlink:href="#c"/>
<use x="397.492598" y="389.72" stroke="#000000" stroke-width=".6" xlink:href="#c"/>
<use x="435.851063" y="389.72" stroke="#000000" stroke-width=".6" xlink:href="#c"/>
<use x="472.972159" y="389.72" stroke="#000000" stroke-width=".6" xlink:href="#c"/>
<use x="511.330625" y="389.72" stroke="#000000" stroke-width=".6" xlink:href="#c"/>
<use x="59.690625" y="389.72" stroke="#000000" stroke-width=".8" xlink:href="#d"/>
<g transform="translate(46.328 393.52) scale(.1 -.1)">
<use xlink:href="#b"/>
</g>
<use x="59.690625" y="366.948991" stroke="#000000" stroke-width=".8" xlink:href="#d"/>
<g transform="translate(27.241 370.75) scale(.1 -.1)">
<use xlink:href="#k"/>
<use x="63.623047" xlink:href="#g"/>
<use x="127.246094" xlink:href="#b"/>
<use x="190.869141" xlink:href="#b"/>
</g>
<use x="59.690625" y="344.177982" stroke="#000000" stroke-width=".8" xlink:href="#d"/>
<g transform="translate(27.241 347.98) scale(.1 -.1)">
<use xlink:href="#g"/>
<use x="63.623047" xlink:href="#b"/>
<use x="127.246094" xlink:href="#b"/>
<use x="190.869141" xlink:href="#b"/>
</g>
<use x="59.690625" y="321.406973" stroke="#000000" stroke-width=".8" xlink:href="#d"/>
<defs>
<path id="ag" d="m8.2031 72.906h46.875v-4.2031l-26.469-68.703h-10.297l24.906 64.594h-35.016z"/>
</defs>
<g transform="translate(27.241 325.21) scale(.1 -.1)">
<use xlink:href="#ag"/>
<use x="63.623047" xlink:href="#g"/>
<use x="127.246094" xlink:href="#b"/>
<use x="190.869141" xlink:href="#b"/>
</g>
<use x="59.690625" y="298.635964" stroke="#000000" stroke-width=".8" xlink:href="#d"/>
<g transform="translate(20.878 302.44) scale(.1 -.1)">
<use xlink:href="#h"/>
<use x="63.623047" xlink:href="#b"/>
<use x="127.246094" xlink:href="#b"/>
<use x="190.869141" xlink:href="#b"/>
<use x="254.492188" xlink:href="#b"/>
</g>
<use x="59.690625" y="275.864954" stroke="#000000" stroke-width=".8" xlink:href="#d"/>
<g transform="translate(20.878 279.66) scale(.1 -.1)">
<use xlink:href="#h"/>
<use x="63.623047" xlink:href="#k"/>
<use x="127.246094" xlink:href="#g"/>
<use x="190.869141" xlink:href="#b"/>
<use x="254.492188" xlink:href="#b"/>
</g>
<defs>
<path id="aa" d="m9.0781 75.984h9.0312v-44.875l26.812 23.578h11.469l-29-25.578 30.234-29.109h-11.719l-27.797 26.703v-26.703h-9.0312z"/>
<path id="s" d="m30.609 48.391q-7.2188 0-11.422-5.6406t-4.2031-15.453 4.1719-15.453q4.1875-5.6406 11.453-5.6406 7.1875 0 11.375 5.6562 4.2031 5.6719 4.2031 15.438 0 9.7188-4.2031 15.406-4.1875 5.6875-11.375 5.6875zm0 7.6094q11.719 0 18.406-7.625 6.7031-7.6094 6.7031-21.078 0-13.422-6.7031-21.078-6.6875-7.6406-18.406-7.6406-11.766 0-18.438 7.6406-6.6562 7.6562-6.6562 21.078 0 13.469 6.6562 21.078 6.6719 7.625 18.438 7.625z"/>
</defs>
<g transform="translate(14.798 375.91) rotate(-90) scale(.1 -.1)">
<use xlink:href="#w"/>
<use x="83.789062" xlink:href="#DejaVuSans-20"/>
<use x="115.576172" xlink:href="#i"/>
<use x="179.052734" xlink:href="#t"/>
<use x="206.835938" xlink:href="#m"/>
<use x="258.935547" xlink:href="#aa"/>
<use x="316.845703" xlink:href="#m"/>
<use x="368.945312" xlink:href="#DejaVuSans-20"/>
<use x="400.732422" xlink:href="#i"/>
<use x="464.208984" xlink:href="#f"/>
<use x="525.732422" xlink:href="#n"/>
<use x="589.208984" xlink:href="#o"/>
<use x="616.992188" xlink:href="#s"/>
<use x="678.173828" xlink:href="#l"/>
<use x="737.353516" xlink:href="#f"/>
<use x="798.876953" xlink:href="#i"/>
</g>
<path d="m59.691 351.03 11.136 0.15484 4.9495-0.009108 2.4747 0.10019 8.6616 0.17306 6.1868 0.072867 3.7121 0.091084 2.4747 0.091084 11.136 0.1093 6.1868 0.072867 6.1868 0.036434 1.2374-0.40077 4.9495 0.063759 3.7121 0.14573 6.1868 0.063759 3.7121 0.063759 6.1868 0.15484 2.4747 0.091084 2.4747 0.009108 1.2374 0.19128 2.4747 0.072867 1.2374 0.46453 8.6616 0.15484 1.2374-0.38255 2.4747 0.009108 1.2374 0.18217 18.561 0.24593 11.136 0.3279 19.798 0.2186 3.7121 0.091084h12.374l13.611 0.29147 1.2374 0.44631 1.2374 0.018217 1.2374-0.33701 1.2374 0.38255 1.2374-0.30058 1.2374 0.37344 1.2374-0.33701 1.2374 0.009108 1.2374 0.13663 1.2374 0.36434 1.2374-0.34612 2.4747 0.16395 1.2374 4.0988 1.2374 3.1424 1.2374 5.6108 1.2374 1.5211 1.2374-14.2 2.4747 0.027325 1.2374 0.40077 1.2374-0.29147 1.2374 0.37344 3.7121 0.045542 1.2374-0.24593 1.2374 0.045542 1.2374 0.39166 7.4242 0.13663 1.2374 0.40988 1.2374-0.36434 3.7121 0.091084 1.2374 0.37344 1.2374 0.027325 1.2374 0.36434 3.7121 0.027326 1.2374 0.30968 1.2374 0.018217 1.2374 0.76511 4.9495 0.13663 1.2374 1.3025 8.6616 0.14573 3.7121 0.054651 1.2374 0.68313 3.7121 0.081976 1.2374 0.87441 1.2374 0.41899 4.9495 0.063759 1.2374 0.56472 2.4747 0.009108 1.2374 0.33701 3.7121 0.05465 1.2374 1.0657h1.2374l1.2374 0.17306 6.1868 0.072868 1.2374 0.90173 1.2374 0.018216 1.2374 0.26414 3.7121 0.018217 1.2374 1.2205 2.4747 0.10019 1.2374 0.56472 16.086 0.054651 1.2374 0.71046 1.2374 0.51918 3.7121 0.045542 2.4747 2.4593 1.2374 0.40988 1.2374 0.95638 3.7121 0.018217 1.2374 1.3572 1.2374 1.0657 1.2374 0.40988 4.9495 0.045542 1.2374 0.28236 1.2374 0.018217 1.2374 0.33701 6.1868 0.063759 1.2374 0.88352 1.2374 0.36434 4.9495 0.009108 1.2374 0.38255 1.2374 0.20038 6.1868 0.018217 1.2374 0.74689 13.611 0.091084 18.561 0.072867 1.2374 0.71046 24.747 0.10019 6.1868 0.036434 11.136 0.018216 1.2374 0.9746 1.2374 2.3318 1.2374 0.38255 6.1868 0.009108 1.2374 0.35523 4.8392 0.017405v0" clip-path="url(#x)" fill="none" stroke="#1f77b4" stroke-linecap="square" stroke-width="1.5"/>
<path d="m59.691 389.72v-113.86" fill="none" stroke="#000" stroke-linecap="square" stroke-width=".8"/>
<path d="m511.33 389.72v-113.86" fill="none" stroke="#000" stroke-linecap="square" stroke-width=".8"/>
<path d="m59.691 389.72h451.64" fill="none" stroke="#000" stroke-linecap="square" stroke-width=".8"/>
<path d="m59.691 275.86h451.64" fill="none" stroke="#000" stroke-linecap="square" stroke-width=".8"/>
<defs>
<path id="af" d="m11.719 12.406h10.297v-12.406h-10.297zm0 39.297h10.297v-12.391h-10.297z"/>
<path id="ab" d="m45.406 27.984q0 9.7656-4.0312 15.125-4.0156 5.375-11.297 5.375-7.2188 0-11.25-5.375-4.0312-5.3594-4.0312-15.125 0-9.7188 4.0312-15.094t11.25-5.375q7.2812 0 11.297 5.375 4.0312 5.375 4.0312 15.094zm8.9844-21.203q0-13.953-6.2031-20.766-6.1875-6.8125-18.984-6.8125-4.7344 0-8.9375 0.70312t-8.1562 2.1719v8.7344q3.9531-2.1406 7.8125-3.1562 3.8594-1.0312 7.8594-1.0312 8.8438 0 13.234 4.6094t4.3906 13.938v4.4531q-2.7812-4.8438-7.125-7.2344t-10.406-2.3906q-10.047 0-16.203 7.6562-6.1562 7.6719-6.1562 20.328 0 12.688 6.1562 20.344 6.1562 7.6719 16.203 7.6719 6.0625 0 10.406-2.3906t7.125-7.2188v8.2969h8.9844z"/>
<path id="z" d="m18.312 70.219v-15.531h18.5v-6.9844h-18.5v-29.688q0-6.6875 1.8281-8.5938t7.4531-1.9062h9.2188v-7.5156h-9.2188q-10.406 0-14.359 3.875-3.9531 3.8906-3.9531 14.141v29.688h-6.5938v6.9844h6.5938v15.531z"/>
<path id="ad" d="m-0.29688 72.906h61.672v-8.3125h-25.875v-64.594h-9.9062v64.594h-25.891z"/>
<path id="ae" d="m19.672 64.797v-56.688h11.922q15.094 0 22.094 6.8281 7 6.8438 7 21.594 0 14.641-7 21.453t-22.094 6.8125zm-9.8594 8.1094h20.266q21.188 0 31.094-8.8125 9.9219-8.8125 9.9219-27.562 0-18.859-9.9688-27.703-9.9531-8.8281-31.047-8.8281h-20.266z"/>
</defs>
<g transform="translate(185.5 16.318) scale(.12 -.12)">
<use xlink:href="#q"/>
<use x="86.279297" xlink:href="#s"/>
<use x="147.460938" xlink:href="#i"/>
<use x="210.9375" xlink:href="#f"/>
<use x="272.460938" xlink:href="#o"/>
<use x="300.244141" xlink:href="#af"/>
<use x="333.935547" xlink:href="#DejaVuSans-20"/>
<use x="365.722656" xlink:href="#p"/>
<use x="429.199219" xlink:href="#f"/>
<use x="490.722656" xlink:href="#j"/>
<use x="552.001953" xlink:href="#ab"/>
<use x="615.478516" xlink:href="#j"/>
<use x="676.757812" xlink:href="#z"/>
<use x="715.966797" xlink:href="#f"/>
<use x="777.490234" xlink:href="#DejaVuSans-20"/>
<use x="809.277344" xlink:href="#p"/>
<use x="872.753906" xlink:href="#ad"/>
<use x="933.837891" xlink:href="#v"/>
<use x="997.460938" xlink:href="#b"/>
<use x="1061.083984" xlink:href="#b"/>
<use x="1124.707031" xlink:href="#b"/>
<use x="1188.330078" xlink:href="#ae"/>
<use x="1265.332031" xlink:href="#q"/>
<use x="1351.611328" xlink:href="#b"/>
<use x="1415.234375" xlink:href="#b"/>
<use x="1478.857422" xlink:href="#h"/>
</g>
<defs>
<clipPath id="a">
<rect x="59.691" y="28.8" width="451.64" height="227.71"/>
</clipPath>
<clipPath id="x">
<rect x="59.691" y="275.86" width="451.64" height="113.86"/>
</clipPath>
</defs>
</svg>
