<?xml version="1.0" encoding="UTF-8"?>
<svg width="444pt" height="214pt" version="1.1" viewBox="0 0 444 214" xmlns="http://www.w3.org/2000/svg" xmlns:cc="http://creativecommons.org/ns#" xmlns:dc="http://purl.org/dc/elements/1.1/" xmlns:rdf="http://www.w3.org/1999/02/22-rdf-syntax-ns#" xmlns:xlink="http://www.w3.org/1999/xlink">
<metadata>
<rdf:RDF>
<cc:Work rdf:about="">
<dc:format>image/svg+xml</dc:format>
<dc:type rdf:resource="http://purl.org/dc/dcmitype/StillImage"/>
</cc:Work>
</rdf:RDF>
</metadata>
<defs>
<marker id="ac" overflow="visible" orient="auto">
<path transform="scale(.4) rotate(180) translate(10)" d="m0 0 5-5-17.5 5 17.5 5-5-5z" fill-rule="evenodd" stroke="#000" stroke-width="1pt"/>
</marker>
<marker id="ab" overflow="visible" orient="auto">
<path transform="scale(.4) translate(10)" d="m0 0 5-5-17.5 5 17.5 5-5-5z" fill-rule="evenodd" stroke="#000" stroke-width="1pt"/>
</marker>
<marker id="r" overflow="visible" orient="auto">
<path transform="scale(.4) translate(10)" d="m0 0 5-5-17.5 5 17.5 5-5-5z" fill-rule="evenodd" stroke="#000" stroke-width="1pt"/>
</marker>
<marker id="q" overflow="visible" orient="auto">
<path transform="scale(.4) rotate(180) translate(10)" d="m0 0 5-5-17.5 5 17.5 5-5-5z" fill-rule="evenodd" stroke="#000" stroke-width="1pt"/>
</marker>
<style type="text/css">*{stroke-linecap:butt;stroke-linejoin:round;}</style>
</defs>
<path d="m0 214.88h444.77v-214.88h-444.77z" fill="#fff"/>
<path d="m34.241 177.32h390.6v-166.32h-390.6z" fill="#fff"/>
<defs>
<path id="ad" d="m34.241-37.556v-83.16h266.63v41.58h123.43v41.58h-390.06z" stroke="#0766aa" stroke-opacity=".2"/>
</defs>
<g clip-path="url(#i)">
<use y="214.875469" fill="#0766aa" fill-opacity=".2" stroke="#0766aa" stroke-opacity=".2" xlink:href="#ad"/>
</g>
<defs>
<path id="b" d="m0 0v3.5" stroke="#000" stroke-width=".8"/>
</defs>
<use x="34.240625" y="177.319219" stroke="#000000" stroke-width=".8" xlink:href="#b"/>
<defs>
<path id="f" d="m19.188 8.2969h34.422v-8.2969h-46.281v8.2969q5.6094 5.8125 15.297 15.594 9.7031 9.7969 12.188 12.641 4.7344 5.3125 6.6094 9 1.8906 3.6875 1.8906 7.25 0 5.8125-4.0781 9.4688-4.0781 3.6719-10.625 3.6719-4.6406 0-9.7969-1.6094-5.1406-1.6094-11-4.8906v9.9688q5.9531 2.3906 11.125 3.6094 5.1875 1.2188 9.4844 1.2188 11.328 0 18.062-5.6719 6.7344-5.6562 6.7344-15.125 0-4.5-1.6875-8.5312-1.6719-4.0156-6.125-9.4844-1.2188-1.4219-7.7656-8.1875-6.5312-6.7656-18.453-18.922z"/>
<path id="h" d="m31.781 66.406q-7.6094 0-11.453-7.5-3.8281-7.4844-3.8281-22.531 0-14.984 3.8281-22.484 3.8438-7.5 11.453-7.5 7.6719 0 11.5 7.5 3.8438 7.5 3.8438 22.484 0 15.047-3.8438 22.531-3.8281 7.5-11.5 7.5zm0 7.8125q12.266 0 18.734-9.7031 6.4688-9.6875 6.4688-28.141 0-18.406-6.4688-28.109-6.4688-9.6875-18.734-9.6875-12.25 0-18.719 9.6875-6.4688 9.7031-6.4688 28.109 0 18.453 6.4688 28.141 6.4688 9.7031 18.719 9.7031z"/>
<path id="g" d="m12.406 8.2969h16.109v55.625l-17.531-3.5156v8.9844l17.438 3.5156h9.8594v-64.609h16.109v-8.2969h-41.984z"/>
<path id="y" d="m33.016 40.375q-6.6406 0-10.531-4.5469-3.875-4.5312-3.875-12.438 0-7.8594 3.875-12.438 3.8906-4.5625 10.531-4.5625t10.516 4.5625q3.875 4.5781 3.875 12.438 0 7.9062-3.875 12.438-3.875 4.5469-10.516 4.5469zm19.578 30.922v-8.9844q-3.7188 1.75-7.5 2.6719-3.7812 0.9375-7.5 0.9375-9.7656 0-14.922-6.5938-5.1406-6.5938-5.875-19.922 2.875 4.25 7.2188 6.5156 4.3594 2.2656 9.5781 2.2656 10.984 0 17.359-6.6719 6.375-6.6562 6.375-18.125 0-11.234-6.6406-18.031-6.6406-6.7812-17.672-6.7812-12.656 0-19.344 9.6875-6.6875 9.7031-6.6875 28.109 0 17.281 8.2031 27.562t22.016 10.281q3.7188 0 7.5-0.73438t7.8906-2.1875z"/>
</defs>
<g transform="translate(21.516 191.92) scale(.1 -.1)">
<use xlink:href="#f"/>
<use x="63.623047" xlink:href="#h"/>
<use x="127.246094" xlink:href="#g"/>
<use x="190.869141" xlink:href="#y"/>
</g>
<use x="98.895345" y="177.319219" stroke="#000000" stroke-width=".8" xlink:href="#b"/>
<defs>
<path id="p" d="m9.8125 72.906h14.703l18.594-49.609 18.703 49.609h14.703v-72.906h-9.625v64.016l-18.797-50h-9.9062l-18.797 50v-64.016h-9.5781z"/>
<path id="e" d="m34.281 27.484q-10.891 0-15.094-2.4844t-4.2031-8.5q0-4.7812 3.1562-7.5938 3.1562-2.7969 8.5625-2.7969 7.4844 0 12 5.2969t4.5156 14.078v2zm17.922 3.7188v-31.203h-8.9844v8.2969q-3.0781-4.9688-7.6719-7.3438t-11.234-2.375q-8.3906 0-13.359 4.7188-4.9531 4.7188-4.9531 12.625 0 9.2188 6.1719 13.906 6.1875 4.6875 18.438 4.6875h12.609v0.89062q0 6.2031-4.0781 9.5938t-11.453 3.3906q-4.6875 0-9.1406-1.125-4.4375-1.125-8.5312-3.375v8.3125q4.9219 1.9062 9.5625 2.8438 4.6406 0.95312 9.0312 0.95312 11.875 0 17.734-6.1562 5.8594-6.1406 5.8594-18.641z"/>
<path id="j" d="m32.172-5.0781q-3.7969-9.7656-7.4219-12.734-3.6094-2.9844-9.6562-2.9844h-7.1875v7.5156h5.2812q3.7031 0 5.75 1.7656 2.0625 1.75 4.5469 8.2969l1.6094 4.0938-22.109 53.812h9.5156l17.094-42.766 17.094 42.766h9.5156z"/>
</defs>
<g transform="translate(88.558 191.92) scale(.1 -.1)">
<use xlink:href="#p"/>
<use x="86.279297" xlink:href="#e"/>
<use x="147.558594" xlink:href="#j"/>
</g>
<use x="164.618737" y="177.319219" stroke="#000000" stroke-width=".8" xlink:href="#b"/>
<defs>
<path id="o" d="m53.516 70.516v-9.625q-5.6094 2.6875-10.594 4-4.9844 1.3281-9.625 1.3281-8.0469 0-12.422-3.125t-4.375-8.8906q0-4.8438 2.9062-7.3125 2.9062-2.4531 11.016-3.9688l5.9531-1.2188q11.031-2.1094 16.281-7.4062t5.25-14.172q0-10.609-7.1094-16.078-7.0938-5.4688-20.812-5.4688-5.1719 0-11.016 1.1719-5.8281 1.1719-12.078 3.4688v10.156q6-3.3594 11.766-5.0781 5.7656-1.7031 11.328-1.7031 8.4375 0 13.031 3.3125 4.5938 3.3281 4.5938 9.4844 0 5.3594-3.2969 8.3906t-10.812 4.5469l-6.0156 1.1719q-11.031 2.1875-15.969 6.875-4.9219 4.6875-4.9219 13.047 0 9.6719 6.8125 15.234t18.766 5.5625q5.1406 0 10.453-0.9375 5.3281-0.92188 10.891-2.7656z"/>
<path id="d" d="m56.203 29.594v-4.3906h-41.312q0.59375-9.2812 5.5938-14.141t13.938-4.8594q5.1719 0 10.031 1.2656t9.6562 3.8125v-8.5q-4.8438-2.0469-9.9219-3.125t-10.297-1.0781q-13.094 0-20.734 7.6094-7.6406 7.625-7.6406 20.625 0 13.422 7.25 21.297 7.25 7.8906 19.562 7.8906 11.031 0 17.453-7.1094 6.4219-7.0938 6.4219-19.297zm-8.9844 2.6406q-0.09375 7.3594-4.125 11.75-4.0312 4.4062-10.672 4.4062-7.5156 0-12.031-4.25t-5.2031-11.969z"/>
<path id="m" d="m18.109 8.2031v-29h-9.0312v75.484h9.0312v-8.2969q2.8438 4.875 7.1562 7.2344 4.3281 2.375 10.328 2.375 9.9688 0 16.188-7.9062 6.2344-7.9062 6.2344-20.797t-6.2344-20.812q-6.2188-7.9062-16.188-7.9062-6 0-10.328 2.375-4.3125 2.375-7.1562 7.25zm30.578 19.094q0 9.9062-4.0781 15.547t-11.203 5.6406q-7.1406 0-11.219-5.6406t-4.0781-15.547 4.0781-15.547 11.219-5.6406q7.125 0 11.203 5.6406t4.0781 15.547z"/>
</defs>
<g transform="translate(155.19 191.92) scale(.1 -.1)">
<use xlink:href="#o"/>
<use x="63.476562" xlink:href="#d"/>
<use x="125" xlink:href="#m"/>
</g>
<use x="229.807793" y="177.319219" stroke="#000000" stroke-width=".8" xlink:href="#b"/>
<defs>
<path id="x" d="m8.2031 72.906h46.875v-4.2031l-26.469-68.703h-10.297l24.906 64.594h-35.016z"/>
</defs>
<g transform="translate(217.08 191.92) scale(.1 -.1)">
<use xlink:href="#f"/>
<use x="63.623047" xlink:href="#h"/>
<use x="127.246094" xlink:href="#g"/>
<use x="190.869141" xlink:href="#x"/>
</g>
<use x="293.928176" y="177.319219" stroke="#000000" stroke-width=".8" xlink:href="#b"/>
<g transform="translate(283.59 191.92) scale(.1 -.1)">
<use xlink:href="#p"/>
<use x="86.279297" xlink:href="#e"/>
<use x="147.558594" xlink:href="#j"/>
</g>
<use x="359.651569" y="177.319219" stroke="#000000" stroke-width=".8" xlink:href="#b"/>
<g transform="translate(350.23 191.92) scale(.1 -.1)">
<use xlink:href="#o"/>
<use x="63.476562" xlink:href="#d"/>
<use x="125" xlink:href="#m"/>
</g>
<use x="424.840625" y="177.319219" stroke="#000000" stroke-width=".8" xlink:href="#b"/>
<defs>
<path id="w" d="m31.781 34.625q-7.0312 0-11.062-3.7656-4.0156-3.7656-4.0156-10.344 0-6.5938 4.0156-10.359 4.0312-3.7656 11.062-3.7656t11.078 3.7812q4.0625 3.7969 4.0625 10.344 0 6.5781-4.0312 10.344-4.0156 3.7656-11.109 3.7656zm-9.8594 4.1875q-6.3438 1.5625-9.8906 5.9062-3.5312 4.3594-3.5312 10.609 0 8.7344 6.2188 13.812 6.2344 5.0781 17.062 5.0781 10.891 0 17.094-5.0781t6.2031-13.812q0-6.25-3.5469-10.609-3.5312-4.3438-9.8281-5.9062 7.125-1.6562 11.094-6.5 3.9844-4.8281 3.9844-11.797 0-10.609-6.4688-16.281-6.4688-5.6562-18.531-5.6562-12.047 0-18.531 5.6562-6.4688 5.6719-6.4688 16.281 0 6.9688 4 11.797 4.0156 4.8438 11.141 6.5zm-3.6094 15.578q0-5.6562 3.5312-8.8281 3.5469-3.1719 9.9375-3.1719 6.3594 0 9.9375 3.1719 3.5938 3.1719 3.5938 8.8281 0 5.6719-3.5938 8.8438-3.5781 3.1719-9.9375 3.1719-6.3906 0-9.9375-3.1719-3.5312-3.1719-3.5312-8.8438z"/>
</defs>
<g transform="translate(412.12 191.92) scale(.1 -.1)">
<use xlink:href="#f"/>
<use x="63.623047" xlink:href="#h"/>
<use x="127.246094" xlink:href="#g"/>
<use x="190.869141" xlink:href="#w"/>
</g>
<defs>
<path id="a" d="m0 0v2" stroke="#000" stroke-width=".6"/>
</defs>
<use x="34.240625" y="177.319219" stroke="#000000" stroke-width=".6" xlink:href="#a"/>
<use x="50.805057" y="177.319219" stroke="#000000" stroke-width=".6" xlink:href="#a"/>
<use x="66.300817" y="177.319219" stroke="#000000" stroke-width=".6" xlink:href="#a"/>
<use x="82.865249" y="177.319219" stroke="#000000" stroke-width=".6" xlink:href="#a"/>
<use x="98.895345" y="177.319219" stroke="#000000" stroke-width=".6" xlink:href="#a"/>
<use x="115.459777" y="177.319219" stroke="#000000" stroke-width=".6" xlink:href="#a"/>
<use x="131.489873" y="177.319219" stroke="#000000" stroke-width=".6" xlink:href="#a"/>
<use x="148.054305" y="177.319219" stroke="#000000" stroke-width=".6" xlink:href="#a"/>
<use x="164.618737" y="177.319219" stroke="#000000" stroke-width=".6" xlink:href="#a"/>
<use x="180.648833" y="177.319219" stroke="#000000" stroke-width=".6" xlink:href="#a"/>
<use x="197.213265" y="177.319219" stroke="#000000" stroke-width=".6" xlink:href="#a"/>
<use x="213.243361" y="177.319219" stroke="#000000" stroke-width=".6" xlink:href="#a"/>
<use x="229.807793" y="177.319219" stroke="#000000" stroke-width=".6" xlink:href="#a"/>
<use x="246.372226" y="177.319219" stroke="#000000" stroke-width=".6" xlink:href="#a"/>
<use x="261.333648" y="177.319219" stroke="#000000" stroke-width=".6" xlink:href="#a"/>
<use x="277.898081" y="177.319219" stroke="#000000" stroke-width=".6" xlink:href="#a"/>
<use x="293.928176" y="177.319219" stroke="#000000" stroke-width=".6" xlink:href="#a"/>
<use x="310.492609" y="177.319219" stroke="#000000" stroke-width=".6" xlink:href="#a"/>
<use x="326.522704" y="177.319219" stroke="#000000" stroke-width=".6" xlink:href="#a"/>
<use x="343.087137" y="177.319219" stroke="#000000" stroke-width=".6" xlink:href="#a"/>
<use x="359.651569" y="177.319219" stroke="#000000" stroke-width=".6" xlink:href="#a"/>
<use x="375.681665" y="177.319219" stroke="#000000" stroke-width=".6" xlink:href="#a"/>
<use x="392.246097" y="177.319219" stroke="#000000" stroke-width=".6" xlink:href="#a"/>
<use x="408.276193" y="177.319219" stroke="#000000" stroke-width=".6" xlink:href="#a"/>
<use x="424.840625" y="177.319219" stroke="#000000" stroke-width=".6" xlink:href="#a"/>
<defs>
<path id="v" d="m64.406 67.281v-10.391q-4.9844 4.6406-10.625 6.9219-5.6406 2.2969-11.984 2.2969-12.5 0-19.141-7.6406t-6.6406-22.094q0-14.406 6.6406-22.047t19.141-7.6406q6.3438 0 11.984 2.2969t10.625 6.9375v-10.312q-5.1719-3.5156-10.969-5.2812-5.7812-1.75-12.219-1.75-16.562 0-26.094 10.125-9.5156 10.141-9.5156 27.672 0 17.578 9.5156 27.703 9.5312 10.141 26.094 10.141 6.5312 0 12.312-1.7344 5.7969-1.7344 10.875-5.2031z"/>
<path id="aj" d="m9.4219 75.984h8.9844v-75.984h-8.9844z"/>
<path id="ah" d="m54.891 33.016v-33.016h-8.9844v32.719q0 7.7656-3.0312 11.609-3.0312 3.8594-9.0781 3.8594-7.2812 0-11.484-4.6406-4.2031-4.625-4.2031-12.641v-30.906h-9.0312v54.688h9.0312v-8.5q3.2344 4.9375 7.5938 7.375 4.375 2.4375 10.094 2.4375 9.4219 0 14.25-5.8281 4.8438-5.8281 4.8438-17.156z"/>
<path id="n" d="m45.406 46.391v29.594h8.9844v-75.984h-8.9844v8.2031q-2.8281-4.875-7.1562-7.25-4.3125-2.375-10.375-2.375-9.9062 0-16.141 7.9062-6.2188 7.9219-6.2188 20.812t6.2188 20.797q6.2344 7.9062 16.141 7.9062 6.0625 0 10.375-2.375 4.3281-2.3594 7.1562-7.2344zm-30.609-19.094q0-9.9062 4.0781-15.547t11.203-5.6406 11.219 5.6406q4.1094 5.6406 4.1094 15.547t-4.1094 15.547q-4.0938 5.6406-11.219 5.6406t-11.203-5.6406-4.0781-15.547z"/>
<path id="l" d="m41.109 46.297q-1.5156 0.875-3.2969 1.2812-1.7812 0.42188-3.9219 0.42188-7.625 0-11.703-4.9531t-4.0781-14.234v-28.812h-9.0312v54.688h9.0312v-8.5q2.8438 4.9844 7.375 7.3906 4.5469 2.4219 11.047 2.4219 0.92188 0 2.0469-0.125 1.125-0.10938 2.4844-0.35938z"/>
<path id="u" d="m19.672 64.797v-56.688h11.922q15.094 0 22.094 6.8281 7 6.8438 7 21.594 0 14.641-7 21.453t-22.094 6.8125zm-9.8594 8.1094h20.266q21.188 0 31.094-8.8125 9.9219-8.8125 9.9219-27.562 0-18.859-9.9688-27.703-9.9531-8.8281-31.047-8.8281h-20.266z"/>
<path id="af" d="m18.312 70.219v-15.531h18.5v-6.9844h-18.5v-29.688q0-6.6875 1.8281-8.5938t7.4531-1.9062h9.2188v-7.5156h-9.2188q-10.406 0-14.359 3.875-3.9531 3.8906-3.9531 14.141v29.688h-6.5938v6.9844h6.5938v15.531z"/>
</defs>
<g transform="translate(193.52 205.6) scale(.1 -.1)">
<use xlink:href="#v"/>
<use x="69.824219" xlink:href="#e"/>
<use x="131.103516" xlink:href="#aj"/>
<use x="158.886719" xlink:href="#d"/>
<use x="220.410156" xlink:href="#ah"/>
<use x="283.789062" xlink:href="#n"/>
<use x="347.265625" xlink:href="#e"/>
<use x="408.544922" xlink:href="#l"/>
<use x="449.658203" xlink:href="#DejaVuSans-20"/>
<use x="481.445312" xlink:href="#u"/>
<use x="558.447266" xlink:href="#e"/>
<use x="619.726562" xlink:href="#af"/>
<use x="658.935547" xlink:href="#d"/>
</g>
<defs>
<path id="c" d="m0 0h-3.5" stroke="#000" stroke-width=".8"/>
</defs>
<use x="34.240625" y="177.319219" stroke="#000000" stroke-width=".8" xlink:href="#c"/>
<g transform="translate(20.878 181.12) scale(.1 -.1)">
<use xlink:href="#h"/>
</g>
<use x="34.240625" y="135.739219" stroke="#000000" stroke-width=".8" xlink:href="#c"/>
<g transform="translate(20.878 139.54) scale(.1 -.1)">
<use xlink:href="#g"/>
</g>
<use x="34.240625" y="94.159219" stroke="#000000" stroke-width=".8" xlink:href="#c"/>
<g transform="translate(20.878 97.958) scale(.1 -.1)">
<use xlink:href="#f"/>
</g>
<use x="34.240625" y="52.579219" stroke="#000000" stroke-width=".8" xlink:href="#c"/>
<defs>
<path id="aa" d="m40.578 39.312q7.0781-1.5156 11.047-6.3125 3.9844-4.7812 3.9844-11.812 0-10.781-7.4219-16.703-7.4219-5.9062-21.094-5.9062-4.5781 0-9.4375 0.90625t-10.031 2.7188v9.5156q4.0938-2.3906 8.9688-3.6094 4.8906-1.2188 10.219-1.2188 9.2656 0 14.125 3.6562t4.8594 10.641q0 6.4531-4.5156 10.078-4.5156 3.6406-12.562 3.6406h-8.5v8.1094h8.8906q7.2656 0 11.125 2.9062t3.8594 8.375q0 5.6094-3.9844 8.6094-3.9688 3.0156-11.391 3.0156-4.0625 0-8.7031-0.89062-4.6406-0.875-10.203-2.7188v8.7812q5.625 1.5625 10.531 2.3438t9.25 0.78125q11.234 0 17.766-5.1094 6.5469-5.0938 6.5469-13.781 0-6.0625-3.4688-10.234t-9.8594-5.7812z"/>
</defs>
<g transform="translate(20.878 56.378) scale(.1 -.1)">
<use xlink:href="#aa"/>
</g>
<use x="34.240625" y="10.999219" stroke="#000000" stroke-width=".8" xlink:href="#c"/>
<defs>
<path id="z" d="m37.797 64.312-24.906-38.922h24.906zm-2.5938 8.5938h12.406v-47.516h10.406v-8.2031h-10.406v-17.188h-9.8125v17.188h-32.906v9.5156z"/>
</defs>
<g transform="translate(20.878 14.798) scale(.1 -.1)">
<use xlink:href="#z"/>
</g>
<defs>
<path id="t" d="m9.8125 72.906h13.281l32.328-60.984v60.984h9.5625v-72.906h-13.281l-32.312 60.984v-60.984h-9.5781z"/>
<path id="ae" d="m8.5 21.578v33.109h8.9844v-32.766q0-7.7656 3.0156-11.656 3.0312-3.875 9.0938-3.875 7.2656 0 11.484 4.6406 4.2344 4.6406 4.2344 12.656v31h8.9844v-54.688h-8.9844v8.4062q-3.2656-4.9844-7.5938-7.4062-4.3125-2.4219-10.031-2.4219-9.4219 0-14.312 5.8594-4.875 5.8594-4.875 17.141zm22.609 34.422z"/>
<path id="ai" d="m52 44.188q3.375 6.0625 8.0625 8.9375t11.031 2.875q8.5469 0 13.188-5.9844 4.6406-5.9688 4.6406-17v-33.016h-9.0312v32.719q0 7.8594-2.7969 11.656-2.7812 3.8125-8.4844 3.8125-6.9844 0-11.047-4.6406-4.0469-4.625-4.0469-12.641v-30.906h-9.0312v32.719q0 7.9062-2.7812 11.688t-8.5938 3.7812q-6.8906 0-10.953-4.6562-4.0469-4.6562-4.0469-12.625v-30.906h-9.0312v54.688h9.0312v-8.5q3.0781 5.0312 7.375 7.4219t10.203 2.3906q5.9688 0 10.141-3.0312 4.1719-3.0156 6.1719-8.7812z"/>
<path id="s" d="m48.688 27.297q0 9.9062-4.0781 15.547t-11.203 5.6406q-7.1406 0-11.219-5.6406t-4.0781-15.547 4.0781-15.547 11.219-5.6406q7.125 0 11.203 5.6406t4.0781 15.547zm-30.578 19.094q2.8438 4.875 7.1562 7.2344 4.3281 2.375 10.328 2.375 9.9688 0 16.188-7.9062 6.2344-7.9062 6.2344-20.797t-6.2344-20.812q-6.2188-7.9062-16.188-7.9062-6 0-10.328 2.375-4.3125 2.375-7.1562 7.25v-8.2031h-9.0312v75.984h9.0312z"/>
<path id="ag" d="m30.609 48.391q-7.2188 0-11.422-5.6406t-4.2031-15.453 4.1719-15.453q4.1875-5.6406 11.453-5.6406 7.1875 0 11.375 5.6562 4.2031 5.6719 4.2031 15.438 0 9.7188-4.2031 15.406-4.1875 5.6875-11.375 5.6875zm0 7.6094q11.719 0 18.406-7.625 6.7031-7.6094 6.7031-21.078 0-13.422-6.7031-21.078-6.6875-7.6406-18.406-7.6406-11.766 0-18.438 7.6406-6.6562 7.6562-6.6562 21.078 0 13.469 6.6562 21.078 6.6719 7.625 18.438 7.625z"/>
<path id="am" d="m37.109 75.984v-7.4844h-8.5938q-4.8281 0-6.7188-1.9531-1.875-1.9531-1.875-7.0312v-4.8281h14.797v-6.9844h-14.797v-47.703h-9.0312v47.703h-8.5938v6.9844h8.5938v3.8125q0 9.125 4.25 13.297 4.25 4.1875 13.469 4.1875z"/>
<path id="al" d="m9.4219 54.688h8.9844v-54.688h-8.9844zm0 21.297h8.9844v-11.391h-8.9844z"/>
<path id="k" d="m44.281 53.078v-8.5q-3.7969 1.9531-7.9062 2.9219-4.0938 0.98438-8.5 0.98438-6.6875 0-10.031-2.0469t-3.3438-6.1562q0-3.125 2.3906-4.9062t9.625-3.3906l3.0781-0.6875q9.5625-2.0469 13.594-5.7812t4.0312-10.422q0-7.625-6.0312-12.078-6.0312-4.4375-16.578-4.4375-4.3906 0-9.1562 0.85938t-10.031 2.5625v9.2812q4.9844-2.5938 9.8125-3.8906 4.8281-1.2812 9.5781-1.2812 6.3438 0 9.75 2.1719 3.4219 2.1719 3.4219 6.125 0 3.6562-2.4688 5.6094-2.4531 1.9531-10.812 3.7656l-3.125 0.73438q-8.3438 1.75-12.062 5.3906-3.7031 3.6406-3.7031 9.9844 0 7.7188 5.4688 11.906 5.4688 4.2031 15.531 4.2031 4.9688 0 9.3594-0.73438 4.4062-0.71875 8.1094-2.1875z"/>
<path id="ak" d="m9.0781 75.984h9.0312v-44.875l26.812 23.578h11.469l-29-25.578 30.234-29.109h-11.719l-27.797 26.703v-26.703h-9.0312z"/>
</defs>
<g transform="translate(14.798 134.91) rotate(-90) scale(.1 -.1)">
<use xlink:href="#t"/>
<use x="74.804688" xlink:href="#ae"/>
<use x="138.183594" xlink:href="#ai"/>
<use x="235.595703" xlink:href="#s"/>
<use x="299.072266" xlink:href="#d"/>
<use x="360.595703" xlink:href="#l"/>
<use x="401.708984" xlink:href="#DejaVuSans-20"/>
<use x="433.496094" xlink:href="#ag"/>
<use x="494.677734" xlink:href="#am"/>
<use x="529.882812" xlink:href="#DejaVuSans-20"/>
<use x="561.669922" xlink:href="#n"/>
<use x="625.146484" xlink:href="#al"/>
<use x="652.929688" xlink:href="#k"/>
<use x="705.029297" xlink:href="#ak"/>
<use x="762.939453" xlink:href="#k"/>
</g>
<path d="m300.87 177.32v-166.32" clip-path="url(#i)" fill="none" stroke="#e77" stroke-dasharray="5.55,2.4" stroke-width="1.5"/>
<path d="m34.241 177.32v-166.32" fill="none" stroke="#000" stroke-linecap="square" stroke-width=".8"/>
<path d="m424.84 177.32v-166.32" fill="none" stroke="#000" stroke-linecap="square" stroke-width=".8"/>
<path d="m34.241 177.32h390.6" fill="none" stroke="#000" stroke-linecap="square" stroke-width=".8"/>
<path d="m34.241 10.999h390.6" fill="none" stroke="#000" stroke-linecap="square" stroke-width=".8"/>
<defs>
<clipPath id="i">
<rect x="34.241" y="10.999" width="390.6" height="166.32"/>
</clipPath>
</defs>
<g stroke-width=".75px">
<path d="m34.829 122.22h265.88" fill="none" marker-end="url(#q)" marker-start="url(#r)" stroke="#000"/>
<text x="143.66716" y="117.33227" fill="#000000" font-family="sans-serif" font-size="20px" letter-spacing="0px" stroke-linejoin="round" text-align="center" text-anchor="middle" word-spacing="0px" style="line-height:18.75px" xml:space="preserve"><tspan x="143.66716" y="117.33227" font-size="14px" stroke-linejoin="round" stroke-width=".75px" style="line-height:18.75px">disk-1</tspan></text>
</g>
<g stroke-width=".75px">
<path d="m34.829 162.49h389.01" fill="none" marker-end="url(#ac)" marker-start="url(#ab)" stroke="#000"/>
<text x="205.47713" y="158.59558" fill="#000000" font-family="sans-serif" font-size="20px" letter-spacing="0px" stroke-linejoin="round" text-align="center" text-anchor="middle" word-spacing="0px" style="line-height:18.75px" xml:space="preserve"><tspan x="205.47713" y="158.59558" font-size="14px" stroke-linejoin="round" stroke-width=".75px">disk-2</tspan></text>
</g>
</svg>
