<?xml version="1.0" encoding="UTF-8"?>
<svg width="656.4" height="480.7" enable-background="new" version="1.1" viewBox="0 0 173.67 127.19" xmlns="http://www.w3.org/2000/svg" xmlns:cc="http://creativecommons.org/ns#" xmlns:dc="http://purl.org/dc/elements/1.1/" xmlns:rdf="http://www.w3.org/1999/02/22-rdf-syntax-ns#" xmlns:xlink="http://www.w3.org/1999/xlink">
<defs>
<marker id="m" overflow="visible" orient="auto">
<path transform="matrix(-.4 0 0 -.4 -4 0)" d="m0 0 5-5-17.5 5 17.5 5z" fill-rule="evenodd" stroke="#000" stroke-width="1pt"/>
</marker>
<marker id="n" overflow="visible" orient="auto">
<path transform="matrix(-.4 0 0 -.4 -4 0)" d="m0 0 5-5-17.5 5 17.5 5z" fill-opacity=".2" fill-rule="evenodd" stroke="#000" stroke-opacity=".2" stroke-width="1pt"/>
</marker>
<marker id="o" overflow="visible" orient="auto">
<path transform="matrix(-.4 0 0 -.4 -4 0)" d="m0 0 5-5-17.5 5 17.5 5z" fill-rule="evenodd" stroke="#000" stroke-width="1pt"/>
</marker>
<marker id="p" overflow="visible" orient="auto">
<path transform="matrix(-.4 0 0 -.4 -4 0)" d="m0 0 5-5-17.5 5 17.5 5z" fill-opacity=".4" fill-rule="evenodd" stroke="#000" stroke-opacity=".4" stroke-width="1pt"/>
</marker>
<marker id="q" overflow="visible" orient="auto">
<path transform="matrix(-.4 0 0 -.4 -4 0)" d="m0 0 5-5-17.5 5 17.5 5z" fill-opacity=".33333" fill-rule="evenodd" stroke="#000" stroke-opacity=".33333" stroke-width="1pt"/>
</marker>
<pattern id="e" patternTransform="matrix(.66583 .17409 -.067698 .25892 17.816 27.551)" xlink:href="#b"/>
<pattern id="f" patternTransform="matrix(.58808 .37131 -.15656 .24795 17.816 27.551)" xlink:href="#b"/>
<pattern id="g" patternTransform="matrix(.31633 .58996 -.36531 .19588 49.566 27.551)" xlink:href="#b"/>
<marker id="h" overflow="visible" orient="auto">
<path transform="matrix(-.4 0 0 -.4 -4 0)" d="m0 0 5-5-17.5 5 17.5 5z" fill-rule="evenodd" stroke="#000" stroke-width="1pt"/>
</marker>
<marker id="i" overflow="visible" orient="auto">
<path transform="matrix(-.4 0 0 -.4 -4 0)" d="m0 0 5-5-17.5 5 17.5 5z" fill-rule="evenodd" stroke="#000" stroke-width="1pt"/>
</marker>
<marker id="j" overflow="visible" orient="auto">
<path transform="matrix(-.4 0 0 -.4 -4 0)" d="m0 0 5-5-17.5 5 17.5 5z" fill-rule="evenodd" stroke="#000" stroke-width="1pt"/>
</marker>
<marker id="k" overflow="visible" orient="auto">
<path transform="matrix(-.4 0 0 -.4 -4 0)" d="m0 0 5-5-17.5 5 17.5 5z" fill-rule="evenodd" stroke="#000" stroke-width="1pt"/>
</marker>
<linearGradient id="a">
<stop stop-opacity="0" offset="0"/>
<stop offset="1"/>
</linearGradient>
<marker id="l" overflow="visible" orient="auto">
<path transform="matrix(-.4 0 0 -.4 -4 0)" d="m0 0 5-5-17.5 5 17.5 5z" fill-rule="evenodd" stroke="#000" stroke-width="1pt"/>
</marker>
<marker id="ac" overflow="visible" orient="auto">
<path transform="matrix(-.4 0 0 -.4 -4 0)" d="m0 0 5-5-17.5 5 17.5 5z" fill-rule="evenodd" stroke="#000" stroke-width="1pt"/>
</marker>
<pattern id="b" patternTransform="matrix(.50416 .44767 -.24643 .27753 17.816 27.551)" xlink:href="#c"/>
<pattern id="c" patternTransform="matrix(.50416 .44767 -.24643 .27753 31.55 0)" xlink:href="#d"/>
<pattern id="d" patternTransform="matrix(.50416 .44767 -.24643 .27753 0 0)" xlink:href="#ab"/>
<pattern id="ab" width="30.066020" height="5.1805778" patternUnits="userSpaceOnUse">
<path d="m7.597 0.061c-2.518-0.248-4.941 0.241-7.607 1.727v1.273c2.783-1.63 5.183-2.009 7.482-1.781 2.298 0.228 4.497 1.081 6.781 1.938 4.567 1.713 9.551 3.458 15.813-0.157l-4e-3 -1.273c-6.44 3.709-10.816 1.982-15.371 0.273-2.278-0.854-4.576-1.75-7.094-2z"/>
</pattern>
<linearGradient id="aa" x1="113.01" x2="115.74" y1="120.63" y2="120.63" gradientUnits="userSpaceOnUse" xlink:href="#a"/>
<linearGradient id="z" x1="97.687" x2="97.687" y1="124.88" y2="116.33" gradientUnits="userSpaceOnUse">
<stop offset="0"/>
<stop stop-opacity=".4" offset="1"/>
</linearGradient>
<linearGradient id="y" x1="97.687" x2="97.687" y1="124.88" y2="116.33" gradientTransform="translate(31.75)" gradientUnits="userSpaceOnUse">
<stop offset="0"/>
<stop stop-opacity=".93333" offset="1"/>
</linearGradient>
<linearGradient id="x" x1="113.01" x2="116.47" y1="153.73" y2="153.73" gradientUnits="userSpaceOnUse" xlink:href="#a"/>
<linearGradient id="w" x1="113.01" x2="115.74" y1="120.63" y2="120.63" gradientTransform="translate(31.75)" gradientUnits="userSpaceOnUse" xlink:href="#a"/>
<linearGradient id="v" x1="97.687" x2="97.687" y1="124.88" y2="116.33" gradientTransform="translate(63.5)" gradientUnits="userSpaceOnUse">
<stop offset="0"/>
<stop stop-opacity=".33333" offset="1"/>
</linearGradient>
<linearGradient id="u" x1="113.01" x2="116.47" y1="153.73" y2="153.73" gradientTransform="translate(31.75)" gradientUnits="userSpaceOnUse" xlink:href="#a"/>
<linearGradient id="t" x1="113.01" x2="115.74" y1="120.63" y2="120.63" gradientTransform="translate(63.5)" gradientUnits="userSpaceOnUse" xlink:href="#a"/>
<linearGradient id="s" x1="97.687" x2="97.687" y1="124.88" y2="116.33" gradientTransform="translate(95.25)" gradientUnits="userSpaceOnUse">
<stop offset="0"/>
<stop stop-opacity=".2" offset="1"/>
</linearGradient>
<linearGradient id="r" x1="113.01" x2="116.47" y1="153.73" y2="153.73" gradientTransform="translate(63.5)" gradientUnits="userSpaceOnUse" xlink:href="#a"/>
</defs>
<metadata>
<rdf:RDF>
<cc:Work rdf:about="">
<dc:format>image/svg+xml</dc:format>
<dc:type rdf:resource="http://purl.org/dc/dcmitype/StillImage"/>
<dc:title/>
</cc:Work>
</rdf:RDF>
</metadata>
<g transform="translate(-36.2 -55.475)">
<path d="m66.977 120.63h19.991" fill="none" marker-end="url(#ac)" stroke="#000" stroke-width=".26458"/>
<rect x="37.333" y="165.09" width="26.08" height="16.442" fill="none" stroke="#000" stroke-width=".26458"/>
<text x="50.298351" y="175.34404" fill="#000000" font-family="sans-serif" font-size="7.0556px" letter-spacing="0px" stroke-width=".26458px" text-align="center" text-anchor="middle" word-spacing="0px" style="line-height:6.61458302px" xml:space="preserve"><tspan x="50.298351" y="175.34404" font-size="5.6444px" stroke-width=".26458px">Query</tspan></text>
<path d="m43.845 108.19h18.858c2.4081 0 4.3467 4.9305 4.3467 12.37s-1.9386 11.84-4.3467 11.84h-18.858c-2.4081 0-4.3467-4.4014-4.3467-11.84s1.9386-12.37 4.3467-12.37z" fill="none" stroke="#000" stroke-width=".26458"/>
<g transform="translate(5.2917 -.52917)" stroke-width=".26458px" aria-label="Scoring Op">
<path d="m40.474 116.23v0.54295q-0.31695-0.15158-0.59807-0.226-0.28112-0.0744-0.54295-0.0744-0.45475 0-0.7028 0.17639-0.24529 0.17639-0.24529 0.5016 0 0.27286 0.16261 0.41342 0.16536 0.1378 0.62287 0.22324l0.33624 0.0689q0.62287 0.11851 0.91777 0.41892 0.29766 0.29766 0.29766 0.79927 0 0.59806-0.40239 0.90674-0.39963 0.30868-1.1741 0.30868-0.29214 0-0.62287-0.0661-0.32797-0.0662-0.68075-0.19568v-0.57327q0.339 0.19017 0.66421 0.28664 0.32522 0.0965 0.63941 0.0965 0.4768 0 0.73587-0.18741 0.25907-0.18742 0.25907-0.53468 0-0.30317-0.18741-0.47405-0.18466-0.17088-0.60909-0.25631l-0.339-0.0661q-0.62287-0.12402-0.90124-0.38861-0.27836-0.26458-0.27836-0.73587 0-0.5457 0.38309-0.85989 0.38585-0.3142 1.0611-0.3142 0.28939 0 0.5898 0.0524t0.6146 0.15709z"/>
<path d="m43.789 117.24v0.47405q-0.21497-0.11851-0.4327-0.17639-0.21497-0.0606-0.43546-0.0606-0.49334 0-0.76619 0.31419-0.27285 0.31144-0.27285 0.87643 0 0.565 0.27285 0.87919 0.27285 0.31144 0.76619 0.31144 0.22049 0 0.43546-0.0579 0.21773-0.0606 0.4327-0.17915v0.46854q-0.21222 0.0992-0.44097 0.14883-0.226 0.0496-0.48231 0.0496-0.69729 0-1.1079-0.43821-0.41066-0.43822-0.41066-1.1824 0-0.75516 0.41341-1.1879 0.41617-0.4327 1.1383-0.4327 0.23427 0 0.45751 0.0496 0.22324 0.0469 0.4327 0.14331z"/>
<path d="m45.873 117.48q-0.4079 0-0.64492 0.3197-0.23702 0.31695-0.23702 0.87092t0.23427 0.87368q0.23702 0.31695 0.64768 0.31695 0.40514 0 0.64217-0.31971 0.23702-0.3197 0.23702-0.87092 0-0.54846-0.23702-0.86816-0.23702-0.32246-0.64217-0.32246zm0-0.42995q0.66146 0 1.039 0.42995 0.37758 0.42994 0.37758 1.1906 0 0.75792-0.37758 1.1906-0.37758 0.42994-1.039 0.42994-0.66421 0-1.0418-0.42994-0.37483-0.43271-0.37483-1.1906 0-0.76068 0.37483-1.1906 0.37758-0.42995 1.0418-0.42995z"/>
<path d="m49.916 117.6q-0.08544-0.0496-0.18741-0.0717-0.09922-0.0248-0.22049-0.0248-0.42995 0-0.66146 0.28112-0.22876 0.27836-0.22876 0.80201v1.6261h-0.50987v-3.0868h0.50987v0.47956q0.15985-0.28112 0.41617-0.41617 0.25632-0.1378 0.62287-0.1378 0.05237 0 0.11576 8e-3 0.06339 6e-3 0.14056 0.0193z"/>
<path d="m50.453 117.12h0.50712v3.0868h-0.50712zm0-1.2016h0.50712v0.64217h-0.50712z"/>
<path d="m54.585 118.35v1.8631h-0.50712v-1.8466q0-0.43822-0.17088-0.65595t-0.51263-0.21773q-0.41066 0-0.64768 0.26183t-0.23702 0.71382v1.7446h-0.50987v-3.0868h0.50987v0.47956q0.1819-0.27836 0.42719-0.41617 0.24805-0.1378 0.57051-0.1378 0.53192 0 0.80478 0.33073 0.27285 0.32797 0.27285 0.96738z"/>
<path d="m57.633 118.63q0-0.55122-0.22876-0.85439-0.226-0.30317-0.63665-0.30317-0.4079 0-0.63665 0.30317-0.226 0.30317-0.226 0.85439 0 0.54846 0.226 0.85162 0.22875 0.30317 0.63665 0.30317 0.41066 0 0.63665-0.30317 0.22876-0.30316 0.22876-0.85162zm0.50712 1.1961q0 0.78824-0.35002 1.1713-0.35002 0.38585-1.0721 0.38585-0.26734 0-0.50436-0.0413-0.23702-0.0386-0.46026-0.12127v-0.49334q0.22324 0.12127 0.44097 0.17915 0.21773 0.0579 0.44373 0.0579 0.49885 0 0.7469-0.26182 0.24805-0.25907 0.24805-0.78549v-0.2508q-0.1571 0.27285-0.40239 0.4079t-0.58704 0.13505q-0.56775 0-0.91502-0.43271-0.34727-0.4327-0.34727-1.1465 0-0.71658 0.34727-1.1493 0.34726-0.4327 0.91502-0.4327 0.34175 0 0.58704 0.13505 0.24529 0.13504 0.40239 0.4079v-0.46854h0.50712z"/>
<path d="m46.264 123.46q-0.60634 0-0.96463 0.452-0.35553 0.45199-0.35553 1.232 0 0.77722 0.35553 1.2292 0.35829 0.452 0.96463 0.452t0.95912-0.452q0.35553-0.45199 0.35553-1.2292 0-0.77997-0.35553-1.232-0.35278-0.452-0.95912-0.452zm0-0.452q0.86541 0 1.3836 0.58154 0.51814 0.57877 0.51814 1.5544 0 0.9729-0.51814 1.5544-0.51814 0.57878-1.3836 0.57878-0.86816 0-1.3891-0.57878-0.51814-0.57878-0.51814-1.5544t0.51814-1.5544q0.5209-0.58154 1.3891-0.58154z"/>
<path d="m49.505 126.73v1.6371h-0.50987v-4.2609h0.50987v0.46854q0.15985-0.27561 0.40239-0.4079 0.24529-0.13505 0.58429-0.13505 0.56224 0 0.91226 0.44648 0.35278 0.44649 0.35278 1.1741t-0.35278 1.1741q-0.35002 0.44649-0.91226 0.44649-0.339 0-0.58429-0.1323-0.24254-0.13504-0.40239-0.41065zm1.7253-1.0776q0-0.55948-0.23151-0.87643-0.22876-0.3197-0.63114-0.3197t-0.6339 0.3197q-0.22876 0.31695-0.22876 0.87643 0 0.55949 0.22876 0.87919 0.23151 0.31695 0.6339 0.31695t0.63114-0.31695q0.23151-0.3197 0.23151-0.87919z"/>
</g>
<rect x="82.065" y="165.09" width="31.426" height="16.442" fill="#d9fac6" stroke="#000" stroke-width=".26458"/>
<text x="97.584579" y="172.09607" fill="#000000" font-family="sans-serif" font-size="5.6444px" letter-spacing="0px" stroke-width=".26458px" text-align="center" text-anchor="middle" word-spacing="0px" style="line-height:6.61458302px" xml:space="preserve"><tspan x="97.584579" y="172.09607">Memory</tspan><tspan x="97.584579" y="179.07721">unit</tspan></text>
<path d="m87.306 124.8v-8.4838h20.944v8.4838z" fill="url(#b)" fill-rule="evenodd" opacity=".5"/>
<path d="m87.306 116.32v8.4838h20.944v-8.4838z" fill="none" stroke="#000" stroke-width=".26458px"/>
<path d="m119.06 124.8v-8.4838h20.944v8.4838z" fill="url(#g)" fill-rule="evenodd" opacity=".5"/>
<path d="m119.06 116.32v8.4838h20.944v-8.4838z" fill="none" stroke="#000" stroke-width=".26458px"/>
<g transform="translate(63.5)">
<path d="m87.306 124.8v-8.4838h20.944v8.4838z" fill="url(#f)" fill-rule="evenodd" opacity=".5"/>
<path d="m87.306 116.32v8.4838h20.944v-8.4838z" fill="none" stroke="#000" stroke-width=".26458px"/>
</g>
<g transform="translate(95.25)">
<path d="m87.306 124.8v-8.4838h20.944v8.4838z" fill="url(#e)" fill-rule="evenodd" opacity=".5"/>
<path d="m87.306 116.32v8.4838h20.944v-8.4838z" fill="none" stroke="#000" stroke-width=".26458px"/>
</g>
<rect x="113.81" y="165.09" width="31.426" height="16.442" fill="#fabba0" stroke="#000" stroke-width=".26458"/>
<rect x="145.56" y="165.09" width="31.426" height="16.442" fill="#baf6f3" stroke="#000" stroke-width=".26458"/>
<rect x="177.31" y="165.09" width="31.426" height="16.442" fill="#bac0f6" stroke="#000" stroke-width=".26458"/>
<path d="m113.01 120.63h5.704" fill="none" marker-end="url(#l)" opacity=".8" stroke="url(#aa)" stroke-width=".265"/>
<path d="m97.687 164.94v-40.064" fill="none" stroke="#000" stroke-width=".265"/>
<path d="m97.687 124.88v-8.5526" fill="none" stroke="url(#z)" stroke-width=".26458px"/>
<path d="m97.687 116.33v-20.785c0-0.66146 0.66146-1.3229 1.3229-1.3229l39.809 0.0016" fill="none" marker-end="url(#p)" stroke="#000" stroke-opacity=".4" stroke-width=".265"/>
<path transform="translate(7.1701 23.894)" d="m94.578 94.822c-0.27223 0-0.51862 0.05122-0.72852 0.16406v-2e-3c-0.04366 0.02309-0.06896 0.06329-0.10742 0.0918-0.02333-0.09561-0.10162-0.17699-0.20117-0.17773a0.145 0.145 0 0 0-2e-3 0h-0.50976a0.145 0.145 0 0 0-2e-3 0c-0.11499 8.61e-4 -0.21789 0.10376-0.21875 0.21875a0.145 0.145 0 0 0 0 2e-3v3.0859a0.145 0.145 0 0 0 0 2e-3c8.61e-4 0.11499 0.10376 0.21789 0.21875 0.21875a0.145 0.145 0 0 0 2e-3 0h0.50976a0.145 0.145 0 0 0 2e-3 0c0.11499-8.61e-4 0.21789-0.10376 0.21875-0.21875a0.145 0.145 0 0 0 0-2e-3v-1.627c1e-6 -0.31699 0.06842-0.52713 0.17773-0.66016 0.11254-0.13666 0.25259-0.20117 0.49219-0.20117 0.0642 0 0.11857 0.0077 0.16602 0.01953a0.145 0.145 0 0 0 0.0078 2e-3c0.04833 0.01047 0.08727 0.02415 0.12305 0.04492 0.06702 0.03884 0.15359 0.03868 0.2207 0 0.06712-0.03868 0.11133-0.11394 0.11133-0.19141a0.145 0.145 0 0 0 0-2e-3l-0.0039-0.51758c1e-3 -0.10303-0.07845-0.20158-0.17969-0.2207a0.145 0.145 0 0 0-2e-3 0c-0.05928-0.01022-0.11054-0.01556-0.15234-0.01953h-2e-3c-0.04367-0.0055-0.09002-0.0098-0.14062-0.0098zm-10.051 2e-3c-0.40896 0-0.7536 0.08306-1.0117 0.28125-0.2592 0.19902-0.39453 0.50345-0.39453 0.84766 0 0.28221 0.08644 0.54007 0.27344 0.72461a0.145 0.145 0 0 0 2e-3 0 0.145 0.145 0 0 0 0.04687 0.03125c3.99e-4 3.46e-4 0.0016-3.45e-4 2e-3 0 0.18294 0.15824 0.42844 0.26424 0.74024 0.33008l0.17188 0.03906a0.145 0.145 0 0 0 0.0039 2e-3c0.0015 3.27e-4 0.0024-3.27e-4 0.0039 0a0.145 0.145 0 0 0 0.0059 2e-3c0.14447 0.0317 0.26478 0.06465 0.35156 0.0957 0.08915 0.0319 0.14988 0.06717 0.15625 0.07227a0.145 0.145 0 0 0 2e-3 0 0.145 0.145 0 0 0 0 2e-3c0.04415 0.03478 0.05664 0.05007 0.05664 0.14062 0 0.08969-0.01138 0.10824-0.0918 0.16016-0.07532 0.04734-0.21815 0.08789-0.43164 0.08789-0.15702 0-0.31555-0.02323-0.48047-0.06641h-2e-3c-0.16439-0.04497-0.33528-0.11246-0.50977-0.20312a0.145 0.145 0 0 0-2e-3 0c-0.06718-0.0339-0.15072-0.03156-0.21484 0.0078-0.06412 0.03937-0.10531 0.11421-0.10547 0.18945v0.52344a0.145 0.145 0 0 0 0 2e-3c7.56e-4 0.09197 0.06499 0.18021 0.15234 0.20898 0.20542 0.06661 0.40204 0.11878 0.59375 0.15234 0.19306 0.03545 0.3779 0.05078 0.55664 0.05078 0.42736 0 0.7899-0.08644 1.0664-0.29102 0.27861-0.20446 0.43164-0.51397 0.43164-0.86133-1e-6 -0.29597-0.09516-0.56408-0.29688-0.75-0.20024-0.18803-0.49279-0.29959-0.87109-0.38086a0.145 0.145 0 0 0-0.01758-2e-3l-0.15625-0.03516c-0.25657-0.05722-0.43259-0.1352-0.45898-0.1543-0.04561-0.035-0.04687-0.03447-0.04687-0.09961 0-0.09868 0.01187-0.11349 0.08398-0.1582 0.06954-0.0414 0.22496-0.08398 0.45117-0.08398 0.14924 0 0.2932 0.01634 0.42969 0.04883 0.13584 0.03235 0.26535 0.08219 0.39453 0.14844a0.145 0.145 0 0 0 2e-3 0c0.06718 0.0339 0.15072 0.03156 0.21484-0.0078 0.06412-0.03937 0.10531-0.1142 0.10547-0.18945v-0.48052c6.3e-5 -0.08866-0.058-0.17477-0.14062-0.20703-0.15662-0.06185-0.3239-0.10512-0.50195-0.13476-0.1795-0.02989-0.36694-0.04297-0.56445-0.04297zm3.293 0c-0.52591 0-0.97631 0.16467-1.2988 0.5-0.32053 0.33549-0.47266 0.7959-0.47266 1.3398 0 0.53687 0.1514 0.99729 0.46875 1.3359 0.31731 0.3386 0.75792 0.50586 1.2695 0.50586 0.1846 0 0.36097-0.01579 0.5293-0.05273 0.16882-0.03662 0.33194-0.09294 0.48828-0.16602a0.145 0.145 0 0 0 0.0039 0c0.0747-0.0366 0.12383-0.11802 0.12305-0.20117v-0.4688a0.145 0.145 0 0 0 0-2e-3c-0.0011-0.07586-0.04393-0.14913-0.10938-0.1875s-0.15008-0.04003-0.2168-0.0039a0.145 0.145 0 0 0-2e-3 0c-0.12889 0.07108-0.25883 0.12261-0.38672 0.1582-0.12551 0.0335-0.24816 0.05273-0.37305 0.05273-0.28265 0-0.46028-0.07926-0.59961-0.23828-0.1389-0.15995-0.21875-0.391-0.21875-0.73242 0-0.34138 0.08021-0.57038 0.21875-0.72852 0.13943-0.16056 0.31705-0.24024 0.59961-0.24024 0.12616 0 0.24758 0.01737 0.37305 0.05273a0.145 0.145 0 0 0 0.0039 2e-3c0.12764 0.03393 0.25494 0.0838 0.38281 0.1543a0.145 0.145 0 0 0 2e-3 0c0.06672 0.03612 0.15135 0.03446 0.2168-0.0039 0.06545-0.03837 0.1083-0.11164 0.10938-0.1875a0.145 0.145 0 0 0 0-2e-3v-0.47461c5.2e-4 -0.08437-0.05246-0.16554-0.12891-0.20117-0.15508-0.07138-0.31549-0.12381-0.47852-0.1582a0.145 0.145 0 0 0-0.02734-2e-3l0.02734 0.0039c-0.01023-0.0023-0.02099-0.0018-0.03125-0.0039-0.15486-0.03199-0.31252-0.05078-0.47266-0.05078zm2.9746 0c-0.49124 0-0.91562 0.16764-1.2109 0.50391-0.29255 0.33557-0.42773 0.79238-0.42773 1.3359 0 0.54186 0.13549 1.0005 0.42773 1.3379 0.29532 0.33628 0.7197 0.50391 1.2109 0.50391 0.48962 0 0.91209-0.16806 1.207-0.50391 0.29446-0.33745 0.42969-0.79602 0.42969-1.3379 0-0.54356-0.13492-1.0003-0.42969-1.3359-0.29494-0.33584-0.71741-0.50391-1.207-0.50391zm5.752 0c-0.51062 0-0.95264 0.17109-1.2695 0.51562-0.31479 0.34244-0.46484 0.80621-0.46484 1.3516 0 0.53232 0.16216 0.98834 0.49414 1.3203a0.145 0.145 0 0 0 0 2e-3c0.33392 0.33179 0.79243 0.49219 1.3281 0.49219 0.21189 0 0.42085-0.02088 0.62695-0.06445 0.20461-0.04328 0.40452-0.10669 0.59961-0.18945 0.07939-0.03355 0.13434-0.11694 0.13477-0.20312v-0.48047c-1.56e-4 -0.07525-0.04134-0.15008-0.10547-0.18945-0.06412-0.03937-0.14767-0.04171-0.21484-0.0078a0.145 0.145 0 0 0-0.0039 0c-0.16621 0.08817-0.33227 0.15414-0.49805 0.19726-0.16362 0.04294-0.3339 0.06641-0.50977 0.06641-0.29437 0-0.48787-0.07499-0.63086-0.21094l-2e-3 -2e-3c-0.0948-0.09375-0.15492-0.2401-0.19531-0.41797h2.0586a0.145 0.145 0 0 0 2e-3 0c0.11499-8.61e-4 0.21789-0.10376 0.21875-0.21875a0.145 0.145 0 0 0 0-2e-3v-0.24805c0-0.49845-0.1345-0.92279-0.41992-1.2363-0.28371-0.31619-0.68463-0.47461-1.1484-0.47461zm-5.752 0.87109c0.21382 1e-6 0.33912 0.06404 0.46289 0.23242 0.12204 0.16461 0.19531 0.40267 0.19531 0.73633 0 0.33563-0.07372 0.57622-0.19531 0.74024-0.12362 0.16674-0.24898 0.23047-0.46289 0.23047-0.21774 0-0.34854-0.06623-0.4707-0.22852-0.11909-0.16348-0.19141-0.40548-0.19141-0.74219 0-0.33512 0.0716-0.57234 0.19141-0.73437 4.65e-4 -6.3e-4 0.0015-0.0013 2e-3 -2e-3a0.145 0.145 0 0 0 0.0039-0.0039c0.12325-0.16624 0.24758-0.22852 0.46484-0.22852zm5.7578 0c0.19962 0 0.31992 0.05387 0.42969 0.17188a0.145 0.145 0 0 0 0.0039 0.0039c3.89e-4 4.24e-4 0.0016-4.26e-4 2e-3 0a0.145 0.145 0 0 0 0 2e-3c0.06701 0.07266 0.10757 0.17507 0.13477 0.29297l-1.2598 2e-3c0.03757-0.12007 0.0864-0.22322 0.16016-0.29297 0.12651-0.11835 0.28698-0.17969 0.5293-0.17969z" stroke="#fff" stroke-width=".39687"/>
<path d="m97.683 164.97v-15.214c0-0.66146-0.66146-1.3231-1.3229-1.3229-15.685 7e-3 -22.903 5e-3 -38.588 5e-3 -0.66146 0-1.3229-0.66145-1.3229-1.3229v-14.186" fill="none" marker-end="url(#k)" stroke="#000" stroke-width=".26458px"/>
<path d="m50.436 164.98v-32.05" fill="none" marker-end="url(#j)" stroke="#000" stroke-width=".26458px"/>
<path d="m129.44 164.94v-40.064" fill="none" stroke="#000" stroke-width=".265"/>
<path d="m129.44 124.88v-8.5526" fill="none" stroke="url(#y)" stroke-width=".26458px"/>
<path d="m129.43 164.97v-15.214c0-0.66146-0.66146-1.3231-1.3229-1.3229-5.3285 0-15.095 5e-3 -15.095 5e-3" fill="none" opacity=".8" stroke="url(#x)" stroke-width=".265"/>
<path d="m144.76 120.63h5.704" fill="none" marker-end="url(#i)" opacity=".8" stroke="url(#w)" stroke-width=".265"/>
<path d="m161.19 164.94v-40.064" fill="none" stroke="#000" stroke-width=".265"/>
<path d="m161.19 124.88v-8.5526" fill="none" stroke="url(#v)" stroke-width=".26458px"/>
<path d="m161.18 164.97v-15.214c0-0.66146-0.66146-1.3231-1.3229-1.3229-5.3285 0-15.095 5e-3 -15.095 5e-3" fill="none" opacity=".8" stroke="url(#u)" stroke-width=".265"/>
<path d="m176.51 120.63h5.704" fill="none" marker-end="url(#h)" opacity=".8" stroke="url(#t)" stroke-width=".265"/>
<path d="m192.94 164.94v-40.064" fill="none" stroke="#000" stroke-width=".265"/>
<path d="m192.94 124.88v-8.5526" fill="none" stroke="url(#s)" stroke-width=".26458px"/>
<path d="m192.93 164.97v-15.214c0-0.66146-0.66146-1.3231-1.3229-1.3229-5.3285 0-15.095 5e-3 -15.095 5e-3" fill="none" opacity=".8" stroke="url(#r)" stroke-width=".265"/>
<g transform="translate(1.5868 34.305)" fill="none" stroke="#000" stroke-width=".26458">
<circle cx="143.73" cy="59.914" r="5.9531" opacity=".8"/>
<path d="m140.23 59.914h6.9981m-3.499-3.499v6.9981" stroke-linecap="round"/>
</g>
<path d="m129.44 116.33v-20.785c0-0.66146 0.17954-1.323 0.841-1.3229l8.5411 0.0016" fill="none" marker-end="url(#o)" stroke="#000" stroke-opacity=".93333" stroke-width=".265"/>
<path d="m161.19 116.33v-20.785c0-0.66146-0.66146-1.3231-1.3229-1.3229l-8.0592 0.0016" fill="none" marker-end="url(#q)" stroke="#000" stroke-opacity=".33333" stroke-width=".265"/>
<path d="m192.94 116.33v-20.785c0-0.66146-0.66146-1.3229-1.3229-1.3229l-39.809 0.0016" fill="none" marker-end="url(#n)" stroke="#000" stroke-opacity=".2" stroke-width=".265"/>
<rect x="129.6" y="56.607" width="31.426" height="16.442" fill="#f6eaba" stroke="#000" stroke-width=".26458"/>
<g font-family="sans-serif" letter-spacing="0px" stroke-width=".26458px" text-anchor="middle" word-spacing="0px">
<text x="145.3015" y="64.115372" font-size="7.0556px" text-align="center" style="line-height:6.61458302px" xml:space="preserve"><tspan x="145.3015" y="64.115372" font-size="5.6444px" stroke-width=".26458px">Output</tspan></text>
<text x="145.31305" y="69.311546" font-size="5.6444px" text-align="center" style="line-height:6.61458302px" xml:space="preserve"><tspan x="145.31305" y="69.311546" font-size="3.175px" stroke-width=".26458px">(mem wt. sum)</tspan></text>
</g>
<path d="m145.31 88.146v-14.676" fill="none" marker-end="url(#m)" stroke="#000" stroke-width=".26458"/>
</g>
</svg>
